<?xml version="1.0" standalone="no"?>
<!DOCTYPE svg PUBLIC "-//W3C//DTD SVG 1.1//EN" "http://www.w3.org/Graphics/SVG/1.1/DTD/svg11.dtd" >
<svg>
<metadata>
Created by FontForge 20110222 at Wed Jul  8 23:38:05 2015
 By www-data
AA Sameer
</metadata>
<defs>
<font id="AASameerZikran" horiz-adv-x="0" >
  <font-face 
    font-family="AA Sameer Zikran"
    font-weight="300"
    font-stretch="normal"
    units-per-em="2048"
    panose-1="2 0 0 0 0 0 0 0 0 0"
    ascent="1638"
    descent="-410"
    x-height="661"
    cap-height="1148"
    bbox="-2164 -1101 6650 2166"
    underline-thickness="50"
    underline-position="-700"
    unicode-range="U+0020-FEFB"
  />
<missing-glyph horiz-adv-x="257" 
 />
    <glyph glyph-name="sf277.046" unicode="&#x622;" horiz-adv-x="485" arabic-form="final" 
d="M539 1985q-17 -45 -41.5 -85.5t-58.5 -71.5t-77.5 -49t-98.5 -18q-54 0 -112 15q-10 2 -18.5 4t-16.5 2q-65 0 -190 -104q-2 -2 -7 -2q-7 0 -13 5t-6 12q0 12 2.5 23t10.5 25t22.5 33.5t38.5 49.5q33 42 79 62t112 20q12 0 32.5 -2.5t43.5 -6t44 -6t33 -2.5
q42 0 75.5 17.5t58.5 38.5t42 38.5t26 17.5h7q12 -5 12 -13v-3zM511 0q-64 0 -115.5 11.5t-92 49.5t-71 110.5t-52.5 194.5q-14 77 -27 171t-25 196.5t-21.5 209t-17.5 209t-13 196.5t-7 171v17q0 157 111 157q39 0 70 -16q15 -8 37.5 -26t43.5 -38t36 -38t15 -25
q0 -3 -4 -3q-9 0 -28.5 10t-42.5 21.5t-45.5 21.5t-36.5 10q-24 0 -46.5 -7.5t-29.5 -32.5q3 -43 6 -89.5t6 -97.5q7 -121 16 -241t22.5 -241.5t33 -247t48.5 -257.5q15 -69 74 -105q57 -35 151 -35h5v-256z" />
    <glyph glyph-name="sf277" unicode="&#x627;" horiz-adv-x="485" arabic-form="final" 
d="M511 0q-64 0 -115.5 11.5t-92 49.5t-71 110.5t-52.5 194.5q-14 77 -27 171t-25 196.5t-21.5 209t-17.5 209t-13 196.5t-7 171v17q0 157 111 157q39 0 70 -16q15 -8 37.5 -26t43.5 -38t36 -38t15 -25q0 -3 -4 -3q-9 0 -28.5 10t-42.5 21.5t-45.5 21.5t-36.5 10
q-24 0 -46.5 -7.5t-29.5 -32.5q3 -43 6 -89.5t6 -97.5q7 -121 16 -241t22.5 -241.5t33 -247t48.5 -257.5q15 -69 74 -105q57 -35 151 -35h5v-256z" />
    <glyph glyph-name="sf300.001" unicode="&#x628;" horiz-adv-x="400" arabic-form="initial" 
d="M212 705q3 12 11 12q6 0 14 -5q23 -30 41.5 -70t32.5 -85q17 -57 29 -115q8 -41 8 -81q0 -17 -1 -34q-8 -95 -36.5 -158t-75.5 -100.5t-111.5 -53t-143.5 -15.5v256q30 0 75 2t88 10q22 4 43 10.5t37 16t26 22t10 29.5q0 15 -8.5 35t-21 40t-26 38.5t-23.5 30.5
q1 34 5 60.5t9 50.5t10 48.5t8 55.5zM280 -146q-23 -38 -51.5 -75t-60.5 -76q-39 20 -79.5 47.5t-82.5 63.5q40 57 68 94.5t42 57.5q42 -32 82 -59.5t82 -52.5z" />
    <glyph glyph-name="sf277.017" unicode="&#x628;" horiz-adv-x="488" arabic-form="medial" 
d="M508 0h-13q-33 0 -67 9q-41 10 -77 31.5t-64 53t-43 71.5q-11 -43 -35 -74t-58.5 -51.5t-78 -30t-92.5 -9.5v256q62 0 108 13t79.5 38t56 61.5t37.5 83.5q4 15 12 18q3 1 6 1q5 0 10 -3q7 -5 12.5 -16t5.5 -24q3 -35 9 -62t18 -47q13 -21 32.5 -33.5t42.5 -19t48.5 -8.5
t50.5 -2v-256zM401 -103q-23 -38 -51.5 -75t-60.5 -76q-39 20 -79.5 47.5t-82.5 63.5q40 57 68 94.5t42 57.5q42 -32 82 -59.5t82 -52.5z" />
    <glyph glyph-name="sf277.002" unicode="&#x628;" horiz-adv-x="1653" arabic-form="final" 
d="M1413 216q-78 -59 -172 -104.5t-196 -76.5t-209 -46.5t-210 -15.5q-123 0 -226.5 22t-179 73.5t-118 136t-42.5 209.5q0 88 38 174t104 161q4 6 12 6t15.5 -4.5t7.5 -12.5q0 -11 -6 -24t-14.5 -27t-16.5 -28.5t-12 -27.5q-11 -32 -20 -69t-9 -69q0 -53 23.5 -94t63.5 -71
t92 -50.5t108.5 -33t114.5 -18t109 -5.5q81 0 164.5 11t163.5 30.5t153 46t133.5 56t105.5 61.5t69 63q6 3 10 3q9 0 13.5 -10.5t6.5 -23.5v-13q0 -33 7 -66.5t27.5 -61t56.5 -44.5t94 -17v-256q-39 0 -78.5 7t-74.5 30t-63.5 65.5t-44.5 113.5zM892 -168q-23 -38 -51.5 -75
t-60.5 -76q-39 20 -79.5 47.5t-82.5 63.5q40 57 68 94.5t42 57.5q42 -32 82 -59.5t82 -52.5z" />
    <glyph glyph-name="sf300.002" unicode="&#x67e;" horiz-adv-x="446" arabic-form="initial" 
d="M212 705q3 12 11 12q6 0 14 -5q23 -30 41.5 -70t32.5 -85q17 -57 29 -115q8 -41 8 -81q0 -17 -1 -34q-8 -95 -36.5 -158t-75.5 -100.5t-111.5 -53t-143.5 -15.5v256q30 0 75 2t88 10q22 4 43 10.5t37 16t26 22t10 29.5q0 15 -8.5 35t-21 40t-26 38.5t-23.5 30.5
q1 34 5 60.5t9 50.5t10 48.5t8 55.5zM269 -179q31 25 65 49q59 -68 106 -137q-42 -30 -75 -58t-62 -53q-13 17 -34 43t-51 60q-28 -22 -58 -47.5t-63 -54.5q-35 42 -61.5 73.5t-44.5 57.5q45 47 133 116q15 -17 36.5 -42.5t49.5 -59.5q28 28 59 53zM247.5 -522.5
q-31.5 -29.5 -57.5 -58.5q-18 20 -43.5 53.5t-62.5 83.5q29 33 61 62t69 53q28 -30 54 -62.5t51 -72.5q-40 -29 -71.5 -58.5z" />
    <glyph glyph-name="sf277.021" unicode="&#x67e;" horiz-adv-x="488" arabic-form="medial" 
d="M508 0h-13q-33 0 -67 9q-41 10 -77 31.5t-64 53t-43 71.5q-11 -43 -35 -74t-58.5 -51.5t-78 -30t-92.5 -9.5v256q62 0 108 13t79.5 38t56 61.5t37.5 83.5q4 15 12 18q3 1 6 1q5 0 10 -3q7 -5 12.5 -16t5.5 -24q3 -35 9 -62t18 -47q13 -21 32.5 -33.5t42.5 -19t48.5 -8.5
t50.5 -2v-256zM309 -173q32 26 69 51q62 -70 111 -142q-45 -30 -79.5 -59t-64.5 -55q-14 18 -36 44.5t-54 61.5q-28 -22 -59.5 -48t-65.5 -57q-37 43 -65 76t-46 59q47 49 138 119q16 -18 38.5 -43.5t52.5 -60.5q29 28 61 54zM287 -526q-33 -30 -60 -59q-19 20 -45.5 54
t-65.5 86q30 34 63.5 63.5t72.5 54.5q29 -31 56.5 -64.5t53.5 -73.5q-42 -31 -75 -61z" />
    <glyph glyph-name="sf277.026" unicode="&#x67e;" horiz-adv-x="1653" arabic-form="final" 
d="M1413 216q-78 -59 -172 -104.5t-196 -76.5t-209 -46.5t-210 -15.5q-123 0 -226.5 22t-179 73.5t-118 136t-42.5 209.5q0 88 38 174t104 161q4 6 12 6t15.5 -4.5t7.5 -12.5q0 -11 -6 -24t-14.5 -27t-16.5 -28.5t-12 -27.5q-11 -32 -20 -69t-9 -69q0 -53 23.5 -94t63.5 -71
t92 -50.5t108.5 -33t114.5 -18t109 -5.5q81 0 164.5 11t163.5 30.5t153 46t133.5 56t105.5 61.5t69 63q6 3 10 3q9 0 13.5 -10.5t6.5 -23.5v-13q0 -33 7 -66.5t27.5 -61t56.5 -44.5t94 -17v-256q-39 0 -78.5 7t-74.5 30t-63.5 65.5t-44.5 113.5zM830 -282q35 27 74 53
q67 -73 120 -147q-48 -32 -85.5 -62t-69.5 -57q-15 19 -39 46.5t-58 63.5q-31 -23 -65 -50t-71 -59q-40 45 -70 79t-50 61q51 51 150 124q17 -18 41.5 -45t56.5 -63q31 29 66 56zM806 -649.5q-36 -31.5 -65 -61.5q-20 21 -49 56.5t-71 89.5q33 35 69 66t78 57
q32 -32 61.5 -67t57.5 -77q-45 -32 -81 -63.5z" />
    <glyph glyph-name="sf300.003" unicode="&#x62a;" horiz-adv-x="423" arabic-form="initial" 
d="M212 705q3 12 11 12q6 0 14 -5q23 -30 41.5 -70t32.5 -85q17 -57 29 -115q8 -41 8 -81q0 -17 -1 -34q-8 -95 -36.5 -158t-75.5 -100.5t-111.5 -53t-143.5 -15.5v256q30 0 75 2t88 10q22 4 43 10.5t37 16t26 22t10 29.5q0 15 -8.5 35t-21 40t-26 38.5t-23.5 30.5
q1 34 5 60.5t9 50.5t10 48.5t8 55.5zM237 915q-29 -35 -52 -61t-39 -45q-39 27 -73 57t-67 65q20 26 47.5 60t64.5 76q34 -32 65.5 -58t59.5 -48q64 70 91 107q30 -26 65 -55t80 -61q-24 -36 -52 -72t-60 -72q-38 27 -70 53.5t-60 53.5z" />
    <glyph glyph-name="sf277.003" unicode="&#x62a;" horiz-adv-x="487" arabic-form="medial" 
d="M508 0h-13q-33 0 -67 9q-41 10 -77 31.5t-64 53t-43 71.5q-11 -43 -35 -74t-58.5 -51.5t-78 -30t-92.5 -9.5v256q62 0 108 13t79.5 38t56 61.5t37.5 83.5q4 15 12 18q3 1 6 1q5 0 10 -3q7 -5 12.5 -16t5.5 -24q3 -35 9 -62t18 -47q13 -21 32.5 -33.5t42.5 -19t48.5 -8.5
t50.5 -2v-256zM234 681q-29 -36 -51.5 -63.5t-38.5 -46.5q-38 28 -72 59t-67 68q20 27 47.5 63t63.5 80q35 -34 65.5 -61.5t58.5 -50.5q63 73 90 113q29 -28 64 -58.5t78 -63.5q-23 -38 -50.5 -75.5t-58.5 -74.5q-38 28 -69.5 55.5t-59.5 55.5z" />
    <glyph glyph-name="sf277.027" unicode="&#x62a;" horiz-adv-x="1653" arabic-form="final" 
d="M1413 216q-78 -59 -172 -104.5t-196 -76.5t-209 -46.5t-210 -15.5q-123 0 -226.5 22t-179 73.5t-118 136t-42.5 209.5q0 88 38 174t104 161q4 6 12 6t15.5 -4.5t7.5 -12.5q0 -11 -6 -24t-14.5 -27t-16.5 -28.5t-12 -27.5q-11 -32 -20 -69t-9 -69q0 -53 23.5 -94t63.5 -71
t92 -50.5t108.5 -33t114.5 -18t109 -5.5q81 0 164.5 11t163.5 30.5t153 46t133.5 56t105.5 61.5t69 63q6 3 10 3q9 0 13.5 -10.5t6.5 -23.5v-13q0 -33 7 -66.5t27.5 -61t56.5 -44.5t94 -17v-256q-39 0 -78.5 7t-74.5 30t-63.5 65.5t-44.5 113.5zM749 601q-32 -38 -57 -66.5
t-42 -48.5q-42 29 -79.5 61.5t-73.5 70.5q22 29 52 66t70 83q38 -35 72 -63.5t65 -52.5q69 76 99 117q32 -29 70.5 -60.5t86.5 -66.5q-26 -39 -56.5 -78t-64.5 -78q-42 29 -76.5 58t-65.5 58z" />
    <glyph glyph-name="sf300.004" unicode="&#x679;" horiz-adv-x="400" arabic-form="initial" 
d="M212 705q3 12 11 12q6 0 14 -5q23 -30 41.5 -70t32.5 -85q17 -57 29 -115q8 -41 8 -81q0 -17 -1 -34q-8 -95 -36.5 -158t-75.5 -100.5t-111.5 -53t-143.5 -15.5v256q30 0 75 2t88 10q22 4 43 10.5t37 16t26 22t10 29.5q0 15 -8.5 35t-21 40t-26 38.5t-23.5 30.5
q1 34 5 60.5t9 50.5t10 48.5t8 55.5zM155 1230q4 -12 4 -14q0 -8 -3 -16.5t-6.5 -16.5t-6.5 -16.5t-3 -16.5v-1q0 -2 1 -14t2 -28.5t3 -35t3.5 -34.5t2.5 -26l1 -11q13 17 32 30.5t42 24t47 16t46 5.5q17 0 32.5 -3.5t27.5 -12t19 -22t7 -33.5q0 -18 -6 -37t-15.5 -35.5
t-22 -29.5t-25.5 -19q-10 -6 -28.5 -10.5t-41 -8.5t-48 -6t-50.5 -2q-13 0 -26 1t-24 2q-16 2 -29 6.5l-26 9t-26 10t-28 10.5q-5 1 -8 5.5t-3 9.5t2 8.5t5.5 5.5t7 3t5.5 1q13 0 26 -2t28 -2q7 0 12.5 1t8.5 6l21 40q3 5 4 11.5t1 15.5q0 14 -2 30t-3 29q-2 11 -3.5 25
t-3.5 29.5t-3.5 32t-2.5 32.5t-2 30t-1 25q0 5 0.5 14t1 19.5t2 21.5t3 20t4.5 14.5t7 5.5q1 0 2 -1q4 -11 7.5 -23t8 -25t9 -25t11.5 -23zM339 954l6 3t8 4.5t6.5 5.5t2.5 6q0 2 -1 4q-9 12 -25 16.5t-37 4.5q-19 0 -40 -3.5t-40 -9t-34.5 -13t-23.5 -15.5q-2 -2 -5.5 -4.5
t-7 -5.5t-6 -5.5t-2.5 -3.5q0 -2 3 -3t7.5 -1.5t10.5 -1t12 -0.5q14 0 29.5 1t32 3l33 4t30.5 4.5t25 5t16 4.5z" />
    <glyph glyph-name="sf277.043" unicode="&#x679;" horiz-adv-x="487" arabic-form="medial" 
d="M508 0h-13q-33 0 -67 9q-41 10 -77 31.5t-64 53t-43 71.5q-11 -43 -35 -74t-58.5 -51.5t-78 -30t-92.5 -9.5v256q62 0 108 13t79.5 38t56 61.5t37.5 83.5q4 15 12 18q3 1 6 1q5 0 10 -3q7 -5 12.5 -16t5.5 -24q3 -35 9 -62t18 -47q13 -21 32.5 -33.5t42.5 -19t48.5 -8.5
t50.5 -2v-256zM182 1028q4 -12 4 -14q0 -8 -3 -16.5t-6.5 -16.5t-6.5 -16.5t-3 -16.5v-1q0 -2 1 -14t2 -28.5t3 -35t3.5 -34.5t2.5 -26l1 -11q13 17 32 30.5t42 24t47 16t46 5.5q17 0 32.5 -3.5t27.5 -12t19 -22t7 -33.5q0 -18 -6 -37t-15.5 -35.5t-22 -29.5t-25.5 -19
q-10 -6 -28.5 -10.5t-41 -8.5t-48 -6t-50.5 -2q-13 0 -26 1t-24 2q-16 2 -29 6.5l-26 9t-26 10t-28 10.5q-5 1 -8 5.5t-3 9.5t2 8.5t5.5 5.5t7 3t5.5 1q13 0 26 -2t28 -2q7 0 12.5 1t8.5 6l21 40q3 5 4 11.5t1 15.5q0 14 -2 30t-3 29q-2 11 -3.5 25t-3.5 29.5t-3.5 32
t-2.5 32.5t-2 30t-1 25q0 5 0.5 14t1 19.5t2 21.5t3 20t4.5 14.5t7 5.5q1 0 2 -1q4 -11 7.5 -23t8 -25t9 -25t11.5 -23zM366 752l6 3t8 4.5t6.5 5.5t2.5 6q0 2 -1 4q-9 12 -25 16.5t-37 4.5q-19 0 -40 -3.5t-40 -9t-34.5 -13t-23.5 -15.5q-2 -2 -5.5 -4.5t-7 -5.5t-6 -5.5
t-2.5 -3.5q0 -2 3 -3t7.5 -1.5t10.5 -1t12 -0.5q14 0 29.5 1t32 3l33 4t30.5 4.5t25 5t16 4.5z" />
    <glyph glyph-name="sf277.028" unicode="&#x679;" horiz-adv-x="1653" arabic-form="final" 
d="M1413 216q-78 -59 -172 -104.5t-196 -76.5t-209 -46.5t-210 -15.5q-123 0 -226.5 22t-179 73.5t-118 136t-42.5 209.5q0 88 38 174t104 161q4 6 12 6t15.5 -4.5t7.5 -12.5q0 -11 -6 -24t-14.5 -27t-16.5 -28.5t-12 -27.5q-11 -32 -20 -69t-9 -69q0 -53 23.5 -94t63.5 -71
t92 -50.5t108.5 -33t114.5 -18t109 -5.5q81 0 164.5 11t163.5 30.5t153 46t133.5 56t105.5 61.5t69 63q6 3 10 3q9 0 13.5 -10.5t6.5 -23.5v-13q0 -33 7 -66.5t27.5 -61t56.5 -44.5t94 -17v-256q-39 0 -78.5 7t-74.5 30t-63.5 65.5t-44.5 113.5zM760 1015q4 -12 4 -14
q0 -8 -3 -16.5t-6.5 -16.5t-6.5 -16.5t-3 -16.5v-1q0 -2 1 -14t2 -28.5t3 -35t3.5 -34.5t2.5 -26l1 -11q13 17 32 30.5t42 24t47 16t46 5.5q17 0 32.5 -3.5t27.5 -12t19 -22t7 -33.5q0 -18 -6 -37t-15.5 -35.5t-22 -29.5t-25.5 -19q-10 -6 -28.5 -10.5t-41 -8.5t-48 -6
t-50.5 -2q-13 0 -26 1t-24 2q-16 2 -29 6.5l-26 9t-26 10t-28 10.5q-5 1 -8 5.5t-3 9.5t2 8.5t5.5 5.5t7 3t5.5 1q13 0 26 -2t28 -2q7 0 12.5 1t8.5 6l21 40q3 5 4 11.5t1 15.5q0 14 -2 30t-3 29q-2 11 -3.5 25t-3.5 29.5t-3.5 32t-2.5 32.5t-2 30t-1 25q0 5 0.5 14t1 19.5
t2 21.5t3 20t4.5 14.5t7 5.5q1 0 2 -1q4 -11 7.5 -23t8 -25t9 -25t11.5 -23zM944 739l6 3t8 4.5t6.5 5.5t2.5 6q0 2 -1 4q-9 12 -25 16.5t-37 4.5q-19 0 -40 -3.5t-40 -9t-34.5 -13t-23.5 -15.5q-2 -2 -5.5 -4.5t-7 -5.5t-6 -5.5t-2.5 -3.5q0 -2 3 -3t7.5 -1.5t10.5 -1
t12 -0.5q14 0 29.5 1t32 3l33 4t30.5 4.5t25 5t16 4.5z" />
    <glyph glyph-name="sf300.005" unicode="&#x62b;" horiz-adv-x="446" arabic-form="initial" 
d="M212 705q3 12 11 12q6 0 14 -5q23 -30 41.5 -70t32.5 -85q17 -57 29 -115q8 -41 8 -81q0 -17 -1 -34q-8 -95 -36.5 -158t-75.5 -100.5t-111.5 -53t-143.5 -15.5v256q30 0 75 2t88 10q22 4 43 10.5t37 16t26 22t10 29.5q0 15 -8.5 35t-21 40t-26 38.5t-23.5 30.5
q1 34 5 60.5t9 50.5t10 48.5t8 55.5zM224 901q-28 -33 -49.5 -58.5t-36.5 -42.5q-88 69 -133 116q18 26 44.5 57.5t61.5 73.5q33 -30 63 -55t58 -47q30 34 51 60t34 43q29 -25 62 -53t75 -58q-47 -69 -106 -138q-34 25 -65 50t-59 52zM333 1134q-25 -40 -51 -72.5t-54 -62.5
q-37 24 -69 53t-61 62q37 50 62.5 83.5t43.5 52.5q26 -28 57.5 -57.5t71.5 -58.5z" />
    <glyph glyph-name="sf277.022" unicode="&#x62b;" horiz-adv-x="488" arabic-form="medial" 
d="M508 0h-13q-33 0 -67 9q-41 10 -77 31.5t-64 53t-43 71.5q-11 -43 -35 -74t-58.5 -51.5t-78 -30t-92.5 -9.5v256q62 0 108 13t79.5 38t56 61.5t37.5 83.5q4 15 12 18q3 1 6 1q5 0 10 -3q7 -5 12.5 -16t5.5 -24q3 -35 9 -62t18 -47q13 -21 32.5 -33.5t42.5 -19t48.5 -8.5
t50.5 -2v-256zM235 688q-30 -34 -52.5 -60t-38.5 -43q-91 70 -138 119q18 26 46 58.5t65 75.5q34 -31 65.5 -56.5t59.5 -47.5q32 34 54 60.5t36 44.5q30 -26 64.5 -54.5t79.5 -59.5q-49 -71 -111 -141q-37 25 -69 51t-61 53zM349 927q-26 -41 -53.5 -74.5t-56.5 -64.5
q-39 25 -72.5 55t-63.5 63q39 52 65.5 86.5t45.5 54.5q27 -29 60 -59.5t75 -60.5z" />
    <glyph glyph-name="sf277.029" unicode="&#x62b;" horiz-adv-x="1653" arabic-form="final" 
d="M1413 216q-78 -59 -172 -104.5t-196 -76.5t-209 -46.5t-210 -15.5q-123 0 -226.5 22t-179 73.5t-118 136t-42.5 209.5q0 88 38 174t104 161q4 6 12 6t15.5 -4.5t7.5 -12.5q0 -11 -6 -24t-14.5 -27t-16.5 -28.5t-12 -27.5q-11 -32 -20 -69t-9 -69q0 -53 23.5 -94t63.5 -71
t92 -50.5t108.5 -33t114.5 -18t109 -5.5q81 0 164.5 11t163.5 30.5t153 46t133.5 56t105.5 61.5t69 63q6 3 10 3q9 0 13.5 -10.5t6.5 -23.5v-13q0 -33 7 -66.5t27.5 -61t56.5 -44.5t94 -17v-256q-39 0 -78.5 7t-74.5 30t-63.5 65.5t-44.5 113.5zM751 608q-32 -36 -56.5 -63
t-41.5 -45q-99 73 -150 124q20 27 50 61t70 79q37 -32 71 -59t65 -50q34 36 58 63.5t39 46.5q32 -27 69.5 -57t85.5 -62q-53 -74 -120 -147q-39 26 -74 53t-66 56zM874 856q-28 -42 -57.5 -77t-61.5 -67q-42 26 -78 57t-69 66q42 54 71 89.5t49 56.5q29 -30 65 -61.5
t81 -63.5z" />
    <glyph glyph-name="sf304.001" unicode="&#x62c;" horiz-adv-x="977" arabic-form="initial" 
d="M-21 256q126 0 210.5 8t146.5 24q63 16 103 36t59 24q-45 23 -86 43.5t-80 36.5t-76 25t-73 9q-25 0 -47 -6q-13 -4 -24 -15.5t-20.5 -24t-19 -22t-20.5 -9.5q-3 0 -6.5 5.5t-3.5 17.5q0 13 4 33.5t10.5 42t14 41.5t14.5 32q35 51 74 69t79 18q29 0 56.5 -7t52.5 -15
q40 -14 82 -33t84.5 -38t86.5 -36.5t89 -29.5q25 -6 48 -11.5t47 -10t49.5 -8t56.5 -5.5q26 -8 26 -45q-5 -21 -15 -47.5t-23 -53t-26 -51t-24 -42.5q-20 2 -38 3t-34 1q-35 0 -66 -6t-59.5 -15.5t-54.5 -21t-51 -21.5q-55 -24 -112.5 -50.5t-123.5 -49.5q-32 -11 -65 -20.5
t-70.5 -16t-80.5 -10.5t-94 -4v256zM458 -121q-23 -38 -51.5 -75t-60.5 -76q-39 20 -79.5 47.5t-82.5 63.5q40 57 68 94.5t42 57.5q42 -32 82 -59.5t82 -52.5z" />
    <glyph glyph-name="sf323" unicode="&#x62c;" horiz-adv-x="957" arabic-form="medial" 
d="M979 0q-130 0 -210 67t-104 213q0 25 -15 25q-7 0 -18 -4.5t-18 -13.5q-51 -69 -120.5 -122.5t-151.5 -90t-174 -55.5t-189 -19v256q145 0 269 35t239 104q-34 19 -76.5 35.5t-86 29.5t-85 20.5t-73.5 7.5q-35 0 -53.5 -10.5t-29 -23.5t-17.5 -23.5t-17 -10.5
q-6 0 -10.5 8.5t-4.5 20.5q0 18 8 44.5t19.5 53.5t24 50t20.5 35q23 33 59.5 46.5t78.5 13.5q38 0 78 -9t75 -20q62 -21 127.5 -43.5t132 -41.5t134 -31.5t133.5 -13.5q9 -2 17.5 -13.5t8.5 -25.5q0 -11 -6 -21q-12 -21 -23 -40t-24.5 -36t-30 -32.5t-39.5 -30.5h-2
q-4 0 -12.5 3t-18 6.5t-19 6.5t-16.5 3q-9 0 -10 -7v-5q0 -32 20 -49t52 -25t73.5 -9.5t84.5 -1.5v-256zM469 -109q-23 -38 -51.5 -75t-60.5 -76q-39 20 -79.5 47.5t-82.5 63.5q40 57 68 94.5t42 57.5q42 -32 82 -59.5t82 -52.5z" />
    <glyph glyph-name="sf277.030" unicode="&#x62c;" horiz-adv-x="1141" arabic-form="final" 
d="M1160 0q-16 -1 -32 -1q-83 0 -140 23q-68 27 -109.5 79t-62 127t-29.5 166q-129 -40 -245 -122t-211 -191.5t-165 -238t-107 -261.5q-2 -7 -7.5 -17t-13.5 -10q-3 0 -7 7.5t-4 13.5q0 3 1 4q12 121 40 240t76 219q29 60 67.5 117t84 109t95.5 96t103 79q0 2 0.5 3t0.5 3
q0 9 -7 9q-5 0 -6 -1q-25 0 -48 0.5t-45 0.5q-34 0 -65.5 -3t-61 -13t-58 -29.5t-56.5 -51.5q-6 -6 -14 -6q-9 0 -17 5.5t-10 16.5q0 9 7 32.5t17.5 53t22.5 61t23 56.5q14 32 32 57.5t46 42.5q43 23 94 28t100 5q118 0 232 -7.5t229 -7.5q38 0 75 3t76 3q17 0 24.5 -11
t9.5 -19v-5q0 -20 -8 -50t-21 -60t-29.5 -55.5t-32.5 -36.5q-12 -10 -29 -16t-36.5 -10.5t-39 -8t-36.5 -8.5q18 -56 45 -88.5t64 -49.5t84 -21.5t104 -4.5v-256zM778 -27q-23 -38 -51.5 -75t-60.5 -76q-39 20 -79.5 47.5t-82.5 63.5q40 57 68 94.5t42 57.5q42 -32 82 -59.5
t82 -52.5z" />
    <glyph glyph-name="sf304.002" unicode="&#x686;" horiz-adv-x="977" arabic-form="initial" 
d="M-21 256q126 0 210.5 8t146.5 24q63 16 103 36t59 24q-45 23 -86 43.5t-80 36.5t-76 25t-73 9q-25 0 -47 -6q-13 -4 -24 -15.5t-20.5 -24t-19 -22t-20.5 -9.5q-3 0 -6.5 5.5t-3.5 17.5q0 13 4 33.5t10.5 42t14 41.5t14.5 32q35 51 74 69t79 18q29 0 56.5 -7t52.5 -15
q40 -14 82 -33t84.5 -38t86.5 -36.5t89 -29.5q25 -6 48 -11.5t47 -10t49.5 -8t56.5 -5.5q26 -8 26 -45q-5 -21 -15 -47.5t-23 -53t-26 -51t-24 -42.5q-20 2 -38 3t-34 1q-35 0 -66 -6t-59.5 -15.5t-54.5 -21t-51 -21.5q-55 -24 -112.5 -50.5t-123.5 -49.5q-32 -11 -65 -20.5
t-70.5 -16t-80.5 -10.5t-94 -4v256zM511 -179q31 25 65 49q59 -68 106 -137q-42 -30 -75 -58t-62 -53q-13 17 -34 43t-51 60q-28 -22 -58 -47.5t-63 -54.5q-35 42 -61.5 73.5t-44.5 57.5q45 47 133 116q15 -17 36.5 -42.5t49.5 -59.5q28 28 59 53zM489.5 -522.5
q-31.5 -29.5 -57.5 -58.5q-18 20 -43.5 53.5t-62.5 83.5q29 33 61 62t69 53q28 -30 54 -62.5t51 -72.5q-40 -29 -71.5 -58.5z" />
    <glyph glyph-name="sf323.001" unicode="&#x686;" horiz-adv-x="957" arabic-form="medial" 
d="M979 0q-130 0 -210 67t-104 213q0 25 -15 25q-7 0 -18 -4.5t-18 -13.5q-51 -69 -120.5 -122.5t-151.5 -90t-174 -55.5t-189 -19v256q145 0 269 35t239 104q-34 19 -76.5 35.5t-86 29.5t-85 20.5t-73.5 7.5q-35 0 -53.5 -10.5t-29 -23.5t-17.5 -23.5t-17 -10.5
q-6 0 -10.5 8.5t-4.5 20.5q0 18 8 44.5t19.5 53.5t24 50t20.5 35q23 33 59.5 46.5t78.5 13.5q38 0 78 -9t75 -20q62 -21 127.5 -43.5t132 -41.5t134 -31.5t133.5 -13.5q9 -2 17.5 -13.5t8.5 -25.5q0 -11 -6 -21q-12 -21 -23 -40t-24.5 -36t-30 -32.5t-39.5 -30.5h-2
q-4 0 -12.5 3t-18 6.5t-19 6.5t-16.5 3q-9 0 -10 -7v-5q0 -32 20 -49t52 -25t73.5 -9.5t84.5 -1.5v-256zM551 -173q32 26 69 51q62 -70 111 -142q-45 -30 -79.5 -59t-64.5 -55q-14 18 -36 44.5t-54 61.5q-28 -22 -59.5 -48t-65.5 -57q-37 43 -65 76t-46 59q47 49 138 119
q16 -18 38.5 -43.5t52.5 -60.5q29 28 61 54zM529 -526q-33 -30 -60 -59q-19 20 -45.5 54t-65.5 86q30 34 63.5 63.5t72.5 54.5q29 -31 56.5 -64.5t53.5 -73.5q-42 -31 -75 -61z" />
    <glyph glyph-name="sf277.031" unicode="&#x686;" horiz-adv-x="1138" arabic-form="final" 
d="M1160 0q-16 -1 -32 -1q-83 0 -140 23q-68 27 -109.5 79t-62 127t-29.5 166q-129 -40 -245 -122t-211 -191.5t-165 -238t-107 -261.5q-2 -7 -7.5 -17t-13.5 -10q-3 0 -7 7.5t-4 13.5q0 3 1 4q12 121 40 240t76 219q29 60 67.5 117t84 109t95.5 96t103 79q0 2 0.5 3t0.5 3
q0 9 -7 9q-5 0 -6 -1q-25 0 -48 0.5t-45 0.5q-34 0 -65.5 -3t-61 -13t-58 -29.5t-56.5 -51.5q-6 -6 -14 -6q-9 0 -17 5.5t-10 16.5q0 9 7 32.5t17.5 53t22.5 61t23 56.5q14 32 32 57.5t46 42.5q43 23 94 28t100 5q118 0 232 -7.5t229 -7.5q38 0 75 3t76 3q17 0 24.5 -11
t9.5 -19v-5q0 -20 -8 -50t-21 -60t-29.5 -55.5t-32.5 -36.5q-12 -10 -29 -16t-36.5 -10.5t-39 -8t-36.5 -8.5q18 -56 45 -88.5t64 -49.5t84 -21.5t104 -4.5v-256zM655 -80q35 27 74 53q67 -73 120 -147q-48 -32 -85.5 -62t-69.5 -57q-15 19 -39 46.5t-58 63.5
q-31 -23 -65 -50t-71 -59q-40 45 -70 79t-50 61q51 51 150 124q17 -18 41.5 -45t56.5 -63q31 29 66 56zM631 -447.5q-36 -31.5 -65 -61.5q-20 21 -49 56.5t-71 89.5q33 35 69 66t78 57q32 -32 61.5 -67t57.5 -77q-45 -32 -81 -63.5z" />
    <glyph glyph-name="sf304.003" unicode="&#x62d;" horiz-adv-x="977" arabic-form="initial" 
d="M-21 256q126 0 210.5 8t146.5 24q63 16 103 36t59 24q-45 23 -86 43.5t-80 36.5t-76 25t-73 9q-25 0 -47 -6q-13 -4 -24 -15.5t-20.5 -24t-19 -22t-20.5 -9.5q-3 0 -6.5 5.5t-3.5 17.5q0 13 4 33.5t10.5 42t14 41.5t14.5 32q35 51 74 69t79 18q29 0 56.5 -7t52.5 -15
q40 -14 82 -33t84.5 -38t86.5 -36.5t89 -29.5q25 -6 48 -11.5t47 -10t49.5 -8t56.5 -5.5q26 -8 26 -45q-5 -21 -15 -47.5t-23 -53t-26 -51t-24 -42.5q-20 2 -38 3t-34 1q-35 0 -66 -6t-59.5 -15.5t-54.5 -21t-51 -21.5q-55 -24 -112.5 -50.5t-123.5 -49.5q-32 -11 -65 -20.5
t-70.5 -16t-80.5 -10.5t-94 -4v256z" />
    <glyph glyph-name="sf323.002" unicode="&#x62d;" horiz-adv-x="957" arabic-form="medial" 
d="M979 0q-130 0 -210 67t-104 213q0 25 -15 25q-7 0 -18 -4.5t-18 -13.5q-51 -69 -120.5 -122.5t-151.5 -90t-174 -55.5t-189 -19v256q145 0 269 35t239 104q-34 19 -76.5 35.5t-86 29.5t-85 20.5t-73.5 7.5q-35 0 -53.5 -10.5t-29 -23.5t-17.5 -23.5t-17 -10.5
q-6 0 -10.5 8.5t-4.5 20.5q0 18 8 44.5t19.5 53.5t24 50t20.5 35q23 33 59.5 46.5t78.5 13.5q38 0 78 -9t75 -20q62 -21 127.5 -43.5t132 -41.5t134 -31.5t133.5 -13.5q9 -2 17.5 -13.5t8.5 -25.5q0 -11 -6 -21q-12 -21 -23 -40t-24.5 -36t-30 -32.5t-39.5 -30.5h-2
q-4 0 -12.5 3t-18 6.5t-19 6.5t-16.5 3q-9 0 -10 -7v-5q0 -32 20 -49t52 -25t73.5 -9.5t84.5 -1.5v-256z" />
    <glyph glyph-name="sf277.032" unicode="&#x62d;" horiz-adv-x="1138" arabic-form="final" 
d="M1160 0q-16 -1 -32 -1q-83 0 -140 23q-68 27 -109.5 79t-62 127t-29.5 166q-129 -40 -245 -122t-211 -191.5t-165 -238t-107 -261.5q-2 -7 -7.5 -17t-13.5 -10q-3 0 -7 7.5t-4 13.5q0 3 1 4q12 121 40 240t76 219q29 60 67.5 117t84 109t95.5 96t103 79q0 2 0.5 3t0.5 3
q0 9 -7 9q-5 0 -6 -1q-25 0 -48 0.5t-45 0.5q-34 0 -65.5 -3t-61 -13t-58 -29.5t-56.5 -51.5q-6 -6 -14 -6q-9 0 -17 5.5t-10 16.5q0 9 7 32.5t17.5 53t22.5 61t23 56.5q14 32 32 57.5t46 42.5q43 23 94 28t100 5q118 0 232 -7.5t229 -7.5q38 0 75 3t76 3q17 0 24.5 -11
t9.5 -19v-5q0 -20 -8 -50t-21 -60t-29.5 -55.5t-32.5 -36.5q-12 -10 -29 -16t-36.5 -10.5t-39 -8t-36.5 -8.5q18 -56 45 -88.5t64 -49.5t84 -21.5t104 -4.5v-256z" />
    <glyph glyph-name="sf304.004" unicode="&#x62e;" horiz-adv-x="977" arabic-form="initial" 
d="M-21 256q126 0 210.5 8t146.5 24q63 16 103 36t59 24q-45 23 -86 43.5t-80 36.5t-76 25t-73 9q-25 0 -47 -6q-13 -4 -24 -15.5t-20.5 -24t-19 -22t-20.5 -9.5q-3 0 -6.5 5.5t-3.5 17.5q0 13 4 33.5t10.5 42t14 41.5t14.5 32q35 51 74 69t79 18q29 0 56.5 -7t52.5 -15
q40 -14 82 -33t84.5 -38t86.5 -36.5t89 -29.5q25 -6 48 -11.5t47 -10t49.5 -8t56.5 -5.5q26 -8 26 -45q-5 -21 -15 -47.5t-23 -53t-26 -51t-24 -42.5q-20 2 -38 3t-34 1q-35 0 -66 -6t-59.5 -15.5t-54.5 -21t-51 -21.5q-55 -24 -112.5 -50.5t-123.5 -49.5q-32 -11 -65 -20.5
t-70.5 -16t-80.5 -10.5t-94 -4v256zM619 1102q-23 -38 -51.5 -75t-60.5 -76q-39 20 -79.5 47.5t-82.5 63.5q40 57 68 94.5t42 57.5q42 -32 82 -59.5t82 -52.5z" />
    <glyph glyph-name="sf323.003" unicode="&#x62e;" horiz-adv-x="957" arabic-form="medial" 
d="M979 0q-130 0 -210 67t-104 213q0 25 -15 25q-7 0 -18 -4.5t-18 -13.5q-51 -69 -120.5 -122.5t-151.5 -90t-174 -55.5t-189 -19v256q145 0 269 35t239 104q-34 19 -76.5 35.5t-86 29.5t-85 20.5t-73.5 7.5q-35 0 -53.5 -10.5t-29 -23.5t-17.5 -23.5t-17 -10.5
q-6 0 -10.5 8.5t-4.5 20.5q0 18 8 44.5t19.5 53.5t24 50t20.5 35q23 33 59.5 46.5t78.5 13.5q38 0 78 -9t75 -20q62 -21 127.5 -43.5t132 -41.5t134 -31.5t133.5 -13.5q9 -2 17.5 -13.5t8.5 -25.5q0 -11 -6 -21q-12 -21 -23 -40t-24.5 -36t-30 -32.5t-39.5 -30.5h-2
q-4 0 -12.5 3t-18 6.5t-19 6.5t-16.5 3q-9 0 -10 -7v-5q0 -32 20 -49t52 -25t73.5 -9.5t84.5 -1.5v-256zM496 1087q-23 -38 -51.5 -75t-60.5 -76q-39 20 -79.5 47.5t-82.5 63.5q40 57 68 94.5t42 57.5q42 -32 82 -59.5t82 -52.5z" />
    <glyph glyph-name="sf277.001" unicode="&#x62e;" horiz-adv-x="1141" arabic-form="final" 
d="M1160 0q-16 -1 -32 -1q-83 0 -140 23q-68 27 -109.5 79t-62 127t-29.5 166q-129 -40 -245 -122t-211 -191.5t-165 -238t-107 -261.5q-2 -7 -7.5 -17t-13.5 -10q-3 0 -7 7.5t-4 13.5q0 3 1 4q12 121 40 240t76 219q29 60 67.5 117t84 109t95.5 96t103 79q0 2 0.5 3t0.5 3
q0 9 -7 9q-5 0 -6 -1q-25 0 -48 0.5t-45 0.5q-34 0 -65.5 -3t-61 -13t-58 -29.5t-56.5 -51.5q-6 -6 -14 -6q-9 0 -17 5.5t-10 16.5q0 9 7 32.5t17.5 53t22.5 61t23 56.5q14 32 32 57.5t46 42.5q43 23 94 28t100 5q118 0 232 -7.5t229 -7.5q38 0 75 3t76 3q17 0 24.5 -11
t9.5 -19v-5q0 -20 -8 -50t-21 -60t-29.5 -55.5t-32.5 -36.5q-12 -10 -29 -16t-36.5 -10.5t-39 -8t-36.5 -8.5q18 -56 45 -88.5t64 -49.5t84 -21.5t104 -4.5v-256zM564 1034q-23 -38 -51.5 -75t-60.5 -76q-39 20 -79.5 47.5t-82.5 63.5q40 57 68 94.5t42 57.5
q42 -32 82 -59.5t82 -52.5z" />
    <glyph glyph-name="sf277.014" unicode="&#x62f;" horiz-adv-x="1077" arabic-form="final" 
d="M1097 0q-71 0 -123 21t-90.5 57.5t-64.5 86.5t-45 109q-12 -42 -32 -91.5t-47 -99.5t-61.5 -96.5t-75.5 -83t-88 -58t-99 -21.5q-72 0 -127.5 35.5t-95 90.5t-64 120t-34.5 124q-2 11 -5.5 40.5t-6 67t-2.5 79.5t5 79t16 65t30 37h2q6 0 10 -4l8 -10q1 -3 3 -33t5.5 -71
t9.5 -84t14 -70q32 -109 88 -168.5t141 -59.5q51 0 111.5 29t118.5 99q43 49 72.5 108.5t29.5 122.5q0 5 -0.5 10.5t-0.5 10.5q-11 38 -29 83t-35.5 87t-30 76t-12.5 51q0 20 6 47q1 6 4.5 30t8 51t8.5 48t6 21l10 -2q2 -3 15 -34l32.5 -77.5t44 -104t48.5 -113t45.5 -104.5
t36.5 -79q42 -85 98.5 -125.5t141.5 -40.5v-256z" />
    <glyph glyph-name="sf277.038" unicode="&#x688;" horiz-adv-x="1077" arabic-form="final" 
d="M1097 0q-71 0 -123 21t-90.5 57.5t-64.5 86.5t-45 109q-12 -42 -32 -91.5t-47 -99.5t-61.5 -96.5t-75.5 -83t-88 -58t-99 -21.5q-72 0 -127.5 35.5t-95 90.5t-64 120t-34.5 124q-2 11 -5.5 40.5t-6 67t-2.5 79.5t5 79t16 65t30 37h2q6 0 10 -4l8 -10q1 -3 3 -33t5.5 -71
t9.5 -84t14 -70q32 -109 88 -168.5t141 -59.5q51 0 111.5 29t118.5 99q43 49 72.5 108.5t29.5 122.5q0 5 -0.5 10.5t-0.5 10.5q-11 38 -29 83t-35.5 87t-30 76t-12.5 51q0 20 6 47q1 6 4.5 30t8 51t8.5 48t6 21l10 -2q2 -3 15 -34l32.5 -77.5t44 -104t48.5 -113t45.5 -104.5
t36.5 -79q42 -85 98.5 -125.5t141.5 -40.5v-256zM518 1553q4 -12 4 -14q0 -8 -3 -16.5t-6.5 -16.5t-6.5 -16.5t-3 -16.5v-1q0 -2 1 -14t2 -28.5t3 -35t3.5 -34.5t2.5 -26l1 -11q13 17 32 30.5t42 24t47 16t46 5.5q17 0 32.5 -3.5t27.5 -12t19 -22t7 -33.5q0 -18 -6 -37
t-15.5 -35.5t-22 -29.5t-25.5 -19q-10 -6 -28.5 -10.5t-41 -8.5t-48 -6t-50.5 -2q-13 0 -26 1t-24 2q-16 2 -29 6.5l-26 9t-26 10t-28 10.5q-5 1 -8 5.5t-3 9.5t2 8.5t5.5 5.5t7 3t5.5 1q13 0 26 -2t28 -2q7 0 12.5 1t8.5 6l21 40q3 5 4 11.5t1 15.5q0 14 -2 30t-3 29
q-2 11 -3.5 25t-3.5 29.5t-3.5 32t-2.5 32.5t-2 30t-1 25q0 5 0.5 14t1 19.5t2 21.5t3 20t4.5 14.5t7 5.5q1 0 2 -1q4 -11 7.5 -23t8 -25t9 -25t11.5 -23zM702 1277l6 3t8 4.5t6.5 5.5t2.5 6q0 2 -1 4q-9 12 -25 16.5t-37 4.5q-19 0 -40 -3.5t-40 -9t-34.5 -13t-23.5 -15.5
q-2 -2 -5.5 -4.5t-7 -5.5t-6 -5.5t-2.5 -3.5q0 -2 3 -3t7.5 -1.5t10.5 -1t12 -0.5q14 0 29.5 1t32 3l33 4t30.5 4.5t25 5t16 4.5z" />
    <glyph glyph-name="sf277.039" unicode="&#x630;" horiz-adv-x="1074" arabic-form="final" 
d="M1097 0q-71 0 -123 21t-90.5 57.5t-64.5 86.5t-45 109q-12 -42 -32 -91.5t-47 -99.5t-61.5 -96.5t-75.5 -83t-88 -58t-99 -21.5q-72 0 -127.5 35.5t-95 90.5t-64 120t-34.5 124q-2 11 -5.5 40.5t-6 67t-2.5 79.5t5 79t16 65t30 37h2q6 0 10 -4l8 -10q1 -3 3 -33t5.5 -71
t9.5 -84t14 -70q32 -109 88 -168.5t141 -59.5q51 0 111.5 29t118.5 99q43 49 72.5 108.5t29.5 122.5q0 5 -0.5 10.5t-0.5 10.5q-11 38 -29 83t-35.5 87t-30 76t-12.5 51q0 20 6 47q1 6 4.5 30t8 51t8.5 48t6 21l10 -2q2 -3 15 -34l32.5 -77.5t44 -104t48.5 -113t45.5 -104.5
t36.5 -79q42 -85 98.5 -125.5t141.5 -40.5v-256zM668 1219q-23 -38 -51.5 -75t-60.5 -76q-39 20 -79.5 47.5t-82.5 63.5q40 57 68 94.5t42 57.5q42 -32 82 -59.5t82 -52.5z" />
    <glyph glyph-name="sf277.015" unicode="&#x631;" horiz-adv-x="635" arabic-form="final" 
d="M655 0q-29 0 -56.5 1t-63.5 7q-2 -21 -5.5 -49.5t-11.5 -60.5t-21 -67t-34 -68q-20 -32 -48.5 -60t-61 -49t-67.5 -33.5t-68 -12.5q-18 0 -50.5 1.5t-70.5 4.5t-77 7.5t-71 10.5t-52.5 13.5t-20.5 16.5q0 10 28 21t74.5 23.5t105 27.5t120.5 33q30 9 71 24.5t78 38t64 53
t30 70.5v10q0 26 -8 54.5t-20 56t-26.5 53.5t-27.5 47q0 32 2 79t6 90.5t9.5 74t11.5 30.5q5 0 14 -11.5t19.5 -28.5t22 -37.5t22.5 -38.5q10 -17 28.5 -31.5t42.5 -25t53 -15.5q24 -4 49 -4h10v-256z" />
    <glyph glyph-name="sf277.040" unicode="&#x691;" horiz-adv-x="635" arabic-form="final" 
d="M655 0q-29 0 -56.5 1t-63.5 7q-2 -21 -5.5 -49.5t-11.5 -60.5t-21 -67t-34 -68q-20 -32 -48.5 -60t-61 -49t-67.5 -33.5t-68 -12.5q-18 0 -50.5 1.5t-70.5 4.5t-77 7.5t-71 10.5t-52.5 13.5t-20.5 16.5q0 10 28 21t74.5 23.5t105 27.5t120.5 33q30 9 71 24.5t78 38t64 53
t30 70.5v10q0 26 -8 54.5t-20 56t-26.5 53.5t-27.5 47q0 32 2 79t6 90.5t9.5 74t11.5 30.5q5 0 14 -11.5t19.5 -28.5t22 -37.5t22.5 -38.5q10 -17 28.5 -31.5t42.5 -25t53 -15.5q24 -4 49 -4h10v-256zM303 989q4 -12 4 -14q0 -8 -3 -16.5t-6.5 -16.5t-6.5 -16.5t-3 -16.5v-1
q0 -2 1 -14t2 -28.5t3 -35t3.5 -34.5t2.5 -26l1 -11q13 17 32 30.5t42 24t47 16t46 5.5q17 0 32.5 -3.5t27.5 -12t19 -22t7 -33.5q0 -18 -6 -37t-15.5 -35.5t-22 -29.5t-25.5 -19q-10 -6 -28.5 -10.5t-41 -8.5t-48 -6t-50.5 -2q-13 0 -26 1t-24 2q-16 2 -29 6.5l-26 9
t-26 10t-28 10.5q-5 1 -8 5.5t-3 9.5t2 8.5t5.5 5.5t7 3t5.5 1q13 0 26 -2t28 -2q7 0 12.5 1t8.5 6l21 40q3 5 4 11.5t1 15.5q0 14 -2 30t-3 29q-2 11 -3.5 25t-3.5 29.5t-3.5 32t-2.5 32.5t-2 30t-1 25q0 5 0.5 14t1 19.5t2 21.5t3 20t4.5 14.5t7 5.5q1 0 2 -1
q4 -11 7.5 -23t8 -25t9 -25t11.5 -23zM487 713l6 3t8 4.5t6.5 5.5t2.5 6q0 2 -1 4q-9 12 -25 16.5t-37 4.5q-19 0 -40 -3.5t-40 -9t-34.5 -13t-23.5 -15.5q-2 -2 -5.5 -4.5t-7 -5.5t-6 -5.5t-2.5 -3.5q0 -2 3 -3t7.5 -1.5t10.5 -1t12 -0.5q14 0 29.5 1t32 3l33 4t30.5 4.5
t25 5t16 4.5z" />
    <glyph glyph-name="sf277.041" unicode="&#x632;" horiz-adv-x="634" arabic-form="final" 
d="M655 0q-29 0 -56.5 1t-63.5 7q-2 -21 -5.5 -49.5t-11.5 -60.5t-21 -67t-34 -68q-20 -32 -48.5 -60t-61 -49t-67.5 -33.5t-68 -12.5q-18 0 -50.5 1.5t-70.5 4.5t-77 7.5t-71 10.5t-52.5 13.5t-20.5 16.5q0 10 28 21t74.5 23.5t105 27.5t120.5 33q30 9 71 24.5t78 38t64 53
t30 70.5v10q0 26 -8 54.5t-20 56t-26.5 53.5t-27.5 47q0 32 2 79t6 90.5t9.5 74t11.5 30.5q5 0 14 -11.5t19.5 -28.5t22 -37.5t22.5 -38.5q10 -17 28.5 -31.5t42.5 -25t53 -15.5q24 -4 49 -4h10v-256zM473 712q-23 -38 -51.5 -75t-60.5 -76q-39 20 -79.5 47.5t-82.5 63.5
q40 57 68 94.5t42 57.5q42 -32 82 -59.5t82 -52.5z" />
    <glyph glyph-name="sf277.042" unicode="&#x698;" horiz-adv-x="635" arabic-form="final" 
d="M655 0q-29 0 -56.5 1t-63.5 7q-2 -21 -5.5 -49.5t-11.5 -60.5t-21 -67t-34 -68q-20 -32 -48.5 -60t-61 -49t-67.5 -33.5t-68 -12.5q-18 0 -50.5 1.5t-70.5 4.5t-77 7.5t-71 10.5t-52.5 13.5t-20.5 16.5q0 10 28 21t74.5 23.5t105 27.5t120.5 33q30 9 71 24.5t78 38t64 53
t30 70.5v10q0 26 -8 54.5t-20 56t-26.5 53.5t-27.5 47q0 32 2 79t6 90.5t9.5 74t11.5 30.5q5 0 14 -11.5t19.5 -28.5t22 -37.5t22.5 -38.5q10 -17 28.5 -31.5t42.5 -25t53 -15.5q24 -4 49 -4h10v-256zM334 688q-32 -36 -56.5 -63t-41.5 -45q-99 73 -150 124q20 27 50 61
t70 79q37 -32 71 -59t65 -50q34 36 58 63.5t39 46.5q32 -27 69.5 -57t85.5 -62q-53 -74 -120 -147q-39 26 -74 53t-66 56zM457 936q-28 -42 -57.5 -77t-61.5 -67q-42 26 -78 57t-69 66q42 54 71 89.5t49 56.5q29 -30 65 -61.5t81 -63.5z" />
    <glyph glyph-name="sf309" unicode="&#x633;" horiz-adv-x="917" arabic-form="initial" 
d="M-21 256q63 0 108 15t70 58q9 16 14.5 36.5t11.5 38.5t13.5 30.5t20.5 12.5q12 0 18 -13.5t10 -31.5t6 -37t5 -29q15 -48 45 -69.5t68 -21.5q18 0 32.5 7t26 19t21 27.5t18.5 32.5q8 15 11.5 33.5t7.5 35t9.5 28t16.5 12.5q12 0 22 -19.5t21.5 -45.5t24.5 -51t30 -35
q9 -6 27.5 -12t39.5 -10.5t42.5 -7.5t36.5 -3t19 3.5t4 11.5q0 10 -4.5 25.5t-11.5 31t-14 28t-12 17.5q0 5 1 23.5t3 43.5t5 52.5t6 51t6 39.5t6 17h2q18 0 32.5 -18t25.5 -46.5t19 -63.5t13 -70t7.5 -65.5t2.5 -49.5q0 -66 -9.5 -125t-31.5 -101q-17 -24 -51.5 -39
t-69.5 -15q-40 0 -78 9.5t-65 22.5q-10 4 -24.5 17t-20.5 17q-32 -33 -73.5 -52t-79.5 -20q-28 0 -56.5 10t-52 30.5t-40 50.5t-20.5 70q-7 -34 -26.5 -63.5t-48 -51.5t-64.5 -34.5t-76 -12.5v256z" />
    <glyph glyph-name="sf327" unicode="&#x633;" horiz-adv-x="888" arabic-form="medial" 
d="M909 0q-72 0 -116.5 26.5t-61.5 75.5q-22 -36 -54 -63.5t-66 -27.5q-30 0 -52.5 14.5t-38.5 32t-26 32t-16 14.5q-29 -51 -59.5 -74t-73.5 -23q-24 0 -50 10.5t-48.5 29t-38 43.5t-17.5 55q-16 -42 -40.5 -69.5t-53.5 -44.5t-59.5 -24t-58.5 -7v256q30 0 65.5 6t69 22.5
t63 45.5t47.5 75q2 4 2.5 7.5t8.5 3.5q3 0 8 -17t11.5 -39.5t14 -44t14.5 -30.5q16 -20 38 -30.5t46 -10.5q38 0 60 23t40 69q6 15 8.5 30l4.5 27t5 19.5t11 7.5q9 0 14 -9.5t9.5 -23.5t9.5 -30.5t14 -30.5q19 -31 44 -50.5t52 -19.5q25 0 39.5 14.5t23 35.5t13 44.5
t9.5 42.5q1 4 6 11t9 7t8.5 -7t6.5 -11q6 -28 17 -53t29 -43.5t44.5 -29.5t64.5 -11v-256z" />
    <glyph glyph-name="sf277.004" unicode="&#x633;" horiz-adv-x="2702" arabic-form="final" 
d="M2722 0h-5q-66 0 -111 24q-48 24 -62 66q-31 -40 -61.5 -63t-75.5 -23q-32 0 -63.5 12.5t-61.5 40.5q-35 -34 -62 -46.5t-59 -15.5q-8 -1 -15 -1q-26 0 -47 9q-27 10 -60 24q2 -8 3.5 -19.5t3.5 -24.5q1 -16 1 -31q0 -92 -30 -166q-36 -87 -103 -155t-159.5 -118.5
t-198.5 -86.5q-96 -32 -197.5 -47.5t-204.5 -15.5q-4 -1 -8 -1q-99 0 -198 13q-103 12 -202 36q-59 14 -126 40t-134 60t-129.5 73t-112.5 78.5t-82.5 77.5t-39.5 70q-14 29 -34 82t-46 110h10q106 -80 220 -149t234 -123q125 -56 263.5 -86t276.5 -37q37 -2 77 -2
q20 0 42 1q63 1 129.5 7.5t135 18t134.5 28.5q64 17 124.5 39.5t113 52t95.5 65t73 79.5q0 13 -0.5 37.5t-9 62.5t-29 91.5t-61.5 124.5q0 7 2 29t5.5 51.5t8 62.5t10 60.5t11 46t10.5 19.5q12 0 24 -16.5t25.5 -41.5t30 -54t37 -54t46.5 -41.5t59 -16.5q18 0 34 7t29.5 19
t24 27t16.5 31q6 15 8 30t4 27.5t7.5 20.5t18.5 8q10 0 18.5 -13t16.5 -32t17 -41.5t20.5 -41.5t27 -32t36.5 -13t35 12.5t23 31.5t16 40.5t13 40.5t14 31.5t20 12.5q9 0 16 -12.5t15.5 -31t20 -40t29 -40t42.5 -31t61 -12.5v-256z" />
    <glyph glyph-name="sf309.001" unicode="&#x634;" horiz-adv-x="925" arabic-form="initial" 
d="M-21 256q63 0 108 15t70 58q9 16 14.5 36.5t11.5 38.5t13.5 30.5t20.5 12.5q12 0 18 -13.5t10 -31.5t6 -37t5 -29q15 -48 45 -69.5t68 -21.5q18 0 32.5 7t26 19t21 27.5t18.5 32.5q8 15 11.5 33.5t7.5 35t9.5 28t16.5 12.5q12 0 22 -19.5t21.5 -45.5t24.5 -51t30 -35
q9 -6 27.5 -12t39.5 -10.5t42.5 -7.5t36.5 -3t19 3.5t4 11.5q0 10 -4.5 25.5t-11.5 31t-14 28t-12 17.5q0 5 1 23.5t3 43.5t5 52.5t6 51t6 39.5t6 17h2q18 0 32.5 -18t25.5 -46.5t19 -63.5t13 -70t7.5 -65.5t2.5 -49.5q0 -66 -9.5 -125t-31.5 -101q-17 -24 -51.5 -39
t-69.5 -15q-40 0 -78 9.5t-65 22.5q-10 4 -24.5 17t-20.5 17q-32 -33 -73.5 -52t-79.5 -20q-28 0 -56.5 10t-52 30.5t-40 50.5t-20.5 70q-7 -34 -26.5 -63.5t-48 -51.5t-64.5 -34.5t-76 -12.5v256zM427 667q-32 -36 -56.5 -63t-41.5 -45q-99 73 -150 124q20 27 50 61t70 79
q37 -32 71 -59t65 -50q34 36 58 63.5t39 46.5q32 -27 69.5 -57t85.5 -62q-53 -74 -120 -147q-39 26 -74 53t-66 56zM550 915q-28 -42 -57.5 -77t-61.5 -67q-42 26 -78 57t-69 66q42 54 71 89.5t49 56.5q29 -30 65 -61.5t81 -63.5z" />
    <glyph glyph-name="sf327.001" unicode="&#x634;" horiz-adv-x="888" arabic-form="medial" 
d="M909 0q-72 0 -116.5 26.5t-61.5 75.5q-22 -36 -54 -63.5t-66 -27.5q-30 0 -52.5 14.5t-38.5 32t-26 32t-16 14.5q-29 -51 -59.5 -74t-73.5 -23q-24 0 -50 10.5t-48.5 29t-38 43.5t-17.5 55q-16 -42 -40.5 -69.5t-53.5 -44.5t-59.5 -24t-58.5 -7v256q30 0 65.5 6t69 22.5
t63 45.5t47.5 75q2 4 2.5 7.5t8.5 3.5q3 0 8 -17t11.5 -39.5t14 -44t14.5 -30.5q16 -20 38 -30.5t46 -10.5q38 0 60 23t40 69q6 15 8.5 30l4.5 27t5 19.5t11 7.5q9 0 14 -9.5t9.5 -23.5t9.5 -30.5t14 -30.5q19 -31 44 -50.5t52 -19.5q25 0 39.5 14.5t23 35.5t13 44.5
t9.5 42.5q1 4 6 11t9 7t8.5 -7t6.5 -11q6 -28 17 -53t29 -43.5t44.5 -29.5t64.5 -11v-256zM444 644q-32 -36 -56.5 -63t-41.5 -45q-99 73 -150 124q20 27 50 61t70 79q37 -32 71 -59t65 -50q34 36 58 63.5t39 46.5q32 -27 69.5 -57t85.5 -62q-53 -74 -120 -147
q-39 26 -74 53t-66 56zM567 892q-28 -42 -57.5 -77t-61.5 -67q-42 26 -78 57t-69 66q42 54 71 89.5t49 56.5q29 -30 65 -61.5t81 -63.5z" />
    <glyph glyph-name="sf277.033" unicode="&#x634;" horiz-adv-x="2702" arabic-form="final" 
d="M2722 0h-5q-66 0 -111 24q-48 24 -62 66q-31 -40 -61.5 -63t-75.5 -23q-32 0 -63.5 12.5t-61.5 40.5q-35 -34 -62 -46.5t-59 -15.5q-8 -1 -15 -1q-26 0 -47 9q-27 10 -60 24q2 -8 3.5 -19.5t3.5 -24.5q1 -16 1 -31q0 -92 -30 -166q-36 -87 -103 -155t-159.5 -118.5
t-198.5 -86.5q-96 -32 -197.5 -47.5t-204.5 -15.5q-4 -1 -8 -1q-99 0 -198 13q-103 12 -202 36q-59 14 -126 40t-134 60t-129.5 73t-112.5 78.5t-82.5 77.5t-39.5 70q-14 29 -34 82t-46 110h10q106 -80 220 -149t234 -123q125 -56 263.5 -86t276.5 -37q37 -2 77 -2
q20 0 42 1q63 1 129.5 7.5t135 18t134.5 28.5q64 17 124.5 39.5t113 52t95.5 65t73 79.5q0 13 -0.5 37.5t-9 62.5t-29 91.5t-61.5 124.5q0 7 2 29t5.5 51.5t8 62.5t10 60.5t11 46t10.5 19.5q12 0 24 -16.5t25.5 -41.5t30 -54t37 -54t46.5 -41.5t59 -16.5q18 0 34 7t29.5 19
t24 27t16.5 31q6 15 8 30t4 27.5t7.5 20.5t18.5 8q10 0 18.5 -13t16.5 -32t17 -41.5t20.5 -41.5t27 -32t36.5 -13t35 12.5t23 31.5t16 40.5t13 40.5t14 31.5t20 12.5q9 0 16 -12.5t15.5 -31t20 -40t29 -40t42.5 -31t61 -12.5v-256zM2212 843q-32 -36 -56.5 -63t-41.5 -45
q-99 73 -150 124q20 27 50 61t70 79q37 -32 71 -59t65 -50q34 36 58 63.5t39 46.5q32 -27 69.5 -57t85.5 -62q-53 -74 -120 -147q-39 26 -74 53t-66 56zM2335 1091q-28 -42 -57.5 -77t-61.5 -67q-42 26 -78 57t-69 66q42 54 71 89.5t49 56.5q29 -30 65 -61.5t81 -63.5z" />
    <glyph glyph-name="sf310.002" unicode="&#x635;" horiz-adv-x="1253" arabic-form="initial" 
d="M-19 256q60 0 103 25t69 88q3 9 6 21t7 23t9 18.5t13 7.5q4 0 10 -3q5 -3 9 -17t10 -33t15 -41t24 -40.5t38 -31t56 -13.5q25 41 60.5 87t78.5 91.5t93 87.5t103.5 74t109.5 51t112 19q63 0 114 -23.5t86 -61t54 -85.5t19 -97q0 -73 -36 -143q-44 -83 -106 -137.5
t-135.5 -87.5t-154 -46.5t-161.5 -13.5q-58 0 -113.5 6.5t-109.5 18.5q-10 -12 -17.5 -30.5t-14 -36t-14 -30t-18.5 -12.5q-4 4 -7 5t-5.5 2.5t-3.5 4t-1 10.5q0 9 2.5 21t5.5 24t5.5 23.5t2.5 20.5q0 11 -6 16q-15 8 -31 20.5t-31 30.5t-27.5 42t-19.5 54
q-10 -36 -27.5 -66t-43 -52t-59 -34.5t-73.5 -12.5v256zM1046 342q-6 15 -25.5 28.5t-43 25t-47 19t-38.5 9.5q-8 1 -17 1.5t-17 0.5q-57 0 -120.5 -19t-120 -48.5t-99.5 -64.5t-59 -68q14 -6 36 -9t48 -3q30 0 79 4.5t105 12.5t113 19t103 24.5t75 29t29 31.5q0 6 -1 7z
" />
    <glyph glyph-name="sf328" unicode="&#x635;" horiz-adv-x="1236" arabic-form="medial" 
d="M1256 0q-33 0 -65.5 2.5t-63 13t-60 32.5t-57.5 62q-48 -32 -103.5 -54t-115 -35.5t-121 -19.5t-120.5 -6q-51 0 -98.5 3.5t-89.5 11.5q-10 -12 -17.5 -31t-15.5 -38t-16.5 -32.5t-20.5 -13.5q-6 5 -11 5t-5 15q0 10 3.5 22.5t7 26t7 26t3.5 21.5q0 10 -6 15
q-29 14 -57 50.5t-42 88.5q-28 -88 -85.5 -126.5t-127.5 -38.5v256q36 0 65 10t50.5 26t35.5 36t21 40q3 9 6 21t6.5 23.5t9 19t13.5 7.5q4 0 10 -3q5 -2 9 -16.5t10 -34.5t15 -43.5t24 -43.5t38 -33.5t56 -14.5q25 41 60 89t78 96t92 93t102 79.5t108.5 55.5t110.5 21
q65 0 115 -24.5t83.5 -62.5t50.5 -85.5t17 -93.5q0 -34 -9 -70t-26 -78q32 -8 61 -11t65 -3v-256zM1044 358q-6 15 -25.5 28.5t-43 25t-47 19t-38.5 9.5q-8 1 -16 1.5t-16 0.5q-58 0 -123.5 -22t-123 -53t-100 -65.5t-54.5 -59.5q12 -5 30 -6t35 -3h15q23 0 70 3.5t103 10
t115.5 16.5t108.5 23t80 29t31 35q0 7 -1 8z" />
    <glyph glyph-name="sf277.005" unicode="&#x635;" horiz-adv-x="3020" arabic-form="final" 
d="M1959 126q4 -27 7 -54t3 -54q-8 -149 -75.5 -254.5t-174.5 -175.5q-68 -45 -147.5 -76t-165.5 -50t-176 -27q-76 -7 -150 -7q-14 0 -27 1q-88 1 -170.5 11t-154.5 27q-59 14 -124 41.5t-128.5 63.5t-122 77.5t-105 83.5t-77 81.5t-37.5 71.5q-7 15 -15.5 37.5t-18.5 49.5
t-21.5 56.5t-24.5 58.5h10q53 -40 108 -80.5t112 -78.5t115.5 -72t118.5 -61q125 -56 248.5 -86t261.5 -37q36 -2 75 -2q32 0 66 2q74 2 150.5 11.5t153 27.5t146.5 45q95 38 162 94.5t113 137.5v8q0 40 -9 77q-11 40 -27 77.5t-35.5 74.5t-36.5 75q0 6 2 29t5 53.5
t7.5 64.5t9.5 63t10.5 48t10.5 20q5 0 10 -5q30 -48 56 -87.5t52 -68t54 -44t62 -15.5q6 0 12 0.5t12 1.5q20 25 46.5 58.5t57 69.5t64.5 72t70 66q35 28 76 52.5t85 42.5t90 28.5t90 10.5q45 0 93 -14t88 -45.5t66 -84t26 -128.5q0 -36 -5 -63.5t-14 -52.5t-21 -50t-25 -55
q27 -5 44.5 -7.5t34.5 -3.5t37 -1h51v-256q-41 0 -81.5 2.5t-78.5 15t-72.5 40t-63.5 77.5q-30 -17 -79 -30t-108 -22t-124.5 -14t-127.5 -5q-66 0 -116 5.5t-88 16.5q-12 -2 -17.5 -14t-9 -26t-7 -25t-10.5 -11q-10 0 -13 15.5t-4.5 35t-4 36t-12.5 18.5zM2808 439
q-6 15 -24.5 29.5t-42 26.5t-46.5 20.5t-38 11.5q-7 4 -48 4q-57 0 -119 -17.5t-117.5 -45t-97.5 -60.5t-58 -63q17 -8 45 -11.5t63 -3.5q31 0 78.5 3t101.5 9t108 14.5t97.5 20t71 25t27.5 29.5q0 7 -1 8z" />
    <glyph glyph-name="sf310.003" unicode="&#x636;" horiz-adv-x="1263" arabic-form="initial" 
d="M-19 256q60 0 103 25t69 88q3 9 6 21t7 23t9 18.5t13 7.5q4 0 10 -3q5 -3 9 -17t10 -33t15 -41t24 -40.5t38 -31t56 -13.5q25 41 60.5 87t78.5 91.5t93 87.5t103.5 74t109.5 51t112 19q63 0 114 -23.5t86 -61t54 -85.5t19 -97q0 -73 -36 -143q-44 -83 -106 -137.5
t-135.5 -87.5t-154 -46.5t-161.5 -13.5q-58 0 -113.5 6.5t-109.5 18.5q-10 -12 -17.5 -30.5t-14 -36t-14 -30t-18.5 -12.5q-4 4 -7 5t-5.5 2.5t-3.5 4t-1 10.5q0 9 2.5 21t5.5 24t5.5 23.5t2.5 20.5q0 11 -6 16q-15 8 -31 20.5t-31 30.5t-27.5 42t-19.5 54
q-10 -36 -27.5 -66t-43 -52t-59 -34.5t-73.5 -12.5v256zM1046 342q-6 15 -25.5 28.5t-43 25t-47 19t-38.5 9.5q-8 1 -17 1.5t-17 0.5q-57 0 -120.5 -19t-120 -48.5t-99.5 -64.5t-59 -68q14 -6 36 -9t48 -3q30 0 79 4.5t105 12.5t113 19t103 24.5t75 29t29 31.5q0 6 -1 7z
M826 912q-23 -38 -51.5 -75t-60.5 -76q-39 20 -79.5 47.5t-82.5 63.5q40 57 68 94.5t42 57.5q42 -32 82 -59.5t82 -52.5z" />
    <glyph glyph-name="sf328.001" unicode="&#x636;" horiz-adv-x="1234" arabic-form="medial" 
d="M1256 0q-33 0 -65.5 2.5t-63 13t-60 32.5t-57.5 62q-48 -32 -103.5 -54t-115 -35.5t-121 -19.5t-120.5 -6q-51 0 -98.5 3.5t-89.5 11.5q-10 -12 -17.5 -31t-15.5 -38t-16.5 -32.5t-20.5 -13.5q-6 5 -11 5t-5 15q0 10 3.5 22.5t7 26t7 26t3.5 21.5q0 10 -6 15
q-29 14 -57 50.5t-42 88.5q-28 -88 -85.5 -126.5t-127.5 -38.5v256q36 0 65 10t50.5 26t35.5 36t21 40q3 9 6 21t6.5 23.5t9 19t13.5 7.5q4 0 10 -3q5 -2 9 -16.5t10 -34.5t15 -43.5t24 -43.5t38 -33.5t56 -14.5q25 41 60 89t78 96t92 93t102 79.5t108.5 55.5t110.5 21
q65 0 115 -24.5t83.5 -62.5t50.5 -85.5t17 -93.5q0 -34 -9 -70t-26 -78q32 -8 61 -11t65 -3v-256zM1044 358q-6 15 -25.5 28.5t-43 25t-47 19t-38.5 9.5q-8 1 -16 1.5t-16 0.5q-58 0 -123.5 -22t-123 -53t-100 -65.5t-54.5 -59.5q12 -5 30 -6t35 -3h15q23 0 70 3.5t103 10
t115.5 16.5t108.5 23t80 29t31 35q0 7 -1 8zM842 929q-23 -38 -51.5 -75t-60.5 -76q-39 20 -79.5 47.5t-82.5 63.5q40 57 68 94.5t42 57.5q42 -32 82 -59.5t82 -52.5z" />
    <glyph glyph-name="sf277.034" unicode="&#x636;" horiz-adv-x="3019" arabic-form="final" 
d="M1959 126q4 -27 7 -54t3 -54q-8 -149 -75.5 -254.5t-174.5 -175.5q-68 -45 -147.5 -76t-165.5 -50t-176 -27q-76 -7 -150 -7q-14 0 -27 1q-88 1 -170.5 11t-154.5 27q-59 14 -124 41.5t-128.5 63.5t-122 77.5t-105 83.5t-77 81.5t-37.5 71.5q-7 15 -15.5 37.5t-18.5 49.5
t-21.5 56.5t-24.5 58.5h10q53 -40 108 -80.5t112 -78.5t115.5 -72t118.5 -61q125 -56 248.5 -86t261.5 -37q36 -2 75 -2q32 0 66 2q74 2 150.5 11.5t153 27.5t146.5 45q95 38 162 94.5t113 137.5v8q0 40 -9 77q-11 40 -27 77.5t-35.5 74.5t-36.5 75q0 6 2 29t5 53.5
t7.5 64.5t9.5 63t10.5 48t10.5 20q5 0 10 -5q30 -48 56 -87.5t52 -68t54 -44t62 -15.5q6 0 12 0.5t12 1.5q20 25 46.5 58.5t57 69.5t64.5 72t70 66q35 28 76 52.5t85 42.5t90 28.5t90 10.5q45 0 93 -14t88 -45.5t66 -84t26 -128.5q0 -36 -5 -63.5t-14 -52.5t-21 -50t-25 -55
q27 -5 44.5 -7.5t34.5 -3.5t37 -1h51v-256q-41 0 -81.5 2.5t-78.5 15t-72.5 40t-63.5 77.5q-30 -17 -79 -30t-108 -22t-124.5 -14t-127.5 -5q-66 0 -116 5.5t-88 16.5q-12 -2 -17.5 -14t-9 -26t-7 -25t-10.5 -11q-10 0 -13 15.5t-4.5 35t-4 36t-12.5 18.5zM2808 439
q-6 15 -24.5 29.5t-42 26.5t-46.5 20.5t-38 11.5q-7 4 -48 4q-57 0 -119 -17.5t-117.5 -45t-97.5 -60.5t-58 -63q17 -8 45 -11.5t63 -3.5q31 0 78.5 3t101.5 9t108 14.5t97.5 20t71 25t27.5 29.5q0 7 -1 8zM2507 1023q-23 -38 -51.5 -75t-60.5 -76q-39 20 -79.5 47.5
t-82.5 63.5q40 57 68 94.5t42 57.5q42 -32 82 -59.5t82 -52.5z" />
    <glyph glyph-name="sf311" unicode="&#x637;" horiz-adv-x="1079" arabic-form="initial" 
d="M-23 256q50 0 83 8.5t53 26.5t28 46.5t8 69.5q-1 52 -5 121t-9 147t-11.5 159.5t-11.5 159.5t-9 148t-5 123q0 12 -0.5 23.5t-0.5 23.5q0 16 1 42t3.5 56t6 60t9 54t13 39.5t16.5 15.5q0 -2 5 -2q11 -11 14 -26.5t8 -29.5q9 -32 16 -59.5t15.5 -54t20.5 -51.5t32 -52
q8 -11 11.5 -23t3.5 -25q0 -23 -9 -49t-20.5 -52.5t-20.5 -52t-9 -47.5q0 -5 0.5 -8.5t1.5 -7.5q2 -25 5 -69t7 -99t7.5 -116t7 -120t6 -112t3.5 -91q20 30 53.5 63t76 64.5t92 60t101.5 50t104 34.5t99 13q46 0 85.5 -13t69 -41.5t46.5 -75t17 -113.5q0 -80 -31 -148.5
t-82.5 -123.5t-119 -94.5t-140.5 -60.5q-60 -17 -136.5 -26.5t-159.5 -14t-167 -5.5t-158 -1h-24v256zM817 332l17 8.5t22.5 13.5t20 17.5t8.5 20.5q0 6 -4 13q-23 34 -68.5 48.5t-102.5 14.5t-119.5 -12t-120 -31.5t-104.5 -44.5t-72 -50q-5 -6 -15.5 -14.5t-21 -16.5
t-18 -16t-7.5 -14q0 -5 9 -7.5t21.5 -4.5t27.5 -2.5t27 -0.5q37 0 84.5 3.5t97.5 9t100 13t93 16t76 18t49 18.5z" />
    <glyph glyph-name="sf329" unicode="&#x637;" horiz-adv-x="1066" arabic-form="medial" 
d="M1088 0q-48 0 -84.5 1t-61.5 3t-47 4.5t-42 6.5q-39 7 -73 17t-68 21q-84 -20 -175.5 -30.5t-185.5 -15.5t-188 -6t-184 -1v256q50 0 83 11.5t53 33t28 53.5t8 73q-1 52 -4.5 120t-8.5 143t-11 154.5t-11 155.5t-9.5 144t-6.5 121q-1 12 -1 24v23q0 16 1 42t3.5 56t6 60
t9 54t12.5 39.5t17 15.5q0 -2 5 -2q11 -11 14 -26.5t8 -29.5q9 -32 16 -59.5t15.5 -54t20.5 -51.5t32 -52q8 -11 11.5 -23t3.5 -25q0 -23 -9 -49t-20.5 -52.5t-20.5 -52t-9 -47.5q0 -5 0.5 -8.5t1.5 -7.5q2 -25 5 -69t7 -99t7.5 -116t7 -120t6 -112t3.5 -91q30 45 88.5 93.5
t131.5 88t152.5 65.5t150.5 26q46 0 86.5 -13t70.5 -42t47.5 -75.5t17.5 -113.5q0 -60 -19 -108t-51 -96q32 0 66.5 -0.5t93.5 -0.5v-256zM819 332l17 8.5t22.5 13.5t20 17.5t8.5 20.5q0 6 -4 13q-23 34 -68.5 48.5t-102.5 14.5t-119.5 -13.5t-120 -35t-104.5 -48t-72 -51.5
q-5 -6 -15.5 -14.5t-21 -16.5t-18 -16t-7.5 -14q0 -5 9 -7.5t21.5 -4.5t27.5 -2.5t27 -0.5q37 0 84.5 4t97.5 11t100 15.5t93 18.5t76 20t49 19z" />
    <glyph glyph-name="sf277.006" unicode="&#x637;" horiz-adv-x="1353" arabic-form="final" 
d="M1378 0q-35 0 -61 1.5t-47 4t-38.5 6t-33.5 8.5q-33 11 -61 27t-54 37q-55 -14 -115 -27t-123 -23.5t-127.5 -17t-128.5 -6.5q-38 0 -74 2.5t-71 7.5q-45 7 -88.5 20t-87 28.5t-86.5 32.5t-86 32q-14 4 -23.5 14.5t-9.5 25.5q0 18 8.5 29.5t21 18t26 9t24.5 2.5
q20 0 37 -1t33.5 -2.5t34.5 -2.5t41 -1q25 0 45 4t28 17l60 129q9 14 12.5 35.5t3.5 48.5q0 45 -6 95.5t-10 92.5q-4 33 -8 82.5t-8 107.5t-7.5 119.5t-6 119.5t-4 107.5t-1.5 82.5q0 16 0.5 45t3 62.5t6 68t9 62.5t14 46t19.5 18q3 0 5 -3q12 -35 22.5 -73.5t22.5 -78.5
t27 -79t35 -74q11 -38 11 -45q0 -25 -9 -50.5t-19.5 -51.5t-19.5 -52.5t-9 -51.5v-4q0 -8 3 -50.5t7 -102.5t9 -128t9.5 -126t7.5 -96t4 -39q38 53 96.5 99.5t127 81.5t141 55t138.5 20q45 0 86.5 -12t74 -37.5t52 -64.5t19.5 -93q0 -33 -7 -66t-18 -65t-25 -62.5t-28 -58.5
q5 -3 22 -3.5t38 -0.5h116v-256zM1090 328l17 8.5t22.5 13.5t20 17.5t8.5 20.5q0 6 -4 13q-23 34 -68.5 48.5t-102.5 14.5t-119.5 -12t-120 -31.5t-104.5 -44.5t-72 -50q-5 -6 -15.5 -14.5t-21 -16.5t-18 -16t-7.5 -14q0 -5 9 -7.5t21.5 -4.5t27.5 -2.5t27 -0.5
q37 0 84.5 3.5t97.5 9t100 13t93 16t76 18t49 18.5z" />
    <glyph glyph-name="sf311.001" unicode="&#x638;" horiz-adv-x="1079" arabic-form="initial" 
d="M-23 256q50 0 83 8.5t53 26.5t28 46.5t8 69.5q-1 52 -5 121t-9 147t-11.5 159.5t-11.5 159.5t-9 148t-5 123q0 12 -0.5 23.5t-0.5 23.5q0 16 1 42t3.5 56t6 60t9 54t13 39.5t16.5 15.5q0 -2 5 -2q11 -11 14 -26.5t8 -29.5q9 -32 16 -59.5t15.5 -54t20.5 -51.5t32 -52
q8 -11 11.5 -23t3.5 -25q0 -23 -9 -49t-20.5 -52.5t-20.5 -52t-9 -47.5q0 -5 0.5 -8.5t1.5 -7.5q2 -25 5 -69t7 -99t7.5 -116t7 -120t6 -112t3.5 -91q20 30 53.5 63t76 64.5t92 60t101.5 50t104 34.5t99 13q46 0 85.5 -13t69 -41.5t46.5 -75t17 -113.5q0 -80 -31 -148.5
t-82.5 -123.5t-119 -94.5t-140.5 -60.5q-60 -17 -136.5 -26.5t-159.5 -14t-167 -5.5t-158 -1h-24v256zM817 332l17 8.5t22.5 13.5t20 17.5t8.5 20.5q0 6 -4 13q-23 34 -68.5 48.5t-102.5 14.5t-119.5 -12t-120 -31.5t-104.5 -44.5t-72 -50q-5 -6 -15.5 -14.5t-21 -16.5
t-18 -16t-7.5 -14q0 -5 9 -7.5t21.5 -4.5t27.5 -2.5t27 -0.5q37 0 84.5 3.5t97.5 9t100 13t93 16t76 18t49 18.5zM727 972q-23 -38 -51.5 -75t-60.5 -76q-39 20 -79.5 47.5t-82.5 63.5q40 57 68 94.5t42 57.5q42 -32 82 -59.5t82 -52.5z" />
    <glyph glyph-name="sf329.001" unicode="&#x638;" horiz-adv-x="1064" arabic-form="medial" 
d="M1088 0q-48 0 -84.5 1t-61.5 3t-47 4.5t-42 6.5q-39 7 -73 17t-68 21q-84 -20 -175.5 -30.5t-185.5 -15.5t-188 -6t-184 -1v256q50 0 83 11.5t53 33t28 53.5t8 73q-1 52 -4.5 120t-8.5 143t-11 154.5t-11 155.5t-9.5 144t-6.5 121q-1 12 -1 24v23q0 16 1 42t3.5 56t6 60
t9 54t12.5 39.5t17 15.5q0 -2 5 -2q11 -11 14 -26.5t8 -29.5q9 -32 16 -59.5t15.5 -54t20.5 -51.5t32 -52q8 -11 11.5 -23t3.5 -25q0 -23 -9 -49t-20.5 -52.5t-20.5 -52t-9 -47.5q0 -5 0.5 -8.5t1.5 -7.5q2 -25 5 -69t7 -99t7.5 -116t7 -120t6 -112t3.5 -91q30 45 88.5 93.5
t131.5 88t152.5 65.5t150.5 26q46 0 86.5 -13t70.5 -42t47.5 -75.5t17.5 -113.5q0 -60 -19 -108t-51 -96q32 0 66.5 -0.5t93.5 -0.5v-256zM819 332l17 8.5t22.5 13.5t20 17.5t8.5 20.5q0 6 -4 13q-23 34 -68.5 48.5t-102.5 14.5t-119.5 -13.5t-120 -35t-104.5 -48t-72 -51.5
q-5 -6 -15.5 -14.5t-21 -16.5t-18 -16t-7.5 -14q0 -5 9 -7.5t21.5 -4.5t27.5 -2.5t27 -0.5q37 0 84.5 4t97.5 11t100 15.5t93 18.5t76 20t49 19zM752 970q-23 -38 -51.5 -75t-60.5 -76q-39 20 -79.5 47.5t-82.5 63.5q40 57 68 94.5t42 57.5q42 -32 82 -59.5t82 -52.5z" />
    <glyph glyph-name="sf277.035" unicode="&#x638;" horiz-adv-x="1356" arabic-form="final" 
d="M1378 0q-35 0 -61 1.5t-47 4t-38.5 6t-33.5 8.5q-33 11 -61 27t-54 37q-55 -14 -115 -27t-123 -23.5t-127.5 -17t-128.5 -6.5q-38 0 -74 2.5t-71 7.5q-45 7 -88.5 20t-87 28.5t-86.5 32.5t-86 32q-14 4 -23.5 14.5t-9.5 25.5q0 18 8.5 29.5t21 18t26 9t24.5 2.5
q20 0 37 -1t33.5 -2.5t34.5 -2.5t41 -1q25 0 45 4t28 17l60 129q9 14 12.5 35.5t3.5 48.5q0 45 -6 95.5t-10 92.5q-4 33 -8 82.5t-8 107.5t-7.5 119.5t-6 119.5t-4 107.5t-1.5 82.5q0 16 0.5 45t3 62.5t6 68t9 62.5t14 46t19.5 18q3 0 5 -3q12 -35 22.5 -73.5t22.5 -78.5
t27 -79t35 -74q11 -38 11 -45q0 -25 -9 -50.5t-19.5 -51.5t-19.5 -52.5t-9 -51.5v-4q0 -8 3 -50.5t7 -102.5t9 -128t9.5 -126t7.5 -96t4 -39q38 53 96.5 99.5t127 81.5t141 55t138.5 20q45 0 86.5 -12t74 -37.5t52 -64.5t19.5 -93q0 -33 -7 -66t-18 -65t-25 -62.5t-28 -58.5
q5 -3 22 -3.5t38 -0.5h116v-256zM1090 328l17 8.5t22.5 13.5t20 17.5t8.5 20.5q0 6 -4 13q-23 34 -68.5 48.5t-102.5 14.5t-119.5 -12t-120 -31.5t-104.5 -44.5t-72 -50q-5 -6 -15.5 -14.5t-21 -16.5t-18 -16t-7.5 -14q0 -5 9 -7.5t21.5 -4.5t27.5 -2.5t27 -0.5
q37 0 84.5 3.5t97.5 9t100 13t93 16t76 18t49 18.5zM1058 995q-23 -38 -51.5 -75t-60.5 -76q-39 20 -79.5 47.5t-82.5 63.5q40 57 68 94.5t42 57.5q42 -32 82 -59.5t82 -52.5z" />
    <glyph glyph-name="sf299" unicode="&#x639;" horiz-adv-x="879" arabic-form="initial" 
d="M-23 256q51 0 71 1.5t29 5.5q25 7 25 23q-2 2 -2 7q-22 51 -33.5 104.5t-11.5 107.5q0 55 16.5 113.5t52 106t91.5 78t135 30.5q37 0 77 -8.5t78.5 -23t73.5 -33.5t61 -39.5t41.5 -41t15.5 -38.5q-1 0 -1.5 -4t-0.5 -6q-2 -2 -14.5 -4.5t-33.5 -4t-48 -1.5t-57 3
q-61 5 -113 9t-106 4q-18 0 -40.5 -5.5t-46 -17.5t-45 -30t-36.5 -43q-1 -5 -1.5 -8t-0.5 -4q0 -21 14 -44.5t36.5 -46.5t51 -44.5t57 -38t55 -27t44.5 -12.5q41 9 90 21t99 25.5t97.5 28t85.5 27.5q7 4 18 4q9 0 12.5 -4.5t3.5 -9.5q0 -2 -0.5 -3t-0.5 -3q-4 -24 -9 -50
t-10.5 -51.5t-11.5 -48t-12 -40.5q-12 -11 -45 -26.5t-75 -32.5t-88 -33t-85 -28q-44 -14 -85.5 -27.5t-82.5 -25.5t-83.5 -22t-88.5 -16q-17 -2 -33.5 -3.5t-35.5 -3t-42 -2t-52 -0.5v256z" />
    <glyph glyph-name="sf318" unicode="&#x639;" horiz-adv-x="704" arabic-form="medial" 
d="M722 0q-67 0 -118.5 13.5t-91 33.5t-68.5 42t-50 39q-41 -26 -84 -49.5t-92 -41t-107.5 -27.5t-130.5 -10v256q50 0 102.5 6.5t95 17.5t70 27t27.5 35q0 18 -17 29t-42.5 17t-55.5 8.5t-57 2.5q-17 0 -31 -0.5t-24 -1.5h-1q-10 0 -10 22q0 18 5.5 45t13 54t16 50t14.5 32
q10 18 33 32t54 23.5t69 14t78 4.5q69 0 127 -11.5t100 -35t65.5 -59.5t23.5 -84q0 -28 -7 -52t-18 -46t-24 -41.5t-24 -37.5q18 -23 58 -37t101 -14v-256z" />
    <glyph glyph-name="sf277.008" unicode="&#x639;" horiz-adv-x="828" arabic-form="final" 
d="M851 0q-56 0 -105 15.5t-86.5 47t-62 80.5t-31.5 117q-50 -12 -92 -32t-78.5 -46t-68.5 -58t-61 -68q-39 -50 -76 -111t-66.5 -124.5t-49 -126.5t-24.5 -117q0 -8 -5.5 -18.5t-11.5 -10.5h-1q-10 0 -17 19.5t-7 39.5q0 80 11 159.5t33 154.5t55 143.5t77 125.5
q21 27 44 49.5t51 43t64 41t84 44.5q-3 4 -20.5 9.5t-42.5 10t-55.5 7.5t-60.5 3q-28 0 -52 -3q-2 14 -3.5 24t-1.5 15q0 21 3 46.5t8.5 50t13.5 46t19 33.5q29 32 87.5 47t131.5 15q45 0 90 -5t86 -14t75 -21t56 -26q14 -10 21 -29.5t7 -40.5q0 -29 -11 -61.5t-29 -62
t-40 -53t-44 -34.5q6 -17 25.5 -30t45.5 -22q13 -4 21.5 -7t19.5 -5.5t28 -3.5t46 -1v-256z" />
    <glyph glyph-name="sf299.001" unicode="&#x63a;" horiz-adv-x="879" arabic-form="initial" 
d="M-23 256q51 0 71 1.5t29 5.5q25 7 25 23q-2 2 -2 7q-22 51 -33.5 104.5t-11.5 107.5q0 55 16.5 113.5t52 106t91.5 78t135 30.5q37 0 77 -8.5t78.5 -23t73.5 -33.5t61 -39.5t41.5 -41t15.5 -38.5q-1 0 -1.5 -4t-0.5 -6q-2 -2 -14.5 -4.5t-33.5 -4t-48 -1.5t-57 3
q-61 5 -113 9t-106 4q-18 0 -40.5 -5.5t-46 -17.5t-45 -30t-36.5 -43q-1 -5 -1.5 -8t-0.5 -4q0 -21 14 -44.5t36.5 -46.5t51 -44.5t57 -38t55 -27t44.5 -12.5q41 9 90 21t99 25.5t97.5 28t85.5 27.5q7 4 18 4q9 0 12.5 -4.5t3.5 -9.5q0 -2 -0.5 -3t-0.5 -3q-4 -24 -9 -50
t-10.5 -51.5t-11.5 -48t-12 -40.5q-12 -11 -45 -26.5t-75 -32.5t-88 -33t-85 -28q-44 -14 -85.5 -27.5t-82.5 -25.5t-83.5 -22t-88.5 -16q-17 -2 -33.5 -3.5t-35.5 -3t-42 -2t-52 -0.5v256zM473 1100q-23 -38 -51.5 -75t-60.5 -76q-39 20 -79.5 47.5t-82.5 63.5
q40 57 68 94.5t42 57.5q42 -32 82 -59.5t82 -52.5z" />
    <glyph glyph-name="sf318.001" unicode="&#x63a;" horiz-adv-x="704" arabic-form="medial" 
d="M722 0q-67 0 -118.5 13.5t-91 33.5t-68.5 42t-50 39q-41 -26 -84 -49.5t-92 -41t-107.5 -27.5t-130.5 -10v256q50 0 102.5 6.5t95 17.5t70 27t27.5 35q0 18 -17 29t-42.5 17t-55.5 8.5t-57 2.5q-17 0 -31 -0.5t-24 -1.5h-1q-10 0 -10 22q0 18 5.5 45t13 54t16 50t14.5 32
q10 18 33 32t54 23.5t69 14t78 4.5q69 0 127 -11.5t100 -35t65.5 -59.5t23.5 -84q0 -28 -7 -52t-18 -46t-24 -41.5t-24 -37.5q18 -23 58 -37t101 -14v-256zM460 949q-23 -38 -51.5 -75t-60.5 -76q-39 20 -79.5 47.5t-82.5 63.5q40 57 68 94.5t42 57.5q42 -32 82 -59.5
t82 -52.5z" />
    <glyph glyph-name="sf277.036" unicode="&#x63a;" horiz-adv-x="831" arabic-form="final" 
d="M851 0q-56 0 -105 15.5t-86.5 47t-62 80.5t-31.5 117q-50 -12 -92 -32t-78.5 -46t-68.5 -58t-61 -68q-39 -50 -76 -111t-66.5 -124.5t-49 -126.5t-24.5 -117q0 -8 -5.5 -18.5t-11.5 -10.5h-1q-10 0 -17 19.5t-7 39.5q0 80 11 159.5t33 154.5t55 143.5t77 125.5
q21 27 44 49.5t51 43t64 41t84 44.5q-3 4 -20.5 9.5t-42.5 10t-55.5 7.5t-60.5 3q-28 0 -52 -3q-2 14 -3.5 24t-1.5 15q0 21 3 46.5t8.5 50t13.5 46t19 33.5q29 32 87.5 47t131.5 15q45 0 90 -5t86 -14t75 -21t56 -26q14 -10 21 -29.5t7 -40.5q0 -29 -11 -61.5t-29 -62
t-40 -53t-44 -34.5q6 -17 25.5 -30t45.5 -22q13 -4 21.5 -7t19.5 -5.5t28 -3.5t46 -1v-256zM617 929q-23 -38 -51.5 -75t-60.5 -76q-39 20 -79.5 47.5t-82.5 63.5q40 57 68 94.5t42 57.5q42 -32 82 -59.5t82 -52.5z" />
    <glyph glyph-name="sf301" unicode="&#x641;" horiz-adv-x="575" arabic-form="initial" 
d="M-21 0q45 0 106 2.5t125 20t125.5 55.5t108.5 109q35 54 53.5 127.5t18.5 158.5q0 43 -7.5 91.5t-22 95.5t-36.5 89.5t-51 75t-65 52t-79 19.5q-29 0 -54 -9t-45.5 -23.5t-35 -33t-22.5 -37.5q-11 -27 -18 -62t-13 -74q-5 -33 -9.5 -68t-4.5 -68v-8q1 -33 18 -54.5
t43 -34.5t59 -18.5t66 -6.5h4q51 0 83 21.5t64 56.5q13 -5 19.5 -25t6.5 -40v-10q-4 -34 -27.5 -58t-59.5 -40t-81 -25.5t-92 -14.5t-93 -6.5t-84 -1.5v-256zM356 1159q-23 -38 -51.5 -75t-60.5 -76q-39 20 -79.5 47.5t-82.5 63.5q40 57 68 94.5t42 57.5q42 -32 82 -59.5
t82 -52.5z" />
    <glyph glyph-name="sf321" unicode="&#x641;" horiz-adv-x="604" arabic-form="medial" 
d="M624 0q-59 0 -104.5 6t-85 17.5t-75.5 28t-76 38.5q-30 -19 -62 -35.5t-68.5 -28.5t-79 -19t-93.5 -7v256q23 0 48.5 1.5t46.5 4.5t35 8t14 12v1q-15 43 -23.5 93.5t-8.5 101.5q0 50 10 93t34.5 75t65.5 50t103 18q109 0 172 -48.5t63 -148.5q0 -60 -14 -117.5
t-30 -114.5q12 -12 46 -20.5t82 -8.5v-256zM183 423q0 -15 12 -30t29 -29t35 -26.5t30 -22.5q10 -7 34 -7q11 0 20.5 2t15.5 7q18 13 32 23.5t24.5 21t16 23.5t5.5 31q-1 15 -13 26.5t-31.5 19t-43.5 11.5t-49 4q-23 0 -43.5 -3t-36.5 -9.5t-26 -16t-11 -22.5v-3zM422 990
q-23 -38 -51.5 -75t-60.5 -76q-39 20 -79.5 47.5t-82.5 63.5q40 57 68 94.5t42 57.5q42 -32 82 -59.5t82 -52.5z" />
    <glyph glyph-name="sf277.009" unicode="&#x641;" horiz-adv-x="1676" arabic-form="final" 
d="M1230 442v-2q0 -16 12.5 -33t30 -32.5t36 -29.5t30.5 -24q10 -7 31 -7q23 0 43.5 12t36.5 29t25 36.5t9 34.5v6q0 15 -12 26.5t-31 19t-43 11.5t-49 4q-23 0 -44 -3t-37.5 -9.5t-26.5 -16t-11 -22.5zM1697 0q-106 0 -189.5 26.5t-150.5 71.5q-83 -35 -176 -61.5
t-189.5 -44.5t-194 -27t-188.5 -9q-73 0 -143 6.5t-132 22t-114 42t-89.5 67t-58.5 96.5t-21 130q0 36 5 77.5t14 82t21 77.5t25.5 65.5t28 45.5t28.5 17t22 -9t8 -16q0 -4 -4 -11q-7 -15 -14.5 -36.5t-14 -46.5t-11 -52.5t-4.5 -53.5q0 -53 20 -92t55 -67.5t82.5 -47
t102 -29.5t113.5 -15.5t118 -4.5q66 0 139.5 5.5t144 15.5t133.5 22.5t110 26.5q-6 22 -12.5 51.5t-12 61t-9 63.5t-3.5 59q0 48 13.5 89t42.5 71.5t74.5 48t109.5 17.5q53 0 92.5 -20t66 -52.5t39.5 -73.5t13 -83q0 -69 -19.5 -119.5t-42.5 -95.5q11 -9 30 -15.5t42.5 -11
t49.5 -6.5t50 -2v-256zM1482 997q-23 -38 -51.5 -75t-60.5 -76q-39 20 -79.5 47.5t-82.5 63.5q40 57 68 94.5t42 57.5q42 -32 82 -59.5t82 -52.5z" />
    <glyph glyph-name="sf301.001" unicode="&#x642;" horiz-adv-x="592" arabic-form="initial" 
d="M261 1126q-32 -38 -57 -66.5t-42 -48.5q-42 29 -79.5 61.5t-73.5 70.5q22 29 52 66t70 83q38 -35 72 -63.5t65 -52.5q69 76 99 117q32 -29 70.5 -60.5t86.5 -66.5q-26 -39 -56.5 -78t-64.5 -78q-42 29 -76.5 58t-65.5 58zM-21 0q45 0 106 2.5t125 20t125.5 55.5
t108.5 109q35 54 53.5 127.5t18.5 158.5q0 43 -7.5 91.5t-22 95.5t-36.5 89.5t-51 75t-65 52t-79 19.5q-29 0 -54 -9t-45.5 -23.5t-35 -33t-22.5 -37.5q-11 -27 -18 -62t-13 -74q-5 -33 -9.5 -68t-4.5 -68v-8q1 -33 18 -54.5t43 -34.5t59 -18.5t66 -6.5h4q51 0 83 21.5
t64 56.5q13 -5 19.5 -25t6.5 -40v-10q-4 -34 -27.5 -58t-59.5 -40t-81 -25.5t-92 -14.5t-93 -6.5t-84 -1.5v-256z" />
    <glyph glyph-name="sf321.001" unicode="&#x642;" horiz-adv-x="594" arabic-form="medial" 
d="M275 930q-29 -35 -52 -61t-38 -44q-39 26 -73 56t-67 64q20 26 47.5 60t63.5 76q35 -32 66 -58t59 -48q32 35 54.5 61.5t36.5 45.5q29 -26 63.5 -55t79.5 -61q-24 -35 -51.5 -70.5t-58.5 -71.5q-39 26 -70.5 52.5t-59.5 53.5zM624 0q-59 0 -104.5 6t-85 17.5t-75.5 28
t-76 38.5q-30 -19 -62 -35.5t-68.5 -28.5t-79 -19t-93.5 -7v256q23 0 48.5 1.5t46.5 4.5t35 8t14 12v1q-15 43 -23.5 93.5t-8.5 101.5q0 50 10 93t34.5 75t65.5 50t103 18q109 0 172 -48.5t63 -148.5q0 -60 -14 -117.5t-30 -114.5q12 -12 46 -20.5t82 -8.5v-256zM183 423
q0 -15 12 -30t29 -29t35 -26.5t30 -22.5q10 -7 34 -7q11 0 20.5 2t15.5 7q18 13 32 23.5t24.5 21t16 23.5t5.5 31q-1 15 -13 26.5t-31.5 19t-43.5 11.5t-49 4q-23 0 -43.5 -3t-36.5 -9.5t-26 -16t-11 -22.5v-3z" />
    <glyph glyph-name="sf277.010" unicode="&#x642;" horiz-adv-x="2044" arabic-form="final" 
d="M2067 0h-55q0 -9 0.5 -18t0.5 -17q-1 -69 -19.5 -130t-51.5 -114t-78.5 -98t-100.5 -82q-80 -54 -175.5 -92t-197.5 -61.5t-205 -31.5q-65 -6 -126 -6q-36 0 -71 2q-139 8 -268 41.5t-255 106.5q-64 37 -123 80.5t-105.5 87.5t-77.5 85t-38 73q-14 29 -34 82t-46 110h10
q192 -181 421 -286q62 -28 126.5 -53.5t131 -45.5t135.5 -33.5t140 -16.5q36 -1 73 -1q38 0 78 1q80 3 163 13.5t165 29.5t157 47q91 35 165 86.5t120 126.5q-5 42 -13.5 67.5t-19.5 45.5q-27 1 -70 1q-44 0 -90 2.5t-86 10t-61 24.5q-33 27 -48.5 62.5t-15.5 77.5
q0 32 6.5 67t14.5 60q11 33 23 68.5t31.5 65t51 48.5t81.5 19q44 0 81 -26t66.5 -64t51.5 -81t36 -77q5 -1 17 -1h85v-256zM1668 738q-32 -38 -57 -66.5t-42 -48.5q-42 29 -79.5 61.5t-73.5 70.5q22 29 52 66t70 83q38 -35 72 -63.5t65 -52.5q69 76 99 117
q32 -29 70.5 -60.5t86.5 -66.5q-26 -39 -56.5 -78t-64.5 -78q-42 29 -76.5 58t-65.5 58z" />
    <glyph glyph-name="sf302.001" unicode="&#x643;" horiz-adv-x="927" arabic-form="initial" 
d="M-20 256h67q40 0 85.5 2.5t92 8.5t83.5 18t60.5 31t23.5 47v3q0 36 -27 87t-68 109t-89.5 119t-91 117t-73 104t-35.5 79q-3 21 -4 60v26q0 28 1 59q2 46 9 94.5t20 89.5q24 41 80 88.5t131 99t160.5 106t169.5 110t158 111t125 108.5q4 4 10 4q9 0 12 -10q1 -7 1 -13
v-12q0 -40 -10.5 -74.5t-26 -66.5t-33.5 -62t-33 -61q-8 -14 -13 -29.5t-10.5 -30.5t-13 -29t-19.5 -25q-2 -3 -4 -3q-5 0 -8 4t-3 15t2.5 21.5t4.5 21.5h-12q-72 -41 -147.5 -89.5t-152 -100.5t-150.5 -106t-143 -106q-22 -18 -22 -42q0 -16 9 -32t24 -32q31 -33 70 -81.5
t79.5 -104.5t78.5 -117t68 -119.5t48 -111.5t18 -93v-25q0 -91 -19 -157q-22 -75 -61 -124.5t-91 -78t-109 -42.5t-114.5 -17.5t-107.5 -3.5v256z" />
    <glyph glyph-name="sf322.003" unicode="&#x643;" horiz-adv-x="890" arabic-form="medial" 
d="M913 0q-106 0 -183.5 31.5t-134.5 78.5t-98 102.5t-75 102.5q-42 -81 -89 -140.5t-101 -98.5t-116.5 -57.5t-135.5 -18.5v256q76 0 139.5 14.5t109.5 40t72 61t26 77.5q0 32 -17 74.5t-44.5 90t-62 99t-69.5 103t-67.5 100.5t-55.5 92q-5 13 -6 40q-1 15 -1 34v25
q1 32 4.5 68t9 69t12.5 59.5t15 40.5q16 27 63.5 62t113.5 75.5t144.5 85.5t156 93t148 98t121.5 100q4 4 10 4q9 0 12 -11q1 -8 1 -14v-14q0 -38 -10.5 -72t-26 -66t-33.5 -62t-33 -60q-5 -9 -12 -28.5t-15 -39.5t-16.5 -35t-16.5 -15t-9.5 7t-1.5 13q0 11 2.5 21t4.5 21
h-12q-68 -38 -134 -71t-131 -68t-129 -75t-128 -92q-26 -21 -26 -39q0 -6 3 -12q12 -29 43.5 -84t72.5 -123t88 -141t90 -138t77.5 -115t51.5 -71q40 -50 83.5 -91t92.5 -70t104 -45t119 -16v-256z" />
    <glyph glyph-name="sf322.004" unicode="&#x643;" horiz-adv-x="2542" arabic-form="final" 
d="M2563 0q-51 0 -88 7.5t-64.5 24.5t-47 44.5t-36.5 67.5q-51 -27 -149 -50.5t-226 -42.5t-279 -33t-308.5 -22t-313.5 -10q-56 -1 -110 -1q-97 0 -186 3q-139 4 -252.5 16t-186.5 32q-47 12 -93.5 31t-84.5 53t-62.5 86t-27.5 129v15q0 45 10 95q12 57 31 104.5t41.5 78.5
t42.5 31q7 0 19.5 -5.5t12.5 -17.5q0 -14 -7.5 -34t-17 -44.5t-17 -52.5t-7.5 -59q0 -61 40.5 -104t137.5 -61q103 -19 227 -30.5t259 -15.5q110 -4 226 -4h52q142 1 283 7t276.5 15.5t257.5 21.5t225.5 25.5t180.5 27.5q12 2 13 12v4q0 8 -3 20q-5 13 -13 26.5t-15 22.5
q-21 28 -64.5 49t-102 34t-128.5 18q-44 3 -89 3q-28 0 -56 -1q-134 -6 -246 -8q-47 -2 -91 -2q-63 0 -122 3q-101 3 -196.5 15t-195.5 35q-39 8 -60 28.5t-28 49.5q-4 18 -4 38q0 12 1 24q4 34 14 69t24.5 68.5t28.5 61.5q46 96 116.5 164t162.5 126q93 54 161 93t116.5 66
t81 44.5t55.5 29l39 19.5l32 16q8 -10 8 -26v-5q-2 -20 -9 -40.5t-15.5 -39.5t-13.5 -31q-26 -58 -69 -101.5t-95.5 -79t-112 -65t-119 -60t-115.5 -64t-101 -77.5q-34 -51 -38 -70q34 -26 93.5 -40t137.5 -20t171 -6t193 1h204q104 -1 205 -7q103 -7 184 -52t135 -126
q16 -23 27.5 -52.5t16.5 -62.5q5 -31 5 -63v-7q-1 -36 -9 -72q26 -23 57.5 -28.5t70.5 -5.5v-256z" />
    <glyph glyph-name="sf302.002" unicode="&#x6af;" horiz-adv-x="981" arabic-form="initial" 
d="M-20 256h67q40 0 85.5 2.5t92 8.5t83.5 18t60.5 31t23.5 47v3q0 36 -27 87t-68 109t-89.5 119t-91 117t-73 104t-35.5 79q-3 21 -4 60v26q0 28 1 59q2 46 9 94.5t20 89.5q24 41 80 88.5t131 99t160.5 106t169.5 110t158 111t125 108.5q4 4 10 4q9 0 12 -10q1 -7 1 -13
v-12q0 -40 -10.5 -74.5t-26 -66.5t-33.5 -62t-33 -61q-8 -14 -13 -29.5t-10.5 -30.5t-13 -29t-19.5 -25q-2 -3 -4 -3q-5 0 -8 4t-3 15t2.5 21.5t4.5 21.5h-12q-72 -41 -147.5 -89.5t-152 -100.5t-150.5 -106t-143 -106q-22 -18 -22 -42q0 -16 9 -32t24 -32q31 -33 70 -81.5
t79.5 -104.5t78.5 -117t68 -119.5t48 -111.5t18 -93v-25q0 -91 -19 -157q-22 -75 -61 -124.5t-91 -78t-109 -42.5t-114.5 -17.5t-107.5 -3.5v256zM-100 1258q-20 22 -27 52q-4 18 -4 39q0 12 1 25q4 34 14.5 69t25.5 68.5t30 61.5q49 97 120 172.5t165 132.5q95 52 164 92
t118 69.5t82 50t55.5 35t39 24.5t32.5 17q7 -10 7 -24v-7q-2 -19 -9 -39.5t-16.5 -39.5t-14.5 -31q-27 -58 -70.5 -101.5t-97 -78.5t-113.5 -65t-120 -60.5t-116.5 -64t-102.5 -75.5q-14 -13 -25 -32t-14 -38q-2 -8 -2 -15q0 -11 3 -20q5 -16 23 -23q2 -1 4 -1l-147 -198
q-3 2 -5 5z" />
    <glyph glyph-name="sf322.001" unicode="&#x6af;" horiz-adv-x="890" arabic-form="medial" 
d="M913 0q-106 0 -183.5 31.5t-134.5 78.5t-98 102.5t-75 102.5q-42 -81 -89 -140.5t-101 -98.5t-116.5 -57.5t-135.5 -18.5v256q76 0 139.5 14.5t109.5 40t72 61t26 77.5q0 32 -17 74.5t-44.5 90t-62 99t-69.5 103t-67.5 100.5t-55.5 92q-5 13 -6 40q-1 15 -1 34v25
q1 32 4.5 68t9 69t12.5 59.5t15 40.5q16 27 63.5 62t113.5 75.5t144.5 85.5t156 93t148 98t121.5 100q4 4 10 4q9 0 12 -11q1 -8 1 -14v-14q0 -38 -10.5 -72t-26 -66t-33.5 -62t-33 -60q-5 -9 -12 -28.5t-15 -39.5t-16.5 -35t-16.5 -15t-9.5 7t-1.5 13q0 11 2.5 21t4.5 21
h-12q-68 -38 -134 -71t-131 -68t-129 -75t-128 -92q-26 -21 -26 -39q0 -6 3 -12q12 -29 43.5 -84t72.5 -123t88 -141t90 -138t77.5 -115t51.5 -71q40 -50 83.5 -91t92.5 -70t104 -45t119 -16v-256zM-100 1258q-20 22 -27 52q-4 18 -4 39q0 12 1 25q4 34 14.5 69t25.5 68.5
t30 61.5q49 97 120 172.5t165 132.5q95 52 164 92t118 69.5t82 50t55.5 35t39 24.5t32.5 17q7 -10 7 -24v-7q-2 -19 -9 -39.5t-16.5 -39.5t-14.5 -31q-27 -58 -70.5 -101.5t-97 -78.5t-113.5 -65t-120 -60.5t-116.5 -64t-102.5 -75.5q-14 -13 -25 -32t-14 -38q-2 -8 -2 -15
q0 -11 3 -20q5 -16 23 -23q2 -1 4 -1l-147 -198q-3 2 -5 5z" />
    <glyph glyph-name="sf322.002" unicode="&#x6af;" horiz-adv-x="2542" arabic-form="final" 
d="M2563 0q-51 0 -88 7.5t-64.5 24.5t-47 44.5t-36.5 67.5q-51 -27 -149 -50.5t-226 -42.5t-279 -33t-308.5 -22t-313.5 -10q-56 -1 -110 -1q-97 0 -186 3q-139 4 -252.5 16t-186.5 32q-47 12 -93.5 31t-84.5 53t-62.5 86t-27.5 129v15q0 45 10 95q12 57 31 104.5t41.5 78.5
t42.5 31q7 0 19.5 -5.5t12.5 -17.5q0 -14 -7.5 -34t-17 -44.5t-17 -52.5t-7.5 -59q0 -61 40.5 -104t137.5 -61q103 -19 227 -30.5t259 -15.5q110 -4 226 -4h52q142 1 283 7t276.5 15.5t257.5 21.5t225.5 25.5t180.5 27.5q12 2 13 12v4q0 8 -3 20q-5 13 -13 26.5t-15 22.5
q-21 28 -64.5 49t-102 34t-128.5 18q-44 3 -89 3q-28 0 -56 -1q-134 -6 -246 -8q-47 -2 -91 -2q-63 0 -122 3q-101 3 -196.5 15t-195.5 35q-39 8 -60 28.5t-28 49.5q-4 18 -4 38q0 12 1 24q4 34 14 69t24.5 68.5t28.5 61.5q46 96 116.5 164t162.5 126q93 54 161 93t116.5 66
t81 44.5t55.5 29l39 19.5l32 16q8 -10 8 -26v-5q-2 -20 -9 -40.5t-15.5 -39.5t-13.5 -31q-26 -58 -69 -101.5t-95.5 -79t-112 -65t-119 -60t-115.5 -64t-101 -77.5q-34 -51 -38 -70q34 -26 93.5 -40t137.5 -20t171 -6t193 1h204q104 -1 205 -7q103 -7 184 -52t135 -126
q16 -23 27.5 -52.5t16.5 -62.5q5 -31 5 -63v-7q-1 -36 -9 -72q26 -23 57.5 -28.5t70.5 -5.5v-256zM814 841q-20 22 -27 52q-4 18 -4 39q0 12 1 25q4 34 14.5 69t25.5 68.5t30 61.5q49 97 120 172.5t165 132.5q95 52 164 92t118 69.5t82 50t55.5 35t39 24.5t32.5 17
q7 -10 7 -24v-7q-2 -19 -9 -39.5t-16.5 -39.5t-14.5 -31q-27 -58 -70.5 -101.5t-97 -78.5t-113.5 -65t-120 -60.5t-116.5 -64t-102.5 -75.5q-14 -13 -25 -32t-14 -38q-2 -8 -2 -15q0 -11 3 -20q5 -16 23 -23q2 -1 4 -1l-147 -198q-3 2 -5 5z" />
    <glyph glyph-name="sf306" unicode="&#x644;" horiz-adv-x="446" arabic-form="initial" 
d="M-21 256q55 0 102 7.5t81.5 28t56 55.5t25.5 90q2 27 2 54q0 60 -9 120q-14 86 -32.5 169.5t-35.5 163.5t-17 156q0 22 1 54.5t3.5 67.5t7 69.5t11 62t15.5 44.5t21 17q3 0 8.5 -20.5t12 -48t13 -54.5t11.5 -40q7 -19 12 -36t11.5 -36t16 -41t24.5 -51q0 -14 -4 -26
t-8.5 -26t-8 -30.5t-3.5 -38.5v-8q0 -5 1 -10q7 -83 19.5 -164t22.5 -162t14 -162q1 -23 1 -47q0 -58 -7 -117q-14 -101 -54.5 -160t-93.5 -89.5t-111.5 -39t-108.5 -8.5v256z" />
    <glyph glyph-name="sf325" unicode="&#x644;" horiz-adv-x="525" arabic-form="medial" 
d="M547 0q-72 0 -123 20.5t-85.5 52t-55.5 68t-33 68.5q-8 -38 -29.5 -75t-55.5 -67t-80.5 -48.5t-105.5 -18.5v256q103 0 156 44t53 138q0 20 -5 76t-13 131t-17 159.5t-18 161.5t-15.5 138t-9.5 88l43 139q2 11 7 17t16 6q19 0 26 -25q15 -112 26.5 -208.5t23 -189.5
t24 -189.5t29.5 -207.5q9 -54 23 -104.5t40.5 -89t69.5 -61.5t109 -23v-256z" />
    <glyph glyph-name="sf277.011" unicode="&#x644;" horiz-adv-x="2097" arabic-form="final" 
d="M2121 0q-85 0 -134.5 40.5t-69.5 102.5q-12 -86 -48.5 -171.5t-100.5 -162.5t-156.5 -141t-216.5 -106q-128 -42 -266 -53q-50 -5 -101 -5q-87 0 -174 13q-57 8 -127 30.5t-143 54.5t-144 72t-130 85t-101 92.5t-58 94.5q-14 29 -34 82t-46 110h10q95 -90 200.5 -152
t220.5 -114q59 -27 130.5 -48t149 -35t159.5 -21q76 -7 149 -7q5 0 11 1q78 0 152 9t138 27q94 25 168.5 66t128 86t84 88.5t36.5 74.5v66q0 32 -1 67q-3 67 -15.5 169.5t-28.5 238t-32.5 304.5t-28.5 369q0 30 5 64.5t17 67.5t32 61t50 45q0 -1 1 -14.5t2.5 -33t3.5 -42
t3.5 -42t2.5 -33t1 -14.5q6 -67 13 -148.5t15 -168.5t16 -175.5t17 -168.5t18 -148t18 -114q9 -45 22.5 -83t36.5 -65.5t58 -43t87 -15.5v-256z" />
    <glyph glyph-name="sf307" unicode="&#x645;" horiz-adv-x="742" arabic-form="initial" 
d="M558 360q3 10 3 20q0 18 -10.5 37.5t-27 35t-38 25.5t-43.5 10q-15 0 -32.5 -5t-32.5 -14.5t-26.5 -23t-15.5 -31.5q49 -14 107.5 -29t115.5 -25zM-20 256q31 0 61.5 3.5t58 14t51.5 31t42 54.5q28 52 53.5 110.5t54.5 111t64.5 93.5t83.5 59q5 1 10 1.5t10 0.5
q36 0 66 -17.5t54.5 -46t43 -64.5t31 -73.5t18.5 -72.5t6 -62q0 -47 -8 -95.5t-25.5 -89t-46 -67.5t-69.5 -30q-32 4 -72 13t-80.5 19.5t-78.5 22t-66 20.5q-28 -57 -59 -94t-64 -58.5t-68 -30.5t-71 -9v256z" />
    <glyph glyph-name="sf326" unicode="&#x645;" horiz-adv-x="640" arabic-form="medial" 
d="M659 0q-51 0 -83.5 12t-54.5 30q-11 9 -19.5 16.5t-11.5 7.5q-6 0 -8.5 -8t-3.5 -20t-2.5 -26.5t-5.5 -27.5q-17 -51 -52 -74t-77 -23q-39 0 -69 19t-49 49t-27 66q-5 22 -5 44q0 13 2 26q-3 3 -7 3q-6 0 -13 -5t-12 -11q-17 -20 -35 -35t-39.5 -24.5t-47.5 -14t-59 -4.5
v256q79 0 128 18.5t78.5 54.5t45.5 87.5t29 117.5q3 14 10 25.5t17 11.5q13 0 19.5 -7t8.5 -12q42 -66 73 -120.5t66.5 -93.5t82.5 -60.5t121 -21.5v-256zM285 258q-8 -14 -14 -31t-14 -34q14 -28 42 -45.5t59 -17.5q24 0 42 15q-32 19 -60.5 50.5t-54.5 62.5z" />
    <glyph glyph-name="sf277.012" unicode="&#x645;" horiz-adv-x="1032" arabic-form="final" 
d="M1053 0q-15 -1 -29 -1q-49 0 -91 8q-56 10 -101 35.5t-78 67t-52 101.5q-12 42 -17 84q-4 29 -4 53q0 10 1 19q-33 0 -62 -2.5t-58.5 -7t-62 -12t-73.5 -17.5q-44 -13 -92.5 -29.5t-90 -34.5t-69 -37.5t-29.5 -38.5q25 -135 41.5 -268t16.5 -278v-62q0 -38 -2 -84
t-8.5 -86.5t-20 -68t-35.5 -27.5q-8 0 -12 4v90q0 82 -4.5 147.5t-13.5 128t-21 128.5t-27 149q-4 63 -6 113.5t-2 95.5q0 70 7.5 128t29.5 103.5t62.5 78t105.5 50.5q-2 9 -2 15v12q0 43 11.5 91t32 94t47.5 88t58.5 74t65 50.5t66.5 18.5q64 0 126 -35t116.5 -89
t97.5 -120t69 -129l-76 -240q-20 2 -45.5 3.5t-44.5 1.5q16 -37 43 -58.5t63 -33t78.5 -14.5t90.5 -3v-256zM688 610q-37 60 -90 96.5t-117 36.5q-27 0 -51 -10t-41 -27.5t-27 -41.5t-10 -52q0 -27 13 -59q40 13 75 23.5t69 18t69 11.5t75 4h35z" />
    <glyph glyph-name="sf300.008" unicode="&#x646;" horiz-adv-x="409" arabic-form="initial" 
d="M212 705q3 12 11 12q6 0 14 -5q23 -30 41.5 -70t32.5 -85q17 -57 29 -115q8 -41 8 -81q0 -17 -1 -34q-8 -95 -36.5 -158t-75.5 -100.5t-111.5 -53t-143.5 -15.5v256q30 0 75 2t88 10q22 4 43 10.5t37 16t26 22t10 29.5q0 15 -8.5 35t-21 40t-26 38.5t-23.5 30.5
q1 34 5 60.5t9 50.5t10 48.5t8 55.5zM306 1006q-23 -38 -51.5 -75t-60.5 -76q-39 20 -79.5 47.5t-82.5 63.5q40 57 68 94.5t42 57.5q42 -32 82 -59.5t82 -52.5z" />
    <glyph glyph-name="sf277.023" unicode="&#x646;" horiz-adv-x="490" arabic-form="medial" 
d="M508 0h-13q-33 0 -67 9q-41 10 -77 31.5t-64 53t-43 71.5q-11 -43 -35 -74t-58.5 -51.5t-78 -30t-92.5 -9.5v256q62 0 108 13t79.5 38t56 61.5t37.5 83.5q4 15 12 18q3 1 6 1q5 0 10 -3q7 -5 12.5 -16t5.5 -24q3 -35 9 -62t18 -47q13 -21 32.5 -33.5t42.5 -19t48.5 -8.5
t50.5 -2v-256zM380 763q-23 -38 -51.5 -75t-60.5 -76q-39 20 -79.5 47.5t-82.5 63.5q40 57 68 94.5t42 57.5q42 -32 82 -59.5t82 -52.5z" />
    <glyph glyph-name="sf277.020" unicode="&#x646;" horiz-adv-x="2062" arabic-form="final" 
d="M2079 0q-23 0 -41 3t-35 10q-5 -96 -37.5 -175.5t-85.5 -143.5t-123.5 -113.5t-152.5 -85.5q-82 -37 -172 -61.5t-181.5 -38t-181.5 -16.5q-37 -2 -73 -2q-51 0 -99 3q-72 4 -146.5 15t-147 29.5t-141 44.5t-127.5 61q-64 37 -123 80.5t-105.5 87.5t-77.5 85t-38 73
q-14 29 -34 82t-46 110h10q192 -181 421 -286q66 -30 137 -53.5t145 -40.5t149 -28.5t148 -15.5q62 -4 130 -4t139.5 5t143.5 15.5t142 27.5q66 16 128.5 36.5t118 47.5t102 63t81.5 84q-1 39 -3 67.5t-9 54t-19.5 51.5t-34.5 61q-2 17 -3 35.5t-1 37.5q0 41 4 82t10.5 74
t15.5 53.5t19 20.5q7 0 16.5 -16.5t20 -38.5t22 -45t22.5 -36q6 -7 13.5 -14.5t20 -14t31.5 -11t48 -4.5v-256zM1257 108q-23 -38 -51.5 -75t-60.5 -76q-39 20 -79.5 47.5t-82.5 63.5q40 57 68 94.5t42 57.5q42 -32 82 -59.5t82 -52.5z" />
    <glyph glyph-name="sf277.044" unicode="&#x6ba;" horiz-adv-x="2062" arabic-form="final" 
d="M2079 0q-23 0 -41 3t-35 10q-5 -96 -37.5 -175.5t-85.5 -143.5t-123.5 -113.5t-152.5 -85.5q-82 -37 -172 -61.5t-181.5 -38t-181.5 -16.5q-37 -2 -73 -2q-51 0 -99 3q-72 4 -146.5 15t-147 29.5t-141 44.5t-127.5 61q-64 37 -123 80.5t-105.5 87.5t-77.5 85t-38 73
q-14 29 -34 82t-46 110h10q192 -181 421 -286q66 -30 137 -53.5t145 -40.5t149 -28.5t148 -15.5q62 -4 130 -4t139.5 5t143.5 15.5t142 27.5q66 16 128.5 36.5t118 47.5t102 63t81.5 84q-1 39 -3 67.5t-9 54t-19.5 51.5t-34.5 61q-2 17 -3 35.5t-1 37.5q0 41 4 82t10.5 74
t15.5 53.5t19 20.5q7 0 16.5 -16.5t20 -38.5t22 -45t22.5 -36q6 -7 13.5 -14.5t20 -14t31.5 -11t48 -4.5v-256z" />
    <glyph glyph-name="sf277.016" unicode="&#x648;" horiz-adv-x="615" arabic-form="final" 
d="M635 0h-93q-5 -48 -17.5 -93t-36.5 -103q-15 -37 -40.5 -67t-58.5 -51.5t-71.5 -33t-79.5 -11.5q-37 0 -75.5 2.5t-77 4.5t-76.5 2t-74 -5q-9 2 -15 8.5t-6 16.5q0 13 9 16q30 9 74 24t94 33.5t102.5 39t99.5 39.5q66 28 105 70t64 108q-21 -2 -45.5 -3.5t-56.5 -1.5
q-29 0 -58 2t-55.5 7.5t-48.5 14.5t-37 24q-16 15 -22.5 41.5t-6.5 59.5q0 34 6 74t14.5 77.5t18 68t17.5 47.5q8 19 24 37t37 31.5t46 21.5q22 7 45 7h6q56 -2 93 -37.5t63 -85.5q15 -29 27 -66t21 -63q0 -1 8 -1.5t20 -0.5t27 0.5t30 1.5v-256z" />
    <glyph glyph-name="sf277.045" unicode="&#x624;" horiz-adv-x="615" arabic-form="final" 
d="M635 0h-93q-5 -48 -17.5 -93t-36.5 -103q-15 -37 -40.5 -67t-58.5 -51.5t-71.5 -33t-79.5 -11.5q-37 0 -75.5 2.5t-77 4.5t-76.5 2t-74 -5q-9 2 -15 8.5t-6 16.5q0 13 9 16q30 9 74 24t94 33.5t102.5 39t99.5 39.5q66 28 105 70t64 108q-21 -2 -45.5 -3.5t-56.5 -1.5
q-29 0 -58 2t-55.5 7.5t-48.5 14.5t-37 24q-16 15 -22.5 41.5t-6.5 59.5q0 34 6 74t14.5 77.5t18 68t17.5 47.5q8 19 24 37t37 31.5t46 21.5q22 7 45 7h6q56 -2 93 -37.5t63 -85.5q15 -29 27 -66t21 -63q0 -1 8 -1.5t20 -0.5t27 0.5t30 1.5v-256zM418 1113q2 -8 4 -13.5
t4 -9.5q1 -2 1.5 -4t1.5 -4q0 -5 -4 -5q-5 0 -14.5 5t-22.5 10.5t-28.5 10.5t-33.5 5q-24 0 -46 -6.5t-36 -20.5q2 -22 13 -41.5t28 -34.5t39.5 -23.5t48.5 -8.5q51 10 88.5 19.5t61.5 18.5q-5 -112 -107 -146q-42 -14 -70.5 -22t-50.5 -14.5t-40 -12t-38 -15t-46.5 -24
t-64.5 -37.5q-21 -12 -32 -12q-13 0 -13 19q0 10 1 11q29 29 54.5 50.5t50.5 36.5l35 30q-12 16 -23.5 40.5t-22.5 56.5q1 10 5 29.5t12 43.5t20 49t28 45.5t37.5 33.5t47.5 13q16 0 33 -6t32 -16t27.5 -23t19.5 -28z" />
    <glyph glyph-name="sf265.001.init" unicode="&#x6c1;" horiz-adv-x="683" arabic-form="initial" 
d="M212 705q3 12 11 12q6 0 14 -5q23 -30 41.5 -70t32.5 -85q17 -57 29 -115q8 -41 8 -81q0 -17 -1 -34q-8 -95 -36.5 -158t-75.5 -112t-111.5 -53t-143.5 -4v256q30 0 75 2t88 10q22 4 43 10.5t37 16t26 22t10 29.5q0 15 -8.5 35t-21 40t-26 38.5t-23.5 30.5q1 34 5 60.5
t9 50.5t10 48.5t8 55.5zM368 -481q-31 -36 -80 -36q-54 0 -92 46q-38 45 -38 110q0 82 63 147l47 49q20 21 20 68v6q0 3 -1 9q-1 8 -1 15q0 6 -1 13h15q6 -47 6 -63q0 -77 -38 -166l-30 -72q-14 -26 -14 -58q0 -35 20 -58q21 -23 51 -23q25 0 41 15t16 37q0 18 -13 29
l-20 13q-22 15 -22 45q0 21 12.5 36t30.5 15q25 0 43 -25q17 -26 17 -63q0 -53 -32 -89zM522 705q3 12 11 12q6 0 14 -5q23 -30 41.5 -70t32.5 -85q17 -57 29 -115q8 -41 8 -81q0 -17 -1 -34q-8 -95 -36.5 -158t-75.5 -100.5t-140 -52.5q-20 -4 -41 -4q-73 0 -151 44l77 200
q30 0 75 2t88 10q22 4 43 10.5t37 16t26 22t10 29.5q0 15 -8.5 35t-21 40t-26 38.5t-23.5 30.5q1 34 5 60.5t9 50.5t10 48.5t8 55.5z" />
    <glyph glyph-name="sf297" unicode="&#x6c1;" horiz-adv-x="574" arabic-form="medial" 
d="M592 0q-14 1 -27 1q-48 0 -82 -9q-44 -11 -69.5 -35t-35.5 -59.5t-10 -80.5q0 -42 9.5 -81.5t38.5 -59.5l-39 -137q-66 33 -111 77t-73 93.5t-40 102.5t-12 105q0 55 9 110.5t23 97.5q-35 -58 -82.5 -91.5t-110.5 -33.5v256q66 0 113.5 12t82.5 30.5t61 40.5t48 42
q7 7 25 7q14 0 14 -9v-2q0 -32 -15 -73.5t-33.5 -94.5t-33.5 -118.5t-15 -146.5q0 -26 3 -50.5t10.5 -45.5t20 -36.5t32.5 -22.5q-3 30 -3 60q0 84 23 158t63.5 129.5t95.5 87.5t120 32v-256z" />
    <glyph glyph-name="sf277.013" unicode="&#x6c1;" horiz-adv-x="890" arabic-form="final" 
d="M911 0q-75 0 -135 14t-106 56.5t-79.5 121.5t-55.5 208q-7 -3 -10.5 -9.5t-5.5 -15t-3 -16.5t-3 -14q-21 -40 -57.5 -64t-80.5 -36.5t-91.5 -16.5t-90.5 -4q-41 0 -69 12t-46 32.5t-26 48t-8 59.5q0 22 2.5 43.5t5.5 39.5q10 69 55 127t107.5 106.5t133 88t130.5 72.5
q-2 22 -4 40.5t-2 41.5q0 35 7.5 57.5t28.5 47.5q3 4 7 4q8 0 14 -9.5t8 -17.5q11 -73 17 -126.5t12 -102t14 -100.5t23 -122q12 -81 34.5 -139.5t59 -96.5t89.5 -56t125 -18v-256zM521 529q-8 45 -15.5 88.5t-19.5 94.5h-3q-12 0 -39.5 -10.5t-61.5 -28t-70.5 -40
t-67 -46.5t-50 -48t-19.5 -44q0 -23 22 -31.5t59 -8.5q78 0 141.5 18t123.5 56z" />
    <glyph glyph-name="sf265.002.fina" unicode="&#x6c3;" horiz-adv-x="890" 
d="M911 0q-75 0 -135 14t-106 56.5t-79.5 121.5t-55.5 208q-7 -3 -10.5 -9.5t-5.5 -15t-3 -16.5t-3 -14q-21 -40 -57.5 -64t-80.5 -36.5t-91.5 -16.5t-90.5 -4q-41 0 -69 12t-46 32.5t-26 48t-8 59.5q0 22 2.5 43.5t5.5 39.5q10 69 55 127t107.5 106.5t133 88t130.5 72.5
q-2 22 -4 40.5t-2 41.5q0 35 7.5 57.5t28.5 47.5q3 4 7 4q8 0 14 -9.5t8 -17.5q11 -73 17 -126.5t12 -102t14 -100.5t23 -122q12 -81 34.5 -139.5t59 -96.5t89.5 -56t125 -18v-256zM521 529q-8 45 -15.5 88.5t-19.5 94.5h-3q-12 0 -39.5 -10.5t-61.5 -28t-70.5 -40
t-67 -46.5t-50 -48t-19.5 -44q0 -23 22 -31.5t59 -8.5q78 0 141.5 18t123.5 56zM418 1262q-32 -38 -57 -66.5t-42 -48.5q-42 29 -79.5 61.5t-73.5 70.5q22 29 52 66t70 83q38 -35 72 -63.5t65 -52.5q69 76 99 117q32 -29 70.5 -60.5t86.5 -66.5q-26 -39 -56.5 -78t-64.5 -78
q-42 29 -76.5 58t-65.5 58z" />
    <glyph glyph-name="sf305" unicode="&#x6be;" horiz-adv-x="884" arabic-form="initial" 
d="M-20 256q55 0 91 11t64 36q-12 52 -12 109q0 43 6 84t20.5 77.5t38.5 68.5t59 56q3 19 5.5 54.5t7 70.5t12.5 61q7 24 19 24h1q4 -1 17 -13t29 -27.5t31.5 -30t24.5 -20.5q46 -36 95.5 -67.5t97 -62t90 -63t74.5 -71.5t50.5 -87t18.5 -109q0 -59 -7.5 -119t-26.5 -108.5
t-50 -79.5t-78 -31q-39 0 -86 6.5t-96 15.5t-97 18t-88 14q-38 -24 -76 -38t-77 -22t-78.5 -10.5t-79.5 -2.5v256zM383 481q-15 39 -45 56q-22 12 -45 12q-7 0 -14 -1q-30 -6 -50 -33q-16 -22 -16 -58q0 -9 1 -19q2 -23 14.5 -45.5t31.5 -40t42 -28.5t46 -11q18 0 28.5 9
t16.5 22.5t7.5 30.5t1.5 32q0 43 -19 74zM723 295q-6 10 -22 27.5t-37.5 37.5t-46 40.5t-48 37t-43.5 27t-33 10.5q1 -5 1.5 -10t0.5 -11q0 -32 -11 -74.5t-26 -80.5q21 -5 45.5 -10.5t50.5 -10.5t51.5 -8.5t48.5 -3.5h35q5 1 9.5 1.5t9.5 1.5q8 2 14 5t6 10q0 3 -5 11z" />
    <glyph glyph-name="sf324" unicode="&#x6be;" horiz-adv-x="668" arabic-form="medial" 
d="M183 -12q-1 -1 -1 -7q0 -18 21.5 -51t53 -64.5t67 -55t64.5 -23.5h2q16 0 34 13t33.5 32t26 40t10.5 37q0 22 -23.5 40t-58 31t-73 19.5t-68.5 6.5q-32 0 -55.5 -4.5t-32.5 -13.5zM439 432q-2 29 -17.5 40.5t-35.5 11.5q-10 0 -18.5 -2.5t-16.5 -6.5q-63 -37 -105.5 -91
t-58.5 -126q40 10 84 19t81.5 26t62 46t24.5 79v4zM688 0h-58q-7 1 -13 1t-12 1q-12 1 -27 2.5t-41 3.5q5 -23 12 -54.5t9 -57.5v-11q0 -42 -10 -92.5t-31.5 -94t-56.5 -73t-85 -29.5q-30 0 -60 10.5t-58 28t-51.5 39t-40.5 44.5q-23 28 -36.5 63.5t-22.5 74t-15 77
t-13 71.5q-16 0 -27.5 -0.5t-21.5 -1.5t-21.5 -1.5t-27.5 -0.5v256q20 0 33 -0.5t24.5 -1.5t24 -1.5t31.5 -0.5q13 43 28.5 93t36 100.5t47 98t61 85.5t78.5 63.5t99 31.5h8q27 0 52.5 -16t42.5 -42q21 -52 21 -107v-14q-3 -62 -21.5 -118.5t-46 -104t-52.5 -76.5
q6 -1 13 -1h14q42 0 95 5.5t119 5.5v-256z" />
    <glyph glyph-name="sf324.001" unicode="&#x6be;" horiz-adv-x="942" arabic-form="final" 
d="M457 -91q-1 -1 -1 -7q0 -18 21.5 -47.5t53 -56t67.5 -44.5q29 -15 53 -15q6 0 11 1l2 1q16 2 34 18t33.5 37t26 44t10.5 39q0 22 -23.5 36t-58 22t-72.5 9h-7q-35 0 -62 -5q-32 -5 -55.5 -13t-32.5 -19zM713 393q-2 29 -17 38q-12 7 -26 7q-5 0 -10 -1q-10 -2 -18.5 -5.5
t-16.5 -9.5q-63 -46 -105.5 -107t-58.5 -135q40 16 84 32t81.5 39t62 55.5t24.5 82.5v4zM962 0l-58 -9q-7 0 -13 -1t-12 -1q-12 -1 -27 -1.5t-41 -3.5q5 -22 12 -52.5t9 -55.5v-11q0 -42 -10 -94t-31.5 -99t-56.5 -82t-85 -43q-13 -2 -25 -2q-18 0 -35 4q-30 5 -58 18
t-51.5 31t-40.5 38q-23 25 -36.5 58.5t-22.5 70.5t-15 74.5t-13 69.5q-16 -3 -27.5 -5t-21.5 -4.5t-33 -8.5q-11 -3 -24 -3q-17 0 -38 5q-38 7 -48 57q-2 12 -2 24q0 38 23 77q30 52 51 68t56 25t47.5 10.5t31.5 4.5q13 45 28.5 97.5t36 106.5t47 105.5t61 95t78.5 75.5
t99 47l8 1q7 1 13 1q20 0 40 -9q25 -12 42 -35q21 -49 21 -104v-13q-3 -63 -21.5 -122.5t-46 -111.5t-52.5 -85q6 0 12.5 1t14.5 3q42 6 95 20t119 24v-256z" />
    <glyph glyph-name="sf300.006" unicode="&#x649;" horiz-adv-x="446" 
d="M212 705q3 12 11 12q6 0 14 -5q23 -30 41.5 -70t32.5 -85q17 -57 29 -115q8 -41 8 -81q0 -17 -1 -34q-8 -95 -36.5 -158t-75.5 -100.5t-111.5 -53t-143.5 -15.5v256q30 0 75 2t88 10q22 4 43 10.5t37 16t26 22t10 29.5q0 15 -8.5 35t-21 40t-26 38.5t-23.5 30.5
q1 34 5 60.5t9 50.5t10 48.5t8 55.5zM269 -179q31 25 65 49q59 -68 106 -137q-42 -30 -75 -58t-62 -53q-13 17 -34 43t-51 60q-28 -22 -58 -47.5t-63 -54.5q-35 42 -61.5 73.5t-44.5 57.5q45 47 133 116q15 -17 36.5 -42.5t49.5 -59.5q28 28 59 53z" />
    <glyph glyph-name="sf277.024" unicode="&#x649;" horiz-adv-x="487" 
d="M508 0h-13q-33 0 -67 9q-41 10 -77 31.5t-64 53t-43 71.5q-11 -43 -35 -74t-58.5 -51.5t-78 -30t-92.5 -9.5v256q62 0 108 13t79.5 38t56 61.5t37.5 83.5q4 15 12 18q3 1 6 1q5 0 10 -3q7 -5 12.5 -16t5.5 -24q3 -35 9 -62t18 -47q13 -21 32.5 -33.5t42.5 -19t48.5 -8.5
t50.5 -2v-256zM248 -170q-27 -32 -48 -56.5t-36 -40.5q-35 24 -67 51.5t-62 59.5q19 25 44 56t59 70q32 -30 61 -54t55 -44q58 64 83 99q27 -25 60 -51.5t73 -55.5q-22 -33 -47.5 -66t-54.5 -66q-36 24 -65 48.5t-55 49.5z" />
    <glyph glyph-name="sf297.001" unicode="&#x649;" horiz-adv-x="1887" arabic-form="final" 
d="M1908 0q-51 0 -96.5 1t-82.5 1q-60 0 -90.5 -6.5t-30.5 -28.5q0 -16 17.5 -24t44.5 -12t58.5 -6t59.5 -7t48.5 -15t24.5 -29q1 -15 1 -29q0 -81 -34 -147q-40 -79 -107.5 -139t-152.5 -102t-169 -67q-94 -29 -194 -42q-91 -12 -181 -12q-11 0 -21 1q-101 1 -200 16.5
t-190 45.5q-154 50 -282.5 137t-214.5 212q-14 29 -34 82t-46 110h10q48 -45 97.5 -81t102 -66.5t108 -57t113.5 -51.5q192 -82 382 -110q104 -15 207 -15q85 0 169 10q142 17 272 62.5t259 117.5v4q-44 7 -88.5 11t-80 13.5t-58 30.5t-22.5 63q0 28 4 60t12.5 63.5t20 62
t26.5 56.5q43 75 124.5 109t213.5 34v-256z" />
    <glyph glyph-name="sf271.002.fina" unicode="&#x64a;" horiz-adv-x="1887" arabic-form="final" 
d="M1908 0q-51 0 -96.5 1t-82.5 1q-60 0 -90.5 -6.5t-30.5 -28.5q0 -16 17.5 -24t44.5 -12t58.5 -6t59.5 -7t48.5 -15t24.5 -29q1 -15 1 -29q0 -81 -34 -147q-40 -79 -107.5 -139t-152.5 -102t-169 -67q-94 -29 -194 -42q-91 -12 -181 -12q-11 0 -21 1q-101 1 -200 16.5
t-190 45.5q-154 50 -282.5 137t-214.5 212q-14 29 -34 82t-46 110h10q48 -45 97.5 -81t102 -66.5t108 -57t113.5 -51.5q192 -82 382 -110q104 -15 207 -15q85 0 169 10q142 17 272 62.5t259 117.5v4q-44 7 -88.5 11t-80 13.5t-58 30.5t-22.5 63q0 28 4 60t12.5 63.5t20 62
t26.5 56.5q43 75 124.5 109t213.5 34v-256zM1152 -985q-32 -38 -57 -66.5t-42 -48.5q-42 29 -79.5 61.5t-73.5 70.5q22 29 52 66t70 83q38 -35 72 -63.5t65 -52.5q69 76 99 117q32 -29 70.5 -60.5t86.5 -66.5q-26 -39 -56.5 -78t-64.5 -78q-42 29 -76.5 58t-65.5 58z" />
    <glyph glyph-name="sf300.007" unicode="&#x626;" horiz-adv-x="446" arabic-form="initial" 
d="M212 705q3 12 11 12q6 0 14 -5q23 -30 41.5 -70t32.5 -85q17 -57 29 -115q8 -41 8 -81q0 -17 -1 -34q-8 -95 -36.5 -158t-75.5 -100.5t-111.5 -53t-143.5 -15.5v256q30 0 75 2t88 10q22 4 43 10.5t37 16t26 22t10 29.5q0 15 -8.5 35t-21 40t-26 38.5t-23.5 30.5
q1 34 5 60.5t9 50.5t10 48.5t8 55.5zM345 1302q2 -8 4 -13.5t4 -9.5q1 -2 1.5 -4t1.5 -4q0 -5 -4 -5q-5 0 -14.5 5t-22.5 10.5t-28.5 10.5t-33.5 5q-24 0 -46 -6.5t-36 -20.5q2 -22 13 -41.5t28 -34.5t39.5 -23.5t48.5 -8.5q51 10 88.5 19.5t61.5 18.5q-5 -112 -107 -146
q-42 -14 -70.5 -22t-50.5 -14.5t-40 -12t-38 -15t-46.5 -24t-64.5 -37.5q-21 -12 -32 -12q-13 0 -13 19q0 10 1 11q29 29 54.5 50.5t50.5 36.5l35 30q-12 16 -23.5 40.5t-22.5 56.5q1 10 5 29.5t12 43.5t20 49t28 45.5t37.5 33.5t47.5 13q16 0 33 -6t32 -16t27.5 -23
t19.5 -28z" />
    <glyph glyph-name="sf277.025" unicode="&#x626;" horiz-adv-x="487" arabic-form="medial" 
d="M508 0h-13q-33 0 -67 9q-41 10 -77 31.5t-64 53t-43 71.5q-11 -43 -35 -74t-58.5 -51.5t-78 -30t-92.5 -9.5v256q62 0 108 13t79.5 38t56 61.5t37.5 83.5q4 15 12 18q3 1 6 1q5 0 10 -3q7 -5 12.5 -16t5.5 -24q3 -35 9 -62t18 -47q13 -21 32.5 -33.5t42.5 -19t48.5 -8.5
t50.5 -2v-256zM372 966q2 -8 4 -13.5t4 -9.5q1 -2 1.5 -4t1.5 -4q0 -5 -4 -5q-5 0 -14.5 5t-22.5 10.5t-28.5 10.5t-33.5 5q-24 0 -46 -6.5t-36 -20.5q2 -22 13 -41.5t28 -34.5t39.5 -23.5t48.5 -8.5q51 10 88.5 19.5t61.5 18.5q-5 -112 -107 -146q-42 -14 -70.5 -22
t-50.5 -14.5t-40 -12t-38 -15t-46.5 -24t-64.5 -37.5q-21 -12 -32 -12q-13 0 -13 19q0 10 1 11q29 29 54.5 50.5t50.5 36.5l35 30q-12 16 -23.5 40.5t-22.5 56.5q1 10 5 29.5t12 43.5t20 49t28 45.5t37.5 33.5t47.5 13q16 0 33 -6t32 -16t27.5 -23t19.5 -28z" />
    <glyph glyph-name="sf297.004" unicode="&#x626;" horiz-adv-x="1887" arabic-form="final" 
d="M1908 0q-51 0 -96.5 1t-82.5 1q-60 0 -90.5 -6.5t-30.5 -28.5q0 -16 17.5 -24t44.5 -12t58.5 -6t59.5 -7t48.5 -15t24.5 -29q1 -15 1 -29q0 -81 -34 -147q-40 -79 -107.5 -139t-152.5 -102t-169 -67q-94 -29 -194 -42q-91 -12 -181 -12q-11 0 -21 1q-101 1 -200 16.5
t-190 45.5q-154 50 -282.5 137t-214.5 212q-14 29 -34 82t-46 110h10q48 -45 97.5 -81t102 -66.5t108 -57t113.5 -51.5q192 -82 382 -110q104 -15 207 -15q85 0 169 10q142 17 272 62.5t259 117.5v4q-44 7 -88.5 11t-80 13.5t-58 30.5t-22.5 63q0 28 4 60t12.5 63.5t20 62
t26.5 56.5q43 75 124.5 109t213.5 34v-256zM781 575q2 -8 4 -13.5t4 -9.5q1 -2 1.5 -4t1.5 -4q0 -5 -4 -5q-5 0 -14.5 5t-22.5 10.5t-28.5 10.5t-33.5 5q-24 0 -46 -6.5t-36 -20.5q2 -22 13 -41.5t28 -34.5t39.5 -23.5t48.5 -8.5q51 10 88.5 19.5t61.5 18.5
q-5 -112 -107 -146q-42 -14 -70.5 -22t-50.5 -14.5t-40 -12t-38 -15t-46.5 -24t-64.5 -37.5q-21 -12 -32 -12q-13 0 -13 19q0 10 1 11q29 29 54.5 50.5t50.5 36.5l35 30q-12 16 -23.5 40.5t-22.5 56.5q1 10 5 29.5t12 43.5t20 49t28 45.5t37.5 33.5t47.5 13q16 0 33 -6
t32 -16t27.5 -23t19.5 -28z" />
    <glyph glyph-name="sf297.002" unicode="&#x6d2;" horiz-adv-x="1388" arabic-form="final" 
d="M412 -7q-24 -3 -62.5 -10t-77.5 -20.5t-69.5 -34t-37.5 -50.5q21 -11 39.5 -20t43 -16t58 -12.5t84.5 -9t122.5 -6t172.5 -2.5q34 -1 71 -1q74 0 163 1q133 1 307 3h6q8 0 10 -2v-2q0 -3 -10 -11q-18 -14 -44 -32t-54 -37t-54 -35.5t-43 -26.5q-37 -1 -98 -3.5
t-137.5 -5.5t-162.5 -4q-65 -2 -131 -2q-22 0 -44 1q-89 0 -174 4t-158 13q-18 3 -47 14t-52.5 27.5t-32.5 38.5q-4 6 -4 14q0 15 14 31q38 71 97.5 133t94.5 84.5t74 47.5t77 42.5t65 27t119 37.5q88 23 192.5 33t226.5 20q124 11 228.5 17t237.5 17v-250l-32 -5
q-62 -1 -94 -1q-97 1 -189.5 2.5t-189.5 2.5q-126 1 -249 2h-16q-116 0 -240 -14z" />
    <glyph glyph-name="sf297.003" unicode="&#x6d3;" horiz-adv-x="1388" arabic-form="final" 
d="M955 503q7 19 14.5 42t16.5 46t20.5 44t26.5 36q15 13 34 22.5t40 13.5q10 1 20 1q11 0 22 -2q21 -4 40 -17q0 -6 -4 -18t-9.5 -26t-11.5 -27t-11 -22q-6 -7 -11 -7q-4 0 -8 4q-15 12 -32 15q-7 1 -13 1q-11 0 -20 -2q-17 -5 -31.5 -14.5t-26.5 -22.5q4 -18 21.5 -30.5
t39 -19.5t43 -10t33.5 -3q33 2 66.5 13t63.5 23q4 2 7 2t3 -3q0 -2 -2 -5q-12 -21 -24.5 -40.5t-29.5 -44.5q-35 -12 -72.5 -23t-72.5 -25.5t-66 -35.5t-53 -52q-2 -4 -6 -4l-1 -1q-3 0 -3 3q0 1 1 3q4 29 16 53.5t27 51.5q1 1 1 3t-2 4q-18 13 -33 31q-13 15 -13 37v6z
M412 -7q-24 -3 -62.5 -10t-77.5 -20.5t-69.5 -34t-37.5 -50.5q21 -11 39.5 -20t43 -16t58 -12.5t84.5 -9t122.5 -6t172.5 -2.5q34 -1 71 -1q74 0 163 1q133 1 307 3h6q8 0 10 -2v-2q0 -3 -10 -11q-18 -14 -44 -32t-54 -37t-54 -35.5t-43 -26.5q-37 -1 -98 -3.5t-137.5 -5.5
t-162.5 -4q-65 -2 -131 -2q-22 0 -44 1q-89 0 -174 4t-158 13q-18 3 -47 14t-52.5 27.5t-32.5 38.5q-4 6 -4 14q0 15 14 31q38 71 97.5 133t94.5 84.5t74 47.5t77 42.5t65 27t119 37.5q88 23 192.5 33t226.5 20q124 11 228.5 17t237.5 17v-250l-32 -5q-62 -1 -94 -1
q-97 1 -189.5 2.5t-189.5 2.5q-126 1 -249 2h-16q-116 0 -240 -14z" />
    <glyph glyph-name="sf314" unicode="&#xfefb;" horiz-adv-x="988" arabic-form="isolated" 
d="M906 1016q0 -21 -6.5 -41.5t-14 -41t-14 -41t-6.5 -42.5v-6q1 -60 6.5 -113t11.5 -105.5t11.5 -108.5t7.5 -121v-38q0 -42 -9 -93t-27 -104.5t-43.5 -105t-59.5 -93.5t-75 -71t-89 -37q-22 -4 -63.5 -8t-91 -7.5t-101.5 -6t-95 -3.5h-73q-29 1 -32 4q2 17 4 25.5t16 14.5
q63 27 135 51.5t142.5 51.5t135.5 61t115.5 80t81 108t32.5 145v19q0 50 -4 102q-5 63 -13 127t-18 126.5t-18.5 119t-14 104.5t-5.5 83q0 49 6 100t15.5 91.5t21 66.5t22.5 26q6 0 11 -17t10 -43.5t10.5 -58t13.5 -60.5q5 -20 15 -36.5t20.5 -33t19 -33.5t9.5 -37zM647 144
l-24 2q-2 57 -14 117.5t-35 124.5q-23 59 -58 112t-74.5 100.5t-80 88.5t-74.5 77q-8 -19 -19.5 -47t-27.5 -68q-9 5 -11 53q-20 104 -142 234l27 196q37 -17 81.5 -51t98.5 -84q72 -68 138 -141.5t116.5 -157.5t80 -180.5t29.5 -211.5q0 -39 -3 -80t-8 -84z" />
    <glyph glyph-name="sf256.004" unicode="&#xfdfa;" horiz-adv-x="1991" arabic-form="isolated" 
d="M1035 1228q0 -5 0.5 -13l1 -16t1 -15t0.5 -9q0 -10 2.5 -16.5t12.5 -6.5q17 0 17 15q0 3 0.5 10t0.5 14q0 8 0.5 15.5t0.5 11.5q0 10 4 14.5t6 -9.5q1 -3 2.5 -10t2.5 -14.5t2 -14t1 -9.5q3 -6 7.5 -12t12.5 -6q7 0 7 8q0 16 -3 32t1 34q-4 5 0.5 6t6.5 -5q3 -15 6 -31
t3 -34q0 -14 -3 -25.5t-21 -11.5q-19 0 -25 18q-9 -10 -14.5 -16.5t-16.5 -6.5q-10 0 -18.5 7.5t-8.5 18.5v48q0 -8 3 -1t8 30zM606 1172q0 -9 2.5 -15t13.5 -6q15 0 18 14q0 3 0.5 9.5t1 14.5t1 15.5t0.5 11.5q-4 11 1 15t9 -10q0 -3 1 -10t2 -14.5t2 -14.5t1 -10
q4 -5 7.5 -10t11.5 -5q5 0 5 5q0 18 -0.5 34t-0.5 32q0 6 3.5 7t7.5 -4q4 -18 6.5 -34t2.5 -32q0 -13 -5 -25.5t-23 -12.5q-14 0 -21 19q-8 -11 -15 -17.5t-20 -6.5q-9 0 -16.5 8t-7.5 18v49q0 1 1.5 6l3 10t3.5 9t4 4v-54zM554 874q-4 -5 -7.5 -4t0.5 7q6 14 8.5 29t2.5 30
q0 16 -3 31t-11 29q0 3 -0.5 9.5t0 12t3.5 7t10 -4.5q19 -35 18 -73t-21 -73zM336 870q0 -1 2 -1q19 -6 39 -8t42 2q8 0 19 4t15 12q0 13 1.5 21.5t1.5 19.5v6q0 5 -1.5 11t-8.5 3q-27 -18 -54 -34t-54 -34zM950 1240q-1 -40 2 -86t6.5 -93.5t7 -94t3.5 -87.5
q0 -40 -5 -72.5t-18 -52.5q-9 103 -14 200t-14 197q3 7 5.5 19.5t5.5 25.5t8 25t13 19zM1466 668q72 -14 144 -9.5t144 18.5q-13 37 -34.5 56.5t-47 25.5t-54.5 0t-56.5 -19.5t-52.5 -32.5t-43 -39zM1230 436q4 -6 11 -15t17.5 -15.5t24 -8t31.5 7.5q-4 13 -14 24
t-22.5 16.5t-25.5 4t-22 -13.5zM314 316q9 -8 21.5 -14.5t25.5 -12t25 -10l20 -7.5q-5 11 -13.5 25t-20 23t-26 10t-32.5 -14zM1178 130q-10 1 -19 1.5t-19 0.5q-29 0 -55.5 1.5t-49.5 15.5q28 4 56.5 8t52.5 18q19 7 42.5 19.5t46.5 28.5t43.5 35t34 40t17.5 42.5t-6 42.5
q-6 -10 -11 -20t-11 -18t-15 -13t-23 -5q-24 0 -45 15.5t-25 43.5q7 67 34.5 101t58 35.5t54.5 -29t24 -91.5q1 -33 -6 -61t-19.5 -54t-30 -51t-38.5 -52q-18 -20 -42 -35t-49 -19zM50 125q1 0 15 5.5t36 15t50 21.5t56 24.5t53.5 25t43.5 22.5q0 2 -6.5 6.5t-15 11t-15 15
t-6.5 18.5q0 14 12.5 33t30.5 36t36.5 29t30.5 12q20 -2 35 -21t32 -41t38.5 -40t54.5 -18q6 0 15 1.5t18 7.5t14.5 17t3.5 30q-6 58 -9.5 98t-6 66t-3 40.5t-0.5 21.5v13q0 29 7 58.5t12 59.5q-36 -15 -61.5 -5t-40.5 34.5t-21 57.5t-3 65q-7 -18 -20 -29t-29.5 -16
t-34.5 -4.5t-34 4.5q-8 0 -17.5 2.5t-18 7.5t-14.5 12t-6 17q12 27 32 47t44 36t51 29.5l53 26.5q0 5 2 14t3 13q3 4 7 11l8 14t6.5 12.5t2.5 7.5h5q2 -19 2.5 -41.5t0.5 -45.5q0 -22 -1 -44t-2 -40q0 -17 1.5 -37.5t8.5 -38t20 -29.5t36 -12q27 0 46.5 20t23.5 46
q2 28 1 55.5t-2.5 55.5t-1 55.5t5.5 55.5q2 7 4.5 17t4.5 20t4.5 17t4.5 7q0 1 1 0q9 -57 14 -113.5t14 -113.5q1 -21 6.5 -41t16 -35.5t26.5 -25t39 -9.5h19q12 0 14 8q0 19 -5.5 47t-12 58t-12 58.5t-5.5 47.5q1 12 3 28.5t4.5 33t5.5 32t6 25.5q0 8 4 9.5t7 -8.5l36 -259
q12 -71 -29 -136q-5 -8 -18 -8t-14 -9q-10 -28 -16.5 -53t-6.5 -55q0 -67 40.5 -96.5t103.5 -29.5q54 0 110.5 21.5t101.5 55.5q-45 18 -88 27t-85 27q0 8 0.5 22t13.5 18q22 4 43 7.5t37.5 6.5t28 7t14.5 10q0 22 0.5 31t0.5 16v17q0 9 -1 23t-2.5 38t-4.5 59.5t-7 88.5
q0 4 -1.5 14t-1.5 15q0 35 7 69t15 69q2 3 2.5 5.5t4.5 3.5h3l40 -353q5 -39 31.5 -56.5t61.5 -17.5q41 0 67 14.5t53 43.5q0 1 2 2t2 -2q-3 -19 6 -31.5t23.5 -20.5t31 -12.5t29.5 -7.5q31 34 66.5 64.5t73 52t74.5 31.5t69.5 3t60 -34.5t45.5 -80.5q0 -1 -0.5 -3.5
t-3.5 -10t-10 -22t-20 -39.5q-2 -6 -8.5 -11.5t-14.5 -9.5t-16 -6.5t-14 -2.5q-85 -23 -168.5 -24.5t-171.5 14.5h-5q-8 -11 -18 -23t-21 -22q-3 -3 -5.5 -1.5t1.5 5.5q3 14 11.5 25.5t16.5 22.5q-23 13 -41 28t-26 40q-14 -32 -45.5 -50t-65.5 -19t-61.5 17t-33.5 57
q-6 -12 -11 -20t-9.5 -13.5t-9 -10.5t-10.5 -12q4 -2 11 -4.5t14.5 -4.5t14 -3.5t9.5 -1.5q15 -6 19.5 -15t4.5 -25q0 -41 -28.5 -74t-70 -56t-87 -35.5t-79.5 -13.5q-38 -1 -67 10.5t-49 33t-30.5 51t-10.5 65.5q0 42 12.5 79.5t30.5 75.5q-12 0 -25.5 1t-26 5.5
t-22.5 12.5t-14 22q-2 3 -4.5 10t-4.5 15t-3.5 15t-1.5 10q-8 -24 -18 -47t-38 -47q11 -88 18.5 -172t22.5 -169q7 -37 29 -56t49.5 -21.5t55.5 10.5t47 40q3 6 7 6q3 0 3 -8t-1 -13t-1 -11q0 -14 16.5 -19t30.5 -5h16q18 0 30.5 2.5t22 8t18 15t20.5 24.5q8 6 8 -2
q0 -14 -5 -19.5t-3.5 -8.5t16 -7t54.5 -15q0 11 -3 21.5t-3 18.5q5 9 11 23t10 17q0 2 2.5 8.5t6 11.5t6.5 6t4 -8l11 -44t5 -42q0 -23 -9 -43.5t-17 -43.5q-4 -8 -10.5 -8.5t-16.5 -0.5q-26 3 -56 8.5t-54 21.5q-19 -14 -39.5 -20.5t-41 -5.5t-38.5 10.5t-32 28.5
q-14 -18 -35.5 -27.5t-44.5 -10.5t-44.5 7.5t-35.5 25.5q-8 14 -11.5 28.5t-7.5 32.5q0 4 -0.5 7t-4.5 -2q-8 -21 -15 -38t-17 -29t-24.5 -18.5t-36.5 -6.5q-27 0 -44.5 11t-35.5 29q-3 0 -6.5 -6.5t-9 -14t-12 -13.5t-15.5 -6q-16 0 -30.5 6.5t-28.5 14.5
q-18 -29 -41.5 -51t-56.5 -30q-43 -10 -86 -16.5t-94 -6.5zM338 -92q-28 42 -55 90.5t-51 96.5q-4 7 -2.5 10.5t5.5 4.5t9 -1t7 -6q14 -23 29.5 -42.5t29.5 -42.5q5 -8 13 -20t18 -23t21.5 -19t23.5 -8q12 1 22.5 8.5t22.5 25t28 46t39 72.5q11 23 29 41t41 18q16 0 27 -6.5
t19 -17t15 -23t16 -24.5q24 -32 55.5 -51.5t67 -30.5t73.5 -14.5t74 -3.5q48 0 102.5 9.5t109.5 27.5t107 44.5t94 60.5q6 6 7 3.5t1 -8.5q-4 -13 -9 -21t-5 -19q0 -9 8.5 -15.5t20 -10.5t22.5 -5.5t16 -1.5q18 0 34.5 2.5t27.5 10.5t16.5 23.5t2.5 41.5l-27 294q0 7 1 14.5
t4.5 22t10.5 39t19 65.5l40 -366q2 -21 9 -43t19 -40t30.5 -30t42.5 -12q-14 23 -23.5 46t-9.5 47q-2 47 16 78.5t48 48t68.5 18.5t76.5 -9t72 -34.5t56 -58.5q-36 6 -76.5 13t-79.5 8.5t-75 -6t-63 -29.5q0 -11 5.5 -25t10.5 -22q26 -42 58 -58.5t69 -14t78.5 19.5t87.5 42
q1 2 2 1t1 -3v-1q-26 -54 -64.5 -82t-95.5 -46q-36 -10 -79 -16.5t-82.5 -1t-71 27t-44.5 67.5q-8 -23 -16 -43.5t-20.5 -37t-31 -26t-47.5 -9.5q-32 0 -59.5 18t-43.5 48q-40 -32 -95.5 -58t-118.5 -43t-129.5 -23t-128.5 1t-115.5 29t-90.5 62q-14 17 -21.5 32.5
t-12.5 27.5t-9.5 19t-12.5 7q-10 0 -19.5 -8.5t-15.5 -16.5q-21 -43 -34 -69t-21 -40.5t-12 -20.5t-7 -9q-10 -14 -21.5 -24.5t-25 -14.5t-28 0.5t-30.5 22.5zM1163 -160q-11 10 -1 20q3 7 14.5 25t31.5 42l78 -63q2 -2 10 8t17 22.5t17.5 23t11.5 10.5h5q20 -19 38 -37
t37 -36q-2 -5 -9 -13.5t-15 -18t-16 -18.5t-12 -14q-3 -8 -15 0q-18 14 -34.5 30t-34.5 31q-13 -15 -25.5 -33t-28.5 -31q-6 -6 -14 3q-16 11 -28.5 23.5t-26.5 25.5z" />
    <glyph glyph-name="sf270.009" unicode="&#xfdf2;" horiz-adv-x="1492" arabic-form="isolated" 
d="M462 623l7 24q10 36 22.5 62.5t36.5 60.5l14 20q6 9 11 15q10 -7 14 -20.5t4 -44.5q0 -37 -5 -105q-3 -65 -3 -70l-3 -87l-2 -71v-29q0 -117 26 -160q32 -50 108 -50q72 0 111 45q21 26 30 60t9 97q0 103 -20 244l-9 65l-6 51q-1 13 -1 14q0 32 53 107q35 51 44 51
q12 0 17.5 -23t9.5 -92l5 -66l6 -67l5 -80q14 -166 58 -270q27 -64 59 -92t76 -28q47 0 69.5 23t22.5 74q0 37 -6 67.5t-26 101.5l-20 69q-28 97 -36 133t-8 79q0 81 33 135q13 22 28 37t24 15q5 0 10.5 -5.5t5.5 -11.5l-1 -34l1 -15l2 -27q6 -48 35 -156l21 -76
q37 -140 37 -275q0 -161 -49 -246t-143 -85q-93 0 -159 54q-27 23 -44.5 47t-35.5 66l-6 -2q-13 -49 -29 -77.5t-44 -52.5q-58 -51 -156 -51q-53 0 -97 23t-68 63q-45 76 -45 226q-64 -65 -102.5 -86.5t-90.5 -21.5q-65 0 -117.5 18.5t-52.5 41.5v3q2 29 45.5 112.5
t77.5 124.5q34 39 103.5 81t143.5 67zM241 370q61 -24 109 -24q29 0 59 7t48 20l2 150q-59 -18 -111.5 -53.5t-92.5 -83.5q-5 -5 -14 -16zM762 1501l47 70q28 -36 47 -90.5t19 -91.5q0 -36 -14 -68q-6 -15 -14.5 -27.5t-12.5 -12.5q-5 0 -5 14q0 6 1 13q2 11 2 19
q0 39 -20 89t-50 85zM833 1024q-45 -40 -67.5 -52t-53.5 -12q-85 0 -85 95q0 60 34 126q27 53 44 53q13 0 13 -16q0 -11 -9 -35q-17 -42 -17 -71q0 -21 11.5 -33.5t31.5 -12.5q28 0 51 27t34 71l6 27q9 36 37 36l7 -1q2 -6 2 -8q0 -8 -3 -35q-1 -11 -1 -20q0 -23 20 -38
t49 -15q12 0 19 5.5t7 14.5q0 3 -1 8l-2 13q-2 13 -2 24q0 43 14.5 69.5t50.5 51.5l-1 -27l-1 -37l-1 -29l-4 -35q-5 -71 -30 -112q-18 -28 -34 -39t-41 -11q-21 0 -59 12z" />
    <glyph glyph-name="mhmd" unicode="&#xfdf4;" horiz-adv-x="2492" arabic-form="isolated" 
d="M1343 -195q-114 64 -198 131t-141 137.5t-89 145t-43 154.5q-18 -54 -49.5 -98t-70.5 -82q-35 -41 -79 -76.5t-92.5 -63.5t-98.5 -47t-96 -26q-22 -4 -44 -4q-21 0 -41 4q-41 8 -71.5 36.5t-48 78.5t-17.5 126q0 54 9 105t22 88h4q10 0 11 -9q1 -12 1 -22v-72
q0 -24 5 -46t18.5 -39t36.5 -28t59 -12h10q81 0 143 32q84 35 159 80q38 23 69 45.5t56 45.5q46 42 46 61v3q-18 103 -44.5 180.5t-51.5 136t-42.5 100.5t-17.5 74q2 43 5.5 84.5t7.5 81.5q1 4 10 4q5 0 18 -17.5t29 -45.5t33 -62t31 -67q20 -54 37.5 -110t33.5 -116
q31 -122 75 -237q22 -58 51 -110.5t64 -103.5q72 -97 197 -159q7 -3 9 -3t2 1l2 8q12 45 28.5 90t52.5 76q40 32 80.5 63.5t82.5 59.5t87 51.5t95 40.5l-654 -4q-13 0 -24 0.5t-19.5 3.5t-13 10.5t-4.5 22.5q0 26 9 51t19 49q15 35 28 72t38 67q65 71 141.5 126t160 99.5
t171 82t174.5 73.5q10 5 10 8q0 1 -2 2q-6 3 -14 3t-27 13q-13 9 -28.5 23t-29 32.5t-21.5 41.5q-6 17 -6 35q0 7 1 14q0 3 2 13.5t6 24t8.5 29.5t9.5 31q4 15 9 30.5t10 27.5t10 19.5t9 7.5q9 0 43.5 -9.5t80 -25t96.5 -35.5t93.5 -41t71 -42t29.5 -38q0 -18 -9 -47
t-22.5 -60t-29.5 -59t-29 -43q-40 -23 -93 -46t-110.5 -46t-114 -45.5t-102.5 -44.5q-54 -25 -103 -48.5t-94.5 -50t-89.5 -57.5t-88 -71l1106 12q16 0 24.5 -4t8.5 -18q0 -18 -20 -53t-64 -107q-17 -2 -44.5 -8.5t-66.5 -17.5q-78 -21 -173.5 -54t-201.5 -75
q-104 -42 -189 -84q-42 -21 -78.5 -42t-64 -41t-43.5 -38t-18 -33q18 -26 52.5 -54.5t76 -55t84.5 -48.5t78 -35q-1 -4 -6 -32.5t-12 -62.5t-16 -63.5t-19 -36.5q-15 -2 -30 -2q-55 0 -106 24q-34 15 -65 30.5t-60 31.5z" />
    <glyph glyph-name="sf277.047" unicode="&#x6c2;" horiz-adv-x="890" 
d="M911 0q-75 0 -135 14t-106 56.5t-79.5 121.5t-55.5 208q-7 -3 -10.5 -9.5t-5.5 -15t-3 -16.5t-3 -14q-21 -40 -57.5 -64t-80.5 -36.5t-91.5 -16.5t-90.5 -4q-41 0 -69 12t-46 32.5t-26 48t-8 59.5q0 22 2.5 43.5t5.5 39.5q10 69 55 127t107.5 106.5t133 88t130.5 72.5
q-2 22 -4 40.5t-2 41.5q0 35 7.5 57.5t28.5 47.5q3 4 7 4q8 0 14 -9.5t8 -17.5q11 -73 17 -126.5t12 -102t14 -100.5t23 -122q12 -81 34.5 -139.5t59 -96.5t89.5 -56t125 -18v-256zM521 529q-8 45 -15.5 88.5t-19.5 94.5h-3q-12 0 -39.5 -10.5t-61.5 -28t-70.5 -40
t-67 -46.5t-50 -48t-19.5 -44q0 -23 22 -31.5t59 -8.5q78 0 141.5 18t123.5 56zM539 1597q2 -8 4 -13.5t4 -9.5q1 -2 1.5 -4t1.5 -4q0 -5 -4 -5q-5 0 -14.5 5t-22.5 10.5t-28.5 10.5t-33.5 5q-24 0 -46 -6.5t-36 -20.5q2 -22 13 -41.5t28 -34.5t39.5 -23.5t48.5 -8.5
q51 10 88.5 19.5t61.5 18.5q-5 -112 -107 -146q-42 -14 -70.5 -22t-50.5 -14.5t-40 -12t-38 -15t-46.5 -24t-64.5 -37.5q-21 -12 -32 -12q-13 0 -13 19q0 10 1 11q29 29 54.5 50.5t50.5 36.5l35 30q-12 16 -23.5 40.5t-22.5 56.5q1 10 5 29.5t12 43.5t20 49t28 45.5
t37.5 33.5t47.5 13q16 0 33 -6t32 -16t27.5 -23t19.5 -28z" />
    <glyph glyph-name="afii57470.init" unicode="&#x647;" horiz-adv-x="884" arabic-form="initial" 
d="M-20 256q55 0 91 11t64 36q-12 52 -12 109q0 43 6 84t20.5 77.5t38.5 68.5t59 56q3 19 5.5 54.5t7 70.5t12.5 61q7 24 19 24h1q4 -1 17 -13t29 -27.5t31.5 -30t24.5 -20.5q46 -36 95.5 -67.5t97 -62t90 -63t74.5 -71.5t50.5 -87t18.5 -109q0 -59 -7.5 -119t-26.5 -108.5
t-50 -79.5t-78 -31q-39 0 -86 6.5t-96 15.5t-97 18t-88 14q-38 -24 -76 -38t-77 -22t-78.5 -10.5t-79.5 -2.5v256zM383 481q-15 39 -45 56q-22 12 -45 12q-7 0 -14 -1q-30 -6 -50 -33q-16 -22 -16 -58q0 -9 1 -19q2 -23 14.5 -45.5t31.5 -40t42 -28.5t46 -11q18 0 28.5 9
t16.5 22.5t7.5 30.5t1.5 32q0 43 -19 74zM723 295q-6 10 -22 27.5t-37.5 37.5t-46 40.5t-48 37t-43.5 27t-33 10.5q1 -5 1.5 -10t0.5 -11q0 -32 -11 -74.5t-26 -80.5q21 -5 45.5 -10.5t50.5 -10.5t51.5 -8.5t48.5 -3.5h35q5 1 9.5 1.5t9.5 1.5q8 2 14 5t6 10q0 3 -5 11z" />
    <glyph glyph-name="afii57470.medi" unicode="&#x647;" horiz-adv-x="668" arabic-form="medial" 
d="M183 -12q-1 -1 -1 -7q0 -18 21.5 -51t53 -64.5t67 -55t64.5 -23.5h2q16 0 34 13t33.5 32t26 40t10.5 37q0 22 -23.5 40t-58 31t-73 19.5t-68.5 6.5q-32 0 -55.5 -4.5t-32.5 -13.5zM439 432q-2 29 -17.5 40.5t-35.5 11.5q-10 0 -18.5 -2.5t-16.5 -6.5q-63 -37 -105.5 -91
t-58.5 -126q40 10 84 19t81.5 26t62 46t24.5 79v4zM688 0h-58q-7 1 -13 1t-12 1q-12 1 -27 2.5t-41 3.5q5 -23 12 -54.5t9 -57.5v-11q0 -42 -10 -92.5t-31.5 -94t-56.5 -73t-85 -29.5q-30 0 -60 10.5t-58 28t-51.5 39t-40.5 44.5q-23 28 -36.5 63.5t-22.5 74t-15 77
t-13 71.5q-16 0 -27.5 -0.5t-21.5 -1.5t-21.5 -1.5t-27.5 -0.5v256q20 0 33 -0.5t24.5 -1.5t24 -1.5t31.5 -0.5q13 43 28.5 93t36 100.5t47 98t61 85.5t78.5 63.5t99 31.5h8q27 0 52.5 -16t42.5 -42q21 -52 21 -107v-14q-3 -62 -21.5 -118.5t-46 -104t-52.5 -76.5
q6 -1 13 -1h14q42 0 95 5.5t119 5.5v-256z" />
    <glyph glyph-name="afii57470.fina" unicode="&#x647;" horiz-adv-x="890" arabic-form="final" 
d="M911 0q-75 0 -135 14t-106 56.5t-79.5 121.5t-55.5 208q-7 -3 -10.5 -9.5t-5.5 -15t-3 -16.5t-3 -14q-21 -40 -57.5 -64t-80.5 -36.5t-91.5 -16.5t-90.5 -4q-41 0 -69 12t-46 32.5t-26 48t-8 59.5q0 22 2.5 43.5t5.5 39.5q10 69 55 127t107.5 106.5t133 88t130.5 72.5
q-2 22 -4 40.5t-2 41.5q0 35 7.5 57.5t28.5 47.5q3 4 7 4q8 0 14 -9.5t8 -17.5q11 -73 17 -126.5t12 -102t14 -100.5t23 -122q12 -81 34.5 -139.5t59 -96.5t89.5 -56t125 -18v-256zM521 529q-8 45 -15.5 88.5t-19.5 94.5h-3q-12 0 -39.5 -10.5t-61.5 -28t-70.5 -40
t-67 -46.5t-50 -48t-19.5 -44q0 -23 22 -31.5t59 -8.5q78 0 141.5 18t123.5 56z" />
    <glyph glyph-name="uniFE94" unicode="&#x629;" horiz-adv-x="890" arabic-form="final" 
d="M911 0q-75 0 -135 14t-106 56.5t-79.5 121.5t-55.5 208q-7 -3 -10.5 -9.5t-5.5 -15t-3 -16.5t-3 -14q-21 -40 -57.5 -64t-80.5 -36.5t-91.5 -16.5t-90.5 -4q-41 0 -69 12t-46 32.5t-26 48t-8 59.5q0 22 2.5 43.5t5.5 39.5q10 69 55 127t107.5 106.5t133 88t130.5 72.5
q-2 22 -4 40.5t-2 41.5q0 35 7.5 57.5t28.5 47.5q3 4 7 4q8 0 14 -9.5t8 -17.5q11 -73 17 -126.5t12 -102t14 -100.5t23 -122q12 -81 34.5 -139.5t59 -96.5t89.5 -56t125 -18v-256zM521 529q-8 45 -15.5 88.5t-19.5 94.5h-3q-12 0 -39.5 -10.5t-61.5 -28t-70.5 -40
t-67 -46.5t-50 -48t-19.5 -44q0 -23 22 -31.5t59 -8.5q78 0 141.5 18t123.5 56zM418 1262q-32 -38 -57 -66.5t-42 -48.5q-42 29 -79.5 61.5t-73.5 70.5q22 29 52 66t70 83q38 -35 72 -63.5t65 -52.5q69 76 99 117q32 -29 70.5 -60.5t86.5 -66.5q-26 -39 -56.5 -78t-64.5 -78
q-42 29 -76.5 58t-65.5 58z" />
    <glyph glyph-name=".notdef" horiz-adv-x="257" 
 />
    <glyph glyph-name=".null" 
 />
    <glyph glyph-name="nonmarkingreturn" horiz-adv-x="257" 
 />
    <glyph glyph-name="space" unicode=" " horiz-adv-x="585" 
 />
    <glyph glyph-name="sf268.003" unicode="&#x622;" horiz-adv-x="412" 
d="M181 1439q9 -37 16 -76.5t16.5 -78.5t25 -74.5t42.5 -66.5q6 -13 6 -22t-4 -16.5t-12 -16.5t-18 -20.5t-23 -29.5q7 -40 13 -94.5t11.5 -118.5t8.5 -134.5t3 -143.5q0 -80 -6 -156.5t-19 -141t-32.5 -113.5t-46.5 -73h-1q-6 0 -15 14q6 33 10.5 74t4.5 94q0 160 -12 296
t-27 252.5t-27.5 216t-12.5 187.5q0 30 3.5 76.5t12.5 92.5t22.5 82.5t33.5 44.5h2q13 0 25 -54zM542 1772q-20 -44 -47 -83t-63 -67.5t-80 -43.5q-36 -12 -77 -12q-11 0 -23 1q-27 2 -54.5 7.5t-56.5 15.5q-10 3 -18.5 5t-16.5 3h-7q-65 0 -189 -90q-2 -2 -7 -2q-7 1 -13 6
q-5 4 -5 10v2q1 12 4.5 22t12.5 23.5t24.5 32.5t41.5 48q35 40 83 57q36 13 84 13q14 0 29 -1q12 -1 32.5 -5t43 -9t43 -9t32.5 -5h13q35 0 64 13q34 15 61 34.5t45 35.5q17 15 26 15h1l6 -1q12 -5 12 -13z" />
    <glyph glyph-name="sf268" unicode="&#x627;" horiz-adv-x="373" 
d="M176 1464q9 -38 15.5 -78t16 -79.5t24.5 -76t41 -67.5q6 -14 6 -23t-4 -16.5t-11.5 -16.5l-17.5 -21t-22 -30q6 -41 12 -96.5t11.5 -120.5t8.5 -137t3 -146q0 -82 -6 -159.5t-18.5 -143.5t-31.5 -115.5t-45 -74.5h-1q-6 0 -15 14q6 34 10.5 75.5t4.5 95.5
q0 163 -12 301.5t-26.5 257t-26.5 220t-12 191.5q0 30 3.5 77.5t12 94.5t21.5 84t33 45h2q12 0 24 -55z" />
    <glyph glyph-name="sf270" unicode="&#x628;" horiz-adv-x="1487" 
d="M1300 794q5 5 7 5q1 0 2 -1q36 -41 60 -86t38 -88.5t20 -84t6 -71.5v-20q-1 -44 -5 -90t-12.5 -86t-21 -70t-31.5 -41q-74 -44 -160.5 -75.5t-178.5 -52t-187.5 -30t-186.5 -9.5q-63 0 -132 4t-135.5 16t-127 35.5t-106 62.5t-72.5 96.5t-27 137.5v14q0 71 16 132
t36.5 106t40.5 70.5t28 25.5q13 0 18 -33q-17 -33 -30 -66q-11 -28 -21 -60q-9 -30 -9 -54v-5q0 -56 28.5 -99t91.5 -72.5t164.5 -45t247.5 -15.5q135 0 239.5 11.5t185.5 34t142.5 54.5t111.5 73q-3 29 -13.5 54.5t-25 46.5t-30.5 38t-31 30zM867 -160q-23 -34 -50.5 -67
t-58.5 -69q-38 18 -77.5 43t-80.5 57q39 52 66 85.5t41 51.5q41 -28 80 -53t80 -48z" />
    <glyph glyph-name="sf270.001" unicode="&#x67e;" horiz-adv-x="1487" 
d="M776 -168q35 27 74 53q67 -73 120 -147q-48 -32 -85.5 -62t-69.5 -57q-15 19 -39 46.5t-58 63.5q-31 -23 -65 -50t-71 -59q-40 45 -70 79t-50 61q51 51 150 124q17 -18 41.5 -45t56.5 -63q31 29 66 56zM752 -535.5q-36 -31.5 -65 -61.5q-20 21 -49 56.5t-71 89.5
q33 35 69 66t78 57q32 -32 61.5 -67t57.5 -77q-45 -32 -81 -63.5zM1300 794q5 5 7 5q1 0 2 -1q36 -41 60 -86t38 -88.5t20 -84t6 -71.5v-20q-1 -44 -5 -90t-12.5 -86t-21 -70t-31.5 -41q-74 -44 -160.5 -75.5t-178.5 -52t-187.5 -30t-186.5 -9.5q-63 0 -132 4t-135.5 16
t-127 35.5t-106 62.5t-72.5 96.5t-27 137.5v14q0 71 16 132t36.5 106t40.5 70.5t28 25.5q13 0 18 -33q-17 -33 -30 -66q-11 -28 -21 -60q-9 -30 -9 -54v-5q0 -56 28.5 -99t91.5 -72.5t164.5 -45t247.5 -15.5q135 0 239.5 11.5t185.5 34t142.5 54.5t111.5 73
q-3 29 -13.5 54.5t-25 46.5t-30.5 38t-31 30z" />
    <glyph glyph-name="sf270.002" unicode="&#x62a;" horiz-adv-x="1487" 
d="M714 635q-32 -38 -57 -66.5t-42 -48.5q-42 29 -79.5 61.5t-73.5 70.5q22 29 52 66t70 83q38 -35 72 -63.5t65 -52.5q69 76 99 117q32 -29 70.5 -60.5t86.5 -66.5q-26 -39 -56.5 -78t-64.5 -78q-42 29 -76.5 58t-65.5 58zM1300 794q5 5 7 5q1 0 2 -1q36 -41 60 -86
t38 -88.5t20 -84t6 -71.5v-20q-1 -44 -5 -90t-12.5 -86t-21 -70t-31.5 -41q-74 -44 -160.5 -75.5t-178.5 -52t-187.5 -30t-186.5 -9.5q-63 0 -132 4t-135.5 16t-127 35.5t-106 62.5t-72.5 96.5t-27 137.5v14q0 71 16 132t36.5 106t40.5 70.5t28 25.5q13 0 18 -33
q-17 -33 -30 -66q-11 -28 -21 -60q-9 -30 -9 -54v-5q0 -56 28.5 -99t91.5 -72.5t164.5 -45t247.5 -15.5q135 0 239.5 11.5t185.5 34t142.5 54.5t111.5 73q-3 29 -13.5 54.5t-25 46.5t-30.5 38t-31 30z" />
    <glyph glyph-name="sf270.003" unicode="&#x679;" horiz-adv-x="1487" 
d="M1300 794q5 5 7 5q1 0 2 -1q36 -41 60 -86t38 -88.5t20 -84t6 -71.5v-20q-1 -44 -5 -90t-12.5 -86t-21 -70t-31.5 -41q-74 -44 -160.5 -75.5t-178.5 -52t-187.5 -30t-186.5 -9.5q-63 0 -132 4t-135.5 16t-127 35.5t-106 62.5t-72.5 96.5t-27 137.5v14q0 71 16 132
t36.5 106t40.5 70.5t28 25.5q13 0 18 -33q-17 -33 -30 -66q-11 -28 -21 -60q-9 -30 -9 -54v-5q0 -56 28.5 -99t91.5 -72.5t164.5 -45t247.5 -15.5q135 0 239.5 11.5t185.5 34t142.5 54.5t111.5 73q-3 29 -13.5 54.5t-25 46.5t-30.5 38t-31 30zM690 1028q4 -12 4 -14
q0 -8 -3 -16.5t-6.5 -16.5t-6.5 -16.5t-3 -16.5v-1q0 -2 1 -14t2 -28.5t3 -35t3.5 -34.5t2.5 -26l1 -11q13 17 32 30.5t42 24t47 16t46 5.5q17 0 32.5 -3.5t27.5 -12t19 -22t7 -33.5q0 -18 -6 -37t-15.5 -35.5t-22 -29.5t-25.5 -19q-10 -6 -28.5 -10.5t-41 -8.5t-48 -6
t-50.5 -2q-13 0 -26 1t-24 2q-16 2 -29 6.5l-26 9t-26 10t-28 10.5q-5 1 -8 5.5t-3 9.5t2 8.5t5.5 5.5t7 3t5.5 1q13 0 26 -2t28 -2q7 0 12.5 1t8.5 6l21 40q3 5 4 11.5t1 15.5q0 14 -2 30t-3 29q-2 11 -3.5 25t-3.5 29.5t-3.5 32t-2.5 32.5t-2 30t-1 25q0 5 0.5 14t1 19.5
t2 21.5t3 20t4.5 14.5t7 5.5q1 0 2 -1q4 -11 7.5 -23t8 -25t9 -25t11.5 -23zM874 752l6 3t8 4.5t6.5 5.5t2.5 6q0 2 -1 4q-9 12 -25 16.5t-37 4.5q-19 0 -40 -3.5t-40 -9t-34.5 -13t-23.5 -15.5q-2 -2 -5.5 -4.5t-7 -5.5t-6 -5.5t-2.5 -3.5q0 -2 3 -3t7.5 -1.5t10.5 -1
t12 -0.5q14 0 29.5 1t32 3l33 4t30.5 4.5t25 5t16 4.5z" />
    <glyph glyph-name="sf270.004" unicode="&#x62b;" horiz-adv-x="1487" 
d="M723 614q-32 -36 -56.5 -63t-41.5 -45q-99 73 -150 124q20 27 50 61t70 79q37 -32 71 -59t65 -50q34 36 58 63.5t39 46.5q32 -27 69.5 -57t85.5 -62q-53 -74 -120 -147q-39 26 -74 53t-66 56zM846 862q-28 -42 -57.5 -77t-61.5 -67q-42 26 -78 57t-69 66q42 54 71 89.5
t49 56.5q29 -30 65 -61.5t81 -63.5zM1300 794q5 5 7 5q1 0 2 -1q36 -41 60 -86t38 -88.5t20 -84t6 -71.5v-20q-1 -44 -5 -90t-12.5 -86t-21 -70t-31.5 -41q-74 -44 -160.5 -75.5t-178.5 -52t-187.5 -30t-186.5 -9.5q-63 0 -132 4t-135.5 16t-127 35.5t-106 62.5t-72.5 96.5
t-27 137.5v14q0 71 16 132t36.5 106t40.5 70.5t28 25.5q13 0 18 -33q-17 -33 -30 -66q-11 -28 -21 -60q-9 -30 -9 -54v-5q0 -56 28.5 -99t91.5 -72.5t164.5 -45t247.5 -15.5q135 0 239.5 11.5t185.5 34t142.5 54.5t111.5 73q-3 29 -13.5 54.5t-25 46.5t-30.5 38t-31 30z" />
    <glyph glyph-name="sf276.002" unicode="&#x62c;" horiz-adv-x="1126" 
d="M805 34q-23 -38 -51.5 -75t-60.5 -76q-39 20 -79.5 47.5t-82.5 63.5q40 57 68 94.5t42 57.5q42 -32 82 -59.5t82 -52.5zM354 101q-56 -57 -102 -120.5t-82.5 -129.5t-63 -132t-43.5 -129q-7 -25 -19 -25h-1q-11 0 -11 25q13 153 41 273.5t77 219t121 180.5t173 159
q6 4 6 10q-2 2 -2 7q-43 0 -77 3.5t-60 3.5q-55 0 -103.5 -29.5t-85.5 -74.5q-5 -5 -13 -5q-9 0 -17.5 7.5t-10.5 16.5v2q0 16 15 59.5t53 124.5q19 43 42.5 70.5t51 43.5t59.5 22t69 6q35 0 74 -4t83 -8.5t93 -8.5t103 -4q87 0 156.5 5.5t132.5 7.5q32 0 33 -31v-4
q0 -18 -8 -48.5t-20.5 -62t-28 -56.5t-31.5 -32q-16 -14 -55 -24t-82 -17q-121 -28 -236.5 -105.5t-230.5 -195.5z" />
    <glyph glyph-name="sf276.003" unicode="&#x686;" horiz-adv-x="1126" 
d="M354 101q-56 -57 -102 -120.5t-82.5 -129.5t-63 -132t-43.5 -129q-7 -25 -19 -25h-1q-11 0 -11 25q13 153 41 273.5t77 219t121 180.5t173 159q6 4 6 10q-2 2 -2 7q-43 0 -77 3.5t-60 3.5q-55 0 -103.5 -29.5t-85.5 -74.5q-5 -5 -13 -5q-9 0 -17.5 7.5t-10.5 16.5v2
q0 16 15 59.5t53 124.5q19 43 42.5 70.5t51 43.5t59.5 22t69 6q35 0 74 -4t83 -8.5t93 -8.5t103 -4q87 0 156.5 5.5t132.5 7.5q32 0 33 -31v-4q0 -18 -8 -48.5t-20.5 -62t-28 -56.5t-31.5 -32q-16 -14 -55 -24t-82 -17q-121 -28 -236.5 -105.5t-230.5 -195.5zM708 33
q35 27 74 53q67 -73 120 -147q-48 -32 -85.5 -62t-69.5 -57q-15 19 -39 46.5t-58 63.5q-31 -23 -65 -50t-71 -59q-40 45 -70 79t-50 61q51 51 150 124q17 -18 41.5 -45t56.5 -63q31 29 66 56zM684 -334.5q-36 -31.5 -65 -61.5q-20 21 -49 56.5t-71 89.5q33 35 69 66t78 57
q32 -32 61.5 -67t57.5 -77q-45 -32 -81 -63.5z" />
    <glyph glyph-name="sf276.004" unicode="&#x62d;" horiz-adv-x="1126" 
d="M354 101q-56 -57 -102 -120.5t-82.5 -129.5t-63 -132t-43.5 -129q-7 -25 -19 -25h-1q-11 0 -11 25q13 153 41 273.5t77 219t121 180.5t173 159q6 4 6 10q-2 2 -2 7q-43 0 -77 3.5t-60 3.5q-55 0 -103.5 -29.5t-85.5 -74.5q-5 -5 -13 -5q-9 0 -17.5 7.5t-10.5 16.5v2
q0 16 15 59.5t53 124.5q19 43 42.5 70.5t51 43.5t59.5 22t69 6q35 0 74 -4t83 -8.5t93 -8.5t103 -4q87 0 156.5 5.5t132.5 7.5q32 0 33 -31v-4q0 -18 -8 -48.5t-20.5 -62t-28 -56.5t-31.5 -32q-16 -14 -55 -24t-82 -17q-121 -28 -236.5 -105.5t-230.5 -195.5z" />
    <glyph glyph-name="sf276.005" unicode="&#x62e;" horiz-adv-x="1126" 
d="M724 1029q-23 -38 -51.5 -75t-60.5 -76q-39 20 -79.5 47.5t-82.5 63.5q40 57 68 94.5t42 57.5q42 -32 82 -59.5t82 -52.5zM354 101q-56 -57 -102 -120.5t-82.5 -129.5t-63 -132t-43.5 -129q-7 -25 -19 -25h-1q-11 0 -11 25q13 153 41 273.5t77 219t121 180.5t173 159
q6 4 6 10q-2 2 -2 7q-43 0 -77 3.5t-60 3.5q-55 0 -103.5 -29.5t-85.5 -74.5q-5 -5 -13 -5q-9 0 -17.5 7.5t-10.5 16.5v2q0 16 15 59.5t53 124.5q19 43 42.5 70.5t51 43.5t59.5 22t69 6q35 0 74 -4t83 -8.5t93 -8.5t103 -4q87 0 156.5 5.5t132.5 7.5q32 0 33 -31v-4
q0 -18 -8 -48.5t-20.5 -62t-28 -56.5t-31.5 -32q-16 -14 -55 -24t-82 -17q-121 -28 -236.5 -105.5t-230.5 -195.5z" />
    <glyph glyph-name="sf274" unicode="&#x62f;" horiz-adv-x="787" 
d="M262 884q98 -9 181.5 -60.5t144.5 -127.5t95.5 -167.5t34.5 -181.5v-16q-4 -92 -17.5 -146.5t-37.5 -83.5q-8 -9 -26 -16.5t-37 -13.5q-159 -54 -454 -66h-3q-15 0 -30 5t-27 15t-20 24.5t-8 34.5q0 17 3 47.5t7.5 62t8.5 58.5t6 38q3 12 23 18q6 0 11 -8q23 -38 67 -38
h4q96 7 176 11.5t137 9.5t89 13t32 22q0 40 -17.5 76.5t-47 68t-68.5 58.5t-81.5 49t-86.5 38.5t-84 27.5q3 50 6 86.5t6.5 65t6.5 51t6 45.5z" />
    <glyph glyph-name="sf274.002" unicode="&#x688;" horiz-adv-x="787" 
d="M262 884q98 -9 181.5 -60.5t144.5 -127.5t95.5 -167.5t34.5 -181.5v-16q-4 -92 -17.5 -146.5t-37.5 -83.5q-8 -9 -26 -16.5t-37 -13.5q-159 -54 -454 -66h-3q-15 0 -30 5t-27 15t-20 24.5t-8 34.5q0 17 3 47.5t7.5 62t8.5 58.5t6 38q3 12 23 18q6 0 11 -8q23 -38 67 -38
h4q96 7 176 11.5t137 9.5t89 13t32 22q0 40 -17.5 76.5t-47 68t-68.5 58.5t-81.5 49t-86.5 38.5t-84 27.5q3 50 6 86.5t6.5 65t6.5 51t6 45.5zM327 1418q4 -12 4 -14q0 -8 -3 -16.5t-6.5 -16.5t-6.5 -16.5t-3 -16.5v-1q0 -2 1 -14t2 -28.5t3 -35t3.5 -34.5t2.5 -26l1 -11
q13 17 32 30.5t42 24t47 16t46 5.5q17 0 32.5 -3.5t27.5 -12t19 -22t7 -33.5q0 -18 -6 -37t-15.5 -35.5t-22 -29.5t-25.5 -19q-10 -6 -28.5 -10.5t-41 -8.5t-48 -6t-50.5 -2q-13 0 -26 1t-24 2q-16 2 -29 6.5l-26 9t-26 10t-28 10.5q-5 1 -8 5.5t-3 9.5t2 8.5t5.5 5.5t7 3
t5.5 1q13 0 26 -2t28 -2q7 0 12.5 1t8.5 6l21 40q3 5 4 11.5t1 15.5q0 14 -2 30t-3 29q-2 11 -3.5 25t-3.5 29.5t-3.5 32t-2.5 32.5t-2 30t-1 25q0 5 0.5 14t1 19.5t2 21.5t3 20t4.5 14.5t7 5.5q1 0 2 -1q4 -11 7.5 -23t8 -25t9 -25t11.5 -23zM511 1142l6 3t8 4.5t6.5 5.5
t2.5 6q0 2 -1 4q-9 12 -25 16.5t-37 4.5q-19 0 -40 -3.5t-40 -9t-34.5 -13t-23.5 -15.5q-2 -2 -5.5 -4.5t-7 -5.5t-6 -5.5t-2.5 -3.5q0 -2 3 -3t7.5 -1.5t10.5 -1t12 -0.5q14 0 29.5 1t32 3l33 4t30.5 4.5t25 5t16 4.5z" />
    <glyph glyph-name="sf274.003" unicode="&#x630;" horiz-adv-x="787" 
d="M262 884q98 -9 181.5 -60.5t144.5 -127.5t95.5 -167.5t34.5 -181.5v-16q-4 -92 -17.5 -146.5t-37.5 -83.5q-8 -9 -26 -16.5t-37 -13.5q-159 -54 -454 -66h-3q-15 0 -30 5t-27 15t-20 24.5t-8 34.5q0 17 3 47.5t7.5 62t8.5 58.5t6 38q3 12 23 18q6 0 11 -8q23 -38 67 -38
h4q96 7 176 11.5t137 9.5t89 13t32 22q0 40 -17.5 76.5t-47 68t-68.5 58.5t-81.5 49t-86.5 38.5t-84 27.5q3 50 6 86.5t6.5 65t6.5 51t6 45.5zM404 1157q-23 -38 -51.5 -75t-60.5 -76q-39 20 -79.5 47.5t-82.5 63.5q40 57 68 94.5t42 57.5q42 -32 82 -59.5t82 -52.5z" />
    <glyph glyph-name="sf331" unicode="&#x631;" horiz-adv-x="620" 
d="M189 -324q-10 0 -36.5 5t-61.5 12.5t-73 17t-69.5 19t-52 17.5t-20.5 13v1q0 6 17 13.5t42 14.5t54 13.5t53 11.5q60 11 124 32t122 53t104 75t69 98q5 8 5 22t-7 32t-18 38t-24.5 40.5t-26.5 39.5q-20 30 -31 53.5t-15 42.5q-4 16 -4 30v7q1 17 4 35q4 22 10.5 43.5
t13.5 40.5t13.5 33t10.5 21q36 -29 65 -73.5t49 -97.5t31 -110t11 -111q0 -91 -25.5 -176t-73.5 -154q-47 -68 -116 -109t-144 -43z" />
    <glyph glyph-name="sf331.001" unicode="&#x691;" horiz-adv-x="620" 
d="M189 -324q-10 0 -36.5 5t-61.5 12.5t-73 17t-69.5 19t-52 17.5t-20.5 13v1q0 6 17 13.5t42 14.5t54 13.5t53 11.5q60 11 124 32t122 53t104 75t69 98q5 8 5 22t-7 32t-18 38t-24.5 40.5t-26.5 39.5q-20 30 -31 53.5t-15 42.5q-4 16 -4 30v7q1 17 4 35q4 22 10.5 43.5
t13.5 40.5t13.5 33t10.5 21q36 -29 65 -73.5t49 -97.5t31 -110t11 -111q0 -91 -25.5 -176t-73.5 -154q-47 -68 -116 -109t-144 -43zM300 1109q4 -12 4 -14q0 -8 -3 -16.5t-6.5 -16.5t-6.5 -16.5t-3 -16.5v-1q0 -2 1 -14t2 -28.5t3 -35t3.5 -34.5t2.5 -26l1 -11
q13 17 32 30.5t42 24t47 16t46 5.5q17 0 32.5 -3.5t27.5 -12t19 -22t7 -33.5q0 -18 -6 -37t-15.5 -35.5t-22 -29.5t-25.5 -19q-10 -6 -28.5 -10.5t-41 -8.5t-48 -6t-50.5 -2q-13 0 -26 1t-24 2q-16 2 -29 6.5l-26 9t-26 10t-28 10.5q-5 1 -8 5.5t-3 9.5t2 8.5t5.5 5.5t7 3
t5.5 1q13 0 26 -2t28 -2q7 0 12.5 1t8.5 6l21 40q3 5 4 11.5t1 15.5q0 14 -2 30t-3 29q-2 11 -3.5 25t-3.5 29.5t-3.5 32t-2.5 32.5t-2 30t-1 25q0 5 0.5 14t1 19.5t2 21.5t3 20t4.5 14.5t7 5.5q1 0 2 -1q4 -11 7.5 -23t8 -25t9 -25t11.5 -23zM484 833l6 3t8 4.5t6.5 5.5
t2.5 6q0 2 -1 4q-9 12 -25 16.5t-37 4.5q-19 0 -40 -3.5t-40 -9t-34.5 -13t-23.5 -15.5q-2 -2 -5.5 -4.5t-7 -5.5t-6 -5.5t-2.5 -3.5q0 -2 3 -3t7.5 -1.5t10.5 -1t12 -0.5q14 0 29.5 1t32 3l33 4t30.5 4.5t25 5t16 4.5z" />
    <glyph glyph-name="sf331.002" unicode="&#x632;" horiz-adv-x="620" 
d="M189 -324q-10 0 -36.5 5t-61.5 12.5t-73 17t-69.5 19t-52 17.5t-20.5 13v1q0 6 17 13.5t42 14.5t54 13.5t53 11.5q60 11 124 32t122 53t104 75t69 98q5 8 5 22t-7 32t-18 38t-24.5 40.5t-26.5 39.5q-20 30 -31 53.5t-15 42.5q-4 16 -4 30v7q1 17 4 35q4 22 10.5 43.5
t13.5 40.5t13.5 33t10.5 21q36 -29 65 -73.5t49 -97.5t31 -110t11 -111q0 -91 -25.5 -176t-73.5 -154q-47 -68 -116 -109t-144 -43zM480 821q-23 -38 -51.5 -75t-60.5 -76q-39 20 -79.5 47.5t-82.5 63.5q40 57 68 94.5t42 57.5q42 -32 82 -59.5t82 -52.5z" />
    <glyph glyph-name="sf331.003" unicode="&#x698;" horiz-adv-x="620" 
d="M189 -324q-10 0 -36.5 5t-61.5 12.5t-73 17t-69.5 19t-52 17.5t-20.5 13v1q0 6 17 13.5t42 14.5t54 13.5t53 11.5q60 11 124 32t122 53t104 75t69 98q5 8 5 22t-7 32t-18 38t-24.5 40.5t-26.5 39.5q-20 30 -31 53.5t-15 42.5q-4 16 -4 30v7q1 17 4 35q4 22 10.5 43.5
t13.5 40.5t13.5 33t10.5 21q36 -29 65 -73.5t49 -97.5t31 -110t11 -111q0 -91 -25.5 -176t-73.5 -154q-47 -68 -116 -109t-144 -43zM319 775q-32 -36 -56.5 -63t-41.5 -45q-99 73 -150 124q20 27 50 61t70 79q37 -32 71 -59t65 -50q34 36 58 63.5t39 46.5q32 -27 69.5 -57
t85.5 -62q-53 -74 -120 -147q-39 26 -74 53t-66 56zM442 1023q-28 -42 -57.5 -77t-61.5 -67q-42 26 -78 57t-69 66q42 54 71 89.5t49 56.5q29 -30 65 -61.5t81 -63.5z" />
    <glyph glyph-name="sf293.002" unicode="&#x633;" horiz-adv-x="2820" 
d="M2688 739q20 -45 31 -104.5t11 -125.5q0 -70 -13 -135t-41 -108q-17 -25 -44.5 -34.5t-59.5 -9.5q-31 0 -63.5 6t-62 16.5t-53.5 24.5t-37 30q-11 -18 -30 -34.5t-42 -29t-48 -20t-49 -7.5q-32 0 -67.5 4.5t-71.5 18.5q9 -38 9 -74q0 -9 -1 -19q-5 -98 -44 -179.5
t-104.5 -147t-153 -115.5t-189.5 -84q-96 -32 -197.5 -49t-204.5 -19q-19 -1 -38 -1q-84 0 -168 9q-103 11 -202 35q-59 14 -126 41.5t-134 63.5t-129.5 77.5t-112.5 83.5t-82.5 81.5t-39.5 71.5q-7 15 -15.5 37.5t-18.5 49.5t-21.5 56.5t-24.5 58.5h10q53 -40 108 -80.5
t112 -78.5t115.5 -72t118.5 -61q125 -56 263.5 -86t276.5 -37q39 -2 78 -2q92 0 185 10q132 14 253 47q74 20 139.5 47t118.5 59t91.5 69.5t58.5 78.5q0 46 -9.5 87.5t-24.5 80t-32.5 74.5t-33.5 72q0 6 2 29t5 53.5t7.5 64.5t9.5 63t10.5 48t10.5 20q10 0 18.5 -12.5
t16.5 -22.5q18 -32 40 -67.5t50 -65.5t63 -49.5t80 -19.5q46 0 80 17t46 55q4 14 7 30.5t6 30.5t7.5 23.5t11.5 9.5q12 0 19.5 -17t16 -39.5t19.5 -45t29 -33.5q10 -6 32 -10t47 -6t49 -3t38 -1q11 0 14 3l7 6q2 2 2 6q0 7 -3 19t-7.5 24.5t-9.5 24t-9 16.5q0 28 0.5 45
t2 31t4 30t5.5 43q0 4 2 20t6 33t8 31t9 15h1q5 0 12.5 -7.5t15.5 -19t15.5 -24.5t12.5 -25z" />
    <glyph glyph-name="sf293.003" unicode="&#x634;" horiz-adv-x="2820" 
d="M2688 739q20 -45 31 -104.5t11 -125.5q0 -70 -13 -135t-41 -108q-17 -25 -44.5 -34.5t-59.5 -9.5q-31 0 -63.5 6t-62 16.5t-53.5 24.5t-37 30q-11 -18 -30 -34.5t-42 -29t-48 -20t-49 -7.5q-32 0 -67.5 4.5t-71.5 18.5q9 -38 9 -74q0 -9 -1 -19q-5 -98 -44 -179.5
t-104.5 -147t-153 -115.5t-189.5 -84q-96 -32 -197.5 -49t-204.5 -19q-19 -1 -38 -1q-84 0 -168 9q-103 11 -202 35q-59 14 -126 41.5t-134 63.5t-129.5 77.5t-112.5 83.5t-82.5 81.5t-39.5 71.5q-7 15 -15.5 37.5t-18.5 49.5t-21.5 56.5t-24.5 58.5h10q53 -40 108 -80.5
t112 -78.5t115.5 -72t118.5 -61q125 -56 263.5 -86t276.5 -37q39 -2 78 -2q92 0 185 10q132 14 253 47q74 20 139.5 47t118.5 59t91.5 69.5t58.5 78.5q0 46 -9.5 87.5t-24.5 80t-32.5 74.5t-33.5 72q0 6 2 29t5 53.5t7.5 64.5t9.5 63t10.5 48t10.5 20q10 0 18.5 -12.5
t16.5 -22.5q18 -32 40 -67.5t50 -65.5t63 -49.5t80 -19.5q46 0 80 17t46 55q4 14 7 30.5t6 30.5t7.5 23.5t11.5 9.5q12 0 19.5 -17t16 -39.5t19.5 -45t29 -33.5q10 -6 32 -10t47 -6t49 -3t38 -1q11 0 14 3l7 6q2 2 2 6q0 7 -3 19t-7.5 24.5t-9.5 24t-9 16.5q0 28 0.5 45
t2 31t4 30t5.5 43q0 4 2 20t6 33t8 31t9 15h1q5 0 12.5 -7.5t15.5 -19t15.5 -24.5t12.5 -25zM2258 927q-32 -36 -56.5 -63t-41.5 -45q-99 73 -150 124q20 27 50 61t70 79q37 -32 71 -59t65 -50q34 36 58 63.5t39 46.5q32 -27 69.5 -57t85.5 -62q-53 -74 -120 -147
q-39 26 -74 53t-66 56zM2381 1175q-28 -42 -57.5 -77t-61.5 -67q-42 26 -78 57t-69 66q42 54 71 89.5t49 56.5q29 -30 65 -61.5t81 -63.5z" />
    <glyph glyph-name="sf293.001" unicode="&#x635;" horiz-adv-x="2997" 
d="M2053 129q-9 1 -11.5 17t-4 35t-4.5 35t-13 18q-17 3 -32 4.5t-32 7.5q4 -27 7 -54t3 -54q-8 -149 -75.5 -254.5t-174.5 -175.5q-68 -45 -147.5 -76t-165.5 -50t-176 -27q-76 -7 -150 -7q-14 0 -27 1q-88 1 -170.5 11t-154.5 27q-59 14 -124 41.5t-128.5 63.5t-122 77.5
t-105 83.5t-77 81.5t-37.5 71.5q-7 15 -15.5 37.5t-18.5 49.5t-21.5 56.5t-24.5 58.5h10q53 -40 108 -80.5t112 -78.5t115.5 -72t118.5 -61q125 -56 248.5 -86t261.5 -37q36 -2 75 -2q32 0 66 2q74 2 150.5 11.5t153 27.5t146.5 45q95 38 162 94.5t113 137.5q0 46 -10 86
t-25 77.5t-33 72.5t-34 71q0 6 1.5 26t4.5 47t6.5 58t8 59t9 50t9.5 32q3 7 7 7q10 0 18.5 -12.5t16.5 -22.5q17 -31 38 -66t48 -63.5t61 -44.5q23 -12 49 -12q13 0 27 3q20 25 46.5 58.5t57 69.5t64.5 72t70 66q34 28 74 52.5t83 42.5t87 28.5t87 10.5q40 0 85 -13
t83.5 -43t64 -78.5t25.5 -119.5q0 -99 -40 -172.5t-106.5 -125.5t-152 -83t-176.5 -44q-78 -12 -154 -12q-14 0 -28 1q-90 2 -165 18q-12 -2 -17.5 -14t-9 -26t-7 -25t-10.5 -11h-1zM2782 555q-6 15 -24.5 29.5t-42 26.5t-46.5 20.5t-38 11.5q-10 2 -21.5 3t-24.5 1
q-55 0 -114 -17.5t-111.5 -45t-92.5 -60.5t-56 -63q17 -8 44 -11.5t61 -3.5q52 0 113 6.5t118 16t103.5 20t67.5 18.5q8 3 19.5 6t21.5 7.5t17 11t7 15.5q0 7 -1 8z" />
    <glyph glyph-name="sf293.004" unicode="&#x636;" horiz-adv-x="2997" 
d="M2053 129q-9 1 -11.5 17t-4 35t-4.5 35t-13 18q-17 3 -32 4.5t-32 7.5q4 -27 7 -54t3 -54q-8 -149 -75.5 -254.5t-174.5 -175.5q-68 -45 -147.5 -76t-165.5 -50t-176 -27q-76 -7 -150 -7q-14 0 -27 1q-88 1 -170.5 11t-154.5 27q-59 14 -124 41.5t-128.5 63.5t-122 77.5
t-105 83.5t-77 81.5t-37.5 71.5q-7 15 -15.5 37.5t-18.5 49.5t-21.5 56.5t-24.5 58.5h10q53 -40 108 -80.5t112 -78.5t115.5 -72t118.5 -61q125 -56 248.5 -86t261.5 -37q36 -2 75 -2q32 0 66 2q74 2 150.5 11.5t153 27.5t146.5 45q95 38 162 94.5t113 137.5q0 46 -10 86
t-25 77.5t-33 72.5t-34 71q0 6 1.5 26t4.5 47t6.5 58t8 59t9 50t9.5 32q3 7 7 7q10 0 18.5 -12.5t16.5 -22.5q17 -31 38 -66t48 -63.5t61 -44.5q23 -12 49 -12q13 0 27 3q20 25 46.5 58.5t57 69.5t64.5 72t70 66q34 28 74 52.5t83 42.5t87 28.5t87 10.5q40 0 85 -13
t83.5 -43t64 -78.5t25.5 -119.5q0 -99 -40 -172.5t-106.5 -125.5t-152 -83t-176.5 -44q-78 -12 -154 -12q-14 0 -28 1q-90 2 -165 18q-12 -2 -17.5 -14t-9 -26t-7 -25t-10.5 -11h-1zM2782 555q-6 15 -24.5 29.5t-42 26.5t-46.5 20.5t-38 11.5q-10 2 -21.5 3t-24.5 1
q-55 0 -114 -17.5t-111.5 -45t-92.5 -60.5t-56 -63q17 -8 44 -11.5t61 -3.5q52 0 113 6.5t118 16t103.5 20t67.5 18.5q8 3 19.5 6t21.5 7.5t17 11t7 15.5q0 7 -1 8zM2422 1079q-23 -38 -51.5 -75t-60.5 -76q-39 20 -79.5 47.5t-82.5 63.5q40 57 68 94.5t42 57.5
q42 -32 82 -59.5t82 -52.5z" />
    <glyph glyph-name="sf336" unicode="&#x637;" horiz-adv-x="1329" 
d="M521 1190q11 -38 11 -45q0 -25 -9 -50.5t-19.5 -51.5t-19.5 -52.5t-9 -51.5v-4q0 -8 3 -45.5t7 -89.5t9 -111t9.5 -109t7.5 -83t4 -34q37 52 93.5 96t123 76t137.5 50.5t136 18.5q49 0 94.5 -12t80.5 -38.5t55.5 -69.5t20.5 -104q0 -59 -17.5 -119t-46 -112.5t-65 -93.5
t-74.5 -61q-30 -16 -83.5 -31t-120 -27t-141 -19t-146.5 -7q-40 0 -77 2.5t-71 7.5q-45 7 -84 20t-76.5 28.5t-76 32.5t-81.5 32q-14 4 -23.5 18t-9.5 31q0 16 6.5 26.5t15.5 17t19.5 9t18.5 2.5q36 0 75 -6t81 -6q21 0 38 4t25 17l60 129q9 14 12.5 35.5t3.5 48.5
q0 45 -6 95.5t-10 92.5q-4 33 -9 77.5t-10 94t-9.5 102.5t-8.5 103t-6 94.5t-2 77.5q0 16 0.5 45t3 62.5t6 68t9 62.5t14 46t19.5 18q3 0 5 -3q12 -35 23 -73.5t23 -78.5t26.5 -79t34.5 -74zM1060 318l17 8.5t22.5 13.5t20 17.5t8.5 20.5q0 6 -4 13q-25 36 -73 51t-109 15
q-56 0 -117 -11t-117 -29.5t-101 -42t-70 -48.5q-5 -6 -15.5 -14.5t-21 -16.5t-18 -16t-7.5 -14q0 -5 9 -8.5t23 -5t31.5 -2t35.5 -0.5q39 0 85.5 3t95 8t96.5 11.5t89 14.5t72.5 16t47.5 16z" />
    <glyph glyph-name="sf336.002" unicode="&#x638;" horiz-adv-x="1329" 
d="M521 1190q11 -38 11 -45q0 -25 -9 -50.5t-19.5 -51.5t-19.5 -52.5t-9 -51.5v-4q0 -8 3 -45.5t7 -89.5t9 -111t9.5 -109t7.5 -83t4 -34q37 52 93.5 96t123 76t137.5 50.5t136 18.5q49 0 94.5 -12t80.5 -38.5t55.5 -69.5t20.5 -104q0 -59 -17.5 -119t-46 -112.5t-65 -93.5
t-74.5 -61q-30 -16 -83.5 -31t-120 -27t-141 -19t-146.5 -7q-40 0 -77 2.5t-71 7.5q-45 7 -84 20t-76.5 28.5t-76 32.5t-81.5 32q-14 4 -23.5 18t-9.5 31q0 16 6.5 26.5t15.5 17t19.5 9t18.5 2.5q36 0 75 -6t81 -6q21 0 38 4t25 17l60 129q9 14 12.5 35.5t3.5 48.5
q0 45 -6 95.5t-10 92.5q-4 33 -9 77.5t-10 94t-9.5 102.5t-8.5 103t-6 94.5t-2 77.5q0 16 0.5 45t3 62.5t6 68t9 62.5t14 46t19.5 18q3 0 5 -3q12 -35 23 -73.5t23 -78.5t26.5 -79t34.5 -74zM1060 318l17 8.5t22.5 13.5t20 17.5t8.5 20.5q0 6 -4 13q-25 36 -73 51t-109 15
q-56 0 -117 -11t-117 -29.5t-101 -42t-70 -48.5q-5 -6 -15.5 -14.5t-21 -16.5t-18 -16t-7.5 -14q0 -5 9 -8.5t23 -5t31.5 -2t35.5 -0.5q39 0 85.5 3t95 8t96.5 11.5t89 14.5t72.5 16t47.5 16zM1003 966q-23 -38 -51.5 -75t-60.5 -76q-39 20 -79.5 47.5t-82.5 63.5
q40 57 68 94.5t42 57.5q42 -32 82 -59.5t82 -52.5z" />
    <glyph glyph-name="sf276.001" unicode="&#x639;" horiz-adv-x="1037" 
d="M581 612q27 0 70 3.5t103 21.5q30 9 60 17t55.5 14.5t43.5 10t23 3.5q6 0 11.5 -7t5.5 -22q0 -17 -4.5 -38.5t-11.5 -44.5t-14.5 -46.5t-13.5 -44.5q-85 -35 -159.5 -78t-138.5 -88.5t-117 -90.5t-96 -85q-25 -23 -55.5 -61t-63.5 -85.5t-66 -101.5t-62.5 -110
t-53.5 -110.5t-39 -102.5q-6 -25 -19 -25h-1q-11 0 -11 25q13 155 47 290t85 232q48 91 111.5 165.5t157.5 143.5q-49 19 -85.5 47t-60.5 60.5t-36 67.5t-12 69q0 31 6 71t20 82.5t36.5 84.5t56 76t78 57t101.5 28h10q20 0 49.5 -7t61 -20.5t61.5 -34t52 -47.5
q18 -23 26.5 -38.5t9.5 -20.5q0 -26 -40 -26q-10 0 -44 7t-73.5 15t-74 15t-45.5 7q-23 0 -53.5 -8t-57.5 -22.5t-46 -35.5t-19 -48q0 -32 26.5 -61.5t63.5 -52.5t76.5 -36.5t65.5 -13.5z" />
    <glyph glyph-name="sf276.006" unicode="&#x63a;" horiz-adv-x="1037" 
d="M581 612q27 0 70 3.5t103 21.5q30 9 60 17t55.5 14.5t43.5 10t23 3.5q6 0 11.5 -7t5.5 -22q0 -17 -4.5 -38.5t-11.5 -44.5t-14.5 -46.5t-13.5 -44.5q-85 -35 -159.5 -78t-138.5 -88.5t-117 -90.5t-96 -85q-25 -23 -55.5 -61t-63.5 -85.5t-66 -101.5t-62.5 -110
t-53.5 -110.5t-39 -102.5q-6 -25 -19 -25h-1q-11 0 -11 25q13 155 47 290t85 232q48 91 111.5 165.5t157.5 143.5q-49 19 -85.5 47t-60.5 60.5t-36 67.5t-12 69q0 31 6 71t20 82.5t36.5 84.5t56 76t78 57t101.5 28h10q20 0 49.5 -7t61 -20.5t61.5 -34t52 -47.5
q18 -23 26.5 -38.5t9.5 -20.5q0 -26 -40 -26q-10 0 -44 7t-73.5 15t-74 15t-45.5 7q-23 0 -53.5 -8t-57.5 -22.5t-46 -35.5t-19 -48q0 -32 26.5 -61.5t63.5 -52.5t76.5 -36.5t65.5 -13.5zM651 1284q-23 -38 -51.5 -75t-60.5 -76q-39 20 -79.5 47.5t-82.5 63.5q40 57 68 94.5
t42 57.5q42 -32 82 -59.5t82 -52.5z" />
    <glyph glyph-name="sf278" unicode="&#x641;" horiz-adv-x="1630" 
d="M1044 768q10 52 22 97.5t33.5 79.5t57 53.5t93.5 19.5q37 0 73 -16.5t68.5 -43.5t61 -63t50 -75t35.5 -79t18 -75q8 -65 8 -126v-30q-3 -75 -20 -141t-50.5 -120.5t-85.5 -93.5q-60 -44 -142 -76t-175 -53t-191.5 -31t-191.5 -10q-103 0 -191.5 11t-157.5 32
q-57 18 -111.5 44.5t-97 68t-69.5 101.5t-28 146v6q0 73 17.5 135.5t40.5 108.5t44.5 72.5t29.5 26.5q5 0 16.5 -7.5t11.5 -24.5q0 -3 -10 -24t-22 -51t-22 -64t-10 -64t9 -58.5t29 -55.5q25 -33 75.5 -61t123 -47.5t165.5 -30.5t204 -11t218 7t201 28t170 59.5t125 101.5
q5 8 5 20q0 11 -4 24.5t-10.5 25.5t-14 21.5t-13.5 12.5q-35 -35 -83 -49t-100 -14q-39 0 -79 8t-72 25t-52.5 44.5t-20.5 65.5t6 74.5t13 75.5zM1350 1283q-23 -38 -51.5 -75t-60.5 -76q-39 20 -79.5 47.5t-82.5 63.5q40 57 68 94.5t42 57.5q42 -32 82 -59.5t82 -52.5z" />
    <glyph glyph-name="sf277.018" unicode="&#x642;" horiz-adv-x="2131" 
d="M1487 501q0 36 3.5 77t9.5 81t15 75.5t20 60.5q8 21 25 40.5t40.5 35.5t52 25.5t59.5 9.5q55 0 101.5 -28.5t83.5 -76.5t65 -110.5t46.5 -130.5t27.5 -136q7 -62 7 -115v-13q-2 -60 -15.5 -126.5t-40.5 -133.5t-68 -131.5t-98 -121.5t-130.5 -103.5t-165.5 -77.5
q-127 -42 -260 -54q-85 -9 -171 -9q-48 0 -96 3q-139 8 -268 41.5t-255 106.5q-64 37 -123 80.5t-105.5 87.5t-77.5 85t-38 73q-14 29 -34 82t-46 110h10q192 -181 421 -286q125 -57 257.5 -94.5t275.5 -44.5q39 -2 78 -2q90 0 180 10q127 14 248 47q62 17 117 44
t101.5 59.5t83.5 68t63.5 69.5t42 63.5t19.5 50.5q3 17 3 35q0 36 -12 76q-18 59 -53 128q-34 -38 -83.5 -55.5t-103.5 -17.5h-4q-34 1 -70.5 9t-66.5 23.5t-50 40.5t-21 61v8zM1672 1143q-32 -38 -57 -66.5t-42 -48.5q-42 29 -79.5 61.5t-73.5 70.5q22 29 52 66t70 83
q38 -35 72 -63.5t65 -52.5q69 76 99 117q32 -29 70.5 -60.5t86.5 -66.5q-26 -39 -56.5 -78t-64.5 -78q-42 29 -76.5 58t-65.5 58z" />
    <glyph glyph-name="sf270.007" unicode="&#x643;" horiz-adv-x="2392" 
d="M934 557q-3 2 -5 5q-20 22 -27 52q-4 18 -4 39q0 12 1 25q4 34 14.5 69t25.5 68.5t30 61.5q49 97 120 172.5t165 132.5q95 52 164 92t118 69.5t82 50t55.5 35t39 24.5t32.5 17q7 -10 7 -24v-7q-2 -19 -9 -39.5t-16.5 -39.5t-14.5 -31q-27 -58 -70.5 -101.5t-97 -78.5
t-113.5 -65t-120 -60.5t-116.5 -64t-102.5 -75.5q-14 -13 -25 -32t-14 -38q-2 -8 -2 -15q0 -11 3 -20q5 -16 23 -23q2 -1 4 -1q85 -34 175 -45q92 -12 197 -13q39 -1 80 -1q69 0 145 2h65q94 0 201 -5q45 -2 92 -16t90 -38t80.5 -57.5t63.5 -73.5q19 -30 31 -71t14 -86v-13
q0 -39 -8 -78q-9 -47 -32 -89q-17 -31 -57.5 -53t-98 -37.5t-127.5 -25.5t-146 -16.5t-154 -11t-150 -8.5q-47 -3 -117 -6.5t-154 -6t-178 -3.5q-71 -2 -143 -2q-24 0 -48 1q-96 0 -189.5 2.5t-176 9t-150 17t-110.5 25.5q-45 15 -83.5 38.5t-67.5 57.5t-46.5 79t-20.5 104
q-1 14 -1 28q0 39 7 82q8 57 24 104.5t35.5 78.5t39.5 31q7 0 14.5 -5.5t7.5 -17.5q0 -14 -7.5 -34t-17 -44.5t-17 -52.5t-7.5 -59q0 -60 50.5 -104.5t147.5 -60.5q85 -14 199 -22t245 -12t274 -4q142 0 283 3t274.5 8t246.5 11.5t200 13t136 12.5q22 4 22 15v1
q-1 12 -13 25.5t-29 26t-27 18.5q-44 25 -87 44.5t-92 33t-107 19.5q-43 5 -96 5q-17 0 -36 -1q-90 -2 -162 -4t-132 -2q-13 -1 -24 -1q-47 0 -89 2q-53 2 -105.5 8t-107.5 17.5t-120 29.5q-34 10 -53 29z" />
    <glyph glyph-name="sf270.007" unicode="&#x6a9;" horiz-adv-x="2392" 
d="M934 557q-3 2 -5 5q-20 22 -27 52q-4 18 -4 39q0 12 1 25q4 34 14.5 69t25.5 68.5t30 61.5q49 97 120 172.5t165 132.5q95 52 164 92t118 69.5t82 50t55.5 35t39 24.5t32.5 17q7 -10 7 -24v-7q-2 -19 -9 -39.5t-16.5 -39.5t-14.5 -31q-27 -58 -70.5 -101.5t-97 -78.5
t-113.5 -65t-120 -60.5t-116.5 -64t-102.5 -75.5q-14 -13 -25 -32t-14 -38q-2 -8 -2 -15q0 -11 3 -20q5 -16 23 -23q2 -1 4 -1q85 -34 175 -45q92 -12 197 -13q39 -1 80 -1q69 0 145 2h65q94 0 201 -5q45 -2 92 -16t90 -38t80.5 -57.5t63.5 -73.5q19 -30 31 -71t14 -86v-13
q0 -39 -8 -78q-9 -47 -32 -89q-17 -31 -57.5 -53t-98 -37.5t-127.5 -25.5t-146 -16.5t-154 -11t-150 -8.5q-47 -3 -117 -6.5t-154 -6t-178 -3.5q-71 -2 -143 -2q-24 0 -48 1q-96 0 -189.5 2.5t-176 9t-150 17t-110.5 25.5q-45 15 -83.5 38.5t-67.5 57.5t-46.5 79t-20.5 104
q-1 14 -1 28q0 39 7 82q8 57 24 104.5t35.5 78.5t39.5 31q7 0 14.5 -5.5t7.5 -17.5q0 -14 -7.5 -34t-17 -44.5t-17 -52.5t-7.5 -59q0 -60 50.5 -104.5t147.5 -60.5q85 -14 199 -22t245 -12t274 -4q142 0 283 3t274.5 8t246.5 11.5t200 13t136 12.5q22 4 22 15v1
q-1 12 -13 25.5t-29 26t-27 18.5q-44 25 -87 44.5t-92 33t-107 19.5q-43 5 -96 5q-17 0 -36 -1q-90 -2 -162 -4t-132 -2q-13 -1 -24 -1q-47 0 -89 2q-53 2 -105.5 8t-107.5 17.5t-120 29.5q-34 10 -53 29z" />
    <glyph glyph-name="sf270.006" unicode="&#x6af;" horiz-adv-x="2392" 
d="M934 557q-3 2 -5 5q-20 22 -27 52q-4 18 -4 39q0 12 1 25q4 34 14.5 69t25.5 68.5t30 61.5q49 97 120 172.5t165 132.5q95 52 164 92t118 69.5t82 50t55.5 35t39 24.5t32.5 17q7 -10 7 -24v-7q-2 -19 -9 -39.5t-16.5 -39.5t-14.5 -31q-27 -58 -70.5 -101.5t-97 -78.5
t-113.5 -65t-120 -60.5t-116.5 -64t-102.5 -75.5q-14 -13 -25 -32t-14 -38q-2 -8 -2 -15q0 -11 3 -20q5 -16 23 -23q2 -1 4 -1q85 -34 175 -45q92 -12 197 -13q39 -1 80 -1q69 0 145 2h65q94 0 201 -5q45 -2 92 -16t90 -38t80.5 -57.5t63.5 -73.5q19 -30 31 -71t14 -86v-13
q0 -39 -8 -78q-9 -47 -32 -89q-17 -31 -57.5 -53t-98 -37.5t-127.5 -25.5t-146 -16.5t-154 -11t-150 -8.5q-47 -3 -117 -6.5t-154 -6t-178 -3.5q-71 -2 -143 -2q-24 0 -48 1q-96 0 -189.5 2.5t-176 9t-150 17t-110.5 25.5q-45 15 -83.5 38.5t-67.5 57.5t-46.5 79t-20.5 104
q-1 14 -1 28q0 39 7 82q8 57 24 104.5t35.5 78.5t39.5 31q7 0 14.5 -5.5t7.5 -17.5q0 -14 -7.5 -34t-17 -44.5t-17 -52.5t-7.5 -59q0 -60 50.5 -104.5t147.5 -60.5q85 -14 199 -22t245 -12t274 -4q142 0 283 3t274.5 8t246.5 11.5t200 13t136 12.5q22 4 22 15v1
q-1 12 -13 25.5t-29 26t-27 18.5q-44 25 -87 44.5t-92 33t-107 19.5q-43 5 -96 5q-17 0 -36 -1q-90 -2 -162 -4t-132 -2q-13 -1 -24 -1q-47 0 -89 2q-53 2 -105.5 8t-107.5 17.5t-120 29.5q-34 10 -53 29zM774 774q-20 22 -27 52q-4 18 -4 39q0 12 1 25q4 34 14.5 69
t25.5 68.5t30 61.5q49 97 120 172.5t165 132.5q95 52 164 92t118 69.5t82 50t55.5 35t39 24.5t32.5 17q7 -10 7 -24v-7q-2 -19 -9 -39.5t-16.5 -39.5t-14.5 -31q-27 -58 -70.5 -101.5t-97 -78.5t-113.5 -65t-120 -60.5t-116.5 -64t-102.5 -75.5q-14 -13 -25 -32t-14 -38
q-2 -8 -2 -15q0 -11 3 -20q5 -16 23 -23q2 -1 4 -1l-147 -198q-3 2 -5 5z" />
    <glyph glyph-name="sf288.001" unicode="&#x644;" horiz-adv-x="2012" 
d="M1808 117q0 71 -7.5 159.5t-19 185t-27 197t-31.5 195.5t-31.5 180t-28 151.5t-20 109.5t-8.5 54q1 0 2.5 16.5t4.5 42t7.5 56t11.5 60t16 53t21 34.5q4 2 7 2q6 0 11 -5q7 -8 9 -19q9 -43 14.5 -71t10.5 -47t9.5 -34t11.5 -32t17.5 -40.5t26.5 -60.5q11 -27 16 -44.5
t5 -26.5q0 -15 -7.5 -30.5t-19.5 -47.5l109 -1004q-11 -87 -47 -174t-100 -165t-157.5 -143t-218.5 -107q-65 -22 -140.5 -32.5t-155.5 -10.5q-81 0 -163 9t-160.5 27t-150 44.5t-130.5 60.5q-64 37 -123 77.5t-105.5 80.5t-77.5 78t-38 70q-14 29 -34 82t-46 110h10
q95 -90 200.5 -152t220.5 -114q59 -27 130.5 -49.5t149 -39t159 -26t160.5 -10.5q13 -1 26 -1q64 0 126 7q74 7 138 25q94 25 168.5 66t128 86t84 88.5t36.5 74.5v4z" />
    <glyph glyph-name="sf289.001" unicode="&#x645;" horiz-adv-x="1006" 
d="M934 600l-76 -240q-54 5 -96.5 6t-79.5 1q-36 0 -64.5 -1.5t-57 -6t-60.5 -12t-74 -19.5q-44 -13 -92.5 -29.5t-90 -34.5t-69 -37.5t-29.5 -38.5q25 -135 41.5 -268t16.5 -278v-62q0 -38 -2 -84t-8.5 -86.5t-20 -68t-35.5 -27.5q-8 0 -12 4v90q0 82 -4.5 147.5t-13.5 128
t-21 128.5t-27 149q-4 63 -6 113.5t-2 95.5q0 70 6 129.5t26 107t59 81.5t104 52q-2 9 -2 15v12q0 43 13 90t35.5 92.5t52.5 86t63.5 71t68.5 48.5t68 18q64 0 123 -35t109 -89.5t90 -120.5t67 -128zM678 610q-37 60 -85 96.5t-112 36.5q-57 0 -88 -31.5t-31 -89.5
q0 -27 13 -59q39 12 71 21t62.5 14.5t62.5 8.5t72 3h35z" />
    <glyph glyph-name="sf277.019" unicode="&#x646;" horiz-adv-x="2251" 
d="M1975 416q0 24 2 58.5t6 71t9 73t10.5 65.5t11.5 47.5t12 19.5h2q6 0 18 -13q12 -16 24.5 -39t23.5 -49t16 -44q21 -78 37 -150.5t16 -144.5q0 -144 -51.5 -260.5t-139.5 -205.5t-205.5 -150t-249.5 -94q-52 -13 -110 -22.5t-118.5 -14.5t-121.5 -6h-31q-45 0 -89 2
q-72 4 -146.5 15t-147 29.5t-141 44.5t-127.5 61q-64 37 -123 80.5t-105.5 87.5t-77.5 85t-38 73q-14 29 -34 82t-46 110h10q192 -181 421 -286q66 -30 137 -53.5t145 -40.5t149 -28.5t148 -15.5q55 -4 112 -4q54 0 109 4q115 6 220 26q81 15 162.5 40.5t154 63t131.5 88
t96 116.5q-1 44 -5.5 78t-13.5 65t-24 63t-38 72zM1384 364q-24 -42 -53 -81.5t-62 -81.5q-40 22 -81.5 51.5t-84.5 68.5q42 63 70 102.5t43 61.5q43 -35 83 -64.5t85 -56.5z" />
    <glyph glyph-name="sf277.037" unicode="&#x6ba;" horiz-adv-x="2251" 
d="M1975 416q0 24 2 58.5t6 71t9 73t10.5 65.5t11.5 47.5t12 19.5h2q6 0 18 -13q12 -16 24.5 -39t23.5 -49t16 -44q21 -78 37 -150.5t16 -144.5q0 -144 -51.5 -260.5t-139.5 -205.5t-205.5 -150t-249.5 -94q-52 -13 -110 -22.5t-118.5 -14.5t-121.5 -6h-31q-45 0 -89 2
q-72 4 -146.5 15t-147 29.5t-141 44.5t-127.5 61q-64 37 -123 80.5t-105.5 87.5t-77.5 85t-38 73q-14 29 -34 82t-46 110h10q192 -181 421 -286q66 -30 137 -53.5t145 -40.5t149 -28.5t148 -15.5q55 -4 112 -4q54 0 109 4q115 6 220 26q81 15 162.5 40.5t154 63t131.5 88
t96 116.5q-1 44 -5.5 78t-13.5 65t-24 63t-38 72z" />
    <glyph glyph-name="sf337" unicode="&#x648;" horiz-adv-x="615" 
d="M189 471q8 19 22.5 36.5t34 31t43 21.5t49.5 8q44 0 77.5 -19.5t57.5 -51.5t39.5 -72.5t24.5 -82t12.5 -80t3.5 -66.5q0 -64 -13.5 -140.5t-50.5 -161.5q-17 -38 -45 -71t-64 -57.5t-77 -39t-84 -14.5q-26 0 -51 6q-30 7 -64.5 13t-69 10.5t-67.5 8t-61 5.5
q-17 2 -25 10.5t-8 18.5q0 17 21 22l78 13t102 19.5t109.5 27.5t100.5 36q66 28 115 80t74 118q-31 -11 -66 -17t-77 -6q-41 0 -77.5 6t-64.5 21.5t-44 43t-16 71.5q0 33 6.5 69.5t16 71.5t20 64t18.5 47z" />
    <glyph glyph-name="sf337.001" unicode="&#x624;" horiz-adv-x="632" 
d="M189 471q8 19 22.5 36.5t34 31t43 21.5t49.5 8q44 0 77.5 -19.5t57.5 -51.5t39.5 -72.5t24.5 -82t12.5 -80t3.5 -66.5q0 -64 -13.5 -140.5t-50.5 -161.5q-17 -38 -45 -71t-64 -57.5t-77 -39t-84 -14.5q-26 0 -51 6q-30 7 -64.5 13t-69 10.5t-67.5 8t-61 5.5
q-17 2 -25 10.5t-8 18.5q0 17 21 22l78 13t102 19.5t109.5 27.5t100.5 36q66 28 115 80t74 118q-31 -11 -66 -17t-77 -6q-41 0 -77.5 6t-64.5 21.5t-44 43t-16 71.5q0 33 6.5 69.5t16 71.5t20 64t18.5 47zM418 1018q2 -8 4 -13.5t4 -9.5q1 -2 1.5 -4t1.5 -4q0 -5 -4 -5
q-5 0 -14.5 5t-22.5 10.5t-28.5 10.5t-33.5 5q-24 0 -46 -6.5t-36 -20.5q2 -22 13 -41.5t28 -34.5t39.5 -23.5t48.5 -8.5q51 10 88.5 19.5t61.5 18.5q-5 -112 -107 -146q-42 -14 -70.5 -22t-50.5 -14.5t-40 -12t-38 -15t-46.5 -24t-64.5 -37.5q-21 -12 -32 -12q-13 0 -13 19
q0 10 1 11q29 29 54.5 50.5t50.5 36.5l35 30q-12 16 -23.5 40.5t-22.5 56.5q1 10 5 29.5t12 43.5t20 49t28 45.5t37.5 33.5t47.5 13q16 0 33 -6t32 -16t27.5 -23t19.5 -28z" />
    <glyph glyph-name="sf265.001" unicode="&#x6c1;" horiz-adv-x="685" 
d="M330 804l4 -4q4 -4 9.5 -8.5t11 -8.5t10.5 -4l10 2q118 75 174 117q4 4 10 4t18.5 -7.5t12.5 -21.5q0 -21 -39 -65t-102 -104q83 -84 120 -163q42 -80 42 -173q0 -86 -24 -152.5t-67 -112.5t-103 -70t-132 -24q-45 0 -88.5 11t-78.5 40q-42 34 -58.5 81t-16.5 101
q0 36 6.5 73t17.5 71.5t26 66t32 57.5q9 14 26 41t46 69q-4 2 -17.5 9.5t-29 16.5t-30 18.5t-20.5 15.5q-8 75 -13 132t-5 97q0 30 12 30q5 0 6 -1q51 -16 119 -60zM506 380q-46 113 -215 169q-17 -13 -39.5 -39.5t-42.5 -55t-33.5 -54t-13.5 -37.5q0 -20 12.5 -39t36 -34
t56.5 -24.5t75 -9.5q27 0 57 7t54.5 20t40.5 32t16 42q0 16 -4 23z" />
    <glyph glyph-name="sf265.002" unicode="&#x6c3;" horiz-adv-x="685" 
d="M330 804l4 -4q4 -4 9.5 -8.5t11 -8.5t10.5 -4l10 2q118 75 174 117q4 4 10 4t18.5 -7.5t12.5 -21.5q0 -21 -39 -65t-102 -104q83 -84 120 -163q42 -80 42 -173q0 -86 -24 -152.5t-67 -112.5t-103 -70t-132 -24q-45 0 -88.5 11t-78.5 40q-42 34 -58.5 81t-16.5 101
q0 36 6.5 73t17.5 71.5t26 66t32 57.5q9 14 26 41t46 69q-4 2 -17.5 9.5t-29 16.5t-30 18.5t-20.5 15.5q-8 75 -13 132t-5 97q0 30 12 30q5 0 6 -1q51 -16 119 -60zM506 380q-46 113 -215 169q-17 -13 -39.5 -39.5t-42.5 -55t-33.5 -54t-13.5 -37.5q0 -20 12.5 -39t36 -34
t56.5 -24.5t75 -9.5q27 0 57 7t54.5 20t40.5 32t16 42q0 16 -4 23zM297 1213q-32 -38 -57 -66.5t-42 -48.5q-42 29 -79.5 61.5t-73.5 70.5q22 29 52 66t70 83q38 -35 72 -63.5t65 -52.5q69 76 99 117q32 -29 70.5 -60.5t86.5 -66.5q-26 -39 -56.5 -78t-64.5 -78
q-42 29 -76.5 58t-65.5 58z" />
    <glyph glyph-name="sf298" unicode="&#x6be;" horiz-adv-x="1040" 
d="M100 69q55 187 91 198t64 36q-12 52 -12 109q0 43 6 84t20.5 77.5t38.5 68.5t59 56q3 19 5.5 54.5t7 70.5t12.5 61q7 24 19 24h1q4 -1 17 -13t29 -27.5t31.5 -30t24.5 -20.5q46 -36 95.5 -67.5t97 -62t90 -63t74.5 -71.5t50.5 -87t18.5 -109q0 -59 -7.5 -119
t-26.5 -108.5t-50 -79.5t-78 -31q-39 0 -86 6.5t-96 15.5t-97 18t-88 14q-38 -24 -76 -38t-77 -22t-78.5 -10.5t-79.5 -2.5v69zM503 481q-15 39 -45 56q-22 12 -45 12q-7 0 -14 -1q-30 -6 -50 -33q-16 -22 -16 -58q0 -9 1 -19q2 -23 14.5 -45.5t31.5 -40t42 -28.5t46 -11
q18 0 28.5 9t16.5 22.5t7.5 30.5t1.5 32q0 43 -19 74zM843 295q-6 10 -22 27.5t-37.5 37.5t-46 40.5t-48 37t-43.5 27t-33 10.5q1 -5 1.5 -10t0.5 -11q0 -32 -11 -74.5t-26 -80.5q21 -5 45.5 -10.5t50.5 -10.5t51.5 -8.5t48.5 -3.5h35q5 1 9.5 1.5t9.5 1.5q8 2 14 5t6 10
q0 3 -5 11z" />
    <glyph glyph-name="sf266.002" unicode="&#x621;" horiz-adv-x="725" 
d="M537 558q-7 -10 -18.5 -14t-26.5 -4q-21 0 -46.5 6.5t-50.5 14t-46.5 14t-34.5 6.5q-21 0 -34 -3.5t-23 -10.5t-20.5 -17.5t-25.5 -23.5q-3 -11 -3 -17q0 -21 41 -80q57 -83 166 -83q28 0 64.5 10.5t70 23.5t58 24.5t29.5 12.5q24 -11 24 -40q-2 -26 -13.5 -54t-31 -55
t-45.5 -52t-56 -44q-14 -9 -43.5 -25.5t-68 -36.5t-81.5 -43t-84.5 -44.5t-77.5 -40.5t-60 -32q-58 -30 -99.5 -45t-67.5 -19q-19 0 -19 12q0 44 200 206l72 58q-33 36 -54 64t-33 51.5t-16.5 43t-4.5 39.5q0 51 18.5 109t52 108t80 83t102.5 33q28 0 56.5 -10t56.5 -33z
" />
    <glyph glyph-name="sf271" unicode="&#x649;" horiz-adv-x="2359" 
d="M2148 303q0 -131 -41.5 -238t-115.5 -192q-90 -104 -216.5 -173.5t-272.5 -106.5q-52 -13 -110 -22.5t-118.5 -14.5t-121.5 -6h-31q-45 0 -89 2q-104 6 -223.5 33t-236.5 75q-75 31 -145 69.5t-128.5 85t-103 100t-69.5 113.5q-14 29 -34 82t-46 110h10
q192 -181 421 -286q66 -30 137 -53.5t145 -40.5t149 -28.5t148 -15.5q33 -2 71 -2q19 0 39 1q61 1 126.5 6.5t133 14.5t129.5 21.5t115 28.5t91 35q55 24 106 58.5t91 71t64 70.5t24 57v6q-1 7 -17 13t-40.5 11t-55 10t-60.5 10t-56.5 11.5t-43.5 14.5q-45 20 -63.5 62.5
t-18.5 100.5q0 57 17 121t46 127q15 34 41.5 75t62 83t77 81.5t87 70.5t92.5 49.5t92 18.5q25 0 43 -11t30 -28.5t18 -39.5t6 -44q0 -5 -3 -34.5t-9.5 -63.5t-18 -61.5t-27.5 -27.5q-3 0 -12 10.5t-19.5 23.5t-22 24t-20.5 12q-5 1 -11 1h-11q-44 0 -87 -19t-82.5 -48
t-73.5 -63t-59 -63.5t-39.5 -50.5t-14.5 -23q-1 -1 -1 -9q0 -18 17.5 -30.5t45 -21.5t60.5 -14.5t64.5 -10.5t57 -9t36.5 -9q29 -13 51.5 -36.5t22.5 -69.5v-6z" />
    <glyph glyph-name="sf271" unicode="&#x6cc;" horiz-adv-x="2359" 
d="M2148 303q0 -131 -41.5 -238t-115.5 -192q-90 -104 -216.5 -173.5t-272.5 -106.5q-52 -13 -110 -22.5t-118.5 -14.5t-121.5 -6h-31q-45 0 -89 2q-104 6 -223.5 33t-236.5 75q-75 31 -145 69.5t-128.5 85t-103 100t-69.5 113.5q-14 29 -34 82t-46 110h10
q192 -181 421 -286q66 -30 137 -53.5t145 -40.5t149 -28.5t148 -15.5q33 -2 71 -2q19 0 39 1q61 1 126.5 6.5t133 14.5t129.5 21.5t115 28.5t91 35q55 24 106 58.5t91 71t64 70.5t24 57v6q-1 7 -17 13t-40.5 11t-55 10t-60.5 10t-56.5 11.5t-43.5 14.5q-45 20 -63.5 62.5
t-18.5 100.5q0 57 17 121t46 127q15 34 41.5 75t62 83t77 81.5t87 70.5t92.5 49.5t92 18.5q25 0 43 -11t30 -28.5t18 -39.5t6 -44q0 -5 -3 -34.5t-9.5 -63.5t-18 -61.5t-27.5 -27.5q-3 0 -12 10.5t-19.5 23.5t-22 24t-20.5 12q-5 1 -11 1h-11q-44 0 -87 -19t-82.5 -48
t-73.5 -63t-59 -63.5t-39.5 -50.5t-14.5 -23q-1 -1 -1 -9q0 -18 17.5 -30.5t45 -21.5t60.5 -14.5t64.5 -10.5t57 -9t36.5 -9q29 -13 51.5 -36.5t22.5 -69.5v-6z" />
    <glyph glyph-name="sf271.002" unicode="&#x64a;" horiz-adv-x="2359" 
d="M2148 303q0 -131 -41.5 -238t-115.5 -192q-90 -104 -216.5 -173.5t-272.5 -106.5q-52 -13 -110 -22.5t-118.5 -14.5t-121.5 -6h-31q-45 0 -89 2q-104 6 -223.5 33t-236.5 75q-75 31 -145 69.5t-128.5 85t-103 100t-69.5 113.5q-14 29 -34 82t-46 110h10
q192 -181 421 -286q66 -30 137 -53.5t145 -40.5t149 -28.5t148 -15.5q33 -2 71 -2q19 0 39 1q61 1 126.5 6.5t133 14.5t129.5 21.5t115 28.5t91 35q55 24 106 58.5t91 71t64 70.5t24 57v6q-1 7 -17 13t-40.5 11t-55 10t-60.5 10t-56.5 11.5t-43.5 14.5q-45 20 -63.5 62.5
t-18.5 100.5q0 57 17 121t46 127q15 34 41.5 75t62 83t77 81.5t87 70.5t92.5 49.5t92 18.5q25 0 43 -11t30 -28.5t18 -39.5t6 -44q0 -5 -3 -34.5t-9.5 -63.5t-18 -61.5t-27.5 -27.5q-3 0 -12 10.5t-19.5 23.5t-22 24t-20.5 12q-5 1 -11 1h-11q-44 0 -87 -19t-82.5 -48
t-73.5 -63t-59 -63.5t-39.5 -50.5t-14.5 -23q-1 -1 -1 -9q0 -18 17.5 -30.5t45 -21.5t60.5 -14.5t64.5 -10.5t57 -9t36.5 -9q29 -13 51.5 -36.5t22.5 -69.5v-6zM1225 -803q-32 -38 -57 -66.5t-42 -48.5q-42 29 -79.5 61.5t-73.5 70.5q22 29 52 66t70 83q38 -35 72 -63.5
t65 -52.5q69 76 99 117q32 -29 70.5 -60.5t86.5 -66.5q-26 -39 -56.5 -78t-64.5 -78q-42 29 -76.5 58t-65.5 58z" />
    <glyph glyph-name="afii57414" unicode="&#x626;" horiz-adv-x="2359" 
d="M2148 303q0 -131 -41.5 -238t-115.5 -192q-90 -104 -216.5 -173.5t-272.5 -106.5q-52 -13 -110 -22.5t-118.5 -14.5t-121.5 -6h-31q-45 0 -89 2q-104 6 -223.5 33t-236.5 75q-75 31 -145 69.5t-128.5 85t-103 100t-69.5 113.5q-14 29 -34 82t-46 110h10
q192 -181 421 -286q66 -30 137 -53.5t145 -40.5t149 -28.5t148 -15.5q33 -2 71 -2q19 0 39 1q61 1 126.5 6.5t133 14.5t129.5 21.5t115 28.5t91 35q55 24 106 58.5t91 71t64 70.5t24 57v6q-1 7 -17 13t-40.5 11t-55 10t-60.5 10t-56.5 11.5t-43.5 14.5q-45 20 -63.5 62.5
t-18.5 100.5q0 57 17 121t46 127q15 34 41.5 75t62 83t77 81.5t87 70.5t92.5 49.5t92 18.5q25 0 43 -11t30 -28.5t18 -39.5t6 -44q0 -5 -3 -34.5t-9.5 -63.5t-18 -61.5t-27.5 -27.5q-3 0 -12 10.5t-19.5 23.5t-22 24t-20.5 12q-5 1 -11 1h-11q-44 0 -87 -19t-82.5 -48
t-73.5 -63t-59 -63.5t-39.5 -50.5t-14.5 -23q-1 -1 -1 -9q0 -18 17.5 -30.5t45 -21.5t60.5 -14.5t64.5 -10.5t57 -9t36.5 -9q29 -13 51.5 -36.5t22.5 -69.5v-6zM862 978q2 -8 4 -13.5t4 -9.5q1 -2 1.5 -4t1.5 -4q0 -5 -4 -5q-5 0 -14.5 5t-22.5 10.5t-28.5 10.5t-33.5 5
q-24 0 -46 -6.5t-36 -20.5q2 -22 13 -41.5t28 -34.5t39.5 -23.5t48.5 -8.5q51 10 88.5 19.5t61.5 18.5q-5 -112 -107 -146q-42 -14 -70.5 -22t-50.5 -14.5t-40 -12t-38 -15t-46.5 -24t-64.5 -37.5q-21 -12 -32 -12q-13 0 -13 19q0 10 1 11q29 29 54.5 50.5t50.5 36.5l35 30
q-12 16 -23.5 40.5t-22.5 56.5q1 10 5 29.5t12 43.5t20 49t28 45.5t37.5 33.5t47.5 13q16 0 33 -6t32 -16t27.5 -23t19.5 -28z" />
    <glyph glyph-name="sf269" unicode="&#x6d2;" horiz-adv-x="2203" 
d="M504 103q99 0 173 -0.5t134 -0.5t105.5 -0.5t87.5 -0.5q47 0 92.5 1t99.5 3t122.5 5t161 8t215 12t284.5 16q37 4 80 13t93 12q-10 -27 -33.5 -47t-54 -41t-63 -41t-55.5 -35q-1 -1 -11 -7q-39 -5 -119 -12.5t-187.5 -15.5t-236 -16.5t-262 -15.5t-264.5 -11.5t-244 -5.5
h-45q-87 0 -157 3q-89 4 -137 14q-26 6 -53 11.5t-53 15t-49.5 24t-41.5 38.5q-5 6 -10.5 15t-5.5 19q0 7 6 17q45 66 83.5 114.5t69 81.5t50 52t27.5 26q30 28 67.5 49.5t77 38t79.5 30.5t75 28q51 21 90.5 44.5t73.5 54t64 70t59 92.5q21 33 49 40q7 1 13 1q22 0 43 -16
q6 -11 9.5 -17.5t10.5 -26.5t20 -62t39 -123q0 -6 -5.5 -22.5t-14.5 -39.5t-19.5 -48t-21.5 -45.5t-23 -35.5q-7 -9 -14 -9q-5 0 -11 5q-21 74 -34 119t-21.5 69t-14 31t-7.5 7q-8 0 -15 -6.5t-14 -16.5t-12.5 -21.5t-10.5 -19.5q-27 -42 -67 -82t-88 -73.5t-102 -57
t-110 -31.5q-52 -6 -85.5 -10t-57 -11.5t-42 -21t-39.5 -37.5q-1 -1 -1 -3q0 -1 1 -2q1 -3 5 -7q23 -26 52.5 -41.5t63.5 -24t69 -12.5t67 -7z" />
    <glyph glyph-name="sf269.002" unicode="&#x6d3;" horiz-adv-x="2203" 
d="M679 960q7 19 14.5 42t16.5 46.5t21 45t28 37.5q16 14 36 24t43 14q9 1 19 1q13 0 26 -2q23 -5 46 -20q0 -10 -4 -22t-9.5 -26.5t-11.5 -27.5t-12 -23q-9 -11 -18 -11q-7 0 -14 7q-13 11 -28 14h-11q-10 0 -18 -2q-15 -4 -28.5 -13t-23.5 -19q3 -14 19 -25.5t36.5 -18
t41.5 -9.5t32 -3q31 2 64 12.5t63 22.5q10 4 16 4t6 -5q0 -4 -4 -12q-12 -21 -24.5 -41t-30.5 -47q-38 -13 -75.5 -23.5t-71.5 -25t-64.5 -35t-51.5 -49.5q-3 -7 -16 -8q-1 -1 -2 -1q-7 0 -7 6q0 3 1 7q4 29 16.5 54t27.5 52v1q-18 13 -34 32q-14 16 -14 41v6zM504 103
q99 0 173 -0.5t134 -0.5t105.5 -0.5t87.5 -0.5q47 0 92.5 1t99.5 3t122.5 5t161 8t215 12t284.5 16q37 4 80 13t93 12q-10 -27 -33.5 -47t-54 -41t-63 -41t-55.5 -35q-1 -1 -11 -7q-39 -5 -119 -12.5t-187.5 -15.5t-236 -16.5t-262 -15.5t-264.5 -11.5t-244 -5.5h-45
q-87 0 -157 3q-89 4 -137 14q-26 6 -53 11.5t-53 15t-49.5 24t-41.5 38.5q-5 6 -10.5 15t-5.5 19q0 7 6 17q45 66 83.5 114.5t69 81.5t50 52t27.5 26q30 28 67.5 49.5t77 38t79.5 30.5t75 28q51 21 90.5 44.5t73.5 54t64 70t59 92.5q21 33 49 40q7 1 13 1q22 0 43 -16
q6 -11 9.5 -17.5t10.5 -26.5t20 -62t39 -123q0 -6 -5.5 -22.5t-14.5 -39.5t-19.5 -48t-21.5 -45.5t-23 -35.5q-7 -9 -14 -9q-5 0 -11 5q-21 74 -34 119t-21.5 69t-14 31t-7.5 7q-8 0 -15 -6.5t-14 -16.5t-12.5 -21.5t-10.5 -19.5q-27 -42 -67 -82t-88 -73.5t-102 -57
t-110 -31.5q-52 -6 -85.5 -10t-57 -11.5t-42 -21t-39.5 -37.5q-1 -1 -1 -3q0 -1 1 -2q1 -3 5 -7q23 -26 52.5 -41.5t63.5 -24t69 -12.5t67 -7z" />
    <glyph glyph-name="glyph73" horiz-adv-x="409" 
d="M212 705q3 12 11 12q6 0 14 -5q23 -30 41.5 -70t32.5 -85q17 -57 29 -115q8 -41 8 -81q0 -17 -1 -34q-8 -95 -36.5 -158t-75.5 -100.5t-111.5 -53t-143.5 -15.5v256q30 0 75 2t88 10q22 4 43 10.5t37 16t26 22t10 29.5q0 15 -8.5 35t-21 40t-26 38.5t-23.5 30.5
q1 34 5 60.5t9 50.5t10 48.5t8 55.5zM264 -475q-31 -36 -80 -36q-54 0 -92 46q-38 45 -38 110q0 82 63 147l47 49q20 21 20 68v6q0 3 -1 9q-1 8 -1 15q0 6 -1 13h15q6 -47 6 -63q0 -77 -38 -166l-30 -72q-14 -26 -14 -58q0 -35 20 -58q21 -23 51 -23q25 0 41 15t16 37
q0 18 -13 29l-20 13q-22 15 -22 45q0 21 12.5 36t30.5 15q25 0 43 -25q17 -26 17 -63q0 -53 -32 -89z" />
    <glyph glyph-name="sf325.001" horiz-adv-x="1141" 
d="M1160 0q-70 0 -118 17t-80.5 48.5t-52 77t-32.5 102.5q-36 -172 -110 -263t-198 -109q-28 -4 -70.5 -7t-90 -4.5t-95.5 -1.5q-16 -1 -31 -1q-30 0 -55 1q-39 1 -63.5 3t-25.5 6q2 14 8 24t19 15q31 8 75.5 23t91.5 32t91.5 34.5t76.5 31.5q40 18 90.5 50t95 81t75 117.5
t31.5 158.5v17q0 72 -7 144q-9 80 -21 155t-25 143t-20 125q-3 25 -4 46t-1 41q0 25 5.5 62t14 71t18 58t18.5 24q7 0 13 -16q17 -89 30 -158.5t23 -128.5t19.5 -112.5t18.5 -111.5t20 -125.5t25 -154.5q8 -44 23.5 -90t43.5 -83.5t70 -61.5t104 -24v-256zM647 144l-24 2
q-2 57 -14 117.5t-35 124.5q-23 59 -58 112t-74.5 100.5t-80 88.5t-74.5 77q-8 -19 -19.5 -47t-27.5 -68q-9 5 -11 53q-20 104 -142 234l27 196q37 -17 81.5 -51t98.5 -84q72 -68 138 -141.5t116.5 -157.5t80 -180.5t29.5 -211.5q0 -39 -3 -80t-8 -84z" />
    <glyph glyph-name="sf268.001" horiz-adv-x="412" 
d="M181 1439q9 -37 16 -76.5t16.5 -78.5t25 -74.5t42.5 -66.5q6 -13 6 -22t-4 -16.5t-12 -16.5t-18 -20.5t-23 -29.5q7 -40 13 -94.5t11.5 -118.5t8.5 -134.5t3 -143.5q0 -80 -6 -156.5t-19 -141t-32.5 -113.5t-46.5 -73h-1q-6 0 -15 14q6 33 10.5 74t4.5 94q0 160 -12 296
t-27 252.5t-27.5 216t-12.5 187.5q0 30 3.5 76.5t12.5 92.5t22.5 82.5t33.5 44.5h2q13 0 25 -54zM542 1772q-20 -44 -47 -83t-63 -67.5t-80 -43.5q-36 -12 -77 -12q-11 0 -23 1q-27 2 -54.5 7.5t-56.5 15.5q-10 3 -18.5 5t-16.5 3h-7q-65 0 -189 -90q-2 -2 -7 -2q-7 1 -13 6
q-5 4 -5 10v2q1 12 4.5 22t12.5 23.5t24.5 32.5t41.5 48q35 40 83 57q36 13 84 13q14 0 29 -1q12 -1 32.5 -5t43 -9t43 -9t32.5 -5h13q35 0 64 13q34 15 61 34.5t45 35.5q17 15 26 15h1l6 -1q12 -5 12 -13z" />
    <glyph glyph-name="sf308" unicode="&#x61f;" horiz-adv-x="882" 
d="M450 298q18 41 18 82q0 49 -22.5 86t-95.5 107q-67 65 -96 97.5t-53 71.5q-46 77 -46 165q0 147 95 252.5t227 105.5q65 0 122.5 -26.5t97.5 -75.5q27 -33 43.5 -75.5t16.5 -77.5q0 -76 -45.5 -133.5t-106.5 -57.5q-41 0 -69.5 29.5t-28.5 71.5q0 45 29 75.5t71 30.5
q28 0 58 -9q12 -3 19 -3q17 0 17 19q0 17 -15 45t-36 51q-60 67 -143 67q-84 0 -138 -60q-47 -54 -47 -138q0 -52 23 -108q15 -38 73 -131q69 -109 92.5 -170.5t23.5 -129.5q0 -83 -25 -165q0 -2 -2 -7zM571 88q0 -41 -29.5 -70.5t-70.5 -29.5q-42 0 -71.5 29.5t-29.5 71.5
t29.5 71t70.5 29q43 0 72 -29t29 -72z" />
    <glyph glyph-name="sf333" unicode="&#x61b;" horiz-adv-x="590" 
d="M415 88q0 -41 -29 -69.5t-69 -28.5q-41 0 -70 29t-29 70q0 40 29 69t69 29q42 0 70.5 -29t28.5 -70zM256 538q30 22 47.5 29.5t39.5 7.5q50 0 85 -38t35 -92q0 -58 -35.5 -93.5t-92.5 -35.5q-85 0 -148 86t-63 203q0 57 25 122.5t70 125.5q64 85 98 85q8 0 13.5 -5.5
t5.5 -14.5q0 -6 -5 -13t-28 -34q-42 -49 -65.5 -102.5t-23.5 -103.5q0 -31 11.5 -66t30.5 -61z" />
    <glyph glyph-name="sf272" unicode=":" horiz-adv-x="590" 
d="M388 784q0 -40 -28.5 -68.5t-69.5 -28.5t-69.5 28.5t-28.5 69.5t28.5 70t69.5 29t69.5 -29t28.5 -71zM388 88q0 -40 -29 -69t-70 -29t-69.5 29t-28.5 70q0 40 28.5 69t69.5 29t70 -29t29 -70z" />
    <glyph glyph-name="sf273" unicode="," horiz-adv-x="421" 
d="M346 10q5 -22 5 -46q0 -31 -9 -63q-15 -57 -46 -111t-73 -103t-85 -88q-14 -10 -27 -16q-10 -4 -16 -4h-3q-5 1 -5 6q0 2 1 4q2 9 19 30q22 28 45 54.5t42.5 54.5t34.5 58.5t21 67.5q1 9 1 20v12q-1 17 -6 33t-15 26.5t-28 10.5q-9 -6 -19.5 -22.5t-21.5 -34.5t-22.5 -32
t-21.5 -14q-11 1 -19.5 14t-15 29.5t-9.5 33.5q-2 13 -2 21v5q2 23 20 49t40 57q27 30 60 40q17 5 33 5q15 0 30 -4q31 -9 56 -33t36 -60z" />
    <glyph glyph-name="sf275" horiz-adv-x="645" 
d="M419 87q0 -41 -29.5 -70t-71.5 -29q-41 0 -70.5 29.5t-29.5 70.5q0 42 29.5 71.5t70.5 29.5q42 0 71.5 -29.5t29.5 -72.5zM291 279q0 109 -9 194l-6 49l-5 44q-1 11 -7 53l-7 43q-4 28 -15 92l-14 81q-22 132 -22 204q0 111 28.5 169.5t82.5 58.5t82.5 -58.5t28.5 -169.5
q0 -72 -23 -204l-14 -81q-10 -64 -14 -92l-7 -43q-6 -42 -7 -53l-5 -44l-6 -49q-9 -85 -9 -194h-52z" />
    <glyph glyph-name="sf257" unicode="%" horiz-adv-x="1024" 
d="M220 -132l561 1467l86 -34l-560 -1467zM939 52q0 -41 -29.5 -70.5t-70.5 -29.5q-42 0 -71.5 29.5t-29.5 71.5q0 41 29.5 70.5t70.5 29.5q43 0 72 -29.5t29 -71.5zM321 1135q0 -40 -29.5 -69.5t-70.5 -29.5q-42 0 -71.5 29.5t-29.5 71.5q0 41 29.5 70.5t70.5 29.5
q43 0 72 -29.5t29 -72.5z" />
    <glyph glyph-name="sf258.001" unicode="*" horiz-adv-x="1130" 
d="M483 522l-13 -11q-130 36 -205 92.5t-75 119.5q0 33 24.5 56.5t58.5 23.5q87 0 162 -147q39 -77 48 -134zM570 522q37 0 62.5 -28t25.5 -69q0 -38 -25 -63t-64 -25q-41 0 -67.5 26.5t-26.5 67.5q0 38 27.5 64.5t67.5 26.5zM559 554q-39 73 -60.5 138t-21.5 112
q0 57 23.5 88.5t67.5 31.5q43 0 66.5 -31.5t23.5 -88.5q0 -47 -21.5 -112t-60.5 -138h-17zM654 521q5 35 24.5 83t47.5 93q31 51 66 78t68 27q36 0 61.5 -23.5t25.5 -57.5q0 -83 -128 -151q-85 -46 -153 -59zM648 328l12 10q67 -13 153 -58q127 -69 127 -152
q0 -34 -25.5 -57.5t-60.5 -23.5q-34 0 -69 27.5t-66 77.5q-28 45 -47.5 94t-23.5 82zM486 330q-4 -33 -24 -81.5t-48 -94.5q-31 -49 -66 -76.5t-69 -27.5q-36 0 -61 23.5t-25 57.5q0 83 128 151q85 46 153 58zM557 296h17q39 -73 60.5 -138.5t21.5 -111.5q0 -58 -23.5 -89.5
t-67.5 -31.5q-43 0 -66.5 31.5t-23.5 89.5q0 46 21.5 111.5t60.5 138.5zM438 421q-73 -39 -138 -60.5t-112 -21.5q-57 0 -88.5 23.5t-31.5 66.5t31.5 67t88.5 24q47 0 112 -21.5t138 -60.5v-17zM692 432q73 39 138.5 60.5t111.5 21.5q58 0 89.5 -24t31.5 -67t-31.5 -66.5
t-89.5 -23.5q-46 0 -111.5 21.5t-138.5 60.5v17z" />
    <glyph glyph-name="sf258.001" unicode="&#x66d;" horiz-adv-x="1130" 
d="M483 522l-13 -11q-130 36 -205 92.5t-75 119.5q0 33 24.5 56.5t58.5 23.5q87 0 162 -147q39 -77 48 -134zM570 522q37 0 62.5 -28t25.5 -69q0 -38 -25 -63t-64 -25q-41 0 -67.5 26.5t-26.5 67.5q0 38 27.5 64.5t67.5 26.5zM559 554q-39 73 -60.5 138t-21.5 112
q0 57 23.5 88.5t67.5 31.5q43 0 66.5 -31.5t23.5 -88.5q0 -47 -21.5 -112t-60.5 -138h-17zM654 521q5 35 24.5 83t47.5 93q31 51 66 78t68 27q36 0 61.5 -23.5t25.5 -57.5q0 -83 -128 -151q-85 -46 -153 -59zM648 328l12 10q67 -13 153 -58q127 -69 127 -152
q0 -34 -25.5 -57.5t-60.5 -23.5q-34 0 -69 27.5t-66 77.5q-28 45 -47.5 94t-23.5 82zM486 330q-4 -33 -24 -81.5t-48 -94.5q-31 -49 -66 -76.5t-69 -27.5q-36 0 -61 23.5t-25 57.5q0 83 128 151q85 46 153 58zM557 296h17q39 -73 60.5 -138.5t21.5 -111.5q0 -58 -23.5 -89.5
t-67.5 -31.5q-43 0 -66.5 31.5t-23.5 89.5q0 46 21.5 111.5t60.5 138.5zM438 421q-73 -39 -138 -60.5t-112 -21.5q-57 0 -88.5 23.5t-31.5 66.5t31.5 67t88.5 24q47 0 112 -21.5t138 -60.5v-17zM692 432q73 39 138.5 60.5t111.5 21.5q58 0 89.5 -24t31.5 -67t-31.5 -66.5
t-89.5 -23.5q-46 0 -111.5 21.5t-138.5 60.5v17z" />
    <glyph glyph-name="sf259.001" unicode="@" horiz-adv-x="1325" 
d="M753 254q2 37 2.5 73.5t0.5 75.5q0 33 -0.5 66t-0.5 65v44q0 12 -0.5 23t-0.5 23v2q-3 25 -14 43.5t-27.5 30.5t-36.5 18.5t-41 6.5q-22 0 -43.5 -7t-38.5 -20.5t-27.5 -34t-11.5 -46.5v-43q0 -10 -0.5 -21t-0.5 -23q-1 -23 -1 -48v-141q0 -23 0.5 -43t1.5 -38
q1 -27 12 -47t28 -33.5t37.5 -20t41.5 -6.5t41.5 6.5t37.5 19t28 31.5t13 44zM1216 853q8 -17 14 -49t10.5 -75.5t6.5 -94.5t2 -107q0 -53 -2 -107.5t-6.5 -107t-11.5 -102t-16 -91.5q-14 -40 -33.5 -77t-46.5 -67.5t-61.5 -53t-79.5 -33.5q-24 -6 -54 -6q-32 0 -62.5 8.5
t-55.5 27t-43.5 46t-25.5 63.5l-3 4l-7 2l-4 -1q-32 -29 -72.5 -45t-83.5 -16q-64 0 -116 33q-30 17 -55 42.5t-43.5 56t-30.5 64.5t-16 69q-2 44 -2 85v169q0 41 1 83v58q4 45 19 87t41 77.5t61 62t78 39.5h1q15 6 30.5 8t31.5 2q45 0 87 -17t75 -48h5l7 4l2 3v17
q0 1 -0.5 4t-0.5 4v30h92q9 0 17.5 -0.5t17.5 -0.5h51q2 -67 2.5 -128.5t0.5 -126.5v-513q3 -51 28.5 -74.5t58.5 -23.5q21 0 41.5 8.5t38.5 24.5t31 39.5t17 53.5q11 82 16 168t5 175q0 128 -11 250v2q-10 48 -33.5 95.5t-57.5 86t-78 65.5t-97 35h-1q-26 0 -52 0.5
t-52 1.5h-49q-36 1 -71.5 1.5t-70.5 0.5q-50 0 -99 -1t-98 -6h-2q-48 -10 -85 -36t-65 -63t-48.5 -81.5t-33.5 -92.5q-10 -73 -13.5 -146.5t-3.5 -148.5q0 -56 1.5 -112t2.5 -111q1 -17 1 -33t1 -32q1 -15 1.5 -30.5t0.5 -30.5q3 -46 14.5 -97.5t34 -96t57.5 -77.5t86 -43h2
q111 -10 219 -17t219 -7q70 0 137 3.5t134 10.5q41 6 69.5 30t51.5 53q4 -2 8.5 -3t9.5 -3l12 -3v-1q13 -6 24.5 -10t16.5 -9q-13 -24 -31 -46.5t-40 -42t-48.5 -34t-56.5 -20.5q-14 -1 -28 -1q-13 0 -27 -1q-9 0 -17.5 -0.5t-17.5 -0.5q-14 -1 -27 -1t-28 -1
q-60 -1 -122.5 -2.5t-124.5 -1.5q-97 0 -193 5t-193 19q-60 22 -103 68t-71 105t-41.5 124t-14.5 125q2 30 2.5 61.5t0.5 64.5v118q0 13 -1 26q0 13 -1 26t-1 26q0 82 2.5 160.5t9.5 159.5q13 66 39.5 124t66.5 103.5t93 76t119 41.5q29 1 57.5 1.5t57.5 0.5q33 0 66.5 -0.5
t66.5 -1.5q17 0 33.5 -0.5t33.5 -0.5q49 0 98 -0.5t98 -0.5q56 -6 104 -31t86.5 -62.5t67.5 -84.5t46 -98z" />
    <glyph glyph-name="sf260.002" unicode="[" horiz-adv-x="678" 
d="M103 -144v1426h443v-94h-296v-1237h297v-95h-444z" />
    <glyph glyph-name="sf262.001" horiz-adv-x="1025" 
d="M119 431v93h787v-93h-787zM611 749q0 -40 -29 -68.5t-69 -28.5q-41 0 -70 28.5t-29 69.5t29 69.5t70 28.5t69.5 -28.5t28.5 -70.5zM611 204q0 -40 -29 -68.5t-69 -28.5q-41 0 -70 28.5t-29 69.5t29 70t70 29t69.5 -29t28.5 -71z" />
    <glyph glyph-name="sf263.001" unicode="$" horiz-adv-x="1025" 
d="M473 148v391q-136 77 -195.5 151t-59.5 167q0 121 78 212q34 40 74.5 63.5t102.5 37.5v89h94v-92q109 -18 178 -84l20 -180q-43 40 -90 64t-108 39v-338q127 -71 186 -152t59 -183q0 -57 -20.5 -115t-56.5 -102q-29 -36 -66 -61t-102 -53v-88h-94v72q-79 10 -129 29
t-119 66l-29 202q82 -64 142 -93.5t135 -41.5zM567 157q43 13 81 39q56 40 56 99q0 49 -41 102q-20 26 -36.5 40.5t-59.5 43.5v-324zM473 708v304q-61 -3 -104 -40.5t-43 -86.5q0 -42 29 -80t97 -83z" />
    <glyph glyph-name="sf264.001" unicode="=" horiz-adv-x="1025" 
d="M118 656h789v-91h-789v91zM118 386h789v-92h-789v92z" />
    <glyph glyph-name="sf268.002" unicode="-" horiz-adv-x="1025" 
d="M119 524h787v-96h-787v96z" />
    <glyph glyph-name="sf269.001" horiz-adv-x="1024" 
d="M515 551l346 346l66 -67l-348 -348l346 -347l-66 -66l-345 348l-351 -347l-66 66l349 348l-347 348l69 67z" />
    <glyph glyph-name="sf270.005" unicode="(" horiz-adv-x="677" 
d="M520 -156q-98 79 -160 144.5t-115 144.5q-138 207 -138 431q0 101 29.5 203.5t86.5 196.5q48 81 131 167t186 162l44 -40l-16 -18q-75 -84 -124 -155.5t-89 -152.5q-45 -92 -69 -185.5t-24 -176.5q0 -96 28 -207q20 -80 61.5 -165.5t95.5 -160.5q66 -91 120 -148z" />
    <glyph glyph-name="sf271.001" unicode="+" horiz-adv-x="1024" 
d="M559 525h347v-95h-347v-349h-95v349h-345v95h345v347l95 -1v-346z" />
    <glyph glyph-name="sf273.001" unicode="/" horiz-adv-x="1024" 
d="M486 -281l-90 28l506 1630l84 -30z" />
    <glyph glyph-name="sf274.001" unicode="&#x640;" horiz-adv-x="571" 
d="M580 256l1 -256q-591 0 -597 1l1 255h595z" />
    <glyph glyph-name="sf274.001" unicode="&#x6d4;" horiz-adv-x="571" 
d="M580 256l1 -256q-591 0 -597 1l1 255h595z" />
    <glyph glyph-name="sf264.002.24428116" unicode="#" horiz-adv-x="1422" 
d="M526 295l5 -5h294l5 5l26 290l-5 5h-296l-5 -5zM369 290l5 5l26 290l-5 5h-325v150h338l5 5l30 330l149 -14l-29 -316l5 -5h296l5 5l31 336l148 -13l-27 -323l5 -5h315v-150h-332l-5 -5l-22 -290l5 -5h354v-148h-368l-5 -5l-31 -343l-151 14l31 329l-5 5h-295l-5 -5
l-32 -352l-149 14l30 338l-6 5h-285v148h299z" />
    <glyph glyph-name="sf270.008" unicode=")" horiz-adv-x="677" 
d="M171 -155l-46 41q53 56 119 148q54 74 95.5 160t61.5 166q28 110 28 207q0 82 -24 176t-69 186q-40 81 -89 152t-124 156l-16 18l44 39q103 -76 186 -161.5t131 -166.5q57 -94 86.5 -197t29.5 -203q0 -224 -138 -432q-52 -78 -114.5 -143.5t-160.5 -145.5z" />
    <glyph glyph-name="sf260.003" unicode="]" horiz-adv-x="678" 
d="M574 -144h-443v95h297v1237h-296v94h442v-1426z" />
    <glyph glyph-name="a" unicode="a" horiz-adv-x="1001" 
d="M728 224q0 27 -1 53t-6 55q-5 38 -26.5 68.5t-52 51.5t-66.5 32t-71 11q-37 0 -70.5 -12.5t-61.5 -33.5t-50 -49.5t-35 -61.5q-9 -22 -12.5 -48t-3.5 -55q0 -34 4 -65t11 -56q10 -35 31.5 -64t50 -50t63 -32.5t70.5 -11.5q39 0 76 11t67.5 33t51.5 54t29 73v11
q1 22 1.5 43t0.5 43zM469 669q52 0 100 -17t86 -52l8 -8v-1q2 -2 2.5 -3t2.5 -3q11 -11 22.5 -22t16.5 -13l5 1l13 9l2 4v105h174v-888h-174v101l-3 5l-18 7l-6 -2q-41 -50 -95 -80.5t-120 -30.5q-68 0 -129.5 24.5t-111.5 66.5t-85.5 98.5t-50.5 120.5v2q-2 6 -3.5 18
t-2.5 35.5t-1.5 62t-0.5 98.5q0 69 32 134t84.5 115.5t118.5 81.5t134 31z" />
    <glyph glyph-name="b" unicode="b" horiz-adv-x="1000" 
d="M273 227q0 -26 1 -53t6 -54q6 -39 27 -69.5t51 -51.5t66 -32t72 -11q37 0 70.5 12t62 33.5t50 50t34.5 61.5q9 21 12.5 48t3.5 56q0 33 -4 64t-11 56q-10 36 -31 65t-49.5 49.5t-62.5 32t-70 11.5q-39 0 -76.5 -11.5t-68.5 -33t-52.5 -53.5t-28.5 -73v-17
q-1 -20 -1.5 -40t-0.5 -40zM532 -219q-105 0 -188 69l-10 11v1l-1 1l-8 8l-5 4q-9 10 -17 18t-15 8l-4 -2l-10 -11l-1 -3v-104h-173v1362h173v-575l3 -5l18 -6l6 2q41 50 95.5 80.5t120.5 30.5q68 0 129.5 -25t111.5 -68t85.5 -100t52.5 -121q1 -5 1.5 -16t1.5 -34.5
t1.5 -62.5t0.5 -100q0 -69 -32 -134t-84 -115.5t-118 -81.5t-134 -31z" />
    <glyph glyph-name="c" unicode="c" horiz-adv-x="950" 
d="M75 228q0 53 7 102.5t27 97.5q23 55 62 100t88 76t106 48t117 17q71 0 138.5 -20.5t122 -59.5t91.5 -94.5t46 -124.5h-186q-26 59 -82.5 93t-123.5 34h-8q-35 -1 -69.5 -12.5t-64 -32t-51 -49.5t-30.5 -65q-6 -25 -10 -54t-4 -61q0 -59 14 -104l5 -4h-3q12 -36 33 -66
t49.5 -51t63.5 -33t74 -12q63 0 116.5 25t76.5 82l185 -1q-11 -59 -41.5 -108t-74.5 -85.5t-99.5 -58.5t-116.5 -26q-37 0 -63 1.5t-43.5 3t-27.5 3.5t-14 3q-50 12 -96 37.5t-84.5 61t-67 79.5t-41.5 94q-12 44 -16.5 83t-4.5 81z" />
    <glyph glyph-name="sf256.002" unicode="d" horiz-adv-x="953" 
d="M484 -44q36 0 72 11t66.5 32t51.5 51t26 69q5 28 6 55t1 53q0 20 -0.5 40t-1.5 40v17q-7 41 -28.5 73t-52.5 53.5t-68 33t-75 11.5q-36 0 -70.5 -11.5t-63 -32.5t-50 -50t-31.5 -64q-7 -25 -11 -56t-4 -64q0 -29 3.5 -56t12.5 -48q13 -33 35 -61.5t50 -50t61.5 -33.5
t70.5 -12zM448 -219q-68 0 -134 31t-118 81.5t-84 115.5t-32 134v100q0 80 28.5 157t79.5 137t121.5 96.5t154.5 36.5q66 0 120 -30t96 -81l6 -2l18 6l3 5v575h173v-1362h-173v104l-1 3l-10 11l-4 2q-26 -26 -53.5 -48t-57.5 -38.5t-63 -25.5q-30 -8 -63 -8h-7z" />
    <glyph glyph-name="e" unicode="e" horiz-adv-x="985" 
d="M481 500q-37 0 -73.5 -12.5t-66 -35t-50 -54t-25.5 -69.5l1 -4l10 -12l4 -2h404l4 2l10 11l1 3q0 43 -19.5 75.5t-50 54.5t-69 32.5t-75.5 10.5h-5zM82 239q0 42 4 81t18 77h-3l5 4q18 60 56 110.5t88.5 86.5t110.5 56t123 20q118 0 214 -55t154 -160q11 -21 22 -50.5
t11 -54.5v-155h-617q0 -47 16.5 -91t46.5 -78t71.5 -54t92.5 -20q68 0 120 16t89 68h168q-13 -63 -49.5 -111.5t-88.5 -81t-115 -49.5t-128 -17q-64 0 -124 19.5t-110 54.5t-88.5 85t-59.5 111v1q-17 45 -22 92t-5 95z" />
    <glyph glyph-name="f" unicode="f" horiz-adv-x="647" 
d="M40 551v124h165l4 2l10 11l1 3v10q0 2 0.5 5t0.5 6q2 54 6.5 106t23.5 105q78 208 301 208h9q8 0 19 0.5t22.5 1.5t19.5 2v-176q-12 5 -33 6.5t-45 1.5q-29 0 -55 -15t-45.5 -38t-31 -52t-11.5 -57v-114l1 -3l10 -11l4 -2h206v-124h-221v-770h-176l-1 770h-184z" />
    <glyph glyph-name="g" unicode="g" horiz-adv-x="924" 
d="M661 330q-5 39 -26.5 69.5t-52 51.5t-67 32t-70.5 11q-36 0 -70 -12.5t-62.5 -33.5t-50.5 -49.5t-35 -60.5q-9 -22 -12.5 -48t-3.5 -55q0 -34 4 -65.5t11 -56.5q10 -35 31.5 -64t50 -50t63 -32.5t70.5 -11.5q39 0 76.5 11t67.5 33t51.5 54t29.5 73v11q1 21 1.5 41.5
t0.5 40.5q0 29 -1.5 55t-5.5 56zM408 668h13q56 0 103 -24q51 -27 94 -70q8 -10 17 -17.5t17 -7.5l4 1l10 10l1 4v104h174l3 -1021v-1q0 -68 -37 -129t-94.5 -108t-128 -74.5t-137.5 -27.5q-68 0 -133.5 21.5t-119 60.5t-91 93t-49.5 119h182q10 -32 33 -54.5t52.5 -37
t63.5 -21t67 -6.5h22q36 7 71 23.5t62.5 41.5t44 58t16.5 74l-1 202l-3 5l-18 7l-6 -2q-42 -51 -96 -81t-120 -30q-67 0 -128.5 24.5t-111.5 66.5t-85.5 98.5t-50.5 120.5l-1 3l-1 1q-3 7 -4.5 30t-1.5 82v100q0 69 32 134.5t84 116t118 81t134 30.5z" />
    <glyph glyph-name="h" unicode="h" horiz-adv-x="989" 
d="M280 558l4 -5l19 -5l5 2q32 55 88 84t117 29q64 0 125.5 -21.5t113 -59.5t89 -91t54.5 -116q10 -40 12 -75t2 -76v-442h-179v497q0 43 -19 81t-50.5 66.5t-71 45.5t-79.5 17q-39 0 -79.5 -15.5t-73.5 -42.5t-54 -64.5t-21 -82.5v-503l-179 1l-1 1364h178v-588z" />
    <glyph glyph-name="i" unicode="i" horiz-adv-x="407" 
d="M102 943q0 23 9 43t24 34.5t35.5 22.5t43.5 8t43.5 -8t36 -22.5t24.5 -34t9 -42.5t-9 -43.5t-24 -35.5t-35 -24t-43 -9q-24 0 -44.5 8.5t-36 23.5t-24.5 35.5t-9 43.5zM303 680l1 -899h-174v899h173z" />
    <glyph glyph-name="j" unicode="j" horiz-adv-x="551" 
d="M217 945q1 24 11.5 43.5t27 33.5t37.5 22t44 8q22 0 43 -8.5t36.5 -23.5t25 -35t9.5 -43q0 -24 -9 -43.5t-24.5 -34t-36 -22.5t-43.5 -8t-44.5 7.5t-38.5 21.5t-27.5 33.5t-10.5 43.5v5zM19 -689q-37 0 -71 5t-60 19q17 30 33.5 58t29 49t19.5 34l7 12q9 0 23 -2t26 -2
q38 0 74.5 12t66.5 34.5t51.5 54.5t30.5 71v3q-1 120 -1.5 246t-0.5 244q0 138 -0.5 268t-1.5 269h183v-988q-3 -80 -36.5 -150t-88.5 -123t-128.5 -83.5t-155.5 -30.5z" />
    <glyph glyph-name="k" unicode="k" horiz-adv-x="939" 
d="M274 1145l3 -775l3 -5l18 -8l6 3l401 469h171l-413 -517l-1 -3v-12l1 -3l407 -513h-183l-384 447l-6 2l-18 -7l-3 -5l-2 -437l-173 1l-1 1364z" />
    <glyph glyph-name="l" unicode="l" horiz-adv-x="375" 
d="M100 1146h175v-1365h-175v1365z" />
    <glyph glyph-name="m" unicode="m" horiz-adv-x="1516" 
d="M100 659h172v-125l3 -5l18 -6l6 2q42 59 93.5 94t126.5 35q42 0 83.5 -14t77.5 -38t65 -57t47 -71l5 -3l18 -1l4 3q21 37 47.5 70.5t59.5 59t72.5 40t85.5 14.5q68 0 126 -29.5t101.5 -77.5t70 -109t32.5 -125q1 -34 1.5 -67.5t0.5 -68.5v-399h-173v507q0 41 -16.5 77.5
t-44.5 64t-65.5 43.5t-78.5 16q-37 0 -72 -15t-62.5 -40.5t-44 -59.5t-16.5 -72v-520l-170 -1v524q0 39 -18.5 72t-47.5 57t-65 37.5t-72 13.5q-34 0 -69 -13t-63.5 -36t-47 -55.5t-18.5 -71.5v-528h-172v878z" />
    <glyph glyph-name="n" unicode="n" horiz-adv-x="999" 
d="M275 669v-104l4 -5l19 -5l5 3q31 54 83.5 82.5t114.5 28.5q78 0 146 -28t120.5 -76.5t86 -115t43.5 -143.5q1 -36 1.5 -74t0.5 -80v-371h-173l-2 523v3q-8 39 -29 73.5t-51.5 60t-68 40t-78.5 14.5q-40 0 -80 -16t-71.5 -43.5t-51 -65.5t-19.5 -82l-1 -507h-174v888h175z
" />
    <glyph glyph-name="o" unicode="o" horiz-adv-x="971" 
d="M704 339q-11 36 -33 65.5t-51 50.5t-64 32.5t-72 11.5q-59 0 -101.5 -23.5t-71 -61.5t-42 -86.5t-13.5 -99.5q0 -36 6 -69q6 -44 24 -81.5t46.5 -64.5t67 -42t85.5 -15q60 0 103.5 23t72.5 61.5t43 88.5t14 103q0 29 -3.5 55t-10.5 52zM80 227q0 48 6.5 95t23.5 92
q22 58 60 106t86.5 82t107 53t121.5 19q76 0 147 -28.5t126.5 -78t91 -117.5t40.5 -146q1 -8 1 -16v-48q0 -44 -4 -87.5t-16 -90.5q-17 -61 -55.5 -112.5t-91.5 -89t-115 -58.5t-125 -21q-64 0 -123 19t-109 54.5t-88 86t-59 112.5q-14 42 -19.5 85t-5.5 89z" />
    <glyph glyph-name="q" unicode="q" horiz-adv-x="970" 
d="M690 330q-5 39 -26.5 69.5t-52 51.5t-67 32t-71.5 11q-36 0 -70 -12.5t-62.5 -33.5t-50 -49.5t-34.5 -60.5q-9 -22 -12.5 -48.5t-3.5 -55.5q0 -33 4 -64.5t11 -55.5q9 -36 30.5 -65.5t50 -50t63.5 -32t71 -11.5q39 0 76 11.5t68 33.5t52 54t29 73v11q1 21 1.5 41.5
t0.5 40.5q0 29 -1.5 54.5t-5.5 55.5zM437 669q52 0 98.5 -18t88.5 -53l11 -11q3 -3 6 -6.5t6 -6.5q8 -10 17 -17.5t17 -7.5l4 1l10 10l1 4v105h173l1 -1362h-174v575l-3 5l-18 7l-6 -2q-41 -50 -95.5 -81t-120.5 -31q-68 0 -129.5 25t-111 67.5t-85 99t-51.5 120.5l-5 4h2
q-1 4 -2 14.5t-1.5 34t-0.5 62.5v99q0 70 32 135t84 115t118 81t134 32z" />
    <glyph glyph-name="p" unicode="p" horiz-adv-x="1001" 
d="M497 495q-35 0 -71.5 -11t-67 -32t-52 -51.5t-26.5 -69.5q-5 -28 -6 -54t-1 -53q0 -22 0.5 -43t1.5 -43v-11q7 -41 28.5 -73t52.5 -54t68.5 -33t76.5 -11q36 0 70.5 11t63 32t49.5 50t31 65q7 25 11 56t4 65q0 29 -3.5 55.5t-12.5 48.5q-13 32 -34.5 60.5t-50 49.5
t-62.5 33.5t-70 12.5zM533 669q68 0 134 -30.5t118 -81t84 -116t32 -134.5q0 -62 -0.5 -100.5t-1.5 -62t-2 -34t-2 -16.5q-17 -64 -52.5 -121t-85 -100t-111 -68t-129.5 -25q-66 0 -120.5 31t-95.5 81l-6 2l-18 -7l-3 -5v-575h-174l1 1362h173v-105l3 -5l17 -7l6 1l14 14
l11 11l11 11q3 3 4.5 5.5t3.5 4.5q42 35 89.5 52.5t99.5 17.5z" />
    <glyph glyph-name="r" unicode="r" horiz-adv-x="767" 
d="M661 472q-74 -6 -143 -28t-122 -62.5t-85 -102t-32 -146.5v-352h-178l-1 896h180l-1 -243l4 -5l19 -5l5 2q33 55 77.5 98t96 73.5t109 49.5t117.5 27z" />
    <glyph glyph-name="s" unicode="s" horiz-adv-x="848" 
d="M61 71q19 0 45 0.5t53 1t51 0.5h40q9 -39 36.5 -67t64.5 -43.5t79 -17.5q7 -1 15 -1q34 0 64 10q37 11 65.5 37t38.5 67q0 20 -11.5 35t-28.5 27q-53 23 -109.5 34.5t-113 22t-111.5 25.5t-106 45q-31 21 -47.5 54t-20.5 70q-1 11 -1 22q0 26 7 53q9 37 31 66
q25 40 59.5 70.5t75 51t86 31t92.5 10.5q51 0 100.5 -12t93.5 -35.5t80.5 -58t62.5 -78.5q13 -24 24.5 -49.5t13.5 -54.5q-14 0 -38.5 -0.5t-52.5 -0.5h-97q-9 40 -37 67.5t-65.5 43t-79.5 17.5h-9q-37 0 -70 -11q-38 -13 -66.5 -40t-37.5 -70q0 -22 15 -36.5t35 -22.5
q53 -17 111 -28t115 -25.5t110 -38t95 -65.5q22 -24 37 -52.5t23 -63.5v-14q0 -55 -27 -101q-32 -53 -82 -89.5t-112 -55.5q-56 -18 -108 -18h-11q-56 0 -109.5 14t-100 41.5t-83.5 67.5t-60 91l-15 35t-9 39z" />
    <glyph glyph-name="t" unicode="t" horiz-adv-x="749" 
d="M437 -193q-50 26 -84 70t-52.5 101.5t-24.5 120.5q-1 63 -1.5 124.5t-0.5 124.5t-0.5 122t-2.5 125h-211v125h198l4 1l10 10l1 4v225l179 1v-224l1 -4l10 -10l4 -1h216v-127h-230l-1 -450q0 -46 10 -83t31.5 -63.5t56 -41t82.5 -14.5q21 0 33 2t23 4l1 -139
q-33 -11 -66 -20t-67 -9q-69 0 -119 26z" />
    <glyph glyph-name="u" unicode="u" horiz-adv-x="998" 
d="M723 -219l1 103l-3 5l-19 6l-6 -2q-31 -52 -83 -82t-112 -30h-4q-78 0 -146 28t-120 77t-85.5 115t-43.5 143q0 15 -0.5 31t-1 35t-0.5 42v417l173 -1l1 -522v-3q8 -39 29 -73t52 -59.5t68.5 -40t78.5 -14.5t80.5 16t71 43.5t50.5 65t19 81.5l1 506h174v-887h-175z" />
    <glyph glyph-name="v" unicode="v" horiz-adv-x="1007" 
d="M236.5 -3q-34.5 30 -63.5 60.5t-49 59.5t-21 52q-2 83 -2.5 129t-0.5 75v96q0 8 0.5 16t0.5 18v104q0 14 0.5 28t0.5 35h177l2 -406v-1q0 -23 13 -45.5t34 -44.5t47 -43.5t52 -42.5q5 -5 11 -9t11 -9q11 -9 22 -17.5t22 -19.5l4 -1h15l3 1q11 10 25 21l28 22q5 4 9.5 7
t9.5 7q27 21 53 41.5t46.5 42t33 43.5t12.5 46v164q0 8 -0.5 14.5t-0.5 13.5v216h176v-482q0 -19 -10 -42t-32.5 -51.5t-59 -65t-88.5 -82.5q-30 -24 -55 -43.5t-45 -35.5q-6 -5 -12 -9.5t-11 -8.5q-44 -33 -62.5 -47t-24.5 -19q-6 4 -19 14t-37 28.5t-60.5 46.5t-88.5 69
q-31 25 -65.5 55z" />
    <glyph glyph-name="w" unicode="w" horiz-adv-x="1532" 
d="M853 667q1 -14 1 -25v-183q0 -15 0.5 -31t0.5 -32q0 -17 -0.5 -33t-0.5 -32v-207q13 -80 65.5 -123.5t128.5 -45.5h4q37 0 70.5 13t60 36.5t44 55t22.5 68.5v2l1 537h181q1 -63 1 -120v-122q0 -130 -3 -257q-1 -40 -8.5 -79.5t-23.5 -79.5q-20 -47 -53 -88.5t-75 -72.5
t-90.5 -48.5t-99.5 -17.5h-9q-53 1 -93.5 16t-74 39.5t-62.5 58.5t-58 75l-10 5h-14l-4 -1l-3 -3v-1q-29 -41 -58 -75.5t-62.5 -59.5t-74.5 -39.5t-95 -15.5h-6q-51 0 -100 18t-91.5 49t-75.5 72.5t-52 88.5q-32 79 -33 159q-3 129 -3 257v121q0 57 1 121h182v-539
q5 -37 22.5 -68.5t44 -55t60 -36.5t70.5 -13h4q77 2 129 45.5t65 122.5v475q0 20 0.5 33t1 21t0.5 15h173z" />
    <glyph glyph-name="x" unicode="x" horiz-adv-x="978" 
d="M278 206v16l-212 134v306h182v-212l6 -9l211 -129l12 1l192 129l4 8v212h186v-305l-224 -134v-17l225 -140v-284l-187 -1v196l-4 8l-201 149h-13l-202 -149l-5 -8v-196h-182v291z" />
    <glyph glyph-name="y" unicode="y" horiz-adv-x="969" 
d="M41 -473q8 -1 16 -1q26 0 50 10q32 12 66.5 48.5t72.5 101t83 165.5l-284 810h188l206 -626l280 626h183q-92 -198 -163 -350t-125 -266.5t-92 -195.5t-64.5 -136t-43 -88.5t-26.5 -53.5t-15 -29.5t-9 -17.5q-22 -42 -59.5 -76t-82.5 -56t-92 -30q-24 -5 -45 -5
q-23 0 -44 5v165z" />
    <glyph glyph-name="z" unicode="z" horiz-adv-x="1028" 
d="M107 493l1 178h630q55 0 91.5 -11.5t58.5 -30t31 -41t9 -44.5q0 -26 -7 -47t-17 -32l-591 -479l-2 -6l6 -18l5 -3l599 2l-1 -183l-654 3q-46 1 -77.5 10t-51 24.5t-28.5 35.5t-9 43q0 26 9 54t24 55t35.5 51t43.5 42l471 371l2 6l-6 18l-5 3z" />
    <glyph glyph-name="A" unicode="A" horiz-adv-x="1016" 
d="M504 983q-48 0 -88 -21t-69 -50t-45 -59t-16 -47v-290l10 -10h423l10 10v291q0 23 -18 53.5t-48.5 57.5t-71.5 46t-87 19zM100 798q7 77 43.5 144.5t93 117.5t127.5 79t147 29q77 0 146.5 -27t124 -75.5t89.5 -115t43 -144.5q0 -91 0.5 -176.5t0.5 -171.5q0 -69 0.5 -137
t0.5 -137q0 -97 -0.5 -199t-1.5 -203l-185 -1v534l-10 10h-423l-10 -10v-531l-186 -1v1015z" />
    <glyph glyph-name="B" unicode="B" horiz-adv-x="1059" 
d="M286 540l9 -11q7 -1 19.5 -1.5t29.5 -0.5h72q39 0 73.5 1t51.5 2h1q40 3 75 22t60.5 48.5t40 66.5t14.5 78q-2 75 -31.5 118t-77 64.5t-107 27.5t-121.5 6h-101l-10 -10zM288 -20l9 -10q26 -4 55.5 -6.5t62.5 -2.5q60 0 123 10t115 35.5t85 69.5t35 112v6q0 70 -27 113.5
t-71.5 66.5t-102 31t-119.5 8q-29 0 -59.5 -1t-59.5 -3q-10 -1 -19 -1.5t-18 -0.5l-10 -10zM781 487q83 -53 130.5 -128t47.5 -175v-3q-1 -79 -32.5 -149t-84 -123.5t-122.5 -86t-148 -36.5l-472 -1l3 1364q108 0 187.5 -0.5t136.5 -2t95.5 -4t65 -5.5t44 -7.5t33.5 -10.5h1
q56 -21 102.5 -59t79.5 -87t51.5 -105.5t18.5 -113.5q0 -73 -32.5 -138.5t-104.5 -112.5v-16z" />
    <glyph glyph-name="C" unicode="C" horiz-adv-x="1015" 
d="M501 982q-43 0 -81 -16.5t-67 -44.5t-47.5 -65t-22.5 -78v-616q0 -18 15 -51t43.5 -65.5t69.5 -56t94 -23.5h7q37 0 73 13t65.5 35.5t50 54t28.5 69.5v1q3 22 5 50.5t2 54.5v5h179v-106q0 -22 -4 -46t-10 -43q-21 -62 -60.5 -112t-91.5 -85t-113.5 -54.5t-125.5 -19.5
q-83 0 -155.5 29.5t-127.5 81.5t-88.5 122.5t-38.5 151.5v592q0 23 1 45.5t7 45.5q16 69 53 127t89.5 100.5t117 66t136.5 23.5q69 0 130 -21t111.5 -58.5t88.5 -90.5t62 -116q11 -32 13.5 -66t2.5 -68v-24h-186q-1 2 -1 14q0 22 -1.5 38t-4.5 42v1q-9 37 -30 67t-50.5 51.5
t-65 33t-72.5 11.5z" />
    <glyph glyph-name="D" unicode="D" horiz-adv-x="1038" 
d="M907 335q0 -88 -1 -178q-4 -69 -33 -128.5t-75.5 -106t-107 -78t-126.5 -42.5q-44 -8 -101 -10.5t-120 -2.5q-38 0 -75 0.5t-72 1.5q-29 1 -50 1.5t-46 0.5l1 1351q22 1 38 1h39q48 0 96.5 -0.5t96.5 -1.5q46 -1 90 -1.5t87 -0.5q70 -10 132 -42t110 -80.5t78 -110.5
t38 -132q1 -66 1 -131v-310zM719 778q-6 32 -23 64t-42.5 58t-58 42t-68.5 17h-232l-10 -10l1 -963l10 -11h39q27 0 58 1q29 0 55.5 0.5t37.5 0.5h2q48 0 89 13.5t71.5 40t49.5 64.5t23 88v163q0 108 -0.5 213t-1.5 217v2z" />
    <glyph glyph-name="E" unicode="E" horiz-adv-x="1003" 
d="M287 544l10 -11h536v-180h-536l-10 -10v-368l10 -10h606v-182h-803v1365h803v-180l-606 1l-10 -11v-414z" />
    <glyph glyph-name="F" unicode="F" horiz-adv-x="1005" 
d="M905 961h-610l-10 -10l1 -406l10 -11h539v-181h-540l-10 -10v-560h-185v1365h805v-187z" />
    <glyph glyph-name="G" unicode="G" horiz-adv-x="1013" 
d="M715 -105q-20 -22 -44 -42.5t-50 -36t-54 -24.5t-56 -9q-83 0 -155 29.5t-127 81.5t-89 122.5t-40 151.5v582q0 26 1 50.5t7 50.5q16 69 53.5 127.5t90 100.5t117 65.5t135.5 23.5q70 0 131 -21t111 -58.5t88.5 -90.5t62.5 -116q11 -34 13.5 -70t2.5 -72v-16h-185l-8 94
v1q-9 37 -30 67t-51 51.5t-65.5 33t-72.5 11.5q-44 0 -81.5 -16.5t-66 -44.5t-46.5 -65t-23 -78v-616q0 -19 14.5 -51t42 -63.5t67 -55.5t89.5 -26h1q46 3 84 23t65.5 52.5t42.5 73.5t15 86q0 11 -1 22.5t-3 22.5l-10 9h-102q-1 11 -1.5 26t-0.5 35v65h326v-598h-129
l-10 166l-3 6l-1 1l-7 3l-11 -13q-11 -13 -21 -27h-1q-5 -9 -9.5 -16t-6.5 -9z" />
    <glyph glyph-name="H" unicode="H" horiz-adv-x="1016" 
d="M298 366l-10 -10v-573h-187l-1 1366h188v-588l10 -10h419l10 10v588h189v-1367l-189 1v573l-10 10h-419z" />
    <glyph glyph-name="I" unicode="I" horiz-adv-x="428" 
d="M125 1148h183v-1365h-183v1365z" />
    <glyph glyph-name="J" unicode="J" horiz-adv-x="853" 
d="M289 167v-81q1 -30 13 -53.5t30.5 -39t42 -23.5t47.5 -8q26 0 51.5 9t45.5 27t32.5 44t12.5 61v1045h189v-1074q-2 -63 -30 -116.5t-73 -92.5t-103 -60.5t-118 -21.5h-7q-58 0 -114 17.5t-101 52t-74 86.5t-32 121v107h188z" />
    <glyph glyph-name="K" unicode="K" horiz-adv-x="1018" 
d="M697 1148h220l-401 -681v-11l402 -673h-226l-385 614l-18 -6v-608h-189v1365h188v-625l19 -5z" />
    <glyph glyph-name="L" unicode="L" horiz-adv-x="930" 
d="M287 1148v-1169l10 -10h561l2 -186h-760v1365h187z" />
    <glyph glyph-name="M" unicode="M" horiz-adv-x="1200" 
d="M911 1148h188l1 -1365h-185v746l-19 3l-276 -750l-53 -1l-263 751l-19 -3l1 -746h-186l1 1365h188l293 -855h18z" />
    <glyph glyph-name="N" unicode="N" horiz-adv-x="1038" 
d="M752 1149h186l-2 -1366h-188l-445 904l-19 -4l2 -901l-186 1v1366h190l442 -903l20 4v899z" />
    <glyph glyph-name="O" unicode="O" horiz-adv-x="1006" 
d="M285 184q3 -46 19 -85.5t43.5 -69t66 -46.5t86.5 -17q40 0 77.5 14t68 39.5t51 60.5t25.5 76v139q0 42 0.5 84.5t0.5 84.5v47q0 26 -0.5 51.5t-0.5 49.5v168q-2 38 -17.5 71.5t-41 60t-59 44t-70.5 23.5q-8 1 -15 1.5t-15 0.5q-45 0 -84 -16t-68 -43.5t-46 -65.5t-19 -82
q-2 -42 -3 -92.5t-1 -106.5v-52q0 -27 0.5 -55.5t0.5 -57.5v-53q1 -45 1 -89v-84zM100 353q0 109 0.5 220.5t2.5 221.5q7 76 41.5 144t88.5 119t123.5 80.5t145.5 29.5q86 0 160 -33t128 -89.5t85 -132t31 -159.5v-309q0 -30 -0.5 -60.5t-0.5 -59.5v-172
q-5 -80 -40.5 -147.5t-91.5 -117t-127.5 -77.5t-148.5 -28q-82 0 -154 31.5t-126 85.5t-85.5 127t-31.5 156v170z" />
    <glyph glyph-name="P" unicode="P" horiz-adv-x="1000" 
d="M291 549l8 -10q14 -3 49 -3.5t73 -0.5q39 0 73 1.5t50 2.5h1q40 3 75 22t60.5 48t40 66t14.5 78q0 75 -29 118.5t-76.5 65.5t-107.5 28t-123 6h-98l-10 -11v-411zM323 1149q61 0 121 -0.5t123 -2.5q76 -11 140.5 -45t112 -86.5t74 -120.5t26.5 -146q0 -69 -23.5 -131
t-65 -112.5t-98 -87t-121.5 -55.5q-23 -7 -58.5 -9t-73.5 -2q-16 0 -31.5 0.5t-30.5 0.5q-16 0 -31 0.5t-29 0.5q-21 0 -37 -1t-24 -3l-7 -10q0 -23 0.5 -45.5t0.5 -45.5q0 -60 0.5 -119t0.5 -119t-0.5 -114t-1.5 -113h-190v670q0 54 0.5 107.5t0.5 106.5v482h222z" />
    <glyph glyph-name="Q" unicode="Q" horiz-adv-x="1031" 
d="M287 176q6 -42 24 -79.5t46 -65t65 -44t82 -16.5h19q9 0 19.5 1t20 3.5t15.5 6.5t6 11l-1 5q-15 30 -36 46.5t-44.5 25.5t-49.5 11.5t-51 3.5v-2l-1 -3v1q0 13 16 21.5t37 13.5t41.5 7t30.5 2h4q43 0 75 -16.5t62 -46.5l1 -1l7 -3q8 0 17 14.5t16.5 33.5t12 37t4.5 25
q3 76 4 150t1 149q0 45 -0.5 100t-0.5 101q0 24 -0.5 48.5t-0.5 48.5q0 46 -17.5 86.5t-47.5 71t-70.5 48t-86.5 17.5h-5q-52 -2 -92.5 -22.5t-68 -54.5t-41.5 -78.5t-14 -93.5v-53q0 -24 0.5 -53t0.5 -61v-370q0 -15 1 -26zM684 -175q-5 -2 -8.5 -3t-7.5 -3
q-38 -14 -74.5 -24t-80.5 -11h-9q-84 0 -156 32t-126 87.5t-86 129t-34 156.5v1q-1 11 -1 28v296q0 20 -0.5 40t-0.5 38v201q4 78 38 145.5t87.5 118t122.5 80.5t145 32h10q77 0 146 -26t123 -72.5t90 -111t48 -141.5q1 -29 2 -78.5t1.5 -108t1 -121.5t0.5 -120t-0.5 -106
t-1.5 -81q-2 -48 -11.5 -94t-26 -87t-38.5 -74.5t-49 -55.5l-4 -8v-2l3 -7q14 -12 32 -17.5t36 -5.5h5q19 0 34.5 9t27 23t20 29.5t15.5 29.5l13 26q3 0 5.5 -9t3.5 -21t1.5 -23t0.5 -15v-9q0 -32 -9 -62t-26.5 -53t-43 -37.5t-59.5 -15.5q-24 0 -44.5 8t-37.5 21t-32 30.5
t-28 35.5l-1 1q1 -2 1 -6l-11 12h-2z" />
    <glyph glyph-name="R" unicode="R" horiz-adv-x="1032" 
d="M286 545l8 -11q13 -2 48 -2.5t75 -0.5q39 0 74 1t51 2h1q39 4 72.5 22.5t57.5 46.5t38 64t14 75v6q0 75 -28.5 118.5t-74.5 65t-105.5 27.5t-120.5 6h-100l-10 -10v-410zM847 -219q-15 0 -30 0.5t-29 1.5q-28 23 -43.5 53.5t-23 65.5t-9.5 72.5t-3 74.5q0 8 -0.5 15
t-0.5 14q-2 63 -7 110.5t-24.5 80.5t-59.5 52.5t-112 25.5h-163q-11 0 -22.5 -0.5t-23.5 -1.5l-9 -10v-550h-187v1363q105 0 181 -0.5t129 -1.5t86.5 -2t54.5 -2.5t33.5 -3.5t22.5 -4q69 -17 128 -49.5t102.5 -79.5t68 -108t24.5 -134q0 -105 -55 -187q-53 -83 -149 -126
l-1 -18q63 -38 105 -92.5t46 -127.5v-1q2 -37 3 -72t3 -72l3 -66v-1q9 -63 20.5 -116t26.5 -101q-13 0 -19.5 -0.5t-20.5 -0.5q-11 0 -22.5 -0.5t-22.5 -0.5z" />
    <glyph glyph-name="S" unicode="S" horiz-adv-x="1020" 
d="M283 229v-20q0 -36 16 -78t46 -77.5t74 -59.5t100 -24q27 0 57 6q31 7 57 21.5t45.5 35.5t30.5 48t11 60q0 47 -20 79.5t-54 64.5l-1 1q-5 4 -17 12t-45.5 27t-96.5 53.5t-169 91.5q-43 22 -82.5 55.5t-69.5 74t-47.5 87.5t-17.5 97q0 79 34.5 149t91 122t129.5 82.5
t150 30.5q69 0 134.5 -23t119.5 -64t93 -97.5t56 -124.5q9 -37 10.5 -69.5t1.5 -64.5h-186v22q0 47 -17.5 90t-48.5 75.5t-73 51.5t-91 19q-35 0 -73 -14t-70.5 -38.5t-53.5 -57.5t-21 -71q0 -44 46 -101t154 -125l1 -1q11 -5 22 -11t22 -11q45 -23 91 -47t88.5 -51.5
t80 -59.5t65 -71t43.5 -85.5t16 -102.5q0 -81 -35 -146t-92 -111t-130 -70.5t-148 -24.5q-63 0 -123 19t-111 54t-90.5 84t-60.5 108l-8.5 25.5t-8 33.5t-6 49t-2.5 72h183z" />
    <glyph glyph-name="T" unicode="T" horiz-adv-x="996" 
d="M100 969v179h796v-178h-296l-10 -11v-1176h-185v1175l-10 11h-295z" />
    <glyph glyph-name="U" unicode="U" horiz-adv-x="1009" 
d="M100 1148h187q0 -85 -0.5 -162t-0.5 -160q0 -69 -0.5 -136.5t-0.5 -135.5q0 -97 0.5 -192.5t1.5 -193.5v-1q6 -42 24.5 -78t46.5 -63t64.5 -42t78.5 -15q43 0 83 15.5t71 43t50.5 65t20.5 82.5q1 94 1.5 193.5t0.5 202.5q0 72 -0.5 144t-0.5 142q0 80 -0.5 150.5
t-0.5 140.5h183v-793q0 -57 -1 -113v-18q-1 -37 -3 -72t-13 -73q-18 -65 -55.5 -119.5t-89 -93.5t-114.5 -61t-130 -22q-78 0 -147.5 28t-123 77t-88.5 115.5t-44 142.5v1002z" />
    <glyph glyph-name="V" unicode="V" horiz-adv-x="1019" 
d="M304 -58q-32 26 -67 56.5t-64 61.5t-49 60.5t-22 53.5q-1 94 -1.5 186t-0.5 189q0 67 0.5 134.5t0.5 136.5q0 85 0.5 163t0.5 165h189v-879q0 -22 13.5 -45t35.5 -46t49 -45.5t54 -44.5q16 -13 30.5 -24.5t27.5 -22.5h14q14 14 32.5 28t38.5 28q27 20 53 40.5t46.5 42
t33 43t12.5 43.5v663q0 57 0.5 108t0.5 111h186l1 -955q0 -19 -11 -42.5t-34.5 -53t-60.5 -66.5t-90 -83q-80 -62 -124 -95.5t-66 -49.5q-5 -3 -8 -6t-6 -5q-6 -5 -9 -6q-5 4 -17.5 13t-36 27t-60.5 46t-92 70z" />
    <glyph glyph-name="W" unicode="W" horiz-adv-x="1359" 
d="M71 1146h177l169 -954l5 -4h21l5 4l230 954h34l237 -945l5 -4l20 1l5 4l122 944h177l-194 -1365h-175l-202 612l-5 3h-19l-5 -3l-198 -612h-173z" />
    <glyph glyph-name="X" unicode="X" horiz-adv-x="1012" 
d="M912 740q-11 -25 -27 -46.5t-36 -41t-42 -37t-44 -35.5q-30 -23 -58 -46.5t-51 -49.5v-12q24 -28 51.5 -51t56.5 -46q45 -35 86 -72.5t64 -88.5v-432h-188v349q-8 25 -22 46t-31.5 39t-37.5 34l-40 32q-21 17 -41.5 33t-37.5 35h-14q-17 -19 -37.5 -35t-41.5 -33
q-42 -32 -78.5 -67t-53.5 -86v-218q0 -35 0.5 -64.5t0.5 -64.5h-189l-1 431q22 51 64.5 89t89.5 73q29 23 57.5 46t51.5 50v13q-22 25 -51.5 49t-59.5 48l-46 36t-43 37.5t-36.5 41t-26.5 46.5l1 407h187l1 -318v-3q8 -26 22 -48t32 -40.5t38.5 -35.5t41.5 -33
q20 -16 40.5 -31.5t36.5 -34.5h15q18 20 37.5 36t39.5 31q42 32 79 67t53 87v248q0 20 -0.5 36.5t-0.5 38.5h189v-409z" />
    <glyph glyph-name="Y" unicode="Y" horiz-adv-x="1044" 
d="M617 -217l-189 1v655l-1 4l-347 705h35q20 0 43.5 0.5t45.5 0.5q32 0 56.5 -0.5t34.5 -0.5l223 -483h18l212 483h216l-348 -704l-1 -4z" />
    <glyph glyph-name="Z" unicode="Z" horiz-adv-x="894" 
d="M176 -214v11h-4l-1 -11h5zM802 934l6 -1l-6 2v-1zM624 -199h-234q-115 0 -217 2q-53 7 -85.5 36t-32.5 84q0 43 14.5 85t36.5 79l558 886h-614v182h650q26 0 51.5 -9t46 -24.5t33.5 -37.5t13 -49q0 -26 -11 -50t-28 -46l-1 -1l-2 -3l-591 -951h620v-184h-149
q-14 0 -28.5 0.5t-29.5 0.5z" />
    <glyph glyph-name="sf256.001" unicode="." horiz-adv-x="589" 
d="M390 87q0 -41 -29.5 -70t-70.5 -29t-70 29.5t-29 70.5t29 70t70 29q42 0 71 -29t29 -71z" />
    <glyph glyph-name="sf308.001" unicode="?" horiz-adv-x="705" 
d="M267 846q-1 -14 -1.5 -29t-0.5 -30q0 -30 -3 -58q-16 1 -33 1h-17q-26 -1 -51.5 -2t-48.5 -1q-8 -1 -15 -1q-15 0 -27 1q1 1 1 13v42q0 42 3 84.5t21 78.5q21 51 59.5 86t86.5 54.5t101 22.5q10 1 20 1q42 0 83 -11q58 -15 99.5 -46.5t66.5 -73t35 -91.5q6 -34 6 -68
q0 -17 -1 -33q-5 -52 -23 -103.5t-48 -96.5q-32 -55 -68.5 -107t-68.5 -105.5t-56.5 -111t-32.5 -123.5q-1 1 -11 1h-87q-25 0 -48.5 1.5t-43.5 6.5q0 60 18 118.5t51 109.5q40 53 85 109t79.5 116.5t52.5 126.5q10 37 10 76q0 31 -6 63q-12 32 -40 45q-22 10 -45 10
q-7 0 -14 -1q-31 -4 -56.5 -23t-31.5 -52zM148 -90q-5 6 -5 10q0 1 1 3q1 5 6 14q6 7 19.5 23.5t28.5 35t29 35t20 22.5q8 11 13 11h1q6 -1 12 -6q37 -33 74.5 -61t61.5 -53q4 -5 4 -9v-1q-1 -5 -5 -11q-23 -33 -47.5 -62.5t-48.5 -60.5q-6 -12 -15 -12q-5 0 -12 5
q-14 7 -34 22t-40 32t-37 34t-26 29z" />
    <glyph glyph-name="sf333.001" unicode=";" horiz-adv-x="433" 
d="M338 397q-5 -7 -19 -24.5t-29.5 -36.5t-29.5 -35.5t-20 -22.5q-9 -11 -14 -11q-1 0 -1 1q-6 0 -12 6q-38 32 -76 61t-63 55q-4 4 -4 8q0 6 7 13q22 33 47 63t49 63q7 11 16 11q6 0 12 -4q13 -7 33.5 -22.5t41 -33.5t38 -35.5t25.5 -28.5q6 -7 6 -12v-1q-1 -5 -7 -14z
M349 54q13 -37 13 -78q0 -17 -2 -35q-8 -60 -33.5 -119.5t-62.5 -115.5t-76 -102q-13 -12 -25.5 -19.5t-19.5 -7.5t-7 8q0 1 1 2q0 9 16 33q20 31 40 61.5t37 62t28 65t13 71.5q0 14 -3 32.5t-10 34.5t-19 26q-9 8 -22 8q-4 0 -8 -1q-9 -8 -18 -26.5t-18 -38t-19 -35
t-21 -17.5q-10 0 -20.5 12t-19.5 28.5t-14.5 33.5t-5.5 26q0 24 15 53.5t33 64.5q25 34 59 48q25 10 49 10q9 0 17 -1q33 -5 61 -26.5t42 -57.5z" />
    <glyph glyph-name="sf273.002" unicode="&#x60c;" horiz-adv-x="590" 
d="M256 209q30 21 47.5 28.5t39.5 7.5q50 0 85 -38t35 -92q0 -58 -35.5 -93.5t-92.5 -35.5q-85 0 -148 86t-63 203q0 57 25 122.5t70 125.5q64 85 98 85q8 0 13.5 -5.5t5.5 -13.5q0 -7 -5 -14t-28 -34q-42 -48 -65.5 -102t-23.5 -103q0 -32 11.5 -67t30.5 -60z" />
    <glyph glyph-name="zero" unicode="0" horiz-adv-x="1023" 
d="M563 1054q61 0 114.5 -34.5t87.5 -96.5q63 -114 63 -309q0 -166 -31 -285.5t-97 -210.5q-96 -132 -225 -132q-128 0 -201 127t-73 351q0 118 25 223.5t73 187.5q48 83 118.5 131t145.5 48zM508 932q-102 0 -149 -88.5t-47 -278.5q0 -78 10.5 -161.5t26.5 -134.5
q25 -83 66.5 -123t102.5 -40q116 0 164 123q33 84 33 249q0 220 -53.5 337t-153.5 117z" />
    <glyph glyph-name="one" unicode="1" horiz-adv-x="1025" 
d="M322 822l36 139q106 9 215 54l31 13q36 15 77 39l-4 -56q-3 -39 -3 -44l-4 -72q-1 -16 -5 -69q-20 -267 -20 -476q0 -143 5 -226l4 -52q1 -19 1 -26l-121 -103l-1 96v78q0 133 11 341l4 95q4 68 5 84l6 73l6 68l6 69l5 59q1 6 2 18q-49 -33 -133 -68q-67 -27 -123 -34z
" />
    <glyph glyph-name="two" unicode="2" horiz-adv-x="1021" 
d="M222 124q18 14 24 18l42 35l57 47q17 14 76 69.5t79 76.5q79 81 123 149q79 121 79 210q0 40 -17 81t-46 70q-50 51 -121 51q-124 0 -251 -130q-4 -4 -13 -14l24 162q73 59 129 81.5t127 22.5q67 0 123 -23.5t92 -67.5q57 -69 57 -185q0 -160 -158 -353
q-54 -66 -130 -138t-167 -143l242 -1q123 0 161 2t90 11l-51 -154l-595 -1z" />
    <glyph glyph-name="three" unicode="3" horiz-adv-x="1021" 
d="M313 857l46 145q108 51 197 51q112 0 176 -60t64 -164q0 -70 -36.5 -129t-112.5 -113q83 -28 121.5 -80t38.5 -134q0 -79 -46 -162q-43 -77 -118 -129q-79 -55 -162.5 -76.5t-224.5 -21.5l-34 1l39 150q91 -15 139 -15q117 0 199 45q121 66 121 181q0 74 -54 107t-174 33
q-69 0 -120 -9l43 140q39 -10 78 -10q84 0 146 54q32 28 50.5 63t18.5 68q0 58 -47.5 98.5t-115.5 40.5q-56 0 -109 -17t-123 -57z" />
    <glyph glyph-name="four" unicode="4" horiz-adv-x="1021" 
d="M872 504l-42 -142h-142v-325l-104 -97v422h-423l37 151l386 551h114l-4 -569h60q77 0 118 9zM273 495h306l25 439l-8 8z" />
    <glyph glyph-name="five" unicode="5" horiz-adv-x="1025" 
d="M298 501l69 539l157 -2q179 0 291 16l-50 -151q-132 -14 -176 -14l-64 -2l-77 -3h-27l-34 -258q106 52 186 52q105 0 169 -71.5t64 -189.5q0 -97 -49 -190t-129 -147q-83 -56 -169.5 -75.5t-248.5 -19.5l43 140q55 -6 105 -6q62 0 124.5 14t105.5 39q63 35 97 85t34 107
q0 39 -16.5 76.5t-46.5 64.5q-53 50 -150 50q-99 0 -208 -54z" />
    <glyph glyph-name="six" unicode="6" horiz-adv-x="1023" 
d="M752 1053l-34 -140q-113 -9 -184.5 -39t-123.5 -88q-83 -94 -101 -262l5 -8q10 11 15 17q47 51 65.5 67.5t45.5 32.5q66 39 136 39q110 0 172.5 -81t62.5 -224q0 -145 -65 -245q-43 -66 -104.5 -101t-133.5 -35t-133 34t-95 93q-62 108 -62 284q0 150 38.5 275.5
t110.5 210.5q69 81 170 125.5t215 44.5zM306 415q0 -120 37 -198q24 -51 68.5 -80t98.5 -29q90 0 152 72t62 176q0 85 -53.5 139.5t-137.5 54.5q-63 0 -125 -34q-28 -16 -48 -35.5t-54 -65.5z" />
    <glyph glyph-name="seven" unicode="7" horiz-adv-x="1023" 
d="M282 904l37 152h523q-14 -83 -67 -253q-64 -206 -121.5 -335.5t-127.5 -225.5q-64 -87 -145 -168.5t-154 -132.5l16 168q31 23 73.5 62.5t71.5 72.5q112 125 208 306.5t143 359.5l-294 1l-43 1q-10 0 -27 -1q-26 -1 -30 -1q-23 0 -49 -4z" />
    <glyph glyph-name="eight" unicode="8" horiz-adv-x="1025" 
d="M412 515q-82 49 -114 87q-52 60 -52 145q0 60 24.5 119t67.5 101q42 41 95.5 63.5t109.5 22.5q114 0 179 -60t65 -165q0 -71 -35.5 -128t-122.5 -127l-23 -18q99 -65 141.5 -123t42.5 -131q0 -63 -30.5 -126.5t-83.5 -110.5q-90 -78 -202 -78q-52 0 -99 17t-80 47
q-71 65 -71 164q0 77 54 160q28 43 54 70.5t80 70.5zM538 584q148 112 148 201q0 52 -43 99q-45 49 -123 49q-60 0 -116 -37q-70 -46 -70 -113q0 -50 46 -96t142 -94q6 -3 16 -9zM490 483q-75 -53 -111 -99q-50 -64 -50 -120q0 -63 53 -110t125 -47q84 0 141 57
q54 53 54 113q0 32 -19 61.5t-62 64.5q-58 47 -131 80z" />
    <glyph glyph-name="nine" unicode="9" horiz-adv-x="1023" 
d="M725 626q0 42 -8 90t-21 82q-52 134 -176 134q-90 0 -152 -74q-62 -75 -62 -176q0 -82 54 -136q27 -27 64.5 -42.5t77.5 -15.5q132 0 223 138zM716 523q-9 -11 -13 -17q-52 -68 -114.5 -104t-128.5 -36q-55 0 -105 25t-81 69q-26 37 -41 91t-15 114q0 164 81 272
q42 56 100 86.5t122 30.5q77 0 137.5 -35.5t97.5 -102.5q55 -99 55 -279q0 -132 -32.5 -250.5t-89.5 -199.5q-65 -89 -171.5 -144.5t-215.5 -55.5h-18l31 142q14 1 20 2l34 2q88 6 159.5 45.5t119.5 106.5q30 43 50 109t20 122v6z" />
    <glyph glyph-name="sf261.001" unicode="&#x3c;" horiz-adv-x="795" 
d="M743 -1l-743 461l741 461v-156l-490 -300l494 -303z" />
    <glyph glyph-name="sf261.002" unicode="&#x3e;" horiz-adv-x="795" 
d="M49 161l494 303l-490 300v156l741 -461l-743 -461z" />
    <glyph glyph-name="a.001" horiz-adv-x="255" 
 />
    <glyph glyph-name="sf257.001" unicode="&#x651;" 
d="M289 872q-1 15 -1 31q0 8 1 16q0 23 1 46q17 29 24 56q3 7 6 7h1q3 -1 3 -8v-5q0 -3 0.5 -14.5t0.5 -33.5v-60q0 -29 16 -52.5t47 -23.5q17 0 29.5 7.5t14.5 25.5v12q0 18 -2 37q-2 14 -2 28q0 9 1 18q0 21 8 51t16 49q4 10 6 10q1 0 2 -1q2 -3 4 -11q3 -20 5.5 -43.5
t5.5 -47t7.5 -45.5t12.5 -39q6 -17 24.5 -27.5t37.5 -10.5q14 0 26 6q-3 23 -6 47t-5 47q-2 6 -2 13q0 4 1 9q2 11 6 23.5t9.5 25t9.5 23.5q2 3 4 8.5t5 8.5q1 2 3 2h1q2 -2 3 -13q1 -28 3 -48t4 -38t5 -37.5t6 -46.5q0 -1 -0.5 -3l-2.5 -10t-7 -23.5t-14 -43.5
q-6 -17 -26 -26.5t-37 -9.5q-42 0 -61.5 20.5t-29.5 55.5q-5 -14 -11 -31t-14.5 -31t-21 -23.5t-30.5 -9.5q-27 0 -44 13t-26.5 32.5t-13 43t-3.5 44.5z" />
    <glyph glyph-name="sf258.002" unicode="&#x650;" 
d="M261 -23q-38 -20 -91 -46t-112.5 -54.5t-122 -57t-119.5 -54.5q-4 -2 -7 -2t-5 2q-2 1 -2 3q0 4 3 8q13 26 28 52t32 48l90 40t114 52t120 56.5t108 53.5h4q6 0 6 -3q0 -9 -1 -10q-2 -3 -12.5 -23t-32.5 -65z" />
    <glyph glyph-name="sf256.003" unicode="&#x64f;" 
d="M154 748q9 -7 21.5 -16t14.5 -23q-8 -17 -14 -36t-17 -37q-3 -6 -7 -6t-8 3q-4 5 -17.5 17t-18.5 17q-29 -35 -64.5 -61t-75 -45t-82 -33.5t-85.5 -27.5q-7 -2 -15 -3h-6q-3 0 -5 1q-1 0 -1 1q0 2 2 4q3 4 19 13q71 45 141 86t130 92q-15 11 -30 23.5t-30 23.5
q-20 15 -30 37q-8 18 -8 38v8q0 1 1 4t4 11t9.5 23.5t18.5 42.5q7 15 21.5 29t31 23.5t34.5 13.5q10 2 18 2q7 0 13 -1q37 -7 53.5 -31.5t18.5 -56.5v-9q0 -29 -9 -60q-11 -37 -28 -67zM15 861q19 -32 52.5 -56t64.5 -42q3 15 3 32v6q-1 20 -6.5 38.5t-18 31.5t-33.5 15
q-5 1 -10 1q-12 0 -25 -4q-18 -5 -27 -22z" />
    <glyph glyph-name="sf258.003" unicode="&#x64e;" 
d="M352 415q-38 -20 -91 -46t-112.5 -54.5t-122 -57t-119.5 -54.5q-4 -2 -7 -2t-5 2q-2 1 -2 3q0 4 3 8q13 26 28 52t32 48l90 40t114 52t120 56.5t108 53.5h4q6 0 6 -3q0 -9 -1 -10q-2 -3 -12.5 -23t-32.5 -65z" />
    <glyph glyph-name="afii57453" unicode="&#x64b;" 
d="M0 399q-3 -1 -6 -1t-3 4q0 2 1 6q10 20 21.5 38.5t24.5 36.5q10 4 41 17.5t79 35.5t112.5 52.5t141.5 68.5q2 1 4 1q3 0 3 -4q0 -2 -2 -7q-1 -2 -8.5 -18t-24.5 -49q-7 -5 -29 -16t-66.5 -32t-115 -53.5t-173.5 -79.5zM4 291q-4 -2 -7 -2q-4 0 -4 5q0 2 2 7
q10 21 21.5 39.5t24.5 34.5q10 4 41 17.5t79.5 35.5t112.5 52.5t141 68.5q2 1 3 1q4 0 4 -8l-35 -69q-7 -5 -29 -16t-66.5 -32t-114.5 -53.5t-173 -80.5z" />
    <glyph glyph-name="afii57451" unicode="&#x64d;" 
d="M45 153q-3 -1 -6 -1t-3 4q0 2 1 6q10 20 21.5 38.5t24.5 36.5q10 4 41 17.5t79 35.5t112.5 52.5t141.5 68.5q2 1 3 1q4 0 4 -4q0 -3 -2 -7q-1 -2 -8.5 -18t-24.5 -49q-7 -5 -29 -16t-66.5 -32t-115 -53.5t-173.5 -79.5zM49 45q-4 -2 -7 -2q-4 0 -4 5q0 2 2 7
q10 21 21.5 39.5t24.5 34.5q10 4 41 17.5t79.5 35.5t112.5 52.5t141 68.5q2 1 3 1q4 0 4 -8l-35 -69q-7 -5 -29 -16t-66.5 -32t-114.5 -53.5t-173 -80.5z" />
    <glyph glyph-name="bar" unicode="|" horiz-adv-x="1126" 
d="M642 -483h-260v2048h260v-2048z" />
    <glyph glyph-name="sf438.001" unicode="&#x652;" 
d="M51 96q-4 -1 -11 -2t-13 -1q-5 0 -5 4h-1q0 3 10 12q84 54 133.5 85.5t76 48t34.5 22t9 8.5q-14 2 -28.5 4t-29.5 4q-28 3 -55 4h-4q-26 0 -50 -8q-8 -3 -14.5 -6t-10.5 -3q-1 -1 -2 -1q-3 0 -5 4q-1 1 -1 5t1 9q7 20 14 38t14 37q4 10 13.5 15.5t21.5 8.5t25 4t25 1
q33 0 69.5 -2t70.5 -5q15 0 25 -9q5 -4 5 -11t-5 -17q-18 -42 -43.5 -75t-53.5 -69q-23 -23 -42 -39.5t-49 -26.5q-28 -10 -63 -19.5t-61 -19.5z" />
    <glyph glyph-name="sf258.004" 
d="M265 199q5 9 17.5 25t20.5 26q3 5 9 9q2 1 4 1q4 0 8 -3t12.5 -9.5t17.5 -14t16.5 -15.5t10.5 -14q0 -2 -1 -3.5t-6 -7.5t-15.5 -19t-29.5 -38q-16 16 -32.5 31.5t-31.5 31.5zM-2 432q0 4 0.5 9.5t2.5 12.5q1 2 3 9t5 15.5t5 16t3 10.5q2 4 5 4h2q4 -2 8 -7
q11 -18 24 -36.5t28 -34t33 -26.5t41 -15h21q18 0 50 7t91 33q-20 13 -41 23.5t-43 15.5q-13 2 -26 2q-9 0 -18 -1q-22 -3 -43 -16l-2 -2q-1 0 -1 2q0 13 3.5 25.5t8.5 25.5q11 28 24 41t45 13q7 0 17.5 -1t25 -5t35 -12t48.5 -21q18 -9 35.5 -20t37.5 -21.5t43 -19
t52 -13.5q9 -3 9 -12v-2q-2 -11 -9 -22.5t-15 -22.5t-10 -16q-9 -1 -18 -1q-13 0 -25 2q-21 3 -44 3q-36 0 -71 -13.5t-70.5 -28t-71.5 -24.5q-21 -6 -43 -6q-15 0 -30 3q4 -30 6.5 -62t2.5 -63q0 -32 -5 -62t-17 -56q-2 -5 -6 -8q-1 -1 -2 -1q-2 0 -2 6v22q0 64 -9 127
q-12 74 -47 143q-13 20 -24.5 39t-21.5 41z" />
    <glyph glyph-name="sf259.002" unicode="&#x611;" 
d="M147 -2q-2 75 -11 148t-33 133q-8 17 -16 32.5t-12 32.5q-4 11 -4 24q0 6 1 12q2 19 15 45q4 10 8 10q1 0 3 -2q4 -7 8 -18q7 -14 16.5 -31t22 -31.5t28 -24.5t35.5 -10q-2 15 -2 31t3 33q5 32 21 58t41.5 42t60.5 16q21 0 39.5 -2t35.5 -9t34 -21t34 -37q-11 -1 -24 -1
q-12 0 -27 1q-29 2 -55 2q-8 0 -15.5 -0.5t-13.5 -1.5q-11 -1 -26 -3.5t-29 -8.5t-24 -16t-10 -25q0 -13 9.5 -25t23 -21.5t29 -15.5t26.5 -6q25 0 47 8t43 21q17 12 34.5 25.5t33.5 28.5q3 3 5 3h1q1 -1 1 -2q0 -2 -1 -5q-4 -30 -21.5 -57.5t-39.5 -47.5q-26 -23 -58 -39
t-67 -24q-31 -7 -63 -7h-8q-36 1 -70 13q0 -29 1 -58v-19q0 -20 -1 -39q-2 -29 -8.5 -57t-20.5 -54z" />
    <glyph glyph-name="sf260.001" unicode="&#x610;" 
d="M251 353q-15 -14 -29 -29.5t-29 -32.5q7 -4 27 -4q22 0 54 3.5t61.5 8.5t51.5 10.5t25 10.5q-9 24 -28.5 39t-42.5 20q-11 2 -22 2q-13 0 -26 -3q-24 -6 -42 -25zM50 404q9 -14 19 -30t23 -31t27.5 -27.5t32.5 -18.5q15 15 35 42t46 54t57 47t69 21q22 0 42.5 -9
t36.5 -24.5t25.5 -35.5t9.5 -42q-5 -34 -21.5 -66t-49.5 -46q-67 -26 -139 -32q-20 -2 -39 -2q-53 0 -106 13q-3 -26 -4.5 -52t-4 -51.5t-8 -50.5t-16.5 -50q-2 -6 -4 -6h-1q-1 1 -1 3t1 4q1 35 1 64v29q-1 41 -6.5 76.5t-16 68.5t-29.5 70q5 21 8 43t13 39z" />
    <glyph glyph-name="sf260.001" unicode="&#x6d6;" 
d="M251 353q-15 -14 -29 -29.5t-29 -32.5q7 -4 27 -4q22 0 54 3.5t61.5 8.5t51.5 10.5t25 10.5q-9 24 -28.5 39t-42.5 20q-11 2 -22 2q-13 0 -26 -3q-24 -6 -42 -25zM50 404q9 -14 19 -30t23 -31t27.5 -27.5t32.5 -18.5q15 15 35 42t46 54t57 47t69 21q22 0 42.5 -9
t36.5 -24.5t25.5 -35.5t9.5 -42q-5 -34 -21.5 -66t-49.5 -46q-67 -26 -139 -32q-20 -2 -39 -2q-53 0 -106 13q-3 -26 -4.5 -52t-4 -51.5t-8 -50.5t-16.5 -50q-2 -6 -4 -6h-1q-1 1 -1 3t1 4q1 35 1 64v29q-1 41 -6.5 76.5t-16 68.5t-29.5 70q5 21 8 43t13 39z" />
    <glyph glyph-name="sf277.007" unicode="&#x603;" horiz-adv-x="1342" 
d="M1085 179q-45 0 -95.5 -30t-110.5 -87q40 -6 81 -6q39 0 79 6q80 10 158 33q-9 15 -20 30.5t-25 27.5t-30 20q-15 6 -32 6h-5zM84 -6q68 6 137 9.5t137.5 9t136.5 16.5t134 32q38 13 61.5 34.5t35.5 38.5q5 6 10 7q4 0 4 -5q0 -2 -1 -5q-1 -4 -1 -8q0 -12 8 -20
q10 -12 26.5 -19.5t34.5 -11.5t32 -7q33 44 71 82t77.5 65t79.5 40q26 8 51 8q13 0 26 -2q37 -7 69.5 -35.5t57.5 -84.5q-8 -23 -16 -44.5t-16 -43.5q-2 -6 -12.5 -14t-16.5 -10q-95 -41 -199 -50q-51 -5 -102 -5q-54 0 -108 5q-8 -12 -17 -23.5t-17 -23.5q-6 -10 -12 -10
q-3 0 -3 5q0 4 2 11q5 12 14 25t14 23q-29 8 -50.5 25t-26.5 40q-12 -26 -31.5 -44t-43.5 -30t-50.5 -19t-52.5 -10q-81 -9 -162 -9q-30 0 -60 2q-111 4 -220 40q-11 5 -14 10q-1 0 -1 1q0 3 14 5z" />
    <glyph glyph-name="sf263.002" unicode="&#x670;" 
d="M1078 1213q10 19 23 35t35 42q8 8 18 8t22 -6q60 -29 90 -78.5t35 -103.5q1 -11 1 -22q0 -43 -15 -83q-19 -52 -55 -86q-16 -14 -24 -15l-1 -1q-4 0 -4 5t3 13q10 39 13 78q1 7 1 15q0 30 -10 60q-12 37 -43 72t-89 67z" />
    <glyph glyph-name="sf264.002" unicode="&#x66b;" horiz-adv-x="268" 
d="M121 318q-17 0 -21 -9t-10 -23q-3 -8 -9 -17q-3 -5 -7 -5t-8 4q-11 14 -13.5 30.5t-2.5 32.5t4.5 36t13.5 37.5t23 29t34 11.5q25 0 42.5 -13t28.5 -32.5t16.5 -43t5.5 -43.5q-4 -85 -38 -161.5t-94 -136.5q-13 -13 -20 -13q-1 0 -2 1q-2 0 -2 3q0 6 9 20q16 27 32 54.5
t29 56.5t21 59.5t8 62.5q0 21 -7 40t-33 19z" />
    <glyph glyph-name="sf266.001" unicode="&#x22;" horiz-adv-x="542" 
d="M289 1403q35 7 71 7h5q37 -1 77 -1l-26 -359l-103 16zM100 1395q13 2 32.5 3.5t41 2.5t42.5 1.5t37 0.5l-26 -340q-45 -11 -69 -15t-29 -4q-1 0 -1 1q-3 26 -5.5 54.5t-5.5 68t-7 94t-10 133.5z" />
    <glyph glyph-name="sf267" unicode="&#x614;" 
d="M-469 45q33 1 66 1q32 0 64 -1h36q46 0 91 2q62 2 123.5 9.5t121.5 25.5q35 13 60.5 30t51.5 44q2 2 3 2t1 -2v-6q0 -17 10 -32q12 -17 32.5 -28t46.5 -14q10 -2 20 -2q15 0 29 3q5 2 5.5 4t0.5 6q0 9 -3.5 17.5l-7 17t-7 16.5t-3.5 14q5 20 15.5 35.5t19.5 33.5q3 5 6 5
h2q3 -3 5 -8q10 -33 18 -58.5t10 -59.5q-6 -26 -11.5 -47t-16 -36t-28 -23t-47.5 -8q-49 0 -80.5 21.5t-42.5 72.5q-11 -20 -25.5 -37t-37.5 -28q-60 -28 -128 -38q-53 -9 -107 -9q-16 0 -31 1q-71 3 -141 19t-133 41q-10 5 -10 8q0 1 1 3q4 4 21 5z" />
    <glyph glyph-name="sf268.004" unicode="&#x600;" horiz-adv-x="1134" 
d="M353 212q55 78 125 136.5t151 82.5q5 2 8 2t4 -1q3 -3 3 -9t-2.5 -13t-4.5 -10q-22 -26 -53.5 -61.5t-63 -74.5t-59 -79t-41.5 -76q-12 -29 -12 -55q0 -16 5 -31q11 -41 43 -76t78 -63.5t96 -50t98 -35.5t84 -20q14 -2 17 -7q1 -3 1 -6t-1 -6q-2 -7 -6.5 -14.5
t-4.5 -14.5q-19 -23 -33.5 -35t-28 -22t-28 -22t-33.5 -34q-3 -8 -7.5 -12.5t-19.5 -4.5q-44 7 -93.5 22t-101.5 27.5t-104 16.5q-11 1 -22 1q-40 0 -79 -12q-149 -46 -283 -78.5t-260 -52.5t-247 -29.5t-245 -9.5q-126 0 -254 8t-273 22q-101 9 -192 19t-179.5 25
t-178.5 38.5t-188 59.5q-68 25 -101 39q-31 13 -31 20v1q2 7 40 9h112q142 -3 266.5 -5.5t236 -5t212.5 -3.5t196 -1q105 0 206 2t202.5 7.5t207.5 13.5t222.5 20.5t245.5 29.5t277 39q-1 21 -1 42q0 28 2 58q4 52 15.5 103.5t30.5 99t46 86.5z" />
    <glyph glyph-name="sf275.001" unicode="&#x60f;" horiz-adv-x="786" 
d="M580 122q-53 -2 -97 -26.5t-81.5 -60.5t-68.5 -79t-58 -82q53 -39 112 -39h6q62 2 119.5 30.5t105 75.5t74.5 97q0 22 -11 38t-27.5 26.5t-35.5 15.5q-17 4 -32 4h-6zM178 -216q-34 62 -41 131q-3 25 -3 50q0 43 8 87q13 68 42 132.5t67 118.5q3 3 3 4t-3 1
q-19 16 -38 33.5t-19 42.5q0 16 5 28.5t12.5 23.5t16.5 22t17 24q12 18 24.5 39.5t28.5 40t36 31t46 12.5q10 0 23 -3t23.5 -9t16.5 -14q4 -6 4 -12q0 -4 -1 -7q-3 -27 -14 -33q-7 -4 -15 -4q-5 0 -10 2q-14 3 -28 10.5t-24 7.5q-21 0 -46 -16q-25 -15 -25 -41
q0 -17 13 -29.5t31.5 -20t38.5 -9.5q6 -1 12 -1q12 0 21 3q30 17 59 31t58 29q15 9 20 9h2q1 -2 1 -4t-2 -7q-5 -8 -15 -19t-20 -18q-24 -18 -47 -35l-46 -34q-65 -44 -117 -95.5t-79 -110.5q-26 -55 -26 -116q0 -5 1 -10q2 -67 46 -142q33 53 73 113t87.5 110.5t103.5 83.5
q54 31 117 31h4q25 0 46 -11.5t36.5 -30t24.5 -42t9 -47.5q-5 -58 -30 -119.5t-64 -116.5t-90.5 -98.5t-108.5 -63.5q-43 -16 -89 -16q-15 0 -30 2q-62 7 -122 52q-23 -42 -47 -82.5t-48 -85.5q-9 -16 -23 -32t-34 -17q9 19 24 48.5t32.5 63.5t36 69t35.5 66z" />
    <glyph glyph-name="sf273.003" unicode="&#x64c;" 
d="M17 266q-15 10 -24 25t-9 33q0 1 0.5 3t2 8.5t5 18t9.5 32.5q5 12 14.5 22.5t20.5 19t23 13.5q10 3 19 3h4q28 -2 42 -19t18 -41q1 -10 1 -20q0 -15 -3 -31q-5 -28 -16 -51q9 -4 18.5 -10t11.5 -15q-5 -14 -8 -28t-9 -29q-2 -5 -5 -5t-6 3q-3 2 -14 10t-14 12
q-55 -69 -137.5 -117.5t-176.5 -78.5q-6 -1 -11 -1q-2 -1 -4 -1q-3 0 -4 1q-2 1 -2 2t2 2q2 3 14 9q94 58 170 107t115 93q-11 7 -23 15t-24 15zM15 354q16 -22 42 -36.5t50 -26.5q1 7 1 14t-1 14q-2 15 -8 28t-16 22t-25 9q-12 0 -25 -5.5t-18 -18.5zM-170 352
q-9 -11 -9 -19q0 -5 1 -11.5t4 -17.5q21 -30 54 -30l1 -1q33 0 67 23q3 2 7 3q2 0 2 -3v-2q-1 -19 -10.5 -34.5t-24 -26.5t-32.5 -16q-15 -5 -31 -5h-6q-38 11 -50 37q-10 21 -10 44q0 5 1 11q2 29 14.5 57t23.5 43q16 26 44 53t63 52t73.5 46.5t75 36.5t68.5 22q18 3 33 3
q11 0 20 -2q24 -7 34.5 -22t12.5 -34v-9q0 -16 -4 -32q-6 -22 -15.5 -42t-20.5 -36.5t-20 -25.5q-5 -3 -10 -6.5t-8 -4.5h-2v2q1 2 8 11q16 22 27 47q9 22 9 41v4q-1 21 -16 34.5t-49 13.5h-9q-26 0 -63 -14q-43 -17 -89.5 -46.5t-90 -67t-73.5 -76.5z" />
    <glyph glyph-name="sf271.003" unicode="&#x602;" horiz-adv-x="984" 
d="M117 115q0 -22 13.5 -35.5t32.5 -21.5t40.5 -11.5t36.5 -4.5q0 17 -5 38t-14.5 39.5t-24 31t-32.5 12.5q-20 0 -33.5 -15t-13.5 -33zM72 72v7q0 26 12 57q13 35 36 62t54 37q9 3 18 3q22 0 44 -16q28 -22 37.5 -59.5t9.5 -76.5q0 -14 -0.5 -26t-1.5 -23q60 -8 135 -8
q4 0 9 1q80 0 163.5 5t164.5 14t147 18h6q7 0 7 -4v-2q-4 -8 -14 -12q-25 -19 -68 -35t-97 -28t-116 -21t-125.5 -13.5t-124.5 -4.5q-7 -1 -14 -1q-54 0 -100 4q-27 3 -59 9.5t-59 20t-45.5 35.5t-18.5 57z" />
    <glyph glyph-name="sf271.003" unicode="&#x60e;" horiz-adv-x="984" 
d="M117 115q0 -22 13.5 -35.5t32.5 -21.5t40.5 -11.5t36.5 -4.5q0 17 -5 38t-14.5 39.5t-24 31t-32.5 12.5q-20 0 -33.5 -15t-13.5 -33zM72 72v7q0 26 12 57q13 35 36 62t54 37q9 3 18 3q22 0 44 -16q28 -22 37.5 -59.5t9.5 -76.5q0 -14 -0.5 -26t-1.5 -23q60 -8 135 -8
q4 0 9 1q80 0 163.5 5t164.5 14t147 18h6q7 0 7 -4v-2q-4 -8 -14 -12q-25 -19 -68 -35t-97 -28t-116 -21t-125.5 -13.5t-124.5 -4.5q-7 -1 -14 -1q-54 0 -100 4q-27 3 -59 9.5t-59 20t-45.5 35.5t-18.5 57z" />
    <glyph glyph-name="sf261.003" unicode="&#x613;" 
d="M197 615q6 15 20 30.5t25 27.5q2 2 3.5 3t2.5 2q1 0 9 -5q12 -9 30.5 -24t27.5 -28q-14 -17 -27.5 -34.5t-27.5 -33.5q-14 14 -29 28t-34 34zM239 347q22 0 46.5 0.5t47.5 2.5t43 5t34 8q5 5 5 10q0 2 -1 4q-23 45 -56 52q-5 1 -10 1q-30 0 -66 -36l-8.5 -8.5l-14 -14
t-13.5 -14.5t-7 -10zM283 154q43 13 72.5 22t49 15.5t30.5 10.5t17 7q13 6 29.5 15.5t31 20.5t25.5 25t14 29v7q0 18 -4 35q-5 19 -11.5 33.5t-12 24.5t-5.5 14q1 8 4.5 20.5t7.5 24.5t8 21.5t7 11.5q14 -8 23 -23.5t14 -34t7 -37t2 -31.5q0 -60 -24.5 -114t-72.5 -90
q-51 -19 -102 -20q-10 -1 -19 -1q-43 0 -87 6q-3 0 -6 3q-1 1 -1 2q0 2 3 3zM59 357q11 38 16.5 53.5t8.5 24.5q17 -17 32.5 -38t35.5 -34q14 -10 26 -10q5 0 11 2q16 7 31 24q13 17 28.5 40t35 43.5t43 35.5t53.5 17q19 0 36.5 -10t31 -25.5t22 -35t8.5 -38.5
q-3 -17 -7 -35.5t-12.5 -35.5t-24.5 -31t-43 -21q-15 -6 -42.5 -12t-59.5 -9q-26 -3 -52 -3h-15q-34 1 -63 9q4 -26 4 -54q0 -25 -3 -51q-8 -55 -29 -103v18q0 71 -13 137q-16 73 -59 142z" />
    <glyph glyph-name="sf272.001" unicode="&#x612;" 
d="M234 174q-4 0 -11 4q-4 2 -4 4t5 4q38 11 75 22.5t75 22.5q17 5 38 15.5t39 24.5t30 32q11 16 11 34v3q-1 28 -10.5 50.5t-23.5 47.5q3 17 8.5 32.5t12.5 32.5q4 8 6 10h1q3 0 9 -4q22 -22 29.5 -53t7.5 -61q0 -60 -25.5 -116t-73.5 -92q-46 -16 -93 -16h-5q-50 1 -101 3
zM388 379q-48 -11 -92.5 -26t-83 -41t-70 -68t-54.5 -108q-4 -7 -6 -8v-1q-1 0 -1 5v6q2 78 39 144.5t98 111.5q-23 10 -51 11h-2q-27 0 -49 -11q-7 -4 -10 -4q-2 1 -2 4t1 7q4 19 8.5 36t13 29.5t22 19.5t34.5 7q5 0 12 -0.5t24 -3t48.5 -8.5t85.5 -17q13 -3 26 -3.5
t27 -1.5q11 0 13 -3q1 -1 1 -3q0 -4 -4 -11q-5 -17 -11 -32.5t-17 -30.5z" />
    <glyph glyph-name="sf262.002" unicode="&#xa0;" horiz-adv-x="257" 
 />
    </font>
</defs>
</svg>
