<?xml version="1.0" standalone="no"?>
<!DOCTYPE svg PUBLIC "-//W3C//DTD SVG 1.1//EN" "http://www.w3.org/Graphics/SVG/1.1/DTD/svg11.dtd" >
<svg>
<metadata>
Created by FontForge 20110222 at Thu Jul  9 01:06:59 2015
 By www-data
</metadata>
<defs>
<font id="AlKatib" horiz-adv-x="0" >
  <font-face 
    font-family="AlKatib"
    font-weight="400"
    font-stretch="normal"
    units-per-em="2048"
    panose-1="2 0 5 6 0 0 0 2 0 3"
    ascent="1638"
    descent="-410"
    x-height="983"
    cap-height="1436"
    bbox="-2164.11 -1093 6650 2104"
    underline-thickness="102"
    underline-position="-154"
    unicode-range="U+0020-FEFB"
  />
<missing-glyph horiz-adv-x="257" 
 />
    <glyph glyph-name="sf277.046" unicode="&#x622;" horiz-adv-x="548" arabic-form="final" 
d="M272 475q15 -139 90.5 -206.5t220.5 -66.5q0 -13 -0.5 -39.5t-1 -56.5t-1 -57.5t-0.5 -42.5q-72 -13 -140 0.5t-122 53.5t-89 107t-41 160q-21 196 -42 385.5t-46 386.5l73 184q5 14 8 11t4 -12q16 -101 27.5 -202t21 -201.5t18.5 -201.5t20 -202zM-215 1335
q-14 -8 -20 -8q-11 0 -10 10.5t12 22.5q60 69 126 110t141 43q22 0 44 -5t44 -10.5t44 -10.5t45 -5q39 0 76 12t70 30.5t60.5 41.5t46.5 45q17 20 24 19.5t-5 -26.5q-22 -46 -59.5 -90.5t-84.5 -80t-99.5 -57.5t-104.5 -22q-28 0 -50.5 6t-43.5 12.5t-40.5 12.5t-41.5 6
q-51 0 -94 -17t-80 -39z" />
    <glyph glyph-name="afii57415.zz04" unicode="&#x627;" horiz-adv-x="759" arabic-form="final" 
d="M807 0h-210q-218 0 -262 302q-16 109 -16 289q0 42 -3 214l-10 414q-1 71 -2 165q-1 67 29 106q40 38 79 77v-848q0 -171 23 -257q40 -149 158 -183q56 -16 214 -16v-263z" />
    <glyph glyph-name="afii57416.zz02" unicode="&#x628;" horiz-adv-x="482" arabic-form="initial" 
d="M447 413q0 -328 -242 -393q-75 -20 -204 -20h-67v263h37q25 -1 37 -1q298 0 357 74q0 17 -36 90q-10 19 -36 70q22 41 42 83q47 97 56 126l37 -149q19 -80 19 -143zM211 -265l155 -155l-155 -152l-155 152z" />
    <glyph glyph-name="afii57416.zz03" unicode="&#x628;" horiz-adv-x="628" arabic-form="medial" 
d="M675 0h-180q-69 0 -115 51q-6 7 -88 128q-18 -32 -55 -95q-53 -84 -145 -84h-158v263q222 0 293 30q37 16 63 84q30 79 73 113q0 -151 50 -194q40 -34 173 -34h38q6 0 19 1h20h12v-263zM305 -267l155 -155l-155 -152l-155 152z" />
    <glyph glyph-name="afii57416.zz04" unicode="&#x628;" horiz-adv-x="1656" arabic-form="final" 
d="M1687 0h-98q-75 0 -148 98q-24 33 -58 98q-36 -21 -110 -62q-132 -68 -299 -116q-221 -63 -438 -63q-212 0 -356 97q-165 112 -165 315q0 112 64 214q48 77 108 117q-69 -136 -69 -206q0 -161 236 -240q166 -56 365 -56q228 0 395 63q178 67 332 221q19 -134 63.5 -175.5
t177.5 -41.5v-263zM665 -257l155 -155l-155 -152l-155 152z" />
    <glyph glyph-name="afii57506.zz02" unicode="&#x67e;" horiz-adv-x="482" arabic-form="initial" 
d="M447 413q0 -328 -242 -393q-75 -20 -204 -20h-67v263h37q25 -1 37 -1q298 0 357 74q0 17 -36 90q-10 19 -36 70q22 41 42 83q47 97 56 126l37 -149q19 -80 19 -143zM537 -326l-137 136l-269 -268l-135 132l135 136l269 -268zM409 -606l-136 137l-134 -137l134 -134z" />
    <glyph glyph-name="afii57506.zz03" unicode="&#x67e;" horiz-adv-x="844" arabic-form="medial" 
d="M915 0h-300q-54 0 -129 66q-63 56 -98 114q-20 -36 -61 -106q-46 -74 -139 -74h-254v263h310q80 0 131 80q12 18 84 137q2 -65 6 -97q15 -120 162 -120h288v-263zM667 -341l-137 136l-269 -268l-135 132l135 136l269 -268zM539 -621l-136 137l-134 -137l134 -134z" />
    <glyph glyph-name="afii57506.zz04" unicode="&#x67e;" horiz-adv-x="1656" arabic-form="final" 
d="M1687 0h-98q-75 0 -148 98q-24 33 -58 98q-36 -21 -110 -62q-132 -68 -299 -116q-221 -63 -438 -63q-212 0 -356 97q-165 112 -165 315q0 112 64 214q48 77 108 117q-69 -136 -69 -206q0 -161 236 -240q166 -56 365 -56q228 0 395 63q178 67 332 221q19 -134 63.5 -175.5
t177.5 -41.5v-263zM1007 -338l-137 136l-269 -268l-135 132l135 136l269 -268zM879 -618l-136 137l-134 -137l134 -134z" />
    <glyph glyph-name="afii57418.zz02" unicode="&#x62a;" horiz-adv-x="482" arabic-form="initial" 
d="M447 413q0 -328 -242 -393q-75 -20 -204 -20h-67v263h37q25 -1 37 -1q298 0 357 74q0 17 -36 90q-10 19 -36 70q22 41 42 83q47 97 56 126l37 -149q19 -80 19 -143zM424 951l138 136l-137 133l-270 -269l-135 136l136 133z" />
    <glyph glyph-name="afii57418.zz03" unicode="&#x62a;" horiz-adv-x="844" arabic-form="medial" 
d="M915 0h-300q-54 0 -129 66q-63 56 -98 114q-20 -36 -61 -106q-46 -74 -139 -74h-254v263h310q80 0 131 80q12 18 84 137q2 -65 6 -97q15 -120 162 -120h288v-263zM594 801l138 136l-137 133l-270 -269l-135 136l136 133z" />
    <glyph glyph-name="afii57418.zz04" unicode="&#x62a;" horiz-adv-x="1656" arabic-form="final" 
d="M1687 0h-98q-75 0 -148 98q-24 33 -58 98q-36 -21 -110 -62q-132 -68 -299 -116q-221 -63 -438 -63q-212 0 -356 97q-165 112 -165 315q0 112 64 214q48 77 108 117q-69 -136 -69 -206q0 -161 236 -240q166 -56 365 -56q228 0 395 63q178 67 332 221q19 -134 63.5 -175.5
t177.5 -41.5v-263zM984 801l138 136l-137 133l-270 -269l-135 136l136 133z" />
    <glyph glyph-name="afii57511.zz02" unicode="&#x679;" horiz-adv-x="482" arabic-form="initial" 
d="M478 1173q0 -73 -99 -136q-85 -54 -213 -54q-77 0 -114 15q-48 19 -85 77l139 -15q14 4 42.5 30t28.5 39v290q0 6 -15 25q-8 10 -8 19q0 17 24 52q21 31 30 38q-3 -21 -3 -34q0 -30 41 -50q-7 -29 -12 -42q-10 -25 -26 -35l4 -245q58 41 90 62q58 38 92 38q30 0 57 -22
t27 -52zM413 1129q0 17 -31 29q-24 9 -45 9q-64 0 -160 -96q29 -7 35 -7q37 0 113 19q88 22 88 46zM447 413q0 -328 -242 -393q-75 -20 -204 -20h-67v263h37q25 -1 37 -1q298 0 357 74q0 17 -36 90q-10 19 -36 70q22 41 42 83q47 97 56 126l37 -149q19 -80 19 -143z" />
    <glyph glyph-name="afii57511.zz03" unicode="&#x679;" horiz-adv-x="844" arabic-form="medial" 
d="M678 1173q0 -73 -99 -136q-85 -54 -213 -54q-77 0 -114 15q-48 19 -85 77l139 -15q14 4 42.5 30t28.5 39v290q0 6 -15 25q-8 10 -8 19q0 17 24 52q21 31 30 38q-3 -21 -3 -34q0 -30 41 -50q-7 -29 -12 -42q-10 -25 -26 -35l4 -245q58 41 90 62q58 38 92 38q30 0 57 -22
t27 -52zM613 1129q0 17 -31 29q-24 9 -45 9q-64 0 -160 -96q29 -7 35 -7q37 0 113 19q88 22 88 46zM915 0h-300q-54 0 -129 66q-63 56 -98 114q-20 -36 -61 -106q-46 -74 -139 -74h-254v263h310q80 0 131 80q12 18 84 137q2 -65 6 -97q15 -120 162 -120h288v-263z" />
    <glyph glyph-name="afii57511.zz04" unicode="&#x679;" horiz-adv-x="1656" arabic-form="final" 
d="M1078 973q0 -73 -99 -136q-85 -54 -213 -54q-77 0 -114 15q-48 19 -85 77l139 -15q14 4 42.5 30t28.5 39v290q0 6 -15 25q-8 10 -8 19q0 17 24 52q21 31 30 38q-3 -21 -3 -34q0 -30 41 -50q-7 -29 -12 -42q-10 -25 -26 -35l4 -245q58 41 90 62q58 38 92 38q30 0 57 -22
t27 -52zM1013 929q0 17 -31 29q-24 9 -45 9q-64 0 -160 -96q29 -7 35 -7q37 0 113 19q88 22 88 46zM1687 0h-98q-75 0 -148 98q-24 33 -58 98q-36 -21 -110 -62q-132 -68 -299 -116q-221 -63 -438 -63q-212 0 -356 97q-165 112 -165 315q0 112 64 214q48 77 108 117
q-69 -136 -69 -206q0 -161 236 -240q166 -56 365 -56q228 0 395 63q178 67 332 221q19 -134 63.5 -175.5t177.5 -41.5v-263z" />
    <glyph glyph-name="afii57419.zz02" unicode="&#x62b;" horiz-adv-x="482" arabic-form="initial" 
d="M447 413q0 -328 -242 -393q-75 -20 -204 -20h-67v263h37q25 -1 37 -1q298 0 357 74q0 17 -36 90q-10 19 -36 70q22 41 42 83q47 97 56 126l37 -149q19 -80 19 -143zM400 851l137 136l-137 132l-269 -268l-135 136l134 132zM273 1401l136 -134l-136 -137l-134 137z" />
    <glyph glyph-name="afii57419.zz03" unicode="&#x62b;" horiz-adv-x="844" arabic-form="medial" 
d="M915 0h-300q-54 0 -129 66q-63 56 -98 114q-20 -36 -61 -106q-46 -74 -139 -74h-254v263h310q80 0 131 80q12 18 84 137q2 -65 6 -97q15 -120 162 -120h288v-263zM540 846l137 136l-137 132l-269 -268l-135 136l134 132zM413 1396l136 -134l-136 -137l-134 137z" />
    <glyph glyph-name="afii57419.zz04" unicode="&#x62b;" horiz-adv-x="1656" arabic-form="final" 
d="M1687 0h-98q-75 0 -148 98q-24 33 -58 98q-36 -21 -110 -62q-132 -68 -299 -116q-221 -63 -438 -63q-212 0 -356 97q-165 112 -165 315q0 112 64 214q48 77 108 117q-69 -136 -69 -206q0 -161 236 -240q166 -56 365 -56q228 0 395 63q178 67 332 221q19 -134 63.5 -175.5
t177.5 -41.5v-263zM1000 841l137 136l-137 132l-269 -268l-135 136l134 132zM873 1391l136 -134l-136 -137l-134 137z" />
    <glyph glyph-name="afii57420.zz02" unicode="&#x62c;" horiz-adv-x="1022" arabic-form="initial" 
d="M1024 538q-17 -91 -47 -182q-12 -36 -25 -69q-137 -4 -147 -4q-86 -5 -144 -20q-27 -7 -123 -78q-116 -86 -184 -122q-119 -63 -220 -63h-190v263h287q91 0 147 26q47 22 152 106l-158 91q-99 52 -153 52q-42 0 -99 -32q-48 -27 -80 -40q26 93 49 145q74 167 208 167
q72 0 167 -62q133 -87 201 -115q154 -63 359 -63zM645 -252l155 -155l-155 -152l-155 152z" />
    <glyph glyph-name="afii57420.zz03" unicode="&#x62c;" horiz-adv-x="1364" arabic-form="medial" 
d="M1405 0h-279q-208 0 -208 347q-13 6 -25 12q-46 0 -178 -93q-190 -134 -262 -173q-170 -93 -312 -93h-197v263q163 0 239 8q210 22 398 168q-153 95 -249 95q-35 0 -111 -28q-57 -22 -114 -43v35q7 26 24 77q28 75 80 124q70 65 172 65q43 0 137 -43q140 -64 189 -81
q126 -44 244 -44q105 0 207 30q-18 -83 -27 -144q0 -1 -7 -54q-16 -26 -65 -38q-17 -4 -98 -19q-2 -4 -1 -13q1 -11 1 -17q0 -16 32 -44q39 -34 85 -34h325v-263zM650 -267l155 -155l-155 -152l-155 152z" />
    <glyph glyph-name="afii57420.zz04" unicode="&#x62c;" horiz-adv-x="1270" arabic-form="final" 
d="M1391 -789q-12 -18 -83 -66q-261 -176 -584 -176q-405 0 -554 156q-135 141 -135 504q0 255 99 464q90 189 283 382q-70 36 -116 36q-134 0 -243 -164q-1 15 -1 24q0 152 99 261.5t250 109.5q8 0 188 -31q93 -16 182 -16q132 0 267 47q-58 -219 -103 -259
q-20 -18 -152 -31v-105q28 -46 37 -56q25 -28 79 -28h411v-263h-364q-80 0 -138 60q-52 54 -72 137q-15 62 -15 120q0 35 4 62l7 46q0 16 -19 16q-48 0 -176 -83q-163 -106 -266 -254q-138 -199 -138 -434q0 -354 428 -452q149 -34 347 -34q199 0 339 27h139zM550 -117
l155 -155l-155 -152l-155 152z" />
    <glyph glyph-name="afii57507.zz02" unicode="&#x686;" horiz-adv-x="1022" arabic-form="initial" 
d="M1024 538q-17 -91 -47 -182q-12 -36 -25 -69q-137 -4 -147 -4q-86 -5 -144 -20q-27 -7 -123 -78q-116 -86 -184 -122q-119 -63 -220 -63h-190v263h287q91 0 147 26q47 22 152 106l-158 91q-99 52 -153 52q-42 0 -99 -32q-48 -27 -80 -40q26 93 49 145q74 167 208 167
q72 0 167 -62q133 -87 201 -115q154 -63 359 -63zM902 -336l-137 136l-269 -268l-135 132l135 136l269 -268zM774 -616l-136 137l-134 -137l134 -134z" />
    <glyph glyph-name="afii57507.zz03" unicode="&#x686;" horiz-adv-x="1364" arabic-form="medial" 
d="M1405 0h-279q-208 0 -208 347q-13 6 -25 12q-46 0 -178 -93q-190 -134 -262 -173q-170 -93 -312 -93h-197v263q163 0 239 8q210 22 398 168q-153 95 -249 95q-35 0 -111 -28q-57 -22 -114 -43v35q7 26 24 77q28 75 80 124q70 65 172 65q43 0 137 -43q140 -64 189 -81
q126 -44 244 -44q105 0 207 30q-18 -83 -27 -144q0 -1 -7 -54q-16 -26 -65 -38q-17 -4 -98 -19q-2 -4 -1 -13q1 -11 1 -17q0 -16 32 -44q39 -34 85 -34h325v-263zM902 -336l-137 136l-269 -268l-135 132l135 136l269 -268zM774 -616l-136 137l-134 -137l134 -134z" />
    <glyph glyph-name="afii57507.zz04" unicode="&#x686;" horiz-adv-x="1270" arabic-form="final" 
d="M1391 -789q-12 -18 -83 -66q-261 -176 -584 -176q-405 0 -554 156q-135 141 -135 504q0 255 99 464q90 189 283 382q-70 36 -116 36q-134 0 -243 -164q-1 15 -1 24q0 152 99 261.5t250 109.5q8 0 188 -31q93 -16 182 -16q132 0 267 47q-58 -219 -103 -259
q-20 -18 -152 -31v-105q28 -46 37 -56q25 -28 79 -28h411v-263h-364q-80 0 -138 60q-52 54 -72 137q-15 62 -15 120q0 35 4 62l7 46q0 16 -19 16q-48 0 -176 -83q-163 -106 -266 -254q-138 -199 -138 -434q0 -354 428 -452q149 -34 347 -34q199 0 339 27h139zM907 -191
l-137 136l-269 -268l-135 132l135 136l269 -268zM779 -471l-136 137l-134 -137l134 -134z" />
    <glyph glyph-name="afii57421.zz02" unicode="&#x62d;" horiz-adv-x="1022" arabic-form="initial" 
d="M1024 538q-17 -91 -47 -182q-12 -36 -25 -69q-137 -4 -147 -4q-86 -5 -144 -20q-27 -7 -123 -78q-116 -86 -184 -122q-119 -63 -220 -63h-190v263h287q91 0 147 26q47 22 152 106l-158 91q-99 52 -153 52q-42 0 -99 -32q-48 -27 -80 -40q26 93 49 145q74 167 208 167
q72 0 167 -62q133 -87 201 -115q154 -63 359 -63z" />
    <glyph glyph-name="afii57421.zz03" unicode="&#x62d;" horiz-adv-x="1364" arabic-form="medial" 
d="M1405 0h-279q-208 0 -208 347q-13 6 -25 12q-46 0 -178 -93q-190 -134 -262 -173q-170 -93 -312 -93h-197v263q163 0 239 8q210 22 398 168q-153 95 -249 95q-35 0 -111 -28q-57 -22 -114 -43v35q7 26 24 77q28 75 80 124q70 65 172 65q43 0 137 -43q140 -64 189 -81
q126 -44 244 -44q105 0 207 30q-18 -83 -27 -144q0 -1 -7 -54q-16 -26 -65 -38q-17 -4 -98 -19q-2 -4 -1 -13q1 -11 1 -17q0 -16 32 -44q39 -34 85 -34h325v-263z" />
    <glyph glyph-name="afii57421.zz04" unicode="&#x62d;" horiz-adv-x="1270" arabic-form="final" 
d="M1391 -789q-12 -18 -83 -66q-261 -176 -584 -176q-405 0 -554 156q-135 141 -135 504q0 255 99 464q90 189 283 382q-70 36 -116 36q-134 0 -243 -164q-1 15 -1 24q0 152 99 261.5t250 109.5q8 0 188 -31q93 -16 182 -16q132 0 267 47q-58 -219 -103 -259
q-20 -18 -152 -31v-105q28 -46 37 -56q25 -28 79 -28h411v-263h-364q-80 0 -138 60q-52 54 -72 137q-15 62 -15 120q0 35 4 62l7 46q0 16 -19 16q-48 0 -176 -83q-163 -106 -266 -254q-138 -199 -138 -434q0 -354 428 -452q149 -34 347 -34q199 0 339 27h139z" />
    <glyph glyph-name="afii57422.zz02" unicode="&#x62e;" horiz-adv-x="1022" arabic-form="initial" 
d="M1024 538q-17 -91 -47 -182q-12 -36 -25 -69q-137 -4 -147 -4q-86 -5 -144 -20q-27 -7 -123 -78q-116 -86 -184 -122q-119 -63 -220 -63h-190v263h287q91 0 147 26q47 22 152 106l-158 91q-99 52 -153 52q-42 0 -99 -32q-48 -27 -80 -40q26 93 49 145q74 167 208 167
q72 0 167 -62q133 -87 201 -115q154 -63 359 -63zM445 1413l155 -155l-155 -152l-155 152z" />
    <glyph glyph-name="afii57422.zz03" unicode="&#x62e;" horiz-adv-x="1364" arabic-form="medial" 
d="M1405 0h-279q-208 0 -208 347q-13 6 -25 12q-46 0 -178 -93q-190 -134 -262 -173q-170 -93 -312 -93h-197v263q163 0 239 8q210 22 398 168q-153 95 -249 95q-35 0 -111 -28q-57 -22 -114 -43v35q7 26 24 77q28 75 80 124q70 65 172 65q43 0 137 -43q140 -64 189 -81
q126 -44 244 -44q105 0 207 30q-18 -83 -27 -144q0 -1 -7 -54q-16 -26 -65 -38q-17 -4 -98 -19q-2 -4 -1 -13q1 -11 1 -17q0 -16 32 -44q39 -34 85 -34h325v-263zM445 1413l155 -155l-155 -152l-155 152z" />
    <glyph glyph-name="afii57422.zz04" unicode="&#x62e;" horiz-adv-x="1270" arabic-form="final" 
d="M1391 -789q-12 -18 -83 -66q-261 -176 -584 -176q-405 0 -554 156q-135 141 -135 504q0 255 99 464q90 189 283 382q-70 36 -116 36q-134 0 -243 -164q-1 15 -1 24q0 152 99 261.5t250 109.5q8 0 188 -31q93 -16 182 -16q132 0 267 47q-58 -219 -103 -259
q-20 -18 -152 -31v-105q28 -46 37 -56q25 -28 79 -28h411v-263h-364q-80 0 -138 60q-52 54 -72 137q-15 62 -15 120q0 35 4 62l7 46q0 16 -19 16q-48 0 -176 -83q-163 -106 -266 -254q-138 -199 -138 -434q0 -354 428 -452q149 -34 347 -34q199 0 339 27h139zM445 1413
l155 -155l-155 -152l-155 152z" />
    <glyph glyph-name="afii57423.zz04" unicode="&#x62f;" horiz-adv-x="1207" arabic-form="final" 
d="M1247 0h-157q-80 0 -115 94q-3 9 -58 173q-9 -9 -71 -111q-49 -81 -112 -120q-91 -57 -235 -57h-32q-80 0 -117 11q-60 18 -60 68v267q45 -45 66 -58q55 -34 131 -34q80 0 193 34q150 45 212 123l-93 504q6 35 32 133q7 28 27 98q0 -10 40 -199q48 -228 84 -374t38 -151
q35 -109 81 -130q24 -11 58 -11q28 0 49 1l39 2v-263z" />
    <glyph glyph-name="afii57512.zz04" unicode="&#x688;" horiz-adv-x="1207" arabic-form="final" 
d="M978 1373q0 -73 -99 -136q-85 -54 -213 -54q-77 0 -114 15q-48 19 -85 77l139 -15q14 4 42.5 30t28.5 39v290q0 6 -15 25q-8 10 -8 19q0 17 24 52q21 31 30 38q-3 -21 -3 -34q0 -30 41 -50q-7 -29 -12 -42q-10 -25 -26 -35l4 -245q58 41 90 62q58 38 92 38q30 0 57 -22
t27 -52zM913 1329q0 17 -31 29q-24 9 -45 9q-64 0 -160 -96q29 -7 35 -7q37 0 113 19q88 22 88 46zM1247 0h-157q-80 0 -115 94q-3 9 -58 173q-9 -9 -71 -111q-49 -81 -112 -120q-91 -57 -235 -57h-32q-80 0 -117 11q-60 18 -60 68v267q45 -45 66 -58q55 -34 131 -34
q80 0 193 34q150 45 212 123l-93 504q6 35 32 133q7 28 27 98q0 -10 40 -199q48 -228 84 -374t38 -151q35 -109 81 -130q24 -11 58 -11q28 0 49 1l39 2v-263z" />
    <glyph glyph-name="afii57424.zz04" unicode="&#x630;" horiz-adv-x="1207" arabic-form="final" 
d="M1247 0h-157q-80 0 -115 94q-3 9 -58 173q-9 -9 -71 -111q-49 -81 -112 -120q-91 -57 -235 -57h-32q-80 0 -117 11q-60 18 -60 68v267q45 -45 66 -58q55 -34 131 -34q80 0 193 34q150 45 212 123l-93 504q6 35 32 133q7 28 27 98q0 -10 40 -199q48 -228 84 -374t38 -151
q35 -109 81 -130q24 -11 58 -11q28 0 49 1l39 2v-263zM835 1558l155 -155l-155 -152l-155 152z" />
    <glyph glyph-name="afii57425.zz04" unicode="&#x631;" horiz-adv-x="873" arabic-form="final" 
d="M897 0h-45h-21q-15 1 -19 1q-48 1 -56 -15q-9 -79 -69 -206q-29 -61 -77 -130q-144 -206 -284 -206q-103 0 -217 64q-102 58 -177 144q42 -9 111 -23q120 -24 126 -24q86 0 221 85q109 69 191 151q94 93 94 143q0 11 -58 99t-58 93q32 72 47 173q69 -69 130 -82
q20 -4 161 -4v-263z" />
    <glyph glyph-name="afii57513.zz04" unicode="&#x691;" horiz-adv-x="873" arabic-form="final" 
d="M897 0h-45h-21q-15 1 -19 1q-48 1 -56 -15q-9 -79 -69 -206q-29 -61 -77 -130q-144 -206 -284 -206q-103 0 -217 64q-102 58 -177 144q42 -9 111 -23q120 -24 126 -24q86 0 221 85q109 69 191 151q94 93 94 143q0 11 -58 99t-58 93q32 72 47 173q69 -69 130 -82
q20 -4 161 -4v-263zM575 963l155 -155l-155 -152l-155 152z" />
    <glyph glyph-name="afii57426.zz04" unicode="&#x632;" horiz-adv-x="873" arabic-form="final" 
d="M897 0h-45h-21q-15 1 -19 1q-48 1 -56 -15q-9 -79 -69 -206q-29 -61 -77 -130q-144 -206 -284 -206q-103 0 -217 64q-102 58 -177 144q42 -9 111 -23q120 -24 126 -24q86 0 221 85q109 69 191 151q94 93 94 143q0 11 -58 99t-58 93q32 72 47 173q69 -69 130 -82
q20 -4 161 -4v-263zM645 649l137 136l-137 132l-269 -268l-135 136l134 132zM518 1199l136 -134l-136 -137l-134 137z" />
    <glyph glyph-name="afii57508.zz04" unicode="&#x698;" horiz-adv-x="873" arabic-form="final" 
d="M897 0h-45h-21q-15 1 -19 1q-48 1 -56 -15q-9 -79 -69 -206q-29 -61 -77 -130q-144 -206 -284 -206q-103 0 -217 64q-102 58 -177 144q42 -9 111 -23q120 -24 126 -24q86 0 221 85q109 69 191 151q94 93 94 143q0 11 -58 99t-58 93q32 72 47 173q69 -69 130 -82
q20 -4 161 -4v-263zM778 773q0 -73 -99 -136q-85 -54 -213 -54q-77 0 -114 15q-48 19 -85 77l139 -15q14 4 42.5 30t28.5 39v290q0 6 -15 25q-8 10 -8 19q0 17 24 52q21 31 30 38q-3 -21 -3 -34q0 -30 41 -50q-7 -29 -12 -42q-10 -25 -26 -35l4 -245q58 41 90 62
q58 38 92 38q30 0 57 -22t27 -52zM713 729q0 17 -31 29q-24 9 -45 9q-64 0 -160 -96q29 -7 35 -7q37 0 113 19q88 22 88 46z" />
    <glyph glyph-name="afii57427.zz02" unicode="&#x633;" horiz-adv-x="1171" arabic-form="initial" 
d="M1158 436q0 -61 -14 -140q-48 -273 -172 -273q-34 0 -118 52.5t-90 52.5q-131 -128 -268 -128q-58 0 -132 32q-62 31 -124 61q-114 -93 -149 -93h-163v263h72q167 0 210 60q46 81 89 153q4 -14 4 -60q0 -84 24 -121q41 -63 163 -63q106 0 184 61q43 34 99 120t72 98
q0 -21 -6 -62.5t-6 -62.5q0 -119 185 -119q74 0 74 55q0 21 -39 114q20 50 82 167q27 -90 27 -115q0 -9 -2 -26t-2 -26z" />
    <glyph glyph-name="afii57427.zz03" unicode="&#x633;" horiz-adv-x="1475" arabic-form="medial" 
d="M1533 0h-221q-28 0 -121 81q-73 -81 -146 -81q-41 0 -87 25q-104 56 -110 56q-121 -81 -238 -81q-56 0 -137 33l-130 60q-96 -93 -156 -93h-243v263h56q219 0 290 41l117 149q0 -115 59 -159q50 -38 173 -38q114 0 179 48q44 33 79 102q39 77 55 93q0 -80 -7 -117
q-5 -23 -16 -68q0 -14 37 -34q45 -24 97 -24q89 0 134 85q27 53 80 158q17 -45 17 -82q0 -27 -8 -51q-2 -7 -9 -18q0 -53 54 -72q37 -13 110 -13h92v-263z" />
    <glyph glyph-name="afii57427.zz04" unicode="&#x633;" horiz-adv-x="2045" arabic-form="final" 
d="M2085 0h-189q-36 0 -83 41q-24 20 -45 41q-75 -82 -151 -82q-31 0 -106 35t-86 35q-114 -81 -222 -81q-66 0 -144 45q-3 -11 -18 -148q-7 -65 -16 -95q-24 -80 -89 -167q-196 -261 -529 -261q-289 0 -356 218q-25 81 -25 215q0 94 35 219q44 157 115 217
q-59 -217 -59 -278q0 -239 217 -295q77 -20 190 -20q145 0 288 58q155 63 155 140q0 176 -94 338q-11 19 -34 58q29 46 45 73q51 86 71 136q29 -88 95 -141q69 -56 159 -56q112 0 180 51q43 32 83 105q43 79 63 98q0 -86 -11 -142q-4 -20 -12 -37q0 -15 34 -37
q42 -27 100 -27q80 0 132 90q27 51 83 153q7 -25 7 -53q0 -26 -5 -53l-11 -61q0 -69 193 -69h40v-263z" />
    <glyph glyph-name="afii57428.zz02" unicode="&#x634;" horiz-adv-x="1171" arabic-form="initial" 
d="M1158 436q0 -61 -14 -140q-48 -273 -172 -273q-34 0 -118 52.5t-90 52.5q-131 -128 -268 -128q-58 0 -132 32q-62 31 -124 61q-114 -93 -149 -93h-163v263h72q167 0 210 60q46 81 89 153q4 -14 4 -60q0 -84 24 -121q41 -63 163 -63q106 0 184 61q43 34 99 120t72 98
q0 -21 -6 -62.5t-6 -62.5q0 -119 185 -119q74 0 74 55q0 21 -39 114q20 50 82 167q27 -90 27 -115q0 -9 -2 -26t-2 -26zM860 826l137 136l-137 132l-269 -268l-135 136l134 132zM733 1376l136 -134l-136 -137l-134 137z" />
    <glyph glyph-name="afii57428.zz03" unicode="&#x634;" horiz-adv-x="1475" arabic-form="medial" 
d="M1533 0h-221q-28 0 -121 81q-73 -81 -146 -81q-41 0 -87 25q-104 56 -110 56q-121 -81 -238 -81q-56 0 -137 33l-130 60q-96 -93 -156 -93h-243v263h56q219 0 290 41l117 149q0 -115 59 -159q50 -38 173 -38q114 0 179 48q44 33 79 102q39 77 55 93q0 -80 -7 -117
q-5 -23 -16 -68q0 -14 37 -34q45 -24 97 -24q89 0 134 85q27 53 80 158q17 -45 17 -82q0 -27 -8 -51q-2 -7 -9 -18q0 -53 54 -72q37 -13 110 -13h92v-263zM1000 836l137 136l-137 132l-269 -268l-135 136l134 132zM873 1386l136 -134l-136 -137l-134 137z" />
    <glyph glyph-name="afii57428.zz04" unicode="&#x634;" horiz-adv-x="2045" arabic-form="final" 
d="M2085 0h-189q-36 0 -83 41q-24 20 -45 41q-75 -82 -151 -82q-31 0 -106 35t-86 35q-114 -81 -222 -81q-66 0 -144 45q-3 -11 -18 -148q-7 -65 -16 -95q-24 -80 -89 -167q-196 -261 -529 -261q-289 0 -356 218q-25 81 -25 215q0 94 35 219q44 157 115 217
q-59 -217 -59 -278q0 -239 217 -295q77 -20 190 -20q145 0 288 58q155 63 155 140q0 176 -94 338q-11 19 -34 58q29 46 45 73q51 86 71 136q29 -88 95 -141q69 -56 159 -56q112 0 180 51q43 32 83 105q43 79 63 98q0 -86 -11 -142q-4 -20 -12 -37q0 -15 34 -37
q42 -27 100 -27q80 0 132 90q27 51 83 153q7 -25 7 -53q0 -26 -5 -53l-11 -61q0 -69 193 -69h40v-263zM1535 841l137 136l-137 132l-269 -268l-135 136l134 132zM1408 1391l136 -134l-136 -137l-134 137z" />
    <glyph glyph-name="afii57429.zz02" unicode="&#x635;" horiz-adv-x="1572" arabic-form="initial" 
d="M1651 534q0 -150 -156 -289q-123 -110 -292 -176q-233 -92 -516 -92q-176 0 -253 25q-107 34 -200 148q-50 -73 -68 -97q-39 -53 -105 -53h-117v263q26 0 72 -2q51 -2 72 -2q68 -1 107 35q28 26 63 100q26 -77 94.5 -131.5t148.5 -54.5q20 0 203 141q234 180 372 264
q233 142 372 142q54 0 118 -50q85 -66 85 -171zM1477 406q0 40 -114 81q-97 35 -140 35q-94 0 -240 -80q-111 -61 -226 -150l-104 -84h302q114 0 311 68q211 73 211 130z" />
    <glyph glyph-name="afii57429.zz03" unicode="&#x635;" horiz-adv-x="1750" arabic-form="medial" 
d="M1809 0l-1177 -3q-140 0 -224 32q-103 39 -174 141q-8 -11 -64 -100q-44 -70 -111 -70h-115v263h76q109 0 145 21q44 26 91 130q20 -76 91.5 -131t150.5 -55q17 0 202 141q237 180 373 263q232 141 370 141q58 0 124 -56q80 -68 80 -164q0 -85 -89 -190q-34 -40 -96 -102
q38 -7 53 -7q95 9 294 9v-263zM1472 426q0 37 -108 78q-97 37 -152 37q-137 0 -385 -181q-89 -65 -176 -143h150q57 19 242.5 40.5t269.5 47.5q159 49 159 121z" />
    <glyph glyph-name="afii57429.zz04" unicode="&#x635;" horiz-adv-x="2316" arabic-form="final" 
d="M2378 0q-116 0 -710 24l-208 9q-254 -36 -394 -36h-24q-16 1 -24 1q-33 -342 -251 -501q-141 -103 -345 -103q-396 0 -396 413q0 88 38 215q46 154 113 221q-13 -53 -29 -125q-29 -131 -29 -159q0 -309 396 -309q135 0 272 59q150 65 150 145q0 113 -37 210
q-27 62 -80 186q1 8 4 22q14 57 66 168q63 -118 113 -155q41 -30 120 -30q34 0 194 144q213 191 323 268q208 145 354 145q97 0 159 -54t62 -150q0 -159 -186 -345q31 -9 82 -9q44 0 133 4.5t134 4.5v-263zM2041 451q0 45 -116 90q-98 38 -152 38q-79 0 -262 -125
q-152 -103 -237 -188h267q98 0 281 53q219 63 219 132z" />
    <glyph glyph-name="afii57430.zz02" unicode="&#x636;" horiz-adv-x="1592" arabic-form="initial" 
d="M1651 534q0 -150 -156 -289q-123 -110 -292 -176q-233 -92 -516 -92q-176 0 -253 25q-107 34 -200 148q-50 -73 -68 -97q-39 -53 -105 -53h-117v263q26 0 72 -2q51 -2 72 -2q68 -1 107 35q28 26 63 100q26 -77 94.5 -131.5t148.5 -54.5q20 0 203 141q234 180 372 264
q233 142 372 142q54 0 118 -50q85 -66 85 -171zM1477 406q0 40 -114 81q-97 35 -140 35q-94 0 -240 -80q-111 -61 -226 -150l-104 -84h302q114 0 311 68q211 73 211 130zM770 1173l155 -155l-155 -152l-155 152z" />
    <glyph glyph-name="afii57430.zz03" unicode="&#x636;" horiz-adv-x="1750" arabic-form="medial" 
d="M1809 0l-1177 -3q-140 0 -224 32q-103 39 -174 141q-8 -11 -64 -100q-44 -70 -111 -70h-115v263h76q109 0 145 21q44 26 91 130q20 -76 91.5 -131t150.5 -55q17 0 202 141q237 180 373 263q232 141 370 141q58 0 124 -56q80 -68 80 -164q0 -85 -89 -190q-34 -40 -96 -102
q38 -7 53 -7q95 9 294 9v-263zM1472 426q0 37 -108 78q-97 37 -152 37q-137 0 -385 -181q-89 -65 -176 -143h150q57 19 242.5 40.5t269.5 47.5q159 49 159 121zM770 1173l155 -155l-155 -152l-155 152z" />
    <glyph glyph-name="afii57430.zz04" unicode="&#x636;" horiz-adv-x="2316" arabic-form="final" 
d="M2378 0q-116 0 -710 24l-208 9q-254 -36 -394 -36h-24q-16 1 -24 1q-33 -342 -251 -501q-141 -103 -345 -103q-396 0 -396 413q0 88 38 215q46 154 113 221q-13 -53 -29 -125q-29 -131 -29 -159q0 -309 396 -309q135 0 272 59q150 65 150 145q0 113 -37 210
q-27 62 -80 186q1 8 4 22q14 57 66 168q63 -118 113 -155q41 -30 120 -30q34 0 194 144q213 191 323 268q208 145 354 145q97 0 159 -54t62 -150q0 -159 -186 -345q31 -9 82 -9q44 0 133 4.5t134 4.5v-263zM2041 451q0 45 -116 90q-98 38 -152 38q-79 0 -262 -125
q-152 -103 -237 -188h267q98 0 281 53q219 63 219 132zM1370 1223l155 -155l-155 -152l-155 152z" />
    <glyph glyph-name="afii57431.zz02" unicode="&#x637;" horiz-adv-x="1129" arabic-form="initial" 
d="M931 487q-129 93 -233 93q-147 0 -375 -208q-35 -32 -111 -109h208q400 0 511 224zM-56 263h107q65 67 161 172q55 60 57 64v824q-82 75 -82 105q36 101 77 165q45 71 98 112q0 -134 14 -168q20 -49 114 -87q-40 -121 -48 -141q-25 -66 -68 -90l11 -650q62 40 185 130
q93 68 142 92q70 34 149 34q233 0 233 -204q0 -163 -139 -318q-116 -129 -285 -213q-182 -90 -343 -90h-383v263z" />
    <glyph glyph-name="afii57431.zz03" unicode="&#x637;" horiz-adv-x="1246" arabic-form="medial" 
d="M942 409q0 59 -116 92q-39 11 -117 22q-157 0 -372 -176q-66 -54 -126 -113q48 -12 98 -12q79 0 221 23q166 27 276 65q136 47 136 99zM211 419v869q0 22 -35 61t-35 72q0 46 63 145q58 93 101 128q-11 -75 -11 -101q0 -96 126 -154q-7 -26 -21 -77q-37 -121 -94 -155
l10 -741q39 22 180 118q126 85 204 125q114 58 185 58q83 0 163 -62q91 -70 91 -164q0 -130 -185 -319q24 -3 39 -3q22 0 42.5 11.5t34.5 18.5l223 14v-263h-1348v263h107q53 56 132 128q27 25 28 28z" />
    <glyph glyph-name="afii57431.zz04" unicode="&#x637;" horiz-adv-x="1666" arabic-form="final" 
d="M1707 0l-1301 -9q-136 -1 -263 91q-87 63 -154 164l417 -35q40 8 130 90.5t90 117.5v869q0 22 -35 61t-35 72q0 46 63 145q58 93 101 128q-11 -75 -11 -101q0 -96 126 -154q-7 -26 -21 -77q-37 -121 -94 -155l10 -741q39 22 180 118q126 85 204 125q114 58 185 58
q83 0 163 -62q91 -70 91 -164q0 -130 -185 -319q24 -3 39 -3q22 0 42.5 11.5t34.5 18.5l223 14v-263zM1357 409q0 59 -116 92q-39 11 -117 22q-157 0 -372 -176q-66 -54 -126 -113q48 -12 98 -12q79 0 221 23q166 27 276 65q136 47 136 99z" />
    <glyph glyph-name="afii57432.zz02" unicode="&#x638;" horiz-adv-x="1129" arabic-form="initial" 
d="M931 487q-129 93 -233 93q-147 0 -375 -208q-35 -32 -111 -109h208q400 0 511 224zM-56 263h107q65 67 161 172q55 60 57 64v824q-82 75 -82 105q36 101 77 165q45 71 98 112q0 -134 14 -168q20 -49 114 -87q-40 -121 -48 -141q-25 -66 -68 -90l11 -650q62 40 185 130
q93 68 142 92q70 34 149 34q233 0 233 -204q0 -163 -139 -318q-116 -129 -285 -213q-182 -90 -343 -90h-383v263zM715 1318l155 -155l-155 -152l-155 152z" />
    <glyph glyph-name="afii57432.zz03" unicode="&#x638;" horiz-adv-x="1246" arabic-form="medial" 
d="M942 409q0 59 -116 92q-39 11 -117 22q-157 0 -372 -176q-66 -54 -126 -113q48 -12 98 -12q79 0 221 23q166 27 276 65q136 47 136 99zM211 419v869q0 22 -35 61t-35 72q0 46 63 145q58 93 101 128q-11 -75 -11 -101q0 -96 126 -154q-7 -26 -21 -77q-37 -121 -94 -155
l10 -741q39 22 180 118q126 85 204 125q114 58 185 58q83 0 163 -62q91 -70 91 -164q0 -130 -185 -319q24 -3 39 -3q22 0 42.5 11.5t34.5 18.5l223 14v-263h-1348v263h107q53 56 132 128q27 25 28 28zM715 1318l155 -155l-155 -152l-155 152z" />
    <glyph glyph-name="afii57432.zz04" unicode="&#x638;" horiz-adv-x="1666" arabic-form="final" 
d="M1707 0l-1301 -9q-136 -1 -263 91q-87 63 -154 164l417 -35q40 8 130 90.5t90 117.5v869q0 22 -35 61t-35 72q0 46 63 145q58 93 101 128q-11 -75 -11 -101q0 -96 126 -154q-7 -26 -21 -77q-37 -121 -94 -155l10 -741q39 22 180 118q126 85 204 125q114 58 185 58
q83 0 163 -62q91 -70 91 -164q0 -130 -185 -319q24 -3 39 -3q22 0 42.5 11.5t34.5 18.5l223 14v-263zM1357 409q0 59 -116 92q-39 11 -117 22q-157 0 -372 -176q-66 -54 -126 -113q48 -12 98 -12q79 0 221 23q166 27 276 65q136 47 136 99zM1115 1298l155 -155l-155 -152
l-155 152z" />
    <glyph glyph-name="afii57433.zz02" unicode="&#x639;" horiz-adv-x="1067" arabic-form="initial" 
d="M1033 407q-10 -22 -32 -116q-17 -73 -49 -105q-26 -21 -148 -64q-347 -122 -605 -122h-255v263h359q-47 92 -47 214q0 150 92 277q101 140 246 140q224 0 313 -220q-52 19 -90 30q-60 17 -142 17q-114 0 -221 -63q-93 -55 -93 -88q0 -71 86 -163q74 -79 180 -93z" />
    <glyph glyph-name="afii57433.zz03" unicode="&#x639;" horiz-adv-x="1014" arabic-form="medial" 
d="M1058 0h-175q-114 0 -212 96q-51 50 -101 101q-76 -51 -207 -145q-57 -41 -92 -49q-17 -3 -107 -3h-220v263q19 0 67 -1l53 -1q260 0 379 88q-50 74 -145 103q-76 23 -76 54q0 19 32 75q108 187 304 187q104 0 194 -49q108 -59 108 -155q0 -68 -41 -123
q-30 -40 -109 -104q91 -74 348 -74v-263z" />
    <glyph glyph-name="afii57433.zz04" unicode="&#x639;" horiz-adv-x="1062" arabic-form="final" 
d="M1213 -776q-33 -39 -104 -87q-246 -167 -546 -167q-372 0 -487 326q-46 131 -46 304q0 197 97 411q93 202 240 349q-38 37 -49 44q-23 14 -62 14h-37q-25 -1 -37 -1v70q45 97 72 135q78 110 252 110q278 0 278 -163q0 -54 -38 -109q-27 -39 -100 -112q108 -85 185 -85
h287v-263h-275q-138 0 -233 138q-11 16 -92 141q-139 -75 -259 -269q-125 -203 -125 -375q0 -340 429 -426q100 -20 175 -20h232q120 0 243 35z" />
    <glyph glyph-name="afii57434.zz02" unicode="&#x63a;" horiz-adv-x="1067" arabic-form="initial" 
d="M1033 407q-10 -22 -32 -116q-17 -73 -49 -105q-26 -21 -148 -64q-347 -122 -605 -122h-255v263h359q-47 92 -47 214q0 150 92 277q101 140 246 140q224 0 313 -220q-52 19 -90 30q-60 17 -142 17q-114 0 -221 -63q-93 -55 -93 -88q0 -71 86 -163q74 -79 180 -93z
M520 1343l155 -155l-155 -152l-155 152z" />
    <glyph glyph-name="afii57434.zz03" unicode="&#x63a;" horiz-adv-x="1014" arabic-form="medial" 
d="M1058 0h-175q-114 0 -212 96q-51 50 -101 101q-76 -51 -207 -145q-57 -41 -92 -49q-17 -3 -107 -3h-220v263q19 0 67 -1l53 -1q260 0 379 88q-50 74 -145 103q-76 23 -76 54q0 19 32 75q108 187 304 187q104 0 194 -49q108 -59 108 -155q0 -68 -41 -123
q-30 -40 -109 -104q91 -74 348 -74v-263zM520 1343l155 -155l-155 -152l-155 152z" />
    <glyph glyph-name="afii57434.zz04" unicode="&#x63a;" horiz-adv-x="1062" arabic-form="final" 
d="M1213 -776q-33 -39 -104 -87q-246 -167 -546 -167q-372 0 -487 326q-46 131 -46 304q0 197 97 411q93 202 240 349q-38 37 -49 44q-23 14 -62 14h-37q-25 -1 -37 -1v70q45 97 72 135q78 110 252 110q278 0 278 -163q0 -54 -38 -109q-27 -39 -100 -112q108 -85 185 -85
h287v-263h-275q-138 0 -233 138q-11 16 -92 141q-139 -75 -259 -269q-125 -203 -125 -375q0 -340 429 -426q100 -20 175 -20h232q120 0 243 35zM520 1343l155 -155l-155 -152l-155 152z" />
    <glyph glyph-name="afii57441.zz02" unicode="&#x641;" horiz-adv-x="698" arabic-form="initial" 
d="M661 412q0 -242 -242 -366q-90 -46 -162 -46h-313v263h416q40 0 126 24q107 30 107 62q-6 15 -16 41q-20 49 -42 85q-94 -70 -175 -70q-79 0 -123 55q-40 51 -40 132q0 93 58 211q68 138 152 138q22 0 73 -43q181 -152 181 -486zM465 592v34l-28 48q-16 21 -65 56
q-25 -17 -50 -33q-20 -20 -42 -94l46 -21q29 -14 46 -14q25 0 93 24zM395 1448l155 -155l-155 -152l-155 152z" />
    <glyph glyph-name="afii57441.zz03" unicode="&#x641;" horiz-adv-x="807" arabic-form="medial" 
d="M841 0h-224q-63 0 -154 58q-31 19 -78 58q-59 -39 -95 -58q-110 -58 -183 -58h-163v263h11q135 0 267 15q-11 69 -11 128q0 126 86 295q97 193 209 193q74 0 120 -102q37 -82 37 -166q0 -71 -31.5 -169t-72.5 -159q37 -37 131 -37q25 0 75.5 1t75.5 1v-263zM535 498
q0 32 -28 68.5t-58 36.5q-49 0 -99 -40q-58 -47 -58 -111q0 -36 52 -73q17 -12 53 -30q35 0 86.5 56.5t51.5 92.5zM395 1448l155 -155l-155 -152l-155 152z" />
    <glyph glyph-name="afii57441.zz04" unicode="&#x641;" horiz-adv-x="1819" arabic-form="final" 
d="M1877 0h-224q-50 0 -115 40q-59 44 -117 88l-113 -48q-327 -138 -685 -138q-331 0 -487 158q-98 99 -98 249q0 95 40 197q48 122 122 152q-13 -38 -34 -99q-24 -71 -24 -104q0 -169 214 -251q153 -58 355 -58q204 0 433 47l160 34q0 27 -15 93q-8 35 -8 59q0 135 102 296
q108 170 216 170q57 0 98 -96q36 -85 36 -166q0 -59 -29 -141q-39 -110 -110 -192q54 -32 119 -32q27 0 82 2.5t82 2.5v-263zM1605 501q0 38 -35.5 71t-73.5 33q-46 0 -99 -66q-46 -57 -46 -79q0 -32 58 -75q19 -14 58 -36q10 0 70 54q68 61 68 98zM1465 1428l155 -155
l-155 -152l-155 152z" />
    <glyph glyph-name="afii57442.zz02" unicode="&#x642;" horiz-adv-x="729" arabic-form="initial" 
d="M661 412q0 -242 -242 -366q-90 -46 -162 -46h-313v263h416q40 0 126 24q107 30 107 62q-6 15 -16 41q-20 49 -42 85q-94 -70 -175 -70q-79 0 -123 55q-40 51 -40 132q0 93 58 211q68 138 152 138q22 0 73 -43q181 -152 181 -486zM465 592v34l-28 48q-16 21 -65 56
q-25 -17 -50 -33q-20 -20 -42 -94l46 -21q29 -14 46 -14q25 0 93 24zM559 1051l138 136l-137 133l-270 -269l-135 136l136 133z" />
    <glyph glyph-name="afii57442.zz03" unicode="&#x642;" horiz-adv-x="807" arabic-form="medial" 
d="M841 0h-224q-63 0 -154 58q-31 19 -78 58q-59 -39 -95 -58q-110 -58 -183 -58h-163v263h11q135 0 267 15q-11 69 -11 128q0 126 86 295q97 193 209 193q74 0 120 -102q37 -82 37 -166q0 -71 -31.5 -169t-72.5 -159q37 -37 131 -37q25 0 75.5 1t75.5 1v-263zM535 498
q0 32 -28 68.5t-58 36.5q-49 0 -99 -40q-58 -47 -58 -111q0 -36 52 -73q17 -12 53 -30q35 0 86.5 56.5t51.5 92.5zM559 1051l138 136l-137 133l-270 -269l-135 136l136 133z" />
    <glyph glyph-name="afii57442.zz04" unicode="&#x642;" horiz-adv-x="1270" arabic-form="final" 
d="M1319 0h-162q0 -134 -103 -276q-91 -125 -219 -202q-167 -100 -362 -100q-227 0 -340 130q-104 120 -101 322q0 27 8 94q12 106 42 188q39 107 102 134q-59 -189 -59 -295q0 -319 388 -319q169 0 317 57q169 65 258 187v80q-9 1 -32 1q-14 0 -42.5 -1t-42.5 -1
q-108 0 -162 30q-80 45 -80 163q0 78 52 188q67 142 161 142q87 0 138 -90q43 -75 43 -169h196v-263zM995 221v34q-28 55 -46 76q-25 30 -53 30q-13 0 -29.5 -21.5t-45.5 -60.5v-35q71 -34 92 -34q28 11 82 11zM989 836l138 136l-137 133l-270 -269l-135 136l136 133z" />
    <glyph glyph-name="afii57443.zz02" unicode="&#x643;" horiz-adv-x="905" arabic-form="initial" 
d="M1023 1638q-42 -218 -45 -221l-179 -83q-205 -96 -327 -160q-229 -119 -297 -187q10 -10 154 -99q136 -84 207 -168q104 -123 104 -272q0 -173 -104 -303q-116 -145 -302 -145h-290v263h313q73 0 157 33q110 43 110 111q0 104 -120 179q-76 43 -225 133q-121 80 -121 205
q0 179 232 341q45 31 188 117q211 126 362 193q109 48 183 63z" />
    <glyph glyph-name="afii57443.zz03" unicode="&#x643;" horiz-adv-x="1334" arabic-form="medial" 
d="M1385 0h-198q-78 36 -166 110q-68 58 -178 170l-225 231q-49 -172 -89 -258q-116 -253 -341 -253h-244v263h279q65 0 152 40q115 53 115 133t-117 167q-72 53 -217 161q-118 106 -118 224q0 32 11 101q12 76 23 96q28 52 279 204q169 102 317 181q238 126 379 173
q-23 -105 -47 -211q-6 -7 -196 -102q-256 -128 -385 -199q-229 -126 -324 -209q140 -78 413 -247q145 -98 308 -229q83 -68 251 -203q73 -57 135 -71q40 -9 183 -9v-263z" />
    <glyph glyph-name="afii57443.zz04" unicode="&#x643;" horiz-adv-x="2378" arabic-form="final" 
d="M488 0q-198 0 -317 71q-147 88 -147 271q0 95 48 222q54 145 126 178q-15 -35 -30 -105q-18 -83 -18 -144q0 -185 276 -219q90 -11 248 -11h593q65 0 152 40q115 53 115 133t-117 167q-72 53 -217 161q-118 106 -118 224q0 32 11 101q12 76 23 96q28 52 279 204
q169 102 317 181q238 126 379 173q-23 -105 -47 -211q-6 -7 -196 -102q-256 -128 -385 -199q-229 -126 -324 -209q140 -78 413 -247q145 -98 308 -229q83 -68 251 -203q73 -57 135 -71q40 -9 183 -9v-263h-198q-78 36 -166 110q-68 58 -178 170l-225 231q-49 -172 -89 -258
q-116 -253 -341 -253h-744z" />
    <glyph glyph-name="afii57509.zz02" unicode="&#x6af;" horiz-adv-x="905" arabic-form="initial" 
d="M48 1270l24 81l997 499l-26 -82zM1023 1638q-42 -218 -45 -221l-179 -83q-205 -96 -327 -160q-229 -119 -297 -187q10 -10 154 -99q136 -84 207 -168q104 -123 104 -272q0 -173 -104 -303q-116 -145 -302 -145h-290v263h313q73 0 157 33q110 43 110 111q0 104 -120 179
q-76 43 -225 133q-121 80 -121 205q0 179 232 341q45 31 188 117q211 126 362 193q109 48 183 63z" />
    <glyph glyph-name="afii57509.zz03" unicode="&#x6af;" horiz-adv-x="1334" arabic-form="medial" 
d="M1385 0h-198q-78 36 -166 110q-68 58 -178 170l-225 231q-49 -172 -89 -258q-116 -253 -341 -253h-244v263h279q65 0 152 40q115 53 115 133t-117 167q-72 53 -217 161q-118 106 -118 224q0 32 11 101q12 76 23 96q28 52 279 204q169 102 317 181q238 126 379 173
q-23 -105 -47 -211q-6 -7 -196 -102q-256 -128 -385 -199q-229 -126 -324 -209q140 -78 413 -247q145 -98 308 -229q83 -68 251 -203q73 -57 135 -71q40 -9 183 -9v-263zM48 1350l24 81l997 499l-26 -82z" />
    <glyph glyph-name="afii57509.zz04" unicode="&#x6af;" horiz-adv-x="2378" arabic-form="final" 
d="M1092 1350l24 81l997 499l-26 -82zM488 0q-198 0 -317 71q-147 88 -147 271q0 95 48 222q54 145 126 178q-15 -35 -30 -105q-18 -83 -18 -144q0 -185 276 -219q90 -11 248 -11h593q65 0 152 40q115 53 115 133t-117 167q-72 53 -217 161q-118 106 -118 224q0 32 11 101
q12 76 23 96q28 52 279 204q169 102 317 181q238 126 379 173q-23 -105 -47 -211q-6 -7 -196 -102q-256 -128 -385 -199q-229 -126 -324 -209q140 -78 413 -247q145 -98 308 -229q83 -68 251 -203q73 -57 135 -71q40 -9 183 -9v-263h-198q-78 36 -166 110q-68 58 -178 170
l-225 231q-49 -172 -89 -258q-116 -253 -341 -253h-744z" />
    <glyph glyph-name="afii57444.zz02" unicode="&#x644;" horiz-adv-x="482" arabic-form="initial" 
d="M454 1331q0 -51 -34 -127q-12 -27 -34 -65q-4 -12 -4 -42q0 -36 7 -112l13 -156q7 -80 7 -132v-244q0 -174 -49 -291q-68 -162 -218 -162h-198v263q25 0 70 -1q49 -2 70 -2q96 -1 144 18q64 25 64 89q0 450 -32 757q-11 103 -14 108q-83 95 -83 134q6 17 19 51
q62 149 169 221q2 -12 2 -31q0 -24 -5 -42q-12 -45 -13 -51q0 -14 4 -27q13 -43 85 -106q30 -26 30 -50z" />
    <glyph glyph-name="afii57444.zz03" unicode="&#x644;" horiz-adv-x="625" arabic-form="medial" 
d="M653 0h-139q-56 0 -90 30q-25 22 -55 81q-47 91 -65 121q-29 -29 -102 -154q-45 -78 -118 -78h-140v263q163 0 214 33q72 46 64 175l-58 906q-5 73 34 139q30 52 106 111q0 -86 36 -625q15 -236 22 -293q1 -8 1 -17v-14v-38q-1 -25 -1 -38q0 -93 14 -148
q49 -191 277 -191v-263z" />
    <glyph glyph-name="afii57444.zz04" unicode="&#x644;" horiz-adv-x="1318" arabic-form="final" 
d="M154 -52q0 -133 110 -197q89 -52 232 -52q53 0 124 14q237 46 266 166l-105 1481q19 49 55 110q46 78 85 109l62 -816q24 -298 98 -396q78 -104 304 -104v-263h-198q-50 0 -89 29q-49 45 -85 76q-14 -74 -45 -220q-48 -201 -162 -328q-153 -169 -413 -169
q-276 0 -334 224q-21 81 -21 215q4 31 12 92q16 100 46 187q39 112 92 150q-34 -143 -34 -308z" />
    <glyph glyph-name="afii57445.zz02" unicode="&#x645;" horiz-adv-x="866" arabic-form="initial" 
d="M831 372q0 -110 -42 -187q-53 -96 -154 -96q-70 0 -156 51q-12 7 -117 76q-90 -143 -112 -174q-25 -35 -97 -35h-209v263h94q100 0 141 16q51 20 105 89q27 35 153 224q42 63 68 91q57 61 112 61q50 0 127 -116q87 -131 87 -263zM693 320v58q-38 81 -45 93q-40 70 -95 70
q-7 2 -12 -1q-35 -19 -93 -127q158 -105 198 -105q-13 0 47 12z" />
    <glyph glyph-name="afii57445.zz03" unicode="&#x645;" horiz-adv-x="993" arabic-form="medial" 
d="M1024 7h-186q-31 0 -74 23l-42 24q-12 0 -37 -52.5t-91 -52.5q-148 0 -313 162q-7 -7 -59 -76q-21 -28 -57 -28h-221v263q142 0 164 3q91 12 142 69q45 51 136 153q63 69 97 69h18q80 0 128 -76q72 -115 105 -141q96 -77 290 -77v-263zM583 181v47q-17 58 -31 101
q-22 69 -62 119q-31 -30 -61 -60q-44 -44 -44 -62q0 -31 77 -81q62 -40 121 -64z" />
    <glyph glyph-name="afii57445.zz04" unicode="&#x645;" horiz-adv-x="924" arabic-form="final" 
d="M986 0h-174q-48 0 -97 31q-31 19 -77 51q0 -255 -129 -255q-71 0 -118 90q-55 105 -55 200l-34 12q-117 0 -175 -116l70 -899q-12 -108 -69 -181l-94 1016q0 98 74 227.5t159 172.5q50 25 98 37q29 7 88 21q4 5 4 9q-4 9 -4 16q0 23 45 68q35 -27 82 -106q39 -65 103 -92
q93 -39 303 -39v-263z" />
    <glyph glyph-name="afii57446.zz02" unicode="&#x646;" horiz-adv-x="482" arabic-form="initial" 
d="M447 413q0 -328 -242 -393q-75 -20 -204 -20h-67v263h37q25 -1 37 -1q298 0 357 74q0 17 -36 90q-10 19 -36 70q22 41 42 83q47 97 56 126l37 -149q19 -80 19 -143zM240 1193l155 -155l-155 -152l-155 152z" />
    <glyph glyph-name="afii57446.zz03" unicode="&#x646;" horiz-adv-x="628" arabic-form="medial" 
d="M675 0h-180q-69 0 -115 51q-6 7 -88 128q-18 -32 -55 -95q-53 -84 -145 -84h-158v263q222 0 293 30q37 16 63 84q30 79 73 113q0 -151 50 -194q40 -34 173 -34h38q6 0 19 1h20h12v-263zM285 1073l155 -155l-155 -152l-155 152z" />
    <glyph glyph-name="afii57446.zz04" unicode="&#x646;" horiz-adv-x="1254" arabic-form="final" 
d="M1280 0h-249q0 -270 -167 -434t-437 -164q-401 0 -401 401q0 36 14 114q48 264 144 309q-56 -215 -56 -271q0 -304 389 -304q152 0 267 51q146 65 146 186q0 93 -42 187l-94 152l102 192q54 -66 108 -131q38 -25 276 -25v-263zM525 788l155 -155l-155 -152l-155 152z" />
    <glyph glyph-name="afii57514.zz04" unicode="&#x6ba;" horiz-adv-x="1254" arabic-form="final" 
d="M1280 0h-249q0 -270 -167 -434t-437 -164q-401 0 -401 401q0 36 14 114q48 264 144 309q-56 -215 -56 -271q0 -304 389 -304q152 0 267 51q146 65 146 186q0 93 -42 187l-94 152l102 192q54 -66 108 -131q38 -25 276 -25v-263z" />
    <glyph glyph-name="afii57448.zz04" unicode="&#x648;" horiz-adv-x="1019" arabic-form="final" 
d="M1061 0h-198q-17 -45 -54 -134q-65 -144 -170 -244q-138 -132 -309 -132q-232 0 -407 173q188 -15 274 -15h67q21 3 31 4q99 0 210 68q140 86 254 257q-94 15 -187 29q-103 27 -103 134q0 123 91 254q82 118 129 118q56 0 103 -77q41 -90 83 -179q4 -1 21 -1h148
q10 0 17 1v-256zM736 174q-13 68 -24 84q-17 25 -81 55q-16 -29 -34 -59q-13 -21 -13 -27l3 -3q9 -12 9 -38q82 -12 140 -12z" />
    <glyph glyph-name="afii57412.zz04" unicode="&#x624;" horiz-adv-x="1019" arabic-form="final" 
d="M1061 0h-198q-17 -45 -54 -134q-65 -144 -170 -244q-138 -132 -309 -132q-232 0 -407 173q188 -15 274 -15h67q21 3 31 4q99 0 210 68q140 86 254 257q-94 15 -187 29q-103 27 -103 134q0 123 91 254q82 118 129 118q56 0 103 -77q41 -90 83 -179q4 -1 21 -1h148
q10 0 17 1v-256zM736 174q-13 68 -24 84q-17 25 -81 55q-16 -29 -34 -59q-13 -21 -13 -27l3 -3q9 -12 9 -38q82 -12 140 -12zM781 1137q-7 -9 -29 -53q-14 -28 -30 -28q-13 0 -38.5 1.5t-36.5 1.5q-100 1 -238 -109q-3 20 -3 32q0 18 4 31q11 35 11 43q0 21 -14 44
q-33 54 -33 72q0 46 100 127t148 81q25 0 44.5 -19t19.5 -44q0 -62 -32 -62q-14 0 -44 9.5t-45 9.5q-63 0 -98 -91q36 -26 50 -33q29 -14 109 -14h102q6 0 19 1h21h13z" />
    <glyph glyph-name="uni06C1.zz02" unicode="&#x6c1;" horiz-adv-x="906" arabic-form="initial" 
d="M497 -285q4 81 45 160q41 76 116 132q-22 -3 -49 -3q-114 0 -185 49t-91 165q-26 -59 -65.5 -101t-88 -68.5t-103.5 -38.5t-111 -10v203q78 -1 140.5 12.5t113 38.5t90 58t71.5 71q11 13 14.5 7t3.5 -16v-11q1 -38 22.5 -66.5t53.5 -48t70 -30.5t72.5 -14t61 1t34.5 14
q0 16 -7 38.5t-15.5 45.5t-16 43t-9.5 31q5 16 14 35t19.5 38.5t21.5 38.5t20 35q14 22 22.5 16t14.5 -23q8 -25 18.5 -58t19.5 -68t15.5 -69t6.5 -61q-4 -21 -11 -52t-18 -63t-26 -60.5t-34 -43.5q-21 -17 -54 -27l-6 -2q1 -3 0 -7q-1 -6 -9 -15q-20 -21 -42.5 -45t-42 -52
t-31.5 -59.5t-10 -67.5q0 -9 3.5 -24.5t10.5 -30.5t16.5 -26.5t21.5 -11.5q9 0 13.5 12.5t9 27t11.5 27t20 12.5q7 0 15.5 -9.5t15.5 -23t11 -29t2 -28.5q0 -19 -5.5 -37.5t-17 -33.5t-28.5 -24t-39 -9q-30 2 -51.5 17.5t-35.5 38t-21 49t-7 51.5z" />
    <glyph glyph-name="uni06C1.zz03" unicode="&#x6c1;" horiz-adv-x="1037" arabic-form="medial" 
d="M1037 0q-223 0 -309 -33q-126 -48 -210 -214q-28 -55 -28 -148q0 -40 3 -79l9 -125q0 -155 -136 -155q-104 0 -133 272q-9 85 -9 184q0 78 13 173q17 122 47 194q-125 -69 -194 -69h-146v263h56q210 0 322 34l145 75q51 0 51 -51q-66 -131 -73 -147q-43 -94 -51 -151
q-4 -28 -4 -65q0 -51 7 -116q3 -25 8 -55q46 75 138 223q76 119 156 179q98 74 224 74h170l-1 -263h-55z" />
    <glyph glyph-name="uni06C1.zz04" unicode="&#x6c1;" horiz-adv-x="873" arabic-form="final" 
d="M929 0h-218q-91 0 -130 100q-57 147 -67 167q-79 -109 -151 -139q-55 -23 -181 -23h-12q-144 0 -144 64q0 244 267 412q45 28 98 57q8 4 42 22l-15 176q28 69 85 140q0 -76 19 -218q58 -434 167 -483q26 -12 135 -12h105v-263zM467 431q0 14 -11 57q-4 15 -12 46
q-77 -35 -149 -78q-34 -20 -95 -61q64 -23 104 -23q33 0 92 16q71 20 71 43z" />
    <glyph glyph-name="uni06C3.zz04" unicode="&#x6c3;" horiz-adv-x="873" 
d="M929 0h-218q-91 0 -130 100q-57 147 -67 167q-79 -109 -151 -139q-55 -23 -181 -23h-12q-144 0 -144 64q0 244 267 412q45 28 98 57q8 4 42 22l-15 176q28 69 85 140q0 -76 19 -218q58 -434 167 -483q26 -12 135 -12h105v-263zM467 431q0 14 -11 57q-4 15 -12 46
q-77 -35 -149 -78q-34 -20 -95 -61q64 -23 104 -23q33 0 92 16q71 20 71 43zM537 1119l138 136l-137 133l-270 -269l-135 136l136 133z" />
    <glyph glyph-name="uni06BE.zz02" unicode="&#x6be;" horiz-adv-x="873" arabic-form="initial" 
d="M836 395q0 -149 -28 -201q-42 -76 -175 -76q-83 0 -152 14l-138 32q-13 -14 -40 -42q-124 -122 -220 -122h-139v263q103 0 116 1q93 9 93 46q0 16 -12.5 60t-12.5 69q0 52 24 108q50 117 93 162q0 13 -21 30q-12 10 -14 16q-9 32 39.5 144.5t76.5 112.5q6 0 76 -62
l248 -218q118 -98 159 -174q28 -52 28 -122v-21q-1 -13 -1 -20zM755 325q-14 54 -88 128q-100 100 -156 128q24 -47 24 -95q0 -51 -35 -137q61 -8 122 -17q84 -12 110 -30zM454 477q0 31 -29 73q-37 54 -98 78q-7 -11 -67 -79q-34 -39 -50 -96q88 -46 133 -46q31 0 68 20
q43 22 43 50z" />
    <glyph glyph-name="uni06BE.zz03" unicode="&#x6be;" horiz-adv-x="1170" arabic-form="medial" 
d="M755 325q-14 54 -88 128q-100 100 -156 128q24 -47 24 -95q0 -51 -35 -137q61 -8 122 -17q84 -12 110 -30zM454 477q0 31 -29 73q-37 54 -98 78q-7 -11 -67 -79q-34 -39 -50 -96q88 -46 133 -46q31 0 68 20q43 22 43 50zM793 171q-42 -53 -160 -53q-83 0 -152 14l-138 32
q-13 -14 -40 -42q-124 -122 -220 -122h-139v263q103 0 116 1q93 9 93 46q0 16 -12.5 60t-12.5 69q0 52 24 108q50 117 93 162q0 13 -21 30q-12 10 -14 16q-9 32 39.5 144.5t76.5 112.5q6 0 65 -47q158 -125 257 -233q78 -85 138 -177q45 -69 68 -122l18 -45q26 -37 38 -52
q51 -62 126 -70q29 -3 133 -3v-263h-140q-46 0 -114 39q-90 52 -122 132z" />
    <glyph glyph-name="uni06BE.zz04" unicode="&#x6be;" horiz-adv-x="1170" arabic-form="final" 
d="M732 302l-232 47q35 84 35 138q0 46 -24 94q14 -13 65 -67l116 -123q31 -33 63 -66zM454 477q0 -27 -43 -50q-38 -20 -68 -20q-46 0 -133 46q16 57 50 96q60 68 67 79q61 -24 97 -77q30 -43 30 -74zM793 171q31 -80 121 -131q70 -40 115 -40h140v263q-149 0 -188 18
q-47 22 -109 107q-3 17 -12 50q-48 156 -213 294q-36 31 -133 117l-125 112q-57 51 -63 51q-28 0 -76.5 -112.5t-39.5 -144.5q1 -4 18 -19t17 -27q-39 -39 -93 -162q-20 -45 -20 -93q0 -42 32.5 -111.5t32.5 -95.5q0 -79 -144 -174l-359 -183q12 0 99 21q297 71 415 154
q47 33 97 70q12 9 38 29q158 -46 290 -46q92 0 120 12q12 5 40 41z" />
    <glyph glyph-name="uni06CC.zz02" unicode="&#x6cc;" horiz-adv-x="580" arabic-form="initial" 
d="M447 413q0 -328 -242 -393q-75 -20 -204 -20h-67v263h37q25 -1 37 -1q298 0 357 74q0 17 -36 90q-10 19 -36 70q22 41 42 83q47 97 56 126l37 -149q19 -80 19 -143zM399 -479l138 136l-137 133l-270 -269l-135 136l136 133z" />
    <glyph glyph-name="uni06CC.zz03" unicode="&#x6cc;" horiz-adv-x="804" arabic-form="medial" 
d="M875 0h-280q-54 0 -129 66q-63 56 -98 114q-20 -36 -61 -106q-46 -74 -139 -74h-234v263h290q80 0 131 80q12 18 84 137q2 -65 6 -97q15 -120 162 -120h268v-263zM549 -519l138 136l-137 133l-270 -269l-135 136l136 133z" />
    <glyph glyph-name="uni06CC.zz04" unicode="&#x6cc;" horiz-adv-x="1443" arabic-form="final" 
d="M1498 0h-255q-68 -11 -107 -18q-145 -27 -145 -49q0 -8 132 -27q148 -20 165 -26q105 -34 105 -103q0 -51 -75 -145q-243 -306 -748 -306q-232 0 -379 85q-176 102 -176 303q0 95 83 248q87 161 183 224q-8 -37 -97 -240q-32 -73 -32 -134q0 -219 279 -264
q81 -13 209 -13q124 0 309 40q216 48 282 110q10 9 10 16q0 16 -98 28q-129 16 -184 37q-99 38 -99 119q0 167 146 277q133 101 306 101h186v-263z" />
    <glyph glyph-name="afii57450.zz04" unicode="&#x64a;" horiz-adv-x="1443" arabic-form="final" 
d="M1498 0h-255q-68 -11 -107 -18q-145 -27 -145 -49q0 -8 132 -27q148 -20 165 -26q105 -34 105 -103q0 -51 -75 -145q-243 -306 -748 -306q-232 0 -379 85q-176 102 -176 303q0 95 83 248q87 161 183 224q-13 -32 -56 -124q-73 -155 -73 -250q0 -219 279 -264
q81 -13 209 -13q124 0 309 40q216 48 282 110q10 9 10 16q0 16 -98 28q-129 16 -184 37q-99 38 -99 119q0 167 146 277q133 101 306 101h186v-263zM694 -1069l138 136l-137 133l-270 -269l-135 136l136 133z" />
    <glyph glyph-name="afii57414.zz02" unicode="&#x626;" horiz-adv-x="482" arabic-form="initial" 
d="M447 413q0 -328 -242 -393q-75 -20 -204 -20h-67v263h37q25 -1 37 -1q298 0 357 74q0 17 -36 90q-10 19 -36 70q22 41 42 83q47 97 56 126l37 -149q19 -80 19 -143zM531 1137q-7 -9 -29 -53q-14 -28 -30 -28q-13 0 -38.5 1.5t-36.5 1.5q-100 1 -238 -109q-3 20 -3 32
q0 18 4 31q11 35 11 43q0 21 -14 44q-33 54 -33 72q0 46 100 127t148 81q25 0 44.5 -19t19.5 -44q0 -62 -32 -62q-14 0 -44 9.5t-45 9.5q-63 0 -98 -91q36 -26 50 -33q29 -14 109 -14h102q6 0 19 1h21h13z" />
    <glyph glyph-name="afii57414.zz03" unicode="&#x626;" horiz-adv-x="804" arabic-form="medial" 
d="M875 0h-280q-54 0 -129 66q-63 56 -98 114q-20 -36 -61 -106q-46 -74 -139 -74h-234v263h290q80 0 131 80q12 18 84 137q2 -65 6 -97q15 -120 162 -120h268v-263zM641 1137q-7 -9 -29 -53q-14 -28 -30 -28q-13 0 -38.5 1.5t-36.5 1.5q-100 1 -238 -109q-3 20 -3 32
q0 18 4 31q11 35 11 43q0 21 -14 44q-33 54 -33 72q0 46 100 127t148 81q25 0 44.5 -19t19.5 -44q0 -62 -32 -62q-14 0 -44 9.5t-45 9.5q-63 0 -98 -91q36 -26 50 -33q29 -14 109 -14h102q6 0 19 1h21h13z" />
    <glyph glyph-name="afii57414.zz04" unicode="&#x626;" horiz-adv-x="1432" arabic-form="final" 
d="M1498 0h-255q-68 -11 -107 -18q-145 -27 -145 -49q0 -8 132 -27q148 -20 165 -26q105 -34 105 -103q0 -51 -75 -145q-243 -306 -748 -306q-232 0 -379 85q-176 102 -176 303q0 95 83 248q87 161 183 224q-8 -37 -97 -240q-32 -73 -32 -134q0 -219 279 -264
q81 -13 209 -13q124 0 309 40q216 48 282 110q10 9 10 16q0 16 -98 28q-129 16 -184 37q-99 38 -99 119q0 167 146 277q133 101 306 101h186v-263zM381 737q-7 -9 -29 -53q-14 -28 -30 -28q-13 0 -38.5 1.5t-36.5 1.5q-100 1 -238 -109q-3 20 -3 32q0 18 4 31q11 35 11 43
q0 21 -14 44q-33 54 -33 72q0 46 100 127t148 81q25 0 44.5 -19t19.5 -44q0 -62 -32 -62q-14 0 -44 9.5t-45 9.5q-63 0 -98 -91q36 -26 50 -33q29 -14 109 -14h102q6 0 19 1h21h13z" />
    <glyph glyph-name="afii57519.zz04" unicode="&#x6d2;" horiz-adv-x="1383" arabic-form="final" 
d="M1296 -609h-974q-12 39 -18 66q-18 85 -18 187q0 127 90 281q81 137 190 229q130 109 250 109h643v-263h-655q-239 0 -382 -235q-43 -71 -43 -91q0 -53 275 -53h734z" />
    <glyph glyph-name="uni06D3.zz04" unicode="&#x6d3;" horiz-adv-x="1383" arabic-form="final" 
d="M1296 -609h-974q-12 39 -18 66q-18 85 -18 187q0 127 90 281q81 137 190 229q130 109 250 109h643v-263h-655q-239 0 -382 -235q-43 -71 -43 -91q0 -53 275 -53h734zM1531 937q-7 -9 -29 -53q-14 -28 -30 -28q-13 0 -38.5 1.5t-36.5 1.5q-100 1 -238 -109q-3 20 -3 32
q0 18 4 31q11 35 11 43q0 21 -14 44q-33 54 -33 72q0 46 100 127t148 81q25 0 44.5 -19t19.5 -44q0 -62 -32 -62q-14 0 -44 9.5t-45 9.5q-63 0 -98 -91q36 -26 50 -33q29 -14 109 -14h102q6 0 19 1h21h13z" />
    <glyph glyph-name="uniFEFB" unicode="&#xfefb;" horiz-adv-x="1504" arabic-form="isolated" 
d="M1042 661q-19 -120 -55 -251q-44 -158 -95 -235q-83 -124 -288 -209q-193 -80 -374 -80q22 6 169 111q81 59 237 178q55 42 120 111q89 94 89 134q0 34 -35 120q-110 271 -336 460q-31 26 -86 66q-5 4 -19 14q-24 -8 -40 -12q-52 -13 -96 -13q-224 0 -224 253q0 46 24 90
q30 54 75 54q87 0 256 -137q124 -100 220 -207q150 -167 226 -330q29 -61 82 -278q21 52 70 273q23 103 23 133v477q0 8 86 103q29 32 87 94l-38 -464q-19 -232 -54 -348q-9 -34 -24 -107z" />
    <glyph glyph-name="sf256.004" unicode="&#xfdfa;" horiz-adv-x="1991" arabic-form="isolated" 
d="M1035 1228q0 -5 0.5 -13l1 -16t1 -15t0.5 -9q0 -10 2.5 -16.5t12.5 -6.5q17 0 17 15q0 3 0.5 10t0.5 14q0 8 0.5 15.5t0.5 11.5q0 10 4 14.5t6 -9.5q1 -3 2.5 -10t2.5 -14.5t2 -14t1 -9.5q3 -6 7.5 -12t12.5 -6q7 0 7 8q0 16 -3 32t1 34q-4 5 0.5 6t6.5 -5q3 -15 6 -31
t3 -34q0 -14 -3 -25.5t-21 -11.5q-19 0 -25 18q-9 -10 -14.5 -16.5t-16.5 -6.5q-10 0 -18.5 7.5t-8.5 18.5v48q0 -8 3 -1t8 30zM606 1172q0 -9 2.5 -15t13.5 -6q15 0 18 14q0 3 0.5 9.5t1 14.5t1 15.5t0.5 11.5q-4 11 1 15t9 -10q0 -3 1 -10t2 -14.5t2 -14.5t1 -10
q4 -5 7.5 -10t11.5 -5q5 0 5 5q0 18 -0.5 34t-0.5 32q0 6 3.5 7t7.5 -4q4 -18 6.5 -34t2.5 -32q0 -13 -5 -25.5t-23 -12.5q-14 0 -21 19q-8 -11 -15 -17.5t-20 -6.5q-9 0 -16.5 8t-7.5 18v49q0 1 1.5 6l3 10t3.5 9t4 4v-54zM554 874q-4 -5 -7.5 -4t0.5 7q6 14 8.5 29t2.5 30
q0 16 -3 31t-11 29q0 3 -0.5 9.5t0 12t3.5 7t10 -4.5q19 -35 18 -73t-21 -73zM336 870q0 -1 2 -1q19 -6 39 -8t42 2q8 0 19 4t15 12q0 13 1.5 21.5t1.5 19.5v6q0 5 -1.5 11t-8.5 3q-27 -18 -54 -34t-54 -34zM950 1240q-1 -40 2 -86t6.5 -93.5t7 -94t3.5 -87.5
q0 -40 -5 -72.5t-18 -52.5q-9 103 -14 200t-14 197q3 7 5.5 19.5t5.5 25.5t8 25t13 19zM1466 668q72 -14 144 -9.5t144 18.5q-13 37 -34.5 56.5t-47 25.5t-54.5 0t-56.5 -19.5t-52.5 -32.5t-43 -39zM1230 436q4 -6 11 -15t17.5 -15.5t24 -8t31.5 7.5q-4 13 -14 24
t-22.5 16.5t-25.5 4t-22 -13.5zM314 316q9 -8 21.5 -14.5t25.5 -12t25 -10l20 -7.5q-5 11 -13.5 25t-20 23t-26 10t-32.5 -14zM1178 130q-10 1 -19 1.5t-19 0.5q-29 0 -55.5 1.5t-49.5 15.5q28 4 56.5 8t52.5 18q19 7 42.5 19.5t46.5 28.5t43.5 35t34 40t17.5 42.5t-6 42.5
q-6 -10 -11 -20t-11 -18t-15 -13t-23 -5q-24 0 -45 15.5t-25 43.5q7 67 34.5 101t58 35.5t54.5 -29t24 -91.5q1 -33 -6 -61t-19.5 -54t-30 -51t-38.5 -52q-18 -20 -42 -35t-49 -19zM50 125q1 0 15 5.5t36 15t50 21.5t56 24.5t53.5 25t43.5 22.5q0 2 -6.5 6.5t-15 11t-15 15
t-6.5 18.5q0 14 12.5 33t30.5 36t36.5 29t30.5 12q20 -2 35 -21t32 -41t38.5 -40t54.5 -18q6 0 15 1.5t18 7.5t14.5 17t3.5 30q-6 58 -9.5 98t-6 66t-3 40.5t-0.5 21.5v13q0 29 7 58.5t12 59.5q-36 -15 -61.5 -5t-40.5 34.5t-21 57.5t-3 65q-7 -18 -20 -29t-29.5 -16
t-34.5 -4.5t-34 4.5q-8 0 -17.5 2.5t-18 7.5t-14.5 12t-6 17q12 27 32 47t44 36t51 29.5l53 26.5q0 5 2 14t3 13q3 4 7 11l8 14t6.5 12.5t2.5 7.5h5q2 -19 2.5 -41.5t0.5 -45.5q0 -22 -1 -44t-2 -40q0 -17 1.5 -37.5t8.5 -38t20 -29.5t36 -12q27 0 46.5 20t23.5 46
q2 28 1 55.5t-2.5 55.5t-1 55.5t5.5 55.5q2 7 4.5 17t4.5 20t4.5 17t4.5 7q0 1 1 0q9 -57 14 -113.5t14 -113.5q1 -21 6.5 -41t16 -35.5t26.5 -25t39 -9.5h19q12 0 14 8q0 19 -5.5 47t-12 58t-12 58.5t-5.5 47.5q1 12 3 28.5t4.5 33t5.5 32t6 25.5q0 8 4 9.5t7 -8.5l36 -259
q12 -71 -29 -136q-5 -8 -18 -8t-14 -9q-10 -28 -16.5 -53t-6.5 -55q0 -67 40.5 -96.5t103.5 -29.5q54 0 110.5 21.5t101.5 55.5q-45 18 -88 27t-85 27q0 8 0.5 22t13.5 18q22 4 43 7.5t37.5 6.5t28 7t14.5 10q0 22 0.5 31t0.5 16v17q0 9 -1 23t-2.5 38t-4.5 59.5t-7 88.5
q0 4 -1.5 14t-1.5 15q0 35 7 69t15 69q2 3 2.5 5.5t4.5 3.5h3l40 -353q5 -39 31.5 -56.5t61.5 -17.5q41 0 67 14.5t53 43.5q0 1 2 2t2 -2q-3 -19 6 -31.5t23.5 -20.5t31 -12.5t29.5 -7.5q31 34 66.5 64.5t73 52t74.5 31.5t69.5 3t60 -34.5t45.5 -80.5q0 -1 -0.5 -3.5
t-3.5 -10t-10 -22t-20 -39.5q-2 -6 -8.5 -11.5t-14.5 -9.5t-16 -6.5t-14 -2.5q-85 -23 -168.5 -24.5t-171.5 14.5h-5q-8 -11 -18 -23t-21 -22q-3 -3 -5.5 -1.5t1.5 5.5q3 14 11.5 25.5t16.5 22.5q-23 13 -41 28t-26 40q-14 -32 -45.5 -50t-65.5 -19t-61.5 17t-33.5 57
q-6 -12 -11 -20t-9.5 -13.5t-9 -10.5t-10.5 -12q4 -2 11 -4.5t14.5 -4.5t14 -3.5t9.5 -1.5q15 -6 19.5 -15t4.5 -25q0 -41 -28.5 -74t-70 -56t-87 -35.5t-79.5 -13.5q-38 -1 -67 10.5t-49 33t-30.5 51t-10.5 65.5q0 42 12.5 79.5t30.5 75.5q-12 0 -25.5 1t-26 5.5
t-22.5 12.5t-14 22q-2 3 -4.5 10t-4.5 15t-3.5 15t-1.5 10q-8 -24 -18 -47t-38 -47q11 -88 18.5 -172t22.5 -169q7 -37 29 -56t49.5 -21.5t55.5 10.5t47 40q3 6 7 6q3 0 3 -8t-1 -13t-1 -11q0 -14 16.5 -19t30.5 -5h16q18 0 30.5 2.5t22 8t18 15t20.5 24.5q8 6 8 -2
q0 -14 -5 -19.5t-3.5 -8.5t16 -7t54.5 -15q0 11 -3 21.5t-3 18.5q5 9 11 23t10 17q0 2 2.5 8.5t6 11.5t6.5 6t4 -8l11 -44t5 -42q0 -23 -9 -43.5t-17 -43.5q-4 -8 -10.5 -8.5t-16.5 -0.5q-26 3 -56 8.5t-54 21.5q-19 -14 -39.5 -20.5t-41 -5.5t-38.5 10.5t-32 28.5
q-14 -18 -35.5 -27.5t-44.5 -10.5t-44.5 7.5t-35.5 25.5q-8 14 -11.5 28.5t-7.5 32.5q0 4 -0.5 7t-4.5 -2q-8 -21 -15 -38t-17 -29t-24.5 -18.5t-36.5 -6.5q-27 0 -44.5 11t-35.5 29q-3 0 -6.5 -6.5t-9 -14t-12 -13.5t-15.5 -6q-16 0 -30.5 6.5t-28.5 14.5
q-18 -29 -41.5 -51t-56.5 -30q-43 -10 -86 -16.5t-94 -6.5zM338 -92q-28 42 -55 90.5t-51 96.5q-4 7 -2.5 10.5t5.5 4.5t9 -1t7 -6q14 -23 29.5 -42.5t29.5 -42.5q5 -8 13 -20t18 -23t21.5 -19t23.5 -8q12 1 22.5 8.5t22.5 25t28 46t39 72.5q11 23 29 41t41 18q16 0 27 -6.5
t19 -17t15 -23t16 -24.5q24 -32 55.5 -51.5t67 -30.5t73.5 -14.5t74 -3.5q48 0 102.5 9.5t109.5 27.5t107 44.5t94 60.5q6 6 7 3.5t1 -8.5q-4 -13 -9 -21t-5 -19q0 -9 8.5 -15.5t20 -10.5t22.5 -5.5t16 -1.5q18 0 34.5 2.5t27.5 10.5t16.5 23.5t2.5 41.5l-27 294q0 7 1 14.5
t4.5 22t10.5 39t19 65.5l40 -366q2 -21 9 -43t19 -40t30.5 -30t42.5 -12q-14 23 -23.5 46t-9.5 47q-2 47 16 78.5t48 48t68.5 18.5t76.5 -9t72 -34.5t56 -58.5q-36 6 -76.5 13t-79.5 8.5t-75 -6t-63 -29.5q0 -11 5.5 -25t10.5 -22q26 -42 58 -58.5t69 -14t78.5 19.5t87.5 42
q1 2 2 1t1 -3v-1q-26 -54 -64.5 -82t-95.5 -46q-36 -10 -79 -16.5t-82.5 -1t-71 27t-44.5 67.5q-8 -23 -16 -43.5t-20.5 -37t-31 -26t-47.5 -9.5q-32 0 -59.5 18t-43.5 48q-40 -32 -95.5 -58t-118.5 -43t-129.5 -23t-128.5 1t-115.5 29t-90.5 62q-14 17 -21.5 32.5
t-12.5 27.5t-9.5 19t-12.5 7q-10 0 -19.5 -8.5t-15.5 -16.5q-21 -43 -34 -69t-21 -40.5t-12 -20.5t-7 -9q-10 -14 -21.5 -24.5t-25 -14.5t-28 0.5t-30.5 22.5zM1163 -160q-11 10 -1 20q3 7 14.5 25t31.5 42l78 -63q2 -2 10 8t17 22.5t17.5 23t11.5 10.5h5q20 -19 38 -37
t37 -36q-2 -5 -9 -13.5t-15 -18t-16 -18.5t-12 -14q-3 -8 -15 0q-18 14 -34.5 30t-34.5 31q-13 -15 -25.5 -33t-28.5 -31q-6 -6 -14 3q-16 11 -28.5 23.5t-26.5 25.5z" />
    <glyph glyph-name="sf270.009" unicode="&#xfdf2;" horiz-adv-x="1520" arabic-form="isolated" 
d="M819 1620q11 0 17 -8t11 -14q31 -50 48 -106t18.5 -113t-14 -112t-51.5 -104q-4 -11 -13 -11q-7 0 -4 14q32 93 30 191q-1 98 -59 178v13q0 8 0.5 19.5t2.5 22.5t5.5 19.5t8.5 10.5zM769 980v18v9q0 10 -1 11v60q0 4 2.5 14t6.5 21.5t8.5 21.5t8.5 14v3q3 0 3 -3
q1 -19 2 -37.5t1 -38.5t0.5 -39t1.5 -38q0 -20 12.5 -30.5t28.5 -11.5t30.5 9t17.5 32v79v45q0 17 1 21t2 9q3 31 10 17q8 -9 9 -24q5 -26 8.5 -54t10.5 -52t20.5 -41t38.5 -21q17 0 17 15q0 3 -2 19.5t-4.5 39t-4.5 48t-2 46.5q-2 7 -0.5 18t5 19t8 8.5t8.5 -13.5
q14 -42 23.5 -85.5t13.5 -84.5q0 -19 -3 -36.5t-10.5 -31t-20.5 -21.5t-32 -8q-21 -2 -40.5 11.5t-28.5 33.5q-10 -26 -30 -45.5t-47 -19.5q-33 0 -51 19t-21 46v28zM482 425q-4 -3 -13 -8.5t-27 -17.5l-51 -34t-82 -55.5t-120 -81.5q11 -6 49.5 -12.5t84.5 -6.5
q50 0 95 9.5t72 38.5q1 16 2 45t0 56.5t-3.5 47.5t-6.5 19zM503 174q-13 -26 -27 -46.5t-31.5 -35t-39.5 -24.5t-52 -15q-17 -2 -39 -3t-51 -1q-57 0 -107 11t-77 37q-28 27 -3 77q30 62 78 111.5t105.5 90t120 74.5t121.5 66q9 9 8 32q-2 26 7 36q10 26 20.5 51.5
t24.5 51.5q0 3 6 14q5 5 7.5 3.5t5.5 -6.5q11 -71 12.5 -136.5t1.5 -131.5t1.5 -132.5t11.5 -135.5q2 -34 12.5 -67.5t29.5 -60.5t47 -43.5t64 -16.5q68 0 119 45q52 46 68 109q2 63 -2.5 123t-10.5 119.5t-11.5 119t-4 121t11.5 126.5t34 136q2 8 7 8.5t5 -8.5
q19 -148 40 -287.5t49 -284.5q5 -41 16.5 -81.5t29.5 -75.5t44 -62t60 -40.5t76.5 -12t95.5 23.5q-3 34 -14 79t-25 95.5t-29 104.5t-27 106t-19 99.5t-5 86.5q11 87 18 136.5t11 76t5.5 36.5t1.5 18q10 16 16.5 20.5t11.5 -18.5q13 -85 27.5 -165t29.5 -158t31 -156.5
t31 -160.5q5 -29 8 -55.5t3 -50.5q0 -38 -5 -70.5t-14 -63.5t-22.5 -61t-29.5 -63q-18 -14 -48.5 -25t-66.5 -15.5t-74.5 -1t-72.5 18.5q-38 19 -58.5 39.5t-32 45t-18.5 55t-19 68.5q-5 -50 -25.5 -102t-54 -94.5t-79.5 -69.5t-102 -27q-50 0 -87.5 18t-64 48t-43 69.5
t-26 83.5t-13 88.5t-3.5 85.5z" />
    <glyph glyph-name="uniFDF4" unicode="&#xfdf4;" horiz-adv-x="2492" arabic-form="isolated" 
d="M1343 -195q-114 64 -198 131t-141 137.5t-89 145t-43 154.5q-18 -54 -49.5 -98t-70.5 -82q-35 -41 -79 -76.5t-92.5 -63.5t-98.5 -47t-96 -26q-45 -8 -85.5 0t-71 36.5t-48 78.5t-17.5 126q0 54 9 105t22 88q14 2 15 -9.5t1 -21.5v-72q0 -24 5 -46t18.5 -39t36.5 -28
t59 -12q87 -2 153 32q84 35 159 80q38 23 69 45.5t56 45.5q51 46 46 64q-18 103 -44.5 180.5t-51.5 136t-42.5 100.5t-17.5 74q2 43 5.5 84.5t7.5 81.5q1 4 10 4q5 0 18 -17.5t29 -45.5t33 -62t31 -67q20 -54 37.5 -110t33.5 -116q31 -122 75 -237q22 -58 51 -110.5
t64 -103.5q72 -97 197 -159q11 -5 11 -2l2 8q12 45 28.5 90t52.5 76q40 32 80.5 63.5t82.5 59.5t87 51.5t95 40.5l-654 -4q-13 0 -24 0.5t-19.5 3.5t-13 10.5t-4.5 22.5q0 26 9 51t19 49q15 35 28 72t38 67q65 71 141.5 126t160 99.5t171 82t174.5 73.5q15 7 8 10
q-6 3 -14 3t-27 13q-13 9 -28.5 23t-29 32.5t-21.5 41.5t-5 49q0 3 2 13.5t6 24t8.5 29.5t9.5 31q4 15 9 30.5t10 27.5t10 19.5t9 7.5q9 0 43.5 -9.5t80 -25t96.5 -35.5t93.5 -41t71 -42t29.5 -38q0 -18 -9 -47t-22.5 -60t-29.5 -59t-29 -43q-40 -23 -93 -46t-110.5 -46
t-114 -45.5t-102.5 -44.5q-54 -25 -103 -48.5t-94.5 -50t-89.5 -57.5t-88 -71l1106 12q16 0 24.5 -4t8.5 -18q0 -18 -20 -53t-64 -107q-17 -2 -44.5 -8.5t-66.5 -17.5q-78 -21 -173.5 -54t-201.5 -75q-104 -42 -189 -84q-42 -21 -78.5 -42t-64 -41t-43.5 -38t-18 -33
q18 -26 52.5 -54.5t76 -55t84.5 -48.5t78 -35q-1 -4 -6 -32.5t-12 -62.5t-16 -63.5t-19 -36.5q-72 -8 -136 22q-34 15 -65 30.5t-60 31.5z" />
    <glyph glyph-name="sf277.047" unicode="&#x6c2;" horiz-adv-x="941" 
d="M208 414q7 -2 28 -5t49.5 -4t62.5 1t67 9.5t62 21.5t49 38q0 6 -1 23t-3 37.5t-4.5 42.5t-6 39t-7.5 26t-9 4q-70 -56 -118 -95t-80 -64.5t-49 -39.5t-26 -21.5t-11 -9.5zM548 371q-16 -43 -43 -71t-62 -44.5t-76.5 -23t-86.5 -6.5q-10 0 -29.5 0.5t-43 3t-48 8t-44.5 14
t-32.5 22t-12.5 32.5q0 17 10.5 40.5t27 49t38 52t43 49t41 40.5t33.5 27q60 43 120 79.5t120 74.5v73q10 32 19 64t19 64q3 12 6.5 15.5t6.5 2t5 -6.5t3 -11q12 -57 21 -109t17 -106t16.5 -113t19.5 -130q10 -68 39 -116.5t73 -80t102 -46.5t126 -15q0 -13 -0.5 -39.5
t-1 -56t-1 -57.5t-0.5 -43q-26 -5 -48.5 -5.5t-44.5 0.5q-84 6 -144 27.5t-100 65t-60.5 111t-25.5 165.5h-2zM149 1072q7 19 14.5 42t16.5 46t20.5 44t26.5 36q15 13 34 22.5t40 13t42 -0.5t40 -17q0 -6 -4 -18t-9.5 -26t-11.5 -27t-11 -22q-10 -12 -19 -3q-15 12 -32 15
t-33.5 -1.5t-31 -14t-26.5 -22.5q4 -18 21.5 -30.5t39 -19.5t43 -10t33.5 -3q33 2 66.5 13t63.5 23q14 5 8 -6q-12 -21 -24.5 -40.5t-29.5 -44.5q-35 -12 -72.5 -23t-72.5 -25.5t-66 -35.5t-53 -52q-2 -4 -6.5 -4.5t-2.5 5.5q4 29 16 53.5t27 51.5q2 3 -1 7q-18 13 -33 30.5
t-13 43.5z" />
    <glyph glyph-name=".notdef" horiz-adv-x="257" 
 />
    <glyph glyph-name=".null" 
 />
    <glyph glyph-name="nonmarkingreturn" horiz-adv-x="257" 
 />
    <glyph glyph-name="space" unicode=" " horiz-adv-x="568" 
 />
    <glyph glyph-name="sf268.003" unicode="&#x622;" horiz-adv-x="536" 
d="M112 1304q-14 -8 -20 -8q-11 0 -10 10.5t12 22.5q60 69 126 110t141 43q22 0 44 -5t44 -10.5t44 -10.5t45 -5q39 0 76 12t70 30.5t60.5 41.5t46.5 45q17 20 24 19.5t-5 -26.5q-22 -46 -59.5 -90.5t-84.5 -80t-99.5 -57.5t-104.5 -22q-28 0 -50.5 6t-43.5 12.5t-40.5 12.5
t-41.5 6q-51 0 -94 -17t-80 -39zM304 953q6 31 14.5 66.5t17.5 68.5t19 60t19 42q12 20 14 12t2 -24q0 -21 0.5 -39l1 -36t2.5 -37.5t5 -42.5q7 -57 14.5 -134t15 -159.5t14 -164t11.5 -147.5t8 -109t3 -49q1 -97 -12.5 -180t-45.5 -149q-4 -6 -6.5 -2.5t-3.5 12.5
q-7 67 -12 129t-10 119q-8 97 -17.5 196.5t-19 197t-18.5 191t-16 179.5z" />
    <glyph glyph-name="afii57415" unicode="&#x627;" horiz-adv-x="519" 
d="M457 539q2 -169 -14 -285q-26 -194 -101 -256l-35 1395q-1 28 70 127q21 30 70 93z" />
    <glyph glyph-name="afii57416" unicode="&#x628;" horiz-adv-x="1656" 
d="M1624 527q0 -410 -549 -516q-192 -37 -447 -37q-452 0 -569 204q-43 75 -43 183q0 157 172 321q-20 -49 -35 -101q-20 -69 -20 -103q0 -155 242 -230q166 -52 365 -52q211 0 405 43q32 7 107 29q265 77 265 116q0 99 -117 185q20 49 34 89q38 107 51 166
q139 -92 139 -297zM710 -282l155 -155l-155 -152l-155 152z" />
    <glyph glyph-name="afii57506" unicode="&#x67e;" horiz-adv-x="1656" 
d="M1624 527q0 -410 -549 -516q-192 -37 -447 -37q-452 0 -569 204q-43 75 -43 183q0 157 162 325h20q-29 -71 -40 -103q-25 -73 -25 -105q0 -155 242 -230q166 -52 365 -52q211 0 405 43q32 7 107 29q265 77 265 116q0 99 -117 185q20 49 34 89q38 107 51 166
q139 -92 139 -297zM1099 -341l-137 136l-269 -268l-135 132l135 136l269 -268zM971 -621l-136 137l-134 -137l134 -134z" />
    <glyph glyph-name="afii57418" unicode="&#x62a;" horiz-adv-x="1656" 
d="M188 689q-20 -49 -35 -101q-20 -69 -20 -103q0 -155 242 -230q166 -52 365 -52q211 0 405 43q32 7 107 29q265 77 265 116q0 99 -117 185q20 49 34 89q38 107 51 166q139 -92 139 -297q0 -413 -549 -522q-191 -38 -447 -38q-452 0 -569 210q-43 77 -43 184q0 157 172 321
zM989 801l138 136l-137 133l-270 -269l-135 136l136 133z" />
    <glyph glyph-name="afii57511" unicode="&#x679;" horiz-adv-x="1656" 
d="M1624 527q0 -410 -549 -516q-192 -37 -447 -37q-452 0 -569 204q-43 75 -43 183q0 157 162 325h20q-29 -71 -40 -103q-25 -73 -25 -105q0 -155 242 -230q166 -52 365 -52q211 0 405 43q32 7 107 29q265 77 265 116q0 99 -117 185q20 49 34 89q38 107 51 166
q139 -92 139 -297zM1078 973q0 -73 -99 -136q-85 -54 -213 -54q-77 0 -114 15q-48 19 -85 77l139 -15q14 4 42.5 30t28.5 39v290q0 6 -15 25q-8 10 -8 19q0 17 24 52q21 31 30 38q-3 -21 -3 -34q0 -30 41 -50q-7 -29 -12 -42q-10 -25 -26 -35l4 -245q58 41 90 62
q58 38 92 38q30 0 57 -22t27 -52zM1013 929q0 17 -31 29q-24 9 -45 9q-64 0 -160 -96q29 -7 35 -7q37 0 113 19q88 22 88 46z" />
    <glyph glyph-name="afii57419" unicode="&#x62b;" horiz-adv-x="1656" 
d="M188 682q-20 -49 -35 -101q-20 -69 -20 -103q0 -155 242 -230q166 -52 365 -52q211 0 405 43q32 7 107 29q265 77 265 116q0 99 -117 185q20 49 34 89q38 107 51 166q139 -92 139 -297q0 -410 -549 -516q-192 -37 -447 -37q-452 0 -569 204q-43 75 -43 183q0 157 172 321
zM995 841l137 136l-137 132l-269 -268l-135 136l134 132zM868 1391l136 -134l-136 -137l-134 137z" />
    <glyph glyph-name="afii57420" unicode="&#x62c;" horiz-adv-x="1148" 
d="M1311 -763q-100 -40 -215 -100q-90 -47 -141 -62q-75 -22 -195 -22q-423 0 -591 171q-145 148 -145 484q0 334 204 612q74 101 201 228q-51 37 -68 44q-29 13 -78 13q-108 0 -201 -127v46q59 177 120 234q73 68 233 68q264 -47 678 -47q-59 -148 -64 -157
q-56 -115 -110 -115q-16 0 -48.5 3.5t-48.5 3.5q-131 0 -308 -83q-258 -121 -354 -327q-63 -136 -63 -310q0 -251 188 -396q164 -126 391 -126h615v-35zM635 -2l155 -155l-155 -152l-155 152z" />
    <glyph glyph-name="afii57507" unicode="&#x686;" horiz-adv-x="1148" 
d="M1311 -763q-100 -40 -215 -100q-90 -47 -141 -62q-75 -22 -195 -22q-423 0 -591 171q-145 148 -145 484q0 334 204 612q74 101 201 228q-51 37 -68 44q-29 13 -78 13q-108 0 -201 -127v46q59 177 120 234q73 68 233 68q264 -47 678 -47q-59 -148 -64 -157
q-56 -115 -110 -115q-16 0 -48.5 3.5t-48.5 3.5q-131 0 -308 -83q-258 -121 -354 -327q-63 -136 -63 -310q0 -251 188 -396q164 -126 391 -126h615v-35zM902 -41l-137 136l-269 -268l-135 132l135 136l269 -268zM774 -321l-136 137l-134 -137l134 -134z" />
    <glyph glyph-name="afii57421" unicode="&#x62d;" horiz-adv-x="1148" 
d="M1311 -763q-100 -40 -215 -100q-90 -47 -141 -62q-75 -22 -195 -22q-423 0 -591 171q-145 148 -145 484q0 334 204 612q74 101 201 228q-51 37 -68 44q-29 13 -78 13q-108 0 -201 -127v46q59 177 120 234q73 68 233 68q264 -47 678 -47q-59 -148 -64 -157
q-56 -115 -110 -115q-16 0 -48.5 3.5t-48.5 3.5q-131 0 -308 -83q-258 -121 -354 -327q-63 -136 -63 -310q0 -251 188 -396q164 -126 391 -126h615v-35z" />
    <glyph glyph-name="afii57422" unicode="&#x62e;" horiz-adv-x="1148" 
d="M1311 -763q-100 -40 -215 -100q-90 -47 -141 -62q-75 -22 -195 -22q-423 0 -591 171q-145 148 -145 484q0 334 204 612q74 101 201 228q-51 37 -68 44q-29 13 -78 13q-108 0 -201 -127v46q59 177 120 234q73 68 233 68q264 -47 678 -47q-59 -148 -64 -157
q-56 -115 -110 -115q-16 0 -48.5 3.5t-48.5 3.5q-131 0 -308 -83q-258 -121 -354 -327q-63 -136 -63 -310q0 -251 188 -396q164 -126 391 -126h615v-35zM445 1413l155 -155l-155 -152l-155 152z" />
    <glyph glyph-name="afii57423" unicode="&#x62f;" horiz-adv-x="916" 
d="M882 314q0 -173 -87 -269q-90 -101 -260 -101q-135 0 -173 16q-72 29 -72 139q0 23 4 63l9 93q104 -57 208 -57q66 0 176 21q148 28 148 72q0 26 -35 90q-115 211 -323 211q0 46 -1 107l-1 78q0 84 14 140q80 -27 154 -83q239 -182 239 -520z" />
    <glyph glyph-name="afii57512" unicode="&#x688;" horiz-adv-x="916" 
d="M882 314q0 -173 -87 -269q-90 -101 -260 -101q-135 0 -173 16q-72 29 -72 139q0 23 4 63l9 93q104 -57 208 -57q66 0 176 21q148 28 148 72q0 26 -35 90q-115 211 -323 211q0 46 -1 107l-1 78q0 84 14 140q80 -27 154 -83q239 -182 239 -520zM778 1373q0 -73 -99 -136
q-85 -54 -213 -54q-77 0 -114 15q-48 19 -85 77l139 -15q14 4 42.5 30t28.5 39v290q0 6 -15 25q-8 10 -8 19q0 17 24 52q21 31 30 38q-3 -21 -3 -34q0 -30 41 -50q-7 -29 -12 -42q-10 -25 -26 -35l4 -245q58 41 90 62q58 38 92 38q30 0 57 -22t27 -52zM713 1329q0 17 -31 29
q-24 9 -45 9q-64 0 -160 -96q29 -7 35 -7q37 0 113 19q88 22 88 46z" />
    <glyph glyph-name="afii57424" unicode="&#x630;" horiz-adv-x="916" 
d="M882 314q0 -173 -87 -269q-90 -101 -260 -101q-135 0 -173 16q-72 29 -72 139q0 23 4 63l9 93q104 -57 208 -57q66 0 176 21q148 28 148 72q0 26 -35 90q-115 211 -323 211q0 46 -1 107l-1 78q0 84 14 140q80 -27 154 -83q239 -182 239 -520zM580 1498l155 -155
l-155 -152l-155 152z" />
    <glyph glyph-name="afii57425" unicode="&#x631;" horiz-adv-x="844" 
d="M812 205q0 -155 -64 -320q-66 -170 -172 -276q-120 -120 -259 -120q-117 0 -230 47q-69 28 -146 81q141 0 322 59q202 66 328 167q151 122 151 263q0 42 -65 123l-98 110l58 219q96 -96 130 -157q45 -81 45 -196z" />
    <glyph glyph-name="afii57513" unicode="&#x691;" horiz-adv-x="844" 
d="M812 205q0 -155 -64 -320q-66 -170 -172 -276q-120 -120 -259 -120q-117 0 -230 47q-69 28 -146 81q141 0 322 59q202 66 328 167q151 122 151 263q0 42 -65 123l-98 110l58 219q96 -96 130 -157q45 -81 45 -196zM778 973q0 -73 -99 -136q-85 -54 -213 -54q-77 0 -114 15
q-48 19 -85 77l139 -15q14 4 42.5 30t28.5 39v290q0 6 -15 25q-8 10 -8 19q0 17 24 52q21 31 30 38q-3 -21 -3 -34q0 -30 41 -50q-7 -29 -12 -42q-10 -25 -26 -35l4 -245q58 41 90 62q58 38 92 38q30 0 57 -22t27 -52zM713 929q0 17 -31 29q-24 9 -45 9q-64 0 -160 -96
q29 -7 35 -7q37 0 113 19q88 22 88 46z" />
    <glyph glyph-name="afii57426" unicode="&#x632;" horiz-adv-x="844" 
d="M812 205q0 -155 -64 -320q-66 -170 -172 -276q-120 -120 -259 -120q-117 0 -230 47q-69 28 -146 81q141 0 322 59q202 66 328 167q151 122 151 263q0 42 -65 123l-98 110l58 219q96 -96 130 -157q45 -81 45 -196zM570 1158l155 -155l-155 -152l-155 152z" />
    <glyph glyph-name="afii57508" unicode="&#x698;" horiz-adv-x="844" 
d="M812 205q0 -155 -64 -320q-66 -170 -172 -276q-120 -120 -259 -120q-117 0 -230 47q-69 28 -146 81q141 0 322 59q202 66 328 167q151 122 151 263q0 42 -65 123l-98 110l58 219q96 -96 130 -157q45 -81 45 -196zM645 844l137 136l-137 132l-269 -268l-135 136l134 132z
M518 1394l136 -134l-136 -137l-134 137z" />
    <glyph glyph-name="afii57427" unicode="&#x633;" horiz-adv-x="1896" 
d="M1867 485q0 -62 -15 -147q-51 -288 -182 -288q-45 0 -117 47t-86 47q-8 0 -41 -32q-41 -39 -79 -58q-60 -32 -134 -32q-81 0 -191 27q0 -292 -148 -465q-157 -183 -443 -183q-405 0 -405 412q0 90 34 213q44 160 117 220q-16 -52 -34 -129q-25 -107 -25 -148
q0 -312 406 -312q126 0 257 50q158 60 158 146q0 176 -93 341q-28 50 -33 52q22 32 42 65q48 80 74 144q54 -114 104 -153q57 -44 167 -44q111 0 182 53q40 30 90.5 110t81.5 104q0 -55 -7 -91l-16 -54q0 -18 49 -48q63 -39 148 -39q75 0 75 43q0 19 -21 67t-19 64
q34 42 70 151q36 -68 35 -101q-1 -39 -1 -32z" />
    <glyph glyph-name="afii57428" unicode="&#x634;" horiz-adv-x="1896" 
d="M1867 485q0 -62 -15 -147q-51 -288 -182 -288q-45 0 -117 47t-86 47q-8 0 -41 -32q-41 -39 -79 -58q-60 -32 -134 -32q-81 0 -191 27q0 -292 -148 -465q-157 -183 -443 -183q-405 0 -405 412q0 90 34 213q44 160 117 220q-16 -52 -34 -129q-25 -107 -25 -148
q0 -312 406 -312q126 0 257 50q158 60 158 146q0 176 -93 341q-28 50 -33 52q22 32 42 65q48 80 74 144q54 -114 104 -153q57 -44 167 -44q111 0 182 53q40 30 90.5 110t81.5 104q0 -55 -7 -91l-16 -54q0 -18 49 -48q63 -39 148 -39q75 0 75 43q0 19 -21 67t-19 64
q34 42 70 151q36 -68 35 -101q-1 -39 -1 -32zM1595 841l137 136l-137 132l-269 -268l-135 136l134 132zM1468 1391l136 -134l-136 -137l-134 137z" />
    <glyph glyph-name="afii57429" unicode="&#x635;" horiz-adv-x="2218" 
d="M2205 600q0 -117 -104 -251q-116 -149 -307 -241q-225 -108 -505 -108h-280q-26 -273 -171 -431q-157 -172 -424 -172q-398 0 -398 411q0 85 40 216q47 155 112 220q-10 -45 -30 -136q-29 -135 -29 -149q0 -179 121 -251q92 -55 277 -55q180 0 311 77q111 65 111 125
q0 121 -37 214q-27 60 -80 181q5 26 11 45q18 57 59 147q57 -107 86 -136q51 -50 145 -50q30 0 191 144q207 186 326 268q210 145 354 145q94 0 157.5 -60t63.5 -153zM2031 454q0 44 -116 89q-100 39 -150 39q-103 0 -356 -193q-93 -71 -144 -122h267q98 0 281 54
q218 64 218 133z" />
    <glyph glyph-name="afii57430" unicode="&#x636;" horiz-adv-x="2218" 
d="M2205 600q0 -117 -104 -251q-116 -149 -307 -241q-225 -108 -505 -108h-280q-26 -273 -171 -431q-157 -172 -424 -172q-398 0 -398 411q0 85 40 216q47 155 112 220q-10 -45 -30 -136q-29 -135 -29 -149q0 -179 121 -251q92 -55 277 -55q180 0 311 77q111 65 111 125
q0 121 -37 214q-27 60 -80 181q5 26 11 45q18 57 59 147q57 -107 86 -136q51 -50 145 -50q30 0 191 144q207 186 326 268q210 145 354 145q94 0 157.5 -60t63.5 -153zM2031 454q0 44 -116 89q-100 39 -150 39q-103 0 -356 -193q-93 -71 -144 -122h267q98 0 281 54
q218 64 218 133zM1370 1223l155 -155l-155 -152l-155 152z" />
    <glyph glyph-name="afii57431" unicode="&#x637;" horiz-adv-x="1573" 
d="M1539 575q0 -72 -71 -185q-245 -390 -876 -390q-238 0 -353 48q-136 57 -250 230l422 -45q44 13 127 90q88 80 88 118v879q0 16 -47 76q-23 30 -23 59q0 51 73 158q60 88 90 114q-9 -60 -9 -99q0 -63 33 -99q25 -26 91 -57q-21 -85 -32 -113q-35 -90 -83 -119l12 -742
q36 22 177 121q119 84 195 124q108 57 181 57q90 0 170 -67q85 -70 85 -158zM1341 441q0 54 -98 89q-76 27 -133 27q-154 0 -366 -180q-53 -45 -118 -111q87 -21 105 -21q63 0 202 26q161 30 272 71q136 50 136 99z" />
    <glyph glyph-name="afii57432" unicode="&#x638;" horiz-adv-x="1573" 
d="M1539 575q0 -72 -71 -185q-245 -390 -876 -390q-238 0 -353 48q-136 57 -250 230l422 -45q44 13 127 90q88 80 88 118v879q0 16 -47 76q-23 30 -23 59q0 51 73 158q60 88 90 114q-9 -60 -9 -99q0 -63 33 -99q25 -26 91 -57q-21 -85 -32 -113q-35 -90 -83 -119l12 -742
q36 22 177 121q119 84 195 124q108 57 181 57q90 0 170 -67q85 -70 85 -158zM1341 441q0 54 -98 89q-76 27 -133 27q-154 0 -366 -180q-53 -45 -118 -111q87 -21 105 -21q63 0 202 26q161 30 272 71q136 50 136 99zM1095 1283l155 -155l-155 -152l-155 152z" />
    <glyph glyph-name="afii57433" unicode="&#x639;" horiz-adv-x="1090" 
d="M1401 -815q-8 -9 -115 -65q-133 -70 -263 -115q-177 -62 -302 -62q-644 0 -644 609q0 121 52 282t123 256l-153 118q-69 55 -69 208q0 177 56 304q71 161 212 161q173 0 302 -118q-122 0 -289 -53q-211 -67 -211 -161q0 -18 43 -69q131 -156 306 -156q38 0 253 168
q94 73 165 109v-116q-13 -39 -13 -67q0 -7 2 -14q1 -8 -1 -12q-11 -20 -196 -146q-206 -140 -313 -267q-164 -194 -164 -410q0 -202 188 -303q150 -81 370 -81h661z" />
    <glyph glyph-name="afii57434" unicode="&#x63a;" horiz-adv-x="1090" 
d="M1401 -815q-8 -9 -115 -65q-133 -70 -263 -115q-177 -62 -302 -62q-644 0 -644 609q0 121 52 282t123 256l-153 118q-69 55 -69 208q0 177 56 304q71 161 212 161q173 0 302 -118q-122 0 -289 -53q-211 -67 -211 -161q0 -18 43 -69q131 -156 306 -156q38 0 253 168
q94 73 165 109v-116q-13 -39 -13 -67q0 -7 2 -14q1 -8 -1 -12q-11 -20 -196 -146q-206 -140 -313 -267q-164 -194 -164 -410q0 -202 188 -303q150 -81 370 -81h661zM325 1388l155 -155l-155 -152l-155 152z" />
    <glyph glyph-name="afii57441" unicode="&#x641;" horiz-adv-x="1656" 
d="M1643 607q0 -482 -544 -595q-183 -38 -453 -38q-628 0 -628 400q0 75 45 178q57 131 142 153q-17 -25 -43.5 -103t-26.5 -106q0 -159 248 -237q171 -54 373 -54q173 0 319 27q131 23 289 78q43 13 130 40q67 29 67 88q0 32 -7 55q-3 10 -16 37q-79 -69 -157 -69
q-146 0 -146 151q0 114 86 246q81 125 136 125q63 0 131 -128q55 -104 55 -248zM1492 688q0 27 -27.5 56t-54.5 29q-13 0 -48 -34q-9 -9 -32 -34q16 -28 33 -56q21 -25 59 -25q70 0 70 64zM1375 1443l155 -155l-155 -152l-155 152z" />
    <glyph glyph-name="afii57442" unicode="&#x642;" horiz-adv-x="1207" 
d="M1148 177q0 -191 -118 -343q-107 -139 -292 -220q-145 -64 -259 -64q-215 0 -331 117t-116 331q0 111 36 231q45 151 117 180q-18 -62 -36 -140q-24 -107 -24 -150q0 -313 395 -313q158 0 300 56q156 61 248 175v93q-8 -1 -52 -7q-29 -4 -59 -4q-249 0 -249 198
q0 89 63 204q72 131 152 131q108 0 174 -194q51 -148 51 -281zM975 327v59q-23 39 -35 54q-30 38 -52 38q-13 0 -51 -46q-7 -9 -36 -46v-35l53 -24q22 -10 40 -10zM994 946l138 136l-137 133l-270 -269l-135 136l136 133z" />
    <glyph glyph-name="afii57443" unicode="&#x643;" horiz-adv-x="1949" 
d="M1278 0q186 0 302 145q104 130 104 303q0 149 -103 271q-72 85 -207 169q-148 92 -155 99q64 64 268 172q126 67 355 174l180 84q3 3 45 221q-139 -29 -378 -160q-70 -38 -167 -96q-138 -82 -187 -116q-233 -162 -233 -342q0 -117 120 -204q75 -44 225 -134
q121 -76 121 -179q0 -67 -110 -110q-87 -34 -157 -34h-627q-166 0 -247 10q-277 34 -277 220q0 61 18 144q15 70 30 105q-71 -32 -126 -179q-48 -127 -48 -221q0 -183 147 -271q119 -71 317 -71h790z" />
    <glyph glyph-name="afii57443" unicode="&#x6a9;" horiz-adv-x="1949" 
d="M1278 0q186 0 302 145q104 130 104 303q0 149 -103 271q-72 85 -207 169q-148 92 -155 99q64 64 268 172q126 67 355 174l180 84q3 3 45 221q-139 -29 -378 -160q-70 -38 -167 -96q-138 -82 -187 -116q-233 -162 -233 -342q0 -117 120 -204q75 -44 225 -134
q121 -76 121 -179q0 -67 -110 -110q-87 -34 -157 -34h-627q-166 0 -247 10q-277 34 -277 220q0 61 18 144q15 70 30 105q-71 -32 -126 -179q-48 -127 -48 -221q0 -183 147 -271q119 -71 317 -71h790z" />
    <glyph glyph-name="afii57509" unicode="&#x6af;" horiz-adv-x="1949" 
d="M1092 1270l24 81l997 499l-26 -82zM1278 0q186 0 302 145q104 130 104 303q0 149 -103 271q-72 85 -207 169q-148 92 -155 99q64 64 268 172q126 67 355 174l180 84q3 3 45 221q-139 -29 -378 -160q-70 -38 -167 -96q-138 -82 -187 -116q-233 -162 -233 -342
q0 -117 120 -204q75 -44 225 -134q121 -76 121 -179q0 -67 -110 -110q-87 -34 -157 -34h-627q-166 0 -247 10q-277 34 -277 220q0 61 18 144q15 70 30 105q-71 -32 -126 -179q-48 -127 -48 -221q0 -183 147 -271q119 -71 317 -71h790z" />
    <glyph glyph-name="afii57444" unicode="&#x644;" horiz-adv-x="950" 
d="M917 1394q-10 -65 -31 -193q-5 -32 -51 -52q3 -10 21 -122q60 -379 60 -672q0 -749 -523 -749q-217 0 -299 112q-62 84 -62 265q0 104 33 224q38 139 96 188q0 -8 -19 -130q-10 -64 -10 -105q0 -275 320 -275q49 0 120 16q241 55 239 186q-2 93 -18 295q-11 77 -28 246
l-34 615q-2 5 -59 64q-24 25 -24 35q0 29 67 186q39 91 62 109q0 -127 19 -169q28 -62 121 -74z" />
    <glyph glyph-name="afii57445" unicode="&#x645;" horiz-adv-x="767" 
d="M143 -54l3 -841q0 -125 -46 -198l-82 905q0 168 87 257q65 67 175 90l134 24q-73 96 -149 96q-48 0 -118 -38q27 96 79 165q69 91 159 91q61 0 200 -92q144 -95 144 -147q-9 -23 -58 -133q-7 -15 -58 -128q-5 -3 -17 -3q-30 0 -98 15l-312 1q-25 0 -36 -32q-2 -7 -7 -32z
" />
    <glyph glyph-name="afii57446" unicode="&#x646;" horiz-adv-x="1001" 
d="M963 125q0 -216 -144 -382q-158 -182 -402 -182q-396 0 -396 366q0 79 28 180q38 138 108 211q0 -42 -17 -125t-17 -125q0 -258 310 -258q64 0 156 25q274 74 274 216q0 130 -117 282q-14 17 -41 53q5 20 15 54q36 119 75 193q122 -151 157 -375q11 -71 11 -133z
M410 1038l155 -155l-155 -152l-155 152z" />
    <glyph glyph-name="afii57514" unicode="&#x6ba;" horiz-adv-x="1001" 
d="M963 125q0 -216 -144 -382q-158 -182 -402 -182q-396 0 -396 366q0 79 28 180q38 138 108 211q0 -42 -17 -125t-17 -125q0 -258 310 -258q64 0 156 25q274 74 274 216q0 130 -117 282q-14 17 -41 53q5 20 15 54q36 119 75 193q122 -151 157 -375q11 -71 11 -133z" />
    <glyph glyph-name="afii57448" unicode="&#x648;" horiz-adv-x="876" 
d="M844 279q0 -171 -54 -320q-61 -170 -178 -267q-132 -109 -319 -109q-115 0 -210 32q-28 9 -154 60q542 0 768 290q77 99 77 180q0 41 -22 88q-83 -105 -179 -105q-123 0 -123 157q0 94 64 217q71 136 146 136q61 0 115 -81q69 -103 69 -278zM693 349q0 62 -91 104
q-30 -57 -39 -79l-20 -49q68 -34 70 -34q21 0 47 14q33 18 33 44z" />
    <glyph glyph-name="afii57412" unicode="&#x624;" horiz-adv-x="876" 
d="M844 279q0 -171 -54 -320q-61 -170 -178 -267q-132 -109 -319 -109q-115 0 -210 32q-28 9 -154 60q542 0 768 290q77 99 77 180q0 41 -22 88q-83 -105 -179 -105q-123 0 -123 157q0 94 64 217q71 136 146 136q61 0 115 -81q69 -103 69 -278zM693 349q0 62 -91 104
q-30 -57 -39 -79l-20 -49q68 -34 70 -34q21 0 47 14q33 18 33 44zM781 1137q-7 -9 -29 -53q-14 -28 -30 -28q-13 0 -38.5 1.5t-36.5 1.5q-100 1 -238 -109q-3 20 -3 32q0 18 4 31q11 35 11 43q0 21 -14 44q-33 54 -33 72q0 46 100 127t148 81q25 0 44.5 -19t19.5 -44
q0 -62 -32 -62q-14 0 -44 9.5t-45 9.5q-63 0 -98 -91q36 -26 50 -33q29 -14 109 -14h102q6 0 19 1h21h13z" />
    <glyph glyph-name="uni06C1" unicode="&#x6c1;" horiz-adv-x="620" 
d="M586 390q0 -151 -68 -261q-81 -129 -223 -129q-174 0 -174 215q0 90 77 279q25 61 28 64q1 3 -5.5 27.5t-6.5 33.5q0 74 59 217q25 -30 229 -215q84 -76 84 -231zM493 332q0 16 -96 97q-72 60 -101 82q-71 -71 -71 -162q0 -116 93 -116q38 0 104 34q71 37 71 65z" />
    <glyph glyph-name="uni06C3" unicode="&#x6c3;" horiz-adv-x="620" 
d="M586 390q0 -151 -68 -261q-81 -129 -223 -129q-174 0 -174 215q0 90 77 279q25 61 28 64q1 3 -5.5 27.5t-6.5 33.5q0 74 59 217q25 -30 229 -215q84 -76 84 -231zM493 332q0 16 -96 97q-72 60 -101 82q-71 -71 -71 -162q0 -116 93 -116q38 0 104 34q71 37 71 65z
M422 1019l138 136l-137 133l-270 -269l-135 136l136 133z" />
    <glyph glyph-name="uni06BE" unicode="&#x6be;" horiz-adv-x="873" 
d="M836 395q0 -149 -28 -201q-42 -76 -175 -76q-83 0 -152 14l-138 32q-20 -16 -38 -29q-57 -43 -97 -70q-117 -81 -414 -153q-91 -22 -100 -22l359 183q144 97 144 175q0 28 -32.5 97.5t-32.5 111.5q0 44 20 90q26 59 40 85q25 47 53 77q0 13 -21 30q-12 10 -14 16
q-9 32 39.5 144.5t76.5 112.5q6 0 76 -62l248 -218q118 -98 159 -174q28 -52 28 -122v-21q-1 -13 -1 -20zM755 325q-14 54 -88 128q-100 100 -156 128q24 -47 24 -95q0 -51 -35 -137q61 -8 122 -17q84 -12 110 -30zM454 477q0 31 -29 73q-37 54 -98 78q-7 -11 -67 -79
q-34 -39 -50 -96q88 -46 133 -46q31 0 68 20q43 22 43 50z" />
    <glyph glyph-name="afii57409" unicode="&#x621;" horiz-adv-x="667" 
d="M585 378q-41 -86 -52 -105q-14 -24 -27 -24q-42 13 -62 13q-110 0 -335 -151q-9 39 -9 61q0 26 9 42q22 39 22 44q0 16 -35 66t-35 89q14 22 43 66q134 190 272 190q26 0 65 -26t39 -50q0 -64 -68 -64q-27 0 -64 12q-11 4 -31 12q-28 0 -72 -36t-44 -63q0 -23 60 -49
q69 -30 154 -30q25 0 54 3h116z" />
    <glyph glyph-name="uni06CC" unicode="&#x6cc;" horiz-adv-x="1366" 
d="M1328 775q0 -55 -21 -98q-54 -109 -59 -123l-43 46q-24 25 -50 25q-40 0 -138 -69q-81 -57 -124 -101q-75 -76 -75 -127q0 -73 123 -95q23 -4 229 -40q123 -40 123 -153q0 -91 -101 -216q-112 -139 -282 -228q-205 -107 -433 -107q-451 0 -451 475q0 98 47 230
q54 153 126 187q-57 -200 -57 -295q0 -343 393 -343q40 0 153 23q158 32 275 81q157 66 203 152q-99 6 -198 13q-137 14 -182 47q-61 45 -61 148q0 130 103 298q88 143 205 246q132 116 231 116q30 0 49 -32q15 -27 15 -60z" />
    <glyph glyph-name="afii57450" unicode="&#x64a;" horiz-adv-x="1366" 
d="M1328 775q0 -55 -21 -98q-54 -109 -59 -123l-43 46q-24 25 -50 25q-40 0 -138 -69q-81 -57 -124 -101q-75 -76 -75 -127q0 -73 123 -95q23 -4 229 -40q123 -40 123 -153q0 -91 -101 -216q-112 -139 -282 -228q-205 -107 -433 -107q-451 0 -451 475q0 98 47 230
q54 153 126 187q-57 -200 -57 -295q0 -343 393 -343q40 0 153 23q158 32 275 81q157 66 203 152q-99 6 -198 13q-137 14 -182 47q-61 45 -61 148q0 130 103 298q88 143 205 246q132 116 231 116q30 0 49 -32q15 -27 15 -60zM759 -944l138 136l-137 133l-270 -269l-135 136
l136 133z" />
    <glyph glyph-name="afii57414" unicode="&#x626;" horiz-adv-x="1366" 
d="M1328 775q0 -55 -21 -98q-54 -109 -59 -123l-43 46q-24 25 -50 25q-40 0 -138 -69q-81 -57 -124 -101q-75 -76 -75 -127q0 -73 123 -95q23 -4 229 -40q123 -40 123 -153q0 -91 -101 -216q-112 -139 -282 -228q-205 -107 -433 -107q-451 0 -451 475q0 98 47 230
q54 153 126 187q-57 -200 -57 -295q0 -343 393 -343q40 0 153 23q158 32 275 81q157 66 203 152q-99 6 -198 13q-137 14 -182 47q-61 45 -61 148q0 130 103 298q88 143 205 246q132 116 231 116q30 0 49 -32q15 -27 15 -60zM531 1137q-7 -9 -29 -53q-14 -28 -30 -28
q-13 0 -38.5 1.5t-36.5 1.5q-100 1 -238 -109q-3 20 -3 32q0 18 4 31q11 35 11 43q0 21 -14 44q-33 54 -33 72q0 46 100 127t148 81q25 0 44.5 -19t19.5 -44q0 -62 -32 -62q-14 0 -44 9.5t-45 9.5q-63 0 -98 -91q36 -26 50 -33q29 -14 109 -14h102q6 0 19 1h21h13z" />
    <glyph glyph-name="afii57519" unicode="&#x6d2;" horiz-adv-x="1637" 
d="M818 220q56 3 154 3h50q83 0 143 44q11 8 85 82q45 45 87 45q107 0 190 -125v-264l-120 128q-53 45 -94 45q-29 0 -99.5 -64t-112.5 -64h-252q-225 0 -411 -272q-59 -86 -59 -104q0 -53 275 -53h934l-92 -230h-1174q-12 39 -18 66q-18 85 -18 187q0 270 251 466
q128 100 281 110z" />
    <glyph glyph-name="uni06D3" unicode="&#x6d3;" horiz-adv-x="1637" 
d="M818 220q56 3 154 3h50q83 0 143 44q11 8 85 82q45 45 87 45q107 0 190 -125v-264l-120 128q-53 45 -94 45q-29 0 -99.5 -64t-112.5 -64h-252q-225 0 -411 -272q-59 -86 -59 -104q0 -53 275 -53h934l-92 -230h-1174q-12 39 -18 66q-18 85 -18 187q0 270 251 466
q128 100 281 110zM1531 937q-7 -9 -29 -53q-14 -28 -30 -28q-13 0 -38.5 1.5t-36.5 1.5q-100 1 -238 -109q-3 20 -3 32q0 18 4 31q11 35 11 43q0 21 -14 44q-33 54 -33 72q0 46 100 127t148 81q25 0 44.5 -19t19.5 -44q0 -62 -32 -62q-14 0 -44 9.5t-45 9.5q-63 0 -98 -91
q36 -26 50 -33q29 -14 109 -14h102q6 0 19 1h21h13z" />
    <glyph glyph-name="glyph73" horiz-adv-x="482" 
d="M462 -187v-44q-91 -29 -151 -95q-65 -71 -65 -162q0 -41 23 -41q11 0 48 20q17 9 38 9q107 0 107 -109q0 -51 -38.5 -85t-90.5 -34q-66 0 -117.5 58.5t-51.5 151.5q0 230 298 331zM447 413q0 -328 -242 -393q-75 -20 -204 -20h-67v263h37q25 -1 37 -1q298 0 357 74
q0 17 -36 90q-10 19 -36 70q22 41 42 83q47 97 56 126l37 -149q19 -80 19 -143z" />
    <glyph glyph-name="afii57444.zz03_afii57415.zz04.zz05" horiz-adv-x="1504" 
d="M636 175q55 42 120 111q89 94 89 134q0 34 -35 120q-110 271 -336 460q-31 26 -86 66q-5 4 -19 14q-24 -8 -40 -12q-52 -13 -96 -13q-224 0 -224 253q0 46 24 90q30 54 75 54q87 0 256 -137q124 -100 220 -207q150 -167 226 -330q29 -61 82 -278q21 52 70 273
q23 103 23 133v477q0 8 86 103q29 33 87 94v-604q0 -146 23 -305q24 -165 41 -223q44 -143 129 -170q47 -15 190 -15v-263h-208q-208 0 -260 402q-16 124 -16 270q0 70 2 106q-5 -39 -17 -117q-19 -120 -55 -251q-44 -158 -95 -235q-87 -130 -297 -214q-190 -75 -365 -75
q23 6 169 111q81 59 237 178z" />
    <glyph glyph-name="sf268.001" horiz-adv-x="536" 
d="M394 1540q103 0 190.5 39t162.5 108q11 11 14.5 6.5t-0.5 -12.5q-37 -72 -78.5 -126.5t-89.5 -91t-104.5 -54.5t-124.5 -18q-49 0 -93.5 9.5t-92.5 22.5q-8 -28 -16 -55t-16 -55q-6 -15 -9 -18.5t-5 -0.5t-3 10t-3 13q-8 57 -32 105.5t-69 93.5q-5 7 -3 15t2 17
q6 23 11.5 46t11.5 46q2 12 7.5 20t17.5 -2q67 -61 149 -89.5t173 -28.5zM294 1062q6 31 14.5 66.5t17.5 68.5t19 60t19 42l6 10t10 6q0 -29 -0.5 -53t-0.5 -54q20 -188 34 -328t23.5 -241t15.5 -168t8.5 -108.5t3.5 -62.5t1 -31v-11q1 -88 -12.5 -170t-45.5 -148
q-4 -6 -6.5 -2.5t-3.5 12.5q-15 159 -24.5 282t-19.5 223q-13 124 -22.5 215t-16 156t-10.5 106.5t-6 67t-3 37.5t-1 18v7z" />
    <glyph glyph-name="sf308" unicode="&#x61f;" horiz-adv-x="683" 
d="M316 -269q-6 7 -4.5 12.5t6.5 14.5q6 7 19.5 23.5t28.5 35t29 35t20 22.5q8 11 14 10.5t12 -5.5q37 -33 74.5 -61t61.5 -53q5 -6 4 -10.5t-5 -10.5q-23 -33 -47.5 -62.5t-48.5 -60.5q-10 -19 -27 -7q-14 7 -34 22t-40 32t-37 34t-26 29zM439 36q-4 -6 -9.5 -13.5
t-10 -10.5t-6.5 1t1 21q7 39 17 81.5t12.5 84.5t-8 81.5t-44.5 71.5q-66 30 -128 62t-109.5 75t-75.5 101t-26 141q18 81 45.5 161t72 144t110 104t160.5 40q34 0 66.5 -11.5t60 -32.5t49 -49.5t34.5 -62.5q6 -18 -2 -48t-22 -61.5t-30 -59.5t-26 -43q-8 -14 -17 -14
q-12 0 -12 18q1 34 -14.5 65.5t-42 54.5t-61.5 36t-72 11q-21 -1 -50 -9t-59 -23t-57.5 -37t-46.5 -52q0 -47 20 -86.5t50 -72t66 -56.5t69 -40q49 -25 83.5 -39.5t56.5 -34t32 -51.5t10 -93q0 -26 -3.5 -64t-12.5 -84.5t-26 -99t-44 -106.5z" />
    <glyph glyph-name="sf333" unicode="&#x61b;" horiz-adv-x="432" 
d="M93 207q5 7 18.5 24.5t29.5 36.5t30 35.5t21 22.5q8 11 14.5 10.5t12.5 -6.5q37 -32 75 -61t63 -55q6 -5 4.5 -9.5t-6.5 -10.5q-23 -34 -47.5 -64t-48.5 -63q-11 -18 -28 -7q-14 7 -34.5 22.5t-41 33.5t-38 35.5t-25.5 28.5q-6 8 -5 13t6 14zM82 550q-18 54 -9.5 113.5
t33.5 119.5t62 116t76 102q12 11 24.5 18.5t20.5 7.5q7 0 6 -9.5t-16 -33.5q-20 -31 -40.5 -61.5t-37.5 -62t-28 -65t-12 -71.5q0 -14 2.5 -32t9.5 -34t19 -26t31 -8q9 8 17.5 26t17.5 37.5t19 35.5t21 19q10 0 21 -12.5t20 -29t14.5 -33.5t5.5 -26q0 -24 -15.5 -53.5
t-32.5 -64.5q-25 -33 -58.5 -46.5t-67 -9.5t-61.5 25t-42 58z" />
    <glyph glyph-name="sf272" unicode=":" horiz-adv-x="568" 
d="M164 701q0 49 35 83.5t82 34.5t86 -30q37 -33 37 -88q0 -54 -31 -86q-33 -35 -80 -35q-63 0 -100 41q-29 31 -29 80zM164 109q0 53 35 86t82 33t88 -33q39 -35 39 -90q0 -54 -47 -90q-35 -28 -68 -28h-8q-49 0 -84 34q-37 30 -37 88z" />
    <glyph glyph-name="sf273" unicode="," horiz-adv-x="568" 
d="M129 -205l84 402h191l-115 -402h-160z" />
    <glyph glyph-name="sf275" horiz-adv-x="403" 
d="M91 -95q4 7 16 22.5t26 32.5t27 32t19 21q7 10 13 10t12 -6q33 -29 67.5 -55t55.5 -50q10 -8 0 -18q-21 -30 -43.5 -57.5t-44.5 -56.5q-9 -17 -24 -6q-12 6 -30.5 20t-37.5 30t-34.5 31.5t-22.5 25.5q-6 8 -5.5 12.5t6.5 11.5zM208 429q-1 66 -9 124.5t-24 113t-41 107.5
t-60 108q-2 4 -3 7t1 9q1 6 11 35.5t38 99.5q8 24 20 22t24.5 -14.5t23 -29t15.5 -21.5q48 -88 69.5 -184.5t21.5 -199.5t-19.5 -201t-55.5 -189q-5 -13 -10.5 -21.5t-8.5 -8.5q-8 0 -6 39q4 55 9 104t4 100z" />
    <glyph glyph-name="sf257" unicode="%" horiz-adv-x="1821" 
d="M344 -24l953 1484h127l-953 -1484h-127zM96 1121q0 149 99 245q96 94 241 94q140 0 234 -94t94 -229q0 -156 -98 -252t-238 -96q-129 0 -225 86q-107 94 -107 246zM1004 307q0 148 100 244t248 96q160 0 250 -120q74 -99 74 -220q0 -151 -103 -245q-94 -86 -225 -86
q-164 0 -262 114q-82 97 -82 217zM252 1129q0 -82 53 -131q54 -50 127 -50q70 0 121 49.5t51 139.5q0 78 -49 119q-51 41 -123 41q-71 0 -125.5 -45t-54.5 -123zM1164 312q0 -89 61 -138q49 -39 111 -39q69 0 120 41q60 47 60 127q0 84 -49 136q-52 49 -127 49
q-78 0 -127 -56q-49 -55 -49 -120z" />
    <glyph glyph-name="sf258.001" unicode="*" horiz-adv-x="1024" 
d="M399 1037l-271 139l81 129l252 -172l-25 299h156l-25 -299l257 172l75 -129l-271 -139l271 -144l-80 -129l-252 164l25 -287h-156l25 287l-252 -168l-81 133z" />
    <glyph glyph-name="sf258.001" unicode="&#x66d;" horiz-adv-x="1024" 
d="M399 1037l-271 139l81 129l252 -172l-25 299h156l-25 -299l257 172l75 -129l-271 -139l271 -144l-80 -129l-252 164l25 -287h-156l25 287l-252 -168l-81 133z" />
    <glyph glyph-name="sf259.001" unicode="@" horiz-adv-x="1641" 
d="M108 713q0 283 195 506q211 241 525 241q344 0 544 -208q164 -170 164 -371q0 -229 -129 -406q-141 -194 -358 -194q-55 0 -86 39t-31 80q-41 -54 -96 -86.5t-127 -32.5q-129 0 -213 88q-92 96 -92 260q0 188 114 338q127 165 322 165q16 3 25 3q73 0 135 -47
q51 -39 80 -101l36 113h144l-164 -596q-4 -25 -4 -31q0 -47 45 -53q80 0 164 125q95 143 95 332q0 180 -132 307q-154 147 -428 147q-217 0 -379 -141q-193 -170 -193 -469q0 -285 191 -461q170 -155 385 -155l33 4q139 0 270 62.5t188 140.5h150q-102 -146 -234 -228
q-174 -108 -407 -108q-340 0 -551 256q-181 219 -181 481zM1016 781q2 8 2 16v12q0 74 -49 121t-117 47q-106 0 -190 -110q-86 -113 -86 -238q0 -90 43 -137q37 -41 108 -56q11 -2 21 -2q90 0 176 107q92 115 92 240z" />
    <glyph glyph-name="sf260.002" unicode="[" horiz-adv-x="797" 
d="M232 -356v1792h356v-96h-180v-1596h180v-100h-356z" />
    <glyph glyph-name="sf262.001" horiz-adv-x="796" 
d="M305 113q4 6 14.5 19t22.5 27.5t23 27.5t16 18q6 8 10 8q5 0 10 -5q29 -25 58 -47t49 -42q6 -8 -2 -16q-17 -26 -36 -49t-38 -48q-8 -14 -22 -6q-10 6 -25.5 17.5t-31.5 25t-29.5 27t-19.5 22.5q-5 7 -4.5 10.5t5.5 10.5zM304 597q4 6 14.5 19t22.5 27.5t23 27.5t16 18
q6 8 10 8q5 0 10 -5q29 -25 58 -47t49 -42q6 -8 -2 -16q-17 -26 -36 -49t-38 -48q-8 -14 -22 -6q-10 6 -25.5 17.5t-31.5 25t-29.5 27t-19.5 22.5q-5 7 -4.5 10.5t5.5 10.5zM70 385h656v-78h-656v78z" />
    <glyph glyph-name="sf263.001" unicode="$" horiz-adv-x="1141" 
d="M185 197v172h327v396q-198 124 -215 138q-121 105 -121 246q0 152 115 230q92 61 221 61v164h156v-168h276v-172h-276v-365q230 -143 276 -213q56 -80 56 -198q0 -121 -63 -195q-84 -96 -269 -96v-222h-156v222h-327zM512 965v299q-78 0 -116.5 -33t-38.5 -82
q0 -57 41 -104t114 -80zM668 369q78 0 119 41q32 33 32 86v16q0 49 -42 94q-33 35 -109 86v-323z" />
    <glyph glyph-name="sf264.001" unicode="=" horiz-adv-x="1229" 
d="M1108 776v-159h-984v159h984zM1108 372v-159h-984v159h984z" />
    <glyph glyph-name="sf268.002" unicode="-" horiz-adv-x="568" 
d="M55 408v164h461v-164h-461z" />
    <glyph glyph-name="sf269.001" horiz-adv-x="725" 
d="M88 20h-6l-61 61l267 264l-268 275l64 64l272 -271l284 278l65 -67l-282 -279l279 -279l-66 -66l-282 279z" />
    <glyph glyph-name="sf270.005" unicode="(" horiz-adv-x="797" 
d="M147 563q0 232 76 428q64 162 175 293q88 103 194 176l80 -108q-59 -55 -119 -109q-104 -110 -164 -249q-82 -193 -82 -449q0 -254 105 -475q98 -210 260 -330l-72 -125q-260 196 -373 496q-80 211 -80 452z" />
    <glyph glyph-name="sf271.001" unicode="+" horiz-adv-x="1229" 
d="M125 416v160h412v407h160v-407h411v-160h-411v-416h-160v416h-412z" />
    <glyph glyph-name="sf273.001" unicode="/" horiz-adv-x="568" 
d="M-13 -25l437 1485h156l-432 -1485h-161z" />
    <glyph glyph-name="sf274.001" unicode="&#x640;" horiz-adv-x="578" 
d="M101 200l476 -1l-80 -196q-17 0 -52.5 -0.5t-81 -1t-96.5 -1t-100 -0.5h-92h-72z" />
    <glyph glyph-name="sf274.001" unicode="&#x6d4;" horiz-adv-x="578" 
d="M101 200l476 -1l-80 -196q-17 0 -52.5 -0.5t-81 -1t-96.5 -1t-100 -0.5h-92h-72z" />
    <glyph glyph-name="sf264.002.24428116" unicode="#" horiz-adv-x="1141" 
d="M63 441l9 131h217l38 293h-202l6 131h217l60 440h147l-60 -440h245l61 440h147l-59 -440h182l-4 -131h-198l-41 -293h188l-8 -131h-199l-61 -441h-148l60 441h-240l-63 -441h-148l63 441h-209zM436 572h244l41 293h-246z" />
    <glyph glyph-name="sf270.008" unicode=")" horiz-adv-x="797" 
d="M492 533q0 291 -117 518q-96 188 -246 289l72 120q188 -118 311 -346q140 -258 140 -577q0 -271 -107 -506q-117 -259 -336 -412l-80 108q187 158 279 376q84 198 84 430z" />
    <glyph glyph-name="sf260.003" unicode="]" horiz-adv-x="797" 
d="M209 -356v100h178v1579h-178v112h354v-1791h-354z" />
    <glyph glyph-name="a" unicode="a" horiz-adv-x="1141" 
d="M876 0v568q0 114 -87 190q-88 74 -236 74q-117 0 -205 -68q-116 -88 -116 -264q0 -160 100 -258q92 -90 221 -90q142 0 252 137v-217q-80 -51 -108 -64q-66 -28 -160 -28q-191 0 -332 137q-154 149 -154 383q0 217 129 354q140 150 388 150q231 0 368 -137
q125 -125 125 -314v-552z" />
    <glyph glyph-name="b" unicode="b" horiz-adv-x="1141" 
d="M84 1436h180v-924q0 -151 89 -256q88 -104 231 -104q156 0 246 114q78 99 78 230q0 168 -103 258q-88 78 -213 78q-78 0 -143 -25q-45 -16 -113 -59v188q55 35 121 51q63 17 123 17q211 0 354 -129q154 -137 154 -359q0 -221 -129 -372q-140 -164 -375 -164
q-217 0 -358.5 150.5t-141.5 361.5v944z" />
    <glyph glyph-name="c" unicode="c" horiz-adv-x="797" 
d="M88 488q0 200 125 342q137 153 363 153h180v-172h-156q-108 0 -200 -71q-119 -93 -119 -256q0 -115 80 -205q94 -107 248 -107h147v-172h-180q-230 0 -369 168q-119 144 -119 320z" />
    <glyph glyph-name="sf256.002" unicode="d" horiz-adv-x="1141" 
d="M880 1432h181v-961q0 -162 -113 -307q-145 -188 -395 -188t-387 176q-110 141 -110 317q0 244 153 398q133 133 295 133q123 0 201 -21q55 -14 104 -47v-192q-45 30 -104 55q-84 35 -154 35q-20 0 -31 -2q-122 -13 -204 -99q-82 -88 -82 -233q0 -29 2 -43
q14 -164 129 -244q88 -61 198 -61q150 0 234 110q83 111 83 287v887z" />
    <glyph glyph-name="e" unicode="e" horiz-adv-x="1141" 
d="M307 469l490 271q-43 43 -70 57q-63 35 -159 35q-148 0 -236 -111q-80 -100 -80 -246q0 -127 84 -221q92 -102 240 -102q149 0 227 82q70 71 100 227l181 -25q0 -159 -129 -296q-154 -164 -392 -164q-200 0 -350 145t-150 348q0 256 169 406q145 129 336 129
q167 0 284 -76q115 -78 197 -236l-664 -368z" />
    <glyph glyph-name="f" unicode="f" horiz-adv-x="568" 
d="M108 0v1075q0 191 118 287q90 74 206 74h177v-172h-130q-98 0 -145 -49q-37 -39 -45 -111v-121h295v-172h-295v-811h-181z" />
    <glyph glyph-name="g" unicode="g" horiz-adv-x="1141" 
d="M264 -244q93 -27 154 -37q61 -12 131 -12q146 0 240 82q91 80 91 211v479q0 158 -87 256q-90 97 -213 97q-141 0 -232 -78q-104 -90 -104 -270l4 -31q0 -115 84 -203q94 -98 240 -98q59 0 112 21q54 18 125 59v-189q-65 -30 -127 -47q-63 -16 -127 -16q-209 0 -348 147
q-139 148 -139 357q0 262 178 405q143 115 330 115q202 0 343.5 -131t141.5 -328v-504q0 -221 -135 -363q-137 -143 -371 -143q-110 0 -184 16q-76 15 -152 41z" />
    <glyph glyph-name="h" unicode="h" horiz-adv-x="1024" 
d="M101 1436h176v-532q59 49 125 74q65 22 151 22q166 0 268 -95q115 -104 115 -296v-609h-185v576q0 123 -59 188q-61 64 -163 64q-133 0 -199 -88q-53 -70 -53 -177v-563h-176v1436z" />
    <glyph glyph-name="i" unicode="i" horiz-adv-x="568" 
d="M176 1209q0 43 33 73q33 31 76 31q41 0 74 -31q32 -30 32 -78q0 -49 -28 -77q-31 -31 -74 -31q-45 0 -78 31q-35 28 -35 82zM193 0v983h180v-983h-180z" />
    <glyph glyph-name="j" unicode="j" horiz-adv-x="457" 
d="M-131 -445v176h80q123 0 162 72q29 53 29 197v983h180v-1084q0 -149 -88 -241q-99 -103 -279 -103h-84zM121 1200q0 54 31 84q28 29 71 29q52 0 82 -27q31 -28 31 -90q0 -47 -35 -73.5t-69 -26.5q-41 0 -72 25q-39 30 -39 79z" />
    <glyph glyph-name="k" unicode="k" horiz-adv-x="908" 
d="M108 1436h181v-815h92q68 6 103 37q32 29 88 135l112 190h205q-78 -131 -158 -262q-79 -133 -135 -141q123 -19 185 -98q51 -68 51 -166v-316h-180v260q0 93 -37 142q-37 47 -127 47h-199v-449h-181v1436z" />
    <glyph glyph-name="l" unicode="l" horiz-adv-x="457" 
d="M135 1436h181v-1436h-181v1436z" />
    <glyph glyph-name="m" unicode="m" horiz-adv-x="1481" 
d="M101 0v676q0 133 102 232q100 96 266 96q99 0 174 -49q52 -33 97 -90q41 59 110 96q82 43 187 43q139 0 241 -96q103 -97 103 -232v-676h-180l-1 621q0 82 -34 138q-48 73 -142 73q-102 0 -153 -70q-39 -53 -39 -141v-621h-184l-1 609q0 100 -47 161.5t-135 61.5
q-108 0 -151 -76q-33 -57 -33 -160v-596h-180z" />
    <glyph glyph-name="n" unicode="n" horiz-adv-x="1024" 
d="M92 0v600q0 170 123 289t301 119q142 0 262 -92q158 -119 158 -332v-584h-181v580q0 104 -67 180t-172 76q-100 0 -170 -72q-69 -72 -69 -168v-596h-185z" />
    <glyph glyph-name="o" unicode="o" horiz-adv-x="1141" 
d="M55 504q0 213 160 361q152 139 348 139q199 0 349 -127q168 -144 168 -377q0 -193 -119 -344q-137 -176 -361 -176q-241 0 -395 149q-154 150 -154 367zM244 508q0 -143 70 -237q88 -119 262 -119q143 0 223 82q90 92 90 282q0 142 -90 230q-92 86 -231 86
q-156 0 -246 -107q-78 -92 -78 -217z" />
    <glyph glyph-name="q" unicode="q" horiz-adv-x="1141" 
d="M880 -441v902q0 197 -110 297q-86 78 -207 78q-118 0 -213 -78q-114 -94 -114 -262q0 -156 88 -248t213 -92q72 0 137 16q88 23 135 68v-189q-57 -32 -133 -49q-78 -18 -151 -18q-205 0 -345 160q-129 147 -129 327l5 17q0 237 147 381q139 135 346 135q191 0 334 -115
q178 -141 178 -393v-937h-181z" />
    <glyph glyph-name="p" unicode="p" horiz-adv-x="1141" 
d="M84 -441v933q0 256 166 395q137 117 326 117q252 0 395 -178q117 -146 117 -326q0 -191 -94 -332q-125 -188 -373 -188q-74 0 -135 12q-64 12 -150 59v189q111 -53 113 -55q73 -33 151 -33q142 0 226 98q82 98 82 250q0 154 -99 246q-98 90 -229 90q-123 0 -211 -90
q-105 -107 -105 -297v-890h-180z" />
    <glyph glyph-name="r" unicode="r" horiz-adv-x="568" 
d="M92 984h172v-115q37 59 95 94q69 41 161 41h56v-172h-43q-140 0 -209 -117q-51 -86 -51 -199v-516h-181v984z" />
    <glyph glyph-name="s" unicode="s" horiz-adv-x="908" 
d="M60 168h493l15 -4q51 6 73 16q43 23 43 72q0 78 -155 129q-123 35 -189 55q-145 50 -207 105q-73 65 -73 176q0 145 112 213q86 51 224 51h424v-172h-459q-113 0 -113 -88q6 -59 107 -98q32 -12 190 -51q174 -50 252 -129q72 -74 72 -187q0 -151 -117 -215
q-76 -41 -203 -41h-61h-428v168z" />
    <glyph glyph-name="t" unicode="t" horiz-adv-x="680" 
d="M121 307v926h178v-250h353v-172h-353v-538q0 -41 33 -70q31 -31 96 -31h224v-172h-228q-158 0 -235 92q-68 80 -68 215z" />
    <glyph glyph-name="u" unicode="u" horiz-adv-x="1024" 
d="M92 983h181v-592q0 -104 71 -172q72 -67 164 -67q105 0 174 73.5t69 165.5v592h181v-583q0 -179 -121 -299.5t-303 -120.5q-172 0 -285 102q-131 119 -131 342v559z" />
    <glyph glyph-name="v" unicode="v" horiz-adv-x="908" 
d="M-29 983h197l289 -764l287 764h192l-344 -911q-39 -93 -139 -93q-47 0 -86 29q-41 27 -55 76z" />
    <glyph glyph-name="w" unicode="w" horiz-adv-x="1481" 
d="M101 983h180v-639q0 -80 45 -135q43 -57 127 -57q88 0 135 43q59 55 59 178v610h185v-626q0 -109 59 -160q51 -45 137 -45q78 0 125 57t47 168v606h181v-686q0 -141 -115 -233q-105 -84 -225 -84q-111 0 -172 31q-64 29 -129 106q-39 -55 -107 -92q-82 -45 -180 -45
q-182 0 -279 127q-73 96 -73 213v663z" />
    <glyph glyph-name="x" unicode="x" horiz-adv-x="797" 
d="M17 809v172q123 0 221 -59q98 -62 158 -182q49 129 184 194q100 49 205 49v-174q-127 -12 -211 -96q-86 -86 -86 -221q0 -164 123 -254q88 -66 174 -66v-172q-158 0 -267 84q-65 51 -122 144q-58 -117 -156 -172.5t-223 -55.5v172q125 0 211 105q79 96 79 215
q0 114 -71 209q-84 108 -219 108z" />
    <glyph glyph-name="y" unicode="y" horiz-adv-x="1024" 
d="M105 987h180v-587q0 -107 47 -168q57 -76 180 -76q109 0 168 69.5t59 170.5v591h185v-587q0 -150 -73 -256q-82 -119 -247 -161v-419h-185v419q-145 42 -223 124q-91 96 -91 246v634z" />
    <glyph glyph-name="z" unicode="z" horiz-adv-x="797" 
d="M72 983h487q90 0 136 -37q45 -36 45 -98q0 -61 -43 -117l-457 -559h504v-172h-579q-54 0 -93 33t-39 88q4 39 18 78q13 37 46 74l440 538h-465v172z" />
    <glyph glyph-name="A" unicode="A" horiz-adv-x="1141" 
d="M80 0l4 953q0 221 137 364q138 143 342 143q222 0 361 -143q137 -145 137 -409v-908h-193v652h-515v184h515q0 444 -292 444q-160 0 -240 -121q-59 -90 -59 -206v-953h-197z" />
    <glyph glyph-name="B" unicode="B" horiz-adv-x="1141" 
d="M121 0v1045q0 164 121 284q131 131 330 131q196 0 325 -96q144 -106 144 -293q0 -127 -39 -196q-27 -47 -103 -107q109 -59 160 -151q45 -82 45 -185q0 -198 -121 -315t-307 -117h-289v180h277q104 0 170 54q78 61 78 182q0 123 -84 184q-70 52 -187 52h-254v180h226
q127 0 188 78q47 59 47 151q0 109 -74.5 164t-193.5 55q-127 0 -197.5 -76.5t-70.5 -183.5v-1020h-191z" />
    <glyph glyph-name="C" unicode="C" horiz-adv-x="1024" 
d="M71 725q0 309 245 520q221 191 477 191h184v-180h-153q-267 0 -416 -174q-131 -152 -131 -369q0 -186 96 -328q139 -205 446 -205h158v-180h-192q-312 0 -512 207q-202 207 -202 518z" />
    <glyph glyph-name="D" unicode="D" horiz-adv-x="1252" 
d="M125 0v1436h379q256 0 455 -174q229 -203 229 -535q0 -278 -160 -485q-186 -242 -516 -242h-116v185h133q204 0 339 186q118 164 118 356q0 226 -142 373q-152 156 -395 156h-133v-1256h-191z" />
    <glyph glyph-name="E" unicode="E" horiz-adv-x="1024" 
d="M46 709q0 280 148 461q118 141 316 213q150 53 287 53h147v-180h-155q-234 0 -389 -141q-134 -121 -152 -279h696v-184h-696q0 -168 125 -309q143 -163 367 -163h204v-180h-172q-276 0 -490 185q-236 204 -236 524z" />
    <glyph glyph-name="F" unicode="F" horiz-adv-x="797" 
d="M55 0v987q0 238 148 353q123 96 330 96h207v-180h-207q-285 0 -285 -265v-186h492v-181h-492v-624h-193z" />
    <glyph glyph-name="G" unicode="G" horiz-adv-x="1592" 
d="M46 727q0 359 270 563q221 170 495 170q322 0 578 -256l-125 -143q-117 100 -197 146q-129 73 -258 73q-258 0 -418 -180q-143 -162 -143 -375q0 -221 143 -387q158 -182 414 -182q236 0 387 158q135 140 135 314h-503v181h704v-145q0 -303 -227 -502
q-213 -186 -496 -186q-317 0 -535 211q-224 217 -224 540z" />
    <glyph glyph-name="H" unicode="H" horiz-adv-x="1252" 
d="M125 0v1440h191v-600h620v604h197v-1444h-197v660h-620v-660h-191z" />
    <glyph glyph-name="I" unicode="I" horiz-adv-x="457" 
d="M131 0v1436h197v-1436h-197z" />
    <glyph glyph-name="J" unicode="J" horiz-adv-x="680" 
d="M399 1436h193v-965q0 -192 -84 -307q-121 -164 -399 -164h-109v180h135q121 0 192.5 68t71.5 197v991z" />
    <glyph glyph-name="K" unicode="K" horiz-adv-x="1141" 
d="M131 1436h193v-604h172q86 0 147 72q39 45 92 163l168 369h218l-205 -445q-23 -57 -58 -104q-47 -61 -102 -86q143 -39 215 -127q82 -100 82 -270v-404h-197l4 412q0 113 -69 176q-70 64 -219 64h-248v-652h-193v1436z" />
    <glyph glyph-name="L" unicode="L" horiz-adv-x="797" 
d="M131 1436h189v-936q0 -158 63 -234q72 -86 234 -86h184v-180h-233q-150 0 -275 90q-162 117 -162 334v1012z" />
    <glyph glyph-name="M" unicode="M" horiz-adv-x="1592" 
d="M0 0l160 1276q8 84 58.5 136.5t113.5 52.5q55 0 100 -39t68 -117l301 -989l287 968q26 86 73 129q48 43 103 43q63 0 110 -43q48 -43 54 -112l172 -1305h-203l-141 1176l-328 -1071q-14 -54 -51 -84q-39 -34 -84 -34q-88 0 -125 114l-328 1079l-135 -1180h-205z" />
    <glyph glyph-name="N" unicode="N" horiz-adv-x="1252" 
d="M104 0v1256q0 94 47.5 145t117.5 51q112 0 167 -112l520 -1067v1163h193v-1319q0 -64 -41 -96q-43 -34 -104 -34q-60 0 -111 32q-51 28 -69 78l-527 1091v-1188h-193z" />
    <glyph glyph-name="O" unicode="O" horiz-adv-x="1592" 
d="M252 744q0 -238 156 -414q153 -178 389 -178q172 0 334 119q216 159 216 446q0 227 -143 387q-157 176 -411 176q-219 0 -379 -157q-162 -160 -162 -379zM46 744q0 297 232 512q222 204 498 204q283 0 504 -170q269 -204 269 -565q0 -278 -205 -506q-221 -243 -533 -243
q-307 0 -527 200q-238 220 -238 568z" />
    <glyph glyph-name="P" unicode="P" horiz-adv-x="1024" 
d="M84 0v977q0 215 137 350q136 133 328 133q180 0 313 -112q154 -131 154 -348q0 -201 -127 -334q-115 -121 -260 -121h-276v180h210q146 0 213 107q47 73 47 168q0 104 -51 178q-71 102 -223 102q-151 0 -221 -110q-51 -82 -51 -197v-973h-193z" />
    <glyph glyph-name="Q" unicode="Q" horiz-adv-x="1592" 
d="M743 -297v766h193v-297q178 43 291 187q120 153 120 376q0 213 -149 373q-157 168 -389 168q-262 0 -422 -180q-143 -162 -143 -375q0 -192 117 -348q116 -158 286 -197v-184q-217 31 -385 195q-215 209 -215 538q0 312 222 525q219 210 524 210q264 0 491 -180
q265 -211 265 -536q0 -291 -188 -510q-181 -209 -425 -238v-293h-193z" />
    <glyph glyph-name="R" unicode="R" horiz-adv-x="1141" 
d="M100 -4v903q0 273 117 416q117 141 359 141q186 0 309 -108q132 -117 132 -303q0 -101 -42 -185q-43 -86 -123 -129q189 -73 189 -286v-445h-192l-1 408q-18 216 -260 216h-211v181h172q105 0 180 53q94 66 94 187q0 110 -83 176q-72 55 -168 55q-136 0 -211 -90
q-68 -80 -68 -190v-1000h-193z" />
    <glyph glyph-name="S" unicode="S" horiz-adv-x="1024" 
d="M46 180h506q101 0 158 37q58 35 71 119q2 8 2 17v12q0 67 -52 123q-51 55 -143 100q-127 61 -252 125q-138 76 -197 145q-80 95 -80 222q0 167 119 268q105 88 242 88h492v-180h-492q-82 0 -127 -47q-46 -50 -46 -121q0 -37 18 -72q19 -35 50 -55q90 -64 215 -123
q164 -78 187 -90q104 -62 170 -144q86 -108 86 -235q0 -141 -82 -240q-106 -129 -323 -129h-522v180z" />
    <glyph glyph-name="T" unicode="T" horiz-adv-x="908" 
d="M4 1256v180h904v-180h-355v-1256h-193v1256h-356z" />
    <glyph glyph-name="U" unicode="U" horiz-adv-x="1141" 
d="M96 1436h193v-948q0 -179 88 -262q74 -70 195 -70q135 0 213 104q67 90 67 209v967h193v-952q0 -232 -148 -373q-137 -131 -334 -131q-198 0 -331 137q-136 135 -136 352v967z" />
    <glyph glyph-name="V" unicode="V" horiz-adv-x="1141" 
d="M-29 1436h201l408 -1188l393 1188h199l-428 -1319q-19 -57 -45 -88q-45 -54 -115 -54q-66 0 -105 42q-40 39 -71 127z" />
    <glyph glyph-name="W" unicode="W" horiz-adv-x="1821" 
d="M104 1436h193v-936q0 -182 56 -262q53 -82 202 -82q125 0 201 92q59 72 59 152v1036h193v-1040q12 -121 96 -187q70 -53 168 -53q94 0 164 51q92 68 92 197v1032h193v-1049q0 -196 -148 -311q-129 -100 -305 -100q-152 0 -248 71q-72 54 -104 133q-76 -131 -193 -174
q-71 -26 -203 -26q-204 0 -319 153q-97 129 -97 291v1012z" />
    <glyph glyph-name="X" unicode="X" horiz-adv-x="1141" 
d="M8 1256v180q209 0 367 -113q156 -114 197 -299q41 187 211 303q157 109 350 109v-180q-170 0 -299 -125q-158 -152 -158 -418q0 -211 129 -371q127 -161 303 -161l25 4v-185q-205 0 -371 127q-168 127 -190 293q-35 -180 -193 -299q-158 -121 -371 -121v185
q166 0 303 133q157 153 157 395q0 215 -114 369q-128 174 -346 174z" />
    <glyph glyph-name="Y" unicode="Y" horiz-adv-x="1024" 
d="M47 1436h193v-453q0 -98 61 -162q76 -77 224 -77q143 0 210 94q49 67 49 153v445h193v-455q0 -168 -118 -286q-105 -103 -250 -132v-563h-198v563q-139 35 -231 117q-133 121 -133 320v436z" />
    <glyph glyph-name="Z" unicode="Z" horiz-adv-x="1024" 
d="M108 1256l1 180h702q82 0 119 -35q35 -35 35 -96q0 -43 -19 -92q-18 -52 -43 -88l-664 -945h748v-180h-790q-66 0 -113 33q-56 39 -56 107q0 71 64 176l672 940h-656z" />
    <glyph glyph-name="sf256.001" unicode="." horiz-adv-x="568" 
d="M164 113q0 49 35 82t82 33q49 0 86 -29q37 -31 37 -86q0 -57 -35 -90q-37 -36 -88 -36q-49 0 -82 36q-35 33 -35 90z" />
    <glyph glyph-name="sf308.001" unicode="?" horiz-adv-x="908" 
d="M361 328v453q154 0 232 38q115 60 115 213q0 99 -56 168q-66 80 -181 80q-112 0 -172 -88q-51 -76 -51 -188h-197q0 196 123 327q121 129 314 129q174 0 292.5 -124.5t118.5 -286.5q0 -178 -100 -297q-102 -121 -262 -143v-281h-176zM320 109q0 51 39 88q37 35 86 35
t90 -31q41 -33 41 -92q0 -62 -37 -96q-39 -38 -94 -38q-49 0 -86 40q-39 36 -39 94z" />
    <glyph glyph-name="sf333.001" unicode=";" horiz-adv-x="568" 
d="M129 -205l86 406h193l-119 -406h-160zM164 697q0 59 37 94q35 33 84 33q45 0 84 -37t39 -90q0 -50 -33 -82q-35 -35 -82 -35q-51 0 -90 32.5t-39 84.5z" />
    <glyph glyph-name="sf273.002" unicode="&#x60c;" horiz-adv-x="402" 
d="M82 -24q-12 37 -12 72q0 46 14.5 94t38 95t53.5 91t62 82q12 11 23.5 18t19.5 7q7 0 6 -9.5t-16 -32.5q-16 -24 -35.5 -55t-36 -65.5t-28.5 -70.5t-12.5 -68.5t13 -60.5t46.5 -47q9 7 17 25t16.5 37t17.5 34t21 17q15 -13 26 -34t14 -46.5t-3 -53.5t-25 -55
q-24 -33 -56 -46t-63.5 -8.5t-58.5 25t-42 55.5z" />
    <glyph glyph-name="zero" unicode="0" horiz-adv-x="1141" 
d="M67 492v461q0 223 150 366q148 141 351 141q260 0 397 -190q106 -147 106 -330v-461q0 -182 -123 -329q-145 -175 -380 -175q-248 0 -385 179q-116 147 -116 338zM864 496v444q0 164 -81.5 245.5t-214.5 81.5q-138 0 -213 -87q-78 -88 -78 -232v-432q0 -176 75.5 -262
t215.5 -86q135 0 217 84q79 82 79 244z" />
    <glyph glyph-name="one" unicode="1" horiz-adv-x="1141" 
d="M228 1256l57 180h399v-1436h-197v1256h-259z" />
    <glyph glyph-name="two" unicode="2" horiz-adv-x="1141" 
d="M84 1000q0 188 131 319q142 141 365 141q248 0 377 -170q96 -126 96 -282q0 -141 -55 -238q-65 -112 -254 -258l-428 -332h729v-180h-756q-113 0 -168 39q-57 39 -57 101q0 45 22 86q21 38 58 63l553 432q75 60 118 131q41 70 41 164q0 105 -73 180q-82 84 -220 84
q-131 0 -210 -92q-72 -82 -72 -192q0 -140 102 -220q74 -57 170 -71l-172 -133q-141 55 -219 166q-78 108 -78 262z" />
    <glyph glyph-name="three" unicode="3" horiz-adv-x="1141" 
d="M125 1256v180h600q127 0 178 -41q45 -35 45 -111q0 -59 -40 -116q-29 -41 -99 -103l-225 -188q194 0 321 -107q144 -121 144 -334q0 -190 -125 -313t-311 -123h-521v180h484q131 0 205 80q71 78 71 185q0 110 -80 180q-86 76 -231 76h-248v139l447 416h-615z" />
    <glyph glyph-name="four" unicode="4" horiz-adv-x="1141" 
d="M671 512v621l198 336v-957h215v-180h-215v-332h-198v332h-524q-71 0 -100 33q-30 31 -30 80q2 14 4 30q10 31 12 37l512 924h211l-516 -924h431z" />
    <glyph glyph-name="five" unicode="5" horiz-adv-x="1141" 
d="M176 701v735h747l1 -180h-551v-375h203q213 0 338 -96q147 -115 147 -349q0 -188 -117 -311q-118 -125 -276 -125h-551v180h483q135 0 201 89q50 69 50 172q0 127 -65 190q-73 70 -237 70h-373z" />
    <glyph glyph-name="six" unicode="6" horiz-adv-x="1141" 
d="M46 492q0 139 47 235q19 37 116 172l379 537h240l-396 -551q-84 -115 -112 -164q-72 -121 -72 -252q0 -116 86 -211q94 -102 234 -102q135 0 233 96q96 94 96 236q0 174 -108 264q-109 88 -297 88l117 164q235 0 368 -160q119 -143 119 -348q0 -201 -135 -350
q-152 -166 -393 -166q-220 0 -370 147q-152 146 -152 365z" />
    <glyph glyph-name="seven" unicode="7" horiz-adv-x="1141" 
d="M92 1256v180h717q111 0 169.5 -27.5t58.5 -107.5q0 -51 -37 -137l-516 -1164h-224l560 1256h-728z" />
    <glyph glyph-name="eight" unicode="8" horiz-adv-x="1141" 
d="M289 815q-66 58 -98 117q-39 70 -39 160q0 139 98 244q119 124 330 124q178 0 289 -106q108 -109 108 -270q0 -88 -41 -162q-31 -55 -88 -111q131 -71 184 -176q48 -90 48 -231q0 -172 -140 -299q-141 -129 -364 -129q-271 0 -412 164q-109 126 -109 284q0 117 60 215
q57 96 174 176zM361 1071q0 -67 51 -120q59 -62 160 -62q110 10 159 72q36 47 36 123q0 69 -38 123q-53 73 -161 73q-91 0 -148 -51q-59 -53 -59 -158zM269 436q0 -124 81 -204q82 -80 222 -80q125 0 209 69q91 76 91 207q0 144 -102 219q-82 62 -198 62q-148 0 -230 -86
q-73 -76 -73 -187z" />
    <glyph glyph-name="nine" unicode="9" horiz-adv-x="1141" 
d="M50 944q0 185 130 336q154 180 400 180q213 0 362 -145q150 -145 150 -358q0 -107 -39 -207q-41 -101 -112 -201l-388 -549h-237l448 633q72 96 102.5 166t30.5 154q0 124 -90 223q-96 104 -227 104q-133 0 -232 -96q-100 -98 -100 -264q0 -146 107 -234q106 -90 292 -90
l-110 -164q-271 0 -396 189q-91 135 -91 323z" />
    <glyph glyph-name="sf261.001" unicode="&#x3c;" horiz-adv-x="1229" 
d="M1108 140v-161l-984 441v139l984 437v-160l-785 -348z" />
    <glyph glyph-name="sf261.002" unicode="&#x3e;" horiz-adv-x="1229" 
d="M124 140l784 348l-784 348v160l984 -437v-139l-984 -441v161z" />
    <glyph glyph-name="a.001" horiz-adv-x="255" 
 />
    <glyph glyph-name="afii57457" unicode="&#x651;" 
d="M221 230q0 -218 -137 -218q-46 0 -82 26q-6 -44 -48 -78t-88 -34q-105 0 -105 144q0 27 11 65l18 63l29 5q0 -143 51 -143q55 0 86 81q12 32 31 128l24 8q29 -128 73 -128q89 0 89 193l30 13q18 -68 18 -125z" />
    <glyph glyph-name="sf258.002" unicode="&#x650;" 
d="M206 61q-38 -20 -91 -46t-112.5 -54.5t-122 -57t-119.5 -54.5q-8 -4 -12 -0.5t1 11.5q13 26 28 52t32 48l90 40t114 52t120 56.5t108 53.5q10 1 10 -3q0 -9 -1 -10q-2 -3 -12.5 -23t-32.5 -65z" />
    <glyph glyph-name="sf256.003" unicode="&#x64f;" 
d="M237 177l-10 -129q-44 23 -104 68q-151 -187 -259 -187q-27 0 -74 15q131 70 277 206q-81 60 -81 115q0 67 46.5 142t106.5 75q88 0 88 -113q0 -56 -41 -153l15 -13l13 -9q8 -5 23 -17zM146 292q0 67 -69 79l-15 -8q-8 -13 -10 -16q0 -45 87 -95q7 23 7 40z" />
    <glyph glyph-name="afii57454" unicode="&#x64e;" 
d="M206 61q-38 -20 -91 -46t-112.5 -54.5t-122 -57t-119.5 -54.5q-8 -4 -12 -0.5t1 11.5q13 26 28 52t32 48l90 40t114 52t120 56.5t108 53.5q10 1 10 -3q0 -9 -1 -10q-2 -3 -12.5 -23t-32.5 -65z" />
    <glyph glyph-name="afii57451" unicode="&#x64b;" 
d="M241 407q0 -84 -46 -111l-394 -227q0 52 17 78q20 31 67 58zM241 218q0 -87 -46 -113l-394 -223q0 51 19 79q17 23 65 51z" />
    <glyph glyph-name="afii57453" unicode="&#x64d;" 
d="M241 315q0 -84 -46 -111l-394 -227q0 52 17 78q20 31 67 58zM241 126q0 -87 -46 -113l-394 -223q0 51 19 79q17 23 65 51z" />
    <glyph glyph-name="bar" unicode="|" horiz-adv-x="457" 
d="M147 0v1436h160v-1436h-160z" />
    <glyph glyph-name="sf438.001" unicode="&#x652;" 
d="M-166 -147q-4 -1 -11 -2t-13 -1q-5 0 -5.5 3.5t9.5 12.5q84 54 133.5 85.5t76 48t34.5 22t9 8.5q-14 2 -28.5 4t-29.5 4q-28 3 -55.5 3.5t-53.5 -7.5q-8 -3 -14.5 -6t-11 -3.5t-6.5 3t0 14.5q7 20 14 38t14 37q4 10 13.5 15.5t21.5 8.5t25 4t25 1q33 0 69.5 -2t70.5 -5
q15 0 25 -9t0 -28q-18 -42 -43.5 -75t-53.5 -69q-23 -23 -42 -39.5t-49 -26.5q-28 -10 -63 -19.5t-61 -19.5z" />
    <glyph glyph-name="sf258.004" 
d="M10 -120q5 9 17.5 25t20.5 26q3 5 8.5 8.5t12.5 -1.5q4 -3 12.5 -9.5t17.5 -14t16.5 -15.5t10.5 -14q0 -2 -1 -3.5t-6 -7.5t-15.5 -19t-29.5 -38q-16 16 -32.5 31.5t-31.5 31.5zM-257 113q0 4 0.5 9.5t2.5 12.5q1 2 3 9t5 15.5t5 16t3 10.5q2 5 6.5 3.5t8.5 -6.5
q11 -18 24 -36.5t28 -34t33 -26.5t41 -15h21q18 0 50 7t91 33q-20 13 -41 23.5t-43 15t-44 1.5t-43 -16l-2 -2q-1 0 -1 2q0 13 3.5 25.5t8.5 25.5q11 28 24 41t45 13q7 0 17.5 -1t25 -5t35 -12t48.5 -21q18 -9 35.5 -20t37.5 -21.5t43 -19t52 -13.5q10 -4 8.5 -14.5
t-8.5 -22t-15 -22.5t-10 -16q-23 -2 -43.5 1t-43.5 3q-36 0 -71 -13.5t-70.5 -28t-71.5 -24.5t-73 -3q4 -30 6.5 -62t2.5 -63q0 -32 -5 -62t-17 -56q-2 -5 -6 -8t-4 5q2 75 -9.5 149t-46.5 143q-13 20 -24.5 39t-21.5 41z" />
    <glyph glyph-name="sf259.002" unicode="&#x611;" 
d="M-146 -258q-2 75 -11 148t-33 133q-8 17 -16 32.5t-12.5 32t-2.5 36t15 45.5q6 15 10.5 8t8.5 -18q7 -14 16.5 -31t22 -31.5t28 -24.5t35.5 -10q-5 32 0.5 64t21.5 58t41.5 42t60.5 16q21 0 39.5 -2t35.5 -9t34 -21t34 -37q-22 -2 -51 0t-55 2q-8 0 -15.5 -0.5
t-13.5 -1.5q-11 -1 -26 -3.5t-29 -8.5t-24 -16t-10 -25q0 -13 9.5 -25t23 -21.5t29 -15.5t26.5 -6q25 0 47 8t43 21q17 12 34.5 25.5t33.5 28.5q4 3 6 2.5t0 -6.5q-4 -30 -21.5 -57.5t-39.5 -47.5q-26 -23 -58 -39t-67 -24t-71 -7t-70 13q0 -29 1 -58t-1 -58t-8.5 -57
t-20.5 -54z" />
    <glyph glyph-name="sf260.001" unicode="&#x610;" 
d="M-17 98q-15 -14 -29 -29.5t-29 -32.5q7 -4 27 -4q22 0 54 3.5t61.5 8.5t51.5 10.5t25 10.5q-9 24 -28.5 39t-43 20t-47.5 -1t-42 -25zM-218 149q9 -14 19 -30t23 -31t27.5 -27.5t32.5 -18.5q15 15 35 42t46 54t57 47t69 21q22 0 42.5 -9t36.5 -24.5t25.5 -35.5t9.5 -42
q-5 -34 -21.5 -66t-49.5 -46q-67 -26 -139.5 -32.5t-144.5 11.5q-3 -26 -4.5 -52t-4 -51.5t-8 -50.5t-16.5 -50q-3 -8 -5 -6t0 7q1 52 0.5 93t-6 76.5t-16 68.5t-29.5 70q5 21 8 43t13 39z" />
    <glyph glyph-name="sf260.001" unicode="&#x6d6;" 
d="M-17 98q-15 -14 -29 -29.5t-29 -32.5q7 -4 27 -4q22 0 54 3.5t61.5 8.5t51.5 10.5t25 10.5q-9 24 -28.5 39t-43 20t-47.5 -1t-42 -25zM-218 149q9 -14 19 -30t23 -31t27.5 -27.5t32.5 -18.5q15 15 35 42t46 54t57 47t69 21q22 0 42.5 -9t36.5 -24.5t25.5 -35.5t9.5 -42
q-5 -34 -21.5 -66t-49.5 -46q-67 -26 -139.5 -32.5t-144.5 11.5q-3 -26 -4.5 -52t-4 -51.5t-8 -50.5t-16.5 -50q-3 -8 -5 -6t0 7q1 52 0.5 93t-6 76.5t-16 68.5t-29.5 70q5 21 8 43t13 39z" />
    <glyph glyph-name="sf277.007" unicode="&#x603;" horiz-adv-x="1342" 
d="M1085 179q-45 0 -95.5 -30t-110.5 -87q79 -11 159.5 -0.5t158.5 33.5q-9 15 -20 30.5t-25 27.5t-30.5 19.5t-36.5 6.5zM84 -6q68 6 137 9.5t137.5 9t136.5 16.5t134 32q38 13 61.5 34.5t35.5 38.5q5 6 10 6.5t3 -9.5q-3 -17 7 -28.5t26.5 -19t34.5 -11.5t32 -7
q33 44 71 82t77.5 65t79.5 39.5t77 6t69.5 -35t57.5 -84.5q-8 -23 -16 -44.5t-16 -43.5q-2 -6 -12.5 -14t-16.5 -10q-95 -41 -199.5 -50.5t-209.5 0.5q-8 -12 -17 -23.5t-17 -23.5q-6 -10 -12 -10q-5 0 -1 16q5 12 14 25t14 23q-29 8 -50.5 25t-26.5 40q-12 -26 -31.5 -44
t-43.5 -30t-50.5 -19t-52.5 -10q-112 -12 -222.5 -7.5t-219.5 40.5q-11 5 -14.5 9.5t13.5 6.5z" />
    <glyph glyph-name="sf263.002" unicode="&#x670;" 
d="M-84 126q5 19 11.5 35t17.5 42q7 15 20 2q30 -29 45 -78.5t17.5 -103.5t-7 -105.5t-27.5 -85.5q-8 -14 -12 -15.5t-1 17.5q5 39 6.5 77.5t-4.5 75.5t-21.5 72t-44.5 67z" />
    <glyph glyph-name="sf264.002" unicode="&#x66b;" horiz-adv-x="268" 
d="M121 318q-17 0 -21 -9t-10 -23q-3 -8 -9 -17.5t-15 -0.5q-11 14 -13.5 30.5t-2.5 32.5t4.5 36t13.5 37.5t23 29t34 11.5q25 0 42.5 -13t28.5 -32.5t16.5 -43t5.5 -43.5q-4 -85 -38 -161.5t-94 -136.5q-15 -15 -22 -12.5t7 23.5q16 27 32 54.5t29 56.5t21 59.5t8 62.5
q0 21 -7 40t-33 19z" />
    <glyph glyph-name="sf266.001" unicode="&#x22;" horiz-adv-x="680" 
d="M404 881v555h168v-555h-168zM113 881v555h168v-555h-168z" />
    <glyph glyph-name="sf267" unicode="&#x614;" 
d="M-469 45q66 1 130 0t126.5 1.5t124 10t121.5 25.5q35 13 60.5 30t51.5 44q4 4 4 0q-2 -21 10 -38t32.5 -28t46 -14.5t49.5 1.5q5 2 5.5 4t0.5 6q0 9 -3.5 17.5l-7 17t-7 16.5t-3.5 14q5 20 15.5 35.5t19.5 33.5q4 7 7.5 4.5t5.5 -7.5q10 -33 18 -58.5t10 -59.5
q-6 -26 -11.5 -47t-16 -36t-28 -23t-47.5 -8q-49 0 -80.5 21.5t-42.5 72.5q-11 -20 -25.5 -37t-37.5 -28q-60 -28 -128 -38.5t-138.5 -7.5t-140.5 19t-133 41q-13 6 -9 10.5t21 5.5z" />
    <glyph glyph-name="sf268.004" unicode="&#x600;" horiz-adv-x="1134" 
d="M353 212q55 78 125 136.5t151 82.5q9 4 12 1t3 -9t-2.5 -13t-4.5 -10q-22 -26 -53.5 -61.5t-63 -74.5t-59 -79t-41.5 -76q-19 -46 -7.5 -86.5t43.5 -75.5t78 -63.5t96 -50t98 -35.5t84 -20q14 -2 16.5 -7t0.5 -12t-6.5 -14.5t-4.5 -14.5q-19 -23 -33.5 -35t-28 -22
t-28 -22t-33.5 -34q-3 -8 -7.5 -12.5t-19.5 -4.5q-44 7 -93.5 22t-101.5 27.5t-104 16.5t-101 -11q-149 -46 -283 -78.5t-260 -52.5t-247 -29.5t-245 -9.5q-126 0 -254 8t-273 22q-101 9 -192 19t-179.5 25t-178.5 38.5t-188 59.5q-68 25 -101 39t-31 21t40 8.5t112 0.5
q142 -3 266.5 -5.5t236 -5t212.5 -3.5t196 -1q105 0 206 2t202.5 7.5t207.5 13.5t222.5 20.5t245.5 29.5t277 39q-3 48 1 100t15.5 103.5t30.5 99t46 86.5z" />
    <glyph glyph-name="sf275.001" unicode="&#x60f;" horiz-adv-x="786" 
d="M580 122q-53 -2 -97 -26.5t-81.5 -60.5t-68.5 -79t-58 -82q56 -41 118 -39t119.5 30.5t105 75.5t74.5 97q0 22 -11 38t-27.5 26.5t-36 15.5t-37.5 4zM178 -216q-34 62 -41.5 130.5t5.5 137t42 133t67 118.5q5 5 0 5q-19 16 -38 33.5t-19 42.5q0 16 5 28.5t12.5 23.5
t16.5 22t17 24q12 18 24.5 39.5t28.5 40t36 31t46 12.5q10 0 23 -3t23.5 -9t16.5 -14.5t3 -18.5q-3 -27 -14 -33t-25 -2.5t-28 11t-24 7.5q-21 0 -46 -16q-25 -15 -25 -41q0 -17 13 -29.5t31.5 -20t38 -9.5t33.5 2q30 17 59 31t58 29q18 11 21.5 8.5t-1 -10.5t-14.5 -19
t-20 -18q-24 -18 -47 -35l-46 -34q-65 -44 -117 -95.5t-79.5 -111t-25 -126t46.5 -141.5q33 53 73 113t87.5 110.5t103.5 83t121 31.5q25 0 46 -11.5t36.5 -30t24.5 -42t9 -47.5q-5 -58 -30 -119.5t-64 -116.5t-90.5 -98.5t-109 -64t-119 -13.5t-121.5 52q-23 -42 -47 -82.5
t-48 -85.5q-9 -16 -23 -32t-34 -17q9 19 24 48.5t32.5 63.5t36 69t35.5 66z" />
    <glyph glyph-name="afii57452" unicode="&#x64c;" 
d="M272 115l-3 -77q-78 46 -117 77q-82 -87 -144.5 -127.5t-169.5 -61.5l20 45l16 34l13 42q6 19 6 47q0 17 -7 34q-10 17 -23.5 26t-32.5 12q-52 0 -64 -100q-14 40 -14 68q0 53 28 95q31 48 81 48q93 0 88 -140l-2 -59l-3 -48q48 16 78 42q38 26 82 72q-88 53 -88 123
q0 60 50.5 125.5t109.5 65.5q35 0 61.5 -34t26.5 -70q0 -50 -43 -148q53 -41 51 -91zM173 302q0 68 -53 68q-9 0 -23 -7l-12 -22q0 -25 26 -49q6 -6 19 -15l38 -26z" />
    <glyph glyph-name="sf271.003" unicode="&#x602;" horiz-adv-x="984" 
d="M117 115q0 -22 13.5 -35.5t32.5 -21.5t40.5 -11.5t36.5 -4.5q0 17 -5 38t-14.5 39.5t-24 31t-32.5 12.5q-20 0 -33.5 -15t-13.5 -33zM72 72q-2 28 11.5 63.5t36.5 62.5t53.5 37t62.5 -13q28 -22 37.5 -59.5t9.5 -76.5q0 -14 -0.5 -26t-1.5 -23q64 -8 144 -7.5t163.5 5.5
t164.5 14t147 18q16 2 12.5 -6t-13.5 -12q-25 -19 -68 -35t-97 -28t-116 -21t-125.5 -13.5t-125 -5t-113.5 3.5q-27 3 -59 9.5t-59 20t-45.5 35.5t-18.5 57z" />
    <glyph glyph-name="sf271.003" unicode="&#x60e;" horiz-adv-x="984" 
d="M117 115q0 -22 13.5 -35.5t32.5 -21.5t40.5 -11.5t36.5 -4.5q0 17 -5 38t-14.5 39.5t-24 31t-32.5 12.5q-20 0 -33.5 -15t-13.5 -33zM72 72q-2 28 11.5 63.5t36.5 62.5t53.5 37t62.5 -13q28 -22 37.5 -59.5t9.5 -76.5q0 -14 -0.5 -26t-1.5 -23q64 -8 144 -7.5t163.5 5.5
t164.5 14t147 18q16 2 12.5 -6t-13.5 -12q-25 -19 -68 -35t-97 -28t-116 -21t-125.5 -13.5t-125 -5t-113.5 3.5q-27 3 -59 9.5t-59 20t-45.5 35.5t-18.5 57z" />
    <glyph glyph-name="sf261.003" unicode="&#x613;" 
d="M-174 346q6 15 20 30.5t25 27.5q2 2 3.5 3t2.5 2q1 0 9 -5q12 -9 30.5 -24t27.5 -28q-14 -17 -27.5 -34.5t-27.5 -33.5q-14 14 -29 28t-34 34zM-132 78q22 0 46.5 0.5t47.5 2.5t43 5t34 8q8 8 4 14q-23 45 -56.5 52t-75.5 -35l-8.5 -8.5l-14 -14t-13.5 -14.5t-7 -10z
M-88 -115q43 13 72.5 22t49 15.5t30.5 10.5t17 7q13 6 29.5 15.5t31 20.5t25.5 25t14 29q1 22 -4 41.5t-11.5 34t-12 24.5t-5.5 14q1 8 4.5 20.5t7.5 24.5t8 21.5t7 11.5q14 -8 23 -23.5t14 -34t7 -37t2 -31.5q0 -60 -24.5 -114t-72.5 -90q-51 -19 -102.5 -20.5t-105.5 5.5
q-3 0 -6 3t2 5zM-312 88q11 38 16.5 53.5t8.5 24.5q17 -17 32.5 -38t35.5 -34q20 -15 36.5 -8t31.5 24q13 17 28.5 40t35 43.5t43 35.5t53.5 17q19 0 36.5 -10t31 -25.5t22 -35t8.5 -38.5q-3 -17 -7 -35.5t-12.5 -35.5t-24.5 -31t-43 -21q-15 -6 -42.5 -12t-60 -9.5
t-66.5 -2.5t-63 9q8 -51 0.5 -105.5t-28.5 -102.5q2 81 -13.5 154.5t-58.5 142.5z" />
    <glyph glyph-name="sf272.001" unicode="&#x612;" 
d="M-111 -146q-4 0 -11.5 4t1.5 8q38 11 75 22.5t75 22.5q17 5 38 15.5t39 24.5t30 31.5t11 37.5q-1 28 -10.5 50.5t-23.5 47.5q3 17 8.5 32.5t12.5 32.5q4 8 6 9.5t10 -3.5q22 -22 29.5 -53t7.5 -61q0 -60 -25.5 -116t-73.5 -92q-49 -17 -98.5 -16t-100.5 3zM43 59
q-48 -11 -92.5 -26t-83 -41t-70 -68t-54.5 -108q-4 -7 -6 -8.5t-1 10.5q2 78 39 144.5t98 111.5q-23 10 -51 10.5t-51 -10.5q-8 -5 -10.5 -4t-0.5 11q4 19 8.5 36t13 29.5t22 19.5t34.5 7q5 0 12 -0.5t24 -3t48.5 -8.5t85.5 -17q13 -3 26 -3.5t27 -1.5q11 0 13 -3.5
t-3 -13.5q-5 -17 -11 -32.5t-17 -30.5z" />
    <glyph glyph-name="sf262.002" unicode="&#xa0;" horiz-adv-x="257" 
 />
    <glyph glyph-name="sf281" horiz-adv-x="2374" 
d="M1701 11q0 -1 3.5 -4.5t8.5 -8t10 -9.5t7 -8q12 -9 28.5 -18t32.5 -9q0 5 -2 10t-2 7q-17 20 -36.5 31t-49.5 11v-2zM1088 733q5 16 9 33.5t4 36.5q0 10 -0.5 18.5t-5.5 19.5q-2 8 -7 14t-5 14q0 5 -1 13.5t8 8.5q4 0 4 -2q0 -1 5 -3q13 -20 15 -38t2 -39q0 -20 -5 -42
t-21 -37zM990 799h-2h-3l-109 -66l-3 -7q9 -5 28.5 -6t30.5 -1h22q8 2 17 4.5t14 6.5l7 9v1v59h-2zM1225 35q13 -5 25.5 -5.5t23.5 -0.5q26 0 49 4t43 24v17q0 15 -1 25.5t-6 24.5q0 11 -5 11l-121 -95zM113 151q8 -5 19.5 -5.5t19.5 -0.5q26 0 54 5t44 25v17v20
q0 3 -0.5 8.5t-1.5 13.5q0 1 -1.5 9t-6.5 8q-7 0 -7 -1l-116 -93q-4 -4 -4 -6zM1138 1098q0 -17 0.5 -36.5t4.5 -36.5q1 -15 17 -15q11 0 15.5 7t5.5 16t0 18.5t-1 15.5q0 13 1 20t2 11t2 6t1 4q5 0 6.5 -14t4 -30.5t9 -30t21.5 -13.5h6q2 0 2 11q0 16 -2 31.5t-2 31.5
q0 3 0.5 9.5t3.5 10.5q7 -4 7 -6q2 -20 8 -39t6 -38q0 -16 -6.5 -30.5t-24.5 -14.5q-11 0 -19 6.5t-14 11.5q-14 -24 -37 -24q-9 0 -19 8t-10 19v66q0 3 1 4t3.5 6zM1049 499q-1 -13 -7 -26t-21 -18l-29 -16v-1l-166 -75v2q1 4 3.5 17t4.5 16v4h3l208 97h4zM425 321
q-5 0 -13 -4l-12 -6v5q0 5 0.5 10t4.5 13q6 10 13.5 18t17.5 8h110q0 -10 -1 -17.5t-5 -15.5q-7 -14 -20 -25.5t-28 -20.5t-31 -15.5t-30 -10.5q-11 -7 -27.5 -11t-30.5 -9h-4v4q4 5 9 8t6 4t10 6t20 11t21.5 12t15.5 9q5 5 17.5 10t17.5 12v5h-61zM1491 570
q-15 202 -21.5 301t-8.5 104v11v7q0 1 0.5 3.5l1.5 7.5q0 17 5.5 31.5t5.5 22.5q5 7 9 17t9 13l15 -216v-5q0 -3 1 -20.5t2.5 -37.5t3.5 -37.5t4 -21.5v-50v-49q-5 -22 -10 -43t-16 -41zM451 -152q0 8 1 9q0 2 1 3t1 3q1 1 4 5.5t6.5 9.5l7 10t5.5 7q4 5 9.5 11.5t13.5 16.5
h4l76 -60q4 0 10 6.5t11 14.5q1 2 5.5 8t10.5 13t11.5 13.5t8.5 9.5h4h6l74 -75l-3 -5q-32 -35 -44 -50t-12 -13l-6 2l-67 61h-6h-3h-2q-14 -20 -26 -35.5t-28 -27.5q-8 1 -20 9.5t-24 19t-20.5 20.5t-8.5 14zM1233 381q0 5 0.5 7.5t4.5 9.5q4 3 10.5 12t10.5 13q0 4 8 13.5
t12 14.5q3 6 6 6h2q3 -5 12.5 -13t20.5 -17t21 -16.5t13 -9.5q0 -5 2 -5t7 -5q4 5 8.5 10.5t4.5 7.5q3 1 9 7.5t12 15t11 16t5 9.5l6 4q5 0 5.5 -1t0.5 -3q2 -2 10.5 -10t11.5 -9q3 -4 10 -11.5t15.5 -15t16 -14.5t10.5 -9v-5q0 2 -0.5 0t-1.5 -7q-5 -9 -14 -17.5t-20 -19.5
q0 -4 -7.5 -11.5l-11.5 -11.5h-1h-4l-73 65h-7q-12 -20 -24.5 -37t-28.5 -31q-3 0 -3.5 -0.5t-0.5 3.5q-5 2 -17 10.5t-16 12.5q0 2 -8.5 9.5t-15.5 11.5q-2 4 -7 8.5t-5 12.5zM1990 -141q0 5 8 5q66 13 123 34.5t109 66.5q12 12 29.5 31t23.5 37v13q0 30 -12.5 52.5
t-26.5 45.5v10q0 1 2.5 8t6 17l7 20t5.5 17q3 2 5 5t4 3h2q26 -20 37 -55.5t11 -67.5q0 -17 -1.5 -31.5t-6.5 -34.5q-7 -23 -20.5 -51.5t-32.5 -55.5t-42.5 -48t-49.5 -28q-5 0 -14.5 -1t-20.5 -2t-21 -2t-14 -1h-17h-18q-2 0 -8 0.5t-12 0.5h-7q-8 0 -9 1h-8q-5 0 -9 4
q-4 0 -13.5 1t-9.5 6zM816 691q2 5 3 10l2 10q5 11 15.5 23t20.5 20q32 31 68.5 50t74.5 40l5 23l26 52q2 0 2 -1v-2q3 -8 4.5 -24.5t1.5 -30.5v-15v-9q0 -21 -0.5 -43.5t-0.5 -43.5q0 -19 1 -42t7 -43.5t18.5 -34t36.5 -13.5q42 0 60.5 29t18.5 65q0 38 -2.5 72t-2.5 72
q0 32 3.5 61.5t13.5 59.5q2 2 3 2q2 0 2 1v3q0 3 1 4l2 -6l10 -94v-3q0 -3 1.5 -18.5t4 -35l5 -39t4.5 -29.5q4 -24 9.5 -48t16 -42.5t28.5 -30t47 -11.5h17q5 0 7 2.5t4 5.5v8q0 28 -6 55t-13.5 54t-13.5 54t-6 54v3q3 6 5 18.5t4 26.5t3.5 26.5t3.5 18.5q0 2 3 12.5
t3 15.5q0 4 0.5 7t5.5 7q0 -4 2.5 -6.5t2.5 -4.5l38 -247q3 -11 3.5 -20t0.5 -16v-33v-21q-3 -20 -12 -39.5t-19 -35.5q-4 -8 -11.5 -12t-16 -6t-16.5 -2.5t-13 -0.5q-26 0 -52 11t-35 34q-5 16 -6.5 28t-8.5 23q-4 -20 -12.5 -40.5t-22 -37t-31.5 -26.5t-41 -10
q-34 0 -53 16.5t-28 41t-11 53.5t-2 54q-5 -5 -7 -8t-4 -8l-3 -2q-16 -20 -34.5 -26.5t-41.5 -6.5q-9 0 -24.5 1t-30.5 5t-26.5 12.5t-11.5 23.5zM1376 29q-5 -5 -6.5 -12t-6.5 -9q-23 -28 -46 -35.5t-57 -7.5q-8 0 -24 0.5t-32 4t-27.5 11.5t-11.5 22q0 20 15.5 41.5
t29.5 36.5q4 5 9.5 11t10.5 11.5t9.5 9.5t5.5 4l114 72v40l17 56q0 1 1.5 2t2.5 3h3q3 0 3 -8l33 -239q7 -48 33.5 -78.5t77.5 -30.5q13 0 28.5 1.5t30.5 6.5t27.5 14t18.5 23l25 50q18 37 52 60t75 35t84 16t79 4q-23 23 -44.5 40t-45 27.5t-50.5 15t-61 2.5q0 4 -3 6
q0 2 1 4t2 7l27 48q5 5 16 3.5t16 -1.5q31 0 65.5 -14.5t56.5 -30.5l146 -100q21 -15 40.5 -19.5t44.5 -14.5q5 0 5 -4q0 -5 -4.5 -15t-10.5 -20.5t-12.5 -18.5t-10.5 -8q-12 0 -25.5 3.5t-24.5 8.5l-160 18h-34h-40q-2 0 -7 -0.5t-11 -1t-11.5 -1t-6.5 -0.5q-2 0 -8 -1
t-13 -3q0 -5 4.5 -8.5t9.5 -8.5q22 -20 42.5 -47t20.5 -58q0 -14 -4 -27.5t-11.5 -24.5t-19.5 -18t-27 -7q-21 0 -42 6t-40.5 17t-35.5 26.5t-26 33.5h-4q-9 -24 -20.5 -44.5t-27.5 -35t-37.5 -22.5t-50.5 -8q-48 0 -84 26t-48 74q-5 17 -7.5 38.5t-2.5 42.5zM260 135
q-5 -1 -9 -12t-9 -17q-19 -21 -43.5 -26.5t-50.5 -5.5q-9 0 -25.5 1t-32.5 4.5t-28 11.5t-12 22q0 12 10.5 29t25 34.5t30 32t25.5 20.5l106 71v32l19 70l5 -4l31 -233q2 -16 6.5 -33t15.5 -36q9 -22 38 -39q1 -6 11 -6q4 -4 22 -11h4h42q4 3 10 3q32 11 54.5 30t45.5 41
q4 8 13.5 17.5t13.5 9.5h2q0 -15 -7 -26t-7 -27q0 -8 9 -14t21 -10t24.5 -5.5t19.5 -1.5q21 0 42 6t29 25l5 3q1 5 1.5 11.5t0.5 14.5v13l-35 332v4q0 32 12.5 64.5t22.5 64.5v3h3l1 -5l45 -388q1 -20 8 -41.5t20 -40t31 -30.5t41 -12v5q-15 25 -24 46.5t-9 47.5
q0 11 1.5 19t2.5 17v6q0 1 1.5 3t1.5 4v4q0 1 3 1v1v4v1h3v4v2q2 0 2 4q0 1 3 1q1 0 1 4q0 1 1 3t1 3l2 4q43 64 122 64q107 0 181 -78q4 -1 10 -8.5t6 -8.5l3 -5q0 -5 -4 -5h-4q-38 10 -73 15t-77 5h-36q-5 0 -15.5 -2t-15.5 -3q-3 0 -13.5 -2t-18.5 -3q-4 0 -12 -5.5
t-16 -10.5l-7 -2q-2 0 -2 -1q0 -2 -3 -2q-6 -2 -6 -8v-4q0 -5 2 -9l4 -8q9 -19 22 -36.5t29.5 -31t37 -22t43.5 -8.5t47 6.5t47 16t44.5 21t39.5 21.5h5v-3q-16 -25 -18 -34q-13 -23 -31 -39.5t-39 -28t-44 -19.5t-45 -14q-9 -2 -15.5 -3.5t-12.5 -1.5q-5 -5 -10 -5
q-14 -2 -27.5 -3.5t-28.5 -6.5h-14q-56 0 -97.5 21t-58.5 74h-3q-7 -15 -11.5 -30t-13.5 -29q-13 -27 -33 -42.5t-58 -15.5q-35 0 -60.5 15t-42.5 49h-3q-20 -34 -52 -58.5t-74 -24.5h-10q-1 0 -4 0.5t-8 1.5h-3h-2l-4 4q-7 0 -12.5 1t-13.5 6t-16 8t-8 8q-17 15 -30.5 35.5
t-18.5 46.5q-7 17 -8.5 38.5t-6.5 33.5z" />
    <glyph glyph-name="sf274.004" horiz-adv-x="2062" 
d="M1077 1014q-6 -11 -17.5 -20.5t-22.5 -9.5q-20 0 -26.5 15t-6.5 31v22v32q2 3 4 9.5t4 12.5l3 4q1 0 1 -5q5 -20 2.5 -35t2.5 -35q2 -17 19 -17q24 0 24 23v57q0 4 0.5 9.5t1 8t2.5 1t5 -10.5q0 -3 1.5 -10.5t3.5 -16.5t3.5 -16.5t1.5 -10.5q0 -10 11 -17.5t19 -7.5
q4 0 4 7q0 20 -3 42.5t-1 39.5q0 10 2 11.5t6 -8.5q4 -7 7.5 -19.5t5.5 -25t3.5 -23.5t1.5 -16q0 -16 -5.5 -28t-25.5 -12q-18 0 -31 19zM634 939q0 -4 8 -12t18.5 -16.5t20.5 -15t13 -6.5q0 8 -0.5 19.5t-3 22t-8 17.5t-15.5 7q-12 0 -17.5 -3.5t-15.5 -12.5zM972 776
q0 20 -3.5 39t-12.5 37v6v20h4q9 0 15.5 -11.5t10.5 -26.5t6 -29t2 -19q0 -20 -4.5 -38.5t-17.5 -35.5l-6 -8h-3q0 18 4.5 33.5t4.5 32.5zM739 696q13 -2 35 -4t42 0t34 10t12 25v10q0 8 -0.5 16.5t-0.5 16.5v11q0 6 -6 0q-28 -20 -56 -37t-60 -38q-8 -5 -6.5 -5.5t6.5 -4.5
zM729 863q0 -10 -1 -20t-9 -20q-5 4 -13.5 7t-12.5 4q-21 -32 -53 -60t-70 -53.5t-80 -47t-83 -39.5q31 28 66 53.5t70 51.5t68.5 53.5t61.5 59.5q1 1 -7 7.5t-18.5 17t-19.5 24t-9 28.5q0 13 3 26.5t9.5 24t17.5 17.5t27 7q18 0 25.5 -15t9 -35t-0.5 -40t-2 -30
q0 -5 3.5 -7t7 -3.5t7 -3.5t3.5 -7zM270 651q2 -7 9.5 -15t16.5 -15.5t16.5 -12.5t10.5 -6q3 3 3 15q0 16 -8 32.5t-22 16.5q-5 0 -13.5 -4.5t-12.5 -10.5zM1365 966q-4 32 4 63t25 56q5 -85 15.5 -182.5t18.5 -194.5q5 -39 0 -80.5t-21 -77.5zM867 675q-17 -32 -38 -42.5
t-56 -10.5q-11 0 -27.5 1t-31.5 4.5t-25.5 11t-10.5 20.5t7 26.5t17.5 25.5t22 22.5t21.5 18.5q31 22 59.5 38.5t61.5 32.5q6 8 3.5 13t1.5 14q1 3 4.5 10.5t7.5 16t7.5 16t4.5 10.5q5 8 5 0q3 -17 4 -35t1 -35v-71q0 -36 2.5 -71t13.5 -66q9 -19 26.5 -27.5t37 -7
t37.5 12.5t28 31q10 13 10.5 46.5t-2.5 70.5t-7.5 69t-4.5 43q4 30 10.5 60t14.5 60h1q8 -66 17.5 -130.5t22.5 -130.5q5 -23 12 -44t19 -36.5t29 -24t43 -6.5q6 0 19.5 2.5t13.5 14.5q-3 31 -11 61.5l-16 61t-14.5 62t-6.5 64.5q3 25 7.5 52.5t9.5 57.5q4 9 5 9q4 0 6 -9
q9 -73 24 -145t27 -147q10 -37 2 -74.5t-28 -70.5q-13 -9 -34.5 -13.5t-30.5 -4.5q-12 0 -27.5 2.5t-30.5 12t-27.5 29t-19.5 54.5q-5 -21 -15 -43.5t-24.5 -40.5t-33.5 -29.5t-43 -11.5q-33 0 -53 17.5t-30.5 43.5t-14 55.5t-3.5 53.5zM252 644q0 10 3.5 22t10 22.5
t17 17.5t24.5 7q18 -5 25.5 -18.5t9 -31.5t-0.5 -37.5t-3 -35.5q0 -1 8.5 -4t8.5 -13q0 -4 -2 -16.5t-2 -16.5q-7 -2 -15.5 1t-13.5 8q-20 -35 -60 -69t-83 -61t-79.5 -45t-49.5 -21q28 30 66 59t74.5 55.5t67 51t43.5 45.5q0 3 -7.5 9t-17 16t-17 23.5t-7.5 31.5zM1422 451
q1 2 3 3.5t6 -3.5q23 -17 41.5 -31.5t38.5 -32.5q3 -2 0 -14q-3 -8 -10 -18.5t-14.5 -21t-14.5 -19t-11 -12.5q-5 -5 -8 -3.5t-8 3.5q-17 11 -31 22.5t-30 26.5q-7 5 -11.5 11.5t2.5 16.5q11 17 23.5 37.5t23.5 34.5zM561 302q-15 -23 -28.5 -40t-24.5 -31q-6 -5 -11 0
q-17 9 -38.5 26t-36.5 34q-11 6 -2 8q11 20 25 41.5t25 38.5q4 3 5 3q3 0 6 -3q20 -17 40 -32t40 -31q4 -4 2.5 -7t-2.5 -7zM118 157q10 -1 26.5 -2.5t35.5 -1t39 5t38 15.5q5 5 10 10.5t5 8.5q0 17 -3 34.5t-6 32.5q0 16 -11 7q-33 -29 -67 -56t-67 -54zM1472 109
q12 -1 28 -2.5t36 -1.5q28 0 60.5 2.5t66.5 6t67 9t63 11.5q-21 48 -47.5 68.5t-68.5 20.5q-30 0 -58 -10t-54 -26.5t-49 -36.5t-44 -41zM1678 -98q82 13 146 47t118 91q19 22 24.5 42.5t1 41t-17 41t-28.5 41.5l24 79q4 11 11.5 7t10.5 -14q20 -24 32 -55.5t12 -65.5
q0 -45 -14.5 -85t-37.5 -78q-10 -16 -21.5 -33t-26 -32t-31 -25.5t-36.5 -13.5q-22 -5 -43 -6t-42 -1q-20 0 -41 1t-42 4q-20 2 -20 8q0 4 21 6zM1613 -40q0 -11 -9 -28.5t-21 -23.5q-54 -27 -107.5 -52.5t-110.5 -53.5q0 4 1 11.5t2.5 15t2.5 14t1 9.5zM1302 13
q1 -38 -16 -65.5t-44 -48t-59 -36t-60 -29.5q-30 -16 -58 -25t-58 -9q-57 -2 -92.5 26.5t-52 72.5t-16 95t15.5 94q-31 -8 -64 -21t-68 -32q-21 -8 -44 -9t-43.5 5.5t-37 21t-24.5 37.5q-20 -52 -59.5 -82t-93.5 -30q-41 0 -67.5 15t-43 39.5t-24 56t-9.5 65.5
q-20 -41 -55 -55.5t-78 -14.5q-9 0 -24.5 1t-31.5 4.5t-27.5 11.5t-11.5 22q0 31 46 85.5t156 120.5v40l20 66q1 3 3.5 5.5t3.5 -5.5q10 -63 21 -130t22 -127q7 -39 26.5 -64t45.5 -36.5t55.5 -9.5t56.5 15t48.5 37.5t31.5 59.5q5 -36 23.5 -54t43 -21.5t52.5 4t52 21.5
q-16 18 -31.5 40t-26 45.5t-13.5 48t6 47.5q12 28 23 51t26.5 39t38 25t58.5 9q48 -2 92.5 -24t75.5 -60q11 -15 5 -17t-22 6q-27 11 -60.5 14.5t-67.5 0t-64.5 -13.5t-51.5 -25q-10 -10 -15 -19t3 -24q27 -44 63.5 -64t77 -24t82.5 5.5t80 24.5q11 1 23 7.5t23 8.5
q-2 -6 -8 -18t-13 -24.5t-13 -23t-8 -13.5q-39 -15 -79 -27t-79 -26q-12 -32 -12 -64q0 -48 21 -86t59 -53q37 -15 83.5 -8t90.5 23.5t80.5 36.5t53.5 30q15 10 13 17.5t-18 11.5q-21 5 -52 8t-59 10.5t-47.5 22.5t-17.5 44q0 24 12.5 44t31.5 36.5t40 29.5t38 23
q28 16 50 16q35 0 54.5 -25.5t36.5 -63.5q14 -22 40.5 -30t52.5 -8q28 36 63 71t73 62t77 42.5t76 12.5t69.5 -28t56.5 -78q6 -11 5.5 -23t-5 -24.5t-10.5 -25t-11 -24.5q-8 -21 -32 -33t-44 -18q-150 -42 -360 -13q-10 -10 -22 -26.5t-20 -26.5q-5 -4 -8 -1t-1 8
q3 14 12.5 27t20.5 24q-21 7 -36.5 17.5t-27 24t-21 29.5t-19.5 35q-9 21 -22.5 28t-29.5 4t-33 -12.5t-33 -20.5q-11 -8 -19 -16t-10 -15.5t3.5 -15t21.5 -15.5q18 -9 43.5 -13.5t49 -10.5t40 -16t16.5 -30z" />
    <glyph glyph-name="sf276" horiz-adv-x="1171" 
d="M265 482q4 12 6.5 21t2.5 22q0 15 -3.5 28t-12.5 27v8q0 2 -0.5 9t3.5 7q6 0 11 -9t8.5 -20.5t5 -22t1.5 -14.5q0 -14 -3.5 -29.5t-13.5 -26.5q0 -3 -3 -3q-2 0 -2 1v1v1zM249 451q0 5 1 12t5 9l3 -39q0 -8 9 -8q10 0 13 8v30v12l1 1h2q1 0 3 -6q0 -3 2 -14.5t4 -14.5
q1 -4 4 -7.5t8 -3.5q3 0 3 3v3q0 8 -1.5 16t-1.5 17v5q0 5 2 7h1q2 0 4 -6t3.5 -13.5t2.5 -15t1 -10.5q0 -8 -3 -14.5t-13 -6.5q-5 0 -8 2t-7 5h-1q-2 -5 -7.5 -9t-11.5 -4q-7 0 -11.5 4t-6.5 9v29zM916 388h-16q-13 0 -22.5 -1.5t-20.5 -7.5v5q2 20 13.5 27t19.5 7h10
q7 0 15 0.5t17 0.5h14h5q4 0 4 -3q0 -12 -8 -23.5t-19.5 -21t-24.5 -16t-23 -9.5q-11 -4 -25 -9.5t-17 -5.5h-1q0 3 6 9q1 1 5.5 4t5.5 3l59 37zM97 230q1 -1 5 -2t5 -1q7 0 8 -1h15h16q13 2 21 5.5t8 18.5v7v10q0 14 -3 14h-2l-70 -48q-3 0 -3 -3zM614 224q5 -5 11 -7
q4 -2 10.5 -5t7.5 -5q2 0 13 -4t17 -5q2 -2 7 -2q0 3 -4.5 8.5t-9.5 11.5t-9.5 10.5l-5.5 5.5q-4 2 -5.5 2.5t-5.5 0.5q-8 0 -13 -3t-13 -8zM467 457v5q0 10 3.5 22t5.5 20q0 1 3 9q2 2 5 10h1v-25l25 -206q0 -2 0.5 -11t0.5 -16v-1v-2v-8v-6q0 -6 -1 -7q0 -2 -1 -8.5
t-2 -8.5q0 -5 -2 -15.5t-7 -13.5l-2 4zM180 217q-13 -23 -26.5 -29.5t-39.5 -6.5q-5 0 -14 0.5t-17.5 3t-15 7t-6.5 12.5q0 9 5.5 18t13 17.5t15.5 15.5t14 12q3 1 10 5t15.5 9.5t15.5 10t10 6.5q2 1 9 5t9 6l1.5 7.5t0.5 1.5q0 8 1 9q2 2 6 13t6 13q0 3 3 6l2 -1
q0 -1 0.5 -7.5t1.5 -15t1.5 -17t0.5 -14.5q0 -3 0.5 -13.5t0.5 -22.5t0.5 -22.5t0.5 -12.5q0 -12 2 -24t7 -22t14 -16.5t23 -6.5q27 0 38 18.5t11 41.5v12l-7 86v6q0 16 2 31t4 29q2 5 3 12t1 5q0 2 2 2q2 -2 2 -3v-1l22 -144q2 -12 6 -26t10.5 -26.5t17 -20.5t25.5 -8
q2 0 9 1t8 1q4 0 8 2t4 5v3q0 4 -1.5 12.5t-1.5 9.5l-23 86q-2 2 -3.5 12t-2.5 14v10v10q2 16 3.5 32.5t6.5 33.5q0 3 3 6q4 0 4 -4l34 -173q2 -9 3 -19.5t1 -20.5q0 -16 -6.5 -31t-13.5 -29q-10 -5 -20.5 -7t-20.5 -2q-17 0 -33 5.5t-21 22.5q0 2 -4 13t-4 13q-2 3 -3 3
q-2 -13 -7.5 -26.5t-14.5 -24t-21 -17.5t-27 -7q-20 0 -32.5 10.5t-19.5 26t-9 34t-2 34.5zM1055 85q0 1 -3 4v2q0 2 2 4q1 2 7.5 11t8.5 11q2 1 4.5 4t3.5 3h2q1 -1 12 -9.5t17 -13.5q2 -2 3.5 -3t1.5 -3t-3.5 -7.5t-8 -11.5t-9 -10.5t-6.5 -4.5q-4 0 -9 5q-3 2 -12 9.5
t-11 9.5zM390 58q109 52 162 78t55 27q4 3 4 4v2q-9 5 -20.5 12t-11.5 20q0 9 8 22.5t19.5 26t23.5 21.5t21 9t16.5 -5t14 -12t11.5 -14.5t10 -12.5q16 -18 33.5 -28t41.5 -10q18 0 34 3.5t32 12.5q7 3 11 10.5t11 7.5q0 -8 -3.5 -15t-3.5 -15q9 -3 19 -3h19q17 0 30.5 3.5
t24.5 17.5q2 3 4.5 9.5t7.5 6.5q3 0 3 -6q0 -8 -6 -15t-6 -16h2q1 -1 8 -1h8q14 0 26.5 1t23.5 6q3 3 6.5 8.5t7.5 11.5t7 10t5 4t3 -1v-5q0 -3 -0.5 -6.5t-0.5 -6.5q0 -8 10.5 -12t16.5 -6q11 -1 18.5 -2t17.5 -1h7v2v3q0 29 -11.5 58t-25.5 53q-1 3 -5.5 11t-10 17.5
t-10.5 18t-7 11.5q-2 5 -7.5 11.5t-10.5 11.5h-3h-3h-3h-3q-9 12 -16.5 24t-12.5 25v5q0 2 1 8.5t2.5 13t4.5 11.5t6 5q6 0 10.5 -4t6.5 -8q21 -25 42.5 -54.5t38 -62t27 -67t10.5 -68.5q0 -6 -0.5 -17t-2.5 -22.5t-6.5 -21t-11.5 -12.5h-14q-13 0 -32.5 2t-30.5 11
q-5 5 -7 9.5t-4 9.5q-16 -15 -32.5 -23t-39.5 -8q-7 0 -12 1.5t-11 3.5q-2 0 -4.5 2t-4.5 2q-16 -5 -30 -7t-29 -2q-11 0 -22.5 1.5t-18.5 12.5q-5 -2 -9.5 -5t-9.5 -4q-11 -6 -25 -6h-24q-20 0 -34.5 6.5t-28.5 20.5q-5 -7 -11.5 -18t-17.5 -11q-10 0 -20.5 4.5t-17.5 6.5
h-5q-2 -2 -5 -8t-3 -7q-2 -2 -3 -6q-30 -31 -69.5 -49.5t-82.5 -25.5q-8 -2 -20.5 -4l-25 -4t-22 -3t-10.5 -1h-5q2 4 5.5 4.5t5.5 1.5zM352 17v-2h-2v2h2zM127 126v-3q0 -7 -1 -15t-6 -13l-119 -88l5 30zM642 91v-3q0 -2 -0.5 -7t-1.5 -12l-1 -2l-86 -63l-3 -1v1v2
q1 2 2 11.5t2 11.5q0 -2 0.5 -1t1.5 6l86 61v-4zM1171 92l-6 -28l-87 -64v3v1q0 5 3 25l2 2z" />
    <glyph glyph-name="sf279" horiz-adv-x="6700" 
d="M4532 777q6 26 11 47.5t5 54.5q0 35 -7 65.5t-26 63.5q0 18 -1 24t-1 13t2 12.5t8 5.5q14 0 25 -20.5t18.5 -47.5t11.5 -53t4 -36q0 -33 -7.5 -69t-27.5 -60l-9 -6h-4q0 2 -2 2v4zM4495 638q0 19 -3.5 33t-3.5 34q0 13 5.5 27.5t14.5 18.5l7 -90q0 -18 23 -18q8 0 16 2
t8 16v73q0 20 7 27q4 0 7 -14q2 -4 4.5 -13.5t4.5 -20.5t3 -20.5t1 -13.5q6 -12 13 -17.5t13 -6.5t10 1t4 5v7q0 20 -2.5 38.5t-2.5 39.5v12q0 4 1 8.5t3 6.5q5 0 10 -13.5t8.5 -31.5t6 -35.5t2.5 -24.5q0 -21 -6 -37.5t-32 -16.5q-14 0 -20 7.5t-15 16.5h-1q-9 -14 -21 -24
t-26 -10t-26 9t-13 25zM6057 558h-36q-34 0 -56.5 -4t-48.5 -19v12q0 38 25.5 58t58.5 21q2 0 18 1t36 1q21 0 41 0.5t32 0.5h7q12 0 12 -4q0 -31 -18.5 -58.5t-45.5 -49.5t-57.5 -37.5t-53.5 -22.5q-15 -10 -40 -16.5t-59 -15.5h-3q0 4 6 8.5t7 8.5q6 2 16.5 10t13.5 8
l137 87zM4137 187q2 -2 8 -3.5t14 -4.5q1 0 6.5 -1t14.5 -3h35h39q14 3 26 6t21 8.5t14 15t5 26.5v20v24q0 11 -1 20.5t-6 9.5h-1q-172 -109 -172 -114q-3 -2 -3 -4zM5351 173q2 -9 12 -13t11 -4q3 -3 9.5 -6.5l13 -7t13 -6t9.5 -3.5q3 0 11 -2.5t18 -6t19.5 -7t15.5 -4.5
q1 -3 4 -4t4 -1h10q0 8 -9 21t-20 25.5t-21 22.5t-12 13q-9 5 -12.5 5.5t-16.5 0.5q-19 0 -29.5 -5t-29.5 -18zM5004 718v12q0 22 6.5 49.5t11.5 46.5q4 2 6.5 10.5t4.5 13.5q1 1 4 8t8 17h3v-63l57 -481v-63v-2v-3v-53q0 -1 -1.5 -6t-3 -11t-2.5 -11.5t-1 -8.5
q-2 -6 -4.5 -16t-4.5 -20t-4.5 -18.5t-5.5 -12.5l-6 10zM4328 156q-14 -28 -27.5 -45t-30.5 -26t-39 -12t-52 -3q-12 0 -33 1.5t-41.5 7.5t-35.5 17.5t-15 31.5t11.5 41t29 40.5t37 36.5t35.5 29q6 1 23 10.5t36.5 21.5t36.5 22.5t22 13.5q1 3 6.5 6.5t12.5 7t14 7.5t10 7
q4 7 4 20v11q0 1 0.5 4t1.5 8q3 3 6.5 11t7 18t7 19t6.5 14q3 7 11 12v-4q2 0 4.5 -14.5t5 -34.5t4 -41.5t1.5 -34.5v-164q2 -28 6.5 -57t16 -52.5t32 -38.5t53.5 -15q32 0 54.5 12t36.5 31.5t20.5 45t6.5 52.5v29l-24 200v14q0 36 7 71t12 71q0 6 4.5 17.5t4.5 18.5
q3 0 3 7q3 -3 4.5 -5t3.5 -6l52 -336q2 -28 10.5 -61.5t25 -62t41.5 -48t61 -19.5h21q6 0 11.5 2t7.5 3q9 0 18 4.5t9 12.5v5q-1 7 -2.5 16t-3 17t-3 14t-2.5 7l-51 199q0 3 -1.5 12t-4 19t-4 19.5t-1.5 14.5v22v22q5 42 9.5 80t12.5 74q2 6 2.5 9t5.5 10q3 0 4 -3t1 -5v-4
l81 -405q6 -22 7 -46.5t1 -45.5q0 -42 -15 -75.5t-32 -66.5q-21 -13 -45.5 -17t-51.5 -4q-17 0 -36 3t-36 10.5t-30 19t-19 29.5q-2 4 -5.5 13.5l-7 19t-6.5 18t-4 11.5q0 3 -5 8q-6 -32 -19 -63.5t-33 -56.5t-48 -40.5t-64 -15.5q-50 0 -79 24.5t-44.5 61t-20.5 80t-7 81.5
zM6383 -156q-3 3 -5.5 7t-4.5 4v3q0 5 1 6.5t1 5.5q3 3 9 10.5t12.5 15.5t11.5 15t6 10q2 2 7 5t12 11q4 0 13 -6t20 -14t22.5 -17t20.5 -16q5 -4 8.5 -5.5t3.5 -8.5q0 -6 -9 -19t-20.5 -26.5t-22.5 -24t-14 -10.5q-5 0 -9.5 4t-12.5 10q-2 2 -9.5 8t-16 12.5t-15.5 12
t-9 7.5zM5321 26q4 0 11 4t7 10v2q-10 6 -23 12.5t-25 15.5t-20.5 21t-8.5 29q0 21 19.5 52t47 60t58 49.5t52.5 20.5q21 0 37.5 -11.5t30 -27.5t25 -33t22.5 -28q41 -44 83 -66.5t99 -22.5q42 0 78.5 7t73.5 27q6 4 12 11l12 14t12.5 12.5t14.5 5.5q0 -20 -7.5 -36
t-7.5 -33q20 -6 40.5 -7t47.5 -1q40 0 71 9t58 39q2 4 5 11t6.5 14t8 11.5t10.5 4.5q5 0 5 -15q0 -10 -4.5 -18.5t-10 -17t-10 -17t-4.5 -18.5h5q4 -3 18 -3h20h2q30 0 59.5 2t55.5 15q10 4 18.5 17t16 26.5t14.5 24t13 10.5q4 0 4 -4l2 -9q0 -9 -1 -17t-1 -17
q0 -10 7.5 -16t18 -10.5t21 -7.5t16.5 -6q26 -1 45 -3t40 -2h12l4 4v8q0 69 -26.5 134t-59.5 122q-5 6 -16 25t-23 41t-23 42t-16 28q-8 12 -19 27.5t-23 28.5h-6q-7 -4 -18 -4q-4 0 -8 4q-17 25 -34 53t-33 60v14q0 5 2 19.5t6.5 29.5t11 27t15.5 12q15 0 23 -10.5
t17 -19.5q50 -59 99.5 -128t89 -145t64 -155.5t24.5 -159.5q0 -15 -1.5 -41.5t-7 -53.5t-16.5 -49t-29 -29h-28h-35q-29 0 -62 6.5t-52 25.5q-12 14 -14.5 22t-7.5 21q-40 -36 -79.5 -54.5t-95.5 -18.5q-14 0 -26 2.5t-26 9.5q-5 0 -9.5 6t-10.5 6q-66 -24 -136 -24
q-27 0 -52 3.5t-45 29.5q-13 -5 -22 -12.5t-22 -8.5q-27 -13 -58 -15t-59 -2q-45 0 -79 16t-68 50h-2q-4 -8 -10 -20.5t-14.5 -23.5t-19 -18t-22.5 -4q-23 6 -38.5 11t-28.5 4.5t-26 -9t-31 -29.5q-72 -77 -163 -118t-197 -58q-17 -5 -46.5 -10t-58.5 -9.5t-51 -7t-23 -2.5
h-12q3 8 11.5 9.5t15.5 3.5zM4730 -317v3v-3zM4208 -58v-9q0 -15 -2 -32.5t-14 -30.5l-282 -206l16 70zM5414 -142v-5q0 -13 -2 -28t-4 -15v-5l-203 -147l-6 -3v3v5q0 2 1 9.5t2 15.5t2 15.5t1 9.5q6 6 6 9v3l203 145v-12zM6650 -136l-8 -66l-209 -149v6v3q2 7 4.5 21
t5.5 34v6zM1560 914q7 0 7 -8h-7v8zM2951 416q10 -12 24 -25.5t30.5 -24t34.5 -17.5t36 -7h14q-7 16 -20.5 30t-30.5 23.5t-35.5 15t-34.5 5.5h-18zM600 332q12 -19 36 -28.5t44 -14.5q6 -3 16.5 -7t21 -7.5t19 -6t10.5 -2.5h9l-5 2q-5 17 -17.5 32.5t-24.5 31.5
q-6 2 -14 9.5t-13 12.5q-1 1 -6 1h-10q-21 0 -32 -4t-26 -16q-5 0 -8 -3zM3487 848q5 -9 6 -18t1 -19v-38q4 -11 9 -12.5t12 -1.5q21 0 21 17v72v12h4l2 -1q3 -12 5 -28t6 -30t12.5 -23.5t24.5 -9.5q0 24 -4 43.5t-4 39.5q0 6 2 9t3 7h3q4 0 4 -3l17 -73v-9q0 -21 -6 -34.5
t-24 -13.5q-9 0 -17 6.5t-13 10.5q-8 -12 -17.5 -20t-21.5 -8q-14 0 -24.5 11t-10.5 25v65q0 2 2.5 9.5t4.5 14.5h3zM2547 676q0 4 8 17t19 26.5t22 24t17 10.5h2l5 -3l70 -75q0 -14 -15 -27q-1 -3 -6 -9t-11 -13t-12.5 -13.5l-9.5 -9.5q-2 -2 -6.5 -2.5t-7.5 -0.5
q-8 0 -20.5 9t-24.5 21t-21 24.5t-9 20.5zM1847 617v9q0 7 4 19.5t9 17.5v7h4l7 -109q0 -11 8.5 -14.5t17.5 -3.5q25 0 27 23v83q0 2 3 12t3 15q0 3 1 3q7 0 7 -9l19 -80q2 -32 32 -32q12 0 15 3v9q0 26 -3.5 48.5t-6.5 38.5t-2 25t10 9q6 0 11 -17.5t9.5 -39.5t7 -42.5
t2.5 -25.5q0 -20 -9 -38t-34 -18q-23 0 -44 26q-8 -14 -21 -27t-34 -13q-19 0 -30 12t-13 32v77zM2930 -35h7v-8q0 -5 -1.5 -18.5t-6.5 -35.5l-4 -4l-280 -208h-4l4 8q0 8 1 21.5t3 37.5l8 4zM3281 917l400 152q-3 -2 -6 -9t-6 -15t-5.5 -14.5t-3.5 -7.5q-5 -2 -5.5 -5.5
t-6.5 -5.5l-396 -161v9zM1812 191v-4q-1 -2 -2.5 -9t-3 -14.5t-3 -14t-1.5 -7.5q-4 -7 -4 -10q0 -2 -2 -2l-369 -227h-7l15 62q0 7 6 7l364 215zM2755 585q13 44 20.5 82.5t7.5 86.5q0 42 -5.5 79t-22.5 70q-2 4 -7 11t-10 15t-9 16.5t-4 14.5v6q0 4 1 16.5t5 31.5q0 7 1 14
t6 7q10 0 18.5 -6t15 -14.5t11 -17.5t7.5 -16q25 -45 33.5 -92t8.5 -98q0 -26 -3 -56.5t-11.5 -60.5t-22 -56t-34.5 -42l-6 7v2zM1391 966q-29 0 -50 -2.5t-47 -17.5v11q0 41 37 66q6 3 17 7.5t20 5.5q39 0 81 1.5t80 1.5q0 -29 -15 -55t-39.5 -47.5t-55.5 -39t-62.5 -30.5
t-61 -21t-51.5 -11q0 3 6 7.5t9 5.5l168 109l6 9h-42zM1032 -9q0 4 9 18.5t20 29.5t21 27t13 12q6 0 16 -8.5t22 -18.5t24.5 -18.5t23.5 -8.5h3q17 15 29 34.5t27 30.5h4l8 -3l74 -48q2 -5 3.5 -8.5t1.5 -9.5q0 -3 -4 -10q-4 -3 -11 -11.5t-14 -17.5t-12 -16t-5 -8
q-9 -9 -11.5 -12t-7.5 -3q-6 0 -18 8t-25 18t-24 19.5t-14 12.5q-6 -5 -13.5 -17.5t-15.5 -25t-16.5 -22t-17.5 -9.5q-7 0 -22 7.5t-30 18t-26.5 21.5t-11.5 18zM3910 832v19q0 11 3 34.5t8.5 48t14 45t19.5 26.5v-64l57 -481v-121q0 -3 -1.5 -8.5t-3 -12.5t-2.5 -12.5
t-1 -8.5q0 -1 -1.5 -5.5t-3 -10.5t-3 -11t-1.5 -7q-3 -1 -3.5 -11t-5.5 -14l-4 -8l-3 13zM2386 835v24q0 3 2 15t5 29t7 35t9 34t10.5 26t10.5 10v-54l58 -529v-27v-35v-14v-10q0 -5 -2 -7q0 -9 -2 -24.5t-6 -31.5t-9 -29t-11 -17q-5 12 -6 24t1 21zM968 638l1064 307
q-1 -3 -3.5 -9.5t-5 -14t-4.5 -14t-2 -8.5t-9 -11q0 -2 -2 -2h-2l-1073 -328v3zM3158 -79q0 4 7 5l44 7q101 27 175 76.5t136 132.5q12 11 17.5 22t13.5 31v5q0 3 -9 8l-26 20t-23.5 22t-17 25.5t-6.5 29.5q0 47 13 72q0 5 2 12.5t10 12.5l4 -4q16 -22 30.5 -38.5t31 -27
t37 -16t48.5 -5.5q22 0 44 1t46 7l6 4v40l-30 371v66q0 4 -6.5 10.5l-14.5 14.5t-14.5 17t-6.5 18q0 12 3.5 21.5t8.5 17.5q3 3 8.5 12.5t12 20.5t13 21t9.5 13q0 5 5 5q0 -20 7 -34t18.5 -25t25.5 -21.5t29 -23.5q7 -4 7 -7v-9l-46 -86l26 -340v-83q0 -2 -4.5 -11t-4.5 -14
q-4 -14 -9.5 -31t-13.5 -33t-20 -28.5t-29 -18.5q-9 -5 -21 -5.5t-19 -0.5h-93l-1 -5q-9 -32 -28 -77t-46 -87t-60 -74.5t-69 -39.5q-6 0 -26 -1.5t-43 -4t-43.5 -4t-27.5 -1.5h-7h-15q-19 0 -36 3.5t-22 11.5zM1620 -103q0 1 19.5 6.5t45.5 12.5t51.5 14t37.5 12
q36 21 65 40t54.5 40.5t48.5 47t47 60.5q6 9 14 19.5t8 22.5q0 6 -12.5 13.5t-27.5 19.5t-27.5 30t-12.5 45v10q0 5 2 16t2 13q2 9 5.5 22.5t8.5 33.5q4 2 6 1t3 -1l20 -33q20 -26 49 -39.5t60 -13.5h81h9h2h5h7h2q6 1 12 3.5t6 3.5l-34 409v12v44q0 10 -6 17.5t-12.5 15
t-12.5 16t-6 22.5q0 29 17 54l34 50l7 9h3q0 -7 2 -20t2 -19l3 -3q14 -21 33.5 -34.5t40.5 -30.5q1 -1 1 -6q0 -11 -5.5 -23t-12.5 -25t-14.5 -25t-11.5 -22v-3q7 -91 15 -186.5t8 -192.5v-47q-1 -7 -3.5 -17t-6 -20.5t-7.5 -20.5t-7 -16q-9 -20 -20 -33t-25 -22
q-7 -5 -19.5 -7.5t-23.5 -2.5h-10h-34h-60q-20 -51 -42 -96t-55 -87q-26 -42 -55.5 -66.5t-77.5 -29.5q-6 0 -17.5 -1t-22.5 -2t-19.5 -2t-9.5 -1q-3 0 -17.5 -1t-28.5 -1q-18 0 -36.5 1t-38.5 7q-6 3 -6 7zM895 -190q-35 17 -69 36.5t-66 42.5t-54 42t-35 36
q-11 17 -18.5 26.5t-9.5 11.5l-15 20t-14 19q-3 5 -11.5 24t-20.5 45h-2q-76 -70 -162 -107t-186 -53q-17 -3 -44.5 -7.5t-54.5 -9t-48 -7.5t-24 -3h-11q5 5 12.5 9t12.5 7l481 230q10 10 24 15q4 0 14 13v2q-27 10 -50 27.5t-23 45.5q0 27 17 56.5t37 51.5q3 0 9 6t13 14.5
t14 16t12 10.5q11 14 27 24t32 10q20 0 35.5 -9t29 -22.5t25 -29t23.5 -28.5q38 -51 83 -79t108 -28q69 0 126 29t108 80h1l5 -2q2 -48 28.5 -64t71.5 -16q40 0 80 10.5t80 33.5l43 22q0 4 -9 10.5t-21.5 14t-25.5 15t-21 13.5q-44 24 -96 24q-18 0 -26.5 -5t-24.5 -5
q-7 0 -7 10q0 9 1 13t6 13q8 20 15 31.5t16.5 17.5t23.5 7.5t37 1.5q28 0 54.5 -8t52 -20.5t50.5 -27.5t50 -28q111 -60 236 -63v-4l-49 -76h-122q-5 0 -23 -3t-32 -3q-4 -7 -15 -7q-9 0 -12 -5l-154 -62q-27 -14 -58.5 -21t-60.5 -7q-48 0 -82.5 21t-46.5 69h-1v-2
q-24 -35 -49.5 -57.5t-55 -36.5t-64 -19.5t-75.5 -5.5q-45 0 -77.5 16.5t-67.5 49.5q-6 -10 -13 -21.5t-15.5 -21.5t-18 -16.5t-21.5 -6.5q-23 0 -49 7.5t-48 15.5h-2q-2 0 -6.5 -7.5t-10 -16.5t-10.5 -17t-7 -10q1 -6 8 -10t9 -10q63 -55 126 -100.5t140 -81.5q9 -6 29 -16
t41 -19t38 -16t20 -7l254 -63q4 -3 20.5 -5.5t36 -4.5t38.5 -4.5t29 -5.5h19q14 0 34.5 -0.5t41.5 -0.5h36h7l270 14q148 22 222 33.5t82 12.5q8 3 17.5 6t22.5 5q25 8 53.5 15.5t50.5 13.5l31 8l28 11q13 6 24 11t22 11l128 47q3 1 12 5.5t19.5 10t20.5 10.5t16 7
q4 3 13.5 9.5t20.5 13.5t20.5 13.5t13.5 9.5q16 13 34.5 27.5t26.5 34.5v20q0 34 -9.5 65.5t-30.5 63.5q-3 9 -8 17.5t-10.5 17t-9 18t-3.5 20.5q0 54 10 73q0 2 1 6t6 11h7q15 -22 29.5 -42.5t32 -36.5t39.5 -25.5t52 -9.5q27 0 49.5 8.5t33.5 41.5q15 28 25.5 59.5
t30.5 60.5q21 28 53.5 51.5t70 40.5t77 28.5t74.5 15.5q33 2 59 1.5t53 1.5q-24 25 -50.5 47.5t-56 40t-61.5 28t-67 10.5q-14 0 -25 -2.5t-22 -2.5h-11q0 5 -2.5 8t-2.5 5l5 11l31 61q6 13 22 13h29q48 0 95 -18t89 -45l220 -135q26 -20 56.5 -26.5t65.5 -20.5v-4
q0 -5 -1.5 -8t-3.5 -6l-30 -72q-2 -3 -12 -3h-7q-26 0 -46.5 7.5t-46.5 9.5q-14 2 -41 4t-55.5 4t-51.5 3.5t-28 1.5h-45q-45 0 -87.5 -2t-84.5 -13v-6v-6q20 -17 40.5 -35.5t36.5 -39.5t26 -45t10 -52q0 -16 -4 -33t-12 -31.5t-20.5 -25.5t-28.5 -15h-26q-86 0 -154 50
q-14 14 -25.5 29t-31.5 26q-11 -30 -22 -54.5t-26 -41t-36.5 -25.5t-53.5 -9q-9 0 -19 -1t-19 1h-2q-5 -35 -10.5 -65t-10.5 -63q-12 -35 -30.5 -64t-44.5 -50q-8 -5 -23.5 -14.5t-33 -20t-32.5 -20t-21 -13.5q-8 -6 -25.5 -16.5t-36.5 -20t-35 -17t-20 -7.5l-37 -15l-5 -4
q-2 0 -20 -7t-43 -16t-51.5 -18t-45.5 -13l-5 -1h-6q-5 -2 -13 -5.5t-20 -5.5l-34 -9q-5 0 -9.5 -1t-6.5 -1q-12 -5 -39 -10t-57 -10t-56 -9t-36 -7q-14 0 -48 -2.5t-72 -5.5t-73 -5.5t-52 -2.5q-4 -4 -37 -4h-53h-59q-34 0 -35 4q-12 0 -34.5 1.5t-45.5 3.5t-42 4.5
t-24 4.5l-229 46q-5 1 -14 3.5t-19 5t-19.5 4.5t-13.5 2q-8 3 -27.5 9.5t-41.5 14t-41.5 15.5t-26.5 13z" />
    <glyph glyph-name="sf263.003" unicode="&#x656;" 
d="M-80 119q5 19 11 35t17 42q8 14 21 2q30 -31 44.5 -79.5t17 -102t-7 -104.5t-27.5 -87q-8 -14 -11.5 -15.5t-1.5 17.5q5 40 6.5 78t-4.5 74.5t-21.5 71.5t-43.5 68z" />
    <glyph glyph-name="sf438.002" unicode="&#x654;" 
d="M-104 -4q5 14 10.5 31.5t12.5 35t15.5 33.5t20.5 28q24 20 57 27t63 -13q0 -5 -3 -14t-7.5 -19.5t-9 -20.5t-8.5 -17q-8 -8 -15 -3q-12 10 -25 12t-25 -1.5t-23.5 -11t-20.5 -16.5q4 -14 17 -23.5t29.5 -15t32.5 -8t26 -2.5q26 2 51.5 11t47.5 17q10 4 7 -4
q-9 -17 -18.5 -31.5t-23.5 -33.5q-27 -10 -55.5 -18.5t-55.5 -19.5t-50.5 -26.5t-39.5 -39.5q-2 -3 -6 -3.5t-2 4.5q3 21 12.5 40t21.5 40l-1 5q-14 11 -25.5 24t-9.5 33z" />
    <glyph glyph-name="sf438.003" unicode="&#x653;" 
d="M396 168q0 -66 -122 -134q-113 -63 -193 -63q-83 0 -129 18l-92 40q-10 0 -50 -63q-26 -41 -65 -66q35 106 128 244q110 -80 238 -80q81 0 180 50z" />
    <glyph glyph-name="sf438.004" unicode="&#x655;" 
d="M-94 -54q5 14 10.5 31.5t12.5 35t15.5 33.5t20.5 28q24 20 57 27t63 -13q0 -5 -3 -14t-7.5 -19.5t-9 -20.5t-8.5 -17q-8 -8 -15 -3q-12 10 -25 12t-25 -1.5t-23.5 -11t-20.5 -16.5q4 -14 17 -23.5t29.5 -15t32.5 -8t26 -2.5q26 2 51.5 11t47.5 17q10 4 7 -4
q-9 -17 -18.5 -31.5t-23.5 -33.5q-27 -10 -55.5 -18.5t-55.5 -19.5t-50.5 -26.5t-39.5 -39.5q-2 -3 -6 -3.5t-2 4.5q3 21 12.5 40t21.5 40l-1 5q-14 11 -25.5 24t-9.5 33z" />
    <glyph glyph-name="sf438.006" unicode="&#x615;" 
d="M66 7q-20 0 -39.5 -8.5t-37.5 -21t-34 -27t-28 -26.5q14 1 36 0.5t49 1t57.5 7.5t61.5 21q-6 27 -26.5 40.5t-38.5 12.5zM-109 -70q14 18 27 39.5t21 43.5q0 54 -2 106t0 106q-8 14 -17.5 24t-9.5 26q10 18 20.5 36t21.5 35q3 3 8 6t8 -3q6 -23 23.5 -43t36.5 -38
q-9 -26 -19.5 -46t-20.5 -33q1 -48 0 -77.5t-3 -46t-3.5 -23.5t-1.5 -10q24 21 53.5 41t63.5 20q48 0 77 -30t27 -78q-10 -14 -30 -43t-47 -53q-25 -15 -56.5 -25t-65 -16t-66.5 -8.5t-61 -2.5q-12 0 -19 1t-19 6.5t-35 18.5t-67 37q-13 6 -10.5 10t15.5 5q21 2 44.5 1.5
t44.5 -0.5q22 0 38.5 2.5t23.5 11.5z" />
    <glyph glyph-name="sf266.003" unicode="'" horiz-adv-x="457" 
d="M116 1024l73 412h176l-96 -412h-153z" />
    <glyph glyph-name="sf263.005" unicode="&#x657;" 
d="M60 1002q8 -1 14 -9t9.5 -18t5 -20.5t1.5 -16.5q-8 -25 -19 -51t-31 -43q-8 -11 -18.5 -14.5t-21.5 -1t-21 9t-17 15.5q-21 21 -31.5 49.5t-12.5 60t2.5 63t13.5 57.5q25 75 59.5 138.5t71.5 126.5q9 16 16.5 20t12.5 1q3 -3 3 -11t-8 -19q-21 -40 -43 -85.5t-35 -92.5
t-11.5 -93t27.5 -87q6 0 10 3.5t7.5 7l7 7t8.5 3.5z" />
    <glyph glyph-name="sf264.003" unicode="&#x658;" 
d="M-16 168q7 4 11 2.5t0 -10.5q-11 -35 -9.5 -73t26.5 -69q13 -17 30 -20t34.5 3t33.5 17.5t27 25.5q4 8 10.5 7t3.5 -10q-6 -27 -19.5 -56t-34 -54t-46 -42t-55.5 -20q-32 0 -50 16t-26 39.5t-9 51t2 50.5q6 42 24 78.5t47 63.5z" />
    <glyph glyph-name="sf265.006" unicode="&#x60d;" horiz-adv-x="216" 
d="M366 1307q0 -6 -4.5 -22.5t-12 -36t-16.5 -38t-19 -28.5q-10 -15 -19.5 -13t-19.5 12q-15 13 -30.5 12t-30 -10t-27.5 -22.5t-23 -23.5q-32 -32 -57.5 -71t-53.5 -75q-12 -16 -18.5 -12.5t-1.5 20.5q15 61 48 118.5t71 108.5q16 21 35 43t41 39t48 27t56 8q34 -7 34 -36z
" />
    <glyph glyph-name="sf256.005" unicode="&#x601;" horiz-adv-x="2476" 
d="M2322 248q10 17 25 41.5t23 41.5q4 8 11 7t7 -10q8 -37 13.5 -68t3.5 -67q1 -22 -9 -40q-2 -5 -7.5 -16l-11.5 -23t-12 -23t-8 -15q-2 -11 -10.5 -15.5t-19.5 -3.5q-23 6 -45.5 11t-45 11t-44 14.5t-42.5 21.5q-23 -20 -52 -26.5t-59 -6.5q-41 2 -67 20t-53 45
q-73 -40 -152 -70.5t-161.5 -49.5t-167.5 -24.5t-169 5.5q-39 5 -83 13.5t-84 25t-71.5 44.5t-45.5 72q-22 -30 -47 -55t-54.5 -43t-63 -26.5t-71.5 -5.5q-42 2 -75.5 21.5t-58.5 50t-41.5 68.5t-23.5 77q-5 17 -17 19.5t-24.5 -3t-23.5 -17t-14 -21.5q-12 -18 -27.5 -46.5
t-33 -58.5t-36.5 -59t-39 -49q-15 -20 -31.5 -25.5t-32.5 -1.5t-31 14.5t-28 23.5q-24 24 -42 54t-34 62.5t-30.5 64.5t-31.5 60q-5 10 -2.5 18t8.5 11t13 0t10 -15q22 -24 39 -51t35.5 -53t43 -49.5t62.5 -41.5q23 -4 43.5 15t39 48.5t35.5 63t33 58.5q11 17 29 38.5
t39 37.5q12 12 27.5 16.5t29.5 2t24.5 -13t12.5 -28.5q23 -69 60.5 -108.5t85 -52.5t101.5 0.5t109 50.5q23 17 45 37.5t46 31.5q-8 -32 6.5 -52t43.5 -37q95 -40 196.5 -53.5t204.5 -6.5t204.5 30.5t197.5 57.5q11 2 22 9.5t22 17t21 19t19 15.5q9 8 17.5 4t-0.5 -17
q-4 -5 -5 -12t-1 -14q-1 -14 9 -22.5t24 -13t29.5 -6t24.5 -1.5q33 -3 66 2t57 32q7 8 14 17t15 14q5 6 8 3t1 -10q-4 -10 -9 -21t-8 -19q26 -8 50 -17t50 -16q1 15 0 31t0 31zM810 506q3 4 11.5 14.5t18 22.5t18.5 22.5t13 14.5q9 10 17 2q23 -20 46.5 -37.5t38.5 -33.5
q5 -6 -1 -13q-14 -21 -29.5 -39t-30.5 -38q-6 -11 -17 -5q-8 4 -20.5 13.5t-25.5 20.5t-24 22t-16 18q-3 5 -2.5 8t3.5 8z" />
    <glyph glyph-name="sf266.005" unicode="&#x2018;" horiz-adv-x="353" 
d="M100 1397q38 8 76.5 6.5t76.5 -1.5l-26 -358l-102 16z" />
    <glyph glyph-name="sf266.005" unicode="&#x2019;" horiz-adv-x="353" 
d="M100 1397q38 8 76.5 6.5t76.5 -1.5l-26 -358l-102 16z" />
    <glyph glyph-name="sf266.004" unicode="&#x201c;" horiz-adv-x="542" 
d="M289 1403q38 7 75.5 6.5t77.5 -0.5l-26 -359l-103 16zM100 1395q13 2 32.5 3.5t41 2.5t42.5 1.5t37 0.5l-26 -340q-45 -11 -69 -15t-29 -4q-1 0 -1 1q-3 26 -5.5 54.5t-5.5 68t-7 94t-10 133.5z" />
    <glyph glyph-name="sf266.006" unicode="&#x201d;" horiz-adv-x="542" 
d="M289 1403q38 7 75.5 6.5t77.5 -0.5l-26 -359l-103 16zM100 1395q13 2 32.5 3.5t41 2.5t42.5 1.5t37 0.5l-26 -340q-45 -11 -69 -15t-29 -4q-1 0 -1 1q-3 26 -5.5 54.5t-5.5 68t-7 94t-10 133.5z" />
    <glyph glyph-name="sf256.009" unicode="{" horiz-adv-x="797" 
d="M68 479v121q74 0 117 66q42 63 42 143v375q0 102 56 178q55 74 149 74h164v-96h-100q-84 0 -84 -181v-362q0 -78 -29 -135q-41 -80 -131 -121q90 -41 125 -109q35 -67 35 -172v-395q0 -56 22 -93q21 -36 70 -36h92v-96h-172q-80 0 -135 67q-62 74 -62 196v312
q0 125 -36 191q-37 63 -123 73z" />
    <glyph glyph-name="sf256.010" unicode="}" horiz-adv-x="797" 
d="M727 479q-84 -10 -120 -75q-39 -66 -39 -189v-312q0 -120 -58 -192q-57 -71 -137 -71h-172v96h92q49 0 71.5 35.5t22.5 93.5l1 395q0 103 34.5 171.5t123.5 109.5q-91 41 -130 119q-28 58 -28 137l-1 363q0 96 -18 139q-19 41 -70 41h-98v96h164q92 0 147 -74
q56 -76 56 -178v-375q0 -80 43 -143q43 -66 116 -66v-121z" />
    <glyph glyph-name="sf261.004" unicode="^" horiz-adv-x="1229" 
d="M116 584l421 852h155l424 -848h-172l-327 672l-328 -676h-173z" />
    <glyph glyph-name="sf273.004" unicode="\" horiz-adv-x="568" 
d="M-129 1460h162l664 -1485h-160z" />
    <glyph glyph-name="sf266.007" unicode="`" horiz-adv-x="568" 
d="M281 1104l-269 293h224l184 -293h-139z" />
    <glyph glyph-name="sf438.007" unicode="~" horiz-adv-x="1229" 
d="M139 465q48 90 112.5 133t139.5 43q88 0 187 -43q225 -98 254 -98q53 0 98 35t86 112l72 -127q-61 -88 -113 -127q-65 -49 -151 -49q-50 0 -259 95q-100 45 -178 45q-55 0 -96 -39q-43 -39 -76 -109z" />
    <glyph glyph-name="three.001" unicode="&#x26;" horiz-adv-x="1368" 
d="M312 1041q-50 63 -72 110q-25 45 -25 92q0 84 47 134q58 59 174 59h580v-180h-559q-51 0 -57 -27q4 -14 12 -25q6 -12 16 -24l625 -799q20 35 33 78q9 43 9 90q0 82 -36 170q-39 88 -98 154l127 131q90 -84 143 -197q53 -115 53 -248q0 -108 -18 -166q-21 -57 -91 -178
l173 -210h-236l-71 76q-62 -45 -127 -68q-99 -33 -254 -33q-203 0 -365 114q-224 158 -224 465q0 166 85 310q65 112 156 172zM932 240l-500 649q-77 -45 -120 -139q-43 -96 -43 -187q0 -161 109.5 -282t281.5 -121q96 0 153 16q58 15 119 64z" />
    <glyph glyph-name="sf266.008" unicode="!" horiz-adv-x="457" 
d="M135 328v1108h172v-1108h-172zM97 105q0 53 34 88q35 35 84 35q58 0 97 -33q36 -33 36 -94q0 -54 -34 -88q-37 -38 -95 -38q-51 0 -86 38q-36 34 -36 92z" />
    <glyph glyph-name="sf257.002" unicode="&#x66a;" horiz-adv-x="880" 
d="M172 -150q-13 4 -38.5 13t-59.5 29l636 1118q18 -10 46.5 -21.5t51.5 -23.5q0 -1 -41 -73t-121 -212.5t-199 -348.5t-275 -481zM129 823q5 38 31 56.5t57 18.5q30 0 56 -18.5t29 -56.5q0 -60 0.5 -118.5t0.5 -118.5q-6 -39 -34 -57t-59 -16t-56 23.5t-25 61.5v225z
M590 296q5 38 31 56.5t57 18.5q30 0 56 -18.5t29 -56.5q0 -60 0.5 -118.5t0.5 -118.5q-6 -39 -34 -57t-59 -16t-56 23.5t-25 61.5v225z" />
    <glyph glyph-name="sf268.005" unicode="_" horiz-adv-x="1024" 
d="M-1 -152h1025v-104h-1025v104z" />
    <glyph glyph-name="sf268.006" unicode="&#x623;" horiz-adv-x="519" 
d="M457 539q2 -169 -14 -285q-26 -194 -101 -256l-35 1395q-1 28 70 127q21 30 70 93zM515 1861q-7 -9 -29 -53q-14 -28 -30 -28q-13 0 -38.5 1.5t-36.5 1.5q-100 1 -238 -109q-3 20 -3 32q0 18 4 31q11 35 11 43q0 21 -14 44q-33 54 -33 72q0 46 100 127t148 81
q25 0 44.5 -19t19.5 -44q0 -62 -32 -62q-14 0 -44 9.5t-45 9.5q-63 0 -98 -91q36 -26 50 -33q29 -14 109 -14h102q6 0 19 1h21h13z" />
    <glyph glyph-name="sf268.007" unicode="&#x625;" horiz-adv-x="648" 
d="M620 -415q-48 -59 -164 -91q-135 -38 -208 -96q-3 20 -3 32q0 18 4 31q11 35 11 43q0 21 -14 44q-33 54 -33 72q0 46 100 127t148 81q25 0 44.5 -19t19.5 -44q0 -62 -32 -62q-14 0 -44 9.5t-45 9.5q-63 0 -98 -91q36 -26 50 -33q29 -14 109 -14h64h39q26 1 39 1h13z
M457 539q2 -169 -14 -285q-26 -194 -101 -256l-35 1395q-1 28 70 127q21 30 70 93z" />
    <glyph glyph-name="sf304.011" unicode="&#x6e1;" 
d="M-189 1391q1 4 8.5 7t17 5t18.5 3.5t14 1.5q35 0 68 -15t63 -31q43 -27 77.5 -42.5t62 -24t48.5 -10.5t38 -2h3q2 0 3.5 -0.5t-1.5 -4.5q-8 -16 -18.5 -29.5t-21.5 -30.5q-2 -3 -17.5 -0.5t-40.5 3t-58.5 -3t-70.5 -18.5q-52 -24 -88 -37t-62 -18.5t-46 -6.5t-39 -1v92
q33 0 58.5 2t49.5 7.5t49 14.5t57 23q1 3 0 4q-19 11 -40.5 24t-44 22.5t-45 13.5t-43.5 -4q-4 -1 -6.5 -3t-5.5 -1q-8 2 -3 13q1 2 3 11.5t13 35.5z" />
    <glyph glyph-name="sf264.005" unicode="&#x66c;" horiz-adv-x="268" 
d="M121 318q-17 0 -21 -9t-10 -23q-3 -8 -9 -17.5t-15 -0.5q-11 14 -13.5 30.5t-2.5 32.5t4.5 36t13.5 37.5t23 29t34 11.5q25 0 42.5 -13t28.5 -32.5t16.5 -43t5.5 -43.5q-4 -85 -38 -161.5t-94 -136.5q-15 -15 -22 -12.5t7 23.5q16 27 32 54.5t29 56.5t21 59.5t8 62.5
q0 21 -7 40t-33 19z" />
    <glyph glyph-name="uni06F0" unicode="&#x6f0;" horiz-adv-x="1278" 
d="M813 654l-138 -246l-210 189l140 258z" />
    <glyph glyph-name="sf258" unicode="&#x6f1;" horiz-adv-x="395" 
d="M70 816q0 4 3 24.5t8.5 48t12.5 58.5t15.5 56t17.5 40.5t18 12.5q13 -2 33 -43.5t42 -110.5t44 -158.5t40 -187.5q12 -75 16.5 -163.5t1.5 -177t-14 -169.5t-30 -141q-3 -13 -8 -21t-12 -5q-8 10 -9.5 26t-1.5 22q-3 57 -3.5 111t-5.5 114q-3 30 -8 70.5t-12.5 87.5
t-17.5 98.5t-23 103.5q-24 81 -52.5 153.5t-54.5 150.5z" />
    <glyph glyph-name="sf259" unicode="&#x6f2;" horiz-adv-x="725" 
d="M292 -59q-4 -17 -10.5 -35t-13 -26t-11 -1.5t-4.5 39.5q-2 139 -17 270t-44 268q-1 6 -5.5 22t-9.5 34.5t-9.5 34.5t-6.5 22q-10 35 -23.5 71.5t-26 69t-23 58t-15.5 39.5q-3 12 -3 19q0 12 1 13q13 48 23.5 93.5t22.5 94.5q4 15 11.5 25t16.5 10q6 -2 9.5 -6t7.5 -10.5
t10.5 -17.5t19.5 -27q18 -26 38.5 -42t45.5 -25t55.5 -13.5t68.5 -7.5q53 4 89 15.5t62 30.5t45 45.5t39 61.5q10 6 15 1.5t5 -15.5q0 -8 -3 -23t-8 -38q-5 -17 -10 -33t-9 -28t-6.5 -18.5t-1.5 -3.5q-48 -120 -126.5 -181.5t-202.5 -67.5q9 -58 16.5 -105.5t12 -93.5
t6.5 -95.5t0 -111.5q-1 -44 -1.5 -82t-3 -74t-8.5 -74t-18 -82z" />
    <glyph glyph-name="sf260" unicode="&#x6f3;" horiz-adv-x="1084" 
d="M271 -98q-4 -11 -8 -17.5t-7 -4.5q-5 1 -3 9q3 117 -3.5 237t-26.5 238.5t-56.5 232.5t-93.5 218q-3 19 0 44t9.5 51t15 51.5t15.5 45.5q5 19 11 35.5t14.5 22.5t19.5 -0.5t26 -32.5q19 -32 36.5 -67t39.5 -64t51.5 -47.5t73.5 -18.5q26 0 53.5 9t53 23.5t46.5 33
t35 38.5q19 25 29 45t17 34.5t13 22.5t16 8q6 0 9 -9t5.5 -21t5.5 -24t9 -19q25 -33 53 -47t67 -14q54 0 88 15t61 50q2 2 12 17.5t18 29.5q7 13 14 24.5t12 17.5t8.5 4t3.5 -17q-3 -37 -13.5 -71t-21.5 -69q-24 -52 -56.5 -105.5t-85.5 -99.5q-56 -41 -131 -46
q-52 -2 -94.5 23.5t-63.5 67.5q-1 1 -5 1q-3 0 -4 -1q-21 -35 -42.5 -62.5t-46.5 -48.5t-55 -36t-68 -26q-5 -1 -5.5 -7t0.5 -7q5 -61 13.5 -124t6.5 -126q-3 -77 -8 -127.5t-12 -90t-16.5 -76t-21.5 -84.5q-1 -1 -3 -6.5t-4.5 -12t-4 -12.5t-1.5 -8z" />
    <glyph glyph-name="sf261" unicode="&#x6f4;" horiz-adv-x="993" 
d="M127 -108q2 157 -15.5 306t-41.5 300q1 -3 0.5 21t0.5 64t6 92.5t15.5 107.5t29.5 108.5t49.5 95t73 67t101.5 25.5q51 0 94.5 -23t80.5 -58t66 -78t50 -83l247 290q4 5 14 11.5t23 1.5q2 -3 0.5 -11t-13 -33.5t-35 -75t-65.5 -136.5q-37 -43 -74 -88t-71.5 -92.5
t-64 -98t-50.5 -103.5q-5 -11 -13 -17.5t-14 4.5q0 44 -1.5 72.5t-3.5 45.5t-4.5 25.5t-4.5 13.5q-21 51 -60.5 93t-88 63.5t-101.5 17.5t-100 -45q-2 -7 -1.5 -22t2.5 -26q28 -135 41 -263t13 -264q-3 -39 -7 -74t-9.5 -69t-13 -69t-17.5 -73q-1 -4 -3 -11.5t-5 -15
t-7.5 -13.5t-10.5 -6q-8 0 -10 10t-2 13z" />
    <glyph glyph-name="sf262" unicode="&#x6f5;" horiz-adv-x="1012" 
d="M208 304q0 -32 7 -63t22.5 -55t41 -39t63.5 -15q31 0 56 10t44.5 26.5t34.5 37t27 41.5q11 18 17.5 33.5t12.5 27.5t12.5 20t17.5 11q6 0 6 -7q2 -25 4.5 -53.5t15.5 -53t42 -41.5t83 -19q9 0 29 3.5t40.5 9.5t36 15.5t15.5 21.5q0 28 -16.5 66.5t-39 77t-45.5 72
t-36 51.5q-12 15 -36.5 46t-56 68.5t-67 78t-69.5 75.5q-3 2 -4.5 4t-6 -1t-13.5 -14t-26 -36t-44.5 -66.5t-68.5 -105.5q-15 -21 -32.5 -49.5t-32 -59t-24.5 -61.5t-10 -57zM70 91q1 52 16.5 108.5t38.5 110.5t49 104t48 90q8 14 27 44t46.5 70.5t61.5 88.5t72 97
q8 54 17.5 110.5t23.5 108.5q6 18 13.5 22.5t18.5 -2.5t27.5 -24.5t40.5 -42.5q23 -25 53.5 -62.5t65.5 -83.5t73.5 -99t77.5 -109q20 -32 38.5 -66.5t33 -71t22.5 -75t7 -77.5q-8 -35 -13 -57t-10 -43.5t-12.5 -49.5t-20.5 -75q-12 -42 -35.5 -79t-55.5 -65.5t-70.5 -45
t-80.5 -16.5q-40 0 -78.5 19.5t-64.5 51.5q-2 4 -6.5 11.5t-10 15.5t-10.5 14.5t-8 8.5q-17 -25 -38 -50.5t-45.5 -46t-53.5 -33.5t-62 -13q-41 0 -77 17.5t-62.5 47t-41.5 68t-15 79.5z" />
    <glyph glyph-name="sf263" unicode="&#x6f6;" horiz-adv-x="731" 
d="M490 46q0 49 1.5 108t3.5 122t3.5 126.5t1.5 121.5q0 40 -1 74t-3 63q-1 3 -4 0q-40 -24 -86.5 -35t-93 -9.5t-90 16.5t-77 42.5t-54 68.5t-21.5 95q0 58 15.5 111.5t33.5 107.5q3 5 6 14t11 9q7 -1 10 -8.5t6.5 -22t10 -36t21.5 -49.5q38 -48 93.5 -72.5t113.5 -24.5
q53 0 90 17t64 46t48.5 67.5t43.5 81.5q13 19 18.5 18.5t5.5 -31.5q-2 -20 -4 -34.5t-4.5 -31t-5 -38t-5.5 -55.5q-8 -167 -14.5 -284.5t-11.5 -197t-9.5 -127t-7.5 -73.5t-5.5 -36t-4.5 -15q-6 -21 -26 -81t-50 -154l-4 -12t-7.5 -19.5t-11.5 -19t-17 -10.5q-2 18 4.5 57
t12.5 110z" />
    <glyph glyph-name="sf264" unicode="&#x6f7;" horiz-adv-x="877" 
d="M73 215q3 15 17 44t31.5 61t34.5 61t27 44q3 5 8 12t9.5 13.5t8.5 12t5 6.5l186 186q85 79 154 144t120 116q13 8 18.5 4.5t5.5 -4.5q2 -6 -5 -24.5t-19 -36.5q-12 -21 -21.5 -36.5t-20.5 -34.5q-16 -26 -30.5 -48t-19.5 -24l-320 -307q-4 -1 -2.5 -4.5t2.5 -6.5
q10 -8 35 -24.5t52.5 -34t50.5 -31t29 -15.5q27 -18 70.5 -41.5t91.5 -47t93 -44.5t74 -33q4 -3 12 -7t16 -9.5t14.5 -12.5t6.5 -15q0 -1 -4 -7t-17.5 -26t-39 -57.5t-68.5 -101.5q-7 -10 -43 -1.5t-103 40t-166 87.5t-231 141q-8 4 -19.5 12t-22 17t-17 18t-3.5 15z" />
    <glyph glyph-name="sf265" unicode="&#x6f8;" horiz-adv-x="976" 
d="M790 -120q-1 -4 -4.5 -3.5t-3.5 3.5q-7 21 -13.5 41.5t-13.5 41.5q-70 179 -143.5 348t-148.5 341q-67 -146 -131 -285t-131 -284q-4 -11 -16 -27t-28.5 -34.5t-34.5 -37t-34 -34.5q-4 -2 -9 -5.5t-6 0.5q-3 3 1 18.5t10.5 34.5t14 36.5t11.5 23.5q18 39 40.5 89
t47 102.5t48.5 103.5t45 91q35 69 71 144t67 140.5t54 113t32 61.5q2 5 6.5 13.5t11 17t13.5 14.5t15 6t10.5 -4.5t5.5 -11.5q29 -85 66 -175.5t77.5 -183.5t83.5 -187t84 -187q9 -22 13.5 -49.5t3.5 -51.5q-29 -57 -57.5 -112t-57.5 -112z" />
    <glyph glyph-name="sf266" unicode="&#x6f9;" horiz-adv-x="698" 
d="M169 814q28 -48 81 -70.5t116 -24.5q28 -1 59.5 0.5t59.5 13.5q-4 40 -17 74.5t-33 60t-48 40t-62 14.5q-18 0 -43.5 -7.5t-49 -21t-41.5 -33t-22 -44.5v-2zM573 172q-11 -34 -24.5 -75.5t-28 -83.5t-29 -79.5t-26.5 -63.5q-1 -1 -4 -1q-2 2 -3 9.5t-0.5 25.5t2.5 49.5
t6 82t10.5 123t15.5 172.5v158q0 2 -3.5 1.5t-5.5 -1.5q-42 -11 -80.5 -20.5t-81.5 -9.5q-46 0 -91 13.5t-80.5 39.5t-57.5 65t-22 89q0 31 7.5 66.5t19 71.5t25.5 71t27 66q17 42 43 84t60 75.5t75.5 54.5t89.5 21t87 -24t66.5 -62t42.5 -84.5t15 -90.5v-214
q-12 -164 -26.5 -292t-28.5 -237z" />
    <glyph glyph-name="sf265.003" unicode="&#x6c2;" horiz-adv-x="692" 
d="M172 333q0 -42 17 -69t44.5 -42t61.5 -21t68 -6q9 0 35 4t52.5 10t47 13.5t19.5 15.5q-5 36 -26 79t-51 81t-66.5 63.5t-72.5 25.5q-24 0 -47.5 -15.5t-41.5 -38.5t-29 -50t-11 -50zM70 199q4 28 15.5 74.5t30 100.5t44 109t56.5 99t67.5 71.5t77.5 26.5q32 2 64.5 -14
t61.5 -44t54 -64.5t43 -75.5t28 -77.5t9 -70.5q-1 -4 -4.5 -14.5t-13 -35.5t-28 -68t-49.5 -111q-21 -26 -51 -45.5t-62 -32.5t-63 -19.5t-54 -6.5q-45 0 -85.5 12t-72 36.5t-50 61t-18.5 86.5v2zM219 1015q7 19 14.5 42t16.5 46t20.5 44t26.5 36q15 13 34 22.5t40 13
t42 -0.5t40 -17q0 -6 -4 -18t-9.5 -26t-11.5 -27t-11 -22q-10 -12 -19 -3q-15 12 -32 15t-33.5 -1.5t-31 -14t-26.5 -22.5q4 -18 21.5 -30.5t39 -19.5t43 -10t33.5 -3q33 2 66.5 13t63.5 23q14 5 8 -6q-12 -21 -24.5 -40.5t-29.5 -44.5q-35 -12 -72.5 -23t-72.5 -25.5
t-66 -35.5t-53 -52q-2 -4 -6.5 -4.5t-2.5 5.5q4 29 16 53.5t27 51.5q2 3 -1 7q-18 13 -33 30.5t-13 43.5z" />
    <glyph glyph-name="o.001" unicode="&#xa4;" horiz-adv-x="1153" 
d="M90 858l135 135l127 -128q51 33 110 51t125 18q63 0 120 -17t107 -48l114 114l135 -135l-112 -112q35 -52 53.5 -112.5t18.5 -126.5q0 -65 -18 -124t-50 -110l103 -103l-135 -135l-104 104q-51 -32 -109.5 -49.5t-122.5 -17.5q-67 0 -127.5 18.5t-111.5 52.5l-118 -118
l-135 135l120 120q-31 50 -47.5 107t-16.5 120q0 64 17.5 122.5t49.5 109.5zM333 495q0 -54 20 -100.5t55 -81.5t81.5 -55t100.5 -20t101 20t82 55t55 81.5t20 100.5t-20 101t-55 82t-82 55t-101 20t-100.5 -20t-81.5 -55t-55 -82t-20 -101z" />
    <glyph glyph-name="o.002" unicode="&#xa7;" horiz-adv-x="1032" 
d="M234 1015q-58 51 -96 117t-38 142q0 79 34.5 149t91 122t129.5 82.5t150 30.5q69 0 134.5 -23t119.5 -64t93 -98t56 -124q9 -37 10.5 -69.5t1.5 -64.5h-186v22q0 47 -17.5 90t-48.5 75.5t-73 51.5t-91 19q-35 0 -73 -14t-70.5 -38.5t-53.5 -57.5t-21 -71q0 -23 17 -54.5
t49 -66t77.5 -68.5t101.5 -60q45 -23 91 -47t88.5 -51.5t80 -59.5t65 -71t43.5 -85.5t16 -102.5q0 -81 -35 -146t-92 -111q-34 -26 -70 -45l9 -6q43 -28 80.5 -60.5t65 -71t43.5 -85t16 -102.5q0 -81 -35 -146t-92 -111t-130 -70.5t-148 -24.5q-63 0 -123 19t-111 54
t-90.5 84t-60.5 108l-9 26q-6 20 -11 55t-5 99h183v-20q0 -36 16 -78t46 -77.5t74 -59.5t100 -24q27 0 57 6q31 7 57 21.5t45.5 35.5t30.5 48t11 60q0 47 -20 79.5t-54 64.5l-1 1q-5 4 -17 12t-45.5 27t-96.5 53.5t-169 91.5q-44 22 -83 55t-69 74t-47.5 88t-17.5 97
q0 79 34 149t91 122q30 27 63 48q-19 10 -36.5 22.5t-34.5 26.5zM582 815q-38 21 -86 19.5t-91 -22t-72.5 -58.5t-29.5 -89q0 -45 46 -101q19 -24 43.5 -45t53 -35t61.5 -19.5t69 1.5q31 7 57 21.5t45.5 35.5t30.5 48t11 60q0 47 -20 79.5t-54 64.5l-1 1q-5 4 -17 12t-46 27
z" />
    <glyph glyph-name="o.003" unicode="&#xb6;" horiz-adv-x="1032" 
d="M403 -215v769q-4 -2 -5 -2q-62 0 -116 23.5t-94.5 64t-64 94.5t-23.5 116t23.5 116.5t64.5 95t96 64.5t119 25h464v-1366h-131v1235h-133v-1235h-200z" />
    <glyph glyph-name="o.004" unicode="&#x2022;" horiz-adv-x="1057" 
d="M80 485q0 93 35 174.5t96 142.5t142.5 96.5t174.5 35.5t174.5 -35.5t142.5 -96.5t96.5 -142.5t35.5 -174.5t-35.5 -174.5t-96.5 -142.5t-142.5 -96t-174.5 -35t-174.5 35t-142.5 96t-96 142.5t-35 174.5z" />
    <glyph glyph-name="degree" unicode="&#xb0;" horiz-adv-x="1057" 
d="M271 716q0 -54 20 -100.5t55 -81.5t81.5 -55t100.5 -20t101 20t82 55t55 81.5t20 100.5t-20 101t-55 82t-82 55t-101 20t-100.5 -20t-81.5 -55t-55 -82t-20 -101zM80 715q0 93 35 174.5t96 142.5t142.5 96.5t174.5 35.5t174.5 -35.5t142.5 -96.5t96.5 -142.5t35.5 -174.5
t-35.5 -174.5t-96.5 -142.5t-142.5 -96t-174.5 -35t-174.5 35t-142.5 96t-96 142.5t-35 174.5z" />
    <glyph glyph-name="periodcentered" unicode="&#xb7;" horiz-adv-x="682" 
d="M200 717h282v-305h-282v305z" />
    <glyph glyph-name="uni2219" unicode="&#x2219;" horiz-adv-x="682" 
d="M200 307h282v-305h-282v305z" />
    <glyph glyph-name="logicalnot" unicode="&#xac;" horiz-adv-x="1449" 
d="M100 1051l1249 1v-553h-194v358h-1055v194z" />
    <glyph glyph-name="uni200C" unicode="&#x200c;" 
d="M-62 1216h121v-1666h-121v1666z" />
    <glyph glyph-name="uni200D" unicode="&#x200d;" 
d="M-360 1459l86 86l275 -276l278 278l86 -86l-278 -278l250 -249l-86 -86l-192 192v-1490h-121v1484l-184 -184l-86 86l248 247zM0 1096h3l-2 1z" />
    <glyph glyph-name="uni200E" unicode="&#x200e;" 
d="M653 1148l-386 -386l-85 85l236 236h-359v-1543h-121v1663l487 1l-246 247l85 85z" />
    <glyph glyph-name="uni200F" unicode="&#x200f;" 
d="M-264 1536l85 -85l-246 -247l487 -1v-1663h-121v1543h-359l236 -236l-85 -85l-386 386z" />
    <glyph glyph-name="uni25CC" unicode="&#x25cc;" horiz-adv-x="1449" 
d="M786 44q54 8 104 28t95 54l138 -137q-75 -61 -160.5 -95.5t-176.5 -43.5v194zM658 -150q-89 9 -173.5 43t-156.5 94l139 139q44 -32 92 -52.5t99 -28.5v-195zM100 544q10 89 44 173.5t94 157.5l140 -140q-33 -44 -53 -92t-29 -99h-196zM297 409q8 -52 28 -101t53 -93
l-139 -139q-61 74 -95.5 158.5t-43.5 174.5h197zM1349 409q-9 -88 -42.5 -172t-92.5 -157l-139 138q64 88 79 191h195zM1153 544q-18 102 -82 188l140 140q60 -72 94 -156t43 -172h-195zM658 903q-101 -15 -188 -79l-141 140q73 60 157 93.5t172 42.5v-197zM789 1100
q90 -10 174.5 -44.5t158.5 -94.5l-138 -140q-45 33 -94 53.5t-101 28.5v197z" />
    <glyph glyph-name="C.001" unicode="&#x20ac;" horiz-adv-x="1015" 
d="M776 639v-106h-493v-102h493v-105h-493v-164q0 -18 15 -51t43.5 -65.5t69.5 -56t94 -23.5h7q37 0 73 13t65 35.5t50 54t29 69.5q3 23 5 52t2 59h179v-106q0 -22 -4 -46t-10 -43q-21 -62 -60.5 -112t-91.5 -85t-113.5 -54.5t-125.5 -19.5q-83 0 -155.5 29.5t-127.5 81.5
t-88.5 122.5t-38.5 151.5v158h-81v105h81v102h-81v106h81v121q0 23 1 45.5t7 45.5q16 69 53 127t89.5 100.5t117 66t136.5 23.5q69 0 130 -21t111.5 -58.5t88.5 -90.5t62 -116q11 -32 13.5 -66t2.5 -68v-24h-186q-1 1 -1 14q0 22 -1.5 38t-4.5 42v1q-9 37 -30 67t-50.5 51.5
t-65 33t-72.5 11.5q-43 0 -81 -16.5t-67 -44.5t-47.5 -65t-22.5 -78v-139h493z" />
    <glyph glyph-name="sf314.001" horiz-adv-x="1053" 
d="M530 163q51 -5 101.5 -2t98.5 10q0 7 -4 32t-9.5 51.5t-12 47.5t-11.5 21q-3 0 -10.5 -5.5t-24.5 -23t-48 -49t-80 -82.5zM443 164q7 2 13.5 5t16 10.5t24.5 22t38 39t56.5 61.5t80.5 90q-94 189 -195.5 317.5t-221.5 205.5q-2 -10 -4 -24t-6.5 -25.5t-12.5 -16.5t-23 4
q-48 42 -87 85.5t-69 100.5q-3 51 5 99t15 97q4 18 15.5 19.5t23.5 -6.5q95 -57 170.5 -111.5t136.5 -109t109 -111.5t89 -119.5t77 -132t72 -149.5q17 61 19.5 122.5t0 124t-4.5 125t5 125.5q-12 15 -23.5 30.5t-21 32t-15 34.5t-4.5 38q-3 13 9 38.5t30 53.5t38 54t32 40
q5 7 10.5 12t8.5 5q10 0 4 -21q-10 -32 -2.5 -58t25 -48.5t40 -42.5t43.5 -40q5 -13 0.5 -31t-14.5 -38t-23 -40.5t-24 -38.5t-18.5 -32t-6.5 -20q3 -89 0 -156t-9.5 -117t-16.5 -85t-21 -60.5t-22.5 -43t-21.5 -32.5q20 -51 25 -108.5t-1.5 -118t-23.5 -122t-41 -121.5
q-26 -1 -67 -2.5t-89 -4t-99.5 -4.5t-99.5 -4.5t-88 -4t-65 -2.5q-3 12 1 43t12.5 63.5t19.5 58.5t22 29q5 0 28 2t49 4.5t49 5t28 4.5zM-21 1322q-34 -15 -13 17q42 48 86.5 74.5t95.5 28.5q31 0 60 -10t60 -10q26 0 51.5 8t48.5 21t41.5 28.5t30.5 30.5q12 13 16.5 12.5
t-3.5 -18.5q-15 -31 -40.5 -61.5t-57.5 -54.5t-67.5 -39t-70.5 -15q-19 0 -34.5 4t-29.5 9t-27.5 9t-28.5 4q-36 0 -64.5 -12t-53.5 -26z" />
    <glyph glyph-name="sf325.002" horiz-adv-x="1300" 
d="M265 762q-23 21 -55.5 56.5t-63.5 77.5t-53 85t-23 78q6 45 6 77v54q0 21 3.5 31t17.5 10q28 -7 63.5 -30.5t73 -56.5t76 -72.5t73 -78t63.5 -73t48 -57.5q43 -54 75.5 -120t52 -137t24.5 -143t-7 -137q-32 -173 -42 4q-5 67 -24 128t-45 113t-56.5 95.5t-57.5 77
t-48.5 56t-29.5 32.5q1 -44 -4 -67t-14.5 -29.5t-23 1.5t-29.5 25zM768 919q-12 72 -4 143.5t24 143.5q1 3 4 16t7 26.5t9 24t10 9.5t10 -18t9 -58q14 -102 29.5 -208t36 -213t47.5 -214.5t63 -212.5q15 -44 38.5 -73.5t61 -48t91.5 -26t131 -6.5v-199q-17 -2 -32.5 -3.5
t-30.5 -1.5q-14 0 -28 0.5t-28 1.5q-69 4 -121 18.5t-90 47.5t-64 89t-42 143q-2 11 -5 32.5t-6.5 45t-7 44.5t-7.5 31q-16 -76 -45.5 -147t-71.5 -131t-96.5 -106t-121.5 -72q-6 -4 -23 -9.5t-56.5 -14.5t-107 -23t-175.5 -35q-13 -2 -30 -3.5t-26 0t-4 8t37 21.5
q55 24 113.5 52t117.5 62t116 73.5t109 86.5q30 27 68.5 67t71.5 87t54 96.5t16 96.5q-4 38 -15.5 122.5t-35.5 234.5zM-17 1323q-34 -15 -13 17q42 48 86.5 74.5t95.5 28.5q31 0 60 -10t60 -10q26 0 51.5 8t48.5 21t41.5 28.5t30.5 30.5q12 13 16.5 12.5t-3.5 -18.5
q-15 -31 -40.5 -61.5t-57.5 -54.5t-67.5 -39t-70.5 -15q-19 0 -34.5 4t-29.5 9t-27.5 9t-28.5 4q-36 0 -64.5 -12t-53.5 -26z" />
  </font>
</defs>
</svg>
