<?xml version="1.0" standalone="no"?>
<!DOCTYPE svg PUBLIC "-//W3C//DTD SVG 1.1//EN" "http://www.w3.org/Graphics/SVG/1.1/DTD/svg11.dtd" >
<svg xmlns="http://www.w3.org/2000/svg" xmlns:xlink="http://www.w3.org/1999/xlink" version="1.1">
<metadata></metadata>
<defs>
<font id="microsoft_uighurregular" horiz-adv-x="680" >
<font-face units-per-em="2048" ascent="1400" descent="-648" />
<missing-glyph horiz-adv-x="300" />
<glyph horiz-adv-x="682" />
<glyph horiz-adv-x="0" />
<glyph unicode="&#xd;" horiz-adv-x="413" />
<glyph unicode=" "  horiz-adv-x="300" />
<glyph unicode="&#x09;" horiz-adv-x="300" />
<glyph unicode="&#xa0;" horiz-adv-x="300" />
<glyph unicode="!" horiz-adv-x="388" d="M119 929l174 16l7 -7q-12 -72 -26 -161.5t-22.5 -182t-17 -180.5t-13.5 -158l-48 -5q-3 66 -9.5 156.5t-12.5 185.5t-16 184t-16 152zM120 63q0 33 22.5 56.5t54.5 23.5t54.5 -23.5t22.5 -56.5t-22.5 -56.5t-54.5 -23.5t-54.5 23.5t-22.5 56.5z" />
<glyph unicode="&#x22;" horiz-adv-x="572" d="M100 996l129 25l9 -9q-5 -17 -13.5 -60.5t-17.5 -95.5t-16.5 -103.5t-10.5 -85.5l-42 -5zM344 996l129 25l9 -9q-5 -17 -13.5 -60.5t-17.5 -95.5t-16.5 -103.5t-10.5 -85.5l-42 -5z" />
<glyph unicode="#" d="M14 242l19 64l133 2l47 209l-137 -2l20 64l132 2l49 214l66 5l-50 -218l155 3l48 210l65 5l-49 -214l138 3l-20 -65l-133 -3l-47 -208l137 3l-19 -65l-133 -3l-49 -213l-65 -5l50 217l-155 -2l-48 -210l-65 -5l48 214zM231 309l155 3l47 208l-155 -2z" />
<glyph unicode="$" d="M58 215l49 12q13 -38 29.5 -70.5t40 -56.5t55 -40t73.5 -20v328q-43 19 -90 41.5t-80.5 52.5t-54 68t-20.5 93q0 49 18.5 87.5t51 66t76 44t104.5 22.5v86l62 6v-90q57 -1 106 -6.5t106 -19.5q-5 -50 -6.5 -90.5t-1.5 -87.5l-46 -5q-12 69 -52 108.5t-106 45.5v-302 q43 -19 86 -39.5t82.5 -53.5t61 -72t21.5 -96q0 -51 -20 -92t-53.5 -71.5t-78.5 -50t-104 -26.5v-92l-62 -6v95q-54 0 -102.5 10.5t-111.5 26.5q-6 51 -13 97t-20 97zM182 664q0 -20 10 -44t27 -43t40.5 -34.5t50.5 -28.5v274q-57 -5 -92.5 -36t-35.5 -88zM367 41 q58 8 96 46t38 98q0 32 -10.5 52t-28.5 40t-42.5 35.5t-52.5 29.5v-301z" />
<glyph unicode="%" horiz-adv-x="1260" d="M100 677q0 67 15.5 121.5t46 93t75 59t103.5 20.5q56 0 96.5 -21.5t66.5 -57.5t38 -83.5t12 -99.5q0 -138 -61.5 -216.5t-179.5 -78.5q-56 0 -96.5 21t-66 57t-37.5 84t-12 101zM205 705q0 -71 12.5 -118.5t31 -76t40.5 -40.5t42 -12q24 0 45 10.5t37 36t25.5 67.5 t9.5 106q0 71 -12 118.5t-30.5 76t-41 40.5t-42.5 12q-23 0 -44 -10.5t-37.5 -36t-26 -67.5t-9.5 -106zM280 -21l648 1032l52 -32l-652 -1033zM707 252q0 67 15.5 121.5t46 93t75 59t103.5 20.5q56 0 96.5 -21.5t66.5 -57.5t38 -83.5t12 -99.5q0 -138 -61.5 -216.5 t-179.5 -78.5q-56 0 -96.5 21t-66 57t-37.5 84t-12 101zM812 280q0 -71 12.5 -118.5t31 -76t40.5 -40.5t42 -12q24 0 45 10.5t37 36t25.5 67.5t9.5 106q0 71 -12 118.5t-30.5 76t-41 40.5t-42.5 12q-23 0 -44 -10.5t-37.5 -36t-26 -67.5t-9.5 -106z" />
<glyph unicode="&#x26;" horiz-adv-x="1045" d="M63 214q0 48 16 93t44.5 84t67 72.5t73.5 53.5q-45 43 -72.5 90t-27.5 110q0 49 19.5 88.5t52.5 68t76 44t100 15.5q46 0 82.5 -12.5t64.5 -35.5t45 -56t17 -75q0 -41 -15 -73t-40 -58t-58.5 -47.5t-67.5 -43.5q65 -51 128.5 -107.5t111.5 -107.5q36 49 60.5 94t24.5 76 q0 15 -8 24t-20.5 13.5t-29 6.5t-34.5 3l2 36q29 0 70.5 -1t86.5 -1q19 0 41 0.5t43 0.5q22 0 41 0.5t33 0.5l3 -36q-42 -4 -70 -11.5t-47.5 -20t-34.5 -31.5t-32 -48q-22 -37 -44.5 -75t-47.5 -70q32 -36 51.5 -60t39.5 -49q23 -29 45 -53t47 -40.5t50.5 -27t64.5 -11.5 l-2 -38q-16 0 -38 0.5t-45 0.5q-22 0 -42 0.5t-32 0.5q-27 0 -50.5 -1t-38.5 -1q-32 57 -65 100t-63 76q-28 -36 -63.5 -73t-75.5 -64t-85 -43t-97 -16q-60 0 -105 18.5t-78.5 51t-52.5 75t-19 90.5zM193 268q0 -36 13 -71.5t38 -62t58 -42t68 -15.5q36 0 70 12t64.5 31.5 t56.5 45.5t41 50q-35 39 -66.5 69t-67.5 61.5t-77 65.5t-85 68q-51 -32 -82 -88.5t-31 -123.5zM286 749q0 -33 9 -59t24.5 -48.5t36 -41.5t36.5 -32q46 22 78.5 63.5t32.5 104.5q0 27 -7.5 53t-23 45.5t-37 31.5t-47.5 12q-21 0 -42 -11t-34 -28t-19.5 -41t-6.5 -49z" />
<glyph unicode="'" horiz-adv-x="328" d="M100 996l129 25l9 -9q-5 -17 -13.5 -60.5t-17.5 -95.5t-16.5 -103.5t-10.5 -85.5l-42 -5z" />
<glyph unicode="(" horiz-adv-x="499" d="M37 386q0 96 20.5 190.5t61 181.5t104 163.5t149.5 136.5l29 -36q-65 -61 -111.5 -132t-74 -152t-41.5 -169.5t-14 -181.5t14 -181.5t41.5 -169t74 -151t111.5 -131.5l-29 -36q-85 60 -148 135.5t-104 161.5t-62 180t-21 191z" />
<glyph unicode=")" horiz-adv-x="499" d="M97 -245q64 61 109.5 131.5t75 151.5t43.5 169.5t14 181.5q0 94 -14 182t-43.5 168t-75 150.5t-109.5 131.5l30 37q82 -60 146.5 -135.5t105.5 -162t62 -180.5t21 -190t-20.5 -190.5t-61 -181.5t-105.5 -163.5t-148 -136.5z" />
<glyph unicode="*" horiz-adv-x="527" d="M84 716l152 71l-152 72l29 51l139 -97l-15 167h59l-15 -167l137 97l31 -51l-153 -72l153 -71l-31 -51l-137 97l15 -168h-59l15 168l-139 -97z" />
<glyph unicode="+" d="M61 262l5 66h241v252l66 5v-257h247l-5 -66h-242v-252l-66 -5v257h-246z" />
<glyph unicode="," horiz-adv-x="342" d="M81 -143q45 20 74 53.5t29 85.5q0 35 -19.5 57.5t-57.5 24.5q-11 6 -16 18t-5 23q0 29 21.5 45.5t48.5 16.5q28 0 50 -13.5t37 -34.5t23 -46.5t8 -50.5q0 -39 -14.5 -72.5t-39 -61.5t-56.5 -49t-67 -34z" />
<glyph unicode="-" horiz-adv-x="435" d="M30 270l11 78h366l2 -55l-369 -33z" />
<glyph unicode="." horiz-adv-x="342" d="M90 67q0 17 6.5 32.5t17.5 27t25.5 18t31.5 6.5q16 0 31 -6.5t26 -18t17.5 -27t6.5 -32.5t-6.5 -32.5t-17.5 -27t-26 -18t-31 -6.5q-17 0 -31.5 6.5t-25.5 18t-17.5 27t-6.5 32.5z" />
<glyph unicode="/" horiz-adv-x="540" d="M64 -130l315 1131l69 -11l-316 -1131z" />
<glyph unicode="0" horiz-adv-x="713" d="M71 392q0 106 23 191t66.5 144t105 91t145.5 32q81 0 136.5 -33.5t92 -90t55 -131.5t18.5 -157q0 -106 -23 -191t-66 -144t-104.5 -91t-145.5 -32q-81 0 -136.5 33.5t-92.5 90t-55.5 131t-18.5 157.5zM231 436q0 -114 16 -191t41 -123.5t57 -66t54 -19.5q30 0 58.5 17 t50.5 58t33.5 110.5t11.5 172.5q0 113 -17 190.5t-40.5 124t-53.5 66t-56 19.5t-57 -17t-52 -58t-33.5 -110.5t-12.5 -172.5z" />
<glyph unicode="1" horiz-adv-x="589" d="M87 740q91 22 178.5 49t165.5 56l10 -8q-3 -25 -5 -53t-3 -55.5t-1.5 -52t-0.5 -42.5v-500q0 -24 3.5 -41.5t20 -29.5t50 -18t93.5 -7l-2 -38q-32 0 -88.5 1t-152.5 1q-95 0 -155.5 -1t-88.5 -1l-3 36q65 1 102 7t55 22t22.5 44.5t4.5 73.5v542l-197 -29z" />
<glyph unicode="2" horiz-adv-x="748" d="M65 25l226 221q43 42 80 83.5t66.5 84t46.5 86.5t17 91q0 35 -11.5 67.5t-34 56t-54.5 36.5t-61 13q-38 0 -66.5 -13.5t-50 -37t-34 -56.5t-15.5 -72l-46 4q0 54 -1 99t-5 87q57 36 115 55.5t124 19.5q58 0 109.5 -12t93.5 -39t68 -70.5t26 -106.5q0 -62 -21.5 -109 t-56.5 -87t-78.5 -76.5t-86.5 -76.5l-204 -181l310 7q18 0 32.5 3t28 14.5t27 33t29.5 59.5l42 -9q-6 -23 -12 -49.5t-11 -53t-8.5 -53t-4.5 -44.5h-88q-47 0 -90.5 0.5t-77.5 0.5h-137q-36 0 -61 -0.5t-42 -0.5h-72z" />
<glyph unicode="3" horiz-adv-x="646" d="M12 -61q0 26 20 48t48 28q36 -40 88.5 -62.5t106.5 -22.5q42 0 78.5 17t62 47t39 72t13.5 88q0 52 -15.5 89t-44 62.5t-68 38t-81.5 12.5q-23 0 -48 -2t-45 -10l-9 49q49 11 98.5 26.5t84.5 40.5t59 64.5t24 97.5q0 34 -11.5 60t-32.5 45t-46.5 29.5t-55.5 10.5 q-38 0 -68 -12t-53 -34t-36.5 -53.5t-16.5 -70.5l-46 3v50q0 35 -1.5 64.5t-4.5 61.5q62 35 119 54.5t126 19.5q54 0 102.5 -10.5t88 -34.5t64.5 -61.5t25 -91.5q0 -21 -6.5 -44t-24 -49.5t-49 -56t-87.5 -66.5q48 -11 87 -29.5t69.5 -45t49 -63t18.5 -83.5q0 -70 -19 -124 t-51.5 -94.5t-76.5 -68.5t-94 -45.5t-103.5 -25t-112.5 -7.5q-27 0 -56 3.5t-53 13.5t-39.5 27.5t-15.5 44.5z" />
<glyph unicode="4" horiz-adv-x="664" d="M0 190q60 76 127 163t132 174.5t124.5 170t105.5 150.5l66 -13q-5 -45 -8 -90.5t-3 -99.5v-409l118 2l12 -12l-5 -79h-125v-183q-29 -2 -69 -4t-74 -5q2 42 2.5 67.5t0.5 42.5v83l-387 -1zM103 229l301 5v391q-69 -81 -145.5 -184t-155.5 -212z" />
<glyph unicode="5" horiz-adv-x="636" d="M30 -58q0 12 6 24t15.5 21.5t22 16.5t25.5 10h5q16 -20 38 -35.5t47 -26.5t51.5 -17t52.5 -6q40 0 77 19.5t61.5 52.5t37 75.5t12.5 85.5q0 53 -17.5 99t-48.5 78.5t-77 49.5t-96 17q-38 0 -80 -9.5t-75 -21.5l-18 13q12 104 34.5 215.5t47.5 226.5q49 0 92.5 -1t95.5 -1 q29 0 63.5 0.5t73 1t71 1t57.5 0.5l-21 -119l-389 8q-19 -70 -31 -135.5t-23 -139.5q46 24 94 35.5t93 11.5q72 0 128.5 -19.5t98 -55.5t65.5 -87.5t24 -115.5q0 -91 -35.5 -159.5t-96 -114t-140.5 -68t-177 -22.5q-23 0 -51.5 3t-53.5 12t-42 26.5t-17 50.5z" />
<glyph unicode="6" horiz-adv-x="693" d="M53 341q0 133 39.5 240.5t112.5 187.5t178.5 133t231.5 77l14 -51q-95 -23 -161.5 -64t-117.5 -98t-82 -127.5t-45 -149.5q51 36 104.5 53.5t91.5 17.5q70 0 121 -17.5t86.5 -50.5t54.5 -81.5t19 -109.5q0 -68 -22 -126.5t-63.5 -102t-101.5 -68t-143 -24.5 q-88 0 -146.5 29.5t-96.5 79.5t-56 115.5t-18 136.5zM216 373q0 -47 7.5 -106t29.5 -110t59 -86t89 -35q32 0 59 17t45 46.5t26 68t8 83.5t-11.5 86t-33.5 69.5t-56.5 44.5t-77.5 16q-23 0 -65.5 -9t-74.5 -23q-2 -16 -3 -30.5t-1 -31.5z" />
<glyph unicode="7" horiz-adv-x="654" d="M58 830h586l10 -21q-54 -98 -109 -201.5t-102 -210t-81.5 -215.5t-50.5 -218q-19 -2 -62.5 -3t-82.5 -5l-8 11q14 57 39.5 122t59.5 132.5t71.5 136t72 131t68.5 121.5t61 108q7 15 -10 15l-281 -4q-30 0 -52 -3t-38 -16.5t-26.5 -41.5t-16.5 -77l-43 2v70q0 31 -1 57.5 t-2 53.5t-2 56z" />
<glyph unicode="8" horiz-adv-x="683" d="M40 207q0 27 7.5 57.5t30.5 64.5t68.5 72.5t104.5 73.5q-29 16 -69 44.5t-64.5 57t-37 60.5t-12.5 76q0 58 20.5 107t60.5 84.5t98 55.5t139 20q78 0 129.5 -19t84.5 -49t48.5 -68.5t15.5 -77.5q0 -23 -8 -51t-30.5 -60t-66.5 -66t-98 -65q37 -15 81.5 -42.5t75 -59 t48 -72.5t17.5 -87q0 -63 -25.5 -115t-70 -89.5t-108.5 -58t-135 -20.5q-66 0 -124.5 14t-97.5 42t-60.5 70.5t-21.5 100.5zM202 242q0 -43 11.5 -80.5t35 -65.5t58 -43.5t76.5 -15.5q30 0 58 13t49 37t30 55.5t9 66.5q0 49 -18.5 86t-50 63.5t-73.5 48t-82 40.5 q-44 -32 -73.5 -83.5t-29.5 -121.5zM220 766q0 -43 12.5 -74.5t36.5 -55t57 -42t78 -42.5q46 26 75 75.5t29 119.5q0 46 -12.5 80t-33.5 56t-46.5 31.5t-52.5 9.5q-28 0 -57 -12.5t-48.5 -33.5t-28.5 -50t-9 -62z" />
<glyph unicode="9" horiz-adv-x="659" d="M19 534q0 68 21 126t61.5 100t100.5 66t145 24q90 0 149 -31t96.5 -83t54.5 -119t17 -139q0 -141 -40 -250t-112.5 -187.5t-178.5 -126t-231 -63.5l-12 55q187 39 285 143.5t121 280.5q-52 -33 -104.5 -47t-88.5 -14q-69 0 -120 18t-87.5 51.5t-56.5 83t-20 112.5z M178 589q0 -46 11.5 -88t32 -72.5t56.5 -48t79 -17.5q19 0 57 4t87 21l1 8v45q0 33 -3 72.5t-10.5 77t-20 74.5t-33.5 65.5t-51.5 46t-65.5 17.5q-34 0 -60.5 -15.5t-43.5 -42.5t-26.5 -64.5t-9.5 -82.5z" />
<glyph unicode=":" horiz-adv-x="342" d="M120 67q0 17 6.5 32.5t17.5 27t25.5 18t31.5 6.5q16 0 31 -6.5t26 -18t17.5 -27t6.5 -32.5t-6.5 -32.5t-17.5 -27t-26 -18t-31 -6.5q-17 0 -31.5 6.5t-25.5 18t-17.5 27t-6.5 32.5zM120 509q0 17 6.5 32.5t17.5 27t25.5 18t31.5 6.5q16 0 31 -6.5t26 -18t17.5 -27 t6.5 -32.5t-6.5 -32.5t-17.5 -27t-26 -18t-31 -6.5q-17 0 -31.5 6.5t-25.5 18t-17.5 27t-6.5 32.5z" />
<glyph unicode=";" horiz-adv-x="342" d="M106 -143q45 20 74 53.5t29 85.5q0 35 -19.5 57.5t-57.5 24.5q-11 6 -16 18t-5 23q0 29 21.5 45.5t48.5 16.5q28 0 50 -13.5t37 -34.5t23 -46.5t8 -50.5q0 -39 -14.5 -72.5t-39 -61.5t-56.5 -49t-67 -34zM120 509q0 17 6.5 32.5t17.5 27t25.5 18t31.5 6.5q16 0 31 -6.5 t26 -18t17.5 -27t6.5 -32.5t-6.5 -32.5t-17.5 -27t-26 -18t-31 -6.5q-17 0 -31.5 6.5t-25.5 18t-17.5 27t-6.5 32.5z" />
<glyph unicode="&#x3c;" d="M60 259l5 51l545 271l7 -64l-486 -233l486 -231l-7 -64z" />
<glyph unicode="=" d="M60 153l5 66h555l-5 -66h-555zM60 372l5 66h555l-5 -66h-555z" />
<glyph unicode="&#x3e;" d="M63 53l486 233l-486 231l7 64l550 -269l-5 -52l-545 -271z" />
<glyph unicode="?" horiz-adv-x="544" d="M110 841q0 25 17 43.5t41 31.5t50.5 19.5t45.5 6.5q40 0 87.5 -21t82.5 -54.5t57.5 -75t22.5 -82.5q0 -32 -13.5 -57t-34.5 -46.5t-46 -40t-47 -36.5q-42 -32 -66.5 -59t-24.5 -65q0 -36 15 -64.5t40 -57.5l-32 -34q-79 56 -116 99.5t-37 89.5q0 29 13 53.5t33.5 46 t44.5 40t46 35.5q21 17 40.5 31.5t33.5 30t22.5 36t8.5 49.5q0 38 -27 62.5t-59 24.5q-45 0 -74 -21t-55 -57h-6q-21 8 -42 28.5t-21 43.5zM188 63q0 33 22.5 56.5t54.5 23.5t54.5 -23.5t22.5 -56.5t-22.5 -56.5t-54.5 -23.5t-54.5 23.5t-22.5 56.5z" />
<glyph unicode="@" horiz-adv-x="1197" d="M67 207q0 87 21.5 168t61 151.5t96 128.5t126.5 99.5t152 64t173 22.5q93 0 173 -32t138.5 -88.5t91.5 -134t33 -168.5q0 -79 -26 -157t-75 -139.5t-118.5 -100t-156.5 -38.5q-38 0 -64.5 17.5t-27.5 59.5q0 18 2 47t5 63q-88 -100 -144 -144t-78 -44t-41 14t-33.5 37 t-22.5 52.5t-8 61.5q0 74 22 135t56.5 109.5t76 84.5t80.5 60t71 35.5t46 11.5q16 0 33.5 -3.5t34.5 -8.5q37 5 73 12l4 -7q-18 -58 -33.5 -124t-27 -130t-18 -121t-6.5 -97q0 -32 15 -44t37 -12q64 0 111 36.5t78 91.5t46.5 118t15.5 116q0 81 -28.5 149t-79.5 116.5 t-121 76t-153 27.5q-117 0 -212 -42t-162 -114.5t-103.5 -169.5t-36.5 -206q0 -104 33.5 -194t95 -157t149 -105.5t195.5 -38.5q60 0 123.5 14t115.5 43l21 -39q-66 -45 -147 -66t-162 -21q-116 0 -211.5 40t-164.5 110.5t-107 166.5t-38 207zM453 199q0 -12 1.5 -29 t6.5 -32t14 -26t25 -11q20 0 66 32.5t112 104.5q10 66 23 129.5t28 118.5q-9 6 -29.5 11.5t-40.5 5.5q-42 0 -79 -28t-65.5 -72t-45 -98t-16.5 -106z" />
<glyph unicode="A" horiz-adv-x="962" d="M-32 37q39 3 64 9.5t43.5 23t35 47t38.5 81.5l287 677q12 30 20.5 52.5t18.5 48.5l70 8q11 -48 23.5 -88t23.5 -73l225 -652q15 -44 27 -69t28 -37.5t40.5 -17.5t63.5 -8l-3 -38q-42 0 -92.5 1t-108.5 1q-56 0 -99 -1t-85 -1l-3 36q56 4 80 12.5t24 34.5q0 11 -4 25.5 t-10 32.5l-71 212h-317l-77 -196q-20 -57 -20 -72q0 -24 24.5 -34t87.5 -13l-3 -38q-37 0 -83 1t-93 1q-37 0 -76.5 -1t-76.5 -1zM310 414h275l-125 376z" />
<glyph unicode="B" horiz-adv-x="847" d="M47 36q42 3 68 9t40 20t18.5 37.5t4.5 61.5v669q0 24 -4 40t-17.5 26.5t-39.5 15.5t-69 7l2 38q16 0 38 -0.5t46 -0.5q25 0 54.5 -0.5t54.5 -0.5q40 0 90 5t105 5q63 0 122.5 -11.5t106 -38t72.5 -69.5t26 -106q0 -52 -18 -88.5t-47.5 -61.5t-61 -40.5t-60.5 -28.5 q115 -17 175.5 -81t60.5 -170q0 -77 -33 -130.5t-88.5 -87.5t-125.5 -49.5t-142 -15.5q-45 0 -99.5 6t-99.5 6q-27 0 -49.5 -0.5t-45.5 -0.5t-44 -0.5t-37 -0.5zM315 155q0 -33 3.5 -54.5t17 -33.5t34.5 -16.5t65 -4.5q98 0 158 52t60 156q0 61 -21 105.5t-55 73t-83 41.5 t-113 13h-66v-332zM315 540h69q124 0 174.5 47t50.5 140q0 34 -9.5 67t-34 59.5t-61.5 43.5t-106 17q-32 0 -47 -4.5t-24 -13t-10.5 -21t-1.5 -28.5v-307z" />
<glyph unicode="C" horiz-adv-x="1013" d="M59 470q0 128 47 223.5t127.5 159.5t186.5 95.5t231 31.5q61 0 130.5 -9t131.5 -25q-6 -64 -7.5 -121.5t-1.5 -121.5l-46 -4q-4 59 -23.5 102.5t-52 72t-75.5 41t-92 12.5q-86 0 -162 -30.5t-127.5 -87t-78 -136t-26.5 -175.5t24 -180.5t72.5 -147t121.5 -98t158 -35.5 q52 0 101.5 14t87.5 48q36 32 62.5 78.5t52.5 109.5l44 -10q-17 -66 -27 -124t-17 -124q-81 -23 -158.5 -36t-155.5 -13q-120 0 -215.5 35t-165 99t-108.5 154.5t-39 201.5z" />
<glyph unicode="D" horiz-adv-x="1080" d="M44 922l2 38q36 0 87.5 -1t109.5 -1q51 0 107 5.5t108 5.5q115 0 215 -23t177.5 -76t124 -138.5t46.5 -209.5q0 -128 -46 -227t-124 -167t-181.5 -103.5t-225.5 -35.5q-51 0 -109 6.5t-109 6.5q-27 0 -49.5 -0.5t-45.5 -0.5t-44 -0.5t-37 -0.5l-3 36q42 3 68 9t40 20 t18.5 37.5t4.5 61.5v665q0 27 -4 44t-17.5 27.5t-40.5 15t-72 6.5zM315 180q0 -29 2 -53.5t15 -42.5t42 -28t69 -10q83 0 162.5 30t136.5 87.5t88.5 140.5t31.5 187q0 106 -32.5 185.5t-89.5 132.5t-135 79.5t-155 26.5q-25 0 -48.5 -4t-43.5 -11t-31.5 -15t-11.5 -17v-688z " />
<glyph unicode="E" horiz-adv-x="816" d="M36 36q46 3 74 9.5t43 20t20 37t5 61.5v669q0 24 -4.5 40t-18 26.5t-39 15.5t-68.5 7l3 38q19 0 43.5 -0.5t49.5 -0.5q26 0 54 -0.5t49 -0.5q39 0 164 1t320 1q-6 -51 -9 -107t-4 -119l-44 -1q-9 52 -20 86t-31 53.5t-52 28t-83 8.5h-127q-30 0 -38.5 -6t-8.5 -31v-343 l324 10l7 -7l-2 -85q-91 8 -172.5 11t-156.5 5v-298q0 -34 4 -56t17.5 -34.5t38 -17.5t65.5 -5h58q58 0 94.5 9.5t61.5 32t44.5 58.5t42.5 90l43 -9q-8 -29 -15 -62t-13 -65t-10 -60t-5 -46q-201 0 -324.5 1t-184.5 1q-25 0 -49.5 -0.5t-50.5 -0.5t-50.5 -0.5t-41.5 -0.5z " />
<glyph unicode="F" horiz-adv-x="744" d="M40 922l3 38q21 0 46.5 -0.5t51.5 -0.5t55.5 -0.5t50.5 -0.5q53 0 160.5 1t308.5 1q-6 -51 -9 -109t-4 -121l-44 -1q-9 53 -20 88t-31 55t-52 28.5t-83 8.5h-112q-30 0 -38.5 -6t-8.5 -31v-364l309 10l7 -7l-2 -86q-91 8 -165 11.5t-149 5.5v-313q0 -24 4.5 -41t21 -27.5 t48.5 -16t88 -6.5l-2 -38q-20 0 -50 0.5t-63 0.5t-71 0.5t-59 0.5q-24 0 -47 -0.5t-47 -0.5t-47 -0.5t-40 -0.5l-3 36q42 3 67.5 9.5t39.5 20.5t19 37.5t5 60.5v669q0 24 -4.5 40t-18.5 26.5t-41.5 15.5t-73.5 7z" />
<glyph unicode="G" horiz-adv-x="1061" d="M57 470q0 128 45.5 223.5t124.5 159.5t185 95.5t235 31.5q31 0 68 -3t74.5 -8.5t75 -12.5t67.5 -15q-6 -64 -6.5 -120.5t-0.5 -120.5l-46 -4q-4 59 -26.5 103t-58.5 72t-84 42t-101 14q-89 0 -165 -30.5t-126 -87t-74.5 -136t-24.5 -175.5t25 -180.5t75 -147t126.5 -98 t164.5 -35.5q14 0 39.5 3t59.5 11t59.5 21t25.5 33v195q0 24 -6 40t-24 26.5t-51.5 15.5t-88.5 7l2 38q24 0 52.5 -0.5t56.5 -0.5q29 0 56 -0.5t63 -0.5q20 0 45.5 0.5t46.5 0.5t40 0.5t34 0.5l3 -36q-29 -3 -47 -9t-28.5 -20t-14 -37.5t-3.5 -60.5v-63q0 -48 1 -92.5 t6 -72.5q-81 -22 -169 -39t-167 -17q-124 0 -222.5 35t-170 99t-111.5 154.5t-40 201.5z" />
<glyph unicode="H" horiz-adv-x="1135" d="M53 922l2 38h44h50.5t49.5 -1h109q23 0 45.5 0.5t42.5 0.5h34l3 -36q-39 -3 -62 -9.5t-36 -20t-17 -37.5t-4 -61v-260h507v297q0 24 -3.5 40t-16 26.5t-36.5 15.5t-66 7l2 38h38.5t47.5 -1q26 0 60 -0.5t58 -0.5q26 0 49 0.5t45 0.5q23 0 43 0.5t34 0.5l2 -36 q-39 -3 -62.5 -9.5t-36.5 -20t-17.5 -37.5t-4.5 -61v-669q0 -24 4 -40t16.5 -26.5t37.5 -15.5t67 -7l-2 -38q-16 0 -39 0.5t-49 0.5t-56.5 0.5t-54.5 0.5q-34 0 -56.5 -0.5t-44.5 -0.5t-41.5 -0.5t-33.5 -0.5l-3 36q39 3 62 9.5t36 20t17 37t4 61.5v311h-507v-348 q0 -24 3.5 -40t16 -26.5t36.5 -15.5t66 -7l-2 -38q-16 0 -38.5 0.5t-48 1t-59.5 1t-58 0.5q-26 0 -49 -0.5t-46 -0.5q-22 0 -42 -0.5t-34 -0.5l-2 36q39 3 62.5 9.5t36.5 20t17.5 37t4.5 61.5v668q0 24 -4 40t-16.5 26.5t-37.5 15.5t-67 7z" />
<glyph unicode="I" horiz-adv-x="485" d="M49 922l2 38h39t49 -1q27 0 59.5 -0.5t56.5 -0.5q30 0 53.5 0.5t46.5 0.5t43.5 0.5t34.5 0.5l3 -36q-39 -3 -63 -9.5t-38 -20t-19 -37t-5 -60.5v-670q0 -24 4 -40t17.5 -26.5t38.5 -15.5t67 -7l-2 -38q-16 0 -39.5 0.5t-50.5 0.5q-26 0 -58.5 0.5t-56.5 0.5 q-20 0 -48 -0.5t-51 -0.5t-43.5 -0.5t-34.5 -0.5l-3 36q39 3 63 9.5t37.5 20t18.5 37t5 61.5v669q0 24 -4 40t-17.5 26.5t-38.5 15.5t-66 7z" />
<glyph unicode="J" horiz-adv-x="460" d="M-105 -193q0 24 19.5 44t45.5 25q19 -17 46.5 -35.5t61.5 -18.5q19 0 37 6.5t30 23.5q13 17 20 41.5t10 53t3.5 59.5t0.5 62v765q0 24 -4 40t-17.5 26.5t-38.5 15.5t-66 7l2 38q16 0 39 -0.5t49 -0.5t53.5 -0.5t58.5 -0.5h56q24 0 47.5 0.5t44.5 0.5h38l3 -36 q-40 -3 -65 -9.5t-39.5 -20t-19.5 -37.5t-5 -61v-372q0 -43 0.5 -87.5t0.5 -89.5q0 -43 0.5 -63.5t0.5 -45.5v-30q0 -97 -30.5 -169t-75.5 -120q-37 -42 -92.5 -62.5t-112.5 -20.5q-17 0 -34.5 3.5t-32.5 12t-24.5 22.5t-9.5 34z" />
<glyph unicode="K" horiz-adv-x="992" d="M48 922l2 38h40t51 -1q27 0 58.5 -0.5t55.5 -0.5q33 0 56.5 0.5t46.5 0.5q24 0 45 0.5t35 0.5l3 -36q-40 -3 -64.5 -9.5t-38.5 -20t-19 -37t-5 -60.5v-283q22 5 42 17t49 38q31 29 66 64t69.5 71.5t66.5 72.5t57 67q14 18 20.5 32t-0.5 24.5t-28.5 15.5t-62.5 7l2 37h36 t46 -1q25 0 50.5 -0.5t47.5 -0.5q19 0 44.5 0.5t50.5 0.5q26 0 48 0.5t36 0.5l3 -36q-36 -3 -63.5 -10t-55 -19t-54.5 -31.5t-57 -47.5q-22 -20 -53.5 -51t-68 -68.5t-76.5 -78t-72 -74.5q47 -57 94.5 -115t93.5 -112.5t86.5 -101t67.5 -74.5q30 -31 50.5 -50t39.5 -29.5 t41 -15.5t56 -8l-2 -38q-38 0 -83.5 1t-104.5 1q-21 0 -36.5 -0.5t-29.5 -1.5q-8 15 -28 42t-48 62t-56 69t-59 72t-66 81.5t-82 98.5q-20 23 -31.5 32.5t-22.5 9.5t-23 -3v-337q0 -24 4 -40t17.5 -26.5t39 -15.5t68.5 -7l-2 -38q-16 0 -39.5 0.5t-50.5 0.5t-61.5 0.5 t-58.5 0.5q-27 0 -50.5 -0.5t-47.5 -0.5t-45 -0.5t-35 -0.5l-3 36q42 3 67 9.5t38.5 20t18 37t4.5 61.5v669q0 24 -4 40t-17.5 26.5t-39.5 15.5t-69 7z" />
<glyph unicode="L" horiz-adv-x="780" d="M48 36q41 3 66.5 9.5t39.5 20t19 37t5 61.5v669q0 24 -4.5 40t-18 26.5t-39 15.5t-68.5 7l3 38h39.5t50.5 -1q27 0 58.5 -0.5t55.5 -0.5q33 0 57 0.5t48 0.5t45.5 0.5t35.5 0.5l3 -36q-41 -3 -66.5 -9.5t-39.5 -20t-19 -37.5t-5 -61v-631q0 -34 4 -56t17.5 -34.5 t38 -17.5t65.5 -5h37q58 0 95 9.5t62.5 32t44.5 58.5t42 90l42 -9q-8 -29 -15 -62t-13 -65t-10 -60t-5 -46h-154q-66 0 -107 0.5t-75 0.5t-59 0.5t-44 0.5h-49q-27 0 -51 -0.5t-48 -0.5t-45.5 -0.5t-35.5 -0.5z" />
<glyph unicode="M" horiz-adv-x="1272" d="M18 36q41 4 67 9.5t41 22.5t21 51t8 94l21 515q1 36 0 60.5t-5 43t-11 31.5t-18 24q-19 19 -48 26t-67 9l2 38q12 0 41.5 -0.5t65.5 -0.5t82 -0.5t73 -0.5q18 -43 36.5 -85t37.5 -85l280 -609l255 622q17 39 33 78.5t32 78.5q19 0 65 0.5t83 0.5q38 0 71 0.5t47 0.5 l2 -36q-44 -3 -70.5 -9.5t-40.5 -20t-18 -37.5t-3 -61l21 -669q1 -24 6.5 -40t20 -26.5t41 -15.5t70.5 -7l-2 -38q-18 0 -42 0.5t-51 0.5q-26 0 -53 0.5t-58 0.5q-34 0 -55.5 -0.5t-42.5 -0.5t-40 -0.5t-33 -0.5l-3 36q36 3 57.5 9.5t33 20.5t14 37.5t1.5 60.5l-21 631 q-84 -198 -169.5 -397.5t-156.5 -405.5l-59 -6q-29 71 -135.5 305t-203.5 448l-22 -562q-1 -16 -1 -29q0 -26 3 -44q4 -26 17 -40t37 -18.5t62 -7.5l-2 -38q-32 0 -69 1t-89 1q-38 0 -79.5 -1t-76.5 -1z" />
<glyph unicode="N" horiz-adv-x="1098" d="M18 922l2 38q12 0 35.5 -0.5t52.5 -0.5t69 -0.5t67 -0.5l629 -732v556q0 47 -5.5 73.5t-20.5 40t-41 18t-67 7.5l2 38q32 0 76 -1t92 -1q23 0 44 0.5t41.5 1t39 1t32.5 0.5l1 -36q-39 -4 -64 -10t-39.5 -23t-20.5 -51t-6 -94v-750l-56 -10q-26 37 -52 71.5t-55 69.5 l-539 628v-578q0 -47 5.5 -73.5t20.5 -40t40.5 -18t66.5 -7.5l-2 -38q-32 0 -75.5 1t-91.5 1q-42 0 -83.5 -1t-76.5 -1l-3 36q40 4 66 9.5t41.5 22.5t21.5 51t6 94v497q0 42 -1 68t-4.5 42.5t-9.5 27.5t-16 23q-10 13 -20 22t-23 15t-32 9t-47 5z" />
<glyph unicode="O" horiz-adv-x="1122" d="M59 470q0 111 36 204.5t101 161.5t156 106t209 38q116 0 207.5 -34.5t156.5 -98.5t101.5 -154.5t36.5 -202.5q0 -111 -36 -204.5t-101 -161.5t-156 -106t-209 -38q-116 0 -207 34.5t-156.5 98.5t-102 154.5t-36.5 202.5zM218 508q0 -134 33 -225t85 -146.5t116.5 -78 t114.5 -22.5q55 0 118.5 21.5t112 71.5t77.5 129.5t29 193.5q0 134 -33 225t-85 146.5t-116.5 78t-114.5 22.5q-55 0 -118.5 -21.5t-112 -71.5t-77.5 -129.5t-29 -193.5z" />
<glyph unicode="P" horiz-adv-x="805" d="M53 922l2 38q16 0 37.5 -0.5t46.5 -0.5t54.5 -0.5t53.5 -0.5q50 0 89 5t84 5q78 0 142.5 -14t113 -46t77.5 -84.5t29 -128.5q0 -77 -32 -134t-83 -95t-114 -57t-133 -19q-38 0 -62.5 5t-43.5 13v-279q0 -24 3 -40.5t18 -27.5t45.5 -16.5t85.5 -6.5l-2 -38q-54 0 -113 1 t-121 1q-26 0 -49 -0.5t-46 -0.5q-22 0 -42 -0.5t-34 -0.5l-2 36q39 3 62.5 9.5t36.5 20t17.5 37t4.5 61.5v669q0 24 -4 40t-16.5 26.5t-37.5 15.5t-67 7zM314 460q23 -7 42 -10.5t51 -3.5q29 0 68 12t72.5 39.5t55.5 74.5t22 118q0 115 -62.5 169t-160.5 54q-29 0 -45 -4 t-26.5 -12.5t-13.5 -22.5t-3 -35v-379z" />
<glyph unicode="Q" horiz-adv-x="1121" d="M59 471q0 111 36 204t101 161t156 106t209 38q116 0 207.5 -34.5t156.5 -98.5t101.5 -154t36.5 -202q0 -98 -31 -182.5t-86 -150t-131 -108.5t-169 -58l-2 -7q58 -23 114 -48.5t110 -50.5q61 -29 111 -48t91 -30.5t79 -18t74 -6.5q45 0 88 11.5t94 31.5l18 -40 q-93 -58 -162.5 -86.5t-132.5 -28.5q-38 0 -69 6t-64 19.5t-70.5 34.5t-82.5 51q-80 53 -140 89.5t-107 60.5t-81 38t-67 21q-91 17 -161 58t-120.5 102.5t-78.5 142t-28 177.5zM218 509q0 -134 34 -225t87 -145t115.5 -77.5t119.5 -23.5q62 0 121 22.5t106 71t75 128 t28 193.5q0 134 -33 225t-85 145t-113 77.5t-118 23.5q-62 0 -122 -22.5t-108.5 -71t-77.5 -128t-29 -193.5z" />
<glyph unicode="R" horiz-adv-x="915" d="M53 922l2 38q16 0 37.5 -0.5t46.5 -0.5t54.5 -0.5t53.5 -0.5q54 0 94.5 5.5t68.5 5.5q67 0 127 -10t108.5 -36t78.5 -70.5t30 -113.5q0 -46 -14.5 -87t-40.5 -74.5t-61.5 -59t-78.5 -41.5q32 -61 63 -117t57.5 -102.5t48 -81.5t35.5 -55q19 -26 33 -40.5t30.5 -23 t38.5 -12.5t57 -7l-2 -38q-30 0 -78.5 1t-100.5 1q-28 0 -44.5 -0.5t-30.5 -1.5q-10 21 -31 61.5t-50 94t-64 116.5t-73 128q-6 10 -11.5 18t-14 13.5t-19.5 8.5t-26 3h-16q-8 0 -19.5 0.5t-27.5 1.5v-316q0 -24 3 -40.5t16.5 -27.5t39.5 -16.5t73 -6.5l-2 -38q-48 0 -100 1 t-114 1q-26 0 -49 -0.5t-46 -0.5q-22 0 -42 -0.5t-34 -0.5l-2 36q39 3 62.5 9.5t36.5 20t17.5 37t4.5 61.5v669q0 24 -4 40t-16.5 26.5t-37.5 15.5t-67 7zM314 495q8 -1 16 -1.5t16 0.5h18q104 0 168.5 52.5t64.5 173.5q0 100 -61.5 147t-149.5 47q-17 0 -34.5 -5.5 t-25.5 -16.5t-10 -27t-2 -36v-334z" />
<glyph unicode="S" horiz-adv-x="707" d="M40 269l46 10q20 -52 42.5 -96t54 -76.5t73.5 -50t99 -17.5q36 0 65.5 12t54.5 36t39 56.5t14 71.5q0 49 -18.5 82.5t-48 55t-62.5 40t-73 36.5q-45 20 -94 45.5t-87.5 62t-59 80.5t-20.5 103q0 63 25.5 111.5t69 81.5t104.5 50t126 17q63 0 116.5 -9.5t116.5 -25.5 q-3 -32 -5 -59.5t-2.5 -54t-1 -54t-0.5 -59.5l-46 -4q-9 106 -64.5 157.5t-147.5 51.5q-26 0 -56 -11t-52 -31t-34.5 -49t-12.5 -65q0 -48 15.5 -80.5t42.5 -52.5t62.5 -36.5t74.5 -33.5q48 -21 100 -50.5t85.5 -63t57.5 -79.5t24 -107q0 -68 -28 -120.5t-74 -89 t-109.5 -55.5t-126.5 -19q-55 0 -114 11t-127 30q-7 66 -17 124t-27 124z" />
<glyph unicode="T" horiz-adv-x="878" d="M12 960q62 0 120 -0.5t112 -0.5t100.5 -0.5t92.5 -0.5q44 0 91.5 0.5t101.5 0.5q55 0 114 0.5t121 0.5q-3 -37 -5.5 -66.5t-4 -58t-2 -57.5t-0.5 -63l-42 -2q-9 54 -19.5 91t-30.5 60.5t-54 33.5t-90 10h-112v-781q0 -24 4 -40t18 -26.5t42.5 -15.5t77.5 -7l-2 -38 q-21 0 -47.5 0.5t-54.5 0.5t-60.5 0.5t-56.5 0.5q-31 0 -54.5 -0.5t-47.5 -0.5t-48 -0.5t-43 -0.5l-3 36q46 3 74 9t42 20t18.5 37.5t4.5 61.5v744h-109q-56 0 -90.5 -10t-55.5 -33.5t-32 -60.5t-20 -91l-42 2v63q0 45 -1.5 86t-6.5 96z" />
<glyph unicode="U" horiz-adv-x="1047" d="M25 921l2 38q18 0 42.5 -0.5t51.5 -0.5q28 0 56.5 -0.5t60.5 -0.5q34 0 58.5 0.5t49.5 0.5t47.5 1t39.5 0l3 -36q-43 -3 -70 -10t-42 -22t-20.5 -39.5t-5.5 -61.5v-454q0 -72 22.5 -123.5t62.5 -84t89 -48t92 -15.5q54 0 103 16.5t87 53t58.5 94t20.5 138.5v411 q0 44 -6.5 71t-24 42t-46.5 21t-78 9l2 38q35 0 84.5 -1t103.5 -1q44 0 92 1.5t80 1.5l1 -36q-44 -4 -71.5 -9.5t-44 -21.5t-22.5 -47t-6 -85v-421q0 -98 -33 -166t-86.5 -111.5t-121 -63t-137.5 -19.5q-69 0 -134.5 17t-115 58t-78.5 100t-29 139v532q0 24 -4.5 41 t-19 28.5t-41.5 17.5t-72 8z" />
<glyph unicode="V" horiz-adv-x="962" d="M-17 922l2 38q42 0 92.5 -1t108.5 -1q56 0 99.5 1t85.5 1l3 -36q-57 -5 -80 -14.5t-23 -35.5q0 -11 3.5 -25t9.5 -32l230 -637l235 623q8 23 13 40t5 30t-5.5 21.5t-18.5 14t-35 8.5t-55 5l2 38q37 0 83 -1t93 -1q37 0 76.5 1t76.5 1l3 -36q-39 -3 -63.5 -9.5t-42.5 -24 t-33 -48t-36 -81.5q-78 -194 -154.5 -383.5t-152.5 -386.5l-67 -6q-73 205 -147 403t-149 400q-16 43 -28 68t-28 38.5t-40 19t-63 8.5z" />
<glyph unicode="W" horiz-adv-x="1375" d="M-13 922l2 38q42 0 92.5 -1t108.5 -1q56 0 98.5 1t84.5 1l3 -36q-57 -5 -80 -15t-23 -36q0 -11 3.5 -24.5t8.5 -31.5l198 -629l176 455l-44 145q-14 43 -25.5 68.5t-27 39t-37.5 18.5t-58 8l2 38q42 0 92.5 -1t101.5 -1q63 0 105.5 1t84.5 1l3 -36q-62 -5 -87 -15 t-25 -37q0 -11 11 -55l197 -629l210 614q17 54 17 71q0 26 -26.5 35.5t-95.5 13.5l2 38q45 0 91 -1t95 -1q37 0 76.5 1t76.5 1l3 -36q-39 -3 -64.5 -9.5t-44.5 -23t-34.5 -47t-34.5 -82.5q-72 -194 -139 -384.5t-137 -387.5l-67 -5q-48 149 -96.5 291.5t-91.5 277.5 q-22 -59 -51.5 -133t-59 -150.5t-56.5 -149.5t-48 -131l-63 -5q-73 205 -136.5 403t-132.5 400q-14 43 -26 68.5t-28.5 39t-40.5 18.5t-63 8z" />
<glyph unicode="X" horiz-adv-x="966" d="M-4 38q42 2 70.5 10.5t52 26.5t45.5 45.5t51 67.5l200 280l-222 330q-27 39 -44.5 62.5t-36.5 36.5t-43.5 18t-65.5 7l2 38h38.5t50.5 -1q27 0 54 -0.5t57 -0.5q60 0 108 1t79 1l3 -36q-54 -5 -73.5 -13t-19.5 -22t20 -43l181 -265l168 247q14 20 21.5 34t7.5 25 q0 16 -20.5 24t-71.5 13l3 36q31 0 79 -1t94 -1t77.5 1t62.5 1l2 -38q-41 -2 -68 -10t-49 -25t-42.5 -43.5t-48.5 -65.5l-178 -247l242 -363q28 -41 48 -65.5t41 -38.5t47.5 -19t68.5 -7l-2 -38q-18 0 -41.5 0.5t-49.5 0.5t-57 0.5t-56 0.5q-23 0 -56.5 -0.5t-60.5 -0.5 q-26 0 -49 -0.5t-38 -0.5l-5 35q59 5 81 12.5t22 22.5t-19 43l-203 303l-192 -284q-14 -20 -21 -33.5t-7 -24.5q0 -17 23 -25.5t81 -13.5l-5 -35q-31 0 -83 1t-98 1q-50 0 -84 -1t-69 -1z" />
<glyph unicode="Y" horiz-adv-x="870" d="M-27 923l2 37q42 0 92.5 -1t108.5 -1q56 0 99.5 1t85.5 1l3 -35q-54 -4 -74.5 -13t-20.5 -27q0 -12 7 -28t19 -39l172 -317l170 299q16 29 24.5 48.5t8.5 33.5q0 19 -22.5 27.5t-79.5 12.5l2 38q37 0 79 -1t87 -1q37 0 76.5 1t76.5 1l3 -36q-39 -3 -64.5 -10t-45.5 -24 t-39.5 -46t-47.5 -76q-51 -83 -88 -148.5t-58 -107.5q-21 -41 -29.5 -66t-10.5 -44t-2.5 -36.5t-0.5 -42.5v-196q0 -24 4 -40t18 -26.5t42.5 -15.5t77.5 -7l-2 -38q-21 0 -47.5 0.5t-54.5 0.5t-61 0.5t-57 0.5q-30 0 -53.5 -0.5t-47.5 -0.5t-48 -0.5t-43 -0.5l-3 36 q46 3 74 9t42 20t18.5 37.5t4.5 61.5v150q0 29 -1 49.5t-4.5 41t-16.5 44.5t-31 60q-27 48 -65 116t-97 165q-23 39 -39.5 63.5t-35 39t-43.5 21t-64 9.5z" />
<glyph unicode="Z" horiz-adv-x="908" d="M40 16q21 27 54 72t73 101.5t85.5 120.5t90 128.5t87 125t76.5 110t58 84t33 47.5l72 102h-293q-59 0 -96 -5t-61 -23.5t-38 -57.5t-26 -106l-42 2v65q0 45 -2 84t-6 94q69 0 136.5 -1t125.5 0q60 0 113.5 -0.5t73.5 -0.5h34q23 0 53 0.5t62 0.5q33 0 62.5 0.5t51.5 0.5 h32l12 -16q-18 -23 -49.5 -66.5t-71.5 -99.5t-85 -120.5t-90.5 -130t-88.5 -127t-78 -111.5t-59 -84.5t-32 -45.5l-74 -105h359q41 0 77.5 9t69 31.5t61.5 60.5t54 98l43 -10q-24 -77 -37 -142.5t-15 -100.5q-85 0 -162 0.5t-143 0.5q-85 0 -133.5 0.5t-74.5 0.5h-37 q-23 0 -52 -0.5t-60 -0.5q-30 0 -57.5 -0.5t-48.5 -0.5h-28z" />
<glyph unicode="[" horiz-adv-x="499" d="M111 -262v1300h281l4 -38q-62 -5 -97 -10.5t-52 -19.5t-21 -39.5t-4 -69.5v-946q0 -44 4 -69.5t21 -39.5t52 -19.5t97 -10.5l-4 -38h-281z" />
<glyph unicode="\" horiz-adv-x="540" d="M92 990l69 11l315 -1131l-68 -11z" />
<glyph unicode="]" horiz-adv-x="499" d="M103 -224q62 5 97 10.5t52 19.5t21 39.5t4 69.5v946q0 44 -4 69.5t-21 39.5t-52 19.5t-97 10.5l4 38l280 -1v-1300l-280 1z" />
<glyph unicode="^" d="M44 420l271 545l51 5l270 -550l-64 -7l-233 486l-231 -486z" />
<glyph unicode="_" horiz-adv-x="1024" d="M0 -171h1024v-65h-1024v65z" />
<glyph unicode="`" horiz-adv-x="700" d="M185 881l5 11l105 9l83 -253l-3 -6l-35 -6z" />
<glyph unicode="a" horiz-adv-x="620" d="M45 128q0 51 29.5 87.5t77.5 56.5q35 14 93.5 28.5t132.5 22.5q1 7 1 17v69q0 51 -24.5 84.5t-64.5 33.5q-22 0 -42.5 -10.5t-34 -27.5t-20 -39t-6.5 -46q-16 -13 -51 -13q-23 0 -43.5 12.5t-20.5 33.5q0 16 12.5 33t33 33.5t45.5 31.5t51 26q67 29 132 29q39 0 67 -8.5 t49 -27t33 -47.5t12 -69q0 -60 -2 -138.5t-2 -170.5q0 -39 13 -61t37 -22t52 17l18 -31q-23 -22 -56.5 -36t-67.5 -14q-49 0 -78.5 19t-39.5 57q-10 -7 -31 -21t-41 -24.5t-51 -21.5t-59 -11q-40 0 -67 12t-46.5 32.5t-30 47t-10.5 56.5zM185 158q0 -42 21.5 -69t52.5 -27 q32 0 60 11t57 35q0 42 1 85t1 85q-27 -3 -47.5 -8t-43 -12t-42 -17.5t-35.5 -25.5q-25 -22 -25 -57z" />
<glyph unicode="b" horiz-adv-x="722" d="M-1 960q23 4 51 11t56.5 15t66 17t58.5 18l11 -8q-3 -25 -5.5 -59t-4 -67.5t-2.5 -63.5t-1 -48v-244q46 32 91.5 45.5t83.5 13.5q66 0 114.5 -23t83 -62t53.5 -90t19 -108q0 -73 -27 -133t-73.5 -103t-109.5 -67t-143 -24q-58 0 -114.5 11.5t-107.5 37.5q2 76 2 113v690 q0 29 -3 46.5t-13.5 27.5t-29.5 15t-52 10zM229 127q0 -18 10 -34.5t27 -29t42.5 -20t46.5 -7.5q42 0 75 20.5t56.5 54.5t35 77.5t11.5 85.5q0 44 -14 87t-40.5 75.5t-61.5 51.5t-77 19q-26 0 -52 -7t-59 -26v-347z" />
<glyph unicode="c" horiz-adv-x="584" d="M43 265q0 69 27.5 128t74 103t107.5 69t136 25q36 0 71.5 -5t67.5 -22q14 -7 19.5 -18.5t5.5 -24.5q0 -18 -14 -39.5t-53 -37.5h-5q-37 38 -71 56t-79 18q-33 0 -62 -16.5t-50 -44.5t-32 -63t-11 -74q0 -49 13.5 -92.5t39.5 -77.5t65 -54t81 -20q48 0 92 20t71 62l31 -28 q-19 -37 -46 -64t-59.5 -46t-68.5 -29t-72 -10q-67 0 -117 23.5t-86 62.5t-56 90.5t-20 108.5z" />
<glyph unicode="d" horiz-adv-x="733" d="M45 259q0 72 27.5 132.5t75 104.5t110.5 69t128 25q14 0 44 -2.5t59 -9.5v270q0 28 -3 44.5t-14.5 26t-33 14.5t-58.5 11l-3 30q37 6 73 12.5t77 15t62.5 12.5t30.5 7l10 -8q-3 -25 -5.5 -59t-4 -68t-2.5 -64t-1 -48v-622q0 -29 3 -45.5t14 -25.5t32.5 -13.5t57.5 -9.5 l4 -30q-32 -5 -72 -9.5t-72 -11.5t-53.5 -12.5t-31.5 -8.5l-10 8v60q-49 -41 -98.5 -57t-85.5 -16q-59 0 -105 20t-80.5 56t-54.5 87.5t-20 114.5zM188 300q0 -43 12.5 -86.5t35.5 -76.5t59 -53t74 -20q28 0 61.5 10t58.5 31v368q-27 31 -60 46t-68 15q-38 0 -71 -20 t-56 -53t-34.5 -76t-11.5 -85z" />
<glyph unicode="e" horiz-adv-x="604" d="M41 273q0 67 24.5 124.5t65 100.5t93.5 67.5t116 24.5q52 0 92.5 -14.5t70.5 -41.5t48 -65t18 -85v-14l-1 -14q-5 -27 -28 -27h-371q1 -69 19.5 -117t50 -78t70 -44.5t74.5 -14.5q37 0 74 14t78 55l31 -31q-35 -44 -69 -69.5t-65 -39.5t-57 -19t-45 -5q-69 0 -121 23 t-89.5 63t-58 93.5t-20.5 113.5zM173 374h224q20 0 26 7.5t6 25.5q0 27 -8 50t-24.5 40t-38 27t-48.5 10q-22 0 -45 -11t-41.5 -31t-32 -49.5t-18.5 -68.5z" />
<glyph unicode="f" horiz-adv-x="417" d="M27 508l4 40l98 8v96q0 94 27 164t75 118q42 42 94 62t123 20q32 0 51.5 -3t36.5 -10.5t29 -21t12 -33.5q0 -36 -16.5 -50t-54.5 -28q-25 26 -61 43.5t-72 17.5q-20 0 -38.5 -6.5t-32.5 -20.5q-17 -17 -26 -42t-13.5 -54t-5 -60.5t-0.5 -60.5v-129l165 3l8 -7l-3 -53 h-170v-385q0 -25 5 -40t19 -22.5t39.5 -10.5t67.5 -4l-3 -39q-16 0 -38 0.5t-47 0.5t-56.5 0.5t-55.5 0.5q-50 0 -89 -1t-67 -1l-3 34q33 3 52.5 8.5t30 18.5t14 35.5t3.5 60.5v344h-95z" />
<glyph unicode="g" horiz-adv-x="682" d="M21 -240q0 34 13 57.5t34 44t48.5 40.5t53.5 38q-48 15 -75.5 39.5t-27.5 57.5q0 23 10.5 42t29 35.5t36 27t31.5 20.5q-114 56 -114 191q0 50 20.5 93.5t55 75.5t79.5 50t102 18q87 0 145 -34q11 -7 20.5 -9.5t22.5 -2.5q11 1 16 1l153 11l7 -8l-6 -62h-141 q41 -53 41 -113q0 -59 -23.5 -104t-61 -75.5t-83 -46t-96.5 -15.5q-35 0 -79 10q-23 -10 -36.5 -24t-13.5 -33q0 -15 9.5 -24.5t24 -13.5t32 -5t31.5 -1q35 0 77.5 1.5t86.5 1.5q40 0 80 -7.5t72.5 -27t52.5 -53.5t20 -83q0 -53 -28 -103.5t-78 -86t-119.5 -59t-159.5 -23.5 q-43 0 -90.5 11.5t-86 30t-62 49t-23.5 68.5zM145 -210q0 -27 17.5 -52t51 -40t71.5 -18.5t64 -3.5q35 0 75 9.5t70 25.5t47.5 44t17.5 60q0 25 -18 53t-52 42q-29 13 -64 15.5t-71 2.5h-10q-33 0 -54.5 -0.5t-35.5 -3.5t-25 -9t-23 -16q-31 -26 -46 -50t-15 -59zM197 380 q0 -34 7.5 -70t23 -65t42 -48t57.5 -19q25 0 48 15t37 39t20 53t6 58q0 36 -7.5 72.5t-23 64.5t-41 46t-58.5 18q-27 0 -50 -14.5t-35.5 -37.5t-19 -52.5t-6.5 -59.5z" />
<glyph unicode="h" horiz-adv-x="769" d="M20 965q28 5 59.5 12t64 14.5t64.5 15.5t49 14l11 -8q-4 -25 -7 -59t-4.5 -68t-2 -64t-0.5 -48v-263q51 35 103.5 57t110.5 22q43 0 75 -11t56 -35.5t38 -64t14 -96.5v-267q0 -24 2.5 -38.5t12.5 -22.5t30 -11t54 -5l-2 -39q-32 0 -73.5 1t-96.5 1q-53 0 -88 -1t-63 -1 l-3 34q31 3 50.5 8t30 16.5t14 33t3.5 59.5v205q0 81 -32.5 116t-82.5 35q-40 0 -75 -12.5t-78 -38.5v-340q0 -24 3 -38.5t13 -22.5t29.5 -11t52.5 -5l-3 -39q-32 0 -71.5 1t-101.5 1q-46 0 -83 -1t-65 -1l-2 34q33 3 52.5 9t30.5 18.5t14.5 35t3.5 60.5v681q0 29 -3.5 45.5 t-14 25.5t-31.5 14t-55 11z" />
<glyph unicode="i" horiz-adv-x="375" d="M32 34q33 3 52.5 8.5t30.5 18.5t14.5 35.5t3.5 60.5v259q0 28 -3 44t-12.5 25t-28 14t-48.5 10l-3 31q31 6 62.5 12.5t69.5 13.5t59.5 13t32.5 11l10 -8q-3 -25 -5 -54t-3 -56.5t-1.5 -52t-0.5 -42.5v-261q0 -24 3 -38.5t13.5 -22.5t31.5 -11t58 -5l-2 -39q-32 0 -77 1 t-104 1q-49 0 -86 -1t-65 -1zM122 830q0 33 20 53.5t53 20.5q35 0 55.5 -20.5t20.5 -53.5t-20.5 -53.5t-55.5 -20.5q-33 0 -53 20.5t-20 53.5z" />
<glyph unicode="j" horiz-adv-x="349" d="M-23 -364q60 42 89 86.5t43.5 97t16 112t1.5 128.5v356q0 28 -3 44t-12.5 25t-28 14t-48.5 10l-3 31q31 6 62.5 12.5t69.5 13.5t59.5 13t32.5 11l10 -8q-3 -25 -5 -54t-3.5 -57.5t-2 -53.5t-0.5 -43v-196q0 -51 0.5 -94.5t0.5 -73.5v-41q0 -45 -8 -85.5t-20 -71.5 q-23 -57 -84.5 -114t-137.5 -102zM116 830q0 33 20 53.5t53 20.5q35 0 55.5 -20.5t20.5 -53.5t-20.5 -53.5t-55.5 -20.5q-33 0 -53 20.5t-20 53.5z" />
<glyph unicode="k" horiz-adv-x="725" d="M19 34q35 3 56.5 8.5t33 18.5t15 35.5t3.5 60.5v683q0 29 -3 45.5t-13.5 25.5t-30.5 14t-54 11l-4 31q29 5 60.5 11.5t64 14t64 15t46.5 13.5l11 -8q-4 -26 -7 -59.5t-4.5 -67.5t-2 -64t-0.5 -48v-433q0 -6 4 -8t14 -2q16 0 36 13t49 44l53 57q25 27 35.5 40t10.5 22 q0 13 -17 19.5t-46 9.5l3 32h19q13 0 26.5 -0.5t25.5 -0.5h57q28 0 63 0.5t87 3.5l3 -36q-21 -3 -37.5 -5.5t-34 -7.5t-36.5 -14t-39 -25q-43 -33 -76 -67t-46 -49q-12 -12 -12 -18q0 -7 7 -14l139 -167q36 -42 58.5 -67t41 -38t39.5 -17.5t54 -6.5l-2 -39q-27 0 -77 1 t-101 1q-46 0 -79 -1t-62 -1l-2 34q25 3 42.5 6.5t17.5 17.5q0 8 -5 15t-16 20l-156 181q-6 8 -12.5 13.5t-15.5 5.5q-13 0 -13 -8v-169q0 -24 2.5 -38.5t12 -22.5t28.5 -11t53 -5l-2 -39q-32 0 -71 1t-101 1q-46 0 -86.5 -1t-68.5 -1z" />
<glyph unicode="l" horiz-adv-x="367" d="M15 967q30 6 62 13t66.5 15t64 14t44.5 12l11 -8q-4 -26 -7 -59.5t-4.5 -67.5t-2 -64t-0.5 -48v-658q0 -24 3 -38.5t14 -22.5t32 -11t58 -5l-2 -39q-32 0 -76.5 1t-103.5 1q-49 0 -87 -1t-66 -1l-3 34q34 3 54.5 8.5t31.5 18.5t14.5 35.5t3.5 60.5v683q0 29 -3 45.5 t-14 25.5t-31.5 14t-55.5 11z" />
<glyph unicode="m" horiz-adv-x="1148" d="M32 34q34 3 54.5 9t32 18.5t15 35t3.5 60.5v255q0 28 -3 44t-12.5 25.5t-28 14.5t-48.5 10l-3 30q25 5 53.5 11.5t59 14.5t54 15t38.5 13l12 -8q-3 -21 -5 -41.5t-2 -41.5q52 43 110 67t111 24q57 0 96.5 -24.5t59.5 -78.5q57 49 114.5 76t115.5 27q41 0 71.5 -11.5 t52.5 -36.5t35 -63.5t13 -93.5v-269q0 -24 3 -38.5t12.5 -22.5t28.5 -11t51 -5l-2 -39q-32 0 -70.5 1t-92.5 1q-53 0 -88.5 -1t-63.5 -1l-3 34q31 3 50 8t29 16.5t13 33t3 59.5v205q0 80 -30 115.5t-75 35.5q-37 0 -75.5 -17t-80.5 -46q2 -14 3.5 -28.5t1.5 -30.5v-269 q0 -24 3 -38.5t12.5 -22.5t28.5 -11t51 -5l-2 -39q-32 0 -70.5 1t-92.5 1q-53 0 -88.5 -1t-63.5 -1l-3 34q31 3 50 8t29 16.5t13 33t3 59.5v205q0 80 -30 115.5t-75 35.5q-35 0 -76 -15.5t-82 -43.5v-332q0 -24 2.5 -38.5t12.5 -22.5t29.5 -11t52.5 -5l-3 -39q-32 0 -72 1 t-88 1q-46 0 -84.5 -1t-66.5 -1z" />
<glyph unicode="n" horiz-adv-x="778" d="M32 34q34 3 54.5 9t32 18.5t15 35t3.5 60.5v255q0 28 -3 44t-12.5 25.5t-28 14.5t-48.5 10l-3 30q25 5 58 12t61.5 14.5t54.5 14.5t41 13l16 -8q-3 -21 -5 -41.5t-2 -41.5q50 43 105.5 67t110.5 24q38 0 70.5 -11.5t57 -36.5t38 -63.5t13.5 -93.5v-269q0 -24 3 -38.5 t12.5 -22.5t28.5 -11t51 -5l-2 -39q-32 0 -70.5 1t-93.5 1q-53 0 -88.5 -1t-63.5 -1l-3 34q31 3 50 8t29 16.5t13 33t3 59.5v205q0 80 -31 115.5t-80 35.5q-44 0 -80 -15.5t-73 -43.5v-332q0 -24 2.5 -38.5t12.5 -22.5t29.5 -11t52.5 -5l-3 -39q-32 0 -72 1t-102 1 q-46 0 -84.5 -1t-66.5 -1z" />
<glyph unicode="o" horiz-adv-x="711" d="M47 279q0 64 23.5 121t64 99t95.5 66.5t125 24.5q75 0 124 -23.5t95.5 -64t68 -95t21.5 -116.5q0 -65 -23.5 -121.5t-64 -98.5t-96 -66.5t-125.5 -24.5q-75 0 -130.5 23.5t-95 64t-61 95t-21.5 116.5zM190 311q0 -46 11 -96t34 -91t59.5 -67t73.5 -26q30 0 61.5 20t52 53 t30 74t9.5 82q0 48 -10.5 98t-33.5 90.5t-59.5 65.5t-74.5 25q-31 0 -62.5 -19.5t-51.5 -52.5t-29.5 -74t-9.5 -82z" />
<glyph unicode="p" horiz-adv-x="742" d="M17 536q30 6 61 13t63 14.5t61.5 14.5t42.5 12l12 -8q-2 -17 -4 -30t-1 -38q42 40 89.5 58t85.5 18q59 0 106.5 -21t83.5 -58t57.5 -88.5t21.5 -111.5q0 -73 -27.5 -134t-75 -104.5t-110.5 -68t-110 -24.5q-25 0 -36.5 1t-25.5 3t-29.5 5.5t-30.5 8.5v-263q0 -24 3.5 -39 t17 -23.5t41 -12.5t75.5 -6l-2 -39q-16 0 -40 0.5t-52 0.5q-27 0 -62 0.5t-59 0.5q-46 0 -84 -1t-66 -1l-3 34q34 3 54.5 9t31.5 18.5t14.5 35t3.5 60.5v640q0 28 -3 44t-14 25.5t-31.5 14.5t-55.5 10zM252 97q22 -31 57 -44t72 -13q39 0 73 19t55 50t32.5 72t11.5 88 t-13 90t-37.5 75t-61 52t-79.5 20q-59 0 -110 -43v-366z" />
<glyph unicode="q" horiz-adv-x="721" d="M45 260q0 73 27.5 133.5t75.5 104t112 68t143 24.5q26 0 69.5 -6.5t91.5 -19.5q14 3 31 8.5t28 9.5l10 -8q-3 -26 -5.5 -58t-4 -63.5t-2.5 -59.5t-1 -46v-615q0 -24 3 -38.5t13.5 -22.5t31.5 -11t57 -5l-3 -39q-32 0 -75.5 1t-112.5 1q-19 0 -42 -0.5t-46 -0.5 t-43.5 -0.5t-34.5 -0.5l-3 34q45 3 70 9t38 18.5t16 35t3 60.5v276q-51 -36 -100.5 -52t-83.5 -16q-65 0 -112.5 22t-81 59.5t-51.5 88.5t-18 109zM188 298q0 -55 15.5 -99.5t44 -75.5t60.5 -46.5t64 -15.5t61.5 9.5t58.5 32.5v369q-24 31 -60 46.5t-74 15.5 q-27 0 -57.5 -13t-56.5 -41.5t-41 -74t-15 -107.5z" />
<glyph unicode="r" horiz-adv-x="512" d="M33 34q33 3 52.5 8.5t30 18.5t14 35.5t3.5 60.5v255q0 28 -3 44t-12.5 25.5t-28.5 14.5t-51 10l-3 30q27 5 56 11.5t66.5 14.5t61 15t38.5 13l12 -8q-5 -31 -6 -61.5t-1 -60.5q32 39 58.5 64.5t48.5 40t40.5 20t36.5 5.5q26 0 48 -13t22 -43q0 -20 -20 -46t-53 -46 q-18 16 -37.5 24.5t-42.5 8.5t-50 -20t-44 -58q-5 -11 -6 -19.5t-1 -22.5v-239q0 -24 3.5 -38.5t16.5 -22.5t38 -11t69 -5l-2 -39q-16 0 -38.5 0.5t-48.5 0.5t-53 0.5t-51 0.5q-60 0 -96 -1t-64 -1z" />
<glyph unicode="s" horiz-adv-x="522" d="M46 195l38 9q14 -34 31 -65t39.5 -54.5t52.5 -38.5t71 -15q34 0 64 21.5t30 61.5q0 25 -12.5 42t-32 31t-41.5 24t-49 21q-31 13 -64 29t-58.5 39t-38 50.5t-12.5 64.5q0 46 19.5 79t50 54.5t69.5 31.5t83 10q40 0 79.5 -8t91.5 -10q-3 -32 -4 -60.5t-1 -61.5v-49l-37 -1 q-3 31 -15.5 56.5t-32 43.5t-46.5 28.5t-58 10.5q-20 0 -36.5 -6t-29 -17t-19.5 -27.5t-7 -33.5q0 -22 11.5 -39.5t31.5 -29.5t46 -23t54 -23q31 -13 63 -27.5t56.5 -34.5t39 -51t14.5 -68q0 -47 -20 -80.5t-52 -55.5t-72.5 -32.5t-86.5 -10.5q-26 0 -52.5 4t-49.5 9 q-21 5 -40.5 9.5t-44.5 6.5q-1 17 -3.5 43t-5.5 53t-6.5 51.5t-7.5 38.5z" />
<glyph unicode="t" horiz-adv-x="434" d="M8 506l4 43l93 7v83q0 25 -0.5 51t-0.5 47q15 6 36 13t41.5 15t32 13.5t17.5 9.5l11 -6q-2 -26 -3.5 -57.5t-2.5 -63t-1.5 -59t-0.5 -44.5l160 3l8 -7l-3 -55h-165v-314q0 -39 5 -63t19 -40t31 -21.5t38 -5.5q22 0 43.5 4.5t44.5 9.5l7 -39q-39 -19 -84 -32.5t-87 -13.5 q-39 0 -63.5 7.5t-43.5 25.5t-29.5 47.5t-10.5 72.5v27q0 18 0.5 58t0.5 107v170h-90z" />
<glyph unicode="u" horiz-adv-x="755" d="M18 552q32 4 63.5 8.5t62.5 9.5t58.5 10.5t38.5 9.5l10 -8q-3 -25 -4.5 -53.5t-3 -55.5t-2 -51.5t-0.5 -42.5v-146q0 -47 8.5 -79.5t24 -52.5t36.5 -28.5t47 -8.5q37 0 73.5 16t68.5 48v300q0 28 -3 44t-13 25.5t-29.5 14t-52.5 9.5l-2 31q34 4 67.5 8.5t65 9.5 t59.5 10.5t37 9.5l11 -8q-3 -25 -5 -53.5t-3.5 -55.5t-2 -51.5t-0.5 -42.5v-231q0 -29 3 -45t13.5 -25t30.5 -13.5t55 -9.5l4 -31q-30 -3 -61.5 -7.5t-70.5 -9.5t-62 -11t-35 -10l-10 8q2 18 3 37.5t1 37.5q-52 -47 -104.5 -68t-107.5 -21q-44 0 -75 12t-54 37.5t-36 65.5 t-13 96v237q0 28 -3 44t-12.5 25.5t-27 14t-46.5 9.5z" />
<glyph unicode="v" horiz-adv-x="644" d="M-23 532l2 39q33 0 74 -1t93 -1q53 0 85.5 1t61.5 1l2 -35q-40 -5 -56 -12t-16 -22q0 -8 3.5 -19.5t8.5 -25.5l120 -301l127 303q5 13 8.5 23.5t3.5 18.5q0 16 -17.5 24t-62.5 10l2 36q31 0 61 -1t78 -1q35 0 61.5 1t51.5 1l2 -34q-30 -4 -48 -9t-31.5 -14.5t-24.5 -27.5 t-26 -48q-18 -35 -40.5 -83t-48 -106t-53.5 -125t-57 -139l-53 -4q-43 121 -89.5 233t-94.5 224q-13 30 -23.5 47.5t-24 27t-32 13.5t-47.5 6z" />
<glyph unicode="w" horiz-adv-x="975" d="M-6 532l2 39q33 0 69 -1t91 -1q49 0 86.5 1t66.5 1l2 -35q-46 -4 -63 -11.5t-17 -25.5q1 -22 5 -35q24 -75 50 -154.5t49 -144.5q33 80 75 181t87 210l54 5q39 -100 79 -202t82 -192q9 21 23.5 59.5t28.5 78.5t27.5 79.5t24.5 74.5q8 32 8 37q0 19 -20 26.5t-71 12.5 l2 36q31 0 64.5 -1t79.5 -1q39 0 65.5 1t51.5 1l2 -34q-30 -4 -48 -8t-30 -12t-21.5 -25t-21.5 -47q-16 -39 -36 -90.5t-42.5 -111.5t-46.5 -125.5t-49 -132.5l-54 -4q-42 111 -84 215.5t-80 200.5q-36 -88 -78.5 -191t-85.5 -221l-54 -4q-39 118 -78 235t-82 229 q-11 28 -19 45t-19 25t-28 11.5t-47 5.5z" />
<glyph unicode="x" horiz-adv-x="673" d="M10 32q29 3 50 8t38.5 15.5t34.5 27.5t38 44l116 151l-121 177q-17 25 -29 40t-26 23t-33 11t-50 5l2 37q32 0 71 -1t76 -1q32 0 67 1t65 1l2 -33q-28 -2 -40 -7.5t-12 -16.5q0 -12 13 -31l86 -126l80 117q16 22 16 36q0 22 -56 27l2 34q32 0 65.5 -1t65.5 -1t60 1t60 1 l2 -32q-33 -4 -56 -9.5t-42.5 -16.5t-37.5 -29.5t-41 -48.5l-91 -118l129 -188q20 -29 34.5 -46t30.5 -27t36.5 -13.5t52.5 -5.5l-2 -37q-32 0 -74.5 1t-80.5 1t-74 -1t-65 -1l-2 32q58 4 58 28q0 11 -17 37l-96 140l-90 -132q-18 -26 -18 -41q0 -14 15 -21t50 -9l-2 -34 q-32 0 -69 1t-69 1t-60 -1t-60 -1z" />
<glyph unicode="y" horiz-adv-x="661" d="M-26 532l2 39q33 0 74 -1t96 -1q50 0 82.5 1t61.5 1l2 -35q-40 -5 -56 -12t-16 -22q0 -8 3.5 -19.5t8.5 -25.5l127 -334l141 336q11 35 11 40q0 18 -17 26t-62 10l2 36q31 0 61 -1t76 -1q39 0 66 1t52 1l2 -34q-30 -4 -48 -9t-31.5 -15t-24.5 -27.5t-26 -47.5 q-23 -46 -50 -106.5t-55.5 -128.5t-57.5 -140.5t-56 -142.5q-20 -49 -29 -70.5t-32 -67.5t-47 -82.5t-48 -55.5q-50 -42 -105 -42q-31 0 -50.5 16t-19.5 44q0 29 12.5 45.5t32.5 27.5q16 -5 25 -6.5t17 -1.5q23 0 44 6.5t37 22.5q37 38 68.5 100t41.5 93l2 5l-9 27 q-20 54 -43 114t-46.5 120t-47 117t-44.5 106q-13 30 -23.5 48t-24 27t-32 13t-47.5 6z" />
<glyph unicode="z" horiz-adv-x="605" d="M32 16q34 46 77 104.5t84.5 115.5t76.5 105.5t52 73.5l74 107h-112q-48 0 -78 -4.5t-48.5 -19t-29.5 -41t-21 -69.5l-37 1q0 54 -1 95t-5 86h129h85.5h56.5h43h37.5h43.5q43 0 63.5 0.5t34.5 0.5l12 -16q-34 -46 -77 -105.5t-84 -116.5t-75 -104.5t-49 -69.5l-77 -111 h160q40 0 67.5 7t48.5 23.5t38.5 43t38.5 66.5l38 -9q-12 -44 -21.5 -94t-11.5 -85h-163q-54 0 -90.5 0.5t-61.5 0.5h-93q-22 0 -44 -0.5t-41 -0.5h-31z" />
<glyph unicode="{" horiz-adv-x="499" d="M17 368l4 38q49 3 77 16.5t42.5 32.5t18.5 41t4 42q0 37 -3 76.5t-7 79.5t-7 78.5t-3 73.5q0 66 21.5 105t55.5 59t74 26t98 6l2 -39q-46 -3 -73.5 -16.5t-42 -33.5t-19 -44t-4.5 -47q0 -34 3.5 -68.5t8 -69.5t8 -70.5t3.5 -70.5q0 -32 -5.5 -61t-20.5 -54.5t-41 -46 t-66 -36.5q40 -13 66 -33t41 -45.5t20.5 -55t5.5 -60.5q0 -35 -3.5 -70.5t-8 -70.5t-8 -70t-3.5 -69q0 -24 4.5 -47t19 -43t42 -33.5t73.5 -16.5l-2 -39q-58 0 -98 6t-74 26t-55.5 59t-21.5 105q0 35 3 73.5t7 78.5t7 79.5t3 76.5q0 20 -4 42t-19 41t-44 32.5t-79 16.5z" />
<glyph unicode="|" horiz-adv-x="385" d="M160 -685v2113h65v-2113h-65z" />
<glyph unicode="}" horiz-adv-x="499" d="M105 -229q46 3 73.5 16.5t42 33.5t19 44t4.5 47q0 34 -3.5 68.5t-8 69.5t-8 70.5t-3.5 70.5q0 31 5.5 60.5t20.5 55t40.5 46t66.5 36.5q-41 13 -66.5 33t-40.5 45.5t-20.5 54.5t-5.5 61q0 35 3.5 70.5t8 70.5t8 69.5t3.5 69.5q0 22 -4.5 46t-19 44t-42 33.5t-73.5 16.5 l2 39q57 0 97.5 -6t74.5 -26t55.5 -59t21.5 -105q0 -35 -3 -73.5t-7 -78.5t-7 -79.5t-3 -76.5q0 -20 4 -42t19 -41t44 -32.5t79 -16.5l-4 -38q-49 -3 -77 -16.5t-42.5 -32.5t-18.5 -41t-4 -42q0 -37 3 -76.5t7 -79.5t7 -78.5t3 -73.5q0 -66 -21.5 -105t-55.5 -59t-74.5 -26 t-97.5 -6z" />
<glyph unicode="~" d="M46 239q16 63 59.5 100t103.5 37q42 0 77.5 -15.5t68.5 -34.5q31 -17 61.5 -31t62.5 -14q42 0 63 26t36 68l56 -23q-16 -63 -59.5 -100t-103.5 -37q-42 0 -77.5 15.5t-68.5 34.5q-31 17 -61.5 31t-62.5 14q-42 0 -63 -26t-36 -68z" />
<glyph unicode="&#xa1;" horiz-adv-x="388" d="M90 -365q12 72 25.5 161.5t22 181.5t16.5 180t13 159l48 5q3 -66 9 -157t12 -186t15.5 -183.5t15.5 -151.5l-170 -16zM114 510q0 33 22.5 56.5t54.5 23.5t54.5 -23.5t22.5 -56.5t-22.5 -56.5t-54.5 -23.5t-54.5 23.5t-22.5 56.5z" />
<glyph unicode="&#xa2;" d="M58 265q0 58 21 110t57.5 93t86.5 70.5t115 42.5v94l62 5v-92l10 1h16q35 0 73 -5.5t71 -22.5q14 -7 19.5 -18.5t5.5 -22.5q0 -18 -12.5 -37.5t-49.5 -35.5h-5q-32 29 -62.5 46t-65.5 22v-446q55 0 103.5 18.5t78.5 63.5l29 -30q-31 -57 -88 -92t-123 -45v-89l-62 -6v93 q-68 3 -118 27t-86 62.5t-56 88.5t-20 105zM188 316q0 -42 11 -81t32 -69.5t48 -54t59 -34.5v439q-36 -8 -62 -24.5t-46.5 -42t-31 -61t-10.5 -72.5z" />
<glyph unicode="&#xa3;" d="M5 31q55 49 85 92.5t46 80.5t19.5 67t3.5 53q0 14 -1 28.5t-2 30.5h-117l-7 7l9 42l110 3q-5 32 -8 64t-3 62q0 36 12 75t34 76t55 71t72 59t83 40t92 15q10 0 24 -2.5t26.5 -9.5t21 -18.5t8.5 -29.5q0 -34 -15 -51.5t-40 -28.5q-19 25 -51.5 37.5t-62.5 12.5 q-32 0 -55 -16.5t-36 -41.5t-20.5 -58.5t-7.5 -67.5q0 -38 8 -84.5t10 -98.5l205 8l8 -7l-9 -58h-204q-4 -58 -30.5 -114.5t-86.5 -116.5l2 -4q9 4 38 4q31 0 60.5 -11t59.5 -24t60 -24t54 -11q28 0 47.5 12t35 31.5t27.5 41.5t23 46l40 -9q-7 -23 -14 -50.5t-13 -53.5 t-9.5 -48.5t-3.5 -35.5q-37 -15 -75 -25.5t-77 -10.5q-56 0 -94 13t-68.5 28.5t-58 28.5t-62.5 13q-37 0 -64 -18.5t-53 -47.5z" />
<glyph unicode="&#xa4;" d="M55 210l99 86q-54 63 -54 151t54 151l-83 79l43 65l86 -100q29 22 64.5 33.5t75.5 11.5q38 0 73 -11.5t64 -31.5l82 85l65 -43l-99 -86q26 -31 40.5 -69.5t14.5 -83.5t-14.5 -83t-40.5 -69l82 -78l-43 -65l-86 99q-29 -21 -64.5 -32.5t-73.5 -11.5q-40 0 -75 12t-63 33 l-82 -85zM176 448q0 -37 12 -69t33.5 -56t51.5 -38t67 -14t67 14t51.5 38t33.5 56t12 69t-12 69.5t-33.5 56.5t-51.5 38t-67 14t-67 -14t-51.5 -38t-33.5 -56.5t-12 -69.5z" />
<glyph unicode="&#xa5;" d="M-67 812l2 38q34 0 81 -1t119 -1q42 0 78 1t71 1l3 -36q-42 -4 -61 -12t-19 -26q0 -12 7 -29t19 -38l133 -235l127 221q19 32 25.5 49t6.5 31q0 17 -21 25t-67 12l2 38q18 0 34 -0.5t32 -0.5q17 0 35 -0.5t41 -0.5q37 0 71.5 1t71.5 1l3 -36q-36 -3 -59 -9t-42.5 -22.5 t-39 -45.5t-47.5 -75q-24 -40 -43 -72t-34.5 -60.5t-29.5 -56.5t-28 -59h197l-4 -54h-201v-88h194l-4 -54h-190v-91q0 -24 4 -40t18 -26.5t42.5 -15.5t77.5 -7l-2 -38q-21 0 -47.5 0.5t-54.5 0.5q-27 0 -54 0.5t-51 0.5q-20 0 -53.5 -0.5t-57.5 -0.5t-47.5 -0.5t-42.5 -0.5 l-3 36q46 3 74 9t42 20t18.5 37.5t4.5 61.5v54h-169l-4 54h173v88h-180l-4 54h173q-21 45 -37.5 76.5t-33.5 60t-36 59t-45 73.5q-23 39 -39.5 63t-34 38.5t-39.5 19.5t-55 8z" />
<glyph unicode="&#xa6;" horiz-adv-x="449" d="M180 210h89v-530h-89v530zM180 430v530h89v-530h-89z" />
<glyph unicode="&#xa7;" horiz-adv-x="792" d="M86 443q0 33 6.5 62t19.5 56.5t33.5 55.5t62.5 60q-13 29 -13 57q0 40 25.5 83.5t64.5 79.5t86 59.5t89 23.5q22 0 44.5 -5.5t40.5 -15t29 -23.5t11 -32q0 -24 -18 -42t-53 -24q-20 19 -52 33.5t-62 14.5q-18 0 -38 -7t-35.5 -21t-23.5 -34.5t-8 -41.5q0 -43 34 -77 q35 -35 75 -74.5t79.5 -80t76 -82t65.5 -81.5q32 -46 51.5 -90.5t19.5 -84.5q0 -33 -7 -62t-20.5 -57t-34.5 -56t-63 -58q11 -25 11 -49q0 -44 -25 -89.5t-63.5 -82t-85.5 -60t-91 -23.5q-17 0 -37 4.5t-37 14t-28.5 24.5t-11.5 37q0 29 19 42t46 17q22 -20 51.5 -32.5 t59.5 -12.5q20 0 39.5 9t34.5 24.5t22 36t7 45.5q0 21 -9 41q-5 9 -11 17.5t-14 16.5q-35 35 -74 73t-78 77.5t-75 80t-64 80.5q-32 46 -51.5 89.5t-19.5 83.5zM184 516q0 -40 19 -81.5t48 -83.5q23 -33 50.5 -65t56 -62t56.5 -57.5t52 -51.5q22 -22 43.5 -45.5t38.5 -48.5 q17 17 33.5 45.5t16.5 72.5q0 40 -19 82.5t-48 84.5q-23 33 -51 66t-57.5 64.5t-58.5 60t-53 52.5q-21 21 -41.5 42.5t-36.5 44.5q-17 -16 -33 -45.5t-16 -74.5z" />
<glyph unicode="&#xa8;" horiz-adv-x="700" d="M157 784q0 27 19 46.5t46 19.5q28 0 47 -19t19 -47q0 -27 -19.5 -46.5t-46.5 -19.5t-46 19.5t-19 46.5zM412 784q0 28 19 47t46 19q28 0 47 -19t19 -47q0 -27 -19.5 -46.5t-46.5 -19.5t-46 19.5t-19 46.5z" />
<glyph unicode="&#xa9;" horiz-adv-x="1170" d="M100 481q0 99 38.5 185.5t104.5 150.5t154.5 101t188.5 37q99 0 187 -37t154 -101t104.5 -150.5t38.5 -185.5q0 -100 -38.5 -186.5t-104.5 -151t-154 -101.5t-187 -37q-100 0 -188.5 37t-154.5 101.5t-104.5 151t-38.5 186.5zM164 480q0 -89 33.5 -166.5t90.5 -135 t133.5 -90.5t163.5 -33t163.5 33t133.5 90.5t90.5 135t33.5 166.5t-33.5 166.5t-90.5 135t-133.5 90.5t-163.5 33t-163.5 -33t-133.5 -90.5t-90.5 -135t-33.5 -166.5zM308 477q0 67 26 117.5t70 84.5t102.5 50.5t123.5 16.5q34 0 72.5 -5t71.5 -14q-3 -35 -4 -67.5t-1 -67.5 l-34 -3q-4 60 -37 88t-81 28q-47 0 -83 -15.5t-61 -44t-37.5 -68t-12.5 -86.5t12 -88.5t36 -73t59.5 -49.5t82.5 -18q26 0 50.5 7.5t42.5 25.5q17 16 29.5 41t24.5 56l31 -8q-9 -38 -14.5 -70t-8.5 -69q-45 -12 -87 -19.5t-87 -7.5q-62 0 -114.5 18t-90.5 52t-59.5 82 t-21.5 107z" />
<glyph unicode="&#xaa;" horiz-adv-x="534" d="M60 500q0 40 23.5 68.5t61.5 42.5q29 11 76.5 21t110.5 17l1 12v50q0 36 -18 59.5t-56 23.5q-42 0 -59.5 -26t-18.5 -61q-13 -10 -43 -10q-22 0 -42.5 8t-20.5 25t22 38t55 39t70.5 30.5t69.5 12.5q26 0 50 -6.5t42.5 -20.5t29.5 -35.5t11 -51.5q0 -45 -1 -104.5 t-1 -131.5q0 -61 43 -61q15 0 38 14l15 -26q-18 -17 -43.5 -28t-51.5 -11q-29 0 -50.5 12.5t-34.5 48.5q-8 -5 -25.5 -15.5t-39 -21t-46.5 -18.5t-48 -8q-27 0 -49 9.5t-37.5 25t-24.5 36t-9 43.5zM175 525q0 -29 15.5 -49t46.5 -20q23 0 48 10.5t45 27.5q0 29 1 57t1 56 q-19 -2 -39 -5t-38.5 -8t-34.5 -12t-27 -17q-18 -18 -18 -40z" />
<glyph unicode="&#xab;" horiz-adv-x="657" d="M100 278v14q45 42 96.5 99.5t108.5 127.5l32 -20l-131 -214l131 -214l-32 -20q-57 70 -108.5 127.5t-96.5 99.5zM320 278v14q45 42 96.5 99.5t108.5 127.5l32 -20l-131 -214l131 -214l-32 -20q-57 70 -108.5 127.5t-96.5 99.5z" />
<glyph unicode="&#xac;" d="M61 262l5 66h544v-318l-66 -5v257h-483z" />
<glyph unicode="&#xad;" horiz-adv-x="435" d="M30 270l11 78h366l2 -55l-369 -33z" />
<glyph unicode="&#xae;" horiz-adv-x="1170" d="M100 481q0 99 38.5 185.5t104.5 150.5t154.5 101t188.5 37q99 0 187 -37t154 -101t104.5 -150.5t38.5 -185.5q0 -100 -38.5 -186.5t-104.5 -151t-154 -101.5t-187 -37q-100 0 -188.5 37t-154.5 101.5t-104.5 151t-38.5 186.5zM164 480q0 -89 33.5 -166.5t90.5 -135 t133.5 -90.5t163.5 -33t163.5 33t133.5 90.5t90.5 135t33.5 166.5t-33.5 166.5t-90.5 135t-133.5 90.5t-163.5 33t-163.5 -33t-133.5 -90.5t-90.5 -135t-33.5 -166.5zM358 707l2 29q17 0 47.5 -0.5t59.5 -0.5q27 0 55 2t58 2q31 0 66 -4.5t64 -17t48.5 -36t19.5 -61.5 q0 -51 -31 -87t-76 -53q16 -30 31.5 -58.5t28.5 -52.5t23.5 -42t17.5 -28q9 -13 17 -21t18.5 -12.5t24 -6.5t33.5 -3l-2 -28q-21 0 -54.5 0.5t-65.5 0.5h-33l-10 -1q-5 10 -14.5 30.5t-23 47.5t-31 59.5t-37.5 66.5q-8 13 -14.5 18.5t-23.5 5.5h-35v-152q0 -13 2 -21.5 t9 -14t21 -8.5t38 -4l-2 -28q-24 0 -52.5 0.5t-70.5 0.5q-29 0 -59 -0.5t-45 -0.5l-2 28q21 1 34.5 4.5t21 10.5t10.5 19t3 31v340q0 25 -13 34.5t-58 11.5zM521 493h34q52 0 85 30.5t33 87.5q0 45 -30.5 66.5t-75.5 21.5q-26 0 -36 -11t-10 -36v-159z" />
<glyph unicode="&#xaf;" horiz-adv-x="700" d="M153 792h394l-4 -61h-386z" />
<glyph unicode="&#xb0;" horiz-adv-x="476" d="M91 661q0 30 11.5 57t31.5 47.5t47 32t57 11.5t57 -11.5t47.5 -32t32 -47.5t11.5 -57t-11.5 -57t-32 -47t-47.5 -31.5t-57 -11.5t-57 11.5t-47 31.5t-31.5 47t-11.5 57zM134 661q0 -23 8 -42.5t22 -33.5t33 -22.5t41 -8.5q21 0 40.5 8.5t33.5 22.5t22.5 33.5t8.5 42.5 q0 22 -8.5 42t-22.5 34.5t-33.5 23t-40.5 8.5q-22 0 -41 -8.5t-33 -23t-22 -34.5t-8 -42z" />
<glyph unicode="&#xb1;" d="M60 10l5 66h555l-5 -66h-555zM61 322l5 66h241v192l66 5v-197h247l-5 -66h-242v-192l-66 -5v197h-246z" />
<glyph unicode="&#xb2;" horiz-adv-x="525" d="M34 396l165 156q42 40 77 77t55 76q9 18 14.5 40.5t5.5 44.5q0 53 -35.5 85t-87.5 32q-51 0 -82.5 -33t-34.5 -87l-36 2q0 40 -1 72.5t-4 63.5q36 26 82 40.5t94 14.5q36 0 73.5 -10.5t68.5 -31t50.5 -51.5t19.5 -71q0 -41 -14.5 -74t-37.5 -61.5t-52 -54.5t-58 -53 l-133 -120l213 4q13 0 23 2.5t19.5 10t19 22t21.5 38.5l31 -9q-5 -17 -10 -36.5t-9.5 -39.5t-7.5 -38.5t-4 -31.5q-69 0 -112 0.5t-72 0.5q-28 0 -47 0.5t-38 0.5q-14 0 -36 -0.5t-44 -0.5t-41 -0.5t-28 -0.5z" />
<glyph unicode="&#xb3;" horiz-adv-x="525" d="M39 442q0 20 19 35.5t49 19.5q17 -45 53.5 -71.5t81.5 -26.5q27 0 50 10t39 28t25 42.5t9 52.5q0 66 -38 97t-104 31q-16 0 -32 -2t-33 -6l-7 41q30 5 63.5 12t61 21t46 37t18.5 59q0 22 -9 39.5t-24.5 29.5t-35 18t-40.5 6q-50 0 -85.5 -29t-37.5 -80l-36 2 q0 38 -0.5 67t-2.5 58q45 22 88.5 34.5t95.5 12.5q28 0 61.5 -6.5t62.5 -21.5t48 -38.5t19 -56.5q0 -45 -26.5 -78t-66.5 -62q60 -17 94 -60.5t34 -100.5q0 -54 -23 -93.5t-60.5 -65.5t-85.5 -38.5t-97 -12.5q-22 0 -52 4.5t-57 16t-46 30t-19 45.5z" />
<glyph unicode="&#xb4;" horiz-adv-x="700" d="M322 648l83 253l105 -9l5 -11l-155 -245l-35 6z" />
<glyph unicode="&#xb5;" horiz-adv-x="716" d="M83 567q38 6 81 12t54 11l11 -8q-3 -26 -5 -54t-3.5 -55t-2 -51.5t-0.5 -42.5v-142q0 -45 8.5 -76.5t25.5 -51.5t38.5 -29t51.5 -9t61.5 16t57.5 48v295q0 22 -0.5 38t-1 31t-1.5 30.5t-2 37.5q38 6 80.5 12t53.5 11l11 -8q-3 -26 -5 -54t-3.5 -55t-2 -51.5t-0.5 -42.5 v-250q0 -80 54 -80q23 0 52 17l18 -35q-23 -22 -55 -35.5t-73 -13.5q-31 0 -48 3t-32 12.5t-25 26.5t-16 42q-20 -18 -36 -30t-41 -25.5t-51 -22t-52 -8.5q-23 0 -53 14t-56 49l-6 -3q2 -45 7 -90.5t17 -86t32.5 -88.5t52.5 -100q-10 -26 -30.5 -43.5t-63.5 -17.5 q-22 0 -32.5 6.5t-17.5 16.5t-11.5 23t-7.5 26q-14 69 -21 153t-7 164v427q0 22 -0.5 38t-1 31t-1.5 30.5t-2 37.5z" />
<glyph unicode="&#xb6;" horiz-adv-x="1052" d="M150 614q0 80 29 144.5t81.5 110.5t124.5 70.5t159 24.5h449v-51h-124v-1236h-68v1236h-160v-1236h-69v582q-88 0 -165 21t-134 64.5t-90 110.5t-33 159z" />
<glyph unicode="&#xb7;" horiz-adv-x="342" d="M83 340q0 20 7.5 37.5t20.5 31t30 21t36 7.5t35.5 -7.5t29.5 -21t20.5 -31t7.5 -37.5t-7.5 -37.5t-20.5 -31t-29.5 -21t-35.5 -7.5t-36 7.5t-30 21t-20.5 31t-7.5 37.5z" />
<glyph unicode="&#xb8;" horiz-adv-x="700" d="M191 -280q0 17 16 33t33 21q16 -22 33 -34t39 -12q30 0 30 31q0 18 -12 33.5t-28 31.5q-17 17 -31 33.5t-14 33.5q0 18 19.5 45.5t73.5 65.5l39 -4q-29 -15 -40.5 -29t-11.5 -28t12 -28t27 -30q16 -17 30 -34t14 -34q0 -18 -13 -44t-35 -50t-51 -40.5t-60 -16.5 q-11 0 -23 3.5t-22.5 10.5t-17.5 17.5t-7 24.5z" />
<glyph unicode="&#xb9;" horiz-adv-x="525" d="M83 900q64 16 124 35t120 40l7 -6q-2 -18 -3.5 -38.5t-2 -40.5t-1 -38t-0.5 -30v-345q0 -17 2.5 -29.5t13.5 -20.5t33.5 -12.5t63.5 -5.5l-1 -34q-11 0 -25 0.5t-34 0.5q-19 0 -44.5 0.5t-59.5 0.5q-67 0 -109 -1t-62 -1l-2 33q44 1 69.5 5.5t38 15.5t15.5 31t3 52v369 l-138 -20z" />
<glyph unicode="&#xba;" horiz-adv-x="596" d="M60 614q0 49 18.5 92t50.5 75t75 50.5t93 18.5q54 0 98.5 -18t75.5 -49t48 -72.5t17 -88.5q0 -49 -18.5 -92t-51 -75t-76 -50.5t-93.5 -18.5q-54 0 -97.5 18t-74.5 48.5t-48 72t-17 89.5zM170 637q0 -34 8 -70.5t24.5 -67t42.5 -50t62 -19.5q31 0 54 15.5t37.5 39.5 t21.5 54.5t7 60.5q0 35 -7.5 71.5t-24 66.5t-42.5 49t-63 19q-32 0 -55 -15t-37.5 -39t-21 -54.5t-6.5 -60.5z" />
<glyph unicode="&#xbb;" horiz-adv-x="657" d="M100 71l131 214l-131 214l32 20q57 -70 108.5 -127.5t96.5 -99.5v-14q-45 -42 -96.5 -99.5t-108.5 -127.5zM320 71l131 214l-131 214l32 20q57 -70 108.5 -127.5t96.5 -99.5v-14q-45 -42 -96.5 -99.5t-108.5 -127.5z" />
<glyph unicode="&#xbc;" horiz-adv-x="1250" d="M83 900q64 16 124 35t120 40l7 -6q-2 -18 -3.5 -38.5t-2 -40.5t-1 -38t-0.5 -30v-345q0 -17 2.5 -29.5t13.5 -20.5t33.5 -12.5t63.5 -5.5l-1 -34q-11 0 -25 0.5t-34 0.5q-19 0 -44.5 0.5t-59.5 0.5q-67 0 -109 -1t-62 -1l-2 33q44 1 69.5 5.5t38 15.5t15.5 31t3 52v369 l-138 -20zM275 -21l648 1032l52 -32l-652 -1033zM643 143q42 52 88.5 112t93 120.5t90 118t79.5 104.5l42 -9q-4 -31 -6 -62t-2 -68v-281l81 1l9 -9l-4 -61h-86v-122q-25 -1 -48 -2.5t-52 -3.5q1 19 1.5 33t0.5 22v74l-273 -1zM731 173l199 4l-4 257q-51 -63 -97.5 -126 t-97.5 -135z" />
<glyph unicode="&#xbd;" horiz-adv-x="1250" d="M83 900q64 16 124 35t120 40l7 -6q-2 -18 -3.5 -38.5t-2 -40.5t-1 -38t-0.5 -30v-345q0 -17 2.5 -29.5t13.5 -20.5t33.5 -12.5t63.5 -5.5l-1 -34q-11 0 -25 0.5t-34 0.5q-19 0 -44.5 0.5t-59.5 0.5q-67 0 -109 -1t-62 -1l-2 33q44 1 69.5 5.5t38 15.5t15.5 31t3 52v369 l-138 -20zM275 -21l648 1032l52 -32l-652 -1033zM759 23l165 156q42 40 77 77t55 76q9 18 14.5 40.5t5.5 44.5q0 53 -35.5 85t-87.5 32q-51 0 -82.5 -33t-34.5 -87l-36 2q0 40 -1 72.5t-4 63.5q36 26 82 40.5t94 14.5q36 0 73.5 -10.5t68.5 -31t50.5 -51.5t19.5 -71 q0 -41 -14.5 -74t-37.5 -61.5t-52 -54.5t-58 -53l-133 -120l213 4q13 0 23 2.5t19.5 10t19 22t21.5 38.5l31 -9q-5 -17 -10 -36.5t-9.5 -39.5t-7.5 -38.5t-4 -31.5q-69 0 -112 0.5t-72 0.5q-28 0 -47 0.5t-38 0.5q-14 0 -36 -0.5t-44 -0.5t-41 -0.5t-28 -0.5z" />
<glyph unicode="&#xbe;" horiz-adv-x="1250" d="M39 442q0 20 19 35.5t49 19.5q17 -45 53.5 -71.5t81.5 -26.5q27 0 50 10t39 28t25 42.5t9 52.5q0 66 -38 97t-104 31q-16 0 -32 -2t-33 -6l-7 41q30 5 63.5 12t61 21t46 37t18.5 59q0 22 -9 39.5t-24.5 29.5t-35 18t-40.5 6q-50 0 -85.5 -29t-37.5 -80l-36 2 q0 38 -0.5 67t-2.5 58q45 22 88.5 34.5t95.5 12.5q28 0 61.5 -6.5t62.5 -21.5t48 -38.5t19 -56.5q0 -45 -26.5 -78t-66.5 -62q60 -17 94 -60.5t34 -100.5q0 -54 -23 -93.5t-60.5 -65.5t-85.5 -38.5t-97 -12.5q-22 0 -52 4.5t-57 16t-46 30t-19 45.5zM275 -21l648 1032 l52 -32l-652 -1033zM643 143q42 52 88.5 112t93 120.5t90 118t79.5 104.5l42 -9q-4 -31 -6 -62t-2 -68v-281l81 1l9 -9l-4 -61h-86v-122q-25 -1 -48 -2.5t-52 -3.5q1 19 1.5 33t0.5 22v74l-273 -1zM731 173l199 4l-4 257q-51 -63 -97.5 -126t-97.5 -135z" />
<glyph unicode="&#xbf;" horiz-adv-x="524" d="M25 -136q0 32 13.5 57t34.5 46.5t46 40t47 36.5q42 32 66.5 59t24.5 65q0 36 -15 64.5t-40 57.5l32 34q79 -56 116 -99.5t37 -89.5q0 -29 -13 -53.5t-33.5 -46t-44.5 -40t-46 -35.5q-21 -17 -40.5 -31.5t-33.5 -30t-22.5 -36t-8.5 -49.5q0 -38 27 -62.5t59 -24.5 q45 0 74 21t55 57h6q21 -8 42 -28.5t21 -43.5q0 -25 -17 -43.5t-41 -31.5t-50.5 -19.5t-45.5 -6.5q-40 0 -87.5 21t-82.5 54.5t-57.5 75t-22.5 82.5zM197 510q0 33 22.5 56.5t54.5 23.5t54.5 -23.5t22.5 -56.5t-22.5 -56.5t-54.5 -23.5t-54.5 23.5t-22.5 56.5z" />
<glyph unicode="&#xc0;" horiz-adv-x="962" d="M-32 37q39 3 64 9.5t43.5 23t35 47t38.5 81.5l287 677q12 30 20.5 52.5t18.5 48.5l70 8q11 -48 23.5 -88t23.5 -73l225 -652q15 -44 27 -69t28 -37.5t40.5 -17.5t63.5 -8l-3 -38q-42 0 -92.5 1t-108.5 1q-56 0 -99 -1t-85 -1l-3 36q56 4 80 12.5t24 34.5q0 11 -4 25.5 t-10 32.5l-71 212h-317l-77 -196q-20 -57 -20 -72q0 -24 24.5 -34t87.5 -13l-3 -38q-37 0 -83 1t-93 1q-37 0 -76.5 -1t-76.5 -1zM288 1148l78 66l210 -162l2 -7l-21 -25l-267 116zM310 414h275l-125 376z" />
<glyph unicode="&#xc1;" horiz-adv-x="962" d="M-32 37q39 3 64 9.5t43.5 23t35 47t38.5 81.5l287 677q12 30 20.5 52.5t18.5 48.5l70 8q11 -48 23.5 -88t23.5 -73l225 -652q15 -44 27 -69t28 -37.5t40.5 -17.5t63.5 -8l-3 -38q-42 0 -92.5 1t-108.5 1q-56 0 -99 -1t-85 -1l-3 36q56 4 80 12.5t24 34.5q0 11 -4 25.5 t-10 32.5l-71 212h-317l-77 -196q-20 -57 -20 -72q0 -24 24.5 -34t87.5 -13l-3 -38q-37 0 -83 1t-93 1q-37 0 -76.5 -1t-76.5 -1zM310 414h275l-125 376zM436 1045l2 7l210 162l78 -66l-2 -12l-267 -116z" />
<glyph unicode="&#xc2;" horiz-adv-x="962" d="M-32 37q39 3 64 9.5t43.5 23t35 47t38.5 81.5l287 677q12 30 20.5 52.5t18.5 48.5l70 8q11 -48 23.5 -88t23.5 -73l225 -652q15 -44 27 -69t28 -37.5t40.5 -17.5t63.5 -8l-3 -38q-42 0 -92.5 1t-108.5 1q-56 0 -99 -1t-85 -1l-3 36q56 4 80 12.5t24 34.5q0 11 -4 25.5 t-10 32.5l-71 212h-317l-77 -196q-20 -57 -20 -72q0 -24 24.5 -34t87.5 -13l-3 -38q-37 0 -83 1t-93 1q-37 0 -76.5 -1t-76.5 -1zM310 414h275l-125 376zM315 1030l154 178l82 6l148 -184l-4 -6l-38 -10l-150 115l-150 -115l-38 10z" />
<glyph unicode="&#xc3;" horiz-adv-x="962" d="M-32 37q39 3 64 9.5t43.5 23t35 47t38.5 81.5l287 677q12 30 20.5 52.5t18.5 48.5l70 8q11 -48 23.5 -88t23.5 -73l225 -652q15 -44 27 -69t28 -37.5t40.5 -17.5t63.5 -8l-3 -38q-42 0 -92.5 1t-108.5 1q-56 0 -99 -1t-85 -1l-3 36q56 4 80 12.5t24 34.5q0 11 -4 25.5 t-10 32.5l-71 212h-317l-77 -196q-20 -57 -20 -72q0 -24 24.5 -34t87.5 -13l-3 -38q-37 0 -83 1t-93 1q-37 0 -76.5 -1t-76.5 -1zM303 1057q10 23 23.5 43.5t30.5 36.5t37 25t43 9q19 0 36.5 -7l37.5 -15q43 -17 61 -24t31 -7q28 0 46 16t34 39l37 -17q-11 -23 -24.5 -44 t-30.5 -36.5t-37 -25t-43 -9.5q-19 0 -36.5 7l-37.5 15q-42 17 -60.5 24t-31.5 7q-27 0 -45.5 -15.5t-33.5 -38.5zM310 414h275l-125 376z" />
<glyph unicode="&#xc4;" horiz-adv-x="962" d="M-32 37q39 3 64 9.5t43.5 23t35 47t38.5 81.5l287 677q12 30 20.5 52.5t18.5 48.5l70 8q11 -48 23.5 -88t23.5 -73l225 -652q15 -44 27 -69t28 -37.5t40.5 -17.5t63.5 -8l-3 -38q-42 0 -92.5 1t-108.5 1q-56 0 -99 -1t-85 -1l-3 36q56 4 80 12.5t24 34.5q0 11 -4 25.5 t-10 32.5l-71 212h-317l-77 -196q-20 -57 -20 -72q0 -24 24.5 -34t87.5 -13l-3 -38q-37 0 -83 1t-93 1q-37 0 -76.5 -1t-76.5 -1zM304 1106q0 27 19 46.5t46 19.5q28 0 47 -19t19 -47q0 -27 -19.5 -46.5t-46.5 -19.5t-46 19.5t-19 46.5zM310 414h275l-125 376zM579 1106 q0 28 19 47t46 19q28 0 47 -19t19 -47q0 -27 -19.5 -46.5t-46.5 -19.5t-46 19.5t-19 46.5z" />
<glyph unicode="&#xc5;" horiz-adv-x="962" d="M-32 37q39 3 64 9.5t43.5 23t35 47t38.5 81.5l287 677q12 30 20.5 52.5t18.5 48.5l70 8q11 -48 23.5 -88t23.5 -73l225 -652q15 -44 27 -69t28 -37.5t40.5 -17.5t63.5 -8l-3 -38q-42 0 -92.5 1t-108.5 1q-56 0 -99 -1t-85 -1l-3 36q56 4 80 12.5t24 34.5q0 11 -4 25.5 t-10 32.5l-71 212h-317l-77 -196q-20 -57 -20 -72q0 -24 24.5 -34t87.5 -13l-3 -38q-37 0 -83 1t-93 1q-37 0 -76.5 -1t-76.5 -1zM310 414h275l-125 376zM384 1119q0 22 10 41.5t27.5 33.5t39.5 22t46 8q27 0 49.5 -8t39 -22t25.5 -32t9 -39q0 -22 -10 -41t-27.5 -32.5 t-39.5 -21.5t-46 -8q-54 0 -88.5 28.5t-34.5 70.5zM438 1123q0 -32 18.5 -51t50.5 -19q34 0 51 18.5t17 47.5t-17 50.5t-51 21.5t-51.5 -19.5t-17.5 -48.5z" />
<glyph unicode="&#xc6;" horiz-adv-x="1336" d="M-44 36q40 2 68.5 10t53.5 26.5t50.5 48t59.5 76.5l495 688q5 8 5 13q0 13 -30 17.5t-87 6.5l3 38q19 0 44 -0.5t51 -0.5q27 0 55.5 -0.5t52.5 -0.5q49 0 166 1t318 1q-6 -53 -9 -112t-4 -131l-41 -1q-9 59 -20 96.5t-31 59t-52 29.5t-83 8h-124q-30 0 -38.5 -6t-8.5 -31 v-390l319 11l7 -7l-2 -85q-85 8 -162 11t-162 4v-251q0 -34 4 -56t17.5 -34.5t38 -17.5t65.5 -5h54q58 0 94.5 9.5t61.5 32t44.5 59.5t42.5 91l41 -9q-8 -29 -15 -62t-13 -65t-10 -61t-5 -47q-102 0 -180 0.5t-139 0.5t-110.5 0.5t-79.5 0.5q-20 0 -46 -0.5t-52 -0.5 t-49.5 -0.5t-37.5 -0.5l-3 36q46 3 74 9.5t43 20t20 37t5 61.5v253h-131q-33 0 -71.5 -0.5t-87.5 -1.5l-181 -258q-21 -31 -33.5 -51t-12.5 -34q0 -17 21 -24.5t73 -9.5l-3 -38q-37 0 -80 1t-92 1q-37 0 -79.5 -1t-79.5 -1zM461 470l254 8v356z" />
<glyph unicode="&#xc7;" horiz-adv-x="1013" d="M49 470q0 128 47 223.5t127.5 159.5t186.5 95.5t231 31.5q61 0 130.5 -9t131.5 -25q-6 -64 -7.5 -121.5t-1.5 -121.5l-46 -4q-4 59 -23.5 102.5t-52 71t-74.5 41t-93 13.5q-86 0 -162 -30.5t-127.5 -87t-78 -136t-26.5 -175.5t24 -180.5t72.5 -147t121.5 -98t158 -35.5 q54 0 102.5 15t86.5 49q36 32 62.5 77.5t52.5 108.5l44 -10q-17 -66 -27 -124t-17 -124q-77 -22 -151.5 -34.5t-147.5 -14.5q-13 -10 -18 -19.5t-5 -19.5q0 -14 12 -28t27 -30q16 -17 30 -34t14 -34q0 -18 -13 -44t-35 -50t-51 -40.5t-60 -16.5q-11 0 -23 3.5t-22.5 10.5 t-17.5 17.5t-7 24.5q0 17 16 33t33 21q16 -22 33 -34t39 -12q30 0 30 31q0 18 -12 33.5t-28 31.5q-17 17 -31 33.5t-14 33.5q0 16 13.5 38.5t50.5 51.5q-116 4 -207 40.5t-157 100t-103 152t-37 196.5z" />
<glyph unicode="&#xc8;" horiz-adv-x="816" d="M36 36q46 3 74 9.5t43 20t20 37t5 61.5v669q0 24 -4.5 40t-18 26.5t-39 15.5t-68.5 7l3 38q19 0 43.5 -0.5t49.5 -0.5q26 0 54 -0.5t49 -0.5q39 0 164 1t320 1q-6 -51 -9 -107t-4 -119l-44 -1q-9 52 -20 86t-31 53.5t-52 28t-83 8.5h-127q-30 0 -38.5 -6t-8.5 -31v-343 l324 10l7 -7l-2 -85q-91 8 -172.5 11t-156.5 5v-298q0 -34 4 -56t17.5 -34.5t38 -17.5t65.5 -5h58q58 0 94.5 9.5t61.5 32t44.5 58.5t42.5 90l43 -9q-8 -29 -15 -62t-13 -65t-10 -60t-5 -46q-201 0 -324.5 1t-184.5 1q-25 0 -49.5 -0.5t-50.5 -0.5t-50.5 -0.5t-41.5 -0.5z M211 1148l78 66l210 -162l2 -7l-21 -25l-267 116z" />
<glyph unicode="&#xc9;" horiz-adv-x="816" d="M36 36q46 3 74 9.5t43 20t20 37t5 61.5v669q0 24 -4.5 40t-18 26.5t-39 15.5t-68.5 7l3 38q19 0 43.5 -0.5t49.5 -0.5q26 0 54 -0.5t49 -0.5q39 0 164 1t320 1q-6 -51 -9 -107t-4 -119l-44 -1q-9 52 -20 86t-31 53.5t-52 28t-83 8.5h-127q-30 0 -38.5 -6t-8.5 -31v-343 l324 10l7 -7l-2 -85q-91 8 -172.5 11t-156.5 5v-298q0 -34 4 -56t17.5 -34.5t38 -17.5t65.5 -5h58q58 0 94.5 9.5t61.5 32t44.5 58.5t42.5 90l43 -9q-8 -29 -15 -62t-13 -65t-10 -60t-5 -46q-201 0 -324.5 1t-184.5 1q-25 0 -49.5 -0.5t-50.5 -0.5t-50.5 -0.5t-41.5 -0.5z M359 1045l2 7l210 162l78 -66l-2 -12l-267 -116z" />
<glyph unicode="&#xca;" horiz-adv-x="816" d="M36 36q46 3 74 9.5t43 20t20 37t5 61.5v669q0 24 -4.5 40t-18 26.5t-39 15.5t-68.5 7l3 38q19 0 43.5 -0.5t49.5 -0.5q26 0 54 -0.5t49 -0.5q39 0 164 1t320 1q-6 -51 -9 -107t-4 -119l-44 -1q-9 52 -20 86t-31 53.5t-52 28t-83 8.5h-127q-30 0 -38.5 -6t-8.5 -31v-343 l324 10l7 -7l-2 -85q-91 8 -172.5 11t-156.5 5v-298q0 -34 4 -56t17.5 -34.5t38 -17.5t65.5 -5h58q58 0 94.5 9.5t61.5 32t44.5 58.5t42.5 90l43 -9q-8 -29 -15 -62t-13 -65t-10 -60t-5 -46q-201 0 -324.5 1t-184.5 1q-25 0 -49.5 -0.5t-50.5 -0.5t-50.5 -0.5t-41.5 -0.5z M238 1030l154 178l82 6l148 -184l-4 -6l-38 -10l-150 115l-150 -115l-38 10z" />
<glyph unicode="&#xcb;" horiz-adv-x="816" d="M36 36q46 3 74 9.5t43 20t20 37t5 61.5v669q0 24 -4.5 40t-18 26.5t-39 15.5t-68.5 7l3 38q19 0 43.5 -0.5t49.5 -0.5q26 0 54 -0.5t49 -0.5q39 0 164 1t320 1q-6 -51 -9 -107t-4 -119l-44 -1q-9 52 -20 86t-31 53.5t-52 28t-83 8.5h-127q-30 0 -38.5 -6t-8.5 -31v-343 l324 10l7 -7l-2 -85q-91 8 -172.5 11t-156.5 5v-298q0 -34 4 -56t17.5 -34.5t38 -17.5t65.5 -5h58q58 0 94.5 9.5t61.5 32t44.5 58.5t42.5 90l43 -9q-8 -29 -15 -62t-13 -65t-10 -60t-5 -46q-201 0 -324.5 1t-184.5 1q-25 0 -49.5 -0.5t-50.5 -0.5t-50.5 -0.5t-41.5 -0.5z M227 1106q0 27 19 46.5t46 19.5q28 0 47 -19t19 -47q0 -27 -19.5 -46.5t-46.5 -19.5t-46 19.5t-19 46.5zM502 1106q0 28 19 47t46 19q28 0 47 -19t19 -47q0 -27 -19.5 -46.5t-46.5 -19.5t-46 19.5t-19 46.5z" />
<glyph unicode="&#xcc;" horiz-adv-x="485" d="M49 922l2 38q16 0 39 -0.5t49 -0.5q27 0 59.5 -0.5t56.5 -0.5q30 0 53.5 0.5t46.5 0.5t43.5 0.5t34.5 0.5l3 -36q-39 -3 -63 -9.5t-38 -20t-19 -37t-5 -60.5v-670q0 -24 4 -40t17.5 -26.5t38.5 -15.5t67 -7l-2 -38q-16 0 -39.5 0.5t-50.5 0.5q-26 0 -58.5 0.5t-56.5 0.5 q-20 0 -48 -0.5t-51 -0.5t-43.5 -0.5t-34.5 -0.5l-3 36q39 3 63 9.5t37.5 20t18.5 37t5 61.5v669q0 24 -4 40t-17.5 26.5t-38.5 15.5t-66 7zM49 1148l78 66l210 -162l2 -7l-21 -25l-267 116z" />
<glyph unicode="&#xcd;" horiz-adv-x="485" d="M49 922l2 38q16 0 39 -0.5t49 -0.5q27 0 59.5 -0.5t56.5 -0.5q30 0 53.5 0.5t46.5 0.5t43.5 0.5t34.5 0.5l3 -36q-39 -3 -63 -9.5t-38 -20t-19 -37t-5 -60.5v-670q0 -24 4 -40t17.5 -26.5t38.5 -15.5t67 -7l-2 -38q-16 0 -39.5 0.5t-50.5 0.5q-26 0 -58.5 0.5t-56.5 0.5 q-20 0 -48 -0.5t-51 -0.5t-43.5 -0.5t-34.5 -0.5l-3 36q39 3 63 9.5t37.5 20t18.5 37t5 61.5v669q0 24 -4 40t-17.5 26.5t-38.5 15.5t-66 7zM157 1045l2 7l210 162l78 -66l-2 -12l-267 -116z" />
<glyph unicode="&#xce;" horiz-adv-x="485" d="M49 922l2 38q16 0 39 -0.5t49 -0.5q27 0 59.5 -0.5t56.5 -0.5q30 0 53.5 0.5t46.5 0.5t43.5 0.5t34.5 0.5l3 -36q-39 -3 -63 -9.5t-38 -20t-19 -37t-5 -60.5v-670q0 -24 4 -40t17.5 -26.5t38.5 -15.5t67 -7l-2 -38q-16 0 -39.5 0.5t-50.5 0.5q-26 0 -58.5 0.5t-56.5 0.5 q-20 0 -48 -0.5t-51 -0.5t-43.5 -0.5t-34.5 -0.5l-3 36q39 3 63 9.5t37.5 20t18.5 37t5 61.5v669q0 24 -4 40t-17.5 26.5t-38.5 15.5t-66 7zM56 1030l154 178l82 6l148 -184l-4 -6l-38 -10l-150 115l-150 -115l-38 10z" />
<glyph unicode="&#xcf;" horiz-adv-x="485" d="M45 1106q0 27 19 46.5t46 19.5q28 0 47 -19t19 -47q0 -27 -19.5 -46.5t-46.5 -19.5t-46 19.5t-19 46.5zM49 922l2 38q16 0 39 -0.5t49 -0.5q27 0 59.5 -0.5t56.5 -0.5q30 0 53.5 0.5t46.5 0.5t43.5 0.5t34.5 0.5l3 -36q-39 -3 -63 -9.5t-38 -20t-19 -37t-5 -60.5v-670 q0 -24 4 -40t17.5 -26.5t38.5 -15.5t67 -7l-2 -38q-16 0 -39.5 0.5t-50.5 0.5q-26 0 -58.5 0.5t-56.5 0.5q-20 0 -48 -0.5t-51 -0.5t-43.5 -0.5t-34.5 -0.5l-3 36q39 3 63 9.5t37.5 20t18.5 37t5 61.5v669q0 24 -4 40t-17.5 26.5t-38.5 15.5t-66 7zM320 1106q0 28 19 47 t46 19q28 0 47 -19t19 -47q0 -27 -19.5 -46.5t-46.5 -19.5t-46 19.5t-19 46.5z" />
<glyph unicode="&#xd0;" horiz-adv-x="1080" d="M44 922l2 38q36 0 87.5 -1t109.5 -1q65 0 121 5.5t111 5.5q98 0 198 -23t177.5 -76t124 -138.5t46.5 -209.5q0 -128 -46 -227t-124 -167t-181.5 -103.5t-215.5 -35.5q-47 0 -105 6.5t-123 6.5q-27 0 -49.5 -0.5t-45.5 -0.5t-44 -0.5t-37 -0.5l-3 36q42 3 68 9t40 20 t18.5 37.5t4.5 61.5v310h-127l-4 62h131v293q0 27 -4 44t-17.5 27.5t-40.5 15t-72 6.5zM315 180q0 -29 2 -53.5t15 -42.5t42 -28t79 -10q73 0 152.5 29.5t136.5 87.5t88.5 141t31.5 187q0 106 -32.5 185.5t-89.5 133t-135 79.5t-138 26q-35 0 -62 -4t-47 -11t-31.5 -15 t-11.5 -17v-332h280l-4 -62h-276v-294z" />
<glyph unicode="&#xd1;" horiz-adv-x="1103" d="M18 922l2 38q12 0 35.5 -0.5t52.5 -0.5t69 -0.5t67 -0.5l629 -732v556q0 47 -5.5 73.5t-20.5 40t-41 18t-67 7.5l2 38q32 0 76 -1t92 -1q23 0 44 0.5t41.5 1t39 1t32.5 0.5l1 -36q-39 -4 -64 -10t-39.5 -23t-20.5 -51t-6 -94v-750l-56 -10q-26 37 -52 71.5t-55 69.5 l-539 628v-578q0 -47 5.5 -73.5t20.5 -40t40.5 -18t66.5 -7.5l-2 -38q-32 0 -75.5 1t-91.5 1q-42 0 -83.5 -1t-76.5 -1l-3 36q40 4 66 9.5t41.5 22.5t21.5 51t6 94v497q0 42 -1 68t-4.5 42.5t-9.5 27.5t-16 23q-10 13 -20 22t-23 15t-32 9t-47 5zM351 1057q10 23 23.5 43.5 t30.5 36.5t37 25t43 9q19 0 36.5 -7l37.5 -15q43 -17 61 -24t31 -7q28 0 46 16t34 39l37 -17q-11 -23 -24.5 -44t-30.5 -36.5t-37 -25t-43 -9.5q-19 0 -36.5 7l-37.5 15q-42 17 -60.5 24t-31.5 7q-27 0 -45.5 -15.5t-33.5 -38.5z" />
<glyph unicode="&#xd2;" horiz-adv-x="1122" d="M59 470q0 111 36 204.5t101 161.5t156 106t209 38q116 0 207.5 -34.5t156.5 -98.5t101.5 -154.5t36.5 -202.5q0 -111 -36 -204.5t-101 -161.5t-156 -106t-209 -38q-116 0 -207 34.5t-156.5 98.5t-102 154.5t-36.5 202.5zM218 508q0 -134 33 -225t85 -146.5t116.5 -78 t114.5 -22.5q55 0 118.5 21.5t112 71.5t77.5 129.5t29 193.5q0 134 -33 225t-85 146.5t-116.5 78t-114.5 22.5q-55 0 -118.5 -21.5t-112 -71.5t-77.5 -129.5t-29 -193.5zM342 1148l78 66l210 -162l2 -7l-21 -25l-267 116z" />
<glyph unicode="&#xd3;" horiz-adv-x="1122" d="M59 470q0 111 36 204.5t101 161.5t156 106t209 38q116 0 207.5 -34.5t156.5 -98.5t101.5 -154.5t36.5 -202.5q0 -111 -36 -204.5t-101 -161.5t-156 -106t-209 -38q-116 0 -207 34.5t-156.5 98.5t-102 154.5t-36.5 202.5zM218 508q0 -134 33 -225t85 -146.5t116.5 -78 t114.5 -22.5q55 0 118.5 21.5t112 71.5t77.5 129.5t29 193.5q0 134 -33 225t-85 146.5t-116.5 78t-114.5 22.5q-55 0 -118.5 -21.5t-112 -71.5t-77.5 -129.5t-29 -193.5zM490 1045l2 7l210 162l78 -66l-2 -12l-267 -116z" />
<glyph unicode="&#xd4;" horiz-adv-x="1122" d="M59 470q0 111 36 204.5t101 161.5t156 106t209 38q116 0 207.5 -34.5t156.5 -98.5t101.5 -154.5t36.5 -202.5q0 -111 -36 -204.5t-101 -161.5t-156 -106t-209 -38q-116 0 -207 34.5t-156.5 98.5t-102 154.5t-36.5 202.5zM218 508q0 -134 33 -225t85 -146.5t116.5 -78 t114.5 -22.5q55 0 118.5 21.5t112 71.5t77.5 129.5t29 193.5q0 134 -33 225t-85 146.5t-116.5 78t-114.5 22.5q-55 0 -118.5 -21.5t-112 -71.5t-77.5 -129.5t-29 -193.5zM369 1030l154 178l82 6l148 -184l-4 -6l-38 -10l-150 115l-150 -115l-38 10z" />
<glyph unicode="&#xd5;" horiz-adv-x="1122" d="M59 470q0 111 36 204.5t101 161.5t156 106t209 38q116 0 207.5 -34.5t156.5 -98.5t101.5 -154.5t36.5 -202.5q0 -111 -36 -204.5t-101 -161.5t-156 -106t-209 -38q-116 0 -207 34.5t-156.5 98.5t-102 154.5t-36.5 202.5zM218 508q0 -134 33 -225t85 -146.5t116.5 -78 t114.5 -22.5q55 0 118.5 21.5t112 71.5t77.5 129.5t29 193.5q0 134 -33 225t-85 146.5t-116.5 78t-114.5 22.5q-55 0 -118.5 -21.5t-112 -71.5t-77.5 -129.5t-29 -193.5zM357 1057q10 23 23.5 43.5t30.5 36.5t37 25t43 9q19 0 36.5 -7l37.5 -15q43 -17 61 -24t31 -7 q28 0 46 16t34 39l37 -17q-11 -23 -24.5 -44t-30.5 -36.5t-37 -25t-43 -9.5q-19 0 -36.5 7l-37.5 15q-42 17 -60.5 24t-31.5 7q-27 0 -45.5 -15.5t-33.5 -38.5z" />
<glyph unicode="&#xd6;" horiz-adv-x="1122" d="M59 470q0 111 36 204.5t101 161.5t156 106t209 38q116 0 207.5 -34.5t156.5 -98.5t101.5 -154.5t36.5 -202.5q0 -111 -36 -204.5t-101 -161.5t-156 -106t-209 -38q-116 0 -207 34.5t-156.5 98.5t-102 154.5t-36.5 202.5zM218 508q0 -134 33 -225t85 -146.5t116.5 -78 t114.5 -22.5q55 0 118.5 21.5t112 71.5t77.5 129.5t29 193.5q0 134 -33 225t-85 146.5t-116.5 78t-114.5 22.5q-55 0 -118.5 -21.5t-112 -71.5t-77.5 -129.5t-29 -193.5zM358 1106q0 27 19 46.5t46 19.5q28 0 47 -19t19 -47q0 -27 -19.5 -46.5t-46.5 -19.5t-46 19.5 t-19 46.5zM633 1106q0 28 19 47t46 19q28 0 47 -19t19 -47q0 -27 -19.5 -46.5t-46.5 -19.5t-46 19.5t-19 46.5z" />
<glyph unicode="&#xd7;" d="M69 70l224 225l-224 225l43 50l228 -228l228 228l43 -50l-224 -225l224 -225l-43 -50l-228 228l-228 -228z" />
<glyph unicode="&#xd8;" horiz-adv-x="1122" d="M59 470q0 111 36 204.5t101 161.5t156 106t209 38q116 0 207 -35q32 -12 60 -27l67 94l54 -33l-67 -95q23 -17 43 -37q65 -64 101.5 -154.5t36.5 -202.5q0 -111 -36 -204.5t-101 -161.5t-156 -106t-209 -38q-116 0 -207 34q-35 14 -67 31l-73 -104l-50 39l71 100 q-20 15 -38 33q-65 64 -101.5 154.5t-36.5 202.5zM218 508q0 -134 33 -225q22 -61 52 -106l469 661q-47 44 -103 63q-64 23 -114 23q-55 0 -118.5 -21.5t-112 -71.5t-77.5 -129.5t-29 -193.5zM345 126q49 -47 107 -68q65 -22 115 -22q55 0 118.5 21.5t112 71.5t77.5 129.5 t29 193.5q0 134 -33 225q-24 64 -57 111z" />
<glyph unicode="&#xd9;" horiz-adv-x="1047" d="M25 921l2 38q18 0 42.5 -0.5t51.5 -0.5q28 0 56.5 -0.5t60.5 -0.5q34 0 58.5 0.5t49.5 0.5t47.5 0.5t39.5 0.5l3 -36q-43 -3 -70 -10t-42 -22t-20.5 -39.5t-5.5 -61.5v-454q0 -72 22.5 -123.5t62.5 -84t89 -48t92 -15.5q54 0 103 16.5t87 53t58.5 94t20.5 138.5v411 q0 44 -6.5 71t-24 42t-46.5 21t-78 9l2 38q35 0 84.5 -1t103.5 -1q44 0 92 1.5t80 1.5l1 -36q-44 -4 -71.5 -9.5t-44 -21.5t-22.5 -47t-6 -85v-421q0 -98 -33 -166t-86.5 -111.5t-121 -63t-137.5 -19.5q-69 0 -134.5 17t-115 58t-78.5 100t-29 139v532q0 24 -4.5 41 t-19 28.5t-41.5 17.5t-72 8zM335 1148l78 66l210 -162l2 -7l-21 -25l-267 116z" />
<glyph unicode="&#xda;" horiz-adv-x="1047" d="M25 921l2 38q18 0 42.5 -0.5t51.5 -0.5q28 0 56.5 -0.5t60.5 -0.5q34 0 58.5 0.5t49.5 0.5t47.5 0.5t39.5 0.5l3 -36q-43 -3 -70 -10t-42 -22t-20.5 -39.5t-5.5 -61.5v-454q0 -72 22.5 -123.5t62.5 -84t89 -48t92 -15.5q54 0 103 16.5t87 53t58.5 94t20.5 138.5v411 q0 44 -6.5 71t-24 42t-46.5 21t-78 9l2 38q35 0 84.5 -1t103.5 -1q44 0 92 1.5t80 1.5l1 -36q-44 -4 -71.5 -9.5t-44 -21.5t-22.5 -47t-6 -85v-421q0 -98 -33 -166t-86.5 -111.5t-121 -63t-137.5 -19.5q-69 0 -134.5 17t-115 58t-78.5 100t-29 139v532q0 24 -4.5 41 t-19 28.5t-41.5 17.5t-72 8zM483 1045l2 7l210 162l78 -66l-2 -12l-267 -116z" />
<glyph unicode="&#xdb;" horiz-adv-x="1047" d="M25 921l2 38q18 0 42.5 -0.5t51.5 -0.5q28 0 56.5 -0.5t60.5 -0.5q34 0 58.5 0.5t49.5 0.5t47.5 0.5t39.5 0.5l3 -36q-43 -3 -70 -10t-42 -22t-20.5 -39.5t-5.5 -61.5v-454q0 -72 22.5 -123.5t62.5 -84t89 -48t92 -15.5q54 0 103 16.5t87 53t58.5 94t20.5 138.5v411 q0 44 -6.5 71t-24 42t-46.5 21t-78 9l2 38q35 0 84.5 -1t103.5 -1q44 0 92 1.5t80 1.5l1 -36q-44 -4 -71.5 -9.5t-44 -21.5t-22.5 -47t-6 -85v-421q0 -98 -33 -166t-86.5 -111.5t-121 -63t-137.5 -19.5q-69 0 -134.5 17t-115 58t-78.5 100t-29 139v532q0 24 -4.5 41 t-19 28.5t-41.5 17.5t-72 8zM362 1030l154 178l82 6l148 -184l-4 -6l-38 -10l-150 115l-150 -115l-38 10z" />
<glyph unicode="&#xdc;" horiz-adv-x="1047" d="M25 921l2 38q18 0 42.5 -0.5t51.5 -0.5q28 0 56.5 -0.5t60.5 -0.5q34 0 58.5 0.5t49.5 0.5t47.5 0.5t39.5 0.5l3 -36q-43 -3 -70 -10t-42 -22t-20.5 -39.5t-5.5 -61.5v-454q0 -72 22.5 -123.5t62.5 -84t89 -48t92 -15.5q54 0 103 16.5t87 53t58.5 94t20.5 138.5v411 q0 44 -6.5 71t-24 42t-46.5 21t-78 9l2 38q35 0 84.5 -1t103.5 -1q44 0 92 1.5t80 1.5l1 -36q-44 -4 -71.5 -9.5t-44 -21.5t-22.5 -47t-6 -85v-421q0 -98 -33 -166t-86.5 -111.5t-121 -63t-137.5 -19.5q-69 0 -134.5 17t-115 58t-78.5 100t-29 139v532q0 24 -4.5 41 t-19 28.5t-41.5 17.5t-72 8zM351 1106q0 27 19 46.5t46 19.5q28 0 47 -19t19 -47q0 -27 -19.5 -46.5t-46.5 -19.5t-46 19.5t-19 46.5zM626 1106q0 28 19 47t46 19q28 0 47 -19t19 -47q0 -27 -19.5 -46.5t-46.5 -19.5t-46 19.5t-19 46.5z" />
<glyph unicode="&#xdd;" horiz-adv-x="870" d="M-27 923l2 37q42 0 92.5 -1t108.5 -1q56 0 99.5 1t85.5 1l3 -35q-54 -4 -74.5 -13t-20.5 -27q0 -12 7 -28t19 -39l172 -317l170 299q16 29 24.5 48.5t8.5 33.5q0 19 -22.5 27.5t-79.5 12.5l2 38q37 0 79 -1t87 -1q37 0 76.5 1t76.5 1l3 -36q-39 -3 -64.5 -10t-45.5 -24 t-39.5 -46t-47.5 -76q-51 -83 -88 -148.5t-58 -107.5q-21 -41 -29.5 -66t-10.5 -44t-2.5 -36.5t-0.5 -42.5v-196q0 -24 4 -40t18 -26.5t42.5 -15.5t77.5 -7l-2 -38q-21 0 -47.5 0.5t-54.5 0.5t-61 0.5t-57 0.5q-30 0 -53.5 -0.5t-47.5 -0.5t-48 -0.5t-43 -0.5l-3 36 q46 3 74 9t42 20t18.5 37.5t4.5 61.5v150q0 29 -1 49.5t-4.5 41t-16.5 44.5t-31 60q-27 48 -65 116t-97 165q-23 39 -39.5 63.5t-35 39t-43.5 21t-64 9.5zM388 1045l2 7l210 162l78 -66l-2 -12l-267 -116z" />
<glyph unicode="&#xde;" horiz-adv-x="805" d="M45 922l2 38q16 0 39 -0.5t49 -0.5t64 -0.5t62 -0.5q19 0 43.5 0.5t48.5 0.5q25 0 46.5 0.5t35.5 0.5l3 -36q-42 -3 -68 -9t-40.5 -20t-19 -36.5t-4.5 -59.5v-22q29 5 59.5 7.5t59.5 2.5q78 0 142.5 -14t113.5 -46.5t78 -85t29 -129.5t-32 -134t-83 -94.5t-114 -56 t-133 -18.5q-38 0 -69.5 5t-50.5 13v-98q0 -24 3.5 -40.5t17 -27.5t40 -16.5t71.5 -6.5l-2 -38q-16 0 -40 0.5t-52 0.5q-27 0 -55.5 0.5t-52.5 0.5q-40 0 -63 -0.5t-46 -0.5q-22 0 -42 -0.5t-34 -0.5l-2 36q39 3 62.5 9.5t36.5 20t17.5 37t4.5 61.5v671q0 22 -4 38 t-16.5 26.5t-37.5 15.5t-67 7zM306 279q23 -7 49 -10.5t58 -3.5q25 0 66 11.5t74.5 38.5t55.5 74t22 118q0 115 -62.5 170t-160.5 55q-35 0 -55 -3t-30.5 -11.5t-13.5 -22t-3 -34.5v-382z" />
<glyph unicode="&#xdf;" horiz-adv-x="780" d="M31 34q33 3 52.5 8.5t30 18.5t14 35.5t3.5 60.5v357h-95l-4 34q31 5 50.5 9t30.5 10t14.5 15.5t3.5 24.5v45q0 94 30 164t87 118q42 36 99 59.5t117 23.5q49 0 88 -13.5t68.5 -39.5t47 -64t17.5 -77q0 -47 -14.5 -75t-36.5 -50t-47.5 -43.5t-47.5 -43.5q-23 -23 -38 -48 t-15 -50q0 -17 12.5 -34.5t33 -35t46.5 -36t53 -37.5q25 -17 48.5 -37.5t42 -44t29.5 -52.5t11 -60q0 -46 -17.5 -82.5t-46.5 -61.5t-67.5 -38.5t-87.5 -13.5q-41 0 -75 11t-77 17q-3 37 -8.5 75.5t-16.5 86.5l37 10q10 -27 22 -55t29 -50.5t42.5 -35.5t61.5 -13 q35 0 60 27.5t25 70.5q0 26 -10.5 48.5t-28 42t-40 37t-46.5 34.5q-27 18 -53 37.5t-46.5 42t-33.5 49.5t-13 54q0 26 11 48.5t30.5 45t39 42l39.5 39.5q29 29 48.5 60.5t19.5 78.5q0 29 -15 58.5t-40 49.5t-52.5 31t-62.5 11q-45 0 -78 -27q-20 -17 -30.5 -41t-15.5 -53 t-6 -60.5t-1 -60.5v-575q0 -25 4.5 -40t15.5 -22.5t28 -10.5t43 -4l-3 -39q-32 0 -65.5 1t-95.5 1q-46 0 -85 -1t-67 -1z" />
<glyph unicode="&#xe0;" horiz-adv-x="620" d="M45 128q0 51 29.5 87.5t77.5 56.5q35 14 93.5 28.5t132.5 22.5q1 7 1 17v69q0 51 -24.5 84.5t-64.5 33.5q-22 0 -42.5 -10.5t-34 -27.5t-20 -39t-6.5 -46q-16 -13 -51 -13q-23 0 -43.5 12.5t-20.5 33.5q0 16 12.5 33t33 33.5t45.5 31.5t51 26q67 29 132 29q39 0 67 -8.5 t49 -27t33 -47.5t12 -69q0 -60 -2 -138.5t-2 -170.5q0 -39 13 -61t37 -22t52 17l18 -31q-23 -22 -56.5 -36t-67.5 -14q-49 0 -78.5 19t-39.5 57q-10 -7 -31 -21t-41 -24.5t-51 -21.5t-59 -11q-40 0 -67 12t-46.5 32.5t-30 47t-10.5 56.5zM146 881l5 11l105 9l83 -253l-3 -6 l-35 -6zM185 158q0 -42 21.5 -69t52.5 -27q32 0 60 11t57 35q0 42 1 85t1 85q-27 -3 -47.5 -8t-43 -12t-42 -17.5t-35.5 -25.5q-25 -22 -25 -57z" />
<glyph unicode="&#xe1;" horiz-adv-x="620" d="M45 128q0 51 29.5 87.5t77.5 56.5q35 14 93.5 28.5t132.5 22.5q1 7 1 17v69q0 51 -24.5 84.5t-64.5 33.5q-22 0 -42.5 -10.5t-34 -27.5t-20 -39t-6.5 -46q-16 -13 -51 -13q-23 0 -43.5 12.5t-20.5 33.5q0 16 12.5 33t33 33.5t45.5 31.5t51 26q67 29 132 29q39 0 67 -8.5 t49 -27t33 -47.5t12 -69q0 -60 -2 -138.5t-2 -170.5q0 -39 13 -61t37 -22t52 17l18 -31q-23 -22 -56.5 -36t-67.5 -14q-49 0 -78.5 19t-39.5 57q-10 -7 -31 -21t-41 -24.5t-51 -21.5t-59 -11q-40 0 -67 12t-46.5 32.5t-30 47t-10.5 56.5zM185 158q0 -42 21.5 -69t52.5 -27 q32 0 60 11t57 35q0 42 1 85t1 85q-27 -3 -47.5 -8t-43 -12t-42 -17.5t-35.5 -25.5q-25 -22 -25 -57zM283 648l83 253l105 -9l5 -11l-155 -245l-35 6z" />
<glyph unicode="&#xe2;" horiz-adv-x="620" d="M45 128q0 51 29.5 87.5t77.5 56.5q35 14 93.5 28.5t132.5 22.5q1 7 1 17v69q0 51 -24.5 84.5t-64.5 33.5q-22 0 -42.5 -10.5t-34 -27.5t-20 -39t-6.5 -46q-16 -13 -51 -13q-23 0 -43.5 12.5t-20.5 33.5q0 16 12.5 33t33 33.5t45.5 31.5t51 26q67 29 132 29q39 0 67 -8.5 t49 -27t33 -47.5t12 -69q0 -60 -2 -138.5t-2 -170.5q0 -39 13 -61t37 -22t52 17l18 -31q-23 -22 -56.5 -36t-67.5 -14q-49 0 -78.5 19t-39.5 57q-10 -7 -31 -21t-41 -24.5t-51 -21.5t-59 -11q-40 0 -67 12t-46.5 32.5t-30 47t-10.5 56.5zM119 647l154 248l82 6l148 -254 l-4 -6l-40 -5l-148 178l-148 -178l-40 5zM185 158q0 -42 21.5 -69t52.5 -27q32 0 60 11t57 35q0 42 1 85t1 85q-27 -3 -47.5 -8t-43 -12t-42 -17.5t-35.5 -25.5q-25 -22 -25 -57z" />
<glyph unicode="&#xe3;" horiz-adv-x="620" d="M45 128q0 51 29.5 87.5t77.5 56.5q35 14 93.5 28.5t132.5 22.5q1 7 1 17v69q0 51 -24.5 84.5t-64.5 33.5q-22 0 -42.5 -10.5t-34 -27.5t-20 -39t-6.5 -46q-16 -13 -51 -13q-23 0 -43.5 12.5t-20.5 33.5q0 16 12.5 33t33 33.5t45.5 31.5t51 26q67 29 132 29q39 0 67 -8.5 t49 -27t33 -47.5t12 -69q0 -60 -2 -138.5t-2 -170.5q0 -39 13 -61t37 -22t52 17l18 -31q-23 -22 -56.5 -36t-67.5 -14q-49 0 -78.5 19t-39.5 57q-10 -7 -31 -21t-41 -24.5t-51 -21.5t-59 -11q-40 0 -67 12t-46.5 32.5t-30 47t-10.5 56.5zM94 715q11 24 25.5 46.5t32.5 39 t39 26.5t46 10q20 0 38.5 -8t40.5 -16q22 -9 38 -15.5t27 -10t18.5 -5.5t14.5 -2q29 0 48.5 17t36.5 42l39 -18q-11 -24 -25.5 -46.5t-32.5 -39.5t-39 -27t-46 -10q-20 0 -38.5 8t-40.5 16q-45 18 -65 25.5t-33 7.5q-29 0 -48.5 -16.5t-36.5 -41.5zM185 158q0 -42 21.5 -69 t52.5 -27q32 0 60 11t57 35q0 42 1 85t1 85q-27 -3 -47.5 -8t-43 -12t-42 -17.5t-35.5 -25.5q-25 -22 -25 -57z" />
<glyph unicode="&#xe4;" horiz-adv-x="620" d="M45 128q0 51 29.5 87.5t77.5 56.5q35 14 93.5 28.5t132.5 22.5q1 7 1 17v69q0 51 -24.5 84.5t-64.5 33.5q-22 0 -42.5 -10.5t-34 -27.5t-20 -39t-6.5 -46q-16 -13 -51 -13q-23 0 -43.5 12.5t-20.5 33.5q0 16 12.5 33t33 33.5t45.5 31.5t51 26q67 29 132 29q39 0 67 -8.5 t49 -27t33 -47.5t12 -69q0 -60 -2 -138.5t-2 -170.5q0 -39 13 -61t37 -22t52 17l18 -31q-23 -22 -56.5 -36t-67.5 -14q-49 0 -78.5 19t-39.5 57q-10 -7 -31 -21t-41 -24.5t-51 -21.5t-59 -11q-40 0 -67 12t-46.5 32.5t-30 47t-10.5 56.5zM118 784q0 27 19 46.5t46 19.5 q28 0 47 -19t19 -47q0 -27 -19.5 -46.5t-46.5 -19.5t-46 19.5t-19 46.5zM185 158q0 -42 21.5 -69t52.5 -27q32 0 60 11t57 35q0 42 1 85t1 85q-27 -3 -47.5 -8t-43 -12t-42 -17.5t-35.5 -25.5q-25 -22 -25 -57zM373 784q0 28 19 47t46 19q28 0 47 -19t19 -47 q0 -27 -19.5 -46.5t-46.5 -19.5t-46 19.5t-19 46.5z" />
<glyph unicode="&#xe5;" horiz-adv-x="620" d="M45 128q0 51 29.5 87.5t77.5 56.5q35 14 93.5 28.5t132.5 22.5q1 7 1 17v69q0 51 -24.5 84.5t-64.5 33.5q-22 0 -42.5 -10.5t-34 -27.5t-20 -39t-6.5 -46q-16 -13 -51 -13q-23 0 -43.5 12.5t-20.5 33.5q0 16 12.5 33t33 33.5t45.5 31.5t51 26q67 29 132 29q39 0 67 -8.5 t49 -27t33 -47.5t12 -69q0 -60 -2 -138.5t-2 -170.5q0 -39 13 -61t37 -22t52 17l18 -31q-23 -22 -56.5 -36t-67.5 -14q-49 0 -78.5 19t-39.5 57q-10 -7 -31 -21t-41 -24.5t-51 -21.5t-59 -11q-40 0 -67 12t-46.5 32.5t-30 47t-10.5 56.5zM185 158q0 -42 21.5 -69t52.5 -27 q32 0 60 11t57 35q0 42 1 85t1 85q-27 -3 -47.5 -8t-43 -12t-42 -17.5t-35.5 -25.5q-25 -22 -25 -57zM185 767q0 25 10.5 47t28 38t40 25t47.5 9q27 0 50.5 -9.5t40 -25t26 -36.5t9.5 -44q0 -25 -10.5 -46.5t-28 -37t-40 -24.5t-47.5 -9q-28 0 -51 8.5t-39.5 24t-26 36 t-9.5 44.5zM240 771q0 -37 19.5 -60.5t51.5 -23.5q35 0 52.5 22.5t17.5 57.5q0 34 -17.5 60t-52.5 26t-53 -23.5t-18 -58.5z" />
<glyph unicode="&#xe6;" horiz-adv-x="923" d="M45 131q0 56 28.5 92.5t76.5 54.5q42 16 96.5 29.5t126.5 22.5q1 14 1.5 38t0.5 45q0 51 -24.5 82.5t-68.5 31.5q-29 0 -49.5 -10.5t-33.5 -28t-19 -38t-6 -44.5q-20 -14 -44 -14q-29 0 -49 11t-20 31q0 17 11 33.5t31.5 33.5t44.5 30t50 26q28 13 67 23t69 10 q45 0 82.5 -18.5t59.5 -55.5q43 39 92.5 56.5t91.5 17.5t77 -9.5t66 -29.5q39 -28 62 -70.5t23 -96.5v-14l-1 -14q-2 -14 -9 -19.5t-18 -7.5l-362 -37q6 -60 25 -102t48 -66.5t63.5 -36.5t61.5 -12q40 0 77 13.5t77 48.5l28 -29q-31 -41 -64 -66t-64 -38.5t-56.5 -18.5 t-41.5 -5q-86 0 -142.5 30.5t-92.5 84.5q-51 -49 -110 -82t-113 -33q-39 0 -65 12.5t-44.5 33t-29 48t-10.5 57.5zM184 158q0 -42 20.5 -69t51.5 -27q27 0 68.5 18t73.5 57q-12 28 -17.5 64.5t-7.5 79.5q-25 -3 -47 -7.5t-40.5 -10t-40.5 -16.5t-37 -26q-24 -24 -24 -63z M496 341l223 27q17 2 23 13t6 27q0 53 -35 88.5t-78 37.5q-25 0 -48.5 -14t-43.5 -39.5t-32.5 -61.5t-14.5 -78z" />
<glyph unicode="&#xe7;" horiz-adv-x="584" d="M37 265q0 69 27.5 128t74 103t107.5 69t136 25q33 0 69 -6t68 -23q14 -7 19.5 -18.5t5.5 -22.5q0 -18 -14 -39.5t-51 -37.5h-5q-37 38 -71 56t-79 18q-33 0 -64.5 -17t-51.5 -43t-29.5 -62.5t-9.5 -75.5q0 -49 13 -94t39 -77t64.5 -52.5t82.5 -20.5q48 0 94 20t73 58 l29 -26q-28 -55 -80.5 -90.5t-110.5 -49.5q-17 -12 -24.5 -23.5t-7.5 -22.5q0 -14 12 -28t27 -30q16 -17 30 -34t14 -34q0 -18 -13 -44t-35 -50t-51 -40.5t-60 -16.5q-11 0 -23 3.5t-22.5 10.5t-17.5 17.5t-7 24.5q0 17 16 33t33 21q16 -22 33 -34t39 -12q30 0 30 31 q0 18 -12 33.5t-28 31.5q-17 17 -31 33.5t-14 33.5q0 16 14 38t50 51q-72 0 -124 23t-88.5 62t-56 90.5t-19.5 109.5z" />
<glyph unicode="&#xe8;" horiz-adv-x="604" d="M41 273q0 67 24.5 124.5t65 100.5t93.5 67.5t116 24.5q52 0 92.5 -14.5t70.5 -41.5t48 -65t18 -85v-14l-1 -14q-5 -27 -28 -27h-371q1 -69 19.5 -117t50 -78t70 -44.5t74.5 -14.5q37 0 74 14t78 55l31 -31q-35 -44 -69 -69.5t-65 -39.5t-57 -19t-45 -5q-69 0 -121 23 t-89.5 63t-58 93.5t-20.5 113.5zM171 881l5 11l105 9l83 -253l-3 -6l-35 -6zM173 374h224q20 0 26 7.5t6 25.5q0 27 -8 50t-24.5 40t-38 27t-48.5 10q-22 0 -45 -11t-41.5 -31t-32 -49.5t-18.5 -68.5z" />
<glyph unicode="&#xe9;" horiz-adv-x="604" d="M41 273q0 67 24.5 124.5t65 100.5t93.5 67.5t116 24.5q52 0 92.5 -14.5t70.5 -41.5t48 -65t18 -85v-14l-1 -14q-5 -27 -28 -27h-371q1 -69 19.5 -117t50 -78t70 -44.5t74.5 -14.5q37 0 74 14t78 55l31 -31q-35 -44 -69 -69.5t-65 -39.5t-57 -19t-45 -5q-69 0 -121 23 t-89.5 63t-58 93.5t-20.5 113.5zM173 374h224q20 0 26 7.5t6 25.5q0 27 -8 50t-24.5 40t-38 27t-48.5 10q-22 0 -45 -11t-41.5 -31t-32 -49.5t-18.5 -68.5zM308 648l83 253l105 -9l5 -11l-155 -245l-35 6z" />
<glyph unicode="&#xea;" horiz-adv-x="604" d="M41 273q0 67 24.5 124.5t65 100.5t93.5 67.5t116 24.5q52 0 92.5 -14.5t70.5 -41.5t48 -65t18 -85v-14l-1 -14q-5 -27 -28 -27h-371q1 -69 19.5 -117t50 -78t70 -44.5t74.5 -14.5q37 0 74 14t78 55l31 -31q-35 -44 -69 -69.5t-65 -39.5t-57 -19t-45 -5q-69 0 -121 23 t-89.5 63t-58 93.5t-20.5 113.5zM144 647l154 248l82 6l148 -254l-4 -6l-40 -5l-148 178l-148 -178l-40 5zM173 374h224q20 0 26 7.5t6 25.5q0 27 -8 50t-24.5 40t-38 27t-48.5 10q-22 0 -45 -11t-41.5 -31t-32 -49.5t-18.5 -68.5z" />
<glyph unicode="&#xeb;" horiz-adv-x="604" d="M41 273q0 67 24.5 124.5t65 100.5t93.5 67.5t116 24.5q52 0 92.5 -14.5t70.5 -41.5t48 -65t18 -85v-14l-1 -14q-5 -27 -28 -27h-371q1 -69 19.5 -117t50 -78t70 -44.5t74.5 -14.5q37 0 74 14t78 55l31 -31q-35 -44 -69 -69.5t-65 -39.5t-57 -19t-45 -5q-69 0 -121 23 t-89.5 63t-58 93.5t-20.5 113.5zM143 784q0 27 19 46.5t46 19.5q28 0 47 -19t19 -47q0 -27 -19.5 -46.5t-46.5 -19.5t-46 19.5t-19 46.5zM173 374h224q20 0 26 7.5t6 25.5q0 27 -8 50t-24.5 40t-38 27t-48.5 10q-22 0 -45 -11t-41.5 -31t-32 -49.5t-18.5 -68.5zM398 784 q0 28 19 47t46 19q28 0 47 -19t19 -47q0 -27 -19.5 -46.5t-46.5 -19.5t-46 19.5t-19 46.5z" />
<glyph unicode="&#xec;" horiz-adv-x="375" d="M30 881l5 11l105 9l83 -253l-3 -6l-35 -6zM31 34q33 3 52.5 8.5t30.5 18.5t14.5 35.5t3.5 60.5v259q0 28 -3 44t-12.5 25t-28 14t-48.5 10l-3 31q31 6 62.5 12.5t69.5 13.5t59.5 13t32.5 11l10 -8q-3 -25 -5 -53t-3 -55.5t-1.5 -52t-0.5 -42.5v-263q0 -24 3 -38.5 t13.5 -22.5t31.5 -11t58 -5l-2 -39q-32 0 -77 1t-103 1q-50 0 -87 -1t-65 -1z" />
<glyph unicode="&#xed;" horiz-adv-x="375" d="M31 34q33 3 52.5 8.5t30.5 18.5t14.5 35.5t3.5 60.5v259q0 28 -3 44t-12.5 25t-28 14t-48.5 10l-3 31q31 6 62.5 12.5t69.5 13.5t59.5 13t32.5 11l10 -8q-3 -25 -5 -53t-3 -55.5t-1.5 -52t-0.5 -42.5v-263q0 -24 3 -38.5t13.5 -22.5t31.5 -11t58 -5l-2 -39q-32 0 -77 1 t-103 1q-50 0 -87 -1t-65 -1zM167 648l83 253l105 -9l5 -11l-155 -245l-35 6z" />
<glyph unicode="&#xee;" horiz-adv-x="375" d="M3 647l154 248l82 6l148 -254l-4 -6l-40 -5l-148 178l-148 -178l-40 5zM31 34q33 3 52.5 8.5t30.5 18.5t14.5 35.5t3.5 60.5v259q0 28 -3 44t-12.5 25t-28 14t-48.5 10l-3 31q31 6 62.5 12.5t69.5 13.5t59.5 13t32.5 11l10 -8q-3 -25 -5 -53t-3 -55.5t-1.5 -52 t-0.5 -42.5v-263q0 -24 3 -38.5t13.5 -22.5t31.5 -11t58 -5l-2 -39q-32 0 -77 1t-103 1q-50 0 -87 -1t-65 -1z" />
<glyph unicode="&#xef;" horiz-adv-x="375" d="M2 784q0 27 19 46.5t46 19.5q28 0 47 -19t19 -47q0 -27 -19.5 -46.5t-46.5 -19.5t-46 19.5t-19 46.5zM31 34q33 3 52.5 8.5t30.5 18.5t14.5 35.5t3.5 60.5v259q0 28 -3 44t-12.5 25t-28 14t-48.5 10l-3 31q31 6 62.5 12.5t69.5 13.5t59.5 13t32.5 11l10 -8q-3 -25 -5 -53 t-3 -55.5t-1.5 -52t-0.5 -42.5v-263q0 -24 3 -38.5t13.5 -22.5t31.5 -11t58 -5l-2 -39q-32 0 -77 1t-103 1q-50 0 -87 -1t-65 -1zM257 784q0 28 19 47t46 19q28 0 47 -19t19 -47q0 -27 -19.5 -46.5t-46.5 -19.5t-46 19.5t-19 46.5z" />
<glyph unicode="&#xf0;" horiz-adv-x="700" d="M43 276q0 73 26 131t69.5 98.5t101.5 62.5t129 22q53 0 119 -24q-16 53 -37 95.5t-57 90.5l-165 -111l-33 41l164 113q-26 26 -52.5 45.5t-57 34t-63.5 26.5t-74 21l13 42q95 -15 170 -45t135 -77l143 99l27 -50l-133 -86q99 -98 143 -203.5t44 -236.5 q0 -75 -20.5 -144.5t-60.5 -123t-98.5 -85.5t-141.5 -32q-69 0 -121 23t-89.5 62.5t-59 93.5t-21.5 117zM186 303q0 -42 8.5 -90t30 -87.5t53.5 -66t73 -26.5q44 0 78 34t53.5 83t25.5 106t6 103q0 17 -1.5 42t-4.5 42q-31 46 -74.5 68t-86.5 22q-29 0 -59 -14t-53 -42 t-36 -71.5t-13 -102.5z" />
<glyph unicode="&#xf1;" horiz-adv-x="778" d="M32 34q34 3 54.5 9t32 18.5t15 35t3.5 60.5v255q0 28 -3 44t-12.5 25.5t-28 14.5t-48.5 10l-3 30q25 5 58 12t61.5 14.5t54.5 14.5t41 13l16 -8q-3 -21 -5 -41.5t-2 -41.5q50 43 105.5 67t110.5 24q38 0 70.5 -11.5t57 -36.5t38 -63.5t13.5 -93.5v-269q0 -24 3 -38.5 t12.5 -22.5t28.5 -11t51 -5l-2 -39q-32 0 -70.5 1t-93.5 1q-53 0 -88.5 -1t-63.5 -1l-3 34q31 3 50 8t29 16.5t13 33t3 59.5v205q0 80 -31 115.5t-80 35.5q-44 0 -80 -15.5t-73 -43.5v-332q0 -24 2.5 -38.5t12.5 -22.5t29.5 -11t52.5 -5l-3 -39q-32 0 -72 1t-102 1 q-46 0 -84.5 -1t-66.5 -1zM159 715q11 24 25.5 46.5t32.5 39t39 26.5t46 10q20 0 38.5 -8t40.5 -16q22 -9 38 -15.5t27 -10t18.5 -5.5t14.5 -2q29 0 48.5 17t36.5 42l39 -18q-11 -24 -25.5 -46.5t-32.5 -39.5t-39 -27t-46 -10q-20 0 -38.5 8t-40.5 16q-45 18 -65 25.5 t-33 7.5q-29 0 -48.5 -16.5t-36.5 -41.5z" />
<glyph unicode="&#xf2;" horiz-adv-x="711" d="M47 279q0 64 23.5 121t64 99t95.5 66.5t125 24.5q75 0 124 -23.5t95.5 -64t68 -95t21.5 -116.5q0 -65 -23.5 -121.5t-64 -98.5t-96 -66.5t-125.5 -24.5q-75 0 -130.5 23.5t-95 64t-61 95t-21.5 116.5zM185 881l5 11l105 9l83 -253l-3 -6l-35 -6zM190 311q0 -46 11 -96 t34 -91t59.5 -67t73.5 -26q30 0 61.5 20t52 53t30 74t9.5 82q0 48 -10.5 98t-33.5 90.5t-59.5 65.5t-74.5 25q-31 0 -62.5 -19.5t-51.5 -52.5t-29.5 -74t-9.5 -82z" />
<glyph unicode="&#xf3;" horiz-adv-x="711" d="M47 279q0 64 23.5 121t64 99t95.5 66.5t125 24.5q75 0 124 -23.5t95.5 -64t68 -95t21.5 -116.5q0 -65 -23.5 -121.5t-64 -98.5t-96 -66.5t-125.5 -24.5q-75 0 -130.5 23.5t-95 64t-61 95t-21.5 116.5zM190 311q0 -46 11 -96t34 -91t59.5 -67t73.5 -26q30 0 61.5 20t52 53 t30 74t9.5 82q0 48 -10.5 98t-33.5 90.5t-59.5 65.5t-74.5 25q-31 0 -62.5 -19.5t-51.5 -52.5t-29.5 -74t-9.5 -82zM322 648l83 253l105 -9l5 -11l-155 -245l-35 6z" />
<glyph unicode="&#xf4;" horiz-adv-x="711" d="M47 279q0 64 23.5 121t64 99t95.5 66.5t125 24.5q75 0 124 -23.5t95.5 -64t68 -95t21.5 -116.5q0 -65 -23.5 -121.5t-64 -98.5t-96 -66.5t-125.5 -24.5q-75 0 -130.5 23.5t-95 64t-61 95t-21.5 116.5zM158 647l154 248l82 6l148 -254l-4 -6l-40 -5l-148 178l-148 -178 l-40 5zM190 311q0 -46 11 -96t34 -91t59.5 -67t73.5 -26q30 0 61.5 20t52 53t30 74t9.5 82q0 48 -10.5 98t-33.5 90.5t-59.5 65.5t-74.5 25q-31 0 -62.5 -19.5t-51.5 -52.5t-29.5 -74t-9.5 -82z" />
<glyph unicode="&#xf5;" horiz-adv-x="711" d="M47 279q0 64 23.5 121t64 99t95.5 66.5t125 24.5q75 0 124 -23.5t95.5 -64t68 -95t21.5 -116.5q0 -65 -23.5 -121.5t-64 -98.5t-96 -66.5t-125.5 -24.5q-75 0 -130.5 23.5t-95 64t-61 95t-21.5 116.5zM133 715q11 24 25.5 46.5t32.5 39t39 26.5t46 10q20 0 38.5 -8 t40.5 -16q22 -9 38 -15.5t27 -10t18.5 -5.5t14.5 -2q29 0 48.5 17t36.5 42l39 -18q-11 -24 -25.5 -46.5t-32.5 -39.5t-39 -27t-46 -10q-20 0 -38.5 8t-40.5 16q-45 18 -65 25.5t-33 7.5q-29 0 -48.5 -16.5t-36.5 -41.5zM190 311q0 -46 11 -96t34 -91t59.5 -67t73.5 -26 q30 0 61.5 20t52 53t30 74t9.5 82q0 48 -10.5 98t-33.5 90.5t-59.5 65.5t-74.5 25q-31 0 -62.5 -19.5t-51.5 -52.5t-29.5 -74t-9.5 -82z" />
<glyph unicode="&#xf6;" horiz-adv-x="711" d="M47 279q0 64 23.5 121t64 99t95.5 66.5t125 24.5q75 0 124 -23.5t95.5 -64t68 -95t21.5 -116.5q0 -65 -23.5 -121.5t-64 -98.5t-96 -66.5t-125.5 -24.5q-75 0 -130.5 23.5t-95 64t-61 95t-21.5 116.5zM157 784q0 27 19 46.5t46 19.5q28 0 47 -19t19 -47 q0 -27 -19.5 -46.5t-46.5 -19.5t-46 19.5t-19 46.5zM190 311q0 -46 11 -96t34 -91t59.5 -67t73.5 -26q30 0 61.5 20t52 53t30 74t9.5 82q0 48 -10.5 98t-33.5 90.5t-59.5 65.5t-74.5 25q-31 0 -62.5 -19.5t-51.5 -52.5t-29.5 -74t-9.5 -82zM412 784q0 28 19 47t46 19 q28 0 47 -19t19 -47q0 -27 -19.5 -46.5t-46.5 -19.5t-46 19.5t-19 46.5z" />
<glyph unicode="&#xf7;" d="M60 262l5 66h555l-5 -66h-555zM271 104q0 28 20 48t48 20q29 0 49 -20t20 -48q0 -29 -20 -49t-49 -20q-28 0 -48 20t-20 49zM271 487q0 28 20 48t48 20q29 0 49 -20t20 -48q0 -29 -20 -49t-49 -20q-28 0 -48 20t-20 49z" />
<glyph unicode="&#xf8;" horiz-adv-x="711" d="M42 279q0 64 23.5 121t64 99t95.5 66.5t125 24.5q75 0 124 -24q15 -7 31 -16l50 71l41 -26l-51 -73q12 -9 24 -20q47 -40 68.5 -94.5t21.5 -116.5q0 -65 -23.5 -121.5t-64 -98.5t-96 -66.5t-125.5 -24.5q-75 0 -131 23q-16 7 -30 15l-48 -68l-38 31l45 64l-24 22 q-39 41 -60.5 95.5t-21.5 116.5zM185 311q0 -46 11 -96q8 -38 23 -70l234 331q-18 22 -41 38q-36 25 -74 25q-31 0 -62.5 -19.5t-51.5 -52.5t-29.5 -74t-9.5 -82zM246 99q19 -25 43 -42q37 -26 74 -26q30 0 61.5 20t52 53t30 74t9.5 82q0 48 -11 98q-8 39 -25 73z" />
<glyph unicode="&#xf9;" horiz-adv-x="755" d="M18 552q32 4 63.5 8.5t62.5 9.5t58.5 10.5t38.5 9.5l10 -8q-3 -25 -4.5 -53.5t-3 -55.5t-2 -51.5t-0.5 -42.5v-146q0 -47 8.5 -79.5t24 -52.5t36.5 -28.5t47 -8.5q37 0 73.5 16t68.5 48v300q0 28 -3 44t-13 25.5t-29.5 14t-52.5 9.5l-2 31q34 4 67.5 8.5t65 9.5 t59.5 10.5t37 9.5l11 -8q-3 -25 -5 -53.5t-3.5 -55.5t-2 -51.5t-0.5 -42.5v-231q0 -29 3 -45t13.5 -25t30.5 -13.5t55 -9.5l4 -31q-30 -3 -61.5 -7.5t-70.5 -9.5t-62 -11t-35 -10l-10 8q2 18 3 37.5t1 37.5q-52 -47 -104.5 -68t-107.5 -21q-44 0 -75 12t-54 37.5t-36 65.5 t-13 96v237q0 28 -3 44t-12.5 25.5t-27 14t-46.5 9.5zM185 881l5 11l105 9l83 -253l-3 -6l-35 -6z" />
<glyph unicode="&#xfa;" horiz-adv-x="755" d="M18 552q32 4 63.5 8.5t62.5 9.5t58.5 10.5t38.5 9.5l10 -8q-3 -25 -4.5 -53.5t-3 -55.5t-2 -51.5t-0.5 -42.5v-146q0 -47 8.5 -79.5t24 -52.5t36.5 -28.5t47 -8.5q37 0 73.5 16t68.5 48v300q0 28 -3 44t-13 25.5t-29.5 14t-52.5 9.5l-2 31q34 4 67.5 8.5t65 9.5 t59.5 10.5t37 9.5l11 -8q-3 -25 -5 -53.5t-3.5 -55.5t-2 -51.5t-0.5 -42.5v-231q0 -29 3 -45t13.5 -25t30.5 -13.5t55 -9.5l4 -31q-30 -3 -61.5 -7.5t-70.5 -9.5t-62 -11t-35 -10l-10 8q2 18 3 37.5t1 37.5q-52 -47 -104.5 -68t-107.5 -21q-44 0 -75 12t-54 37.5t-36 65.5 t-13 96v237q0 28 -3 44t-12.5 25.5t-27 14t-46.5 9.5zM322 648l83 253l105 -9l5 -11l-155 -245l-35 6z" />
<glyph unicode="&#xfb;" horiz-adv-x="755" d="M18 552q32 4 63.5 8.5t62.5 9.5t58.5 10.5t38.5 9.5l10 -8q-3 -25 -4.5 -53.5t-3 -55.5t-2 -51.5t-0.5 -42.5v-146q0 -47 8.5 -79.5t24 -52.5t36.5 -28.5t47 -8.5q37 0 73.5 16t68.5 48v300q0 28 -3 44t-13 25.5t-29.5 14t-52.5 9.5l-2 31q34 4 67.5 8.5t65 9.5 t59.5 10.5t37 9.5l11 -8q-3 -25 -5 -53.5t-3.5 -55.5t-2 -51.5t-0.5 -42.5v-231q0 -29 3 -45t13.5 -25t30.5 -13.5t55 -9.5l4 -31q-30 -3 -61.5 -7.5t-70.5 -9.5t-62 -11t-35 -10l-10 8q2 18 3 37.5t1 37.5q-52 -47 -104.5 -68t-107.5 -21q-44 0 -75 12t-54 37.5t-36 65.5 t-13 96v237q0 28 -3 44t-12.5 25.5t-27 14t-46.5 9.5zM158 647l154 248l82 6l148 -254l-4 -6l-40 -5l-148 178l-148 -178l-40 5z" />
<glyph unicode="&#xfc;" horiz-adv-x="755" d="M18 552q32 4 63.5 8.5t62.5 9.5t58.5 10.5t38.5 9.5l10 -8q-3 -25 -4.5 -53.5t-3 -55.5t-2 -51.5t-0.5 -42.5v-146q0 -47 8.5 -79.5t24 -52.5t36.5 -28.5t47 -8.5q37 0 73.5 16t68.5 48v300q0 28 -3 44t-13 25.5t-29.5 14t-52.5 9.5l-2 31q34 4 67.5 8.5t65 9.5 t59.5 10.5t37 9.5l11 -8q-3 -25 -5 -53.5t-3.5 -55.5t-2 -51.5t-0.5 -42.5v-231q0 -29 3 -45t13.5 -25t30.5 -13.5t55 -9.5l4 -31q-30 -3 -61.5 -7.5t-70.5 -9.5t-62 -11t-35 -10l-10 8q2 18 3 37.5t1 37.5q-52 -47 -104.5 -68t-107.5 -21q-44 0 -75 12t-54 37.5t-36 65.5 t-13 96v237q0 28 -3 44t-12.5 25.5t-27 14t-46.5 9.5zM157 784q0 27 19 46.5t46 19.5q28 0 47 -19t19 -47q0 -27 -19.5 -46.5t-46.5 -19.5t-46 19.5t-19 46.5zM412 784q0 28 19 47t46 19q28 0 47 -19t19 -47q0 -27 -19.5 -46.5t-46.5 -19.5t-46 19.5t-19 46.5z" />
<glyph unicode="&#xfd;" horiz-adv-x="661" d="M-26 532l2 39q33 0 74 -1t96 -1q50 0 82.5 1t61.5 1l2 -35q-40 -5 -56 -12t-16 -22q0 -8 3.5 -19.5t8.5 -25.5l127 -334l141 336q11 35 11 40q0 18 -17 26t-62 10l2 36q31 0 61 -1t76 -1q39 0 66 1t52 1l2 -34q-30 -4 -48 -9t-31.5 -15t-24.5 -27.5t-26 -47.5 q-23 -46 -50 -106.5t-55.5 -128.5t-57.5 -140.5t-56 -142.5q-20 -49 -29 -70.5t-32 -67.5t-47 -82.5t-48 -55.5q-50 -42 -105 -42q-31 0 -50.5 16t-19.5 44q0 29 12.5 45.5t32.5 27.5q16 -5 25 -6.5t17 -1.5q23 0 44 6.5t37 22.5q37 38 68.5 100t41.5 93l2 5l-9 27 q-20 54 -43 114t-46.5 120t-47 117t-44.5 106q-13 30 -23.5 48t-24 27t-32 13t-47.5 6zM329 648l83 253l105 -9l5 -11l-155 -245l-35 6z" />
<glyph unicode="&#xfe;" horiz-adv-x="722" d="M-2 -350q34 3 54 9t31 18.5t14.5 35t3.5 60.5v1057q0 29 -3 46.5t-13.5 27.5t-29.5 15t-52 10l-4 31q23 4 51 11l60 15t66 17t55 18l11 -8q-3 -25 -5.5 -59t-4 -67.5t-2.5 -63.5t-1 -48v-252q48 38 89 52.5t86 14.5q66 0 114.5 -23t83 -62t53.5 -90t19 -108 q0 -73 -27 -133t-73.5 -103t-109.5 -67t-143 -24q-38 0 -92 12v-256q0 -24 3 -39t16.5 -23.5t41 -12.5t76.5 -6l-3 -39q-16 0 -40 0.5t-52 0.5q-27 0 -55 0.5t-66 0.5q-45 0 -83 -1t-67 -1zM229 127q0 -18 11.5 -34.5t27 -29t37.5 -20t50 -7.5q42 0 77 20.5t56.5 53.5 t33 75.5t11.5 88.5q0 48 -14 90t-38.5 73.5t-62.5 50.5t-78 19q-29 0 -53.5 -6t-57.5 -27v-347z" />
<glyph unicode="&#xff;" horiz-adv-x="661" d="M-26 532l2 39q33 0 74 -1t96 -1q50 0 82.5 1t61.5 1l2 -35q-40 -5 -56 -12t-16 -22q0 -8 3.5 -19.5t8.5 -25.5l127 -334l141 336q11 35 11 40q0 18 -17 26t-62 10l2 36q31 0 61 -1t76 -1q39 0 66 1t52 1l2 -34q-30 -4 -48 -9t-31.5 -15t-24.5 -27.5t-26 -47.5 q-23 -46 -50 -106.5t-55.5 -128.5t-57.5 -140.5t-56 -142.5q-20 -49 -29 -70.5t-32 -67.5t-47 -82.5t-48 -55.5q-50 -42 -105 -42q-31 0 -50.5 16t-19.5 44q0 29 12.5 45.5t32.5 27.5q16 -5 25 -6.5t17 -1.5q23 0 44 6.5t37 22.5q37 38 68.5 100t41.5 93l2 5l-9 27 q-20 54 -43 114t-46.5 120t-47 117t-44.5 106q-13 30 -23.5 48t-24 27t-32 13t-47.5 6zM164 784q0 27 19 46.5t46 19.5q28 0 47 -19t19 -47q0 -27 -19.5 -46.5t-46.5 -19.5t-46 19.5t-19 46.5zM419 784q0 28 19 47t46 19q28 0 47 -19t19 -47q0 -27 -19.5 -46.5t-46.5 -19.5 t-46 19.5t-19 46.5z" />
<glyph unicode="&#x152;" horiz-adv-x="1331" d="M59 470q0 109 36 201.5t101 159t156 104t209 37.5q33 0 57 -2t46.5 -5t46 -5t56.5 -2q39 0 164 1t320 1q-6 -53 -9 -109t-4 -119l-44 -1q-9 52 -20 86t-31 54.5t-52 29t-83 8.5h-121q-30 0 -38.5 -6t-8.5 -31v-342l318 10l7 -7l-2 -86q-93 8 -170.5 10.5t-152.5 4.5v-297 q0 -34 4 -56t17.5 -34.5t38 -17.5t65.5 -5h49q56 0 92.5 9.5t61.5 32t44.5 59.5t42.5 91l43 -9q-8 -29 -15 -62t-13 -65t-10 -61t-5 -47q-102 0 -179 0.5t-137 0.5t-104 0.5t-74 0.5q-51 0 -98.5 -6t-101.5 -6q-116 0 -207 33.5t-156.5 96t-102 151t-36.5 199.5zM218 508 q0 -132 31.5 -221t83 -142.5t114.5 -76t120 -22.5q54 0 78.5 8t39 23.5t17 38t2.5 52.5v691q0 8 -12 18t-33.5 18.5t-45.5 14.5t-58 6q-62 0 -124 -22t-109.5 -70t-75.5 -126t-28 -190z" />
<glyph unicode="&#x153;" horiz-adv-x="1072" d="M47 272q0 82 28.5 142t72 99t95 58t105.5 19q78 0 138.5 -29.5t98.5 -84.5q22 32 50.5 51.5t58.5 34t60 21.5t56 7q34 0 72.5 -9.5t69.5 -29.5q40 -28 62.5 -70.5t22.5 -96.5v-14l-1 -18q-3 -27 -26 -27h-374q1 -67 20.5 -114t49.5 -78t67 -44.5t73 -13.5q47 0 83.5 13.5 t76.5 50.5l29 -29q-31 -41 -64.5 -66.5t-64 -39.5t-59.5 -19t-45 -5q-78 0 -134 28.5t-91 82.5q-45 -60 -106.5 -85.5t-124.5 -25.5q-75 0 -129.5 25t-92 66t-57.5 93.5t-20 107.5zM188 319q0 -65 12 -118.5t36 -91.5t57 -59.5t70 -21.5q27 0 52.5 12t46 39.5t31 73.5 t10.5 114q0 57 -11 107.5t-33 88t-55.5 59t-72.5 21.5q-60 0 -102 -58.5t-41 -165.5zM639 374h241q20 0 26 7.5t6 25.5q0 27 -8.5 51t-25 41t-40.5 27t-54 10q-23 0 -46 -11t-43 -31t-35 -50.5t-21 -69.5z" />
<glyph unicode="&#x178;" horiz-adv-x="870" d="M-27 923l2 37q42 0 92.5 -1t108.5 -1q56 0 99.5 1t85.5 1l3 -35q-54 -4 -74.5 -13t-20.5 -27q0 -12 7 -28t19 -39l172 -317l170 299q16 29 24.5 48.5t8.5 33.5q0 19 -22.5 27.5t-79.5 12.5l2 38q37 0 79 -1t87 -1q37 0 76.5 1t76.5 1l3 -36q-39 -3 -64.5 -10t-45.5 -24 t-39.5 -46t-47.5 -76q-51 -83 -88 -148.5t-58 -107.5q-21 -41 -29.5 -66t-10.5 -44t-2.5 -36.5t-0.5 -42.5v-196q0 -24 4 -40t18 -26.5t42.5 -15.5t77.5 -7l-2 -38q-21 0 -47.5 0.5t-54.5 0.5t-61 0.5t-57 0.5q-30 0 -53.5 -0.5t-47.5 -0.5t-48 -0.5t-43 -0.5l-3 36 q46 3 74 9t42 20t18.5 37.5t4.5 61.5v150q0 29 -1 49.5t-4.5 41t-16.5 44.5t-31 60q-27 48 -65 116t-97 165q-23 39 -39.5 63.5t-35 39t-43.5 21t-64 9.5zM256 1106q0 27 19 46.5t46 19.5q28 0 47 -19t19 -47q0 -27 -19.5 -46.5t-46.5 -19.5t-46 19.5t-19 46.5zM531 1106 q0 28 19 47t46 19q28 0 47 -19t19 -47q0 -27 -19.5 -46.5t-46.5 -19.5t-46 19.5t-19 46.5z" />
<glyph unicode="&#x2c6;" horiz-adv-x="700" d="M158 647l154 248l82 6l148 -254l-4 -6l-40 -5l-148 178l-148 -178l-40 5z" />
<glyph unicode="&#x2dc;" horiz-adv-x="700" d="M133 715q11 24 25.5 46.5t32.5 39t39 26.5t46 10q20 0 38.5 -8t40.5 -16q22 -9 38 -15.5t27 -10t18.5 -5.5t14.5 -2q29 0 48.5 17t36.5 42l39 -18q-11 -24 -25.5 -46.5t-32.5 -39.5t-39 -27t-46 -10q-20 0 -38.5 8t-40.5 16q-45 18 -65 25.5t-33 7.5q-29 0 -48.5 -16.5 t-36.5 -41.5z" />
<glyph unicode="&#x2000;" horiz-adv-x="714" />
<glyph unicode="&#x2001;" horiz-adv-x="1428" />
<glyph unicode="&#x2002;" horiz-adv-x="714" />
<glyph unicode="&#x2003;" horiz-adv-x="1428" />
<glyph unicode="&#x2004;" horiz-adv-x="476" />
<glyph unicode="&#x2005;" horiz-adv-x="357" />
<glyph unicode="&#x2006;" horiz-adv-x="238" />
<glyph unicode="&#x2007;" horiz-adv-x="238" />
<glyph unicode="&#x2008;" horiz-adv-x="178" />
<glyph unicode="&#x2009;" horiz-adv-x="285" />
<glyph unicode="&#x200a;" horiz-adv-x="79" />
<glyph unicode="&#x2010;" horiz-adv-x="435" d="M30 270l11 78h366l2 -55l-369 -33z" />
<glyph unicode="&#x2011;" horiz-adv-x="435" d="M30 270l11 78h366l2 -55l-369 -33z" />
<glyph unicode="&#x2012;" horiz-adv-x="435" d="M30 270l11 78h366l2 -55l-369 -33z" />
<glyph unicode="&#x2013;" horiz-adv-x="925" d="M-25 284v64h974v-64h-974z" />
<glyph unicode="&#x2014;" horiz-adv-x="1475" d="M-51 284v64h1574v-64h-1574z" />
<glyph unicode="&#x2018;" horiz-adv-x="342" d="M80 818q0 36 13.5 68t37 58t54 46.5t64.5 33.5l14 -37q-24 -9 -44 -23.5t-33.5 -32t-21 -36.5t-7.5 -37q0 -29 21 -52t64 -27q11 -6 15.5 -16.5t4.5 -20.5q0 -27 -20.5 -43t-46.5 -16t-47.5 12t-36.5 31.5t-23 43.5t-8 48z" />
<glyph unicode="&#x2019;" horiz-adv-x="342" d="M79 716q24 9 44 23.5t33.5 32t21 36.5t7.5 37q0 29 -21 52t-64 27q-11 6 -15.5 16.5t-4.5 20.5q0 27 20.5 43t46.5 16t47.5 -12t36.5 -31.5t23 -43.5t8 -48q0 -36 -14 -68t-37 -58.5t-53.5 -46.5t-64.5 -33z" />
<glyph unicode="&#x201a;" horiz-adv-x="342" d="M79 -128q24 9 44 23.5t33.5 32t21 36.5t7.5 37q0 29 -21 52t-64 27q-11 6 -15.5 16.5t-4.5 20.5q0 27 20.5 43t46.5 16t47.5 -12t36.5 -31.5t23 -43.5t8 -48q0 -36 -14 -68t-37 -58.5t-53.5 -46.5t-64.5 -33z" />
<glyph unicode="&#x201c;" horiz-adv-x="587" d="M80 818q0 36 13.5 68t37 58t54 46.5t64.5 33.5l14 -37q-24 -9 -44 -23.5t-33.5 -32t-21 -36.5t-7.5 -37q0 -29 21 -52t64 -27q11 -6 15.5 -16.5t4.5 -20.5q0 -27 -20.5 -43t-46.5 -16t-47.5 12t-36.5 31.5t-23 43.5t-8 48zM326 818q0 36 13.5 68t37 58t54 46.5t64.5 33.5 l14 -37q-24 -9 -44 -23.5t-33.5 -32t-21 -36.5t-7.5 -37q0 -29 21 -52t64 -27q11 -6 15.5 -16.5t4.5 -20.5q0 -27 -20.5 -43t-46.5 -16t-47.5 12t-36.5 31.5t-23 43.5t-8 48z" />
<glyph unicode="&#x201d;" horiz-adv-x="587" d="M79 716q24 9 44 23.5t33.5 32t21 36.5t7.5 37q0 29 -21 52t-64 27q-11 6 -15.5 16.5t-4.5 20.5q0 27 20.5 43t46.5 16t47.5 -12t36.5 -31.5t23 -43.5t8 -48q0 -36 -14 -68t-37 -58.5t-53.5 -46.5t-64.5 -33zM326 716q24 9 44 23.5t33.5 32t21 36.5t7.5 37q0 29 -21 52 t-64 27q-11 6 -15.5 16.5t-4.5 20.5q0 27 20.5 43t46.5 16t47.5 -12t36.5 -31.5t23 -43.5t8 -48q0 -36 -14 -68t-37 -58.5t-53.5 -46.5t-64.5 -33z" />
<glyph unicode="&#x201e;" horiz-adv-x="587" d="M79 -128q24 9 44 23.5t33.5 32t21 36.5t7.5 37q0 29 -21 52t-64 27q-11 6 -15.5 16.5t-4.5 20.5q0 27 20.5 43t46.5 16t47.5 -12t36.5 -31.5t23 -43.5t8 -48q0 -36 -14 -68t-37 -58.5t-53.5 -46.5t-64.5 -33zM326 -128q24 9 44 23.5t33.5 32t21 36.5t7.5 37q0 29 -21 52 t-64 27q-11 6 -15.5 16.5t-4.5 20.5q0 27 20.5 43t46.5 16t47.5 -12t36.5 -31.5t23 -43.5t8 -48q0 -36 -14 -68t-37 -58.5t-53.5 -46.5t-64.5 -33z" />
<glyph unicode="&#x2022;" horiz-adv-x="736" d="M151 467q0 44 17 83.5t46.5 69t68.5 46.5t84 17q44 0 83 -17t68.5 -46.5t46.5 -69t17 -83.5q0 -45 -17 -84t-46.5 -68.5t-68.5 -46.5t-83 -17q-45 0 -84 17t-68.5 46.5t-46.5 68.5t-17 84z" />
<glyph unicode="&#x2026;" horiz-adv-x="1186" d="M130 67q0 17 6.5 32.5t17.5 27t25.5 18t31.5 6.5q16 0 31 -6.5t26 -18t17.5 -27t6.5 -32.5t-6.5 -32.5t-17.5 -27t-26 -18t-31 -6.5q-17 0 -31.5 6.5t-25.5 18t-17.5 27t-6.5 32.5zM512 67q0 17 6.5 32.5t17.5 27t25.5 18t31.5 6.5q16 0 31 -6.5t26 -18t17.5 -27 t6.5 -32.5t-6.5 -32.5t-17.5 -27t-26 -18t-31 -6.5q-17 0 -31.5 6.5t-25.5 18t-17.5 27t-6.5 32.5zM894 67q0 17 6.5 32.5t17.5 27t25.5 18t31.5 6.5q16 0 31 -6.5t26 -18t17.5 -27t6.5 -32.5t-6.5 -32.5t-17.5 -27t-26 -18t-31 -6.5q-17 0 -31.5 6.5t-25.5 18t-17.5 27 t-6.5 32.5z" />
<glyph unicode="&#x202f;" horiz-adv-x="285" />
<glyph unicode="&#x2039;" horiz-adv-x="437" d="M100 278v14q45 42 96.5 99.5t108.5 127.5l32 -20l-131 -214l131 -214l-32 -20q-57 70 -108.5 127.5t-96.5 99.5z" />
<glyph unicode="&#x203a;" horiz-adv-x="437" d="M100 71l131 214l-131 214l32 20q57 -70 108.5 -127.5t96.5 -99.5v-14q-45 -42 -96.5 -99.5t-108.5 -127.5z" />
<glyph unicode="&#x205f;" horiz-adv-x="357" />
<glyph unicode="&#x20ac;" d="M-1 515h94q14 84 48.5 146.5t83.5 104.5t109.5 63t133.5 21q40 0 85 -8t85 -22q-5 -43 -6.5 -84t-1.5 -83l-49 -6q-10 76 -44 112t-88 36q-43 0 -80.5 -20t-65 -56t-44.5 -88t-24 -116h326l-4 -52h-326l-1 -12q0 -35 0.5 -51t1.5 -27h318l-4 -52h-308q6 -63 23.5 -115.5 t44.5 -90t63.5 -59t77.5 -21.5q31 0 59.5 13t50.5 42q15 20 28 48t26 60l42 -10q-8 -39 -14 -79t-11 -82q-53 -21 -103 -34t-99 -13q-72 0 -127.5 23.5t-98.5 68t-71.5 107.5t-38.5 142h-76l-4 52h77l-1 8q0 34 0.5 51t1.5 31h-85z" />
<glyph unicode="&#x2122;" horiz-adv-x="1009" d="M45 960q17 0 40 -0.5t47 -0.5t46.5 -0.5t39.5 -0.5q16 0 39 0.5t47 0.5q25 0 48 0.5t40 0.5q-2 -26 -3.5 -50.5t-1.5 -48.5h-22q-3 19 -7 32t-11.5 21.5t-20 12t-32.5 3.5h-44v-259q0 -9 1.5 -14.5t7.5 -9t18.5 -5.5t34.5 -3v-24h-21q-13 0 -27 0.5t-27 0.5h-42 q-12 0 -25 -0.5t-26 -0.5h-19l-1 22q21 1 33.5 3.5t18.5 7.5t8 13.5t2 21.5v247h-44q-20 0 -32 -3.5t-19 -12t-11 -21.5t-7 -32h-25q0 24 -0.5 48.5t-2.5 50.5zM433 637q23 3 37 6t22 12.5t12 29t7 54.5l8 82q3 26 4.5 41.5t1.5 25.5q0 15 -11 29q-11 11 -24.5 14.5 t-35.5 4.5l1 24h21q16 0 35.5 -0.5t39.5 -0.5h38q9 -25 19.5 -49t21.5 -49l72 -156l70 161q11 23 20 46l18 46q15 0 34.5 0.5t38.5 0.5q20 0 36.5 0.5t24.5 0.5v-24q-25 -2 -39.5 -5.5t-21.5 -11.5t-8 -21.5t1 -35.5l11 -174q1 -14 3 -23t9.5 -14.5t22.5 -8t41 -3.5l-1 -24 q-21 0 -50 0.5t-56 0.5h-87l-1 22q21 2 32.5 5.5t17 11t6 20.5t-0.5 35l-13 158l-56 -128t-54 -130l-29 -4q-27 66 -55 129t-59 125l-14 -141q-3 -27 -2.5 -42.5t6.5 -23t19 -10t36 -4.5l-1 -24q-17 0 -36.5 0.5t-47.5 0.5q-27 0 -44.5 -0.5t-37.5 -0.5z" />
<glyph unicode="&#x25fc;" horiz-adv-x="570" d="M0 0v570h570v-570h-570z" />
</font>
</defs>
</svg>
