<?xml version="1.0" standalone="no"?>
<!DOCTYPE svg PUBLIC "-//W3C//DTD SVG 1.1//EN" "http://www.w3.org/Graphics/SVG/1.1/DTD/svg11.dtd" >
<svg>
<metadata>
Created by FontForge 20110222 at Wed Jul  8 23:39:49 2015
 By www-data
</metadata>
<defs>
<font id="AlQalamIrzan" horiz-adv-x="0" >
  <font-face 
    font-family="AlQalam Irzan"
    font-weight="400"
    font-stretch="normal"
    units-per-em="2048"
    panose-1="2 0 5 6 0 0 0 2 0 3"
    ascent="1638"
    descent="-410"
    x-height="661"
    cap-height="1148"
    bbox="-2164.11 -814 6650 2105"
    underline-thickness="102"
    underline-position="-154"
    unicode-range="U+0020-FEFB"
  />
<missing-glyph horiz-adv-x="257" 
 />
    <glyph glyph-name="sf277.046" unicode="&#x622;" horiz-adv-x="404" arabic-form="final" 
d="M202 1840v-1540h300v-100h-400v1640h100zM351 1916q-20 -20 -49 -33l-33 -8q-6 -1 -13 -1q-8 -1 -17 -1q-25 1 -65 22q-35 17 -65 21q-57 0 -107 -31v85q55 30 107 30q25 0 70 -19q32 -17 60 -22l16 -1q26 0 45 9q27 11 51 33v-84zM102 149h401v-100h-401v100z" />
    <glyph glyph-name="sf277" unicode="&#x627;" horiz-adv-x="402" arabic-form="final" 
d="M202 2000v-1700h300v-100h-400v1800h100zM503 49h-401v100h401v-100z" />
    <glyph glyph-name="sf300.001" unicode="&#x628;" horiz-adv-x="498" arabic-form="initial" 
d="M271 -28q30 -29 30 -71q0 -40 -30 -70q-30 -31 -71 -31t-71 31q-29 30 -29 70q0 42 30 71t70 29q41 0 71 -29zM300 1199v-999h-400v100h300v901zM-100 149h401v-100h-401v100z" />
    <glyph glyph-name="sf277.017" unicode="&#x628;" horiz-adv-x="499" arabic-form="medial" 
d="M371 -28q30 -29 30 -71q0 -40 -30 -70q-30 -31 -71 -31t-71 31q-29 30 -29 70q0 42 30 71t70 29q41 0 71 -29zM300 1201v-901h300v-101h-700v101h300v901h100zM-100 149h698v-100h-698v100z" />
    <glyph glyph-name="sf277.002" unicode="&#x628;" horiz-adv-x="2101" arabic-form="final" 
d="M1070 -28q30 -29 30 -71q0 -40 -30 -70q-30 -31 -71 -31t-71 31q-29 30 -29 70q0 42 30 71t70 29q41 0 71 -29zM2202 149v-100h-1502q-300 50 -300 100h1802zM1900 1201v-901h300v-100h-1700q-207 0 -353 147q-147 146 -147 353t147 355q146 147 353 147v1q41 0 71 -29
t30 -71q0 -40 -30 -71q-30 -30 -71 -30q-27 0 -50 13t-37 38q-13 23 -13 34q-63 -7 -181 -104q-116 -119 -116 -284q0 -164 116 -280q118 -116 281 -119h1300v901h100z" />
    <glyph glyph-name="sf300.002" unicode="&#x67e;" horiz-adv-x="659" arabic-form="initial" 
d="M454 1199v-999h-554v100h454v901zM-100 149h555v-100h-555v100zM8 -39q29 29 70 29q43 0 72 -29t29 -71q2 -39 -30 -71t-71 -30q-38 -2 -70 30t-30 71q0 42 30 71zM318 -38q29 29 70 29q43 0 72 -29t29 -71q2 -39 -30 -71t-71 -30q-38 -2 -70 30t-30 71q0 42 30 71z
M148 -278q29 29 70 29q43 0 72 -29t29 -71q2 -39 -30 -71t-71 -30q-38 -2 -70 30t-30 71q0 42 30 71z" />
    <glyph glyph-name="sf277.021" unicode="&#x67e;" horiz-adv-x="499" arabic-form="medial" 
d="M300 1201v-901h300v-101h-700v101h300v901h100zM-100 149h698v-100h-698v100zM28 -39q29 29 70 29q43 0 72 -29t29 -71q2 -39 -30 -71t-71 -30q-38 -2 -70 30q-31 32 -29 71q0 42 29 71zM338 -38q29 29 70 29q43 0 72 -29t29 -71q2 -39 -30 -71t-71 -30q-38 -2 -70 30
t-30 71q0 42 30 71zM168 -278q29 29 70 29q43 0 72 -29t29 -71q2 -39 -30 -71t-71 -30q-38 -2 -70 30t-30 71q0 42 30 71z" />
    <glyph glyph-name="sf277.026" unicode="&#x67e;" horiz-adv-x="2101" arabic-form="final" 
d="M2202 149v-100h-1502q-300 50 -300 100h1802zM1900 1201v-901h300v-100h-1700q-207 0 -353 147q-147 146 -147 353t147 355q146 147 353 147v1q41 0 71 -29t30 -71q0 -40 -30 -71q-30 -30 -71 -30q-27 0 -50 13t-37 38q-13 23 -13 34q-63 -7 -181 -104
q-116 -119 -116 -284q0 -164 116 -280q118 -116 281 -119h1300v901h100zM946 -39q29 29 70 29q43 0 72 -29t29 -71q2 -39 -30 -71t-71 -30q-38 -2 -70 30t-30 71q0 42 30 71zM1256 -38q29 29 70 29q43 0 72 -29t29 -71q2 -39 -30 -71t-71 -30q-38 -2 -70 30t-30 71
q0 42 30 71zM1086 -278q29 29 70 29q43 0 72 -29t29 -71q2 -39 -30 -71t-71 -30q-38 -2 -70 30t-30 71q0 42 30 71z" />
    <glyph glyph-name="sf300.003" unicode="&#x62a;" horiz-adv-x="501" arabic-form="initial" 
d="M302 1201v-1001h-399v100h299v901h100zM72 1573q32 -32 30 -72q0 -41 -30 -71q-30 -29 -71 -29t-70 29q-29 30 -29 71q-3 40 29 72q32 31 70 29q39 2 71 -29zM302 1572q32 -32 30 -72q0 -41 -30 -71q-30 -29 -71 -29t-70 29q-30 30 -30 71q-2 40 30 72q32 31 70 29
q39 2 71 -29zM-97 149h400v-100h-400v100z" />
    <glyph glyph-name="sf277.003" unicode="&#x62a;" horiz-adv-x="498" arabic-form="medial" 
d="M190 1573q32 -32 30 -72q0 -41 -30 -71q-30 -29 -71 -29t-71 29q-29 30 -29 71q-2 40 30 72q32 31 70 29q39 2 71 -29zM440 1572q32 -32 30 -72q0 -41 -30 -71q-30 -29 -71 -29t-71 29q-29 30 -29 71q-2 40 30 72q32 31 70 29q39 2 71 -29zM300 1201v-901h300v-101h-700
v101h300v901h100zM-100 149h698v-100h-698v100z" />
    <glyph glyph-name="sf277.027" unicode="&#x62a;" horiz-adv-x="2201" arabic-form="final" 
d="M1171 1471q32 -32 30 -72q0 -41 -30 -71q-30 -29 -71 -29t-71 29q-29 30 -29 71q-2 40 30 72q32 31 70 29q39 2 71 -29zM1421 1470q32 -32 30 -72q0 -41 -30 -71q-30 -29 -71 -29t-71 29q-29 30 -29 71q-2 40 30 72q32 31 70 29q39 2 71 -29zM2302 149v-100h-1502
q-300 50 -300 100h1802zM2000 1201v-901h300v-100h-1700q-207 0 -353 147q-147 146 -147 353t147 355q146 147 353 147v1q41 0 71 -29t30 -71q0 -40 -30 -71q-30 -30 -71 -30q-27 0 -50 13t-37 38q-13 23 -13 34q-63 -7 -181 -104q-116 -119 -116 -284q0 -164 116 -280
q118 -116 281 -119h1300v901h100z" />
    <glyph glyph-name="sf300.004" unicode="&#x679;" horiz-adv-x="460" arabic-form="initial" 
d="M302 1201v-1001h-399v100h299v901h100zM-97 149h400v-100h-400v100zM117 1367h35v296h17v-163h53q19 0 52 12t60 12q28 0 53 -26q26 -25 26 -61v-87h-296v17zM169 1367h226v70q0 28 -20 49q-21 20 -44 19q-24 0 -56 -12q-31 -11 -51 -11h-55v-115zM117 1341h296v-17h-296
v17z" />
    <glyph glyph-name="sf277.043" unicode="&#x679;" horiz-adv-x="499" arabic-form="medial" 
d="M300 1201v-901h300v-101h-700v101h300v901h100zM-100 149h698v-100h-698v100zM125 1391h35v296h17v-163h53q19 0 52 12t60 12q28 0 53 -26q26 -25 26 -61v-87h-296v17zM177 1391h226v70q0 28 -20 49q-21 20 -44 19q-24 0 -56 -12q-31 -11 -51 -11h-55v-115zM125 1365h296
v-17h-296v17z" />
    <glyph glyph-name="sf277.028" unicode="&#x679;" horiz-adv-x="2201" arabic-form="final" 
d="M2302 149v-100h-1502q-300 50 -300 100h1802zM2000 1201v-901h300v-100h-1700q-207 0 -353 147q-147 146 -147 353t147 355q146 147 353 147v1q41 0 71 -29t30 -71q0 -40 -30 -71q-30 -30 -71 -30q-27 0 -50 13t-37 38q-13 23 -13 34q-63 -7 -181 -104
q-116 -119 -116 -284q0 -164 116 -280q118 -116 281 -119h1300v901h100zM1149 844h35v296h17v-163h53q19 0 52 12t60 12q28 0 53 -26q26 -25 26 -61v-87h-296v17zM1201 844h226v70q0 28 -20 49q-21 20 -44 19q-24 0 -56 -12q-31 -11 -51 -11h-55v-115zM1149 818h296v-17
h-296v17z" />
    <glyph glyph-name="sf300.005" unicode="&#x62b;" horiz-adv-x="498" arabic-form="initial" 
d="M301 1201v-1001h-399v100h299v901h100zM71 1573q32 -32 30 -72q0 -41 -30 -71q-30 -29 -71 -29t-70 29q-29 30 -29 71q-3 40 29 72q32 31 70 29q39 2 71 -29zM341 1572q32 -32 30 -72q0 -41 -30 -71q-30 -29 -71 -29t-70 29q-30 30 -30 71q-2 40 30 72q32 31 70 29
q39 2 71 -29zM191 1792q32 -32 30 -72q0 -41 -30 -71q-30 -29 -71 -29t-70 29q-30 30 -30 71q-2 40 30 72q32 31 70 29q39 2 71 -29zM-98 149h400v-100h-400v100z" />
    <glyph glyph-name="sf277.022" unicode="&#x62b;" horiz-adv-x="499" arabic-form="medial" 
d="M190 1573q32 -32 30 -72q0 -41 -30 -71q-30 -29 -71 -29t-71 29q-29 30 -29 71q-2 40 30 72q32 31 70 29q39 2 71 -29zM460 1572q32 -32 30 -72q0 -41 -30 -71q-30 -29 -71 -29t-71 29q-29 30 -29 71q-2 40 30 72q32 31 70 29q39 2 71 -29zM310 1792q32 -32 30 -72
q0 -41 -30 -71q-30 -29 -71 -29t-71 29q-29 30 -29 71q-2 40 30 72q32 31 70 29q39 2 71 -29zM300 1201v-901h300v-101h-700v101h300v901h100zM-100 149h698v-100h-698v100z" />
    <glyph glyph-name="sf277.029" unicode="&#x62b;" horiz-adv-x="2197" arabic-form="final" 
d="M1129 1474q32 -32 30 -72q0 -41 -30 -71q-30 -29 -71 -29t-71 29q-29 30 -29 71q-2 40 30 72q32 31 70 29q39 2 71 -29zM1399 1473q32 -32 30 -72q0 -41 -30 -71q-30 -29 -71 -29t-71 29q-29 30 -29 71q-2 40 30 72q32 31 70 29q39 2 71 -29zM1249 1693q32 -32 30 -72
q0 -41 -30 -71q-30 -29 -71 -29t-71 29q-29 30 -29 71q-2 40 30 72q32 31 70 29q39 2 71 -29zM2301 149v-100h-1502q-300 50 -300 100h1802zM1999 1201v-901h300v-100h-1700q-207 0 -353 147q-147 146 -147 353t147 355q146 147 353 147v1q41 0 71 -29t30 -71q0 -40 -30 -71
q-30 -30 -71 -30q-27 0 -50 13t-37 38q-13 23 -13 34q-63 -7 -181 -104q-116 -119 -116 -284q0 -164 116 -280q118 -116 281 -119h1300v901h100z" />
    <glyph glyph-name="sf304.001" unicode="&#x62c;" horiz-adv-x="1553" arabic-form="initial" 
d="M673 -29q30 -29 30 -71q0 -40 -30 -70q-30 -31 -71 -31t-71 31q-29 30 -29 70q0 42 30 71t70 29q41 0 71 -29zM-98 301h1205q-15 10 -27 22q-107 119 -107 312q-30 260 -129 360q-97 99 -242 105l1 -1q-163 0 -282 -117q-33 -39 -57 -75q-20 -31 -32 -56q-11 -22 -13 -34
t4 -10q12 3 37 -7q53 -18 53 -88q0 -31 -18 -60q-35 -57 -98 -46q-27 4 -49 16q-46 28 -46 95q0 87 39 178q41 92 108 159q148 148 354 148h-1q186 -8 314 -136q128 -131 158 -431q0 -148 72 -237q107 -94 287 -97l-1 -101h-1530v101zM1432 49h-1529v100h1529v-100z" />
    <glyph glyph-name="sf323" unicode="&#x62c;" horiz-adv-x="1497" arabic-form="medial" 
d="M670 -28q30 -29 30 -71q0 -40 -30 -70q-30 -31 -71 -31t-71 31q-29 30 -29 70q0 42 30 71t70 29q41 0 71 -29zM1600 49h-1699v100h1699v-100zM-100 301h1205q-15 10 -27 22q-107 119 -107 312q-30 260 -129 360q-97 99 -242 105l1 -1q-163 0 -282 -117q-33 -39 -57 -75
q-20 -31 -32 -56q-11 -22 -13 -34t4 -10q12 3 37 -7q53 -18 53 -88q0 -31 -18 -60q-35 -57 -98 -46q-27 4 -49 16q-46 28 -46 95q0 87 39 178q41 92 108 159q148 148 354 148h-1q186 -8 314 -136q128 -131 158 -431q11 -150 102 -247q129 -104 426 -88v-100h-1700v101z" />
    <glyph glyph-name="sf277.030" unicode="&#x62c;" horiz-adv-x="1560" arabic-form="final" 
d="M816 -29q30 -29 30 -71q0 -40 -30 -70q-30 -31 -71 -31t-71 31q-29 30 -29 70q0 42 30 71t70 29q41 0 71 -29zM1245 300q-40 12 -53 25q-107 119 -107 312q-30 260 -129 360q-97 99 -242 105l1 -2q-163 0 -282 -117q-33 -39 -57 -75q-20 -30 -32 -55q-11 -22 -13 -34
t4 -10q12 3 37 -7q53 -18 53 -88q-2 -50 -37 -83q-36 -35 -79 -24q-27 4 -49 16q-46 29 -46 96q0 86 39 177q41 92 108 159q148 148 354 148l-1 1q186 -8 314 -136q128 -131 158 -431q0 -148 72 -237q88 -113 437 -100v-99h-1150q-155 0 -210 -52h1362v-100h-1418
q-59 -108 6 -227q64 -119 289 -118v-1h371v-101h-371q-294 2 -384 173q-90 170 0 348t355 177h700z" />
    <glyph glyph-name="sf304.002" unicode="&#x686;" horiz-adv-x="1551" arabic-form="initial" 
d="M1430 49h-1529v100h1529v-100zM-100 301h1205q-15 10 -27 22q-107 119 -107 312q-30 260 -129 360q-97 99 -242 105l1 -1q-163 0 -282 -117q-33 -39 -57 -75q-20 -31 -32 -56q-11 -22 -13 -34t4 -10q12 3 37 -7q53 -18 53 -88q0 -31 -18 -60q-35 -57 -98 -46
q-27 4 -49 16q-46 28 -46 95q0 87 39 178q41 92 108 159q148 148 354 148h-1q186 -8 314 -136q128 -131 158 -431q0 -148 72 -237q107 -94 287 -97l-1 -101h-1530v101zM496 -38q29 29 70 29q43 0 72 -29t29 -71q2 -39 -30 -71t-71 -30q-38 -2 -70 30t-30 71q0 42 30 71z
M806 -37q29 29 70 29q43 0 72 -29t29 -71q2 -39 -30 -71t-71 -30q-38 -2 -70 30t-30 71q0 42 30 71zM636 -277q29 29 70 29q43 0 72 -29t29 -71q2 -39 -30 -71t-71 -30q-38 -2 -70 30t-30 71q0 42 30 71z" />
    <glyph glyph-name="sf323.001" unicode="&#x686;" horiz-adv-x="1577" arabic-form="medial" 
d="M1680 49h-1699v100h1699v-100zM-20 301h1205q-15 10 -27 22q-107 119 -107 312q-30 260 -129 360q-97 99 -242 105l1 -1q-163 0 -282 -117q-33 -39 -57 -75q-20 -31 -32 -56q-11 -22 -13 -34t4 -10q12 3 37 -7q53 -18 53 -88q0 -31 -18 -60q-35 -57 -98 -46q-27 4 -49 16
q-46 28 -46 95q0 87 39 178q41 92 108 159q148 148 354 148h-1q186 -8 314 -136q128 -131 158 -431q11 -150 102 -247q129 -104 426 -88v-100h-1700v101zM644 -38q29 29 70 29q43 0 72 -29t29 -71q2 -39 -30 -71t-71 -30q-38 -2 -70 30t-30 71q0 42 30 71zM954 -37
q29 29 70 29q43 0 72 -29t29 -71q2 -39 -30 -71t-71 -30q-38 -2 -70 30t-30 71q0 42 30 71zM784 -277q29 29 70 29q43 0 72 -29t29 -71q2 -39 -30 -71t-71 -30q-38 -2 -70 30t-30 71q0 42 30 71z" />
    <glyph glyph-name="sf277.031" unicode="&#x686;" horiz-adv-x="1560" arabic-form="final" 
d="M1245 300q-40 12 -53 25q-107 119 -107 312q-30 260 -129 360q-97 99 -242 105l1 -2q-163 0 -282 -117q-33 -39 -57 -75q-20 -30 -32 -55q-11 -22 -13 -34t4 -10q12 3 37 -7q53 -18 53 -88q-2 -50 -37 -83q-36 -35 -79 -24q-27 4 -49 16q-46 29 -46 96q0 86 39 177
q41 92 108 159q148 148 354 148l-1 1q186 -8 314 -136q128 -131 158 -431q0 -148 72 -237q88 -113 437 -100v-99h-1150q-155 0 -210 -52h1362v-100h-1418q-59 -108 6 -227q64 -119 289 -118v-1h371v-101h-371q-294 2 -384 173q-90 170 0 348t355 177h700zM969 -38
q26 25 63 25q91 0 91 -90q0 -37 -27 -63q-27 -27 -64 -27q-34 -2 -63 27t-27 63q0 38 27 65zM1248 -37q26 25 63 25q91 0 91 -90q0 -36 -27 -63q-27 -28 -64 -28q-35 0 -63 28q-27 27 -27 63q0 38 27 65zM1095 -253q26 25 63 25q91 0 91 -90q0 -36 -27 -63q-27 -28 -64 -28
q-35 0 -63 28q-27 27 -27 63q0 38 27 65z" />
    <glyph glyph-name="sf304.003" unicode="&#x62d;" horiz-adv-x="1551" arabic-form="initial" 
d="M1430 49h-1529v100h1529v-100zM-100 301h1205q-15 10 -27 22q-107 119 -107 312q-30 260 -129 360q-97 99 -242 105l1 -1q-163 0 -282 -117q-33 -39 -57 -75q-20 -31 -32 -56q-11 -22 -13 -34t4 -10q12 3 37 -7q53 -18 53 -88q0 -31 -18 -60q-35 -57 -98 -46
q-27 4 -49 16q-46 28 -46 95q0 87 39 178q41 92 108 159q148 148 354 148h-1q186 -8 314 -136q128 -131 158 -431q0 -148 72 -237q107 -94 287 -97l-1 -101h-1530v101z" />
    <glyph glyph-name="sf323.002" unicode="&#x62d;" horiz-adv-x="1577" arabic-form="medial" 
d="M1680 49h-1699v100h1699v-100zM-20 301h1205q-15 10 -27 22q-107 119 -107 312q-30 260 -129 360q-97 99 -242 105l1 -1q-163 0 -282 -117q-33 -39 -57 -75q-20 -31 -32 -56q-11 -22 -13 -34t4 -10q12 3 37 -7q53 -18 53 -88q0 -31 -18 -60q-35 -57 -98 -46q-27 4 -49 16
q-46 28 -46 95q0 87 39 178q41 92 108 159q148 148 354 148h-1q186 -8 314 -136q128 -131 158 -431q11 -150 102 -247q129 -104 426 -88v-100h-1700v101z" />
    <glyph glyph-name="sf277.032" unicode="&#x62d;" horiz-adv-x="1560" arabic-form="final" 
d="M1245 300q-40 12 -53 25q-107 119 -107 312q-30 260 -129 360q-97 99 -242 105l1 -2q-163 0 -282 -117q-33 -39 -57 -75q-20 -30 -32 -55q-11 -22 -13 -34t4 -10q12 3 37 -7q53 -18 53 -88q-2 -50 -37 -83q-36 -35 -79 -24q-27 4 -49 16q-46 29 -46 96q0 86 39 177
q41 92 108 159q148 148 354 148l-1 1q186 -8 314 -136q128 -131 158 -431q0 -148 72 -237q88 -113 437 -100v-99h-1150q-155 0 -210 -52h1362v-100h-1418q-59 -108 6 -227q64 -119 289 -118v-1h371v-101h-371q-294 2 -384 173q-90 170 0 348t355 177h700z" />
    <glyph glyph-name="sf304.004" unicode="&#x62e;" horiz-adv-x="1599" arabic-form="initial" 
d="M671 1572q32 -32 30 -72q0 -41 -30 -71q-30 -29 -71 -29t-71 29q-29 30 -29 71q-2 40 30 72q32 31 70 29q39 2 71 -29zM1430 49h-1529v100h1529v-100zM-100 301h1205q-15 10 -27 22q-107 119 -107 312q-30 260 -129 360q-97 99 -242 105l1 -1q-163 0 -282 -117
q-33 -39 -57 -75q-20 -31 -32 -56q-11 -22 -13 -34t4 -10q12 3 37 -7q53 -18 53 -88q0 -31 -18 -60q-35 -57 -98 -46q-27 4 -49 16q-46 28 -46 95q0 87 39 178q41 92 108 159q148 148 354 148h-1q186 -8 314 -136q128 -131 158 -431q0 -148 72 -237q107 -94 287 -97l-1 -101
h-1530v101z" />
    <glyph glyph-name="sf323.003" unicode="&#x62e;" horiz-adv-x="1505" arabic-form="medial" 
d="M672 1572q30 -30 30 -71q0 -40 -30 -71q-30 -30 -71 -30t-71 30q-29 30 -29 71t30 71q30 29 70 29q41 0 71 -29zM1601 49h-1699v100h1699v-100zM-99 301h1205q-15 10 -27 22q-107 119 -107 312q-30 260 -129 360q-97 99 -242 105l1 -1q-163 0 -282 -117q-33 -39 -57 -75
q-20 -31 -32 -56q-11 -22 -13 -34t4 -10q12 3 37 -7q53 -18 53 -88q0 -31 -18 -60q-35 -57 -98 -46q-27 4 -49 16q-46 28 -46 95q0 87 39 178q41 92 108 159q148 148 354 148h-1q186 -8 314 -136q128 -131 158 -431q11 -150 102 -247q129 -104 426 -88v-100h-1700v101z" />
    <glyph glyph-name="sf277.001" unicode="&#x62e;" horiz-adv-x="1554" arabic-form="final" 
d="M715 1572q30 -29 30 -71q0 -40 -30 -71q-30 -30 -71 -30t-71 30q-29 30 -29 71t30 71q30 29 70 29q41 0 71 -29zM1244 300q-40 12 -53 25q-107 119 -107 312q-30 260 -129 360q-97 99 -242 105l1 -2q-163 0 -282 -117q-33 -39 -57 -75q-20 -30 -32 -55q-11 -22 -13 -34
t4 -10q12 3 37 -7q53 -18 53 -88q-2 -50 -37 -83q-36 -35 -79 -24q-27 4 -49 16q-46 29 -46 96q0 86 39 177q41 92 108 159q148 148 354 148l-1 1q186 -8 314 -136q128 -131 158 -431q0 -148 72 -237q88 -113 437 -100v-99h-1150q-155 0 -210 -52h1362v-100h-1418
q-59 -108 6 -227q64 -119 289 -118v-1h371v-101h-371q-294 2 -384 173q-90 170 0 348t355 177h700z" />
    <glyph glyph-name="sf277.014" unicode="&#x62f;" horiz-adv-x="1365" arabic-form="final" 
d="M100 149h1331v-100h-1331v100zM1072 302q5 126 -19 244q-26 122 -83 226q-58 108 -131 184q-75 78 -206 118q-134 42 -353 -4q21 -28 21 -55q0 -40 -30 -71q-30 -30 -71 -30t-71 30q-29 30 -29 71q0 26 18 60q20 36 70 65q54 31 171 50q158 29 308 -13q152 -53 240 -142
q87 -87 157 -216t89 -278q20 -146 22 -241h256v-98l-1326 -1v101h967z" />
    <glyph glyph-name="sf277.038" unicode="&#x688;" horiz-adv-x="1365" arabic-form="final" 
d="M100 149h1331v-100h-1331v100zM1072 302q5 126 -19 244q-26 122 -83 226q-58 108 -131 184q-75 78 -206 118q-134 42 -353 -4q21 -28 21 -55q0 -40 -30 -71q-30 -30 -71 -30t-71 30q-29 30 -29 71q0 26 18 60q20 36 70 65q54 31 171 50q158 29 308 -13q152 -53 240 -142
q87 -87 157 -216t89 -278q20 -146 22 -241h256v-98l-1326 -1v101h967zM463 1365h35v296h17v-163h53q19 0 52 12t60 12q28 0 53 -26q26 -25 26 -61v-87h-296v17zM515 1365h226v70q0 28 -20 49q-21 20 -44 19q-24 0 -56 -12q-31 -11 -51 -11h-55v-115zM463 1339h296v-17h-296
v17z" />
    <glyph glyph-name="sf277.039" unicode="&#x630;" horiz-adv-x="1299" arabic-form="final" 
d="M672 1572q30 -29 30 -71q0 -40 -30 -71q-30 -30 -71 -30t-71 30q-29 30 -29 71t30 71q30 29 70 29q41 0 71 -29zM100 149h1331v-100h-1331v100zM1072 302q5 126 -19 244q-26 122 -83 226q-58 108 -131 184q-75 78 -206 118q-134 42 -353 -4q21 -28 21 -55q0 -40 -30 -71
q-30 -30 -71 -30t-71 30q-29 30 -29 71q0 26 18 60q20 36 70 65q54 31 171 50q158 29 308 -13q152 -53 240 -142q87 -87 157 -216t89 -278q20 -146 22 -241h256v-98l-1326 -1v101h967z" />
    <glyph glyph-name="sf277.015" unicode="&#x631;" horiz-adv-x="600" arabic-form="final" 
d="M301 1000h100v-700h300v-100h-300v-50h300v-100h-300q-2 -74 -66 -194q-65 -120 -185 -187q-122 -68 -250 -68h-99v99h100q102 2 199 56q96 53 147 149q53 95 54 195v900z" />
    <glyph glyph-name="sf277.040" unicode="&#x691;" horiz-adv-x="600" arabic-form="final" 
d="M301 1000h100v-700h300v-100h-300v-50h300v-100h-300q-2 -74 -66 -194q-65 -120 -185 -187q-122 -68 -250 -68h-99v99h100q102 2 199 56q96 53 147 149q53 95 54 195v900zM176 1157h35v296h17v-163h53q19 0 52 12t60 12q28 0 53 -26q26 -25 26 -61v-87h-296v17zM228 1157
h226v70q0 28 -20 49q-21 20 -44 19q-24 0 -56 -12q-31 -11 -51 -11h-55v-115zM176 1131h296v-17h-296v17z" />
    <glyph glyph-name="sf277.041" unicode="&#x632;" horiz-adv-x="600" arabic-form="final" 
d="M414 1372q30 -29 30 -71q0 -40 -30 -71q-30 -30 -71 -30t-71 30q-29 30 -29 71t30 71q30 29 70 29q41 0 71 -29zM301 1000h100v-700h300v-100h-300v-50h300v-100h-300q-2 -74 -66 -194q-65 -120 -185 -187q-122 -68 -250 -68h-99v99h100q102 2 199 56q96 53 147 149
q53 95 54 195v900z" />
    <glyph glyph-name="sf277.042" unicode="&#x698;" horiz-adv-x="600" arabic-form="final" 
d="M301 1000h100v-700h300v-100h-300v-50h300v-100h-300q-2 -74 -66 -194q-65 -120 -185 -187q-122 -68 -250 -68h-99v99h100q102 2 199 56q96 53 147 149q53 95 54 195v900zM252 1368q32 -32 30 -72q0 -41 -29 -71q-29 -29 -72 -29q-41 0 -70 29q-30 30 -30 71q-2 40 30 72
q32 31 70 29q39 2 71 -29zM562 1367q32 -32 30 -72q0 -41 -29 -71q-29 -29 -72 -29q-41 0 -70 29q-30 30 -30 71q-2 40 30 72q32 31 70 29q39 2 71 -29zM392 1607q32 -32 30 -72q0 -41 -29 -71q-29 -29 -72 -29q-41 0 -70 29q-30 30 -30 71q-2 40 30 72q32 31 70 29
q39 2 71 -29z" />
    <glyph glyph-name="sf309" unicode="&#x633;" horiz-adv-x="1306" arabic-form="initial" 
d="M1100 200h-1200v101h300v700h100v-700h300v802h100v-800h300v899h100v-1002zM-100 149h1201v-100h-1201v100z" />
    <glyph glyph-name="sf327" unicode="&#x633;" horiz-adv-x="1301" arabic-form="medial" 
d="M1400 301v-101h-1500v101h300v700h100v-700h300v802h100v-800h300v899h100v-901h300zM-100 149h1500v-100h-1500v100z" />
    <glyph glyph-name="sf277.004" unicode="&#x633;" horiz-adv-x="2098" arabic-form="final" 
d="M2204 199h-1102l-10 -50h1109v-100l-1159 1q-79 -114 -184 -181q-107 -69 -254 -69q-207 0 -355 147q-148 146 -146 353q0 206 148 354q68 68 159 107q90 40 177 40q67 0 95 -46q21 -36 17 -78q-5 -48 -47 -69q-43 -27 -90 -15q-45 12 -59 50q-10 26 -6 37q1 6 -10 4
q-12 -2 -34 -13q-25 -12 -55 -33q-36 -24 -75 -56q-117 -118 -118 -282q0 -163 116 -281q119 -116 283 -116t280 116q116 118 119 281l-1 700h100v-700h300v802h100v-800h300v899h100v-901h300z" />
    <glyph glyph-name="sf309.001" unicode="&#x634;" horiz-adv-x="1202" arabic-form="initial" 
d="M561 1433q32 -32 30 -72q0 -41 -29 -71q-29 -29 -72 -29q-41 0 -70 29q-30 30 -30 71q-2 40 30 72q32 31 70 29q39 2 71 -29zM871 1432q32 -32 30 -72q0 -41 -29 -71q-29 -29 -72 -29q-41 0 -70 29q-30 30 -30 71q-2 40 30 72q32 31 70 29q39 2 71 -29zM701 1672
q32 -32 30 -72q0 -41 -29 -71q-29 -29 -72 -29q-41 0 -70 29q-30 30 -30 71q-2 40 30 72q32 31 70 29q39 2 71 -29zM1100 200h-1200v101h300v700h100v-700h300v802h100v-800h300v899h100v-1002zM-100 149h1201v-100h-1201v100z" />
    <glyph glyph-name="sf327.001" unicode="&#x634;" horiz-adv-x="1298" arabic-form="medial" 
d="M559 1573q32 -32 30 -72q0 -41 -29 -71q-29 -29 -72 -29q-41 0 -70 29q-30 30 -30 71q-2 40 30 72q32 31 70 29q39 2 71 -29zM869 1572q32 -32 30 -72q0 -41 -29 -71q-29 -29 -72 -29q-41 0 -70 29q-30 30 -30 71q-2 40 30 72q32 31 70 29q39 2 71 -29zM699 1812
q32 -32 30 -72q0 -41 -29 -71q-29 -29 -72 -29q-41 0 -70 29q-30 30 -30 71q-2 40 30 72q32 31 70 29q39 2 71 -29zM1398 301v-101h-1500v101h300v700h100v-700h300v802h100v-800h300v899h100v-901h300zM-102 149h1500v-100h-1500v100z" />
    <glyph glyph-name="sf277.033" unicode="&#x634;" horiz-adv-x="2093" arabic-form="final" 
d="M1366 1473q32 -32 31 -72q0 -41 -31 -71q-30 -29 -70 -29q-42 0 -71 29q-29 30 -29 71q-3 40 29 72q32 31 71 29q39 2 70 -29zM1676 1472q32 -32 31 -72q0 -41 -31 -71q-30 -29 -70 -29q-42 0 -71 29q-29 30 -29 71q-3 40 29 72q32 31 71 29q39 2 70 -29zM1506 1712
q32 -32 31 -72q0 -41 -31 -71q-30 -29 -70 -29q-42 0 -71 29q-29 30 -29 71q-3 40 29 72q32 31 71 29q39 2 70 -29zM2199 199h-1102l-10 -50h1109v-100l-1159 1q-79 -114 -184 -181q-107 -69 -254 -69q-207 0 -355 147q-148 146 -146 353q0 206 148 354q68 68 159 107
q90 40 177 40q67 0 95 -46q21 -36 17 -78q-5 -48 -47 -69q-43 -27 -90 -15q-45 12 -59 50q-10 26 -6 37q1 6 -10 4q-12 -2 -34 -13q-25 -12 -55 -33q-36 -24 -75 -56q-117 -118 -118 -282q0 -163 116 -281q119 -116 283 -116t280 116q116 118 119 281l-1 700h100v-700h300
v802h100v-800h300v899h100v-901h300z" />
    <glyph glyph-name="sf310.002" unicode="&#x635;" horiz-adv-x="1801" arabic-form="initial" 
d="M-98 300h200v900h100v-140h305q106 0 295 70q192 71 348 71q160 0 305 -147q147 -148 147 -355v-499h-1700v100zM202 300h1300v400q-3 163 -119 282q-118 116 -253 112t-317 -69q-183 -65 -296 -65h-315v-660zM-97 149h1698v-100h-1698v100z" />
    <glyph glyph-name="sf328" unicode="&#x635;" horiz-adv-x="1801" arabic-form="medial" 
d="M200 300h1300v400q-3 163 -119 282q-118 116 -253 112t-317 -69q-183 -65 -296 -65h-315v-660zM-100 300h200v900h100v-140h305q106 0 295 70q192 71 348 71q160 0 305 -147q147 -148 147 -355v-399h300v-100h-2000v100zM-99 149h2000v-100h-2000v100z" />
    <glyph glyph-name="sf277.005" unicode="&#x635;" horiz-adv-x="2700" arabic-form="final" 
d="M2399 300v400q-3 163 -119 282q-118 116 -253 112t-317 -69q-183 -65 -296 -65h-315v-660h1300zM1099 199l-9 -50h1708v-100l-1758 1q-78 -114 -184 -181q-106 -69 -254 -69q-206 0 -355 147q-146 145 -148 353h3q0 206 148 354q72 72 149 108q86 39 187 39q67 0 95 -46
q22 -36 17 -78q-5 -48 -47 -69q-43 -27 -89 -15q-45 12 -60 50q-9 26 -6 37q2 6 -10 4t-33 -13q-25 -12 -56 -33q-36 -24 -75 -56q-117 -118 -123 -282q5 -164 120 -281q119 -116 283 -116t280 116q128 111 117 281v900h100v-140h305q106 0 295 70q192 71 348 71
q160 0 305 -147q147 -148 147 -355v-399h300v-101h-1700z" />
    <glyph glyph-name="sf310.003" unicode="&#x636;" horiz-adv-x="1803" arabic-form="initial" 
d="M-99 300h200v900h100v-140h305q106 0 295 70q192 71 348 71q160 0 305 -147q147 -148 147 -355v-499h-1700v100zM201 300h1300v400q-3 163 -119 282q-118 116 -253 112t-317 -69q-183 -65 -296 -65h-315v-660zM572 1471q32 -32 30 -72q0 -41 -30 -71q-30 -29 -71 -29
t-71 29q-29 30 -29 71q-2 40 30 72q32 31 70 29q39 2 71 -29zM-98 149h1698v-100h-1698v100z" />
    <glyph glyph-name="sf328.001" unicode="&#x636;" horiz-adv-x="1800" arabic-form="medial" 
d="M-100 300h200v900h100v-140h305q106 0 295 70q192 71 348 71q160 0 305 -147q147 -148 147 -355v-399h300v-100h-2000v100zM200 300h1300v400q-3 163 -119 282q-118 116 -253 112t-317 -69q-183 -65 -296 -65h-315v-660zM571 1471q32 -32 30 -72q0 -41 -30 -71
q-30 -29 -71 -29t-71 29q-29 30 -29 71q-2 40 30 72q32 31 70 29q39 2 71 -29zM-99 149h2000v-100h-2000v100z" />
    <glyph glyph-name="sf277.034" unicode="&#x636;" horiz-adv-x="2697" arabic-form="final" 
d="M2397 300v400q-3 163 -119 282q-118 116 -253 112t-317 -69q-183 -65 -296 -65h-315v-660h1300zM1468 1572q32 -32 30 -72q0 -41 -30 -71q-30 -29 -71 -29t-71 29q-29 30 -29 71q-2 40 30 72q32 31 70 29q39 2 71 -29zM1097 199l-9 -50h1708v-100l-1758 -5
q-78 -108 -184 -175q-106 -69 -254 -69q-206 0 -355 147q-146 145 -148 353h3q0 206 148 354q72 72 149 108q86 39 187 39q67 0 95 -46q22 -36 17 -78q-5 -48 -47 -69q-43 -27 -89 -15q-45 12 -60 50q-9 26 -6 37q2 6 -10 4t-33 -13q-25 -12 -56 -33q-36 -24 -75 -56
q-117 -118 -123 -282q5 -164 120 -281q119 -116 283 -116t280 116q128 111 117 281v900h100v-140h305q106 0 295 70q192 71 348 71q160 0 305 -147q147 -148 147 -355v-399h300v-101h-1700z" />
    <glyph glyph-name="sf311" unicode="&#x637;" horiz-adv-x="1799" arabic-form="initial" 
d="M-100 300h200v1700h100v-940h305q106 0 295 70q192 71 348 71q160 0 305 -147q147 -148 147 -355v-499h-1700v100zM200 300h1300v400q-3 163 -119 282q-118 116 -253 112t-317 -69q-183 -65 -296 -65h-315v-660zM-99 149h1700v-100h-1700v100z" />
    <glyph glyph-name="sf329" unicode="&#x637;" horiz-adv-x="1800" arabic-form="medial" 
d="M-101 300h200v1700h100v-940h305q106 0 295 70q192 71 348 71q160 0 305 -147q147 -148 147 -355v-399h300v-100h-2000v100zM199 300h1300v400q-3 163 -119 282q-118 116 -253 112t-317 -69q-183 -65 -296 -65h-315v-660zM-100 149h2002l-1 -100h-2001v100z" />
    <glyph glyph-name="sf277.006" unicode="&#x637;" horiz-adv-x="1803" arabic-form="final" 
d="M-98 300h200v1700h100v-940h305q106 0 295 70q192 71 348 71q160 0 305 -147q147 -148 147 -355v-399h300v-100h-2000v100zM202 300h1300v400q-3 163 -119 282q-118 116 -253 112t-317 -69q-183 -65 -296 -65h-315v-660zM-97 149h2002l-1 -100h-2001v100z" />
    <glyph glyph-name="sf311.001" unicode="&#x638;" horiz-adv-x="1799" arabic-form="initial" 
d="M-100 300h200v1700h100v-940h305q106 0 295 70q192 71 348 71q160 0 305 -147q147 -148 147 -355v-499h-1700v100zM200 300h1300v400q-3 163 -119 282q-118 116 -253 112t-317 -69q-183 -65 -296 -65h-315v-660zM671 1572q30 -30 30 -71q0 -40 -30 -71q-30 -30 -71 -30
t-71 30q-29 30 -29 71t30 71q30 29 70 29q41 0 71 -29zM-99 149h1700v-100h-1700v100z" />
    <glyph glyph-name="sf329.001" unicode="&#x638;" horiz-adv-x="1800" arabic-form="medial" 
d="M-101 300h200v1700h100v-940h305q106 0 295 70q192 71 348 71q160 0 305 -147q147 -148 147 -355v-399h300v-100h-2000v100zM199 300h1300v400q-3 163 -119 282q-118 116 -253 112t-317 -69q-183 -65 -296 -65h-315v-660zM670 1572q30 -30 30 -71q0 -40 -30 -71
q-30 -30 -71 -30t-71 30q-29 30 -29 71t30 71q30 29 70 29q41 0 71 -29zM-100 149h2002l-1 -100h-2001v100z" />
    <glyph glyph-name="sf277.035" unicode="&#x638;" horiz-adv-x="1803" arabic-form="final" 
d="M-98 300h200v1700h100v-940h305q106 0 295 70q192 71 348 71q160 0 305 -147q147 -148 147 -355v-399h300v-100h-2000v100zM202 300h1300v400q-3 163 -119 282q-118 116 -253 112t-317 -69q-183 -65 -296 -65h-315v-660zM673 1572q30 -30 30 -71q0 -40 -30 -71
q-30 -30 -71 -30t-71 30q-29 30 -29 71t30 71q30 29 70 29q41 0 71 -29zM-97 149h2002l-1 -100h-2001v100z" />
    <glyph glyph-name="sf299" unicode="&#x639;" horiz-adv-x="1298" arabic-form="initial" 
d="M600 1098q-164 0 -281 -117t-117 -281q0 -163 117 -282q113 -113 282 -118l500 -1v-100h-1200v101h400q-30 21 -55 46q-147 147 -147 354q0 206 147 353q150 148 354 148q206 0 354 -148q68 -68 107 -159q40 -90 40 -177q0 -31 -8 -55q-11 -30 -33 -46q-39 -23 -83 -14
q-46 9 -69 50q-27 43 -15 89t50 59q25 10 37 7q6 -2 4 10t-12 34q-13 24 -33 55q-24 36 -57 75q-118 117 -282 117zM-99 149h1199v-100h-1199v100z" />
    <glyph glyph-name="sf318" unicode="&#x639;" horiz-adv-x="1298" arabic-form="medial" 
d="M600 1098q-164 0 -281 -117t-117 -281q0 -163 117 -282q113 -113 282 -118l800 -1v-100h-1500v101h400q-30 21 -55 46q-147 147 -147 354q0 206 147 353q150 148 354 148q206 0 354 -148q68 -68 107 -159q40 -90 40 -177q0 -31 -8 -55q-11 -30 -33 -46q-39 -23 -83 -14
q-46 9 -69 50q-27 43 -15 89t50 59q25 10 37 7q6 -2 4 10t-12 34q-13 24 -33 55q-24 36 -57 75q-118 117 -282 117zM-99 149h1501v-100h-1501v100z" />
    <glyph glyph-name="sf277.008" unicode="&#x639;" horiz-adv-x="1298" arabic-form="final" 
d="M1041 941q-150 -19 -348 150q-200 -169 -351 -149v-170q2 -124 31 -186q32 -63 84 -117q112 -117 225 -118q132 -2 245 116q54 55 83 117q31 62 31 187v170zM285 522q-43 105 -43 251v269q200 -41 325 95q125 135 249 -1q125 -136 325 -95v-270q2 -143 -38 -236
q-37 -91 -105 -159l-106 -76h550v-100l-754 -1q-280 0 -326 -50h1082v-100l-1162 -2q-75 -106 0 -220q75 -115 289 -123v-1h371v-101h-371q-294 -7 -384 168q-90 176 -5 328q85 154 310 202q-163 116 -207 222z" />
    <glyph glyph-name="sf299.001" unicode="&#x63a;" horiz-adv-x="1296" arabic-form="initial" 
d="M670 1572q30 -30 30 -71q0 -40 -30 -71q-30 -30 -71 -30t-71 30q-29 30 -29 71t30 71q30 29 70 29q41 0 71 -29zM598 1098q-164 0 -281 -117t-117 -281q0 -163 117 -282q113 -113 282 -118l500 -1v-100h-1200v101h400q-30 21 -55 46q-147 147 -147 354q0 206 147 353
q150 148 354 148q206 0 354 -148q68 -68 107 -159q40 -90 40 -177q0 -31 -8 -55q-11 -30 -33 -46q-39 -23 -83 -14q-46 9 -69 50q-27 43 -15 89t50 59q25 10 37 7q6 -2 4 10t-12 34q-13 24 -33 55q-24 36 -57 75q-118 117 -282 117zM-101 149h1201l-1 -100h-1200v100z" />
    <glyph glyph-name="sf318.001" unicode="&#x63a;" horiz-adv-x="1300" arabic-form="medial" 
d="M223 1572q30 -30 30 -71q0 -40 -30 -71q-30 -30 -71 -30t-71 30q-29 30 -29 71t30 71q30 29 70 29q41 0 71 -29zM601 1098q-164 0 -281 -117t-117 -281q0 -163 117 -282q113 -113 282 -118l800 -1v-100h-1500v101h400q-30 21 -55 46q-147 147 -147 354q0 206 147 353
q150 148 354 148q206 0 354 -148q68 -68 107 -159q40 -90 40 -177q0 -31 -8 -55q-11 -30 -33 -46q-39 -23 -83 -14q-46 9 -69 50q-27 43 -15 89t50 59q25 10 37 7q6 -2 4 10t-12 34q-13 24 -33 55q-24 36 -57 75q-118 117 -282 117zM-98 149h1501v-100h-1501v100z" />
    <glyph glyph-name="sf277.036" unicode="&#x63a;" horiz-adv-x="1298" arabic-form="final" 
d="M761 1572q30 -30 30 -71q0 -40 -30 -71q-30 -30 -71 -30t-71 30q-29 30 -29 71t30 71q30 29 70 29q41 0 71 -29zM1041 941q-150 -19 -348 150q-200 -169 -351 -149v-170q2 -124 31 -186q32 -63 84 -117q112 -117 225 -118q132 -2 245 116q54 55 83 117q31 62 31 187v170z
M285 522q-43 105 -43 251v269q200 -41 325 95q125 135 249 -1q125 -136 325 -95v-270q2 -143 -38 -236q-37 -91 -105 -159l-106 -76h550v-100l-754 -1q-280 0 -326 -50h1082v-100l-1162 -2q-75 -106 0 -220q75 -115 289 -123v-1h371v-101h-371q-294 -7 -384 168
q-90 176 -5 328q85 154 310 202q-163 116 -207 222z" />
    <glyph glyph-name="sf301" unicode="&#x641;" horiz-adv-x="1198" arabic-form="initial" 
d="M618 1670q30 -30 30 -71q0 -40 -30 -71q-30 -30 -71 -30t-71 30q-29 30 -29 71t30 71q30 29 70 29q41 0 71 -29zM200 597h700v640q-103 -41 -251 -40q-152 2 -246 -50q-95 -51 -149 -147t-54 -200v-203zM100 497v303q0 129 67 250q67 120 187 185t318 63q198 -1 328 99
v-1200h-1100v100h1000v200h-800zM-100 149h1099l-1 -100h-1098v100z" />
    <glyph glyph-name="sf321" unicode="&#x641;" horiz-adv-x="1197" arabic-form="medial" 
d="M618 1670q30 -30 30 -71q0 -40 -30 -71q-30 -30 -71 -30t-71 30q-29 30 -29 71t30 71q30 29 70 29q41 0 71 -29zM200 597h700v640q-103 -41 -251 -40q-152 2 -246 -50q-95 -51 -149 -147t-54 -200v-203zM100 497v303q0 129 67 250q67 120 187 185t318 63q198 -1 328 99
v-1100h300v-100h-1400v100h1000v200h-800zM-100 149h1399v-100h-1399v100z" />
    <glyph glyph-name="sf277.009" unicode="&#x641;" horiz-adv-x="2195" arabic-form="final" 
d="M1615 1673q30 -30 30 -71q0 -40 -30 -71q-30 -30 -71 -30t-71 30q-29 30 -29 71t30 71q30 29 70 29q41 0 71 -29zM1197 600h700v640q-103 -41 -251 -40q-152 2 -246 -50q-95 -51 -149 -147t-54 -200v-203zM97 696q0 204 146 350t352 146v-101q-164 0 -280 -116
q-116 -119 -116 -279q0 -161 116 -279q116 -115 282 -117h1300v200h-800v303q0 129 67 250q67 120 187 185t318 63q198 -1 328 99v-1100h300v-100h-1700q-208 0 -354 145q-146 148 -146 351zM2297 149v-100h-1500q-300 50 -300 100h1800z" />
    <glyph glyph-name="sf301.001" unicode="&#x642;" horiz-adv-x="1197" arabic-form="initial" 
d="M748 1672q30 -30 30 -71q0 -40 -30 -71q-30 -30 -71 -30t-71 30q-29 30 -29 71t30 71q30 29 70 29q41 0 71 -29zM492 1672q30 -30 30 -71q0 -40 -30 -71q-30 -30 -71 -30t-71 30q-29 30 -29 71t30 71q30 29 70 29q41 0 71 -29zM201 600h700v640q-103 -41 -251 -40
q-152 2 -246 -50q-95 -51 -149 -147t-54 -200v-203zM101 500v303q0 129 67 250q67 120 187 185t318 63q198 -1 328 99v-1200h-1100v100h1000v200h-800zM-101 149h1099l-1 -100h-1098v100z" />
    <glyph glyph-name="sf321.001" unicode="&#x642;" horiz-adv-x="1302" arabic-form="medial" 
d="M-96 301l399 4q-138 104 -182 269q-54 199 50 379q49 84 126 144q80 62 177 88q200 53 378 -50q180 -103 233 -303q54 -198 -50 -378q-50 -86 -131 -149h501v-102l-1501 -4v102zM946 505q83 144 40 301q-44 159 -184 241h-1q-142 81 -300 40q-159 -44 -241 -185
q-83 -145 -40 -301q44 -161 185 -241q142 -82 301 -40q158 42 241 185h-1zM794 1572q30 -30 30 -71t-29 -71q-30 -30 -71 -30q-40 0 -71 30q-30 31 -30 71q0 41 30 71q30 29 71 29q40 0 70 -29zM542 1572q31 -30 31 -71q0 -40 -30 -71q-30 -30 -71 -30t-71 30q-29 30 -29 71
t30 71q30 29 70 29t70 -29zM-96 149h1501v-100h-1501v100z" />
    <glyph glyph-name="sf277.010" unicode="&#x642;" horiz-adv-x="1500" arabic-form="final" 
d="M806 1572q30 -30 30 -71q0 -40 -30 -71q-30 -30 -71 -30t-71 30q-29 30 -29 71t30 71q30 29 70 29q41 0 71 -29zM1056 1572q30 -30 30 -71q0 -40 -30 -71q-30 -30 -71 -30t-71 30q-29 30 -29 71t30 71q30 29 70 29q41 0 71 -29zM514 302l700 -2v740q-103 -41 -251 -40
q-151 2 -251 -70q-98 -69 -149 -172q-49 -99 -49 -358v-98zM202 356q-15 -195 61 -353q77 -158 205 -238q103 -63 229 -74q121 -13 233 33q119 53 199 165t75 160h-790v100h800v50l-800 1v200q0 281 62 408q61 125 187 210q123 85 323 83q198 -1 328 99v-900h300v-101
l-300 1v-52h300v-95l-310 1q2 -84 -98 -215q-100 -133 -243 -192q-132 -56 -274 -43q-142 11 -267 90q-146 90 -235 270q-88 179 -70 392h85z" />
    <glyph glyph-name="sf302.001" unicode="&#x643;" horiz-adv-x="1502" arabic-form="initial" 
d="M1201 301q-4 118 -25 218q-20 98 -82 197q-61 102 -141 159q-77 56 -201 91q-120 34 -242 34h-410v100l1100 900l50 -80l-1000 -820h300q308 -26 446 -126q137 -98 202 -227q31 -61 52 -124q20 -58 32 -118q11 -54 16 -108q4 -49 2 -97v-101h-1400v103zM-100 149h1401
l-1 -100h-1400v100z" />
    <glyph glyph-name="sf322.003" unicode="&#x643;" horiz-adv-x="1502" arabic-form="medial" 
d="M1201 301q-4 118 -25 218q-20 98 -82 197q-61 102 -141 159q-77 56 -201 91q-120 34 -242 34h-410v100l1100 900l50 -80l-1000 -820h300q308 -26 446 -126q137 -98 202 -227q31 -61 52 -124q20 -58 32 -118q11 -54 16 -108q4 -49 2 -97h300v-101h-1700v103zM-100 149
h1701v-100h-1701v100z" />
    <glyph glyph-name="sf322.004" unicode="&#x643;" horiz-adv-x="2192" arabic-form="final" 
d="M1279 1079q0 34 -24 56q-22 24 -56 24t-58 -24q-23 -23 -23 -56q0 -32 23 -57q23 -22 57 -24h195v-98h-400v98h46q-19 37 -19 81q0 74 52 126t127 52q72 0 126 -52q52 -52 52 -126h-98zM2293 149v-100h-1500q-300 50 -300 100h1800zM1993 2000v-1700h300v-100h-1700
q-207 0 -353 147q-147 146 -147 345q0 206 146 355q146 147 353 147v1q41 0 71 -29t30 -71q0 -40 -30 -71q-30 -30 -71 -30q-27 0 -50 13t-37 38q-13 23 -13 34q-63 -7 -181 -104q-116 -119 -116 -279q2 -162 117 -277q118 -116 281 -119h1300v1700h100z" />
    <glyph glyph-name="sf302.002" unicode="&#x6af;" horiz-adv-x="1551" arabic-form="initial" 
d="M1250 301q-4 118 -25 218q-20 98 -82 197q-61 102 -141 159q-77 56 -201 91q-120 34 -242 34h-410v100l1100 900l50 -80l-1000 -820h300q308 -26 446 -126q137 -98 202 -227q31 -61 52 -124q20 -58 32 -118q11 -54 16 -108q4 -49 2 -97v-101h-1400v103zM-51 149h1401
l-1 -100h-1400v100zM129 1381l885 724l112 -35l-142 -113l-855 -698v122z" />
    <glyph glyph-name="sf322.001" unicode="&#x6af;" horiz-adv-x="1502" arabic-form="medial" 
d="M1201 301q-4 118 -25 218q-20 98 -82 197q-61 102 -141 159q-77 56 -201 91q-120 34 -242 34h-410v100l1100 900l50 -80l-1000 -820h300q308 -26 446 -126q137 -98 202 -227q31 -61 52 -124q20 -58 32 -118q11 -54 16 -108q4 -49 2 -97h300v-101h-1700v103zM-100 149
h1701v-100h-1701v100zM80 1381l885 724l112 -35l-142 -113l-855 -698v122z" />
    <glyph glyph-name="sf322.002" unicode="&#x6af;" horiz-adv-x="2192" arabic-form="final" 
d="M2093 149v-100h-1500q-300 50 -300 100h1800zM1741 1919l-1000 -820h300q308 -26 446 -126q137 -98 202 -227q64 -127 85 -242q20 -116 17 -204h302v-100h-302v-2h-1400v2q-205 2 -351 147q-147 146 -147 345q0 206 146 355q146 147 353 147v1q41 0 71 -29t30 -71
q0 -40 -30 -71q-30 -30 -71 -30q-27 0 -50 13t-37 38q-13 23 -13 34q-63 -7 -181 -104q-116 -120 -115 -279q0 -161 116 -277q114 -114 279 -119v1l1301 -1q-4 118 -25 218q-20 98 -82 197q-61 102 -141 159q-77 56 -201 91q-120 34 -242 34h-410v100l1100 900zM583 1381
l885 724l112 -35l-142 -113l-855 -698v122z" />
    <glyph glyph-name="sf306" unicode="&#x644;" horiz-adv-x="501" arabic-form="initial" 
d="M301 1999v-1800h-400v100h300v1700h100zM-99 149h402l-1 -100h-401v100z" />
    <glyph glyph-name="sf325" unicode="&#x644;" horiz-adv-x="398" arabic-form="medial" 
d="M199 1999v-1700h300v-100h-600v100h200v1700h100zM-101 149h599l-1 -100h-598v100z" />
    <glyph glyph-name="sf277.011" unicode="&#x644;" horiz-adv-x="1300" arabic-form="final" 
d="M1402 199h-300l-10 -50h312v-100l-362 1q-79 -114 -184 -181q-107 -69 -254 -69q-207 0 -355 147q-148 146 -146 353q0 206 148 354q68 68 159 107q90 40 178 40q67 0 95 -46q12 -22 16 -50q10 -62 -46 -97q-43 -27 -90 -15q-45 12 -59 50q-10 26 -6 37q1 6 -10 4
q-13 -2 -34 -13q-26 -12 -56 -33q-36 -24 -75 -56q-117 -118 -118 -282q0 -163 116 -281q119 -116 283 -116t280 116q116 118 119 281v1700h100l-1 -1700h300v-101z" />
    <glyph glyph-name="sf307" unicode="&#x645;" horiz-adv-x="1202" arabic-form="initial" 
d="M999 199h-1100v100h200v200q0 351 249 518q123 85 323 83q198 -1 328 99v-1000zM199 299h700v740q-103 -41 -251 -40q-151 2 -251 -70q-98 -69 -149 -172q-49 -99 -49 -258v-200zM-101 149h1099v-100h-1099v100z" />
    <glyph glyph-name="sf326" unicode="&#x645;" horiz-adv-x="1304" arabic-form="medial" 
d="M246 200q53 -94 147 -147q96 -51 199 -51q104 0 198 51q97 53 149 147q54 96 54 199t-54 200q-53 98 -149 149q-94 52 -198 52q-100 0 -195 -52q-95 -51 -149 -149q-53 -98 -53 -200q0 -103 51 -199zM1396 200h-346l-34 -51h384v-100l-434 2l-123 -86q-121 -65 -249 -65
t-286 90l-73 59h-334v100h266l-29 51h-240l1 101l208 -1l-10 100q0 127 67 248q68 122 186 186q121 65 244 65q129 0 248 -65q119 -64 187 -186q67 -121 67 -251l-9 -97h309v-100z" />
    <glyph glyph-name="sf277.012" unicode="&#x645;" horiz-adv-x="1200" arabic-form="final" 
d="M200 300h700v740q-103 -41 -251 -40q-151 2 -251 -70q-98 -69 -149 -172q-49 -99 -49 -258v-200zM100 500q0 351 249 518q123 85 323 83q198 -1 328 99v-900h300v-100h-1100v-51h1099l-1 -100h-1098v-103q-2 -198 -147 -344l-71 72q115 114 118 277v549z" />
    <glyph glyph-name="sf300.008" unicode="&#x646;" horiz-adv-x="402" arabic-form="initial" 
d="M201 1201v-1001h-300v100h200v901h100zM172 1572q32 -32 30 -72q0 -41 -30 -71q-30 -29 -71 -29t-71 29q-29 30 -29 71q-2 40 30 72q32 31 70 29q39 2 71 -29zM-99 149h303l-1 -100h-302v100z" />
    <glyph glyph-name="sf277.023" unicode="&#x646;" horiz-adv-x="398" arabic-form="medial" 
d="M220 1571q32 -32 30 -72q0 -41 -30 -71q-30 -29 -71 -29t-71 29q-29 30 -29 71q-2 40 30 72q32 31 70 29q39 2 71 -29zM200 1201v-901h300v-100h-600v100h200v901h100zM-100 149h600l-1 -100h-599v100z" />
    <glyph glyph-name="sf277.020" unicode="&#x646;" horiz-adv-x="1298" arabic-form="final" 
d="M533 374q30 29 70 29q41 0 71 -29q30 -30 30 -71q0 -40 -30 -71q-30 -30 -71 -30t-71 30q-29 30 -29 71t30 71zM1401 199h-302l-10 -50h314v-100l-364 1q-78 -114 -184 -181q-106 -69 -254 -69q-206 0 -355 147q-146 146 -146 353q0 206 148 354q68 68 159 107
q90 40 177 40q67 0 95 -46q22 -36 17 -78q-5 -48 -47 -69q-43 -27 -89 -15q-45 12 -60 50q-9 26 -6 37q2 6 -10 4t-33 -13q-25 -12 -56 -33q-36 -24 -75 -56q-116 -118 -118 -282q0 -163 116 -281q119 -116 283 -116t280 116q116 118 119 281l-1 700h100v-700h302v-101z" />
    <glyph glyph-name="sf277.044" unicode="&#x6ba;" horiz-adv-x="1298" arabic-form="final" 
d="M1401 199h-302l-10 -50h314v-100l-364 1q-78 -114 -184 -181q-106 -69 -254 -69q-206 0 -355 147q-146 146 -146 353q0 206 148 354q68 68 159 107q90 40 177 40q67 0 95 -46q22 -36 17 -78q-5 -48 -47 -69q-43 -27 -89 -15q-45 12 -60 50q-9 26 -6 37q2 6 -10 4t-33 -13
q-25 -12 -56 -33q-36 -24 -75 -56q-116 -118 -118 -282q0 -163 116 -281q119 -116 283 -116t280 116q116 118 119 281l-1 700h100v-700h302v-101z" />
    <glyph glyph-name="sf277.016" unicode="&#x648;" horiz-adv-x="1197" arabic-form="final" 
d="M197 302l700 -2v740q-103 -41 -251 -40q-151 2 -251 -70q-98 -69 -149 -172q-49 -99 -49 -358v-98zM97 49v100h800v50l-800 1v200q0 281 62 408q61 125 187 210q123 85 323 83q198 -1 328 99v-900h300v-101l-300 1v-52h300v-95h-300q-1 -87 -66 -203q-64 -114 -185 -182
q-122 -68 -250 -68h-99v99h100q102 2 199 56q96 53 147 149q52 95 54 145h-800z" />
    <glyph glyph-name="sf277.045" unicode="&#x624;" horiz-adv-x="1197" arabic-form="final" 
d="M197 302l700 -2v740q-103 -41 -251 -40q-151 2 -251 -70q-98 -69 -149 -172q-49 -99 -49 -358v-98zM97 49v100h800v50l-800 1v200q0 281 62 408q61 125 187 210q123 85 323 83q198 -1 328 99v-900h300v-101l-300 1v-52h300v-95h-300q-1 -87 -66 -203q-64 -114 -185 -182
q-122 -68 -250 -68h-99v99h100q102 2 199 56q96 53 147 149q52 95 54 145h-800zM818 1349q0 25 -18 44q-19 19 -45 19t-44 -19q-19 -18 -19 -44q0 -27 19 -45q16 -19 44 -19h110v-37h-231v37h45q-22 26 -22 64q0 42 28 70q29 29 70 29t70 -29q31 -29 31 -70h-38z" />
    <glyph glyph-name="sf265.001.zz02" unicode="&#x6c1;" horiz-adv-x="1602" arabic-form="initial" 
d="M-95 149h1439l-30 -100h-1409v100zM226 301h682l1 23q1 11 0 20q0 32 -11 82q-37 136 -160 208q-123 70 -260 35q-134 -38 -205 -155q-61 -99 -47 -213zM124 301q-12 140 63 265q92 153 265 200q177 46 337 -45q160 -93 206 -270q15 -54 15 -105q1 -7 0 -19l-1 -26h277
q50 248 -76 467q-137 238 -403 310q-142 27 -246 9q-100 -16 -146 -40q-25 -13 -51 -25q-32 -15 -66 -30q-73 -31 -120 -9q-46 22 -60 62q-13 38 -13 65q-2 40 30 72q32 31 70 29q42 0 71 -29q30 -31 30 -82q197 142 526 76q150 -41 272 -137q117 -91 193 -221
q73 -127 96 -278q22 -147 2 -240l-33 -100h-1457v101h219z" />
    <glyph glyph-name="sf297" unicode="&#x6c1;" horiz-adv-x="1573" arabic-form="medial" 
d="M-105 136h325l-10 -101l-315 1v100zM905 193l-8 101h755v-100h-260q20 -93 -2 -239q-23 -151 -96 -278q-76 -130 -193 -221q-122 -96 -272 -137q-329 -66 -526 76q0 -51 -30 -82q-29 -29 -71 -29q-38 -2 -70 29q-32 32 -30 72q0 27 13 65q14 40 60 62q47 22 120 -9
q34 -15 66 -30q26 -12 51 -25q46 -24 146 -40q104 -18 246 9q266 72 403 310q126 219 76 466h-277l1 -26q1 -12 0 -19q0 -51 -15 -105q-46 -176 -206 -269q-160 -91 -337 -45q-173 47 -190 183q-32 147 117 285l-474 -4v101l683 2l-7 -94l-45 -8q-170 -85 -184 -190
q-8 -140 126 -178q137 -35 260 35q123 72 160 207q11 50 11 82q1 9 0 20zM1035 136h201l6 -101l-207 1v100zM1426 136h201l6 -101l-207 1v100z" />
    <glyph glyph-name="sf277.013" unicode="&#x6c1;" horiz-adv-x="1498" arabic-form="final" 
d="M1154 149h457v-100h-457v100zM1615 202h-461v957q-125 -89 -221 -125q-107 -40 -232 -74q-50 -13 -86 -24q-45 -13 -80 -26q-82 -30 -127 -63q-52 -39 -97 -86q-46 -47 -68 -106q-20 -53 -27 -134q-17 -129 40 -234q10 -19 30 -42q58 -53 130 -80q67 -25 140 -24
q143 2 253 91q74 84 95 169q2 14 5 32l5 32q3 29 3 66q10 131 -71 163q-31 14 -59 13q-30 0 -61 -14q-41 -20 -73 -49q39 2 70 -29q32 -32 31 -72q0 -41 -31 -71q-30 -29 -70 -29q-61 0 -87 50q-13 22 -14 84q0 59 41 117q39 58 100 87q45 22 93 22q47 1 93 -22
q58 -19 94 -82q38 -67 38 -168q0 -45 -4 -77q-6 -51 -12 -75q-35 -111 -126 -214q-87 -77 -200 -106q-114 -27 -232 -2q-120 25 -221 121q-20 21 -40 57q-83 132 -63 297q8 86 45 164q31 64 85 128q66 84 183 142q54 27 120 49q61 20 136 38q180 48 324 122q148 76 148 225
h94v-1101h367v-97z" />
    <glyph glyph-name="sf265.002.zz04" unicode="&#x6c3;" horiz-adv-x="1498" 
d="M1154 149h457v-100h-457v100zM1615 202h-461v957q-125 -89 -221 -125q-107 -40 -232 -74q-50 -13 -86 -24q-45 -13 -80 -26q-82 -30 -127 -63q-52 -39 -97 -86q-46 -47 -68 -106q-20 -53 -27 -134q-17 -129 40 -234q10 -19 30 -42q58 -53 130 -80q67 -25 140 -24
q143 2 253 91q74 84 95 169q2 14 5 32l5 32q3 29 3 66q10 131 -71 163q-31 14 -59 13q-30 0 -61 -14q-41 -20 -73 -49q39 2 70 -29q32 -32 31 -72q0 -41 -31 -71q-30 -29 -70 -29q-61 0 -87 50q-13 22 -14 84q0 59 41 117q39 58 100 87q45 22 93 22q47 1 93 -22
q58 -19 94 -82q38 -67 38 -168q0 -45 -4 -77q-6 -51 -12 -75q-35 -111 -126 -214q-87 -77 -200 -106q-114 -27 -232 -2q-120 25 -221 121q-20 21 -40 57q-83 132 -63 297q8 86 45 164q31 64 85 128q66 84 183 142q54 27 120 49q61 20 136 38q180 48 324 122q148 76 148 225
h94v-1101h367v-97zM1138 1624q30 -30 30 -71q0 -40 -30 -71q-30 -30 -71 -30t-71 30q-29 30 -29 71t30 71q30 29 70 29q41 0 71 -29zM1356 1624q30 -30 30 -71q0 -40 -30 -71q-30 -30 -71 -30t-71 30q-29 30 -29 71t30 71q30 29 70 29q41 0 71 -29z" />
    <glyph glyph-name="sf305" unicode="&#x6be;" horiz-adv-x="1602" arabic-form="initial" 
d="M-95 149h1439l-30 -100h-1409v100zM226 301h682l1 23q1 11 0 20q0 32 -11 82q-37 136 -160 208q-123 70 -260 35q-134 -38 -205 -155q-61 -99 -47 -213zM124 301q-12 140 63 265q92 153 265 200q177 46 337 -45q160 -93 206 -270q15 -54 15 -105q1 -7 0 -19l-1 -26h277
q50 248 -76 467q-137 238 -403 310q-142 27 -246 9q-100 -16 -146 -40q-25 -13 -51 -25q-32 -15 -66 -30q-73 -31 -120 -9q-46 22 -60 62q-13 38 -13 65q-2 40 30 72q32 31 70 29q42 0 71 -29q30 -31 30 -82q197 142 526 76q150 -41 272 -137q117 -91 193 -221
q73 -127 96 -278q22 -147 2 -240l-33 -100h-1457v101h219z" />
    <glyph glyph-name="sf324" unicode="&#x6be;" horiz-adv-x="1573" arabic-form="medial" 
d="M-98 149h1749v-100h-1749v100zM223 301h682l1 23q1 11 0 20q0 32 -11 82q-37 136 -160 208q-123 70 -260 35q-134 -38 -205 -155q-61 -99 -47 -213zM121 301q-12 140 63 265q92 153 265 200q177 46 337 -45q160 -93 206 -270q15 -54 15 -105q1 -7 0 -19l-1 -26h277
q50 248 -76 467q-137 238 -403 310q-142 27 -246 9q-100 -16 -146 -40q-25 -13 -51 -25q-32 -15 -66 -30q-73 -31 -120 -9q-46 22 -60 62q-13 38 -13 65q-2 40 30 72q32 31 70 29q42 0 71 -29q30 -31 30 -82q197 142 526 76q150 -41 272 -137q117 -91 193 -221
q73 -127 96 -278q22 -147 2 -240h260v-100h-1750v101h219z" />
    <glyph glyph-name="sf324.001" unicode="&#x6be;" horiz-adv-x="1573" arabic-form="final" 
d="M-98 149h1749v-100h-1749v100zM223 301h682l1 23q1 11 0 20q0 32 -11 82q-37 136 -160 208q-123 70 -260 35q-134 -38 -205 -155q-61 -99 -47 -213zM121 301q-12 140 63 265q92 153 265 200q177 46 337 -45q160 -93 206 -270q15 -54 15 -105q1 -7 0 -19l-1 -26h277
q50 248 -76 467q-137 238 -403 310q-142 27 -246 9q-100 -16 -146 -40q-25 -13 -51 -25q-32 -15 -66 -30q-73 -31 -120 -9q-46 22 -60 62q-13 38 -13 65q-2 40 30 72q32 31 70 29q42 0 71 -29q30 -31 30 -82q197 142 526 76q150 -41 272 -137q117 -91 193 -221
q73 -127 96 -278q22 -147 2 -240h260v-100h-1750l-14 23z" />
    <glyph glyph-name="sf300.006" unicode="&#x649;" horiz-adv-x="577" 
d="M378 1201v-1001h-421v100h321v901h100zM149 -27q32 -32 30 -72q0 -40 -30 -70q-29 -30 -70 -30q-42 0 -71 30q-29 29 -29 70q-3 40 29 72q32 31 71 29q39 2 70 -29zM379 -28q32 -32 30 -72q0 -40 -30 -70t-71 -30t-70 30q-30 29 -30 70q-2 40 30 72q32 31 70 29
q39 2 71 -29zM-43 149h421l-1 -100h-420v100z" />
    <glyph glyph-name="sf277.024" unicode="&#x649;" horiz-adv-x="491" 
d="M182 -26q32 -32 30 -72q0 -40 -30 -70t-71 -30t-70 30q-30 29 -30 70q-2 40 30 72q32 31 70 29q39 2 71 -29zM412 -27q32 -32 30 -72q0 -40 -30 -70t-71 -30t-71 30q-29 29 -29 70q-2 40 30 72q32 31 70 29q39 2 71 -29zM292 1201v-901h300v-100h-649v100h249v901h100z
M-57 149h649l-1 -100h-648v100z" />
    <glyph glyph-name="sf297.001" unicode="&#x649;" horiz-adv-x="2498" arabic-form="final" 
d="M1497 149q1 -49 -298 -100h-400q-300 50 -300 100h998zM599 200q-207 0 -353 147q-147 146 -147 354q0 207 147 355q146 147 353 147v1q41 0 71 -29t30 -71q0 -40 -30 -71q-30 -30 -71 -30q-27 0 -50 13t-37 38q-13 23 -13 34q-63 -7 -181 -104q-116 -119 -116 -285
q0 -164 116 -280q118 -116 281 -119l771 -1q225 0 289 130q65 131 -40 260q-105 131 -320 111v100h400q290 11 405 -294q107 -306 290 -306h185v-100h-180q-240 -11 -326 215t-165 299q-80 74 -249 86q195 -223 100 -413q-95 -188 -389 -188zM2579 149v-98l-80 -1
q-202 50 -222 99h302z" />
    <glyph glyph-name="sf271.002.zz04" unicode="&#x64a;" horiz-adv-x="2498" arabic-form="final" 
d="M1497 149q1 -49 -298 -100h-400q-300 50 -300 100h998zM599 200q-207 0 -353 147q-147 146 -147 354q0 207 147 355q146 147 353 147v1q41 0 71 -29t30 -71q0 -40 -30 -71q-30 -30 -71 -30q-27 0 -50 13t-37 38q-13 23 -13 34q-63 -7 -181 -104q-116 -119 -116 -285
q0 -164 116 -280q118 -116 281 -119l771 -1q225 0 289 130q65 131 -40 260q-105 131 -320 111v100h400q290 11 405 -294q107 -306 290 -306h185v-100h-180q-240 -11 -326 215t-165 299q-80 74 -249 86q195 -223 100 -413q-95 -188 -389 -188zM2579 149v-98l-80 -1
q-202 50 -222 99h302zM801 -38q29 29 70 29q43 0 72 -29t29 -71q2 -39 -30 -71t-71 -30q-38 -2 -70 30t-30 71q0 42 30 71zM1111 -37q29 29 70 29q43 0 72 -29t29 -71q2 -39 -30 -71t-71 -30q-38 -2 -70 30t-30 71q0 42 30 71z" />
    <glyph glyph-name="sf300.007" unicode="&#x626;" horiz-adv-x="498" arabic-form="initial" 
d="M300 1199v-999h-400v100h300v901zM-100 149h401v-100h-401v100zM306 1359q0 26 -19 45q-18 18 -44 18q-25 0 -45 -18q-19 -19 -19 -45q0 -27 19 -45q18 -18 45 -18h109v-37h-232v37h46q-23 28 -23 63q0 41 29 70t71 29q45 0 70 -29q29 -29 29 -70h-36z" />
    <glyph glyph-name="sf277.025" unicode="&#x626;" horiz-adv-x="491" arabic-form="medial" 
d="M292 1201v-901h300v-100h-649v100h249v901h100zM-57 149h649l-1 -100h-648v100zM305 1343q0 25 -18 44q-19 19 -45 19t-44 -19q-19 -18 -19 -44q0 -27 19 -45q16 -19 44 -19h110v-37h-231v37h45q-22 26 -22 64q0 42 28 70q29 29 70 29t70 -29q31 -29 31 -70h-38z" />
    <glyph glyph-name="sf297.004" unicode="&#x626;" horiz-adv-x="2498" arabic-form="final" 
d="M1497 149q1 -49 -298 -100h-400q-300 50 -300 100h998zM599 200q-207 0 -353 147q-147 146 -147 354q0 207 147 355q146 147 353 147v1q41 0 71 -29t30 -71q0 -40 -30 -71q-30 -30 -71 -30q-27 0 -50 13t-37 38q-13 23 -13 34q-63 -7 -181 -104q-116 -119 -116 -285
q0 -164 116 -280q118 -116 281 -119l771 -1q225 0 289 130q65 131 -40 260q-105 131 -320 111v100h400q290 11 405 -294q107 -306 290 -306h185v-100h-180q-240 -11 -326 215t-165 299q-80 74 -249 86q195 -223 100 -413q-95 -188 -389 -188zM2579 149v-98l-80 -1
q-202 50 -222 99h302zM1501 1054q0 25 -18 44q-19 19 -45 19t-44 -19q-19 -18 -19 -44q0 -27 19 -45q16 -19 44 -19h110v-37h-231v37h45q-22 26 -22 64q0 42 28 70q29 29 70 29t70 -29q31 -29 31 -70h-38z" />
    <glyph glyph-name="sf297.002" unicode="&#x6d2;" horiz-adv-x="2498" arabic-form="final" 
d="M1299 800v100h400q290 11 405 -294q107 -306 290 -306h185v-100h-180q-240 -11 -326 215t-165 299q-80 74 -249 86q-145 20 -360 0zM2579 149v-98l-80 -1q-202 50 -222 99h302zM1860 132v-100h-1500q-300 50 -300 100h1800zM1560 283h300v-100h-1700q-207 0 -368 71
q-175 131 -159 345q0 167 208 273q44 48 737 29l735 -3q4 -6 1 -97l-1370 2q-197 -40 -222 -203q-26 -162 127 -260q148 -54 311 -57h1300h100z" />
    <glyph glyph-name="sf297.003" unicode="&#x6d3;" horiz-adv-x="2498" arabic-form="final" 
d="M1299 800v100h400q290 11 405 -294q107 -306 290 -306h185v-100h-180q-240 -11 -326 215t-165 299q-80 74 -249 86q-145 20 -360 0zM2579 149v-98l-80 -1q-202 50 -222 99h302zM1860 132v-100h-1500q-300 50 -300 100h1800zM1560 283h300v-100h-1700q-207 0 -368 71
q-175 131 -159 345q0 167 208 273q44 48 737 29l735 -3q4 -6 1 -97l-1370 2q-197 -40 -222 -203q-26 -162 127 -260q148 -54 311 -57h1300h100zM1492 1054q0 25 -18 44q-19 19 -45 19t-44 -19q-19 -18 -19 -44q0 -27 19 -45q16 -19 44 -19h110v-37h-231v37h45q-22 26 -22 64
q0 42 28 70q29 29 70 29t70 -29q31 -29 31 -70h-38z" />
    <glyph glyph-name="sf314" unicode="&#xfefb;" horiz-adv-x="1101" arabic-form="isolated" 
d="M802 400q0 168 -114 284q-52 54 -114 81q-61 29 -72 27q-11 0 -72 -28q-59 -26 -113 -81q-113 -115 -115 -283v-100h600v100zM103 1300l-1 700h101v-700q-1 -167 113 -283q53 -54 113 -82q62 -27 73 -27q13 2 73 28q63 29 114 82q115 116 113 284v698h100l1 -699
q2 -206 -143 -354q-77 -68 -161 -96q85 -28 160 -96q66 -66 100 -148q33 -78 43 -207v-200h-800v199q0 208 144 355q74 68 159 96q-84 28 -160 96q-146 150 -142 354zM904 150v-100h-802v100h802z" />
    <glyph glyph-name="sf256.004" unicode="&#xfdfa;" horiz-adv-x="1991" arabic-form="isolated" 
d="M1035 1228q0 -5 0.5 -13l1 -16t1 -15t0.5 -9q0 -10 2.5 -16.5t12.5 -6.5q17 0 17 15q0 3 0.5 10t0.5 14q0 8 0.5 15.5t0.5 11.5q0 10 4 14.5t6 -9.5q1 -3 2.5 -10t2.5 -14.5t2 -14t1 -9.5q3 -6 7.5 -12t12.5 -6q7 0 7 8q0 16 -3 32t1 34q-4 5 0.5 6t6.5 -5q3 -15 6 -31
t3 -34q0 -14 -3 -25.5t-21 -11.5q-19 0 -25 18q-9 -10 -14.5 -16.5t-16.5 -6.5q-10 0 -18.5 7.5t-8.5 18.5v48q0 -8 3 -1t8 30zM606 1172q0 -9 2.5 -15t13.5 -6q15 0 18 14q0 3 0.5 9.5t1 14.5t1 15.5t0.5 11.5q-4 11 1 15t9 -10q0 -3 1 -10t2 -14.5t2 -14.5t1 -10
q4 -5 7.5 -10t11.5 -5q5 0 5 5q0 18 -0.5 34t-0.5 32q0 6 3.5 7t7.5 -4q4 -18 6.5 -34t2.5 -32q0 -13 -5 -25.5t-23 -12.5q-14 0 -21 19q-8 -11 -15 -17.5t-20 -6.5q-9 0 -16.5 8t-7.5 18v49q0 1 1.5 6l3 10t3.5 9t4 4v-54zM554 874q-4 -5 -7.5 -4t0.5 7q6 14 8.5 29t2.5 30
q0 16 -3 31t-11 29q0 3 -0.5 9.5t0 12t3.5 7t10 -4.5q19 -35 18 -73t-21 -73zM336 870q0 -1 2 -1q19 -6 39 -8t42 2q8 0 19 4t15 12q0 13 1.5 21.5t1.5 19.5v6q0 5 -1.5 11t-8.5 3q-27 -18 -54 -34t-54 -34zM950 1240q-1 -40 2 -86t6.5 -93.5t7 -94t3.5 -87.5
q0 -40 -5 -72.5t-18 -52.5q-9 103 -14 200t-14 197q3 7 5.5 19.5t5.5 25.5t8 25t13 19zM1466 668q72 -14 144 -9.5t144 18.5q-13 37 -34.5 56.5t-47 25.5t-54.5 0t-56.5 -19.5t-52.5 -32.5t-43 -39zM1230 436q4 -6 11 -15t17.5 -15.5t24 -8t31.5 7.5q-4 13 -14 24
t-22.5 16.5t-25.5 4t-22 -13.5zM314 316q9 -8 21.5 -14.5t25.5 -12t25 -10l20 -7.5q-5 11 -13.5 25t-20 23t-26 10t-32.5 -14zM1178 130q-10 1 -19 1.5t-19 0.5q-29 0 -55.5 1.5t-49.5 15.5q28 4 56.5 8t52.5 18q19 7 42.5 19.5t46.5 28.5t43.5 35t34 40t17.5 42.5t-6 42.5
q-6 -10 -11 -20t-11 -18t-15 -13t-23 -5q-24 0 -45 15.5t-25 43.5q7 67 34.5 101t58 35.5t54.5 -29t24 -91.5q1 -33 -6 -61t-19.5 -54t-30 -51t-38.5 -52q-18 -20 -42 -35t-49 -19zM50 125q1 0 15 5.5t36 15t50 21.5t56 24.5t53.5 25t43.5 22.5q0 2 -6.5 6.5t-15 11t-15 15
t-6.5 18.5q0 14 12.5 33t30.5 36t36.5 29t30.5 12q20 -2 35 -21t32 -41t38.5 -40t54.5 -18q6 0 15 1.5t18 7.5t14.5 17t3.5 30q-6 58 -9.5 98t-6 66t-3 40.5t-0.5 21.5v13q0 29 7 58.5t12 59.5q-36 -15 -61.5 -5t-40.5 34.5t-21 57.5t-3 65q-7 -18 -20 -29t-29.5 -16
t-34.5 -4.5t-34 4.5q-8 0 -17.5 2.5t-18 7.5t-14.5 12t-6 17q12 27 32 47t44 36t51 29.5l53 26.5q0 5 2 14t3 13q3 4 7 11l8 14t6.5 12.5t2.5 7.5h5q2 -19 2.5 -41.5t0.5 -45.5q0 -22 -1 -44t-2 -40q0 -17 1.5 -37.5t8.5 -38t20 -29.5t36 -12q27 0 46.5 20t23.5 46
q2 28 1 55.5t-2.5 55.5t-1 55.5t5.5 55.5q2 7 4.5 17t4.5 20t4.5 17t4.5 7q0 1 1 0q9 -57 14 -113.5t14 -113.5q1 -21 6.5 -41t16 -35.5t26.5 -25t39 -9.5h19q12 0 14 8q0 19 -5.5 47t-12 58t-12 58.5t-5.5 47.5q1 12 3 28.5t4.5 33t5.5 32t6 25.5q0 8 4 9.5t7 -8.5l36 -259
q12 -71 -29 -136q-5 -8 -18 -8t-14 -9q-10 -28 -16.5 -53t-6.5 -55q0 -67 40.5 -96.5t103.5 -29.5q54 0 110.5 21.5t101.5 55.5q-45 18 -88 27t-85 27q0 8 0.5 22t13.5 18q22 4 43 7.5t37.5 6.5t28 7t14.5 10q0 22 0.5 31t0.5 16v17q0 9 -1 23t-2.5 38t-4.5 59.5t-7 88.5
q0 4 -1.5 14t-1.5 15q0 35 7 69t15 69q2 3 2.5 5.5t4.5 3.5h3l40 -353q5 -39 31.5 -56.5t61.5 -17.5q41 0 67 14.5t53 43.5q0 1 2 2t2 -2q-3 -19 6 -31.5t23.5 -20.5t31 -12.5t29.5 -7.5q31 34 66.5 64.5t73 52t74.5 31.5t69.5 3t60 -34.5t45.5 -80.5q0 -1 -0.5 -3.5
t-3.5 -10t-10 -22t-20 -39.5q-2 -6 -8.5 -11.5t-14.5 -9.5t-16 -6.5t-14 -2.5q-85 -23 -168.5 -24.5t-171.5 14.5h-5q-8 -11 -18 -23t-21 -22q-3 -3 -5.5 -1.5t1.5 5.5q3 14 11.5 25.5t16.5 22.5q-23 13 -41 28t-26 40q-14 -32 -45.5 -50t-65.5 -19t-61.5 17t-33.5 57
q-6 -12 -11 -20t-9.5 -13.5t-9 -10.5t-10.5 -12q4 -2 11 -4.5t14.5 -4.5t14 -3.5t9.5 -1.5q15 -6 19.5 -15t4.5 -25q0 -41 -28.5 -74t-70 -56t-87 -35.5t-79.5 -13.5q-38 -1 -67 10.5t-49 33t-30.5 51t-10.5 65.5q0 42 12.5 79.5t30.5 75.5q-12 0 -25.5 1t-26 5.5
t-22.5 12.5t-14 22q-2 3 -4.5 10t-4.5 15t-3.5 15t-1.5 10q-8 -24 -18 -47t-38 -47q11 -88 18.5 -172t22.5 -169q7 -37 29 -56t49.5 -21.5t55.5 10.5t47 40q3 6 7 6q3 0 3 -8t-1 -13t-1 -11q0 -14 16.5 -19t30.5 -5h16q18 0 30.5 2.5t22 8t18 15t20.5 24.5q8 6 8 -2
q0 -14 -5 -19.5t-3.5 -8.5t16 -7t54.5 -15q0 11 -3 21.5t-3 18.5q5 9 11 23t10 17q0 2 2.5 8.5t6 11.5t6.5 6t4 -8l11 -44t5 -42q0 -23 -9 -43.5t-17 -43.5q-4 -8 -10.5 -8.5t-16.5 -0.5q-26 3 -56 8.5t-54 21.5q-19 -14 -39.5 -20.5t-41 -5.5t-38.5 10.5t-32 28.5
q-14 -18 -35.5 -27.5t-44.5 -10.5t-44.5 7.5t-35.5 25.5q-8 14 -11.5 28.5t-7.5 32.5q0 4 -0.5 7t-4.5 -2q-8 -21 -15 -38t-17 -29t-24.5 -18.5t-36.5 -6.5q-27 0 -44.5 11t-35.5 29q-3 0 -6.5 -6.5t-9 -14t-12 -13.5t-15.5 -6q-16 0 -30.5 6.5t-28.5 14.5
q-18 -29 -41.5 -51t-56.5 -30q-43 -10 -86 -16.5t-94 -6.5zM338 -92q-28 42 -55 90.5t-51 96.5q-4 7 -2.5 10.5t5.5 4.5t9 -1t7 -6q14 -23 29.5 -42.5t29.5 -42.5q5 -8 13 -20t18 -23t21.5 -19t23.5 -8q12 1 22.5 8.5t22.5 25t28 46t39 72.5q11 23 29 41t41 18q16 0 27 -6.5
t19 -17t15 -23t16 -24.5q24 -32 55.5 -51.5t67 -30.5t73.5 -14.5t74 -3.5q48 0 102.5 9.5t109.5 27.5t107 44.5t94 60.5q6 6 7 3.5t1 -8.5q-4 -13 -9 -21t-5 -19q0 -9 8.5 -15.5t20 -10.5t22.5 -5.5t16 -1.5q18 0 34.5 2.5t27.5 10.5t16.5 23.5t2.5 41.5l-27 294q0 7 1 14.5
t4.5 22t10.5 39t19 65.5l40 -366q2 -21 9 -43t19 -40t30.5 -30t42.5 -12q-14 23 -23.5 46t-9.5 47q-2 47 16 78.5t48 48t68.5 18.5t76.5 -9t72 -34.5t56 -58.5q-36 6 -76.5 13t-79.5 8.5t-75 -6t-63 -29.5q0 -11 5.5 -25t10.5 -22q26 -42 58 -58.5t69 -14t78.5 19.5t87.5 42
q1 2 2 1t1 -3v-1q-26 -54 -64.5 -82t-95.5 -46q-36 -10 -79 -16.5t-82.5 -1t-71 27t-44.5 67.5q-8 -23 -16 -43.5t-20.5 -37t-31 -26t-47.5 -9.5q-32 0 -59.5 18t-43.5 48q-40 -32 -95.5 -58t-118.5 -43t-129.5 -23t-128.5 1t-115.5 29t-90.5 62q-14 17 -21.5 32.5
t-12.5 27.5t-9.5 19t-12.5 7q-10 0 -19.5 -8.5t-15.5 -16.5q-21 -43 -34 -69t-21 -40.5t-12 -20.5t-7 -9q-10 -14 -21.5 -24.5t-25 -14.5t-28 0.5t-30.5 22.5zM1163 -160q-11 10 -1 20q3 7 14.5 25t31.5 42l78 -63q2 -2 10 8t17 22.5t17.5 23t11.5 10.5h5q20 -19 38 -37
t37 -36q-2 -5 -9 -13.5t-15 -18t-16 -18.5t-12 -14q-3 -8 -15 0q-18 14 -34.5 30t-34.5 31q-13 -15 -25.5 -33t-28.5 -31q-6 -6 -14 3q-16 11 -28.5 23.5t-26.5 25.5z" />
    <glyph glyph-name="sf270.009" unicode="&#xfdf2;" horiz-adv-x="2427" arabic-form="isolated" 
d="M1182 149h1059v-100h-1059v100zM1880 1799q0 -99 -133 -99h-9q-52 0 -72 18q-9 -6 -34 -13q-25 -5 -53 -5q-69 0 -98 23q-32 26 -32 93v102l87 -1v-101q0 -27 8 -37q11 -8 35 -8q42 0 42 40v104h88v-116q0 -28 43 -28q24 0 31 9q9 8 9 36v96h88v-113zM2240 2000v-1799
l-1058 -1v959q-125 -89 -221 -125q-107 -40 -232 -74q-50 -13 -86 -24q-45 -13 -80 -26q-82 -30 -127 -63q-52 -39 -97 -86q-46 -47 -68 -106q-20 -53 -27 -134q-17 -129 40 -234q10 -19 30 -42q58 -53 130 -80q67 -25 140 -24q143 2 253 91q74 84 95 169q2 14 5 32l5 32
q3 29 3 66q10 131 -71 163q-31 14 -59 13q-30 0 -61 -14q-41 -20 -73 -49q39 2 70 -29q32 -32 31 -72q0 -41 -31 -71q-30 -29 -70 -29q-61 0 -87 50q-13 22 -14 84q0 59 41 117q39 58 100 87q45 22 93 22q47 1 93 -22q58 -19 94 -82q38 -67 38 -168q0 -45 -4 -77
q-6 -51 -12 -75q-35 -111 -126 -214q-87 -77 -200 -106q-114 -27 -232 -2q-120 25 -221 121q-20 21 -40 57q-83 132 -63 297q8 86 45 164q31 64 85 128q66 84 183 142q54 27 120 49q61 20 136 38q180 48 324 122q148 76 148 225h94v-1101l364 1v1341h100v-1341h400v1700h100
z" />
    <glyph glyph-name="uniFDF4" unicode="&#xfdf4;" horiz-adv-x="5301" arabic-form="isolated" 
d="M100 149h1331v-100h-1331v100zM1072 302q5 126 -19 244q-26 122 -83 226q-58 108 -131 184q-75 78 -206 118q-134 42 -353 -4q21 -28 21 -55q0 -40 -30 -71q-30 -30 -71 -30t-71 30q-29 30 -29 71q0 26 18 60q20 36 70 65q54 31 171 50q158 29 308 -13q152 -53 240 -142
q87 -87 157 -216t89 -278q20 -146 22 -241h256v-98l-1326 -1v101h967zM5205 199h-1100v100h200v200q0 351 249 518q123 85 323 83q198 -1 328 99v-1000zM4405 299h700v740q-103 -41 -251 -40q-151 2 -251 -70q-98 -69 -149 -172q-49 -99 -49 -258v-200zM4105 149h1099v-100
h-1099v100zM1676 200q53 -94 147 -147q96 -51 199 -51q104 0 198 51q97 53 149 147q54 96 54 199t-54 200q-53 98 -149 149q-94 52 -198 52q-100 0 -195 -52q-95 -51 -149 -149q-53 -98 -53 -200q0 -103 51 -199zM2826 200h-346l-34 -51h384v-100l-434 2l-123 -86
q-121 -65 -249 -65t-286 90l-73 59h-334v100h266l-29 51h-240l1 101l208 -1l-10 100q0 127 67 248q68 122 186 186q121 65 244 65q129 0 248 -65q119 -64 187 -186q67 -121 67 -251l-9 -97h309v-100zM4237 49h-1699v100h1699v-100zM2537 301h1205q-15 10 -27 22
q-107 119 -107 312q-30 260 -129 360q-97 99 -242 105l1 -1q-163 0 -282 -117q-33 -39 -57 -75q-20 -31 -32 -56q-11 -22 -13 -34t4 -10q12 3 37 -7q53 -18 53 -88q0 -31 -18 -60q-35 -57 -98 -46q-27 4 -49 16q-46 28 -46 95q0 87 39 178q41 92 108 159q148 148 354 148h-1
q186 -8 314 -136q128 -131 158 -431q11 -150 102 -247q129 -104 426 -88v-100h-1700v101z" />
    <glyph glyph-name="sf277.047" unicode="&#x6c2;" horiz-adv-x="1498" 
d="M1154 149h457v-100h-457v100zM1615 202h-461v957q-125 -89 -221 -125q-107 -40 -232 -74q-50 -13 -86 -24q-45 -13 -80 -26q-82 -30 -127 -63q-52 -39 -97 -86q-46 -47 -68 -106q-20 -53 -27 -134q-17 -129 40 -234q10 -19 30 -42q58 -53 130 -80q67 -25 140 -24
q143 2 253 91q74 84 95 169q2 14 5 32l5 32q3 29 3 66q10 131 -71 163q-31 14 -59 13q-30 0 -61 -14q-41 -20 -73 -49q39 2 70 -29q32 -32 31 -72q0 -41 -31 -71q-30 -29 -70 -29q-61 0 -87 50q-13 22 -14 84q0 59 41 117q39 58 100 87q45 22 93 22q47 1 93 -22
q58 -19 94 -82q38 -67 38 -168q0 -45 -4 -77q-6 -51 -12 -75q-35 -111 -126 -214q-87 -77 -200 -106q-114 -27 -232 -2q-120 25 -221 121q-20 21 -40 57q-83 132 -63 297q8 86 45 164q31 64 85 128q66 84 183 142q54 27 120 49q61 20 136 38q180 48 324 122q148 76 148 225
h94v-1101h367v-97zM1231 1601q0 25 -18 44q-19 19 -45 19t-44 -19q-19 -18 -19 -44q0 -27 19 -45q16 -19 44 -19h110v-37h-231v37h45q-22 26 -22 64q0 42 28 70q29 29 70 29t70 -29q31 -29 31 -70h-38z" />
    <glyph glyph-name="afii57470.zz02" unicode="&#x647;" horiz-adv-x="1602" arabic-form="initial" 
d="M-95 149h1439l-30 -100h-1409v100zM226 301h682l1 23q1 11 0 20q0 32 -11 82q-37 136 -160 208q-123 70 -260 35q-134 -38 -205 -155q-61 -99 -47 -213zM124 301q-12 140 63 265q92 153 265 200q177 46 337 -45q160 -93 206 -270q15 -54 15 -105q1 -7 0 -19l-1 -26h277
q50 248 -76 467q-137 238 -403 310q-142 27 -246 9q-100 -16 -146 -40q-25 -13 -51 -25q-32 -15 -66 -30q-73 -31 -120 -9q-46 22 -60 62q-13 38 -13 65q-2 40 30 72q32 31 70 29q42 0 71 -29q30 -31 30 -82q197 142 526 76q150 -41 272 -137q117 -91 193 -221
q73 -127 96 -278q22 -147 2 -240l-33 -100h-1457v101h219z" />
    <glyph glyph-name="afii57470.zz03" unicode="&#x647;" horiz-adv-x="1573" arabic-form="medial" 
d="M-98 149h1749v-100h-1749v100zM223 301h682l1 23q1 11 0 20q0 32 -11 82q-37 136 -160 208q-123 70 -260 35q-134 -38 -205 -155q-61 -99 -47 -213zM121 301q-12 140 63 265q92 153 265 200q177 46 337 -45q160 -93 206 -270q15 -54 15 -105q1 -7 0 -19l-1 -26h277
q50 248 -76 467q-137 238 -403 310q-142 27 -246 9q-100 -16 -146 -40q-25 -13 -51 -25q-32 -15 -66 -30q-73 -31 -120 -9q-46 22 -60 62q-13 38 -13 65q-2 40 30 72q32 31 70 29q42 0 71 -29q30 -31 30 -82q197 142 526 76q150 -41 272 -137q117 -91 193 -221
q73 -127 96 -278q22 -147 2 -240h260v-100h-1750v101h219z" />
    <glyph glyph-name="afii57470.zz04" unicode="&#x647;" horiz-adv-x="1498" arabic-form="final" 
d="M1154 149h457v-100h-457v100zM1615 202h-461v957q-125 -89 -221 -125q-107 -40 -232 -74q-50 -13 -86 -24q-45 -13 -80 -26q-82 -30 -127 -63q-52 -39 -97 -86q-46 -47 -68 -106q-20 -53 -27 -134q-17 -129 40 -234q10 -19 30 -42q58 -53 130 -80q67 -25 140 -24
q143 2 253 91q74 84 95 169q2 14 5 32l5 32q3 29 3 66q10 131 -71 163q-31 14 -59 13q-30 0 -61 -14q-41 -20 -73 -49q39 2 70 -29q32 -32 31 -72q0 -41 -31 -71q-30 -29 -70 -29q-61 0 -87 50q-13 22 -14 84q0 59 41 117q39 58 100 87q45 22 93 22q47 1 93 -22
q58 -19 94 -82q38 -67 38 -168q0 -45 -4 -77q-6 -51 -12 -75q-35 -111 -126 -214q-87 -77 -200 -106q-114 -27 -232 -2q-120 25 -221 121q-20 21 -40 57q-83 132 -63 297q8 86 45 164q31 64 85 128q66 84 183 142q54 27 120 49q61 20 136 38q180 48 324 122q148 76 148 225
h94v-1101h367v-97z" />
    <glyph glyph-name="uniFE94" unicode="&#x629;" horiz-adv-x="1498" arabic-form="final" 
d="M1154 149h457v-100h-457v100zM1615 202h-461v957q-125 -89 -221 -125q-107 -40 -232 -74q-50 -13 -86 -24q-45 -13 -80 -26q-82 -30 -127 -63q-52 -39 -97 -86q-46 -47 -68 -106q-20 -53 -27 -134q-17 -129 40 -234q10 -19 30 -42q58 -53 130 -80q67 -25 140 -24
q143 2 253 91q74 84 95 169q2 14 5 32l5 32q3 29 3 66q10 131 -71 163q-31 14 -59 13q-30 0 -61 -14q-41 -20 -73 -49q39 2 70 -29q32 -32 31 -72q0 -41 -31 -71q-30 -29 -70 -29q-61 0 -87 50q-13 22 -14 84q0 59 41 117q39 58 100 87q45 22 93 22q47 1 93 -22
q58 -19 94 -82q38 -67 38 -168q0 -45 -4 -77q-6 -51 -12 -75q-35 -111 -126 -214q-87 -77 -200 -106q-114 -27 -232 -2q-120 25 -221 121q-20 21 -40 57q-83 132 -63 297q8 86 45 164q31 64 85 128q66 84 183 142q54 27 120 49q61 20 136 38q180 48 324 122q148 76 148 225
h94v-1101h367v-97zM1138 1624q30 -30 30 -71q0 -40 -30 -71q-30 -30 -71 -30t-71 30q-29 30 -29 71t30 71q30 29 70 29q41 0 71 -29zM1356 1624q30 -30 30 -71q0 -40 -30 -71q-30 -30 -71 -30t-71 30q-29 30 -29 71t30 71q30 29 70 29q41 0 71 -29z" />
    <glyph glyph-name=".notdef" horiz-adv-x="257" 
 />
    <glyph glyph-name=".null" 
 />
    <glyph glyph-name="nonmarkingreturn" horiz-adv-x="257" 
 />
    <glyph glyph-name="space" unicode=" " horiz-adv-x="585" 
 />
    <glyph glyph-name="sf268.003" unicode="&#x622;" horiz-adv-x="403" 
d="M352 1916q-20 -20 -49 -33l-33 -8q-6 -1 -13 -1q-8 -1 -17 -1q-26 1 -66 22q-35 17 -65 21q-57 0 -107 -31v85q55 30 107 30q25 0 70 -19q33 -17 61 -22l16 -1q26 0 45 9q27 11 51 33v-84zM208 1805v-1755h-106v1755h106z" />
    <glyph glyph-name="sf268" unicode="&#x627;" horiz-adv-x="399" 
d="M207 1999v-1949h-106v1949h106z" />
    <glyph glyph-name="sf270" unicode="&#x628;" horiz-adv-x="2199" 
d="M1171 -28q30 -29 30 -71q0 -40 -30 -70q-30 -31 -71 -31t-71 31q-29 30 -29 70q0 42 30 71t70 29q41 0 71 -29zM2000 1201v-1001h-1400q-207 0 -353 147q-147 146 -147 352q0 207 147 355q146 147 353 147v1q41 0 71 -29t30 -71q0 -40 -30 -71q-30 -30 -71 -30
q-27 0 -50 13t-37 38q-13 23 -13 34q-63 -7 -181 -104q-116 -119 -116 -283t116 -280q118 -116 281 -119h1300v901h100zM2000 149v-100h-1200q-300 50 -300 100h1500z" />
    <glyph glyph-name="sf270.001" unicode="&#x67e;" horiz-adv-x="2199" 
d="M2000 1201v-1001h-1400q-207 0 -353 147q-147 146 -147 352q0 207 147 355q146 147 353 147v1q41 0 71 -29t30 -71q0 -40 -30 -71q-30 -30 -71 -30q-27 0 -50 13t-37 38q-13 23 -13 34q-63 -7 -181 -104q-116 -119 -116 -283t116 -280q118 -116 281 -119h1300v901h100z
M2000 149v-100h-1200q-300 50 -300 100h1500zM1019 -38q29 29 70 29q43 0 72 -29t29 -71q2 -39 -30 -71t-71 -30q-38 -2 -70 30t-30 71q0 42 30 71zM1329 -37q29 29 70 29q43 0 72 -29t29 -71q2 -39 -30 -71t-71 -30q-38 -2 -70 30t-30 71q0 42 30 71zM1159 -277
q29 29 70 29q43 0 72 -29t29 -71q2 -39 -30 -71t-71 -30q-38 -2 -70 30t-30 71q0 42 30 71z" />
    <glyph glyph-name="sf270.002" unicode="&#x62a;" horiz-adv-x="2199" 
d="M1131 1471q32 -32 30 -72q0 -41 -30 -71q-30 -29 -71 -29t-71 29q-29 30 -29 71q-2 40 30 72q32 31 70 29q39 2 71 -29zM1401 1470q32 -32 30 -72q0 -41 -30 -71q-30 -29 -71 -29t-71 29q-29 30 -29 71q-2 40 30 72q32 31 70 29q39 2 71 -29zM2000 149v-100h-1200
q-300 50 -300 100h1500zM2000 1201v-1001h-1400q-207 0 -353 147q-147 146 -147 352q0 207 147 355q146 147 353 147v1q41 0 71 -29t30 -71q0 -40 -30 -71q-30 -30 -71 -30q-27 0 -50 13t-37 38q-13 23 -13 34q-63 -7 -181 -104q-116 -119 -116 -283t116 -280
q118 -116 281 -119h1300v901h100z" />
    <glyph glyph-name="sf270.003" unicode="&#x679;" horiz-adv-x="2049" 
d="M1098 854h35v296h17v-163h53q19 0 52 12t60 12q28 0 53 -26q26 -25 26 -61v-87h-296v17zM1150 854h226v70q0 28 -20 49q-21 20 -44 19q-24 0 -56 -12q-31 -11 -51 -11h-55v-115zM1098 828h296v-17h-296v17zM2000 149v-100h-1200q-300 50 -300 100h1500zM2000 1201v-1001
h-1400q-207 0 -353 147q-147 146 -147 352q0 207 147 355q146 147 353 147v1q41 0 71 -29t30 -71q0 -40 -30 -71q-30 -30 -71 -30q-27 0 -50 13t-37 38q-13 23 -13 34q-63 -7 -181 -104q-116 -119 -116 -283t116 -280q118 -116 281 -119h1300v901h100z" />
    <glyph glyph-name="sf270.004" unicode="&#x62b;" horiz-adv-x="2198" 
d="M1110 1472q32 -32 30 -72q0 -41 -30 -71q-30 -29 -71 -29t-71 29q-29 30 -29 71q-2 40 30 72q32 31 70 29q39 2 71 -29zM1380 1471q32 -32 30 -72q0 -41 -30 -71q-30 -29 -71 -29t-71 29q-29 30 -29 71q-2 40 30 72q32 31 70 29q39 2 71 -29zM1230 1691q32 -32 30 -72
q0 -41 -30 -71q-30 -29 -71 -29t-71 29q-29 30 -29 71q-2 40 30 72q32 31 70 29q39 2 71 -29zM1999 149v-100h-1200q-300 50 -300 100h1500zM1999 1201v-1001h-1400q-207 0 -353 147q-147 146 -147 352q0 207 147 355q146 147 353 147v1q41 0 71 -29t30 -71q0 -40 -30 -71
q-30 -30 -71 -30q-27 0 -50 13t-37 38q-13 23 -13 34q-63 -7 -181 -104q-116 -119 -116 -283t116 -280q118 -116 281 -119h1300v901h100z" />
    <glyph glyph-name="sf276.002" unicode="&#x62c;" horiz-adv-x="1497" 
d="M812 -29q30 -29 30 -71q0 -40 -30 -70q-30 -31 -71 -31t-71 31q-29 30 -29 70q0 42 30 71t70 29q41 0 71 -29zM1211 300q-130 133 -130 337q-30 260 -129 360q-97 99 -242 105l1 -2q-163 0 -282 -117q-33 -39 -57 -75q-20 -30 -32 -55q-11 -22 -13 -34t4 -10q12 3 37 -7
q53 -18 53 -88q-2 -50 -37 -83q-36 -35 -79 -24q-27 4 -49 16q-46 29 -46 96q0 86 39 177q41 92 108 159q148 148 354 148l-1 1q186 -8 314 -136q128 -131 158 -431q0 -148 72 -237q107 -94 187 -100v-99h-900q-155 0 -210 -52h1112v-100h-1168q-59 -108 6 -227
q64 -119 289 -118v-1h371v-101h-371q-294 2 -384 173q-90 170 0 348t355 177h670z" />
    <glyph glyph-name="sf276.003" unicode="&#x686;" horiz-adv-x="1602" 
d="M1215 300q-130 133 -130 337q-30 260 -129 360q-97 99 -242 105l1 -2q-163 0 -282 -117q-33 -39 -57 -75q-20 -30 -32 -55q-11 -22 -13 -34t4 -10q12 3 37 -7q53 -18 53 -88q-2 -50 -37 -83q-36 -35 -79 -24q-27 4 -49 16q-46 29 -46 96q0 86 39 177q41 92 108 159
q148 148 354 148l-1 1q186 -8 314 -136q128 -131 158 -431q0 -148 72 -237q107 -94 187 -100v-99h-900q-155 0 -210 -52h1112v-100h-1168q-59 -108 6 -227q64 -119 289 -118v-1h371v-101h-371q-294 2 -384 173q-90 170 0 348t355 177h670zM929 -38q26 25 63 25q91 0 91 -90
q0 -37 -27 -63q-27 -27 -64 -27q-34 -2 -63 27t-27 63q0 38 27 65zM1208 -37q26 25 63 25q91 0 91 -90q0 -36 -27 -63q-27 -28 -64 -28q-35 0 -63 28q-27 27 -27 63q0 38 27 65zM1055 -253q26 25 63 25q91 0 91 -90q0 -36 -27 -63q-27 -28 -64 -28q-35 0 -63 28
q-27 27 -27 63q0 38 27 65z" />
    <glyph glyph-name="sf276.004" unicode="&#x62d;" horiz-adv-x="1602" 
d="M1215 300q-130 133 -130 337q-30 260 -129 360q-97 99 -242 105l1 -2q-163 0 -282 -117q-33 -39 -57 -75q-20 -30 -32 -55q-11 -22 -13 -34t4 -10q12 3 37 -7q53 -18 53 -88q-2 -50 -37 -83q-36 -35 -79 -24q-27 4 -49 16q-46 29 -46 96q0 86 39 177q41 92 108 159
q148 148 354 148l-1 1q186 -8 314 -136q128 -131 158 -431q0 -148 72 -237q107 -94 187 -100v-99h-900q-155 0 -210 -52h1112v-100h-1168q-59 -108 6 -227q64 -119 289 -118v-1h371v-101h-371q-294 2 -384 173q-90 170 0 348t355 177h670z" />
    <glyph glyph-name="sf276.005" unicode="&#x62e;" horiz-adv-x="1598" 
d="M716 1572q30 -29 30 -71q0 -40 -30 -71q-30 -30 -71 -30t-71 30q-29 30 -29 71t30 71q30 29 70 29q41 0 71 -29zM1215 300q-130 133 -130 337q-30 260 -129 360q-97 99 -242 105l1 -2q-163 0 -282 -117q-33 -39 -57 -75q-20 -30 -32 -55q-11 -22 -13 -34t4 -10
q12 3 37 -7q53 -18 53 -88q-2 -50 -37 -83q-36 -35 -79 -24q-27 4 -49 16q-46 29 -46 96q0 86 39 177q41 92 108 159q148 148 354 148l-1 1q186 -8 314 -136q128 -131 158 -431q0 -148 72 -237q107 -94 187 -100v-99h-900q-155 0 -210 -52h1112v-100h-1168q-59 -108 6 -227
q64 -119 289 -118v-1h371v-101h-371q-294 2 -384 173q-90 170 0 348t355 177h670z" />
    <glyph glyph-name="sf274" unicode="&#x62f;" horiz-adv-x="1382" 
d="M101 149h1071v-100h-1071v100zM1073 302q5 126 -19 244q-26 122 -83 226q-58 108 -131 184q-75 78 -206 118q-134 42 -353 -4q21 -28 21 -55q0 -40 -30 -71q-30 -30 -71 -30t-71 30q-29 30 -29 71q0 26 18 60q20 36 70 65q54 31 171 50q158 29 308 -13q152 -53 240 -142
q87 -87 157 -216t89 -278q20 -146 22 -240l-4 -101l-1066 1v101h967z" />
    <glyph glyph-name="sf274.002" unicode="&#x688;" horiz-adv-x="1382" 
d="M101 149h1071v-100h-1071v100zM1073 302q5 126 -19 244q-26 122 -83 226q-58 108 -131 184q-75 78 -206 118q-134 42 -353 -4q21 -28 21 -55q0 -40 -30 -71q-30 -30 -71 -30t-71 30q-29 30 -29 71q0 26 18 60q20 36 70 65q54 31 171 50q158 29 308 -13q152 -53 240 -142
q87 -87 157 -216t89 -278q20 -146 22 -240l-4 -101l-1066 1v101h967zM473 1358h35v296h17v-163h53q19 0 52 12t60 12q28 0 53 -26q26 -25 26 -61v-87h-296v17zM525 1358h226v70q0 28 -20 49q-21 20 -44 19q-24 0 -56 -12q-31 -11 -51 -11h-55v-115zM473 1332h296v-17h-296
v17z" />
    <glyph glyph-name="sf274.003" unicode="&#x630;" horiz-adv-x="1299" 
d="M572 1572q30 -29 30 -71q0 -40 -30 -71q-30 -30 -71 -30t-71 30q-29 30 -29 71t30 71q30 29 70 29q41 0 71 -29zM100 149h1071v-100h-1071v100zM1072 302q5 126 -19 244q-26 122 -83 226q-58 108 -131 184q-75 78 -206 118q-134 42 -353 -4q21 -28 21 -55q0 -40 -30 -71
q-30 -30 -71 -30t-71 30q-29 30 -29 71q0 26 18 60q20 36 70 65q54 31 171 50q158 29 308 -13q152 -53 240 -142q87 -87 157 -216t89 -278q20 -146 22 -240l-4 -101l-1066 1v101h967z" />
    <glyph glyph-name="sf331" unicode="&#x631;" horiz-adv-x="599" 
d="M301 1000h100v-899q-2 -125 -66 -245q-65 -120 -185 -187q-122 -68 -250 -68h-99v99h100q102 2 199 56q96 53 147 149q53 95 54 195v900z" />
    <glyph glyph-name="sf331.001" unicode="&#x691;" horiz-adv-x="599" 
d="M301 1000h100v-899q-2 -125 -66 -245q-65 -120 -185 -187q-122 -68 -250 -68h-99v99h100q102 2 199 56q96 53 147 149q53 95 54 195v900zM169 1167h35v296h17v-163h53q19 0 52 12t60 12q28 0 53 -26q26 -25 26 -61v-87h-296v17zM221 1167h226v70q0 28 -20 49
q-21 20 -44 19q-24 0 -56 -12q-31 -11 -51 -11h-55v-115zM169 1141h296v-17h-296v17z" />
    <glyph glyph-name="sf331.002" unicode="&#x632;" horiz-adv-x="599" 
d="M412 1372q30 -29 30 -71q0 -40 -30 -71q-30 -30 -71 -30t-71 30q-29 30 -29 71t30 71q30 29 70 29q41 0 71 -29zM301 1000h100v-801q-2 -224 -66 -344q-65 -120 -185 -187q-122 -68 -250 -68h-99v99h100q102 2 199 56q96 53 147 149q53 95 54 195v901z" />
    <glyph glyph-name="sf331.003" unicode="&#x698;" horiz-adv-x="599" 
d="M301 1000h100v-899q-2 -125 -66 -245q-65 -120 -185 -187q-122 -68 -250 -68h-99v99h100q102 2 199 56q96 53 147 149q53 95 54 195v900zM252 1368q32 -32 30 -72q0 -41 -29 -71q-29 -29 -72 -29q-41 0 -70 29q-30 30 -30 71q-2 40 30 72q32 31 70 29q39 2 71 -29z
M562 1367q32 -32 30 -72q0 -41 -29 -71q-29 -29 -72 -29q-41 0 -70 29q-30 30 -30 71q-2 40 30 72q32 31 70 29q39 2 71 -29zM392 1607q32 -32 30 -72q0 -41 -29 -71q-29 -29 -72 -29q-41 0 -70 29q-30 30 -30 71q-2 40 30 72q32 31 70 29q39 2 71 -29z" />
    <glyph glyph-name="sf293.002" unicode="&#x633;" horiz-adv-x="2098" 
d="M1902 199h-800l-10 -50h811v-100l-861 1q-79 -114 -184 -181q-107 -69 -254 -69q-207 0 -355 147q-148 146 -146 353q0 206 148 354q68 68 159 107q90 40 177 40q67 0 95 -46q21 -36 17 -78q-5 -48 -47 -69q-43 -27 -90 -15q-45 12 -59 50q-10 26 -6 37q1 6 -10 4
q-12 -2 -34 -13q-25 -12 -55 -33q-36 -24 -75 -56q-117 -118 -118 -282q0 -163 116 -281q119 -116 283 -116t280 116q116 118 119 281l-1 700h100v-700h300v802h100v-800h300v899h100v-1002z" />
    <glyph glyph-name="sf293.003" unicode="&#x634;" horiz-adv-x="2100" 
d="M1372 1473q32 -32 31 -72q0 -41 -31 -71q-30 -29 -70 -29q-42 0 -71 29q-29 30 -29 71q-3 40 29 72q32 31 71 29q39 2 70 -29zM1682 1472q32 -32 31 -72q0 -41 -31 -71q-30 -29 -70 -29q-42 0 -71 29q-29 30 -29 71q-3 40 29 72q32 31 71 29q39 2 70 -29zM1512 1712
q32 -32 31 -72q0 -41 -31 -71q-30 -29 -70 -29q-42 0 -71 29q-29 30 -29 71q-3 40 29 72q32 31 71 29q39 2 70 -29zM1903 199h-800l-10 -50h811v-100l-861 1q-79 -114 -184 -181q-107 -69 -254 -69q-207 0 -355 147q-148 146 -146 353q0 206 148 354q68 68 159 107
q90 40 177 40q67 0 95 -46q21 -36 17 -78q-5 -48 -47 -69q-43 -27 -90 -15q-45 12 -59 50q-10 26 -6 37q1 6 -10 4q-12 -2 -34 -13q-25 -12 -55 -33q-36 -24 -75 -56q-117 -118 -118 -282q0 -163 116 -281q119 -116 283 -116t280 116q116 118 119 281l-1 700h100v-700h300
v802h100v-800h300v899h100v-1002z" />
    <glyph glyph-name="sf293.001" unicode="&#x635;" horiz-adv-x="2694" 
d="M2393 300v400q-3 163 -119 282q-118 116 -253 112t-317 -69q-183 -65 -296 -65h-315v-660h1300zM1093 199l-9 -50h1411v-100l-1461 1q-78 -114 -184 -181q-106 -69 -254 -69q-206 0 -355 147q-146 145 -148 353h3q0 206 148 354q72 72 149 108q86 39 187 39q67 0 95 -46
q22 -36 17 -78q-5 -48 -47 -69q-43 -27 -89 -15q-45 12 -60 50q-9 26 -6 37q2 6 -10 4t-33 -13q-25 -12 -56 -33q-36 -24 -75 -56q-117 -118 -123 -282q5 -164 120 -281q119 -116 283 -116t280 116q128 111 117 281v900h100v-140h305q106 0 295 70q192 71 348 71
q160 0 305 -147q147 -148 147 -355v-399l3 -101h-1403z" />
    <glyph glyph-name="sf293.004" unicode="&#x636;" horiz-adv-x="2699" 
d="M1470 1572q32 -32 30 -72q0 -41 -30 -71q-30 -29 -71 -29t-71 29q-29 30 -29 71q-2 40 30 72q32 31 70 29q39 2 71 -29zM2399 300v400q-3 163 -119 282q-118 116 -253 112t-317 -69q-183 -65 -296 -65h-315v-660h1300zM1099 199l-9 -50h1411v-100l-1461 1
q-78 -114 -184 -181q-106 -69 -254 -69q-206 0 -355 147q-146 145 -148 353h3q0 206 148 354q72 72 149 108q86 39 187 39q67 0 95 -46q22 -36 17 -78q-5 -48 -47 -69q-43 -27 -89 -15q-45 12 -60 50q-9 26 -6 37q2 6 -10 4t-33 -13q-25 -12 -56 -33q-36 -24 -75 -56
q-117 -118 -123 -282q5 -164 120 -281q119 -116 283 -116t280 116q128 111 117 281v900h100v-140h305q106 0 295 70q192 71 348 71q160 0 305 -147q147 -148 147 -355v-399l3 -101h-1403z" />
    <glyph glyph-name="sf336" unicode="&#x637;" horiz-adv-x="1798" 
d="M-101 300h200v1700h100v-940h305q106 0 295 70q192 71 348 71q160 0 305 -147q147 -148 147 -355v-499h-1700v100zM199 300h1300v400q-3 163 -119 282q-118 116 -253 112t-317 -69q-183 -65 -296 -65h-315v-660zM-100 149h1700v-100h-1700v100z" />
    <glyph glyph-name="sf336.002" unicode="&#x638;" horiz-adv-x="1798" 
d="M-101 300h200v1700h100v-940h305q106 0 295 70q192 71 348 71q160 0 305 -147q147 -148 147 -355v-499h-1700v100zM199 300h1300v400q-3 163 -119 282q-118 116 -253 112t-317 -69q-183 -65 -296 -65h-315v-660zM670 1572q30 -30 30 -71q0 -40 -30 -71q-30 -30 -71 -30
t-71 30q-29 30 -29 71t30 71q30 29 70 29q41 0 71 -29zM-100 149h1700v-100h-1700v100z" />
    <glyph glyph-name="sf276.001" unicode="&#x639;" horiz-adv-x="1598" 
d="M355 828q54 171 199 268q146 98 267 102q117 5 213 -35q85 -36 158 -109q68 -68 107 -159q40 -90 40 -177q0 -31 -8 -55q-11 -30 -33 -46q-39 -23 -83 -14q-46 9 -69 50q-27 43 -15 89t50 59q25 10 37 7q6 -2 4 10t-12 34q-13 24 -33 55q-24 36 -57 75q-116 119 -263 114
q-147 -3 -253 -85t-148 -209q-43 -157 41 -300q79 -143 241 -202l700 2v-100h-871q-204 0 -239 -53h1111l-1 -100h-1166q-59 -108 6 -227q64 -119 289 -118v-1h371v-101h-371q-294 2 -384 173q-90 170 0 348t355 177q-55 13 -132 149q-104 179 -51 379z" />
    <glyph glyph-name="sf276.006" unicode="&#x63a;" horiz-adv-x="1496" 
d="M915 1572q30 -30 30 -71q0 -40 -30 -71q-30 -30 -71 -30t-71 30q-29 30 -29 71t30 71q30 29 70 29q41 0 71 -29zM361 828q54 171 199 268q146 98 267 102q117 5 213 -35q85 -36 158 -109q68 -68 107 -159q40 -90 40 -177q0 -31 -8 -55q-11 -30 -33 -46q-39 -23 -83 -14
q-46 9 -69 50q-27 43 -15 89t50 59q25 10 37 7q6 -2 4 10t-12 34q-13 24 -33 55q-24 36 -57 75q-116 119 -263 114q-147 -3 -253 -85t-148 -209q-43 -157 41 -300q79 -143 241 -202l700 2v-100h-871q-204 0 -239 -53h1111l-1 -100h-1166q-59 -108 6 -227q64 -119 289 -118
v-1h371v-101h-371q-294 2 -384 173q-90 170 0 348t355 177q-55 13 -132 149q-104 179 -51 379z" />
    <glyph glyph-name="sf278" unicode="&#x641;" horiz-adv-x="2198" 
d="M1618 1673q30 -30 30 -71q0 -40 -30 -71q-30 -30 -71 -30t-71 30q-29 30 -29 71t30 71q30 29 70 29q41 0 71 -29zM1200 600h700v640q-103 -41 -251 -40q-152 2 -246 -50q-95 -51 -149 -147t-54 -200v-203zM100 696q0 204 146 350t352 146v-101q-164 0 -280 -116
q-116 -119 -116 -279q0 -161 116 -279q116 -115 282 -117h1300v200h-800v303q0 129 67 250q67 120 187 185t318 63q198 -1 328 99v-1200h-1400q-208 0 -354 145q-146 148 -146 351zM2000 149v-100h-1200q-300 50 -300 100h1500z" />
    <glyph glyph-name="sf277.018" unicode="&#x642;" horiz-adv-x="1499" 
d="M807 1572q30 -30 30 -71q0 -40 -30 -71q-30 -30 -71 -30t-71 30q-29 30 -29 71t30 71q30 29 70 29q41 0 71 -29zM1057 1572q30 -30 30 -71q0 -40 -30 -71q-30 -30 -71 -30t-71 30q-29 30 -29 71t30 71q30 29 70 29q41 0 71 -29zM515 302l700 -2v740q-103 -41 -251 -40
q-151 2 -251 -70q-98 -69 -149 -172q-49 -99 -49 -358v-98zM203 356q-15 -195 61 -353q77 -158 205 -238q103 -63 229 -74q121 -13 233 33q119 53 199 165t75 160h-790v100h800v50l-800 1v200q0 281 62 408q61 125 187 210q123 85 323 83q198 -1 328 99v-1052l-10 -94
q2 -84 -98 -215q-100 -133 -243 -192q-132 -56 -274 -43q-142 11 -267 90q-146 90 -235 270q-88 179 -70 392h85z" />
    <glyph glyph-name="sf270.007" unicode="&#x643;" horiz-adv-x="2200" 
d="M1287 1079q0 34 -24 56q-22 24 -56 24t-58 -24q-23 -23 -23 -56q0 -32 23 -57q23 -22 57 -24h195v-98h-400v98h46q-19 37 -19 81q0 74 52 126t127 52q72 0 126 -52q52 -52 52 -126h-98zM2002 149v-100h-1201q-300 50 -300 100h1501zM2001 2000v-1799l-1400 -1
q-207 0 -353 147q-147 146 -147 345q0 206 146 355q146 147 353 147v1q41 0 71 -29t30 -71q0 -40 -30 -71q-30 -30 -71 -30q-27 0 -50 13t-37 38q-13 23 -13 34q-63 -7 -181 -104q-116 -119 -116 -279q2 -162 117 -277q118 -116 281 -119h1300v1700h100z" />
    <glyph glyph-name="sf270.007" unicode="&#x6a9;" horiz-adv-x="2200" 
d="M1287 1079q0 34 -24 56q-22 24 -56 24t-58 -24q-23 -23 -23 -56q0 -32 23 -57q23 -22 57 -24h195v-98h-400v98h46q-19 37 -19 81q0 74 52 126t127 52q72 0 126 -52q52 -52 52 -126h-98zM2002 149v-100h-1201q-300 50 -300 100h1501zM2001 2000v-1799l-1400 -1
q-207 0 -353 147q-147 146 -147 345q0 206 146 355q146 147 353 147v1q41 0 71 -29t30 -71q0 -40 -30 -71q-30 -30 -71 -30q-27 0 -50 13t-37 38q-13 23 -13 34q-63 -7 -181 -104q-116 -119 -116 -279q2 -162 117 -277q118 -116 281 -119h1300v1700h100z" />
    <glyph glyph-name="sf270.006" unicode="&#x6af;" horiz-adv-x="2200" 
d="M2002 149v-100h-1201q-300 50 -300 100h1501zM2001 300v-99h-2v-3h-1400v2q-205 2 -351 147q-147 146 -147 345q0 206 146 355q146 147 353 147v1q41 0 71 -29t30 -71q0 -40 -30 -71q-30 -30 -71 -30q-27 0 -50 13t-37 38q-13 23 -13 34q-63 -7 -181 -104
q-116 -119 -116 -279q2 -162 117 -277q114 -114 279 -119v1l1301 -1q-4 118 -25 218q-20 98 -82 197q-61 102 -141 159q-77 56 -201 91q-120 34 -242 34h-410v100l1100 900l50 -80l-1000 -820h300q308 -26 446 -126q137 -98 202 -227q64 -127 85 -242q20 -116 17 -204h2z
M786 1381l885 724l112 -35l-142 -113l-855 -698v122z" />
    <glyph glyph-name="sf288.001" unicode="&#x644;" horiz-adv-x="1300" 
d="M246 -53q-146 146 -146 353q0 206 148 354q68 68 159 107q90 40 177 40q67 0 95 -46q22 -36 17 -78q-5 -48 -47 -69q-43 -27 -89 -15q-45 12 -60 50q-9 26 -6 37q2 6 -10 4t-33 -13q-25 -12 -56 -33q-36 -24 -75 -56q-116 -118 -118 -282q0 -163 116 -281
q119 -116 283 -116q165 0 280 106q105 97 119 241l3 1750h100l-4 -1770q-25 -149 -86 -231q-59 -81 -163 -140q-103 -59 -249 -59q-206 0 -355 147z" />
    <glyph glyph-name="sf289.001" unicode="&#x645;" horiz-adv-x="1200" 
d="M200 300h700v740q-103 -41 -251 -40q-151 2 -251 -70q-98 -69 -149 -172q-49 -99 -49 -258v-200zM100 500q0 351 249 518q123 85 323 83q198 -1 328 99v-1000h-800v-51h799v-100h-799v-103q-2 -198 -147 -344l-71 72q115 114 118 277v549z" />
    <glyph glyph-name="sf277.019" unicode="&#x646;" horiz-adv-x="1298" 
d="M529 374q30 29 70 29q41 0 71 -29q30 -30 30 -71q0 -40 -30 -71q-30 -30 -71 -30t-71 30q-29 30 -29 71t30 71zM242 -53q-146 146 -146 353q0 206 148 354q68 68 159 107q90 40 177 40q67 0 95 -46q22 -36 17 -78q-5 -48 -47 -69q-43 -27 -89 -15q-45 12 -60 50
q-9 26 -6 37q2 6 -10 4t-33 -13q-25 -12 -56 -33q-36 -24 -75 -56q-116 -118 -118 -282q0 -163 116 -281q119 -116 283 -116q165 0 280 106q105 97 119 241l-1 750h100v-770q-25 -149 -86 -231q-59 -81 -163 -140q-103 -59 -249 -59q-206 0 -355 147z" />
    <glyph glyph-name="sf277.037" unicode="&#x6ba;" horiz-adv-x="1298" 
d="M242 -53q-146 146 -146 353q0 206 148 354q68 68 159 107q90 40 177 40q67 0 95 -46q22 -36 17 -78q-5 -48 -47 -69q-43 -27 -89 -15q-45 12 -60 50q-9 26 -6 37q2 6 -10 4t-33 -13q-25 -12 -56 -33q-36 -24 -75 -56q-116 -118 -118 -282q0 -163 116 -281
q119 -116 283 -116q165 0 280 106q105 97 119 241l-1 750h100v-770q-25 -149 -86 -231q-59 -81 -163 -140q-103 -59 -249 -59q-206 0 -355 147z" />
    <glyph glyph-name="sf337" unicode="&#x648;" horiz-adv-x="1201" 
d="M201 302l700 -2v740q-103 -41 -251 -40q-151 2 -251 -70q-98 -69 -149 -172q-49 -99 -49 -358v-98zM101 49v100h800v50l-800 1v200q0 281 62 408q61 125 187 210q123 85 323 83q198 -1 328 99v-1147q-1 -87 -66 -203q-64 -114 -185 -182q-122 -68 -250 -68h-99v99h100
q102 2 199 56q96 53 147 149q52 95 54 145h-800z" />
    <glyph glyph-name="sf337.001" unicode="&#x624;" horiz-adv-x="1201" 
d="M201 302l700 -2v740q-103 -41 -251 -40q-151 2 -251 -70q-98 -69 -149 -172q-49 -99 -49 -358v-98zM101 49v100h800v50l-800 1v200q0 281 62 408q61 125 187 210q123 85 323 83q198 -1 328 99v-1147q-1 -87 -66 -203q-64 -114 -185 -182q-122 -68 -250 -68h-99v99h100
q102 2 199 56q96 53 147 149q52 95 54 145h-800zM714 1342q0 26 -19 45q-18 18 -44 18q-25 0 -45 -18q-19 -19 -19 -45q0 -27 19 -45q18 -18 45 -18h109v-37h-232v37h46q-23 28 -23 63q0 41 29 70t71 29q45 0 70 -29q29 -29 29 -70h-36z" />
    <glyph glyph-name="sf265.001" unicode="&#x6c1;" horiz-adv-x="1205" 
d="M170 799q67 120 187 184q121 65 246 65q126 0 245 -65q121 -65 188 -184q68 -121 68 -251q0 -131 -66 -250q-66 -118 -186 -184q-118 -66 -249 -66q-129 0 -249 66q-120 67 -185 184q-66 119 -66 250q0 132 67 251zM406 895q-96 -51 -150 -147q-53 -97 -53 -201
q0 -105 52 -199q53 -95 148 -148q95 -52 200 -52t199 52t148 148q53 95 53 199q0 105 -54 201t-150 147q-94 52 -196 52t-197 -52z" />
    <glyph glyph-name="sf265.002" unicode="&#x6c3;" horiz-adv-x="1205" 
d="M170 799q67 120 187 184q121 65 246 65q126 0 245 -65q121 -65 188 -184q68 -121 68 -251q0 -131 -66 -250q-66 -118 -186 -184q-118 -66 -249 -66q-129 0 -249 66q-120 67 -185 184q-66 119 -66 250q0 132 67 251zM406 895q-96 -51 -150 -147q-53 -97 -53 -201
q0 -105 52 -199q53 -95 148 -148q95 -52 200 -52t199 52t148 148q53 95 53 199q0 105 -54 201t-150 147q-94 52 -196 52t-197 -52zM443 1329q30 29 70 29q41 0 71 -29q30 -30 30 -71q0 -40 -30 -71q-30 -30 -71 -30t-71 30q-29 30 -29 71t30 71zM660 1329q30 29 70 29
q41 0 71 -29q30 -30 30 -71q0 -40 -30 -71q-30 -30 -71 -30t-71 30q-29 30 -29 71t30 71z" />
    <glyph glyph-name="sf298" unicode="&#x6be;" horiz-adv-x="1537" 
d="M-95 149h1439l-30 -100h-1409v100zM226 301h682l1 23q1 11 0 20q0 32 -11 82q-37 136 -160 208q-123 70 -260 35q-134 -38 -205 -155q-61 -99 -47 -213zM124 301q-12 140 63 265q92 153 265 200q177 46 337 -45q160 -93 206 -270q15 -54 15 -105q1 -7 0 -19l-1 -26h277
q50 248 -76 467q-137 238 -403 310q-142 27 -246 9q-100 -16 -146 -40q-25 -13 -51 -25q-32 -15 -66 -30q-73 -31 -120 -9q-46 22 -60 62q-13 38 -13 65q-2 40 30 72q32 31 70 29q42 0 71 -29q30 -31 30 -82q197 142 526 76q150 -41 272 -137q117 -91 193 -221
q73 -127 96 -278q22 -147 2 -240l-33 -100h-1457v101h219z" />
    <glyph glyph-name="sf266.002" unicode="&#x621;" horiz-adv-x="898" 
d="M600 469q0 69 -50 121q-52 50 -120 50q-71 0 -121 -50q-51 -49 -51 -121q0 -71 51 -121q48 -50 120 -50h297v-98h-627v98h123q-62 74 -62 171q0 109 79 190q81 79 191 79t189 -79t79 -190h-98zM99 149h630l-1 -100h-629v100z" />
    <glyph glyph-name="sf271" unicode="&#x649;" horiz-adv-x="1999" 
d="M1501 149q2 -49 -298 -100h-400q-300 50 -300 100h998zM1001 900q5 300 300 300h402v-100h-402q-195 0 -200 -200v-98h302q265 -4 355 -151q90 -145 0 -299q-90 -153 -355 -152h-800l-1 2q-207 0 -353 147q-147 146 -146 354q0 206 146 355q146 147 353 147v1
q41 0 71 -29t30 -71q0 -40 -30 -71q-30 -30 -71 -30q-26 0 -50 13q-22 13 -37 38q-13 23 -13 34q-63 -7 -181 -104q-116 -119 -116 -285q0 -164 116 -280q119 -117 282 -121h800q196 -2 260 104q65 106 0 200q-64 95 -260 98h-402v198z" />
    <glyph glyph-name="sf271" unicode="&#x6cc;" horiz-adv-x="1999" 
d="M1501 149q2 -49 -298 -100h-400q-300 50 -300 100h998zM1001 900q5 300 300 300h402v-100h-402q-195 0 -200 -200v-98h302q265 -4 355 -151q90 -145 0 -299q-90 -153 -355 -152h-800l-1 2q-207 0 -353 147q-147 146 -146 354q0 206 146 355q146 147 353 147v1
q41 0 71 -29t30 -71q0 -40 -30 -71q-30 -30 -71 -30q-26 0 -50 13q-22 13 -37 38q-13 23 -13 34q-63 -7 -181 -104q-116 -119 -116 -285q0 -164 116 -280q119 -117 282 -121h800q196 -2 260 104q65 106 0 200q-64 95 -260 98h-402v198z" />
    <glyph glyph-name="sf271.002" unicode="&#x64a;" horiz-adv-x="1999" 
d="M1501 149q2 -49 -298 -100h-400q-300 50 -300 100h998zM1001 900q5 300 300 300h402v-100h-402q-195 0 -200 -200v-98h302q265 -4 355 -151q90 -145 0 -299q-90 -153 -355 -152h-800l-1 2q-207 0 -353 147q-147 146 -146 354q0 206 146 355q146 147 353 147v1
q41 0 71 -29t30 -71q0 -40 -30 -71q-30 -30 -71 -30q-26 0 -50 13q-22 13 -37 38q-13 23 -13 34q-63 -7 -181 -104q-116 -119 -116 -285q0 -164 116 -280q119 -117 282 -121h800q196 -2 260 104q65 106 0 200q-64 95 -260 98h-402v198zM790 -51q30 29 70 29q41 0 71 -29
q30 -30 30 -71q0 -40 -30 -71q-30 -30 -71 -30t-71 30q-29 30 -29 71t30 71zM1024 -51q30 29 70 29q41 0 71 -29q30 -30 30 -71q0 -40 -30 -71q-30 -30 -71 -30t-71 30q-29 30 -29 71t30 71z" />
    <glyph glyph-name="afii57414" unicode="&#x626;" horiz-adv-x="1999" 
d="M1501 149q2 -49 -298 -100h-400q-300 50 -300 100h998zM1001 900q5 300 300 300h402v-100h-402q-195 0 -200 -200v-98h302q265 -4 355 -151q90 -145 0 -299q-90 -153 -355 -152h-800l-1 2q-207 0 -353 147q-147 146 -146 354q0 206 146 355q146 147 353 147v1
q41 0 71 -29t30 -71q0 -40 -30 -71q-30 -30 -71 -30q-26 0 -50 13q-22 13 -37 38q-13 23 -13 34q-63 -7 -181 -104q-116 -119 -116 -285q0 -164 116 -280q119 -117 282 -121h800q196 -2 260 104q65 106 0 200q-64 95 -260 98h-402v198zM1313 1350q0 26 -19 45q-18 18 -44 18
q-25 0 -45 -18q-19 -19 -19 -45q0 -27 19 -45q18 -18 45 -18h109v-37h-232v37h46q-23 28 -23 63q0 41 29 70t71 29q45 0 70 -29q29 -29 29 -70h-36z" />
    <glyph glyph-name="sf269" unicode="&#x6d2;" horiz-adv-x="2370" 
d="M2311 132v-100h-1500q-300 50 -300 100h1800zM2011 283h300v-100h-1700q-207 0 -368 71q-175 131 -159 345q0 167 208 273q44 48 737 29l735 -3q4 -6 1 -97l-685 1l-685 1q-197 -40 -222 -203q-26 -162 127 -260q148 -54 311 -57h1300h100zM1749 899q204 17 226 271
q15 182 -101 301q-118 97 -181 104q0 -11 -13 -34q-14 -25 -37 -38t-50 -13q-41 0 -71 30q-30 31 -30 71q0 42 30 71t71 29v-1q207 0 353 -147q166 -160 108 -478q-44 -184 -224 -260l-78 -8l-5 51z" />
    <glyph glyph-name="sf269.002" unicode="&#x6d3;" horiz-adv-x="2374" 
d="M2302 132v-100h-1500q-300 50 -300 100h1800zM2002 283h300v-100h-1700q-207 0 -368 71q-175 131 -159 345q0 167 208 273q44 48 737 29l735 -3q4 -6 1 -97l-685 1l-685 1q-197 -40 -222 -203q-26 -162 127 -260q148 -54 311 -57h1300h100zM1740 899q204 17 226 271
q15 182 -101 301q-118 97 -181 104q0 -11 -13 -34q-14 -25 -37 -38t-50 -13q-41 0 -71 30q-30 31 -30 71q0 42 30 71t71 29v-1q207 0 353 -147q166 -160 108 -478q-44 -184 -224 -260l-78 -8l-5 51zM1078 1151q0 26 -19 45q-18 18 -44 18q-25 0 -45 -18q-19 -19 -19 -45
q0 -27 19 -45q18 -18 45 -18h109v-37h-232v37h46q-23 28 -23 63q0 41 29 70t71 29q45 0 70 -29q29 -29 29 -70h-36z" />
    <glyph glyph-name="glyph73" horiz-adv-x="1602" 
d="M-95 149h1439l-30 -100h-1409v100zM226 301h682l1 23q1 11 0 20q0 32 -11 82q-37 136 -160 208q-123 70 -260 35q-134 -38 -205 -155q-61 -99 -47 -213zM124 301q-12 140 63 265q92 153 265 200q177 46 337 -45q160 -93 206 -270q15 -54 15 -105q1 -7 0 -19l-1 -26h277
q50 248 -76 467q-137 238 -403 310q-142 27 -246 9q-100 -16 -146 -40q-25 -13 -51 -25q-32 -15 -66 -30q-73 -31 -120 -9q-46 22 -60 62q-13 38 -13 65q-2 40 30 72q32 31 70 29q42 0 71 -29q30 -31 30 -82q197 142 526 76q150 -41 272 -137q117 -91 193 -221
q73 -127 96 -278q22 -147 2 -240l-33 -100h-1457v101h219z" />
    <glyph glyph-name="sf325.001" horiz-adv-x="1100" 
d="M803 400q0 168 -114 284q-52 54 -114 81q-61 29 -72 27q-11 0 -72 -28q-59 -26 -113 -81q-113 -115 -115 -283v-100h600v100zM104 1300l-1 700h101v-700q-1 -167 113 -283q53 -54 113 -82q62 -27 73 -27q13 2 73 28q63 29 114 82q115 116 113 284v698h100l1 -699
q2 -206 -143 -354q-77 -68 -161 -96q85 -28 160 -96q143 -146 143 -355v-100h300v-98l-300 -2h-800v199q0 208 144 355q74 68 159 96q-84 28 -160 96q-146 150 -142 354zM1203 150v-100h-1100v100h1100z" />
    <glyph glyph-name="sf268.001" horiz-adv-x="403" 
d="M352 1916q-20 -20 -49 -33l-33 -8q-6 -1 -13 -1q-8 -1 -17 -1q-26 1 -66 22q-35 17 -65 21q-57 0 -107 -31v85q55 30 107 30q25 0 70 -19q33 -17 61 -22l16 -1q26 0 45 9q27 11 51 33v-84zM208 1805v-1755h-106v1755h106z" />
    <glyph glyph-name="sf308" unicode="&#x61f;" horiz-adv-x="683" 
d="M316 -269q-6 7 -4.5 12.5t6.5 14.5q6 7 19.5 23.5t28.5 35t29 35t20 22.5q8 11 14 10.5t12 -5.5q37 -33 74.5 -61t61.5 -53q5 -6 4 -10.5t-5 -10.5q-23 -33 -47.5 -62.5t-48.5 -60.5q-10 -19 -27 -7q-14 7 -34 22t-40 32t-37 34t-26 29zM439 36q-4 -6 -9.5 -13.5
t-10 -10.5t-6.5 1t1 21q7 39 17 81.5t12.5 84.5t-8 81.5t-44.5 71.5q-66 30 -128 62t-109.5 75t-75.5 101t-26 141q18 81 45.5 161t72 144t110 104t160.5 40q34 0 66.5 -11.5t60 -32.5t49 -49.5t34.5 -62.5q6 -18 -2 -48t-22 -61.5t-30 -59.5t-26 -43q-8 -14 -17 -14
q-12 0 -12 18q1 34 -14.5 65.5t-42 54.5t-61.5 36t-72 11q-21 -1 -50 -9t-59 -23t-57.5 -37t-46.5 -52q0 -47 20 -86.5t50 -72t66 -56.5t69 -40q49 -25 83.5 -39.5t56.5 -34t32 -51.5t10 -93q0 -26 -3.5 -64t-12.5 -84.5t-26 -99t-44 -106.5z" />
    <glyph glyph-name="sf333" unicode="&#x61b;" horiz-adv-x="432" 
d="M93 207q5 7 18.5 24.5t29.5 36.5t30 35.5t21 22.5q8 11 14.5 10.5t12.5 -6.5q37 -32 75 -61t63 -55q6 -5 4.5 -9.5t-6.5 -10.5q-23 -34 -47.5 -64t-48.5 -63q-11 -18 -28 -7q-14 7 -34.5 22.5t-41 33.5t-38 35.5t-25.5 28.5q-6 8 -5 13t6 14zM82 550q-18 54 -9.5 113.5
t33.5 119.5t62 116t76 102q12 11 24.5 18.5t20.5 7.5q7 0 6 -9.5t-16 -33.5q-20 -31 -40.5 -61.5t-37.5 -62t-28 -65t-12 -71.5q0 -14 2.5 -32t9.5 -34t19 -26t31 -8q9 8 17.5 26t17.5 37.5t19 35.5t21 19q10 0 21 -12.5t20 -29t14.5 -33.5t5.5 -26q0 -24 -15.5 -53.5
t-32.5 -64.5q-25 -33 -58.5 -46.5t-67 -9.5t-61.5 25t-42 58z" />
    <glyph glyph-name="sf272" unicode=":" horiz-adv-x="416" 
d="M77 -56q6 7 19.5 24t29 36t30 36t20.5 23q7 10 14 10t13 -6q37 -32 75 -61t63 -55q6 -6 4.5 -10t-6.5 -11q-23 -33 -47.5 -63t-48.5 -62q-11 -20 -28 -8q-14 8 -34.5 23.5t-41 33t-38 34.5t-25.5 29q-6 8 -5 13t6 14zM77 545q6 7 19.5 24t29 36t30 36t20.5 23
q8 10 14.5 9.5t12.5 -4.5q37 -33 75 -62t63 -55q6 -5 4.5 -10t-6.5 -11q-23 -34 -47.5 -64t-48.5 -62q-11 -21 -28 -7q-14 7 -34.5 22.5t-41.5 33.5t-38.5 35t-24.5 28q-6 9 -5 14.5t6 13.5z" />
    <glyph glyph-name="sf273" unicode="," horiz-adv-x="421" 
d="M346 10q11 -53 -4 -109.5t-46 -110.5t-73 -103t-85 -88q-14 -10 -27 -16t-19 -4q-7 1 -4.5 10t19.5 30q22 28 45 54.5t42.5 54.5t34.5 58.5t21 67.5q1 14 0.5 31.5t-5.5 33.5t-15 26.5t-28 10.5q-9 -6 -19.5 -22.5t-21.5 -34.5t-22.5 -32t-21.5 -14q-11 1 -19.5 14
t-15 29.5t-9.5 33.5t-2 26q2 23 20 49t40 57q27 30 59.5 39.5t63.5 1t56 -32.5t36 -60z" />
    <glyph glyph-name="sf275" horiz-adv-x="403" 
d="M91 -95q4 7 16 22.5t26 32.5t27 32t19 21q7 10 13 10t12 -6q33 -29 67.5 -55t55.5 -50q10 -8 0 -18q-21 -30 -43.5 -57.5t-44.5 -56.5q-9 -17 -24 -6q-12 6 -30.5 20t-37.5 30t-34.5 31.5t-22.5 25.5q-6 8 -5.5 12.5t6.5 11.5zM208 429q-1 66 -9 124.5t-24 113t-41 107.5
t-60 108q-2 4 -3 7t1 9q1 6 11 35.5t38 99.5q8 24 20 22t24.5 -14.5t23 -29t15.5 -21.5q48 -88 69.5 -184.5t21.5 -199.5t-19.5 -201t-55.5 -189q-5 -13 -10.5 -21.5t-8.5 -8.5q-8 0 -6 39q4 55 9 104t4 100z" />
    <glyph glyph-name="sf257" unicode="%" horiz-adv-x="1257" 
d="M897 -15q1 -23 9 -42.5t22 -34.5t33 -23.5t43 -8.5q20 0 39 7t34 20t25.5 30.5t12.5 37.5v70q0 21 0.5 42t0.5 42v24t-0.5 25.5t-0.5 24.5v22v62q-1 19 -8.5 36t-20.5 30t-29.5 22t-35.5 12q-4 0 -7.5 0.5t-7.5 0.5q-22 0 -41.5 -8t-34 -22t-23 -33t-9.5 -41
q-1 -21 -1.5 -46t-0.5 -53v-26v-28v-29v-26q1 -23 1 -45v-41v-1zM804 70q0 54 0.5 110t1.5 111q3 38 20.5 72t44.5 59.5t61.5 40t72.5 14.5q43 0 80 -16.5t64 -44.5t42.5 -66t15.5 -80v-154v-30.5v-29.5v-86q-3 -40 -20.5 -74t-45.5 -58.5t-64 -38.5t-74 -14q-41 0 -77 15.5
t-63 42.5t-43 63.5t-16 78.5v85zM143 671q1 -23 9 -42.5t22 -34.5t33 -23.5t43 -8.5q20 0 39 7t34 20t25.5 30.5t12.5 37.5v70q0 21 0.5 42t0.5 42v24t-0.5 25.5t-0.5 24.5v22v62q-1 19 -8.5 36t-20.5 30t-29.5 22t-35.5 12q-4 0 -7.5 0.5t-7.5 0.5q-22 0 -41.5 -8t-34 -22
t-23 -33t-9.5 -41q-1 -21 -1.5 -46t-0.5 -53v-26v-28v-29v-26q1 -23 1 -45v-41v-1zM50 756q0 54 0.5 110t1.5 111q3 38 20.5 72t44.5 59.5t61.5 40t72.5 14.5q43 0 80 -16.5t64 -44.5t42.5 -66t15.5 -80v-154v-30.5v-29.5v-86q-3 -40 -20.5 -74t-45.5 -58.5t-64 -38.5
t-74 -14q-41 0 -77 15.5t-63 42.5t-43 63.5t-16 78.5v85zM326 -216l-131 -1l733 1373l129 1z" />
    <glyph glyph-name="sf258.001" unicode="*" horiz-adv-x="776" 
d="M587 690q-45 9 -87.5 16.5t-87.5 15.5q36 -21 71.5 -42t69.5 -46q46 -38 61 -71t5 -48t-40.5 -6t-75.5 53q-28 32 -54.5 73t-50.5 79q10 -42 20.5 -82.5t18.5 -82.5q7 -53 -6 -88.5t-31 -42.5t-34.5 19.5t-16.5 97.5q10 48 18 90.5t17 88.5q-24 -38 -46 -75t-47 -75
q-23 -30 -46 -46.5t-41.5 -21t-30 1.5t-11.5 22q0 15 12.5 38.5t42.5 55.5q39 30 78.5 57t79.5 53q-46 -12 -99.5 -26t-101.5 -18q-55 1 -79.5 15.5t-22.5 31t29 30.5t77 14q4 0 12.5 -0.5t29 -3.5t57.5 -10t100 -20q-39 22 -76 44.5t-75 46.5q-40 34 -56.5 59.5t-16.5 42.5
t14 22.5t36 -2t49.5 -30t54.5 -61.5q4 -6 14.5 -21t22.5 -32t22.5 -32t15.5 -22q-14 52 -22.5 86.5t-12.5 56.5t-5 34t-1 20q0 52 13.5 76.5t30 22.5t31 -29.5t15.5 -79.5q-1 -5 -2 -17t-4.5 -33.5t-10 -55.5t-18.5 -83q24 38 46.5 73t44.5 71q40 49 73 63.5t47 3.5t4.5 -43
t-54.5 -75q-38 -29 -74.5 -55t-74.5 -48q46 11 88 21t84 19q3 0 7.5 0.5t10.5 0.5q13 0 31.5 -2t35.5 -6.5t29 -12.5t12 -20q0 -14 -15 -24t-35 -16t-39.5 -8.5t-29.5 -1.5z" />
    <glyph glyph-name="sf258.001" unicode="&#x66d;" horiz-adv-x="776" 
d="M587 690q-45 9 -87.5 16.5t-87.5 15.5q36 -21 71.5 -42t69.5 -46q46 -38 61 -71t5 -48t-40.5 -6t-75.5 53q-28 32 -54.5 73t-50.5 79q10 -42 20.5 -82.5t18.5 -82.5q7 -53 -6 -88.5t-31 -42.5t-34.5 19.5t-16.5 97.5q10 48 18 90.5t17 88.5q-24 -38 -46 -75t-47 -75
q-23 -30 -46 -46.5t-41.5 -21t-30 1.5t-11.5 22q0 15 12.5 38.5t42.5 55.5q39 30 78.5 57t79.5 53q-46 -12 -99.5 -26t-101.5 -18q-55 1 -79.5 15.5t-22.5 31t29 30.5t77 14q4 0 12.5 -0.5t29 -3.5t57.5 -10t100 -20q-39 22 -76 44.5t-75 46.5q-40 34 -56.5 59.5t-16.5 42.5
t14 22.5t36 -2t49.5 -30t54.5 -61.5q4 -6 14.5 -21t22.5 -32t22.5 -32t15.5 -22q-14 52 -22.5 86.5t-12.5 56.5t-5 34t-1 20q0 52 13.5 76.5t30 22.5t31 -29.5t15.5 -79.5q-1 -5 -2 -17t-4.5 -33.5t-10 -55.5t-18.5 -83q24 38 46.5 73t44.5 71q40 49 73 63.5t47 3.5t4.5 -43
t-54.5 -75q-38 -29 -74.5 -55t-74.5 -48q46 11 88 21t84 19q3 0 7.5 0.5t10.5 0.5q13 0 31.5 -2t35.5 -6.5t29 -12.5t12 -20q0 -14 -15 -24t-35 -16t-39.5 -8.5t-29.5 -1.5z" />
    <glyph glyph-name="sf259.001" unicode="@" horiz-adv-x="1325" 
d="M753 254q2 37 2.5 73.5t0.5 75.5q0 33 -0.5 66t-0.5 65v44q0 12 -0.5 23t-0.5 23v2q-3 25 -14 43.5t-27.5 30.5t-36.5 18.5t-41 6.5q-22 0 -43.5 -7t-38.5 -20.5t-27.5 -34t-11.5 -46.5v-43q0 -10 -0.5 -21t-0.5 -23q-1 -23 -1 -48v-49v-92q0 -23 0.5 -43t1.5 -38
q1 -27 12 -47t28 -33.5t37.5 -20t41.5 -6.5t41.5 6.5t37.5 19t28 31.5t13 44zM1216 853q8 -17 14 -49t10.5 -75.5t6.5 -94.5t2 -107q0 -53 -2 -107.5t-6.5 -107t-11.5 -102t-16 -91.5q-14 -40 -33.5 -77t-46.5 -67.5t-61.5 -53t-79.5 -33.5q-24 -6 -54 -6q-32 0 -62.5 8.5
t-55.5 27t-43.5 46t-25.5 63.5l-3 4l-7 2l-4 -1q-32 -29 -72.5 -45t-83.5 -16q-64 0 -116 33q-30 17 -55 42.5t-43.5 56t-30.5 64.5t-16 69q-2 44 -2 85v85v84q0 41 1 83v58q4 45 19 87t41 77.5t61 62t78 39.5h1q15 6 30.5 8t31.5 2q45 0 87 -17t75 -48h5l7 4l2 3v17
q0 1 -0.5 4t-0.5 4v30h92q9 0 17.5 -0.5t17.5 -0.5h51q2 -67 2.5 -128.5t0.5 -126.5v-46v-45v-256v-83v-83q3 -51 28.5 -74.5t58.5 -23.5q21 0 41.5 8.5t38.5 24.5t31 39.5t17 53.5q11 82 16 168t5 175q0 128 -11 250v2q-10 48 -33.5 95.5t-57.5 86t-78 65.5t-97 35h-1
q-26 0 -52 0.5t-52 1.5h-24h-25q-36 1 -71.5 1.5t-70.5 0.5q-50 0 -99 -1t-98 -6h-2q-48 -10 -85 -36t-65 -63t-48.5 -81.5t-33.5 -92.5q-10 -73 -13.5 -146.5t-3.5 -148.5q0 -56 1.5 -112t2.5 -111q1 -17 1 -33t1 -32q1 -15 1.5 -30.5t0.5 -30.5q3 -46 14.5 -97.5t34 -96
t57.5 -77.5t86 -43h2q111 -10 219 -17t219 -7q70 0 137 3.5t134 10.5q41 6 69.5 30t51.5 53q4 -2 8.5 -3t9.5 -3l12 -3v-1q13 -6 24.5 -10t16.5 -9q-13 -24 -31 -46.5t-40 -42t-48.5 -34t-56.5 -20.5q-14 -1 -28 -1q-13 0 -27 -1q-9 0 -17.5 -0.5t-17.5 -0.5q-14 -1 -27 -1
t-28 -1q-60 -1 -122.5 -2.5t-124.5 -1.5q-97 0 -193 5t-193 19q-60 22 -103 68t-71 105t-41.5 124t-14.5 125q2 30 2.5 61.5t0.5 64.5v44v23v23v28t-1 26q0 13 -1 26t-1 26q0 82 2.5 160.5t9.5 159.5q13 66 39.5 124t66.5 103.5t93 76t119 41.5q29 1 57.5 1.5t57.5 0.5
q33 0 66.5 -0.5t66.5 -1.5q17 0 33.5 -0.5t33.5 -0.5q49 0 98 -0.5t98 -0.5q56 -6 104 -31t86.5 -62.5t67.5 -84.5t46 -98z" />
    <glyph glyph-name="sf260.002" unicode="[" horiz-adv-x="564" 
d="M70 -701h1v2032h433v-131h-254v-1881h253v-131h-433v111z" />
    <glyph glyph-name="sf262.001" horiz-adv-x="796" 
d="M305 113q4 6 14.5 19t22.5 27.5t23 27.5t16 18q6 8 10 8q5 0 10 -5q29 -25 58 -47t49 -42q6 -8 -2 -16q-17 -26 -36 -49t-38 -48q-8 -14 -22 -6q-10 6 -25.5 17.5t-31.5 25t-29.5 27t-19.5 22.5q-5 7 -4.5 10.5t5.5 10.5zM304 597q4 6 14.5 19t22.5 27.5t23 27.5t16 18
q6 8 10 8q5 0 10 -5q29 -25 58 -47t49 -42q6 -8 -2 -16q-17 -26 -36 -49t-38 -48q-8 -14 -22 -6q-10 6 -25.5 17.5t-31.5 25t-29.5 27t-19.5 22.5q-5 7 -4.5 10.5t5.5 10.5zM70 385h656v-78h-656v78z" />
    <glyph glyph-name="sf263.001" unicode="$" horiz-adv-x="890" 
d="M388 1165h126v-107q22 -5 43 -12q57 -20 103.5 -55.5t80.5 -84.5t48 -108q8 -32 9.5 -60t1.5 -56h-161v19q0 41 -15.5 78t-42 65.5t-63.5 44.5l-4 2v-384l28 -14q40 -21 76.5 -45t69 -51.5t56.5 -61t37.5 -74t13.5 -88.5q0 -70 -30 -126.5t-79.5 -96.5t-112.5 -61
q-30 -10 -59 -15v-88h-126v87q-25 4 -50 12q-52 16 -96 46t-78 72.5t-52 93.5q-4 11 -8 22.5t-7 29t-5 42.5t-2 62h158v-17q0 -31 14 -67.5t40 -67t64 -51.5q10 -6 22 -10v362q-46 25 -110 60q-37 19 -71.5 48t-60.5 64t-41 75.5t-15 83.5q0 69 30 129.5t79 105.5t112 71
q38 16 77 22v104zM376 893q-32 -12 -60.5 -33t-46.5 -49.5t-18 -61.5q0 -38 40 -88q32 -39 97 -85v321q-6 -1 -12 -4zM551 53q23 12 40 30.5t26.5 41.5t9.5 52q0 41 -17.5 69t-46.5 56h-1q-5 4 -15 11q-9 6 -33 20v-296q20 6 37 16z" />
    <glyph glyph-name="sf264.001" unicode="=" horiz-adv-x="917" 
d="M837 241v-105h-757v105h757zM837 539v-106h-757v106h757z" />
    <glyph glyph-name="sf268.002" unicode="-" horiz-adv-x="627" 
d="M577 363v-104h-527v104h527z" />
    <glyph glyph-name="sf269.001" horiz-adv-x="725" 
d="M88 20h-6l-61 61l267 264l-268 275l64 64l272 -271l284 278l65 -67l-282 -279l279 -279l-66 -66l-282 279z" />
    <glyph glyph-name="sf270.005" unicode="(" horiz-adv-x="602" 
d="M495 -798q-226 227 -340.5 497t-106.5 595q7 299 114 547.5t333 455.5q17 14 32 15.5t24 -6t10 -22.5t-10 -34q-84 -94 -146 -208.5t-102.5 -241.5t-59.5 -262t-17 -269q2 -133 18.5 -265t53.5 -259.5t97.5 -249t150.5 -233.5q15 -19 15.5 -36.5t-8.5 -28t-24.5 -11
t-33.5 15.5z" />
    <glyph glyph-name="sf271.001" unicode="+" horiz-adv-x="1102" 
d="M501 259h-371v100h371v379h99v-379h372v-100h-372v-361h-99v361z" />
    <glyph glyph-name="sf273.001" unicode="/" horiz-adv-x="862" 
d="M131 -225l-131 -1l733 1373l129 1z" />
    <glyph glyph-name="sf274.001" unicode="&#x640;" horiz-adv-x="578" 
d="M101 200l476 -1l-80 -196q-17 0 -52.5 -0.5t-81 -1t-96.5 -1t-100 -0.5h-92h-72z" />
    <glyph glyph-name="sf274.001" unicode="&#x6d4;" horiz-adv-x="578" 
d="M101 200l476 -1l-80 -196q-17 0 -52.5 -0.5t-81 -1t-96.5 -1t-100 -0.5h-92h-72z" />
    <glyph glyph-name="sf264.002.24428116" unicode="#" horiz-adv-x="1422" 
d="M526 295l5 -5h294l5 5l26 290l-5 5h-296l-5 -5zM369 290l5 5l26 290l-5 5h-325v150h338l5 5l30 330l149 -14l-29 -316l5 -5h296l5 5l31 336l148 -13l-27 -323l5 -5h315v-150h-332l-5 -5l-22 -290l5 -5h354v-148h-368l-5 -5l-31 -343l-151 14l31 329l-5 5h-295l-5 -5
l-32 -352l-149 14l30 338l-6 5h-285v148h299z" />
    <glyph glyph-name="sf270.008" unicode=")" horiz-adv-x="602" 
d="M108 -798q-18 -16 -34 -15.5t-25 11.5t-8 28.5t16 35.5q90 113 150.5 234.5t97.5 249t53.5 259t18.5 264.5q1 136 -18 270.5t-59.5 261t-102 240.5t-145.5 209q-12 19 -11.5 34t9.5 22.5t24.5 6t33.5 -14.5q113 -104 196 -217.5t137.5 -238.5t82.5 -261.5t31 -286.5
q7 -324 -107 -594.5t-340 -497.5z" />
    <glyph glyph-name="sf260.003" unicode="]" horiz-adv-x="564" 
d="M494 1218h-1v-2032h-433v131h254v1881h-253v131h433v-111z" />
    <glyph glyph-name="a" unicode="a" horiz-adv-x="1001" 
d="M728 224q0 27 -1 53t-6 55q-5 38 -26.5 68.5t-52 51.5t-66.5 32t-71 11q-37 0 -70.5 -12.5t-61.5 -33.5t-50 -49.5t-35 -61.5q-9 -22 -12.5 -48t-3.5 -55q0 -34 4 -65t11 -56q10 -35 31.5 -64t50 -50t63 -32.5t70.5 -11.5q39 0 76 11t67.5 33t51.5 54t29 73v11
q1 22 1.5 43t0.5 43zM469 669q52 0 100 -17t86 -52l8 -8v-1q2 -2 2.5 -3t2.5 -3q11 -11 22.5 -22t16.5 -13l5 1l13 9l2 4v105h174v-888h-174v101l-3 5l-18 7l-6 -2q-41 -50 -95 -80.5t-120 -30.5q-68 0 -129.5 24.5t-111.5 66.5t-85.5 98.5t-50.5 120.5v2q-2 6 -3.5 18
t-2.5 35.5t-1.5 62t-0.5 98.5q0 69 32 134t84.5 115.5t118.5 81.5t134 31z" />
    <glyph glyph-name="b" unicode="b" horiz-adv-x="1000" 
d="M273 227q0 -26 1 -53t6 -54q6 -39 27 -69.5t51 -51.5t66 -32t72 -11q37 0 70.5 12t62 33.5t50 50t34.5 61.5q9 21 12.5 48t3.5 56q0 33 -4 64t-11 56q-10 36 -31 65t-49.5 49.5t-62.5 32t-70 11.5q-39 0 -76.5 -11.5t-68.5 -33t-52.5 -53.5t-28.5 -73v-17
q-1 -20 -1.5 -40t-0.5 -40zM532 -219q-105 0 -188 69l-10 11v1l-1 1q-4 4 -8.5 8l-4.5 4q-9 10 -17 18t-15 8l-4 -2l-10 -11l-1 -3v-104h-173v1362h173v-575l3 -5l18 -6l6 2q41 50 95.5 80.5t120.5 30.5q68 0 129.5 -25t111.5 -68t85.5 -100t52.5 -121q1 -5 1.5 -16
t1.5 -34.5t1.5 -62.5t0.5 -100q0 -69 -32 -134t-84 -115.5t-118 -81.5t-134 -31z" />
    <glyph glyph-name="c" unicode="c" horiz-adv-x="950" 
d="M75 228q0 53 7 102.5t27 97.5q23 55 62 100t88 76t106 48t117 17q71 0 138.5 -20.5t122 -59.5t91.5 -94.5t46 -124.5h-186q-26 59 -82.5 93t-123.5 34h-8q-35 -1 -69.5 -12.5t-64 -32t-51 -49.5t-30.5 -65q-6 -25 -10 -54t-4 -61q0 -59 14 -104l5 -4h-3q12 -36 33 -66
t49.5 -51t63.5 -33t74 -12q63 0 116.5 25t76.5 82l185 -1q-11 -59 -41.5 -108t-74.5 -85.5t-99.5 -58.5t-116.5 -26q-37 0 -63 1.5t-43.5 3t-27.5 3.5t-14 3q-50 12 -96 37.5t-84.5 61t-67 79.5t-41.5 94q-12 44 -16.5 83t-4.5 81z" />
    <glyph glyph-name="sf256.002" unicode="d" horiz-adv-x="953" 
d="M484 -44q36 0 72 11t66.5 32t51.5 51t26 69q5 28 6 55t1 53q0 20 -0.5 40t-1.5 40v17q-7 41 -28.5 73t-52.5 53.5t-68 33t-75 11.5q-36 0 -70.5 -11.5t-63 -32.5t-50 -50t-31.5 -64q-7 -25 -11 -56t-4 -64q0 -29 3.5 -56t12.5 -48q13 -33 35 -61.5t50 -50t61.5 -33.5
t70.5 -12zM448 -219q-68 0 -134 31t-118 81.5t-84 115.5t-32 134v100q0 80 28.5 157t79.5 137t121.5 96.5t154.5 36.5q66 0 120 -30t96 -81l6 -2l18 6l3 5v575h173v-1362h-173v104l-1 3l-10 11l-4 2q-26 -26 -53.5 -48t-57.5 -38.5t-63 -25.5t-70 -8z" />
    <glyph glyph-name="e" unicode="e" horiz-adv-x="985" 
d="M481 500q-37 0 -73.5 -12.5t-66 -35t-50 -54t-25.5 -69.5l1 -4l10 -12l4 -2h404l4 2l10 11l1 3q0 43 -19.5 75.5t-50 54.5t-69 32.5t-75.5 10.5h-5zM82 239q0 42 4 81t18 77h-3l5 4q18 60 56 110.5t88.5 86.5t110.5 56t123 20q118 0 214 -55t154 -160q11 -21 22 -50.5
t11 -54.5v-155h-617q0 -47 16.5 -91t46.5 -78t71.5 -54t92.5 -20q68 0 120 16t89 68h168q-13 -63 -49.5 -111.5t-88.5 -81t-115 -49.5t-128 -17q-64 0 -124 19.5t-110 54.5t-88.5 85t-59.5 111v1q-17 45 -22 92t-5 95z" />
    <glyph glyph-name="f" unicode="f" horiz-adv-x="647" 
d="M40 551v124h165l4 2l10 11l1 3v10q0 2 0.5 5t0.5 6q2 54 6.5 106t23.5 105q78 208 301 208h9t19 0.5t22.5 1.5t19.5 2v-176q-12 5 -33 6.5t-45 1.5q-29 0 -55 -15t-45.5 -38t-31 -52t-11.5 -57v-114l1 -3l10 -11l4 -2h206v-124h-221v-770h-176l-1 770h-184z" />
    <glyph glyph-name="g" unicode="g" horiz-adv-x="924" 
d="M661 330q-5 39 -26.5 69.5t-52 51.5t-67 32t-70.5 11q-36 0 -70 -12.5t-62.5 -33.5t-50.5 -49.5t-35 -60.5q-9 -22 -12.5 -48t-3.5 -55q0 -34 4 -65.5t11 -56.5q10 -35 31.5 -64t50 -50t63 -32.5t70.5 -11.5q39 0 76.5 11t67.5 33t51.5 54t29.5 73v11q1 21 1.5 41.5
t0.5 40.5q0 29 -1.5 55t-5.5 56zM408 668q64 3 115.5 -24t94.5 -70q8 -10 17 -17.5t17 -7.5l4 1l10 10l1 4v104h174l3 -1021v-1q0 -68 -37 -129t-94.5 -108t-128 -74.5t-137.5 -27.5q-68 0 -133.5 21.5t-119 60.5t-91 93t-49.5 119h182q10 -32 33 -54.5t52.5 -37t63.5 -21
t67 -6.5h22q36 7 71 23.5t62.5 41.5t44 58t16.5 74l-1 202l-3 5l-18 7l-6 -2q-42 -51 -96 -81t-120 -30q-67 0 -128.5 24.5t-111.5 66.5t-85.5 98.5t-50.5 120.5l-1 3l-1 1q-3 7 -4.5 30t-1.5 82v100q0 69 32 134.5t84 116t118 81t134 30.5z" />
    <glyph glyph-name="h" unicode="h" horiz-adv-x="989" 
d="M280 558l4 -5l19 -5l5 2q32 55 88 84t117 29q64 0 125.5 -21.5t113 -59.5t89 -91t54.5 -116q10 -40 12 -75t2 -76v-442h-179v497q0 43 -19 81t-50.5 66.5t-71 45.5t-79.5 17q-39 0 -79.5 -15.5t-73.5 -42.5t-54 -64.5t-21 -82.5v-503l-179 1l-1 1364h178v-588z" />
    <glyph glyph-name="i" unicode="i" horiz-adv-x="407" 
d="M102 943q0 23 9 43t24 34.5t35.5 22.5t43.5 8t43.5 -8t36 -22.5t24.5 -34t9 -42.5t-9 -43.5t-24 -35.5t-35 -24t-43 -9q-24 0 -44.5 8.5t-36 23.5t-24.5 35.5t-9 43.5zM303 680l1 -899h-174v899h173z" />
    <glyph glyph-name="j" unicode="j" horiz-adv-x="551" 
d="M217 945q1 24 11.5 43.5t27 33.5t37.5 22t44 8q22 0 43 -8.5t36.5 -23.5t25 -35t9.5 -43q0 -24 -9 -43.5t-24.5 -34t-36 -22.5t-43.5 -8t-44.5 7.5t-38.5 21.5t-27.5 33.5t-10.5 43.5v5zM19 -689q-37 0 -71 5t-60 19q17 30 33.5 58t29 49t19.5 33.5l7 12.5q9 0 23 -2
t26 -2q38 0 74.5 12t66.5 34.5t51.5 54.5t30.5 71v3q-1 120 -1.5 246t-0.5 244q0 138 -0.5 268t-1.5 269h183v-988q-3 -80 -36.5 -150t-88.5 -123t-128.5 -83.5t-155.5 -30.5z" />
    <glyph glyph-name="k" unicode="k" horiz-adv-x="939" 
d="M274 1145l3 -775l3 -5l18 -8l6 3l401 469h171l-413 -517l-1 -3v-12l1 -3l407 -513h-183l-384 447l-6 2l-18 -7l-3 -5l-2 -437l-173 1l-1 1364z" />
    <glyph glyph-name="l" unicode="l" horiz-adv-x="375" 
d="M100 1146h175v-1365h-175v1365z" />
    <glyph glyph-name="m" unicode="m" horiz-adv-x="1516" 
d="M100 659h172v-125l3 -5l18 -6l6 2q42 59 93.5 94t126.5 35q42 0 83.5 -14t77.5 -38t65 -57t47 -71l5 -3l18 -1l4 3q21 37 47.5 70.5t59.5 59t72.5 40t85.5 14.5q68 0 126 -29.5t101.5 -77.5t70 -109t32.5 -125q1 -34 1.5 -67.5t0.5 -68.5v-399h-173v507q0 41 -16.5 77.5
t-44.5 64t-65.5 43.5t-78.5 16q-37 0 -72 -15t-62.5 -40.5t-44 -59.5t-16.5 -72v-520l-170 -1v524q0 39 -18.5 72t-47.5 57t-65 37.5t-72 13.5q-34 0 -69 -13t-63.5 -36t-47 -55.5t-18.5 -71.5v-528h-172v878z" />
    <glyph glyph-name="n" unicode="n" horiz-adv-x="999" 
d="M275 669v-104l4 -5l19 -5l5 3q31 54 83.5 82.5t114.5 28.5q78 0 146 -28t120.5 -76.5t86 -115t43.5 -143.5q1 -36 1.5 -74t0.5 -80v-371h-173l-2 523v3q-8 39 -29 73.5t-51.5 60t-68 40t-78.5 14.5q-40 0 -80 -16t-71.5 -43.5t-51 -65.5t-19.5 -82l-1 -507h-174v888h175z
" />
    <glyph glyph-name="o" unicode="o" horiz-adv-x="971" 
d="M704 339q-11 36 -33 65.5t-51 50.5t-64 32.5t-72 11.5q-59 0 -101.5 -23.5t-71 -61.5t-42 -86.5t-13.5 -99.5q0 -36 6 -69q6 -44 24 -81.5t46.5 -64.5t67 -42t85.5 -15q60 0 103.5 23t72.5 61.5t43 88.5t14 103q0 29 -3.5 55t-10.5 52zM80 227q0 48 6.5 95t23.5 92
q22 58 60 106t86.5 82t107 53t121.5 19q76 0 147 -28.5t126.5 -78t91 -117.5t40.5 -146q1 -8 1 -16v-16v-32q0 -44 -4 -87.5t-16 -90.5q-17 -61 -55.5 -112.5t-91.5 -89t-115 -58.5t-125 -21q-64 0 -123 19t-109 54.5t-88 86t-59 112.5q-14 42 -19.5 85t-5.5 89z" />
    <glyph glyph-name="q" unicode="q" horiz-adv-x="970" 
d="M690 330q-5 39 -26.5 69.5t-52 51.5t-67 32t-71.5 11q-36 0 -70 -12.5t-62.5 -33.5t-50 -49.5t-34.5 -60.5q-9 -22 -12.5 -48.5t-3.5 -55.5q0 -33 4 -64.5t11 -55.5q9 -36 30.5 -65.5t50 -50t63.5 -32t71 -11.5q39 0 76 11.5t68 33.5t52 54t29 73v11q1 21 1.5 41.5
t0.5 40.5q0 29 -1.5 54.5t-5.5 55.5zM437 669q52 0 98.5 -18t88.5 -53l11 -11q3 -3 6 -6.5t6 -6.5q8 -10 17 -17.5t17 -7.5l4 1l10 10l1 4v105h173l1 -1362h-174v575l-3 5l-18 7l-6 -2q-41 -50 -95.5 -81t-120.5 -31q-68 0 -129.5 25t-111 67.5t-85 99t-51.5 120.5l-5 4h2
q-1 4 -2 14.5t-1.5 34t-0.5 62.5v99q0 70 32 135t84 115t118 81t134 32z" />
    <glyph glyph-name="p" unicode="p" horiz-adv-x="1001" 
d="M497 495q-35 0 -71.5 -11t-67 -32t-52 -51.5t-26.5 -69.5q-5 -28 -6 -54t-1 -53q0 -22 0.5 -43t1.5 -43v-11q7 -41 28.5 -73t52.5 -54t68.5 -33t76.5 -11q36 0 70.5 11t63 32t49.5 50t31 65q7 25 11 56t4 65q0 29 -3.5 55.5t-12.5 48.5q-13 32 -34.5 60.5t-50 49.5
t-62.5 33.5t-70 12.5zM533 669q68 0 134 -30.5t118 -81t84 -116t32 -134.5q0 -62 -0.5 -100.5t-1.5 -62t-2 -34t-2 -16.5q-17 -64 -52.5 -121t-85 -100t-111 -68t-129.5 -25q-66 0 -120.5 31t-95.5 81l-6 2l-18 -7l-3 -5v-575h-174l1 1362h173v-105l3 -5l17 -7l6 1l14 14
l11 11l11 11q3 3 4.5 5.5t3.5 4.5q42 35 89.5 52.5t99.5 17.5z" />
    <glyph glyph-name="r" unicode="r" horiz-adv-x="767" 
d="M661 472q-74 -6 -143 -28t-122 -62.5t-85 -102t-32 -146.5v-352h-178l-1 896h180l-1 -243l4 -5l19 -5l5 2q33 55 77.5 98t96 73.5t109 49.5t117.5 27z" />
    <glyph glyph-name="s" unicode="s" horiz-adv-x="848" 
d="M61 71q19 0 45 0.5t53 1t51 0.5h40q9 -39 36.5 -67t64.5 -43.5t79 -18t79 9t65.5 37.5t38.5 67q0 20 -11.5 35t-28.5 27q-53 23 -109.5 34.5t-113 22t-111.5 25.5t-106 45q-31 21 -47.5 54t-20.5 70t5.5 74.5t31.5 66.5q25 40 59.5 70.5t75 51t86 31t92.5 10.5
q51 0 100.5 -12t93.5 -35.5t80.5 -58t62.5 -78.5q13 -24 24.5 -49.5t13.5 -54.5q-14 0 -38.5 -0.5t-52.5 -0.5h-53h-44q-9 40 -37 67.5t-65.5 43t-79.5 17t-79.5 -11t-66 -39.5t-37.5 -70q0 -22 15 -36.5t35 -22.5q53 -17 111 -28t115 -25.5t110 -38t95 -65.5
q22 -24 37 -52.5t23 -63.5q4 -63 -27.5 -115.5t-81.5 -89t-112 -56t-119 -17.5q-56 0 -109.5 14t-100 41.5t-83.5 67.5t-60 91l-15 35t-9 39z" />
    <glyph glyph-name="t" unicode="t" horiz-adv-x="749" 
d="M556 -219q-69 0 -119 26t-84 70t-52.5 101.5t-24.5 120.5q-1 63 -1.5 124.5t-0.5 124.5t-0.5 122t-2.5 125h-211v125h198l4 1l10 10l1 4v225l179 1v-224l1 -4l10 -10l4 -1h216v-127h-230l-1 -450q0 -46 10 -83t31.5 -63.5t56 -41t82.5 -14.5q21 0 33 2t23 4l1 -139
q-33 -11 -66 -20t-67 -9v0z" />
    <glyph glyph-name="u" unicode="u" horiz-adv-x="998" 
d="M723 -219l1 103l-3 5l-19 6l-6 -2q-31 -52 -83 -82t-112 -30h-4q-78 0 -146 28t-120 77t-85.5 115t-43.5 143q0 15 -0.5 31t-1 35t-0.5 42v52v365l173 -1l1 -522v-3q8 -39 29 -73t52 -59.5t68.5 -40t78.5 -14.5t80.5 16t71 43.5t50.5 65t19 81.5l1 506h174v-887h-175z
" />
    <glyph glyph-name="v" unicode="v" horiz-adv-x="1007" 
d="M302 -58q-31 25 -65.5 55t-63.5 60.5t-49 59.5t-21 52q-2 83 -2.5 129t-0.5 75v96q0 8 0.5 16t0.5 18v104q0 14 0.5 28t0.5 35h177l2 -406v-1q0 -23 13 -45.5t34 -44.5t47 -43.5t52 -42.5q5 -5 11 -9t11 -9q11 -9 22 -17.5t22 -19.5l4 -1h15l3 1q11 10 25 21l28 22
q5 4 9.5 7t9.5 7q27 21 53 41.5t46.5 42t33 43.5t12.5 46v164q0 8 -0.5 14.5t-0.5 13.5v216h176v-482q0 -19 -10 -42t-32.5 -51.5t-59 -65t-88.5 -82.5q-30 -24 -55 -43.5t-45 -35.5q-6 -5 -12 -9.5t-11 -8.5q-44 -33 -62.5 -47t-24.5 -19q-6 4 -19 14t-37 28.5t-60.5 46.5
t-88.5 69v0z" />
    <glyph glyph-name="w" unicode="w" horiz-adv-x="1532" 
d="M853 667q1 -14 1 -25v-33v-150q0 -15 0.5 -31t0.5 -32q0 -17 -0.5 -33t-0.5 -32v-207q13 -80 65.5 -123.5t128.5 -45.5h4q37 0 70.5 13t60 36.5t44 55t22.5 68.5v2l1 537h181q1 -63 1 -120v-122q0 -130 -3 -257q-1 -40 -8.5 -79.5t-23.5 -79.5q-20 -47 -53 -88.5
t-75 -72.5t-90.5 -48.5t-99.5 -17.5h-9q-53 1 -93.5 16t-74 39.5t-62.5 58.5t-58 75l-10 5h-14l-4 -1l-3 -3v-1q-29 -41 -58 -75.5t-62.5 -59.5t-74.5 -39.5t-95 -15.5h-6q-51 0 -100 18t-91.5 49t-75.5 72.5t-52 88.5q-32 79 -33 159q-3 129 -3 257v121q0 57 1 121h182
v-539q5 -37 22.5 -68.5t44 -55t60 -36.5t70.5 -13h4q77 2 129 45.5t65 122.5v424v51t0.5 33t1 21t0.5 15h173z" />
    <glyph glyph-name="x" unicode="x" horiz-adv-x="978" 
d="M278 206v16l-212 134v306h182v-212l6 -9l211 -129l12 1l192 129l4 8v212h186v-305l-224 -134v-17l225 -140v-284l-187 -1v196l-4 8l-201 149h-13l-202 -149l-5 -8v-196h-182v291z" />
    <glyph glyph-name="y" unicode="y" horiz-adv-x="969" 
d="M41 -473q34 -4 66 8.5t66.5 49t72.5 101t83 165.5l-284 810h188l206 -626l280 626h183q-92 -198 -163 -350t-125 -266.5t-92 -195.5t-64.5 -136t-43 -88.5t-26.5 -53.5t-15 -29.5t-9 -17.5q-22 -42 -59.5 -76t-82.5 -56t-92.5 -30.5t-88.5 0.5v165z" />
    <glyph glyph-name="z" unicode="z" horiz-adv-x="1028" 
d="M107 493l1 178h630q55 0 91.5 -11.5t58.5 -30t31 -41t9 -44.5q0 -26 -7 -47t-17 -32l-591 -479l-2 -6l6 -18l5 -3l599 2l-1 -183l-654 3q-46 1 -77.5 10t-51 24.5t-28.5 35.5t-9 43q0 26 9 54t24 55t35.5 51t43.5 42l471 371l2 6l-6 18l-5 3z" />
    <glyph glyph-name="A" unicode="A" horiz-adv-x="1016" 
d="M504 983q-48 0 -88 -21t-69 -50t-45 -59t-16 -47v-290l10 -10h423l10 10v291q0 23 -18 53.5t-48.5 57.5t-71.5 46t-87 19zM100 798q7 77 43.5 144.5t93 117.5t127.5 79t147 29q77 0 146.5 -27t124 -75.5t89.5 -115t43 -144.5q0 -91 0.5 -176.5t0.5 -171.5q0 -69 0.5 -137
t0.5 -137q0 -97 -0.5 -199t-1.5 -203l-185 -1v534l-10 10h-423l-10 -10v-531l-186 -1v1015z" />
    <glyph glyph-name="B" unicode="B" horiz-adv-x="1059" 
d="M286 540l9 -11q7 -1 19.5 -1.5t29.5 -0.5h72q39 0 73.5 1t51.5 2h1q40 3 75 22t60.5 48.5t40 66.5t14.5 78q-2 75 -31.5 118t-77 64.5t-107 27.5t-121.5 6h-101l-10 -10zM288 -20l9 -10q26 -4 55.5 -6.5t62.5 -2.5q60 0 123 10t115 35.5t85 69.5t35 112v6q0 70 -27 113.5
t-71.5 66.5t-102 31t-119.5 8q-29 0 -59.5 -1t-59.5 -3q-10 -1 -19 -1.5t-18 -0.5l-10 -10zM781 487q83 -53 130.5 -128t47.5 -175v-3q-1 -79 -32.5 -149t-84 -123.5t-122.5 -86t-148 -36.5l-472 -1l3 1364q108 0 187.5 -0.5t136.5 -2t95.5 -4t65 -5.5t44 -7.5t33.5 -10.5h1
q56 -21 102.5 -59t79.5 -87t51.5 -105.5t18.5 -113.5q0 -73 -32.5 -138.5t-104.5 -112.5v-16z" />
    <glyph glyph-name="C" unicode="C" horiz-adv-x="1015" 
d="M501 982q-43 0 -81 -16.5t-67 -44.5t-47.5 -65t-22.5 -78v-616q0 -18 15 -51t43.5 -65.5t69.5 -56t94 -23.5h7q37 0 73 13t65.5 35.5t50 54t28.5 69.5v1q3 22 5 50.5t2 54.5v5h179v-106q0 -22 -4 -46t-10 -43q-21 -62 -60.5 -112t-91.5 -85t-113.5 -54.5t-125.5 -19.5
q-83 0 -155.5 29.5t-127.5 81.5t-88.5 122.5t-38.5 151.5v592q0 23 1 45.5t7 45.5q16 69 53 127t89.5 100.5t117 66t136.5 23.5q69 0 130 -21t111.5 -58.5t88.5 -90.5t62 -116q11 -32 13.5 -66t2.5 -68v-24h-186q-1 2 -1 14q0 22 -1.5 38t-4.5 42v1q-9 37 -30 67t-50.5 51.5
t-65 33t-72.5 11.5z" />
    <glyph glyph-name="D" unicode="D" horiz-adv-x="1038" 
d="M907 515v-180q0 -88 -1 -178q-4 -69 -33 -128.5t-75.5 -106t-107 -78t-126.5 -42.5q-44 -8 -101 -10.5t-120 -2.5q-38 0 -75 0.5t-72 1.5q-29 1 -50 1.5t-46 0.5l1 1351q22 1 38 1h39q48 0 96.5 -0.5t96.5 -1.5q46 -1 90 -1.5t87 -0.5q70 -10 132 -42t110 -80.5
t78 -110.5t38 -132q1 -66 1 -131v-130zM719 778q-6 32 -23 64t-42.5 58t-58 42t-68.5 17h-232l-10 -10l1 -963l10 -11h39t58 1q29 0 55.5 0.5t37.5 0.5h2q48 0 89 13.5t71.5 40t49.5 64.5t23 88v163q0 108 -0.5 213t-1.5 217v2z" />
    <glyph glyph-name="E" unicode="E" horiz-adv-x="1003" 
d="M287 544l10 -11h536v-180h-536l-10 -10v-368l10 -10h606v-182h-803v1365h803v-180l-606 1l-10 -11v-414z" />
    <glyph glyph-name="F" unicode="F" horiz-adv-x="1005" 
d="M905 961h-610l-10 -10l1 -406l10 -11h539v-181h-540l-10 -10v-560h-185v1365h805v-187z" />
    <glyph glyph-name="G" unicode="G" horiz-adv-x="1013" 
d="M715 -105q-20 -22 -44 -42.5t-50 -36t-54 -24.5t-56 -9q-83 0 -155 29.5t-127 81.5t-89 122.5t-40 151.5v582q0 26 1 50.5t7 50.5q16 69 53.5 127.5t90 100.5t117 65.5t135.5 23.5q70 0 131 -21t111 -58.5t88.5 -90.5t62.5 -116q11 -34 13.5 -70t2.5 -72v-16h-185l-8 94
v1q-9 37 -30 67t-51 51.5t-65.5 33t-72.5 11.5q-44 0 -81.5 -16.5t-66 -44.5t-46.5 -65t-23 -78v-616q0 -19 14.5 -51t42 -63.5t67 -55.5t89.5 -26h1q46 3 84 23t65.5 52.5t42.5 73.5t15 86q0 11 -1 22.5t-3 22.5l-10 9h-102q-1 11 -1.5 26t-0.5 35v65h326v-598h-129
l-10 166l-3 6l-1 1l-7 3l-11 -13t-21 -27h-1q-5 -9 -9.5 -16t-6.5 -9z" />
    <glyph glyph-name="H" unicode="H" horiz-adv-x="1016" 
d="M298 366l-10 -10v-573h-187l-1 1366h188v-588l10 -10h419l10 10v588h189v-1367l-189 1v573l-10 10h-419z" />
    <glyph glyph-name="I" unicode="I" horiz-adv-x="428" 
d="M125 1148h183v-1365h-183v1365z" />
    <glyph glyph-name="J" unicode="J" horiz-adv-x="853" 
d="M289 167v-81q1 -30 13 -53.5t30.5 -39t42 -23.5t47.5 -8q26 0 51.5 9t45.5 27t32.5 44t12.5 61v1045h189v-1074q-2 -63 -30 -116.5t-73 -92.5t-103 -60.5t-118 -21.5h-7q-58 0 -114 17.5t-101 52t-74 86.5t-32 121v107h188z" />
    <glyph glyph-name="K" unicode="K" horiz-adv-x="1018" 
d="M697 1148h220l-401 -681v-11l402 -673h-226l-385 614l-18 -6v-608h-189v1365h188v-625l19 -5z" />
    <glyph glyph-name="L" unicode="L" horiz-adv-x="930" 
d="M287 1148v-1169l10 -10h561l2 -186h-760v1365h187z" />
    <glyph glyph-name="M" unicode="M" horiz-adv-x="1200" 
d="M911 1148h188l1 -1365h-185v746l-19 3l-276 -750l-53 -1l-263 751l-19 -3l1 -746h-186l1 1365h188l293 -855h18z" />
    <glyph glyph-name="N" unicode="N" horiz-adv-x="1038" 
d="M752 1149h186l-2 -1366h-188l-445 904l-19 -4l2 -901l-186 1v1366h190l442 -903l20 4v899z" />
    <glyph glyph-name="O" unicode="O" horiz-adv-x="1006" 
d="M285 184q3 -46 19 -85.5t43.5 -69t66 -46.5t86.5 -17q40 0 77.5 14t68 39.5t51 60.5t25.5 76v139q0 42 0.5 84.5t0.5 84.5v47q0 26 -0.5 51.5t-0.5 49.5v44v124q-2 38 -17.5 71.5t-41 60t-59 44t-70.5 23.5q-8 1 -15 1.5t-15 0.5q-45 0 -84 -16t-68 -43.5t-46 -65.5
t-19 -82q-2 -42 -3 -92.5t-1 -106.5v-52q0 -27 0.5 -55.5t0.5 -57.5v-53q1 -45 1 -89v-83v-1zM100 353q0 109 0.5 220.5t2.5 221.5q7 76 41.5 144t88.5 119t123.5 80.5t145.5 29.5q86 0 160 -33t128 -89.5t85 -132t31 -159.5v-309q0 -30 -0.5 -60.5t-0.5 -59.5v-172
q-5 -80 -40.5 -147.5t-91.5 -117t-127.5 -77.5t-148.5 -28q-82 0 -154 31.5t-126 85.5t-85.5 127t-31.5 156v170z" />
    <glyph glyph-name="P" unicode="P" horiz-adv-x="1000" 
d="M291 549l8 -10q14 -3 49 -3.5t73 -0.5q39 0 73 1.5t50 2.5h1q40 3 75 22t60.5 48t40 66t14.5 78q0 75 -29 118.5t-76.5 65.5t-107.5 28t-123 6h-98l-10 -11v-411zM323 1149q61 0 121 -0.5t123 -2.5q76 -11 140.5 -45t112 -86.5t74 -120.5t26.5 -146q0 -69 -23.5 -131
t-65 -112.5t-98 -87t-121.5 -55.5q-23 -7 -58.5 -9t-73.5 -2q-16 0 -31.5 0.5t-30.5 0.5q-16 0 -31 0.5t-29 0.5q-21 0 -37 -1t-24 -3l-7 -10q0 -23 0.5 -45.5t0.5 -45.5q0 -60 0.5 -119t0.5 -119t-0.5 -114t-1.5 -113h-190v670q0 54 0.5 107.5t0.5 106.5v482h222z" />
    <glyph glyph-name="Q" unicode="Q" horiz-adv-x="1031" 
d="M287 176q6 -42 24 -79.5t46 -65t65 -44t82 -16.5h19q9 0 19.5 1t20 3.5t15.5 6.5t6 11l-1 5q-15 30 -36 46.5t-44.5 25.5t-49.5 11.5t-51 3.5q0 2 -0.5 -2t-0.5 -2q0 13 16 21.5t37 13.5t41.5 7t30.5 2h4q43 0 75 -16.5t62 -46.5l1 -1l7 -3q8 0 17 14.5t16.5 33.5t12 37
t4.5 25q3 76 4 150t1 149q0 45 -0.5 100t-0.5 101q0 24 -0.5 48.5t-0.5 48.5q0 46 -17.5 86.5t-47.5 71t-70.5 48t-86.5 17.5h-5q-52 -2 -92.5 -22.5t-68 -54.5t-41.5 -78.5t-14 -93.5v-53q0 -24 0.5 -53t0.5 -61v-335v-35t1 -26zM684 -175q-5 -2 -8.5 -3t-7.5 -3
q-38 -14 -74.5 -24t-80.5 -11h-9q-84 0 -156 32t-126 87.5t-86 129t-34 156.5v1q-1 11 -1 28v40v220v36q0 20 -0.5 40t-0.5 38v34v167q4 78 38 145.5t87.5 118t122.5 80.5t145 32h10q77 0 146 -26t123 -72.5t90 -111t48 -141.5q1 -29 2 -78.5t1.5 -108t1 -121.5t0.5 -120
t-0.5 -106t-1.5 -81q-2 -48 -11.5 -94t-26 -87t-38.5 -74.5t-49 -55.5l-4 -8v-2l3 -7q14 -12 32 -17.5t36 -5.5h5q19 0 34.5 9t27 23t20 29.5t15.5 29.5l13 26q3 0 5.5 -9t3.5 -21t1.5 -23t0.5 -15v-9q0 -32 -9 -62t-26.5 -53t-43 -37.5t-59.5 -15.5q-24 0 -44.5 8t-37.5 21
t-32 30.5t-28 35.5l-1 1q1 -2 1 -6l-11 12h-2z" />
    <glyph glyph-name="R" unicode="R" horiz-adv-x="1032" 
d="M286 545l8 -11q13 -2 48 -2.5t75 -0.5q39 0 74 1t51 2h1q39 4 72.5 22.5t57.5 46.5t38 64t14 75v6q0 75 -28.5 118.5t-74.5 65t-105.5 27.5t-120.5 6h-100l-10 -10v-410zM847 -219q-15 0 -30 0.5t-29 1.5q-28 23 -43.5 53.5t-23 65.5t-9.5 72.5t-3 74.5q0 8 -0.5 15
t-0.5 14q-2 63 -7 110.5t-24.5 80.5t-59.5 52.5t-112 25.5h-117h-46q-11 0 -22.5 -0.5t-23.5 -1.5l-9 -10v-550h-187v1363q105 0 181 -0.5t129 -1.5t86.5 -2t54.5 -2.5t33.5 -3.5t22.5 -4q69 -17 128 -49.5t102.5 -79.5t68 -108t24.5 -134q0 -105 -55 -187
q-53 -83 -149 -126l-1 -18q63 -38 105 -92.5t46 -127.5v-1q2 -37 3 -72t3 -72l3 -66v-1q9 -63 20.5 -116t26.5 -101q-13 0 -19.5 -0.5t-20.5 -0.5q-11 0 -22.5 -0.5t-22.5 -0.5z" />
    <glyph glyph-name="S" unicode="S" horiz-adv-x="1020" 
d="M283 229v-20q0 -36 16 -78t46 -77.5t74 -59.5t100 -24q27 0 57 6q31 7 57 21.5t45.5 35.5t30.5 48t11 60q0 47 -20 79.5t-54 64.5l-1 1q-5 4 -17 12t-45.5 27t-96.5 53.5t-169 91.5q-43 22 -82.5 55.5t-69.5 74t-47.5 87.5t-17.5 97q0 79 34.5 149t91 122t129.5 82.5
t150 30.5q69 0 134.5 -23t119.5 -64t93 -97.5t56 -124.5q9 -37 10.5 -69.5t1.5 -64.5h-186v22q0 47 -17.5 90t-48.5 75.5t-73 51.5t-91 19q-35 0 -73 -14t-70.5 -38.5t-53.5 -57.5t-21 -71q0 -44 46 -101t154 -125l1 -1q11 -5 22 -11t22 -11q45 -23 91 -47t88.5 -51.5
t80 -59.5t65 -71t43.5 -85.5t16 -102.5q0 -81 -35 -146t-92 -111t-130 -70.5t-148 -24.5q-63 0 -123 19t-111 54t-90.5 84t-60.5 108l-8.5 25.5t-8 33.5t-6 49t-2.5 72h183z" />
    <glyph glyph-name="T" unicode="T" horiz-adv-x="996" 
d="M100 969v179h796v-178h-296l-10 -11v-1176h-185v1175l-10 11h-295z" />
    <glyph glyph-name="U" unicode="U" horiz-adv-x="1009" 
d="M100 1148h187q0 -85 -0.5 -162t-0.5 -160q0 -69 -0.5 -136.5t-0.5 -135.5q0 -97 0.5 -192.5t1.5 -193.5v-1q6 -42 24.5 -78t46.5 -63t64.5 -42t78.5 -15q43 0 83 15.5t71 43t50.5 65t20.5 82.5q1 94 1.5 193.5t0.5 202.5q0 72 -0.5 144t-0.5 142q0 80 -0.5 150.5
t-0.5 140.5h183v-675v-118q0 -57 -1 -113v-18q-1 -37 -3 -72t-13 -73q-18 -65 -55.5 -119.5t-89 -93.5t-114.5 -61t-130 -22q-78 0 -147.5 28t-123 77t-88.5 115.5t-44 142.5v1002z" />
    <glyph glyph-name="V" unicode="V" horiz-adv-x="1019" 
d="M304 -58q-32 26 -67 56.5t-64 61.5t-49 60.5t-22 53.5q-1 94 -1.5 186t-0.5 189q0 67 0.5 134.5t0.5 136.5q0 85 0.5 163t0.5 165h189v-879q0 -22 13.5 -45t35.5 -46t49 -45.5t54 -44.5q16 -13 30.5 -24.5t27.5 -22.5h14q14 14 32.5 28t38.5 28q27 20 53 40.5t46.5 42
t33 43t12.5 43.5v663q0 57 0.5 108t0.5 111h186l1 -955q0 -19 -11 -42.5t-34.5 -53t-60.5 -66.5t-90 -83q-80 -62 -124 -95.5t-66 -49.5q-5 -3 -8 -6t-6 -5q-6 -5 -9 -6q-5 4 -17.5 13t-36 27t-60.5 46t-92 70z" />
    <glyph glyph-name="W" unicode="W" horiz-adv-x="1359" 
d="M71 1146h177l169 -954l5 -4h21l5 4l230 954h34l237 -945l5 -4l20 1l5 4l122 944h177l-194 -1365h-175l-202 612l-5 3h-19l-5 -3l-198 -612h-173z" />
    <glyph glyph-name="X" unicode="X" horiz-adv-x="1012" 
d="M912 740q-11 -25 -27 -46.5t-36 -41t-42 -37t-44 -35.5q-30 -23 -58 -46.5t-51 -49.5v-12q24 -28 51.5 -51t56.5 -46q45 -35 86 -72.5t64 -88.5v-432h-188v349q-8 25 -22 46t-31.5 39t-37.5 34l-40 32q-21 17 -41.5 33t-37.5 35h-14q-17 -19 -37.5 -35t-41.5 -33
q-42 -32 -78.5 -67t-53.5 -86v-218q0 -35 0.5 -64.5t0.5 -64.5h-189l-1 431q22 51 64.5 89t89.5 73q29 23 57.5 46t51.5 50v13q-22 25 -51.5 49t-59.5 48l-46 36t-43 37.5t-36.5 41t-26.5 46.5l1 407h187l1 -318v-3q8 -26 22 -48t32 -40.5t38.5 -35.5t41.5 -33
q20 -16 40.5 -31.5t36.5 -34.5h15q18 20 37.5 36t39.5 31q42 32 79 67t53 87v248q0 20 -0.5 36.5t-0.5 38.5h189v-409z" />
    <glyph glyph-name="Y" unicode="Y" horiz-adv-x="1044" 
d="M617 -217l-189 1v655l-1 4l-347 705h35q20 0 43.5 0.5t45.5 0.5q32 0 56.5 -0.5t34.5 -0.5l223 -483h18l212 483h216l-348 -704l-1 -4z" />
    <glyph glyph-name="Z" unicode="Z" horiz-adv-x="894" 
d="M624 -199h-234q-115 0 -217 2q-53 7 -85.5 36t-32.5 84q0 43 14.5 85t36.5 79l558 886h-614v182h650q26 0 51.5 -9t46 -24.5t33.5 -37.5t13 -49q0 -26 -11 -50t-28 -46l-1 -1l-2 -3l-591 -951h620v-184h-149q-14 0 -28.5 0.5t-29.5 0.5zM176 -214v11h-4l-1 -11h5z
M802 934l6 -1l-6 2v-1z" />
    <glyph glyph-name="sf256.001" unicode="." horiz-adv-x="316" 
d="M32 -63q5 7 18 23.5t28 35t29 34.5t20 22q8 10 14 9.5t12 -5.5q36 -31 72.5 -59t60.5 -53q5 -5 4 -9.5t-6 -10.5q-22 -32 -46 -61t-47 -60q-10 -18 -27 -7q-13 7 -32.5 22t-39 32t-36.5 33.5t-25 27.5q-6 8 -5 13t6 13z" />
    <glyph glyph-name="sf308.001" unicode="?" horiz-adv-x="705" 
d="M267 846q-1 -14 -1.5 -29t-0.5 -30q0 -30 -3 -58q-24 1 -50 0.5t-51.5 -1.5t-49 -1.5t-41.5 0.5q1 1 1 13v14v28q0 42 3 84.5t21 78.5q21 51 59.5 86t86.5 54.5t101 22.5t103 -10q58 -15 99.5 -46.5t66.5 -73t34.5 -91.5t5 -101.5t-22.5 -103t-48 -96.5
q-32 -55 -68.5 -107t-68.5 -105.5t-56.5 -111t-32.5 -123.5q-1 1 -11 1h-12h-25h-50q-25 0 -48.5 1.5t-43.5 6.5q0 60 18 118.5t51 109.5q40 53 85 109t79.5 116.5t52.5 126.5t4 139q-12 32 -40.5 45t-59 9t-56 -23t-31.5 -52zM148 -90q-6 7 -4.5 12.5t6.5 14.5
q6 7 19.5 23.5t28.5 35t29 35t20 22.5q8 11 14 10.5t12 -5.5q37 -33 74.5 -61t61.5 -53q5 -6 4 -10.5t-5 -10.5q-23 -33 -47.5 -62.5t-48.5 -60.5q-10 -19 -27 -7q-14 7 -34 22t-40 32t-37 34t-26 29z" />
    <glyph glyph-name="sf333.001" unicode=";" horiz-adv-x="433" 
d="M338 397q-5 -7 -19 -24.5t-29.5 -36.5t-29.5 -35.5t-20 -22.5q-9 -11 -15 -10.5t-12 6.5q-38 32 -76 61t-63 55q-9 9 3 21q22 33 47 63t49 63q11 18 28 7q13 -7 33.5 -22.5t41 -33.5t38 -35.5t25.5 -28.5q6 -8 5.5 -13t-6.5 -14zM349 54q19 -53 11 -113t-33.5 -119.5
t-62.5 -115.5t-76 -102q-13 -12 -25.5 -19.5t-19.5 -7.5t-6.5 9.5t16.5 33.5q20 31 40 61.5t37 62t28 65t13 71.5q0 14 -3 32.5t-10 34.5t-19 26t-30 7q-9 -8 -18 -26.5t-18 -38t-19 -35t-21 -17.5q-10 0 -20.5 12t-19.5 28.5t-14.5 33.5t-5.5 26q0 24 15 53.5t33 64.5
q25 34 58.5 47.5t66.5 9t61 -26t42 -57.5z" />
    <glyph glyph-name="sf273.002" unicode="&#x60c;" horiz-adv-x="402" 
d="M82 -24q-12 37 -12 72q0 46 14.5 94t38 95t53.5 91t62 82q12 11 23.5 18t19.5 7q7 0 6 -9.5t-16 -32.5q-16 -24 -35.5 -55t-36 -65.5t-28.5 -70.5t-12.5 -68.5t13 -60.5t46.5 -47q9 7 17 25t16.5 37t17.5 34t21 17q15 -13 26 -34t14 -46.5t-3 -53.5t-25 -55
q-24 -33 -56 -46t-63.5 -8.5t-58.5 25t-42 55.5z" />
    <glyph glyph-name="zero" unicode="0" horiz-adv-x="1019" 
d="M100 236v104t0.5 112t1 108.5t0.5 93.5v69v34q2 84 34.5 157t88 127t129 84.5t157.5 30.5q79 0 151 -31t126.5 -84t87.5 -124t35 -152q0 -73 0.5 -129t1 -102t1 -86.5t1 -82t1 -89t0.5 -107.5q-1 -83 -35 -153.5t-90 -122t-129.5 -81t-152.5 -29.5q-84 0 -158.5 31
t-130 86t-88 129t-32.5 161v46zM417 -15q39 -19 91 -19q35 0 67.5 11t60.5 31t48.5 48t31.5 62q3 12 5.5 53t4.5 98.5t3 125.5t1 135q0 50 -0.5 96.5t-2 84t-3 63.5t-3.5 35l-1 3l-357 -794q24 -20 54 -33zM285 198q0 -30 6 -55l353 782q-29 21 -61 33q-33 13 -69 13
q-42 0 -83 -15.5t-73.5 -43t-53.5 -64.5t-24 -80v-1q0 -12 0.5 -46.5t1 -83t1 -107t1 -118t1 -115.5t0.5 -99z" />
    <glyph glyph-name="one" unicode="1" horiz-adv-x="682" 
d="M180 856q0 92 1 93l9 6l-1 -1q0 -1 3 1t5 4q9 5 17.5 11.5t11.5 9.5q42 40 68.5 80t35.5 92h182l-2 -1369h-182v1063l-10 10h-138z" />
    <glyph glyph-name="two" unicode="2" horiz-adv-x="1020" 
d="M859 542q-2 -4 -8.5 -12t-23.5 -28.5t-49 -57.5t-85.5 -97.5t-132.5 -149t-190 -212.5l7 -17l542 -6v-179l-819 2v191l582 642h1q23 26 36 60t13 69q0 46 -18.5 86t-50 70t-72 47.5t-84.5 17.5q-27 0 -49.5 -5t-42 -14.5t-37.5 -24.5t-37 -34q-17 -19 -28 -40.5t-17 -44
t-8 -45.5t-2 -45l-181 -2q0 7 -0.5 8.5t-0.5 8.5q0 88 29.5 165t82.5 133.5t126.5 89.5t161.5 35q112 0 206.5 -53t151.5 -148h1q29 -45 43 -98.5t14 -108.5q0 -56 -14.5 -108t-46.5 -95z" />
    <glyph glyph-name="three" unicode="3" horiz-adv-x="1009" 
d="M100 196v10q0 8 1 11l181 -1q0 -4 -0.5 -3t-0.5 -3q0 -47 16.5 -91t46 -77.5t70.5 -53.5t91 -20q38 0 73.5 16.5t64.5 43.5t49 61t28 69q7 29 7 62q0 45 -16.5 79t-45 58.5t-68.5 39t-86 20.5h-3q-7 1 -13 1.5t-12 0.5h-11v89q43 9 88.5 29.5t83 52t61.5 73t24 92.5
q0 37 -12 73t-34 64.5t-54.5 46t-72.5 17.5q-66 0 -113 -38t-67 -98q-9 -27 -12 -52.5t-4 -48.5h-175v62q0 17 2 34t6 36q14 66 49 120t85 91.5t111.5 58t128.5 20.5q73 0 134.5 -24.5t106.5 -69t70.5 -106t25.5 -135.5q0 -96 -39 -167t-111 -134l-3 -8v-1q38 -26 67.5 -53
t49.5 -59.5t30.5 -71t10.5 -86.5q0 -84 -31.5 -163.5t-87 -142t-130 -100t-160.5 -37.5q-77 0 -148 29.5t-126 80.5t-89 119.5t-37 146.5v37z" />
    <glyph glyph-name="four" unicode="4" horiz-adv-x="1004" 
d="M540 280l10 10l-2 642l-20 3l-229 -642l9 -13h232zM914 279v-154h-164l-11 -10v-332h-188l-1 333l-10 10h-440v167l346 858h293v-862l11 -10h164z" />
    <glyph glyph-name="five" unicode="5" horiz-adv-x="1014" 
d="M290 129q25 -72 80 -116.5t135 -44.5q42 0 81.5 16.5t69.5 45.5t48.5 68t18.5 83q0 59 -1.5 94.5t-3.5 56t-4.5 30t-4.5 17.5h-1q-11 31 -32 56.5t-48.5 43.5t-59.5 27.5t-63 9.5q-70 0 -130 -31t-98 -87h-173l1 745h732v-182l-540 1l-10 -10v-296l14 -9q51 23 99.5 39
t103.5 16q64 0 125 -20t112 -56t89.5 -86.5t58.5 -111.5q14 -42 19.5 -81t5.5 -80q0 -27 -2 -54t-4 -58q-5 -79 -40 -147t-90 -118t-126 -78.5t-147 -28.5q-63 0 -123 17t-111 49.5t-90.5 80t-61.5 107.5q-8 23 -13.5 46.5t-5.5 45.5h190z" />
    <glyph glyph-name="six" unicode="6" horiz-adv-x="1024" 
d="M292 189q0 -47 17 -87.5t46.5 -70.5t69.5 -47.5t87 -17.5q46 0 86.5 17t70.5 47t47.5 70t17.5 86t-17.5 86t-47.5 69.5t-71 46t-87 16.5q-44 0 -83.5 -14t-69.5 -40.5t-48 -65.5t-18 -89v-6zM105 171v34q0 23 -0.5 51.5t-1 61.5t-0.5 68t-0.5 68.5t-1 63t-1 52t-0.5 34.5
q0 62 3 119t15 117q15 69 52.5 126.5t90.5 99t118.5 64.5t134.5 23q90 0 165.5 -32.5t130 -89t84.5 -132.5t30 -164q0 -7 -0.5 -8t-0.5 -8l-185 1q-1 23 -2.5 44t-6.5 41v1q-10 36 -31 66.5t-49.5 52.5t-63.5 34t-73 12q-41 0 -80.5 -17.5t-70.5 -47t-49.5 -67.5t-18.5 -80
q0 -32 -0.5 -63t-0.5 -61v-123l17 -7q45 47 101 65.5t119 18.5q85 0 156.5 -31.5t123.5 -86t81 -128t29 -156.5q0 -85 -31 -159.5t-86 -129.5t-129 -86.5t-160 -31.5q-62 0 -122.5 18.5t-111.5 52.5t-90 82.5t-59 109.5h-1q-11 31 -16.5 62t-7.5 66z" />
    <glyph glyph-name="seven" unicode="7" horiz-adv-x="949" 
d="M883 1138l-64 -198l-491 -1140h-210l520 1138l-9 14h-325l-9 -7l-19 -70h-176l1 263h782z" />
    <glyph glyph-name="eight" unicode="8" horiz-adv-x="1021" 
d="M500 389q-42 0 -80.5 -13t-67.5 -38t-46 -60t-17 -78v-13q2 -48 19 -88t46 -69t69 -45.5t87 -16.5q49 0 90 18.5t70 50.5t45 74t16 89q0 48 -17.5 84t-47.5 59t-70 34.5t-85 11.5h-11zM290 766q0 -36 21.5 -81t54.5 -85.5t73 -68t77 -27.5h1q20 0 43 13t46.5 33.5t45 47
t38 53.5t26.5 52t10 43v1q0 44 -16.5 84.5t-45.5 71.5t-68.5 49.5t-85.5 18.5q-41 0 -80.5 -15.5t-70.5 -43.5t-50 -65.5t-19 -80.5zM100 192q0 39 6.5 76.5t24.5 71.5t49.5 64t81.5 55l1 18q-89 62 -126 130t-37 148q0 82 32.5 154.5t88 127t129 86t155.5 31.5
q81 0 155 -31t130.5 -84t90 -125.5t33.5 -154.5q0 -88 -44.5 -161.5t-116.5 -122.5l2 -18q77 -37 121.5 -99t44.5 -153q0 -87 -30 -164t-84 -134t-129 -90.5t-164 -33.5q-83 0 -157.5 32.5t-131 88t-90 130t-35.5 158.5z" />
    <glyph glyph-name="nine" unicode="9" horiz-adv-x="1021" 
d="M731 748q0 46 -17 86.5t-46.5 71t-70 48.5t-87.5 18q-45 0 -85 -17.5t-70 -48t-47.5 -70.5t-17.5 -85q0 -47 17 -87.5t47 -69.5t70 -45.5t87 -16.5q45 0 85 14t70 41t47.5 66t17.5 89v6zM919 549q0 -24 0.5 -46.5t0.5 -44.5q0 -26 0.5 -49.5t0.5 -41.5v-68
q-1 -52 -3 -101t-13 -102q-15 -69 -52.5 -126.5t-90.5 -99t-118 -64.5t-135 -23q-90 0 -165 33t-129.5 90t-84.5 134t-30 164v12l184 -1q1 -20 2.5 -40t7.5 -44v-1q10 -36 31.5 -66t50 -52t63 -34t72.5 -12q41 0 80.5 17.5t70 46.5t49.5 67.5t19 80.5q1 32 1 62v61v61t1 62
l-17 7q-44 -45 -99.5 -64.5t-115.5 -19.5h-5q-84 0 -155 31t-123.5 84.5t-82 125.5t-29.5 155v6q0 85 31.5 159t86 129t128.5 87t159 32q64 0 124 -18.5t111 -53t90 -83.5t61 -109q11 -30 15.5 -61.5t7.5 -65.5v-216z" />
    <glyph glyph-name="sf261.001" unicode="&#x3c;" horiz-adv-x="795" 
d="M743 -1l-743 461l741 461v-156l-490 -300l494 -303z" />
    <glyph glyph-name="sf261.002" unicode="&#x3e;" horiz-adv-x="795" 
d="M49 161l494 303l-490 300v156l741 -461l-743 -461z" />
    <glyph glyph-name="a.001" horiz-adv-x="255" 
 />
    <glyph glyph-name="sf257.001" unicode="&#x651;" 
d="M-169 38q-1 23 -0.5 46.5t1.5 46.5q17 29 24 56q3 7 6.5 6.5t3.5 -7.5v-5q0 -3 0.5 -14.5t0.5 -33.5v-60q0 -29 16 -52.5t47 -23.5q17 0 29.5 7.5t14.5 25.5q1 24 -2 48.5t-1 46.5q0 21 8 51t16 49q5 12 7.5 9t4.5 -11q3 -20 5.5 -43.5t5.5 -47t7.5 -45.5t12.5 -39
q6 -17 24.5 -27.5t37.5 -10.5q14 0 26 6q-3 23 -6 47t-5 47q-3 10 -1 21.5t6 24t9.5 25t9.5 23.5q2 3 4 8.5t4.5 8.5t4.5 1.5t3 -12.5q1 -28 3 -48t4 -38t5 -37.5t6 -46.5q0 -1 -0.5 -3l-2.5 -10t-7 -23.5t-14 -43.5q-6 -17 -26 -26.5t-37 -9.5q-42 0 -61.5 20.5t-29.5 55.5
q-5 -14 -11 -31t-14.5 -31t-21 -23.5t-30.5 -9.5q-27 0 -44 13t-26.5 32.5t-13 43t-3.5 44.5z" />
    <glyph glyph-name="sf258.002" unicode="&#x650;" 
d="M206 61q-38 -20 -91 -46t-112.5 -54.5t-122 -57t-119.5 -54.5q-8 -4 -12 -0.5t1 11.5q13 26 28 52t32 48l90 40t114 52t120 56.5t108 53.5q10 1 10 -3q0 -9 -1 -10q-2 -3 -12.5 -23t-32.5 -65z" />
    <glyph glyph-name="sf256.003" unicode="&#x64f;" 
d="M173 52q9 -7 21.5 -16t14.5 -23q-8 -17 -14 -36t-17 -37q-5 -11 -15 -3q-4 5 -17.5 17t-18.5 17q-29 -35 -64.5 -61t-75 -45t-82 -33.5t-85.5 -27.5q-7 -2 -15 -3t-11 0.5t0.5 5.5t19.5 13q71 45 141 86t130 92q-15 11 -30 23.5t-30 23.5q-20 15 -30 37t-8 46q0 1 1 4
t4 11t9.5 23.5t18.5 42.5q7 15 21.5 29t31 23.5t34 13.5t31.5 1q37 -7 53.5 -31.5t18 -57t-9 -69t-27.5 -66.5zM34 165q19 -32 52.5 -56t64.5 -42q3 17 2.5 37.5t-6 39t-18 31.5t-33.5 15q-17 2 -35 -3t-27 -22z" />
    <glyph glyph-name="sf258.003" unicode="&#x64e;" 
d="M199 57q-38 -20 -91 -46t-112.5 -54.5t-122 -57t-119.5 -54.5q-8 -4 -12 -0.5t1 11.5q13 26 28 52t32 48l90 40t114 52t120 56.5t108 53.5q10 1 10 -3q0 -9 -1 -10q-2 -3 -12.5 -23t-32.5 -65z" />
    <glyph glyph-name="afii57453" unicode="&#x64b;" 
d="M-217 -74q-13 -5 -8 9q10 20 21.5 38.5t24.5 36.5q10 4 41 17.5t79 35.5t112.5 52.5t141.5 68.5q10 4 5 -10q-1 -2 -8.5 -18t-24.5 -49q-7 -5 -29 -16t-66.5 -32t-115 -53.5t-173.5 -79.5zM-213 -182q-15 -6 -9 10q10 21 21.5 39.5t24.5 34.5q10 4 41 17.5t79.5 35.5
t112.5 52.5t141 68.5q7 3 7 -7l-35 -69q-7 -5 -29 -16t-66.5 -32t-114.5 -53.5t-173 -80.5z" />
    <glyph glyph-name="afii57451" unicode="&#x64d;" 
d="M-211 -77q-13 -5 -8 9q10 20 21.5 38.5t24.5 36.5q10 4 41 17.5t79 35.5t112.5 52.5t141.5 68.5q10 3 5 -10q-1 -2 -8.5 -18t-24.5 -49q-7 -5 -29 -16t-66.5 -32t-115 -53.5t-173.5 -79.5zM-207 -185q-15 -6 -9 10q10 21 21.5 39.5t24.5 34.5q10 4 41 17.5t79.5 35.5
t112.5 52.5t141 68.5q7 3 7 -7l-35 -69q-7 -5 -29 -16t-66.5 -32t-114.5 -53.5t-173 -80.5z" />
    <glyph glyph-name="bar" unicode="|" horiz-adv-x="266" 
d="M70 1373h126v-1809h-126v1809z" />
    <glyph glyph-name="sf438.001" unicode="&#x652;" 
d="M-166 -147q-4 -1 -11 -2t-13 -1q-5 0 -5.5 3.5t9.5 12.5q84 54 133.5 85.5t76 48t34.5 22t9 8.5q-14 2 -28.5 4t-29.5 4q-28 3 -55.5 3.5t-53.5 -7.5q-8 -3 -14.5 -6t-11 -3.5t-6.5 3t0 14.5q7 20 14 38t14 37q4 10 13.5 15.5t21.5 8.5t25 4t25 1q33 0 69.5 -2t70.5 -5
q15 0 25 -9t0 -28q-18 -42 -43.5 -75t-53.5 -69q-23 -23 -42 -39.5t-49 -26.5q-28 -10 -63 -19.5t-61 -19.5z" />
    <glyph glyph-name="sf258.004" 
d="M10 -120q5 9 17.5 25t20.5 26q3 5 8.5 8.5t12.5 -1.5q4 -3 12.5 -9.5t17.5 -14t16.5 -15.5t10.5 -14q0 -2 -1 -3.5t-6 -7.5t-15.5 -19t-29.5 -38q-16 16 -32.5 31.5t-31.5 31.5zM-257 113q0 4 0.5 9.5t2.5 12.5q1 2 3 9t5 15.5t5 16t3 10.5q2 5 6.5 3.5t8.5 -6.5
q11 -18 24 -36.5t28 -34t33 -26.5t41 -15h21q18 0 50 7t91 33q-20 13 -41 23.5t-43 15t-44 1.5t-43 -16l-2 -2q-1 0 -1 2q0 13 3.5 25.5t8.5 25.5q11 28 24 41t45 13q7 0 17.5 -1t25 -5t35 -12t48.5 -21q18 -9 35.5 -20t37.5 -21.5t43 -19t52 -13.5q10 -4 8.5 -14.5
t-8.5 -22t-15 -22.5t-10 -16q-23 -2 -43.5 1t-43.5 3q-36 0 -71 -13.5t-70.5 -28t-71.5 -24.5t-73 -3q4 -30 6.5 -62t2.5 -63q0 -32 -5 -62t-17 -56q-2 -5 -6 -8t-4 5q2 75 -9.5 149t-46.5 143q-13 20 -24.5 39t-21.5 41z" />
    <glyph glyph-name="sf259.002" unicode="&#x611;" 
d="M-146 -258q-2 75 -11 148t-33 133q-8 17 -16 32.5t-12.5 32t-2.5 36t15 45.5q6 15 10.5 8t8.5 -18q7 -14 16.5 -31t22 -31.5t28 -24.5t35.5 -10q-5 32 0.5 64t21.5 58t41.5 42t60.5 16q21 0 39.5 -2t35.5 -9t34 -21t34 -37q-22 -2 -51 0t-55 2q-8 0 -15.5 -0.5
t-13.5 -1.5q-11 -1 -26 -3.5t-29 -8.5t-24 -16t-10 -25q0 -13 9.5 -25t23 -21.5t29 -15.5t26.5 -6q25 0 47 8t43 21q17 12 34.5 25.5t33.5 28.5q4 3 6 2.5t0 -6.5q-4 -30 -21.5 -57.5t-39.5 -47.5q-26 -23 -58 -39t-67 -24t-71 -7t-70 13q0 -29 1 -58t-1 -58t-8.5 -57
t-20.5 -54z" />
    <glyph glyph-name="sf260.001" unicode="&#x610;" 
d="M-17 98q-15 -14 -29 -29.5t-29 -32.5q7 -4 27 -4q22 0 54 3.5t61.5 8.5t51.5 10.5t25 10.5q-9 24 -28.5 39t-43 20t-47.5 -1t-42 -25zM-218 149q9 -14 19 -30t23 -31t27.5 -27.5t32.5 -18.5q15 15 35 42t46 54t57 47t69 21q22 0 42.5 -9t36.5 -24.5t25.5 -35.5t9.5 -42
q-5 -34 -21.5 -66t-49.5 -46q-67 -26 -139.5 -32.5t-144.5 11.5q-3 -26 -4.5 -52t-4 -51.5t-8 -50.5t-16.5 -50q-3 -8 -5 -6t0 7q1 52 0.5 93t-6 76.5t-16 68.5t-29.5 70q5 21 8 43t13 39z" />
    <glyph glyph-name="sf260.001" unicode="&#x6d6;" 
d="M-17 98q-15 -14 -29 -29.5t-29 -32.5q7 -4 27 -4q22 0 54 3.5t61.5 8.5t51.5 10.5t25 10.5q-9 24 -28.5 39t-43 20t-47.5 -1t-42 -25zM-218 149q9 -14 19 -30t23 -31t27.5 -27.5t32.5 -18.5q15 15 35 42t46 54t57 47t69 21q22 0 42.5 -9t36.5 -24.5t25.5 -35.5t9.5 -42
q-5 -34 -21.5 -66t-49.5 -46q-67 -26 -139.5 -32.5t-144.5 11.5q-3 -26 -4.5 -52t-4 -51.5t-8 -50.5t-16.5 -50q-3 -8 -5 -6t0 7q1 52 0.5 93t-6 76.5t-16 68.5t-29.5 70q5 21 8 43t13 39z" />
    <glyph glyph-name="sf277.007" unicode="&#x603;" horiz-adv-x="1342" 
d="M1085 179q-45 0 -95.5 -30t-110.5 -87q79 -11 159.5 -0.5t158.5 33.5q-9 15 -20 30.5t-25 27.5t-30.5 19.5t-36.5 6.5zM84 -6q68 6 137 9.5t137.5 9t136.5 16.5t134 32q38 13 61.5 34.5t35.5 38.5q5 6 10 6.5t3 -9.5q-3 -17 7 -28.5t26.5 -19t34.5 -11.5t32 -7
q33 44 71 82t77.5 65t79.5 39.5t77 6t69.5 -35t57.5 -84.5q-8 -23 -16 -44.5t-16 -43.5q-2 -6 -12.5 -14t-16.5 -10q-95 -41 -199.5 -50.5t-209.5 0.5q-8 -12 -17 -23.5t-17 -23.5q-6 -10 -12 -10q-5 0 -1 16q5 12 14 25t14 23q-29 8 -50.5 25t-26.5 40q-12 -26 -31.5 -44
t-43.5 -30t-50.5 -19t-52.5 -10q-112 -12 -222.5 -7.5t-219.5 40.5q-11 5 -14.5 9.5t13.5 6.5z" />
    <glyph glyph-name="sf263.002" unicode="&#x670;" 
d="M-84 126q5 19 11.5 35t17.5 42q7 15 20 2q30 -29 45 -78.5t17.5 -103.5t-7 -105.5t-27.5 -85.5q-8 -14 -12 -15.5t-1 17.5q5 39 6.5 77.5t-4.5 75.5t-21.5 72t-44.5 67z" />
    <glyph glyph-name="sf264.002" unicode="&#x66b;" horiz-adv-x="268" 
d="M121 318q-17 0 -21 -9t-10 -23q-3 -8 -9 -17.5t-15 -0.5q-11 14 -13.5 30.5t-2.5 32.5t4.5 36t13.5 37.5t23 29t34 11.5q25 0 42.5 -13t28.5 -32.5t16.5 -43t5.5 -43.5q-4 -85 -38 -161.5t-94 -136.5q-15 -15 -22 -12.5t7 23.5q16 27 32 54.5t29 56.5t21 59.5t8 62.5
q0 21 -7 40t-33 19z" />
    <glyph glyph-name="sf266.001" unicode="&#x22;" horiz-adv-x="542" 
d="M289 1403q38 7 75.5 6.5t77.5 -0.5l-26 -359l-103 16zM100 1395q13 2 32.5 3.5t41 2.5t42.5 1.5t37 0.5l-26 -340q-45 -11 -69 -15t-29 -4q-1 0 -1 1q-3 26 -5.5 54.5t-5.5 68t-7 94t-10 133.5z" />
    <glyph glyph-name="sf267" unicode="&#x614;" 
d="M-469 45q66 1 130 0t126.5 1.5t124 10t121.5 25.5q35 13 60.5 30t51.5 44q4 4 4 0q-2 -21 10 -38t32.5 -28t46 -14.5t49.5 1.5q5 2 5.5 4t0.5 6q0 9 -3.5 17.5l-7 17t-7 16.5t-3.5 14q5 20 15.5 35.5t19.5 33.5q4 7 7.5 4.5t5.5 -7.5q10 -33 18 -58.5t10 -59.5
q-6 -26 -11.5 -47t-16 -36t-28 -23t-47.5 -8q-49 0 -80.5 21.5t-42.5 72.5q-11 -20 -25.5 -37t-37.5 -28q-60 -28 -128 -38.5t-138.5 -7.5t-140.5 19t-133 41q-13 6 -9 10.5t21 5.5z" />
    <glyph glyph-name="sf268.004" unicode="&#x600;" horiz-adv-x="1134" 
d="M353 212q55 78 125 136.5t151 82.5q9 4 12 1t3 -9t-2.5 -13t-4.5 -10q-22 -26 -53.5 -61.5t-63 -74.5t-59 -79t-41.5 -76q-19 -46 -7.5 -86.5t43.5 -75.5t78 -63.5t96 -50t98 -35.5t84 -20q14 -2 16.5 -7t0.5 -12t-6.5 -14.5t-4.5 -14.5q-19 -23 -33.5 -35t-28 -22
t-28 -22t-33.5 -34q-3 -8 -7.5 -12.5t-19.5 -4.5q-44 7 -93.5 22t-101.5 27.5t-104 16.5t-101 -11q-149 -46 -283 -78.5t-260 -52.5t-247 -29.5t-245 -9.5q-126 0 -254 8t-273 22q-101 9 -192 19t-179.5 25t-178.5 38.5t-188 59.5q-68 25 -101 39t-31 21t40 8.5t112 0.5
q142 -3 266.5 -5.5t236 -5t212.5 -3.5t196 -1q105 0 206 2t202.5 7.5t207.5 13.5t222.5 20.5t245.5 29.5t277 39q-3 48 1 100t15.5 103.5t30.5 99t46 86.5z" />
    <glyph glyph-name="sf275.001" unicode="&#x60f;" horiz-adv-x="786" 
d="M580 122q-53 -2 -97 -26.5t-81.5 -60.5t-68.5 -79t-58 -82q56 -41 118 -39t119.5 30.5t105 75.5t74.5 97q0 22 -11 38t-27.5 26.5t-36 15.5t-37.5 4zM178 -216q-34 62 -41.5 130.5t5.5 137t42 133t67 118.5q5 5 0 5q-19 16 -38 33.5t-19 42.5q0 16 5 28.5t12.5 23.5
t16.5 22t17 24q12 18 24.5 39.5t28.5 40t36 31t46 12.5q10 0 23 -3t23.5 -9t16.5 -14.5t3 -18.5q-3 -27 -14 -33t-25 -2.5t-28 11t-24 7.5q-21 0 -46 -16q-25 -15 -25 -41q0 -17 13 -29.5t31.5 -20t38 -9.5t33.5 2q30 17 59 31t58 29q18 11 21.5 8.5t-1 -10.5t-14.5 -19
t-20 -18q-24 -18 -47 -35l-46 -34q-65 -44 -117 -95.5t-79.5 -111t-25 -126t46.5 -141.5q33 53 73 113t87.5 110.5t103.5 83t121 31.5q25 0 46 -11.5t36.5 -30t24.5 -42t9 -47.5q-5 -58 -30 -119.5t-64 -116.5t-90.5 -98.5t-109 -64t-119 -13.5t-121.5 52q-23 -42 -47 -82.5
t-48 -85.5q-9 -16 -23 -32t-34 -17q9 19 24 48.5t32.5 63.5t36 69t35.5 66z" />
    <glyph glyph-name="sf273.003" unicode="&#x64c;" 
d="M4 -79q-15 10 -24 25t-9 33q0 1 0.5 3t2 8.5t5 18t9.5 32.5q5 12 14.5 22.5t20.5 19t23 13t23 3.5q28 -2 42 -19t17.5 -41t-1.5 -51.5t-16 -50.5q9 -4 18.5 -10t11.5 -15q-5 -14 -8 -28t-9 -29q-3 -8 -11 -2q-3 2 -14 10t-14 12q-55 -69 -137.5 -117.5t-176.5 -78.5
q-6 -1 -11.5 -1.5t-8 0.5t0 4t14.5 9q94 58 170 107t115 93q-11 7 -23 15t-24 15zM2 9q16 -22 42 -36.5t50 -26.5q2 13 0 28t-8 28t-16 22t-25 9q-12 0 -25 -5.5t-18 -18.5zM-183 7q-9 -11 -9 -19q0 -5 1 -11.5t4 -17.5q21 -30 54 -30.5t68 22.5q3 2 6.5 2.5t2.5 -4.5
q-1 -19 -10.5 -34.5t-24 -26.5t-32.5 -16.5t-37 -4.5q-38 11 -50 36.5t-9.5 55t15 57.5t23.5 43q16 26 44 53t63 52t73.5 46.5t75 36.5t68.5 21.5t53 1.5q24 -7 34.5 -22t12 -34.5t-4 -41t-15 -41.5t-20.5 -36.5t-20 -25.5q-5 -3 -10 -6.5t-8 -4.5t-2 1.5t8 11.5
q16 22 26.5 46.5t9.5 45.5t-16 34.5t-49 13.5q-29 3 -72 -14t-89.5 -46.5t-90 -67t-73.5 -76.5z" />
    <glyph glyph-name="sf271.003" unicode="&#x602;" horiz-adv-x="984" 
d="M117 115q0 -22 13.5 -35.5t32.5 -21.5t40.5 -11.5t36.5 -4.5q0 17 -5 38t-14.5 39.5t-24 31t-32.5 12.5q-20 0 -33.5 -15t-13.5 -33zM72 72q-2 28 11.5 63.5t36.5 62.5t53.5 37t62.5 -13q28 -22 37.5 -59.5t9.5 -76.5q0 -14 -0.5 -26t-1.5 -23q64 -8 144 -7.5t163.5 5.5
t164.5 14t147 18q16 2 12.5 -6t-13.5 -12q-25 -19 -68 -35t-97 -28t-116 -21t-125.5 -13.5t-125 -5t-113.5 3.5q-27 3 -59 9.5t-59 20t-45.5 35.5t-18.5 57z" />
    <glyph glyph-name="sf271.003" unicode="&#x60e;" horiz-adv-x="984" 
d="M117 115q0 -22 13.5 -35.5t32.5 -21.5t40.5 -11.5t36.5 -4.5q0 17 -5 38t-14.5 39.5t-24 31t-32.5 12.5q-20 0 -33.5 -15t-13.5 -33zM72 72q-2 28 11.5 63.5t36.5 62.5t53.5 37t62.5 -13q28 -22 37.5 -59.5t9.5 -76.5q0 -14 -0.5 -26t-1.5 -23q64 -8 144 -7.5t163.5 5.5
t164.5 14t147 18q16 2 12.5 -6t-13.5 -12q-25 -19 -68 -35t-97 -28t-116 -21t-125.5 -13.5t-125 -5t-113.5 3.5q-27 3 -59 9.5t-59 20t-45.5 35.5t-18.5 57z" />
    <glyph glyph-name="sf261.003" unicode="&#x613;" 
d="M-174 346q6 15 20 30.5t25 27.5q2 2 3.5 3t2.5 2q1 0 9 -5q12 -9 30.5 -24t27.5 -28q-14 -17 -27.5 -34.5t-27.5 -33.5q-14 14 -29 28t-34 34zM-132 78q22 0 46.5 0.5t47.5 2.5t43 5t34 8q8 8 4 14q-23 45 -56.5 52t-75.5 -35l-8.5 -8.5l-14 -14t-13.5 -14.5t-7 -10z
M-88 -115q43 13 72.5 22t49 15.5t30.5 10.5t17 7q13 6 29.5 15.5t31 20.5t25.5 25t14 29q1 22 -4 41.5t-11.5 34t-12 24.5t-5.5 14q1 8 4.5 20.5t7.5 24.5t8 21.5t7 11.5q14 -8 23 -23.5t14 -34t7 -37t2 -31.5q0 -60 -24.5 -114t-72.5 -90q-51 -19 -102.5 -20.5t-105.5 5.5
q-3 0 -6 3t2 5zM-312 88q11 38 16.5 53.5t8.5 24.5q17 -17 32.5 -38t35.5 -34q20 -15 36.5 -8t31.5 24q13 17 28.5 40t35 43.5t43 35.5t53.5 17q19 0 36.5 -10t31 -25.5t22 -35t8.5 -38.5q-3 -17 -7 -35.5t-12.5 -35.5t-24.5 -31t-43 -21q-15 -6 -42.5 -12t-60 -9.5
t-66.5 -2.5t-63 9q8 -51 0.5 -105.5t-28.5 -102.5q2 81 -13.5 154.5t-58.5 142.5z" />
    <glyph glyph-name="sf272.001" unicode="&#x612;" 
d="M-111 -146q-4 0 -11.5 4t1.5 8q38 11 75 22.5t75 22.5q17 5 38 15.5t39 24.5t30 31.5t11 37.5q-1 28 -10.5 50.5t-23.5 47.5q3 17 8.5 32.5t12.5 32.5q4 8 6 9.5t10 -3.5q22 -22 29.5 -53t7.5 -61q0 -60 -25.5 -116t-73.5 -92q-49 -17 -98.5 -16t-100.5 3zM43 59
q-48 -11 -92.5 -26t-83 -41t-70 -68t-54.5 -108q-4 -7 -6 -8.5t-1 10.5q2 78 39 144.5t98 111.5q-23 10 -51 10.5t-51 -10.5q-8 -5 -10.5 -4t-0.5 11q4 19 8.5 36t13 29.5t22 19.5t34.5 7q5 0 12 -0.5t24 -3t48.5 -8.5t85.5 -17q13 -3 26 -3.5t27 -1.5q11 0 13 -3.5
t-3 -13.5q-5 -17 -11 -32.5t-17 -30.5z" />
    <glyph glyph-name="sf262.002" unicode="&#xa0;" horiz-adv-x="257" 
 />
    <glyph glyph-name="sf281" horiz-adv-x="2374" 
d="M1701 11q0 -1 3.5 -4.5t8.5 -8t10 -9.5t7 -8q12 -9 28.5 -18t32.5 -9q0 5 -2 10t-2 7q-17 20 -36.5 31t-49.5 11v-2zM1088 733q5 16 9 33.5t4 36.5q0 10 -0.5 18.5t-5.5 19.5q-2 8 -7 14t-5 14q0 5 -1 13.5t8 8.5q4 0 4 -2q0 -1 5 -3q13 -20 15 -38t2 -39q0 -20 -5 -42
t-21 -37zM990 799h-2h-3l-109 -66l-3 -7q9 -5 28.5 -6t30.5 -1h22q8 2 17 4.5t14 6.5l7 9v1v59h-2zM1225 35q13 -5 25.5 -5.5t23.5 -0.5q26 0 49 4t43 24v17q0 15 -1 25.5t-6 24.5q0 11 -5 11l-121 -95zM113 151q8 -5 19.5 -5.5t19.5 -0.5q26 0 54 5t44 25v17v20
q0 3 -0.5 8.5t-1.5 13.5q0 1 -1.5 9t-6.5 8q-7 0 -7 -1l-116 -93q-4 -4 -4 -6zM1138 1098q0 -17 0.5 -36.5t4.5 -36.5q1 -15 17 -15q11 0 15.5 7t5.5 16t0 18.5t-1 15.5q0 13 1 20t2 11t2 6t1 4q5 0 6.5 -14t4 -30.5t9 -30t21.5 -13.5h6q2 0 2 11q0 16 -2 31.5t-2 31.5
q0 3 0.5 9.5t3.5 10.5q7 -4 7 -6q2 -20 8 -39t6 -38q0 -16 -6.5 -30.5t-24.5 -14.5q-11 0 -19 6.5t-14 11.5q-14 -24 -37 -24q-9 0 -19 8t-10 19v66q0 3 1 4t3.5 6zM1049 499q-1 -13 -7 -26t-21 -18l-29 -16v-1l-166 -75v2q1 4 3.5 17t4.5 16v4h3l208 97h4zM425 321
q-5 0 -13 -4l-12 -6v5q0 5 0.5 10t4.5 13q6 10 13.5 18t17.5 8h110q0 -10 -1 -17.5t-5 -15.5q-7 -14 -20 -25.5t-28 -20.5t-31 -15.5t-30 -10.5q-11 -7 -27.5 -11t-30.5 -9h-4v4q4 5 9 8t6 4t10 6t20 11t21.5 12t15.5 9q5 5 17.5 10t17.5 12v5h-61zM1491 570
q-15 202 -21.5 301t-8.5 104v11v7q0 1 0.5 3.5l1.5 7.5q0 17 5.5 31.5t5.5 22.5q5 7 9 17t9 13l15 -216v-5q0 -3 1 -20.5t2.5 -37.5t3.5 -37.5t4 -21.5v-50v-49q-5 -22 -10 -43t-16 -41zM451 -152q0 8 1 9q0 2 1 3t1 3q1 1 4 5.5t6.5 9.5l7 10t5.5 7q4 5 9.5 11.5t13.5 16.5
h4l76 -60q4 0 10 6.5t11 14.5q1 2 5.5 8t10.5 13t11.5 13.5t8.5 9.5h4h6l74 -75l-3 -5q-32 -35 -44 -50t-12 -13l-6 2l-67 61h-6h-3h-2q-14 -20 -26 -35.5t-28 -27.5q-8 1 -20 9.5t-24 19t-20.5 20.5t-8.5 14zM1233 381q0 5 0.5 7.5t4.5 9.5q4 3 10.5 12t10.5 13q0 4 8 13.5
t12 14.5q3 6 6 6h2q3 -5 12.5 -13t20.5 -17t21 -16.5t13 -9.5q0 -5 2 -5t7 -5q4 5 8.5 10.5t4.5 7.5q3 1 9 7.5t12 15t11 16t5 9.5l6 4q5 0 5.5 -1t0.5 -3q2 -2 10.5 -10t11.5 -9q3 -4 10 -11.5t15.5 -15t16 -14.5t10.5 -9v-5q0 2 -0.5 0t-1.5 -7q-5 -9 -14 -17.5t-20 -19.5
q0 -4 -7.5 -11.5l-11.5 -11.5h-1h-4l-73 65h-7q-12 -20 -24.5 -37t-28.5 -31q-3 0 -3.5 -0.5t-0.5 3.5q-5 2 -17 10.5t-16 12.5q0 2 -8.5 9.5t-15.5 11.5q-2 4 -7 8.5t-5 12.5zM1990 -141q0 5 8 5q66 13 123 34.5t109 66.5q12 12 29.5 31t23.5 37v13q0 30 -12.5 52.5
t-26.5 45.5v10q0 1 2.5 8t6 17l7 20t5.5 17q3 2 5 5t4 3h2q26 -20 37 -55.5t11 -67.5q0 -17 -1.5 -31.5t-6.5 -34.5q-7 -23 -20.5 -51.5t-32.5 -55.5t-42.5 -48t-49.5 -28q-5 0 -14.5 -1t-20.5 -2t-21 -2t-14 -1h-17h-18q-2 0 -8 0.5t-12 0.5h-7q-8 0 -9 1h-8q-5 0 -9 4
q-4 0 -13.5 1t-9.5 6zM816 691q2 5 3 10l2 10q5 11 15.5 23t20.5 20q32 31 68.5 50t74.5 40l5 23l26 52q2 0 2 -1v-2q3 -8 4.5 -24.5t1.5 -30.5v-15v-9q0 -21 -0.5 -43.5t-0.5 -43.5q0 -19 1 -42t7 -43.5t18.5 -34t36.5 -13.5q42 0 60.5 29t18.5 65q0 38 -2.5 72t-2.5 72
q0 32 3.5 61.5t13.5 59.5q2 2 3 2q2 0 2 1v3q0 3 1 4l2 -6l10 -94v-3q0 -3 1.5 -18.5t4 -35l5 -39t4.5 -29.5q4 -24 9.5 -48t16 -42.5t28.5 -30t47 -11.5h17q5 0 7 2.5t4 5.5v8q0 28 -6 55t-13.5 54t-13.5 54t-6 54v3q3 6 5 18.5t4 26.5t3.5 26.5t3.5 18.5q0 2 3 12.5
t3 15.5q0 4 0.5 7t5.5 7q0 -4 2.5 -6.5t2.5 -4.5l38 -247q3 -11 3.5 -20t0.5 -16v-33v-21q-3 -20 -12 -39.5t-19 -35.5q-4 -8 -11.5 -12t-16 -6t-16.5 -2.5t-13 -0.5q-26 0 -52 11t-35 34q-5 16 -6.5 28t-8.5 23q-4 -20 -12.5 -40.5t-22 -37t-31.5 -26.5t-41 -10
q-34 0 -53 16.5t-28 41t-11 53.5t-2 54q-5 -5 -7 -8t-4 -8l-3 -2q-16 -20 -34.5 -26.5t-41.5 -6.5q-9 0 -24.5 1t-30.5 5t-26.5 12.5t-11.5 23.5zM1376 29q-5 -5 -6.5 -12t-6.5 -9q-23 -28 -46 -35.5t-57 -7.5q-8 0 -24 0.5t-32 4t-27.5 11.5t-11.5 22q0 20 15.5 41.5
t29.5 36.5q4 5 9.5 11t10.5 11.5t9.5 9.5t5.5 4l114 72v40l17 56q0 1 1.5 2t2.5 3h3q3 0 3 -8l33 -239q7 -48 33.5 -78.5t77.5 -30.5q13 0 28.5 1.5t30.5 6.5t27.5 14t18.5 23l25 50q18 37 52 60t75 35t84 16t79 4q-23 23 -44.5 40t-45 27.5t-50.5 15t-61 2.5q0 4 -3 6
q0 2 1 4t2 7l27 48q5 5 16 3.5t16 -1.5q31 0 65.5 -14.5t56.5 -30.5l146 -100q21 -15 40.5 -19.5t44.5 -14.5q5 0 5 -4q0 -5 -4.5 -15t-10.5 -20.5t-12.5 -18.5t-10.5 -8q-12 0 -25.5 3.5t-24.5 8.5l-160 18h-34h-40q-2 0 -7 -0.5t-11 -1t-11.5 -1t-6.5 -0.5q-2 0 -8 -1
t-13 -3q0 -5 4.5 -8.5t9.5 -8.5q22 -20 42.5 -47t20.5 -58q0 -14 -4 -27.5t-11.5 -24.5t-19.5 -18t-27 -7q-21 0 -42 6t-40.5 17t-35.5 26.5t-26 33.5h-4q-9 -24 -20.5 -44.5t-27.5 -35t-37.5 -22.5t-50.5 -8q-48 0 -84 26t-48 74q-5 17 -7.5 38.5t-2.5 42.5zM260 135
q-5 -1 -9 -12t-9 -17q-19 -21 -43.5 -26.5t-50.5 -5.5q-9 0 -25.5 1t-32.5 4.5t-28 11.5t-12 22q0 12 10.5 29t25 34.5t30 32t25.5 20.5l106 71v32l19 70l5 -4l31 -233q2 -16 6.5 -33t15.5 -36q9 -22 38 -39q1 -6 11 -6q4 -4 22 -11h4h42q4 3 10 3q32 11 54.5 30t45.5 41
q4 8 13.5 17.5t13.5 9.5h2q0 -15 -7 -26t-7 -27q0 -8 9 -14t21 -10t24.5 -5.5t19.5 -1.5q21 0 42 6t29 25l5 3q1 5 1.5 11.5t0.5 14.5v13l-35 332v4q0 32 12.5 64.5t22.5 64.5v3h3l1 -5l45 -388q1 -20 8 -41.5t20 -40t31 -30.5t41 -12v5q-15 25 -24 46.5t-9 47.5
q0 11 1.5 19t2.5 17v6q0 1 1.5 3t1.5 4v4q0 1 3 1v1v4v1h3v4v2q2 0 2 4q0 1 3 1q1 0 1 4q0 1 1 3t1 3l2 4q43 64 122 64q107 0 181 -78q4 -1 10 -8.5t6 -8.5l3 -5q0 -5 -4 -5h-4q-38 10 -73 15t-77 5h-36q-5 0 -15.5 -2t-15.5 -3q-3 0 -13.5 -2t-18.5 -3q-4 0 -12 -5.5
t-16 -10.5l-7 -2q-2 0 -2 -1q0 -2 -3 -2q-6 -2 -6 -8v-4q0 -5 2 -9l4 -8q9 -19 22 -36.5t29.5 -31t37 -22t43.5 -8.5t47 6.5t47 16t44.5 21t39.5 21.5h5v-3q-16 -25 -18 -34q-13 -23 -31 -39.5t-39 -28t-44 -19.5t-45 -14q-9 -2 -15.5 -3.5t-12.5 -1.5q-5 -5 -10 -5
q-14 -2 -27.5 -3.5t-28.5 -6.5h-14q-56 0 -97.5 21t-58.5 74h-3q-7 -15 -11.5 -30t-13.5 -29q-13 -27 -33 -42.5t-58 -15.5q-35 0 -60.5 15t-42.5 49h-3q-20 -34 -52 -58.5t-74 -24.5h-10q-1 0 -4 0.5t-8 1.5h-3h-2l-4 4q-7 0 -12.5 1t-13.5 6t-16 8t-8 8q-17 15 -30.5 35.5
t-18.5 46.5q-7 17 -8.5 38.5t-6.5 33.5z" />
    <glyph glyph-name="sf274.004" horiz-adv-x="2062" 
d="M1077 1014q-6 -11 -17.5 -20.5t-22.5 -9.5q-20 0 -26.5 15t-6.5 31v22v32q2 3 4 9.5t4 12.5l3 4q1 0 1 -5q5 -20 2.5 -35t2.5 -35q2 -17 19 -17q24 0 24 23v57q0 4 0.5 9.5t1 8t2.5 1t5 -10.5q0 -3 1.5 -10.5t3.5 -16.5t3.5 -16.5t1.5 -10.5q0 -10 11 -17.5t19 -7.5
q4 0 4 7q0 20 -3 42.5t-1 39.5q0 10 2 11.5t6 -8.5q4 -7 7.5 -19.5t5.5 -25t3.5 -23.5t1.5 -16q0 -16 -5.5 -28t-25.5 -12q-18 0 -31 19zM634 939q0 -4 8 -12t18.5 -16.5t20.5 -15t13 -6.5q0 8 -0.5 19.5t-3 22t-8 17.5t-15.5 7q-12 0 -17.5 -3.5t-15.5 -12.5zM972 776
q0 20 -3.5 39t-12.5 37v6v20h4q9 0 15.5 -11.5t10.5 -26.5t6 -29t2 -19q0 -20 -4.5 -38.5t-17.5 -35.5l-6 -8h-3q0 18 4.5 33.5t4.5 32.5zM739 696q13 -2 35 -4t42 0t34 10t12 25v10q0 8 -0.5 16.5t-0.5 16.5v11q0 6 -6 0q-28 -20 -56 -37t-60 -38q-8 -5 -6.5 -5.5t6.5 -4.5
zM729 863q0 -10 -1 -20t-9 -20q-5 4 -13.5 7t-12.5 4q-21 -32 -53 -60t-70 -53.5t-80 -47t-83 -39.5q31 28 66 53.5t70 51.5t68.5 53.5t61.5 59.5q1 1 -7 7.5t-18.5 17t-19.5 24t-9 28.5q0 13 3 26.5t9.5 24t17.5 17.5t27 7q18 0 25.5 -15t9 -35t-0.5 -40t-2 -30
q0 -5 3.5 -7t7 -3.5t7 -3.5t3.5 -7zM270 651q2 -7 9.5 -15t16.5 -15.5t16.5 -12.5t10.5 -6q3 3 3 15q0 16 -8 32.5t-22 16.5q-5 0 -13.5 -4.5t-12.5 -10.5zM1365 966q-4 32 4 63t25 56q5 -85 15.5 -182.5t18.5 -194.5q5 -39 0 -80.5t-21 -77.5zM867 675q-17 -32 -38 -42.5
t-56 -10.5q-11 0 -27.5 1t-31.5 4.5t-25.5 11t-10.5 20.5t7 26.5t17.5 25.5t22 22.5t21.5 18.5q31 22 59.5 38.5t61.5 32.5q6 8 3.5 13t1.5 14q1 3 4.5 10.5t7.5 16t7.5 16t4.5 10.5q5 8 5 0q3 -17 4 -35t1 -35v-71q0 -36 2.5 -71t13.5 -66q9 -19 26.5 -27.5t37 -7
t37.5 12.5t28 31q10 13 10.5 46.5t-2.5 70.5t-7.5 69t-4.5 43q4 30 10.5 60t14.5 60h1q8 -66 17.5 -130.5t22.5 -130.5q5 -23 12 -44t19 -36.5t29 -24t43 -6.5q6 0 19.5 2.5t13.5 14.5q-3 31 -11 61.5l-16 61t-14.5 62t-6.5 64.5q3 25 7.5 52.5t9.5 57.5q4 9 5 9q4 0 6 -9
q9 -73 24 -145t27 -147q10 -37 2 -74.5t-28 -70.5q-13 -9 -34.5 -13.5t-30.5 -4.5q-12 0 -27.5 2.5t-30.5 12t-27.5 29t-19.5 54.5q-5 -21 -15 -43.5t-24.5 -40.5t-33.5 -29.5t-43 -11.5q-33 0 -53 17.5t-30.5 43.5t-14 55.5t-3.5 53.5zM252 644q0 10 3.5 22t10 22.5
t17 17.5t24.5 7q18 -5 25.5 -18.5t9 -31.5t-0.5 -37.5t-3 -35.5q0 -1 8.5 -4t8.5 -13q0 -4 -2 -16.5t-2 -16.5q-7 -2 -15.5 1t-13.5 8q-20 -35 -60 -69t-83 -61t-79.5 -45t-49.5 -21q28 30 66 59t74.5 55.5t67 51t43.5 45.5q0 3 -7.5 9t-17 16t-17 23.5t-7.5 31.5zM1422 451
q1 2 3 3.5t6 -3.5q23 -17 41.5 -31.5t38.5 -32.5q3 -2 0 -14q-3 -8 -10 -18.5t-14.5 -21t-14.5 -19t-11 -12.5q-5 -5 -8 -3.5t-8 3.5q-17 11 -31 22.5t-30 26.5q-7 5 -11.5 11.5t2.5 16.5q11 17 23.5 37.5t23.5 34.5zM561 302q-15 -23 -28.5 -40t-24.5 -31q-6 -5 -11 0
q-17 9 -38.5 26t-36.5 34q-11 6 -2 8q11 20 25 41.5t25 38.5q4 3 5 3q3 0 6 -3q20 -17 40 -32t40 -31q4 -4 2.5 -7t-2.5 -7zM118 157q10 -1 26.5 -2.5t35.5 -1t39 5t38 15.5q5 5 10 10.5t5 8.5q0 17 -3 34.5t-6 32.5q0 16 -11 7q-33 -29 -67 -56t-67 -54zM1472 109
q12 -1 28 -2.5t36 -1.5q28 0 60.5 2.5t66.5 6t67 9t63 11.5q-21 48 -47.5 68.5t-68.5 20.5q-30 0 -58 -10t-54 -26.5t-49 -36.5t-44 -41zM1678 -98q82 13 146 47t118 91q19 22 24.5 42.5t1 41t-17 41t-28.5 41.5l24 79q4 11 11.5 7t10.5 -14q20 -24 32 -55.5t12 -65.5
q0 -45 -14.5 -85t-37.5 -78q-10 -16 -21.5 -33t-26 -32t-31 -25.5t-36.5 -13.5q-22 -5 -43 -6t-42 -1q-20 0 -41 1t-42 4q-20 2 -20 8q0 4 21 6zM1613 -40q0 -11 -9 -28.5t-21 -23.5q-54 -27 -107.5 -52.5t-110.5 -53.5q0 4 1 11.5t2.5 15t2.5 14t1 9.5zM1302 13
q1 -38 -16 -65.5t-44 -48t-59 -36t-60 -29.5q-30 -16 -58 -25t-58 -9q-57 -2 -92.5 26.5t-52 72.5t-16 95t15.5 94q-31 -8 -64 -21t-68 -32q-21 -8 -44 -9t-43.5 5.5t-37 21t-24.5 37.5q-20 -52 -59.5 -82t-93.5 -30q-41 0 -67.5 15t-43 39.5t-24 56t-9.5 65.5
q-20 -41 -55 -55.5t-78 -14.5q-9 0 -24.5 1t-31.5 4.5t-27.5 11.5t-11.5 22q0 31 46 85.5t156 120.5v40l20 66q1 3 3.5 5.5t3.5 -5.5q10 -63 21 -130t22 -127q7 -39 26.5 -64t45.5 -36.5t55.5 -9.5t56.5 15t48.5 37.5t31.5 59.5q5 -36 23.5 -54t43 -21.5t52.5 4t52 21.5
q-16 18 -31.5 40t-26 45.5t-13.5 48t6 47.5q12 28 23 51t26.5 39t38 25t58.5 9q48 -2 92.5 -24t75.5 -60q11 -15 5 -17t-22 6q-27 11 -60.5 14.5t-67.5 0t-64.5 -13.5t-51.5 -25q-10 -10 -15 -19t3 -24q27 -44 63.5 -64t77 -24t82.5 5.5t80 24.5q11 1 23 7.5t23 8.5
q-2 -6 -8 -18t-13 -24.5t-13 -23t-8 -13.5q-39 -15 -79 -27t-79 -26q-12 -32 -12 -64q0 -48 21 -86t59 -53q37 -15 83.5 -8t90.5 23.5t80.5 36.5t53.5 30q15 10 13 17.5t-18 11.5q-21 5 -52 8t-59 10.5t-47.5 22.5t-17.5 44q0 24 12.5 44t31.5 36.5t40 29.5t38 23
q28 16 50 16q35 0 54.5 -25.5t36.5 -63.5q14 -22 40.5 -30t52.5 -8q28 36 63 71t73 62t77 42.5t76 12.5t69.5 -28t56.5 -78q6 -11 5.5 -23t-5 -24.5t-10.5 -25t-11 -24.5q-8 -21 -32 -33t-44 -18q-150 -42 -360 -13q-10 -10 -22 -26.5t-20 -26.5q-5 -4 -8 -1t-1 8
q3 14 12.5 27t20.5 24q-21 7 -36.5 17.5t-27 24t-21 29.5t-19.5 35q-9 21 -22.5 28t-29.5 4t-33 -12.5t-33 -20.5q-11 -8 -19 -16t-10 -15.5t3.5 -15t21.5 -15.5q18 -9 43.5 -13.5t49 -10.5t40 -16t16.5 -30z" />
    <glyph glyph-name="sf276" horiz-adv-x="1171" 
d="M265 482q4 12 6.5 21t2.5 22q0 15 -3.5 28t-12.5 27v8q0 2 -0.5 9t3.5 7q6 0 11 -9t8.5 -20.5t5 -22t1.5 -14.5q0 -14 -3.5 -29.5t-13.5 -26.5q0 -3 -3 -3q-2 0 -2 1v1v1zM249 451q0 5 1 12t5 9l3 -39q0 -8 9 -8q10 0 13 8v30v12l1 1h2q1 0 3 -6q0 -3 2 -14.5t4 -14.5
q1 -4 4 -7.5t8 -3.5q3 0 3 3v3q0 8 -1.5 16t-1.5 17v5q0 5 2 7h1q2 0 4 -6t3.5 -13.5t2.5 -15t1 -10.5q0 -8 -3 -14.5t-13 -6.5q-5 0 -8 2t-7 5h-1q-2 -5 -7.5 -9t-11.5 -4q-7 0 -11.5 4t-6.5 9v29zM916 388h-16q-13 0 -22.5 -1.5t-20.5 -7.5v5q2 20 13.5 27t19.5 7h10
q7 0 15 0.5t17 0.5h14h5q4 0 4 -3q0 -12 -8 -23.5t-19.5 -21t-24.5 -16t-23 -9.5q-11 -4 -25 -9.5t-17 -5.5h-1q0 3 6 9q1 1 5.5 4t5.5 3l59 37zM97 230q1 -1 5 -2t5 -1q7 0 8 -1h15h16q13 2 21 5.5t8 18.5v7v10q0 14 -3 14h-2l-70 -48q-3 0 -3 -3zM614 224q5 -5 11 -7
q4 -2 10.5 -5t7.5 -5q2 0 13 -4t17 -5q2 -2 7 -2q0 3 -4.5 8.5t-9.5 11.5t-9.5 10.5l-5.5 5.5q-4 2 -5.5 2.5t-5.5 0.5q-8 0 -13 -3t-13 -8zM467 457v5q0 10 3.5 22t5.5 20q0 1 3 9q2 2 5 10h1v-25l25 -206q0 -2 0.5 -11t0.5 -16v-1v-2v-8v-6q0 -6 -1 -7q0 -2 -1 -8.5
t-2 -8.5q0 -5 -2 -15.5t-7 -13.5l-2 4zM180 217q-13 -23 -26.5 -29.5t-39.5 -6.5q-5 0 -14 0.5t-17.5 3t-15 7t-6.5 12.5q0 9 5.5 18t13 17.5t15.5 15.5t14 12q3 1 10 5t15.5 9.5t15.5 10t10 6.5q2 1 9 5t9 6l1.5 7.5t0.5 1.5q0 8 1 9q2 2 6 13t6 13q0 3 3 6l2 -1
q0 -1 0.5 -7.5t1.5 -15t1.5 -17t0.5 -14.5q0 -3 0.5 -13.5t0.5 -22.5t0.5 -22.5t0.5 -12.5q0 -12 2 -24t7 -22t14 -16.5t23 -6.5q27 0 38 18.5t11 41.5v12l-7 86v6q0 16 2 31t4 29q2 5 3 12t1 5q0 2 2 2q2 -2 2 -3v-1l22 -144q2 -12 6 -26t10.5 -26.5t17 -20.5t25.5 -8
q2 0 9 1t8 1q4 0 8 2t4 5v3q0 4 -1.5 12.5t-1.5 9.5l-23 86q-2 2 -3.5 12t-2.5 14v10v10q2 16 3.5 32.5t6.5 33.5q0 3 3 6q4 0 4 -4l34 -173q2 -9 3 -19.5t1 -20.5q0 -16 -6.5 -31t-13.5 -29q-10 -5 -20.5 -7t-20.5 -2q-17 0 -33 5.5t-21 22.5q0 2 -4 13t-4 13q-2 3 -3 3
q-2 -13 -7.5 -26.5t-14.5 -24t-21 -17.5t-27 -7q-20 0 -32.5 10.5t-19.5 26t-9 34t-2 34.5zM1055 85q0 1 -3 4v2q0 2 2 4q1 2 7.5 11t8.5 11q2 1 4.5 4t3.5 3h2q1 -1 12 -9.5t17 -13.5q2 -2 3.5 -3t1.5 -3t-3.5 -7.5t-8 -11.5t-9 -10.5t-6.5 -4.5q-4 0 -9 5q-3 2 -12 9.5
t-11 9.5zM390 58q109 52 162 78t55 27q4 3 4 4v2q-9 5 -20.5 12t-11.5 20q0 9 8 22.5t19.5 26t23.5 21.5t21 9t16.5 -5t14 -12t11.5 -14.5t10 -12.5q16 -18 33.5 -28t41.5 -10q18 0 34 3.5t32 12.5q7 3 11 10.5t11 7.5q0 -8 -3.5 -15t-3.5 -15q9 -3 19 -3h19q17 0 30.5 3.5
t24.5 17.5q2 3 4.5 9.5t7.5 6.5q3 0 3 -6q0 -8 -6 -15t-6 -16h2q1 -1 8 -1h8q14 0 26.5 1t23.5 6q3 3 6.5 8.5t7.5 11.5t7 10t5 4t3 -1v-5q0 -3 -0.5 -6.5t-0.5 -6.5q0 -8 10.5 -12t16.5 -6q11 -1 18.5 -2t17.5 -1h7v2v3q0 29 -11.5 58t-25.5 53q-1 3 -5.5 11t-10 17.5
t-10.5 18t-7 11.5q-2 5 -7.5 11.5t-10.5 11.5h-3h-3h-3h-3q-9 12 -16.5 24t-12.5 25v5q0 2 1 8.5t2.5 13t4.5 11.5t6 5q6 0 10.5 -4t6.5 -8q21 -25 42.5 -54.5t38 -62t27 -67t10.5 -68.5q0 -6 -0.5 -17t-2.5 -22.5t-6.5 -21t-11.5 -12.5h-14q-13 0 -32.5 2t-30.5 11
q-5 5 -7 9.5t-4 9.5q-16 -15 -32.5 -23t-39.5 -8q-7 0 -12 1.5t-11 3.5q-2 0 -4.5 2t-4.5 2q-16 -5 -30 -7t-29 -2q-11 0 -22.5 1.5t-18.5 12.5q-5 -2 -9.5 -5t-9.5 -4q-11 -6 -25 -6h-24q-20 0 -34.5 6.5t-28.5 20.5q-5 -7 -11.5 -18t-17.5 -11q-10 0 -20.5 4.5t-17.5 6.5
h-5q-2 -2 -5 -8t-3 -7q-2 -2 -3 -6q-30 -31 -69.5 -49.5t-82.5 -25.5q-8 -2 -20.5 -4l-25 -4t-22 -3t-10.5 -1h-5q2 4 5.5 4.5t5.5 1.5zM352 17v-2h-2v2h2zM127 126v-3q0 -7 -1 -15t-6 -13l-119 -88l5 30zM642 91v-3q0 -2 -0.5 -7t-1.5 -12l-1 -2l-86 -63l-3 -1v1v2
q1 2 2 11.5t2 11.5q0 -2 0.5 -1t1.5 6l86 61v-4zM1171 92l-6 -28l-87 -64v3v1q0 5 3 25l2 2z" />
    <glyph glyph-name="sf279" horiz-adv-x="6700" 
d="M4532 777q6 26 11 47.5t5 54.5q0 35 -7 65.5t-26 63.5q0 18 -1 24t-1 13t2 12.5t8 5.5q14 0 25 -20.5t18.5 -47.5t11.5 -53t4 -36q0 -33 -7.5 -69t-27.5 -60l-9 -6h-4q0 2 -2 2v4zM4495 638q0 19 -3.5 33t-3.5 34q0 13 5.5 27.5t14.5 18.5l7 -90q0 -18 23 -18q8 0 16 2
t8 16v73q0 20 7 27q4 0 7 -14q2 -4 4.5 -13.5t4.5 -20.5t3 -20.5t1 -13.5q6 -12 13 -17.5t13 -6.5t10 1t4 5v7q0 20 -2.5 38.5t-2.5 39.5v12q0 4 1 8.5t3 6.5q5 0 10 -13.5t8.5 -31.5t6 -35.5t2.5 -24.5q0 -21 -6 -37.5t-32 -16.5q-14 0 -20 7.5t-15 16.5h-1q-9 -14 -21 -24
t-26 -10t-26 9t-13 25zM6057 558h-36q-34 0 -56.5 -4t-48.5 -19v12q0 38 25.5 58t58.5 21q2 0 18 1t36 1q21 0 41 0.5t32 0.5h7q12 0 12 -4q0 -31 -18.5 -58.5t-45.5 -49.5t-57.5 -37.5t-53.5 -22.5q-15 -10 -40 -16.5t-59 -15.5h-3q0 4 6 8.5t7 8.5q6 2 16.5 10t13.5 8
l137 87zM4137 187q2 -2 8 -3.5t14 -4.5q1 0 6.5 -1t14.5 -3h35h39q14 3 26 6t21 8.5t14 15t5 26.5v20v24q0 11 -1 20.5t-6 9.5h-1q-172 -109 -172 -114q-3 -2 -3 -4zM5351 173q2 -9 12 -13t11 -4q3 -3 9.5 -6.5l13 -7t13 -6t9.5 -3.5q3 0 11 -2.5t18 -6t19.5 -7t15.5 -4.5
q1 -3 4 -4t4 -1h10q0 8 -9 21t-20 25.5t-21 22.5t-12 13q-9 5 -12.5 5.5t-16.5 0.5q-19 0 -29.5 -5t-29.5 -18zM5004 718v12q0 22 6.5 49.5t11.5 46.5q4 2 6.5 10.5t4.5 13.5q1 1 4 8t8 17h3v-63l57 -481v-63v-2v-3v-53q0 -1 -1.5 -6t-3 -11t-2.5 -11.5t-1 -8.5
q-2 -6 -4.5 -16t-4.5 -20t-4.5 -18.5t-5.5 -12.5l-6 10zM4328 156q-14 -28 -27.5 -45t-30.5 -26t-39 -12t-52 -3q-12 0 -33 1.5t-41.5 7.5t-35.5 17.5t-15 31.5t11.5 41t29 40.5t37 36.5t35.5 29q6 1 23 10.5t36.5 21.5t36.5 22.5t22 13.5q1 3 6.5 6.5t12.5 7t14 7.5t10 7
q4 7 4 20v11q0 1 0.5 4t1.5 8q3 3 6.5 11t7 18t7 19t6.5 14q3 7 11 12v-4q2 0 4.5 -14.5t5 -34.5t4 -41.5t1.5 -34.5v-164q2 -28 6.5 -57t16 -52.5t32 -38.5t53.5 -15q32 0 54.5 12t36.5 31.5t20.5 45t6.5 52.5v29l-24 200v14q0 36 7 71t12 71q0 6 4.5 17.5t4.5 18.5
q3 0 3 7q3 -3 4.5 -5t3.5 -6l52 -336q2 -28 10.5 -61.5t25 -62t41.5 -48t61 -19.5h21q6 0 11.5 2t7.5 3q9 0 18 4.5t9 12.5v5q-1 7 -2.5 16t-3 17t-3 14t-2.5 7l-51 199q0 3 -1.5 12t-4 19t-4 19.5t-1.5 14.5v22v22q5 42 9.5 80t12.5 74q2 6 2.5 9t5.5 10q3 0 4 -3t1 -5v-4
l81 -405q6 -22 7 -46.5t1 -45.5q0 -42 -15 -75.5t-32 -66.5q-21 -13 -45.5 -17t-51.5 -4q-17 0 -36 3t-36 10.5t-30 19t-19 29.5q-2 4 -5.5 13.5l-7 19t-6.5 18t-4 11.5q0 3 -5 8q-6 -32 -19 -63.5t-33 -56.5t-48 -40.5t-64 -15.5q-50 0 -79 24.5t-44.5 61t-20.5 80t-7 81.5
zM6383 -156q-3 3 -5.5 7t-4.5 4v3q0 5 1 6.5t1 5.5q3 3 9 10.5t12.5 15.5t11.5 15t6 10q2 2 7 5t12 11q4 0 13 -6t20 -14t22.5 -17t20.5 -16q5 -4 8.5 -5.5t3.5 -8.5q0 -6 -9 -19t-20.5 -26.5t-22.5 -24t-14 -10.5q-5 0 -9.5 4t-12.5 10q-2 2 -9.5 8t-16 12.5t-15.5 12
t-9 7.5zM5321 26q4 0 11 4t7 10v2q-10 6 -23 12.5t-25 15.5t-20.5 21t-8.5 29q0 21 19.5 52t47 60t58 49.5t52.5 20.5q21 0 37.5 -11.5t30 -27.5t25 -33t22.5 -28q41 -44 83 -66.5t99 -22.5q42 0 78.5 7t73.5 27q6 4 12 11l12 14t12.5 12.5t14.5 5.5q0 -20 -7.5 -36
t-7.5 -33q20 -6 40.5 -7t47.5 -1q40 0 71 9t58 39q2 4 5 11t6.5 14t8 11.5t10.5 4.5q5 0 5 -15q0 -10 -4.5 -18.5t-10 -17t-10 -17t-4.5 -18.5h5q4 -3 18 -3h20h2q30 0 59.5 2t55.5 15q10 4 18.5 17t16 26.5t14.5 24t13 10.5q4 0 4 -4l2 -9q0 -9 -1 -17t-1 -17
q0 -10 7.5 -16t18 -10.5t21 -7.5t16.5 -6q26 -1 45 -3t40 -2h12l4 4v8q0 69 -26.5 134t-59.5 122q-5 6 -16 25t-23 41t-23 42t-16 28q-8 12 -19 27.5t-23 28.5h-6q-7 -4 -18 -4q-4 0 -8 4q-17 25 -34 53t-33 60v14q0 5 2 19.5t6.5 29.5t11 27t15.5 12q15 0 23 -10.5
t17 -19.5q50 -59 99.5 -128t89 -145t64 -155.5t24.5 -159.5q0 -15 -1.5 -41.5t-7 -53.5t-16.5 -49t-29 -29h-28h-35q-29 0 -62 6.5t-52 25.5q-12 14 -14.5 22t-7.5 21q-40 -36 -79.5 -54.5t-95.5 -18.5q-14 0 -26 2.5t-26 9.5q-5 0 -9.5 6t-10.5 6q-66 -24 -136 -24
q-27 0 -52 3.5t-45 29.5q-13 -5 -22 -12.5t-22 -8.5q-27 -13 -58 -15t-59 -2q-45 0 -79 16t-68 50h-2q-4 -8 -10 -20.5t-14.5 -23.5t-19 -18t-22.5 -4q-23 6 -38.5 11t-28.5 4.5t-26 -9t-31 -29.5q-72 -77 -163 -118t-197 -58q-17 -5 -46.5 -10t-58.5 -9.5t-51 -7t-23 -2.5
h-12q3 8 11.5 9.5t15.5 3.5zM4730 -317v3v-3zM4208 -58v-9q0 -15 -2 -32.5t-14 -30.5l-282 -206l16 70zM5414 -142v-5q0 -13 -2 -28t-4 -15v-5l-203 -147l-6 -3v3v5q0 2 1 9.5t2 15.5t2 15.5t1 9.5q6 6 6 9v3l203 145v-12zM6650 -136l-8 -66l-209 -149v6v3q2 7 4.5 21
t5.5 34v6zM1560 914q7 0 7 -8h-7v8zM2951 416q10 -12 24 -25.5t30.5 -24t34.5 -17.5t36 -7h14q-7 16 -20.5 30t-30.5 23.5t-35.5 15t-34.5 5.5h-18zM600 332q12 -19 36 -28.5t44 -14.5q6 -3 16.5 -7t21 -7.5t19 -6t10.5 -2.5h9l-5 2q-5 17 -17.5 32.5t-24.5 31.5
q-6 2 -14 9.5t-13 12.5q-1 1 -6 1h-10q-21 0 -32 -4t-26 -16q-5 0 -8 -3zM3487 848q5 -9 6 -18t1 -19v-38q4 -11 9 -12.5t12 -1.5q21 0 21 17v72v12h4l2 -1q3 -12 5 -28t6 -30t12.5 -23.5t24.5 -9.5q0 24 -4 43.5t-4 39.5q0 6 2 9t3 7h3q4 0 4 -3l17 -73v-9q0 -21 -6 -34.5
t-24 -13.5q-9 0 -17 6.5t-13 10.5q-8 -12 -17.5 -20t-21.5 -8q-14 0 -24.5 11t-10.5 25v65q0 2 2.5 9.5t4.5 14.5h3zM2547 676q0 4 8 17t19 26.5t22 24t17 10.5h2l5 -3l70 -75q0 -14 -15 -27q-1 -3 -6 -9t-11 -13t-12.5 -13.5l-9.5 -9.5q-2 -2 -6.5 -2.5t-7.5 -0.5
q-8 0 -20.5 9t-24.5 21t-21 24.5t-9 20.5zM1847 617v9q0 7 4 19.5t9 17.5v7h4l7 -109q0 -11 8.5 -14.5t17.5 -3.5q25 0 27 23v83q0 2 3 12t3 15q0 3 1 3q7 0 7 -9l19 -80q2 -32 32 -32q12 0 15 3v9q0 26 -3.5 48.5t-6.5 38.5t-2 25t10 9q6 0 11 -17.5t9.5 -39.5t7 -42.5
t2.5 -25.5q0 -20 -9 -38t-34 -18q-23 0 -44 26q-8 -14 -21 -27t-34 -13q-19 0 -30 12t-13 32v77zM2930 -35h7v-8q0 -5 -1.5 -18.5t-6.5 -35.5l-4 -4l-280 -208h-4l4 8q0 8 1 21.5t3 37.5l8 4zM3281 917l400 152q-3 -2 -6 -9t-6 -15t-5.5 -14.5t-3.5 -7.5q-5 -2 -5.5 -5.5
t-6.5 -5.5l-396 -161v9zM1812 191v-4q-1 -2 -2.5 -9t-3 -14.5t-3 -14t-1.5 -7.5q-4 -7 -4 -10q0 -2 -2 -2l-369 -227h-7l15 62q0 7 6 7l364 215zM2755 585q13 44 20.5 82.5t7.5 86.5q0 42 -5.5 79t-22.5 70q-2 4 -7 11t-10 15t-9 16.5t-4 14.5v6q0 4 1 16.5t5 31.5q0 7 1 14
t6 7q10 0 18.5 -6t15 -14.5t11 -17.5t7.5 -16q25 -45 33.5 -92t8.5 -98q0 -26 -3 -56.5t-11.5 -60.5t-22 -56t-34.5 -42l-6 7v2zM1391 966q-29 0 -50 -2.5t-47 -17.5v11q0 41 37 66q6 3 17 7.5t20 5.5q39 0 81 1.5t80 1.5q0 -29 -15 -55t-39.5 -47.5t-55.5 -39t-62.5 -30.5
t-61 -21t-51.5 -11q0 3 6 7.5t9 5.5l168 109l6 9h-42zM1032 -9q0 4 9 18.5t20 29.5t21 27t13 12q6 0 16 -8.5t22 -18.5t24.5 -18.5t23.5 -8.5h3q17 15 29 34.5t27 30.5h4l8 -3l74 -48q2 -5 3.5 -8.5t1.5 -9.5q0 -3 -4 -10q-4 -3 -11 -11.5t-14 -17.5t-12 -16t-5 -8
q-9 -9 -11.5 -12t-7.5 -3q-6 0 -18 8t-25 18t-24 19.5t-14 12.5q-6 -5 -13.5 -17.5t-15.5 -25t-16.5 -22t-17.5 -9.5q-7 0 -22 7.5t-30 18t-26.5 21.5t-11.5 18zM3910 832v19q0 11 3 34.5t8.5 48t14 45t19.5 26.5v-64l57 -481v-121q0 -3 -1.5 -8.5t-3 -12.5t-2.5 -12.5
t-1 -8.5q0 -1 -1.5 -5.5t-3 -10.5t-3 -11t-1.5 -7q-3 -1 -3.5 -11t-5.5 -14l-4 -8l-3 13zM2386 835v24q0 3 2 15t5 29t7 35t9 34t10.5 26t10.5 10v-54l58 -529v-27v-35v-14v-10q0 -5 -2 -7q0 -9 -2 -24.5t-6 -31.5t-9 -29t-11 -17q-5 12 -6 24t1 21zM968 638l1064 307
q-1 -3 -3.5 -9.5t-5 -14t-4.5 -14t-2 -8.5t-9 -11q0 -2 -2 -2h-2l-1073 -328v3zM3158 -79q0 4 7 5l44 7q101 27 175 76.5t136 132.5q12 11 17.5 22t13.5 31v5q0 3 -9 8l-26 20t-23.5 22t-17 25.5t-6.5 29.5q0 47 13 72q0 5 2 12.5t10 12.5l4 -4q16 -22 30.5 -38.5t31 -27
t37 -16t48.5 -5.5q22 0 44 1t46 7l6 4v40l-30 371v66q0 4 -6.5 10.5l-14.5 14.5t-14.5 17t-6.5 18q0 12 3.5 21.5t8.5 17.5q3 3 8.5 12.5t12 20.5t13 21t9.5 13q0 5 5 5q0 -20 7 -34t18.5 -25t25.5 -21.5t29 -23.5q7 -4 7 -7v-9l-46 -86l26 -340v-83q0 -2 -4.5 -11t-4.5 -14
q-4 -14 -9.5 -31t-13.5 -33t-20 -28.5t-29 -18.5q-9 -5 -21 -5.5t-19 -0.5h-93l-1 -5q-9 -32 -28 -77t-46 -87t-60 -74.5t-69 -39.5q-6 0 -26 -1.5t-43 -4t-43.5 -4t-27.5 -1.5h-7h-15q-19 0 -36 3.5t-22 11.5zM1620 -103q0 1 19.5 6.5t45.5 12.5t51.5 14t37.5 12
q36 21 65 40t54.5 40.5t48.5 47t47 60.5q6 9 14 19.5t8 22.5q0 6 -12.5 13.5t-27.5 19.5t-27.5 30t-12.5 45v10q0 5 2 16t2 13q2 9 5.5 22.5t8.5 33.5q4 2 6 1t3 -1l20 -33q20 -26 49 -39.5t60 -13.5h81h9h2h5h7h2q6 1 12 3.5t6 3.5l-34 409v12v44q0 10 -6 17.5t-12.5 15
t-12.5 16t-6 22.5q0 29 17 54l34 50l7 9h3q0 -7 2 -20t2 -19l3 -3q14 -21 33.5 -34.5t40.5 -30.5q1 -1 1 -6q0 -11 -5.5 -23t-12.5 -25t-14.5 -25t-11.5 -22v-3q7 -91 15 -186.5t8 -192.5v-47q-1 -7 -3.5 -17t-6 -20.5t-7.5 -20.5t-7 -16q-9 -20 -20 -33t-25 -22
q-7 -5 -19.5 -7.5t-23.5 -2.5h-10h-34h-60q-20 -51 -42 -96t-55 -87q-26 -42 -55.5 -66.5t-77.5 -29.5q-6 0 -17.5 -1t-22.5 -2t-19.5 -2t-9.5 -1q-3 0 -17.5 -1t-28.5 -1q-18 0 -36.5 1t-38.5 7q-6 3 -6 7zM895 -190q-35 17 -69 36.5t-66 42.5t-54 42t-35 36
q-11 17 -18.5 26.5t-9.5 11.5l-15 20t-14 19q-3 5 -11.5 24t-20.5 45h-2q-76 -70 -162 -107t-186 -53q-17 -3 -44.5 -7.5t-54.5 -9t-48 -7.5t-24 -3h-11q5 5 12.5 9t12.5 7l481 230q10 10 24 15q4 0 14 13v2q-27 10 -50 27.5t-23 45.5q0 27 17 56.5t37 51.5q3 0 9 6t13 14.5
t14 16t12 10.5q11 14 27 24t32 10q20 0 35.5 -9t29 -22.5t25 -29t23.5 -28.5q38 -51 83 -79t108 -28q69 0 126 29t108 80h1l5 -2q2 -48 28.5 -64t71.5 -16q40 0 80 10.5t80 33.5l43 22q0 4 -9 10.5t-21.5 14t-25.5 15t-21 13.5q-44 24 -96 24q-18 0 -26.5 -5t-24.5 -5
q-7 0 -7 10q0 9 1 13t6 13q8 20 15 31.5t16.5 17.5t23.5 7.5t37 1.5q28 0 54.5 -8t52 -20.5t50.5 -27.5t50 -28q111 -60 236 -63v-4l-49 -76h-122q-5 0 -23 -3t-32 -3q-4 -7 -15 -7q-9 0 -12 -5l-154 -62q-27 -14 -58.5 -21t-60.5 -7q-48 0 -82.5 21t-46.5 69h-1v-2
q-24 -35 -49.5 -57.5t-55 -36.5t-64 -19.5t-75.5 -5.5q-45 0 -77.5 16.5t-67.5 49.5q-6 -10 -13 -21.5t-15.5 -21.5t-18 -16.5t-21.5 -6.5q-23 0 -49 7.5t-48 15.5h-2q-2 0 -6.5 -7.5t-10 -16.5t-10.5 -17t-7 -10q1 -6 8 -10t9 -10q63 -55 126 -100.5t140 -81.5q9 -6 29 -16
t41 -19t38 -16t20 -7l254 -63q4 -3 20.5 -5.5t36 -4.5t38.5 -4.5t29 -5.5h19q14 0 34.5 -0.5t41.5 -0.5h36h7l270 14q148 22 222 33.5t82 12.5q8 3 17.5 6t22.5 5q25 8 53.5 15.5t50.5 13.5l31 8l28 11q13 6 24 11t22 11l128 47q3 1 12 5.5t19.5 10t20.5 10.5t16 7
q4 3 13.5 9.5t20.5 13.5t20.5 13.5t13.5 9.5q16 13 34.5 27.5t26.5 34.5v20q0 34 -9.5 65.5t-30.5 63.5q-3 9 -8 17.5t-10.5 17t-9 18t-3.5 20.5q0 54 10 73q0 2 1 6t6 11h7q15 -22 29.5 -42.5t32 -36.5t39.5 -25.5t52 -9.5q27 0 49.5 8.5t33.5 41.5q15 28 25.5 59.5
t30.5 60.5q21 28 53.5 51.5t70 40.5t77 28.5t74.5 15.5q33 2 59 1.5t53 1.5q-24 25 -50.5 47.5t-56 40t-61.5 28t-67 10.5q-14 0 -25 -2.5t-22 -2.5h-11q0 5 -2.5 8t-2.5 5l5 11l31 61q6 13 22 13h29q48 0 95 -18t89 -45l220 -135q26 -20 56.5 -26.5t65.5 -20.5v-4
q0 -5 -1.5 -8t-3.5 -6l-30 -72q-2 -3 -12 -3h-7q-26 0 -46.5 7.5t-46.5 9.5q-14 2 -41 4t-55.5 4t-51.5 3.5t-28 1.5h-45q-45 0 -87.5 -2t-84.5 -13v-6v-6q20 -17 40.5 -35.5t36.5 -39.5t26 -45t10 -52q0 -16 -4 -33t-12 -31.5t-20.5 -25.5t-28.5 -15h-26q-86 0 -154 50
q-14 14 -25.5 29t-31.5 26q-11 -30 -22 -54.5t-26 -41t-36.5 -25.5t-53.5 -9q-9 0 -19 -1t-19 1h-2q-5 -35 -10.5 -65t-10.5 -63q-12 -35 -30.5 -64t-44.5 -50q-8 -5 -23.5 -14.5t-33 -20t-32.5 -20t-21 -13.5q-8 -6 -25.5 -16.5t-36.5 -20t-35 -17t-20 -7.5l-37 -15l-5 -4
q-2 0 -20 -7t-43 -16t-51.5 -18t-45.5 -13l-5 -1h-6q-5 -2 -13 -5.5t-20 -5.5l-34 -9q-5 0 -9.5 -1t-6.5 -1q-12 -5 -39 -10t-57 -10t-56 -9t-36 -7q-14 0 -48 -2.5t-72 -5.5t-73 -5.5t-52 -2.5q-4 -4 -37 -4h-53h-59q-34 0 -35 4q-12 0 -34.5 1.5t-45.5 3.5t-42 4.5
t-24 4.5l-229 46q-5 1 -14 3.5t-19 5t-19.5 4.5t-13.5 2q-8 3 -27.5 9.5t-41.5 14t-41.5 15.5t-26.5 13z" />
    <glyph glyph-name="sf263.003" unicode="&#x656;" 
d="M-80 119q5 19 11 35t17 42q8 14 21 2q30 -31 44.5 -79.5t17 -102t-7 -104.5t-27.5 -87q-8 -14 -11.5 -15.5t-1.5 17.5q5 40 6.5 78t-4.5 74.5t-21.5 71.5t-43.5 68z" />
    <glyph glyph-name="sf438.002" unicode="&#x654;" 
d="M-104 -4q5 14 10.5 31.5t12.5 35t15.5 33.5t20.5 28q24 20 57 27t63 -13q0 -5 -3 -14t-7.5 -19.5t-9 -20.5t-8.5 -17q-8 -8 -15 -3q-12 10 -25 12t-25 -1.5t-23.5 -11t-20.5 -16.5q4 -14 17 -23.5t29.5 -15t32.5 -8t26 -2.5q26 2 51.5 11t47.5 17q10 4 7 -4
q-9 -17 -18.5 -31.5t-23.5 -33.5q-27 -10 -55.5 -18.5t-55.5 -19.5t-50.5 -26.5t-39.5 -39.5q-2 -3 -6 -3.5t-2 4.5q3 21 12.5 40t21.5 40l-1 5q-14 11 -25.5 24t-9.5 33z" />
    <glyph glyph-name="sf438.003" unicode="&#x653;" 
d="M-233 -53q-34 -15 -13 17q42 48 86.5 74.5t95.5 28.5q31 0 60 -10t60 -10q26 0 51.5 8t48.5 21t41.5 28.5t30.5 30.5q12 13 16.5 12.5t-3.5 -18.5q-15 -31 -40.5 -61.5t-57.5 -54.5t-67.5 -39t-70.5 -15q-19 0 -34.5 4t-29.5 9t-27.5 9t-28.5 4q-36 0 -64.5 -12
t-53.5 -26z" />
    <glyph glyph-name="sf438.004" unicode="&#x655;" 
d="M-104 -4q5 14 10.5 31.5t12.5 35t15.5 33.5t20.5 28q24 20 57 27t63 -13q0 -5 -3 -14t-7.5 -19.5t-9 -20.5t-8.5 -17q-8 -8 -15 -3q-12 10 -25 12t-25 -1.5t-23.5 -11t-20.5 -16.5q4 -14 17 -23.5t29.5 -15t32.5 -8t26 -2.5q26 2 51.5 11t47.5 17q10 4 7 -4
q-9 -17 -18.5 -31.5t-23.5 -33.5q-27 -10 -55.5 -18.5t-55.5 -19.5t-50.5 -26.5t-39.5 -39.5q-2 -3 -6 -3.5t-2 4.5q3 21 12.5 40t21.5 40l-1 5q-14 11 -25.5 24t-9.5 33z" />
    <glyph glyph-name="sf438.006" unicode="&#x615;" 
d="M66 7q-20 0 -39.5 -8.5t-37.5 -21t-34 -27t-28 -26.5q14 1 36 0.5t49 1t57.5 7.5t61.5 21q-6 27 -26.5 40.5t-38.5 12.5zM-109 -70q14 18 27 39.5t21 43.5q0 54 -2 106t0 106q-8 14 -17.5 24t-9.5 26q10 18 20.5 36t21.5 35q3 3 8 6t8 -3q6 -23 23.5 -43t36.5 -38
q-9 -26 -19.5 -46t-20.5 -33q1 -48 0 -77.5t-3 -46t-3.5 -23.5t-1.5 -10q24 21 53.5 41t63.5 20q48 0 77 -30t27 -78q-10 -14 -30 -43t-47 -53q-25 -15 -56.5 -25t-65 -16t-66.5 -8.5t-61 -2.5q-12 0 -19 1t-19 6.5t-35 18.5t-67 37q-13 6 -10.5 10t15.5 5q21 2 44.5 1.5
t44.5 -0.5q22 0 38.5 2.5t23.5 11.5z" />
    <glyph glyph-name="sf266.003" unicode="'" horiz-adv-x="353" 
d="M100 1397q38 8 76.5 6.5t76.5 -1.5l-26 -358l-102 16z" />
    <glyph glyph-name="sf263.005" unicode="&#x657;" 
d="M60 1002q8 -1 14 -9t9.5 -18t5 -20.5t1.5 -16.5q-8 -25 -19 -51t-31 -43q-8 -11 -18.5 -14.5t-21.5 -1t-21 9t-17 15.5q-21 21 -31.5 49.5t-12.5 60t2.5 63t13.5 57.5q25 75 59.5 138.5t71.5 126.5q9 16 16.5 20t12.5 1q3 -3 3 -11t-8 -19q-21 -40 -43 -85.5t-35 -92.5
t-11.5 -93t27.5 -87q6 0 10 3.5t7.5 7l7 7t8.5 3.5z" />
    <glyph glyph-name="sf264.003" unicode="&#x658;" 
d="M-16 168q7 4 11 2.5t0 -10.5q-11 -35 -9.5 -73t26.5 -69q13 -17 30 -20t34.5 3t33.5 17.5t27 25.5q4 8 10.5 7t3.5 -10q-6 -27 -19.5 -56t-34 -54t-46 -42t-55.5 -20q-32 0 -50 16t-26 39.5t-9 51t2 50.5q6 42 24 78.5t47 63.5z" />
    <glyph glyph-name="sf265.006" unicode="&#x60d;" horiz-adv-x="216" 
d="M366 1307q0 -6 -4.5 -22.5t-12 -36t-16.5 -38t-19 -28.5q-10 -15 -19.5 -13t-19.5 12q-15 13 -30.5 12t-30 -10t-27.5 -22.5t-23 -23.5q-32 -32 -57.5 -71t-53.5 -75q-12 -16 -18.5 -12.5t-1.5 20.5q15 61 48 118.5t71 108.5q16 21 35 43t41 39t48 27t56 8q34 -7 34 -36z
" />
    <glyph glyph-name="sf256.005" unicode="&#x601;" horiz-adv-x="2476" 
d="M2322 248q10 17 25 41.5t23 41.5q4 8 11 7t7 -10q8 -37 13.5 -68t3.5 -67q1 -22 -9 -40q-2 -5 -7.5 -16l-11.5 -23t-12 -23t-8 -15q-2 -11 -10.5 -15.5t-19.5 -3.5q-23 6 -45.5 11t-45 11t-44 14.5t-42.5 21.5q-23 -20 -52 -26.5t-59 -6.5q-41 2 -67 20t-53 45
q-73 -40 -152 -70.5t-161.5 -49.5t-167.5 -24.5t-169 5.5q-39 5 -83 13.5t-84 25t-71.5 44.5t-45.5 72q-22 -30 -47 -55t-54.5 -43t-63 -26.5t-71.5 -5.5q-42 2 -75.5 21.5t-58.5 50t-41.5 68.5t-23.5 77q-5 17 -17 19.5t-24.5 -3t-23.5 -17t-14 -21.5q-12 -18 -27.5 -46.5
t-33 -58.5t-36.5 -59t-39 -49q-15 -20 -31.5 -25.5t-32.5 -1.5t-31 14.5t-28 23.5q-24 24 -42 54t-34 62.5t-30.5 64.5t-31.5 60q-5 10 -2.5 18t8.5 11t13 0t10 -15q22 -24 39 -51t35.5 -53t43 -49.5t62.5 -41.5q23 -4 43.5 15t39 48.5t35.5 63t33 58.5q11 17 29 38.5
t39 37.5q12 12 27.5 16.5t29.5 2t24.5 -13t12.5 -28.5q23 -69 60.5 -108.5t85 -52.5t101.5 0.5t109 50.5q23 17 45 37.5t46 31.5q-8 -32 6.5 -52t43.5 -37q95 -40 196.5 -53.5t204.5 -6.5t204.5 30.5t197.5 57.5q11 2 22 9.5t22 17t21 19t19 15.5q9 8 17.5 4t-0.5 -17
q-4 -5 -5 -12t-1 -14q-1 -14 9 -22.5t24 -13t29.5 -6t24.5 -1.5q33 -3 66 2t57 32q7 8 14 17t15 14q5 6 8 3t1 -10q-4 -10 -9 -21t-8 -19q26 -8 50 -17t50 -16q1 15 0 31t0 31zM810 506q3 4 11.5 14.5t18 22.5t18.5 22.5t13 14.5q9 10 17 2q23 -20 46.5 -37.5t38.5 -33.5
q5 -6 -1 -13q-14 -21 -29.5 -39t-30.5 -38q-6 -11 -17 -5q-8 4 -20.5 13.5t-25.5 20.5t-24 22t-16 18q-3 5 -2.5 8t3.5 8z" />
    <glyph glyph-name="sf266.005" unicode="&#x2018;" horiz-adv-x="353" 
d="M100 1397q38 8 76.5 6.5t76.5 -1.5l-26 -358l-102 16z" />
    <glyph glyph-name="sf266.005" unicode="&#x2019;" horiz-adv-x="353" 
d="M100 1397q38 8 76.5 6.5t76.5 -1.5l-26 -358l-102 16z" />
    <glyph glyph-name="sf266.004" unicode="&#x201c;" horiz-adv-x="542" 
d="M289 1403q38 7 75.5 6.5t77.5 -0.5l-26 -359l-103 16zM100 1395q13 2 32.5 3.5t41 2.5t42.5 1.5t37 0.5l-26 -340q-45 -11 -69 -15t-29 -4q-1 0 -1 1q-3 26 -5.5 54.5t-5.5 68t-7 94t-10 133.5z" />
    <glyph glyph-name="sf266.006" unicode="&#x201d;" horiz-adv-x="542" 
d="M289 1403q38 7 75.5 6.5t77.5 -0.5l-26 -359l-103 16zM100 1395q13 2 32.5 3.5t41 2.5t42.5 1.5t37 0.5l-26 -340q-45 -11 -69 -15t-29 -4q-1 0 -1 1q-3 26 -5.5 54.5t-5.5 68t-7 94t-10 133.5z" />
    <glyph glyph-name="sf256.009" unicode="{" horiz-adv-x="697" 
d="M214 472v26v20v11q0 12 -1 13q-1 26 -2 53.5t-2 55.5q0 28 -1 55t-3 52q0 9 -0.5 26.5t-0.5 37.5q0 21 -0.5 41.5t-0.5 35.5v25q0 91 21 165t65 126.5t112 80.5t163 28q2 0 15.5 -1t27.5 -3.5t22 -5.5t0 -7l-49 -16q-94 -37 -132 -113q-35 -75 -40 -172q0 -45 1 -110.5
t-2 -139.5t-11.5 -150t-28 -141t-51.5 -113.5t-81 -67.5q-22 -8 -52.5 -15.5t-54.5 -11.5q24 -4 54.5 -11t52.5 -17q52 -18 84.5 -66.5t51 -114t26 -141.5t9.5 -150t1 -139.5t1 -109.5q5 -97 40 -172q38 -76 132 -113l49 -16q7 -4 -1 -7.5t-21.5 -5.5t-26.5 -3.5t-16 -1.5
q-95 0 -163 28.5t-112 81t-65 126t-21 164.5v26q0 15 0.5 35.5t0.5 40.5t0.5 38t0.5 27q2 25 3 51.5t1 54.5q1 29 2 56.5t2 52.5q1 1 1 13v11v19v28q3 38 -12.5 73.5t-42.5 64t-61 49t-68 28.5q34 7 68.5 27.5t61 49.5t42 64.5t12.5 73.5z" />
    <glyph glyph-name="sf256.010" unicode="}" horiz-adv-x="697" 
d="M483 472q-3 -38 12.5 -73.5t42 -65t60.5 -49.5t69 -27q-34 -8 -68 -28.5t-61 -49t-42.5 -64t-12.5 -73.5v-28v-19v-11q0 -12 1 -13q1 -25 2 -52.5t2 -56.5q0 -28 1 -54.5t3 -51.5q0 -9 0.5 -27t0.5 -38t0.5 -40.5t0.5 -35.5v-26q0 -91 -21 -164.5t-65 -126t-112.5 -81
t-162.5 -28.5q-2 0 -15.5 1.5t-27 4t-22 5.5t-0.5 7l49 16q94 37 132 113q35 75 40 172q2 44 1 109.5t1 139.5t9.5 150t26 141.5t51 114t84.5 66.5q22 10 52.5 17t54.5 11q-24 4 -54.5 11.5t-52.5 15.5q-49 19 -81 67.5t-51.5 113.5t-28 141t-11.5 150t-2 139.5t1 110.5
q-5 97 -40 172q-38 76 -132 113l-49 16q-8 4 0 7t22 5.5t27.5 3.5t15.5 1q94 0 162.5 -28t112.5 -80.5t65 -126.5t21 -165v-25q0 -15 -0.5 -35.5t-0.5 -41.5q0 -20 -0.5 -37.5t-0.5 -26.5q-2 -25 -3 -52t-1 -55q-1 -28 -2 -55.5t-2 -53.5q-1 -1 -1 -13v-11v-20v-26z" />
    <glyph glyph-name="sf261.004" unicode="^" horiz-adv-x="646" 
d="M0 545l323 520l323 -519l-108 -1l-220 350l-210 -350h-108z" />
    <glyph glyph-name="sf273.004" unicode="\" horiz-adv-x="801" 
d="M801 -216l-131 1l-670 1385l130 -2z" />
    <glyph glyph-name="sf266.007" unicode="`" horiz-adv-x="415" 
d="M0 1358q64 4 105 5t60 0q1 -1 9 -1h10h20h38l123 -305l-102 16z" />
    <glyph glyph-name="sf438.007" unicode="~" horiz-adv-x="1103" 
d="M111 552q-33 -2 -28 -5q-13 4 -9.5 16t19.5 24q94 69 180.5 99t179.5 15q27 -6 52.5 -17t49.5 -24q49 -28 100 -42q48 -10 96 -5.5t92.5 19t82.5 35.5t67 43q26 18 33 16t-13 -31q-40 -50 -96 -94t-120.5 -74t-132.5 -42.5t-131 0.5q-33 6 -59 19t-48.5 27t-44.5 26
t-48 17q-65 14 -118.5 4t-103.5 -26z" />
    <glyph glyph-name="three.001" unicode="&#x26;" horiz-adv-x="905" 
d="M416 881q-27 0 -48.5 -10.5t-36.5 -28t-23.5 -41t-8.5 -48.5q2 -32 13 -60.5t28 -54.5t37.5 -49t40.5 -44l8 -1q43 43 74 97.5t32 116.5q0 25 -8 47.5t-23 39.5t-36.5 26.5t-48.5 9.5zM394 350q-35 -17 -64 -46.5t-50 -65.5t-33.5 -75t-13.5 -76q0 -36 12 -62.5
t32.5 -43.5t48.5 -25t60 -8q34 0 67.5 8t64.5 23.5t56.5 38t42.5 51.5v6q-21 26 -41.5 52t-40.5 52q-34 43 -67 85t-68 84zM688 759q-2 -43 -17 -82t-37.5 -75t-50 -69.5t-55.5 -65.5q-4 -4 -7 -7.5t-7 -7.5v-7q21 -26 41.5 -53t41.5 -54q27 -35 54.5 -69.5t54.5 -69.5h8
q17 25 33 49.5t32 49.5q15 23 29 44t30 44l4 -2q11 -3 26.5 -8t25 -8.5t11.5 -3.5l-143 -255v-5q11 -17 24 -33.5t26 -33.5q14 -19 28.5 -37t26.5 -38q-8 -18 -15 -35.5t-15 -36.5q-9 -21 -16 -38.5t-16 -37.5l-40 52q-20 28 -40.5 55t-42.5 53h-8q-39 -54 -92 -101
t-119 -71q-49 -17 -96 -17q-58 0 -112 22.5t-92 68.5q-38 45 -59.5 98t-21.5 111q0 26 6 56q18 91 73.5 166t133.5 126v8q-32 28 -61.5 62.5t-52 73.5t-36 81.5t-13.5 87.5q0 23 4 46q8 49 30.5 96t57 83.5t79.5 59t98 24.5h1q8 2 15 2h16q53 0 99.5 -24t81.5 -63t55 -88.5
t20 -100.5v-11t-1 -10v-1z" />
    <glyph glyph-name="sf266.008" unicode="!" horiz-adv-x="430" 
d="M70 1060l290 88l-86 -958h-122zM108 -63q5 7 18 23.5t28 35t29 34.5t20 22q8 10 14 9.5t12 -5.5q36 -31 72.5 -59t60.5 -53q5 -5 4 -9.5t-6 -10.5q-22 -32 -46 -61t-47 -60q-10 -18 -27 -7q-13 7 -32.5 22t-39 32t-36.5 33.5t-25 27.5q-6 8 -5 13t6 13z" />
    <glyph glyph-name="sf257.002" unicode="&#x66a;" horiz-adv-x="880" 
d="M172 -150q-13 4 -38.5 13t-59.5 29l636 1118q18 -10 46.5 -21.5t51.5 -23.5q0 -1 -41 -73t-121 -212.5t-199 -348.5t-275 -481zM129 823q5 38 31 56.5t57 18.5q30 0 56 -18.5t29 -56.5q0 -60 0.5 -118.5t0.5 -118.5q-6 -39 -34 -57t-59 -16t-56 23.5t-25 61.5v225z
M590 296q5 38 31 56.5t57 18.5q30 0 56 -18.5t29 -56.5q0 -60 0.5 -118.5t0.5 -118.5q-6 -39 -34 -57t-59 -16t-56 23.5t-25 61.5v225z" />
    <glyph glyph-name="sf268.005" unicode="_" horiz-adv-x="897" 
d="M897 -177v-114h-897v114h897z" />
    <glyph glyph-name="sf268.006" unicode="&#x623;" horiz-adv-x="362" 
d="M120 1062q6 31 14.5 66.5t17.5 68.5t19 60t19 42l6 10t10 6q0 -29 -0.5 -53t-0.5 -54q20 -188 34 -328t23.5 -241t15.5 -168t8.5 -108.5t3.5 -62.5t1 -31v-11q1 -88 -12.5 -170t-45.5 -148q-4 -6 -6.5 -2.5t-3.5 12.5q-15 159 -24.5 282t-19.5 223q-13 124 -22.5 215
t-16 156t-10.5 106.5t-6 67t-3 37.5t-1 18v7zM14 1534q7 19 14.5 42t16.5 46t20.5 44t26.5 36q15 13 34 22.5t40 13t42 -0.5t40 -17q0 -6 -4 -18t-9.5 -26t-11.5 -27t-11 -22q-10 -12 -19 -3q-15 12 -32 15t-33.5 -1.5t-31 -14t-26.5 -22.5q4 -18 21.5 -30.5t39 -19.5
t43 -10t33.5 -3q33 2 66.5 13t63.5 23q14 5 8 -6q-12 -21 -24.5 -40.5t-29.5 -44.5q-35 -12 -72.5 -23t-72.5 -25.5t-66 -35.5t-53 -52q-2 -4 -6.5 -4.5t-2.5 5.5q4 29 16 53.5t27 51.5q2 3 -1 7q-18 13 -33 30.5t-13 43.5z" />
    <glyph glyph-name="sf268.007" unicode="&#x625;" horiz-adv-x="362" 
d="M120 1062q6 31 14.5 66.5t17.5 68.5t19 60t19 42l6 10t10 6q0 -29 -0.5 -53t-0.5 -54q20 -188 34 -328t23.5 -241t15.5 -168t8.5 -108.5t3.5 -62.5t1 -31v-11q1 -88 -12.5 -170t-45.5 -148q-4 -6 -6.5 -2.5t-3.5 12.5q-15 159 -24.5 282t-19.5 223q-13 124 -22.5 215
t-16 156t-10.5 106.5t-6 67t-3 37.5t-1 18v7zM56 -363q7 19 14.5 42t16.5 46t20.5 44t26.5 36q15 13 34 22.5t40 13t42 -0.5t40 -17q0 -6 -4 -18t-9.5 -26t-11.5 -27t-11 -22q-10 -12 -19 -3q-15 12 -32 15t-33.5 -1.5t-31 -14t-26.5 -22.5q4 -18 21.5 -30.5t39 -19.5
t43 -10t33.5 -3q33 2 66.5 13t63.5 23q14 5 8 -6q-12 -21 -24.5 -40.5t-29.5 -44.5q-35 -12 -72.5 -23t-72.5 -25.5t-66 -35.5t-53 -52q-2 -4 -6.5 -4.5t-2.5 5.5q4 29 16 53.5t27 51.5q2 3 -1 7q-18 13 -33 30.5t-13 43.5z" />
    <glyph glyph-name="sf304.011" unicode="&#x6e1;" 
d="M-189 1391q1 4 8.5 7t17 5t18.5 3.5t14 1.5q35 0 68 -15t63 -31q43 -27 77.5 -42.5t62 -24t48.5 -10.5t38 -2h3q2 0 3.5 -0.5t-1.5 -4.5q-8 -16 -18.5 -29.5t-21.5 -30.5q-2 -3 -17.5 -0.5t-40.5 3t-58.5 -3t-70.5 -18.5q-52 -24 -88 -37t-62 -18.5t-46 -6.5t-39 -1v92
q33 0 58.5 2t49.5 7.5t49 14.5t57 23q1 3 0 4q-19 11 -40.5 24t-44 22.5t-45 13.5t-43.5 -4q-4 -1 -6.5 -3t-5.5 -1q-8 2 -3 13q1 2 3 11.5t13 35.5z" />
    <glyph glyph-name="sf264.005" unicode="&#x66c;" horiz-adv-x="268" 
d="M121 318q-17 0 -21 -9t-10 -23q-3 -8 -9 -17.5t-15 -0.5q-11 14 -13.5 30.5t-2.5 32.5t4.5 36t13.5 37.5t23 29t34 11.5q25 0 42.5 -13t28.5 -32.5t16.5 -43t5.5 -43.5q-4 -85 -38 -161.5t-94 -136.5q-15 -15 -22 -12.5t7 23.5q16 27 32 54.5t29 56.5t21 59.5t8 62.5
q0 21 -7 40t-33 19z" />
    <glyph glyph-name="sf256" unicode="&#x6f0;" horiz-adv-x="500" 
d="M273 672q32 -32 30 -72q0 -41 -30 -71q-30 -29 -71 -29t-70 29q-30 30 -30 71q-2 40 30 72q32 31 70 29q39 2 71 -29z" />
    <glyph glyph-name="sf258" unicode="&#x6f1;" horiz-adv-x="397" 
d="M99 1299h100v-1100h-100v1100z" />
    <glyph glyph-name="sf259" unicode="&#x6f2;" horiz-adv-x="699" 
d="M99 199v1000l91 100h409v-100h-400v-1000h-100z" />
    <glyph glyph-name="sf260" unicode="&#x6f3;" horiz-adv-x="1001" 
d="M101 1299h100v-300h200v300h100v-300h200v301h100v-331l-70 -69h-230l-40 54l-60 -54l-200 1v-702h-100v1100z" />
    <glyph glyph-name="sf261" unicode="&#x6f4;" horiz-adv-x="699" 
d="M99 199v1000l91 100h409v-100h-400v-1000h-100zM738 1515l-165 -217l17 -113l200 278z" />
    <glyph glyph-name="sf262" unicode="&#x6f5;" horiz-adv-x="801" 
d="M200 1099v-800h300v800h-300zM600 1199v-900l-100 -100h-400v900l100 100h400z" />
    <glyph glyph-name="sf263" unicode="&#x6f6;" horiz-adv-x="801" 
d="M500 199v1000h-400v100h409l91 -100v-1000h-100z" />
    <glyph glyph-name="sf264" unicode="&#x6f7;" horiz-adv-x="895" 
d="M86 475l748 303l2 -110l-543 -214l551 -186l3 -110l-760 257z" />
    <glyph glyph-name="sf265" unicode="&#x6f8;" horiz-adv-x="804" 
d="M431 1296l290 -1097h-110l-210 797l-190 -797h-110l270 1097h60z" />
    <glyph glyph-name="sf266" unicode="&#x6f9;" horiz-adv-x="800" 
d="M601 1300v-1100h-100v500h-400v300q0 300 400 300h100zM201 800h300v400q-142 -11 -215 -50q-74 -40 -85 -150v-200z" />
    <glyph glyph-name="sf265.003" unicode="&#x6c2;" horiz-adv-x="1205" 
d="M170 799q67 120 187 184q121 65 246 65q126 0 245 -65q121 -65 188 -184q68 -121 68 -251q0 -131 -66 -250q-66 -118 -186 -184q-118 -66 -249 -66q-129 0 -249 66q-120 67 -185 184q-66 119 -66 250q0 132 67 251zM406 895q-96 -51 -150 -147q-53 -97 -53 -201
q0 -105 52 -199q53 -95 148 -148q95 -52 200 -52t199 52t148 148q53 95 53 199q0 105 -54 201t-150 147q-94 52 -196 52t-197 -52zM693 1253q0 25 -18 44q-19 19 -45 19t-44 -19q-19 -18 -19 -44q0 -27 19 -45q16 -19 44 -19h110v-37h-231v37h45q-22 26 -22 64q0 42 28 70
q29 29 70 29t70 -29q31 -29 31 -70h-38z" />
    <glyph glyph-name="o.001" unicode="&#xa4;" horiz-adv-x="1153" 
d="M90 858l135 135l127 -128q51 33 110 51t125 18q63 0 120 -17t107 -48l114 114l135 -135l-112 -112q35 -52 53.5 -112.5t18.5 -126.5q0 -65 -18 -124t-50 -110l103 -103l-135 -135l-104 104q-51 -32 -109.5 -49.5t-122.5 -17.5q-67 0 -127.5 18.5t-111.5 52.5l-118 -118
l-135 135l120 120q-31 50 -47.5 107t-16.5 120q0 64 17.5 122.5t49.5 109.5zM333 495q0 -54 20 -100.5t55 -81.5t81.5 -55t100.5 -20t101 20t82 55t55 81.5t20 100.5t-20 101t-55 82t-82 55t-101 20t-100.5 -20t-81.5 -55t-55 -82t-20 -101z" />
    <glyph glyph-name="o.002" unicode="&#xa7;" horiz-adv-x="1032" 
d="M234 1015q-58 51 -96 117t-38 142q0 79 34.5 149t91 122t129.5 82.5t150 30.5q69 0 134.5 -23t119.5 -64t93 -98t56 -124q9 -37 10.5 -69.5t1.5 -64.5h-186v22q0 47 -17.5 90t-48.5 75.5t-73 51.5t-91 19q-35 0 -73 -14t-70.5 -38.5t-53.5 -57.5t-21 -71q0 -23 17 -54.5
t49 -66t77.5 -68.5t101.5 -60q45 -23 91 -47t88.5 -51.5t80 -59.5t65 -71t43.5 -85.5t16 -102.5q0 -81 -35 -146t-92 -111q-34 -26 -70 -45l9 -6q43 -28 80.5 -60.5t65 -71t43.5 -85t16 -102.5q0 -81 -35 -146t-92 -111t-130 -70.5t-148 -24.5q-63 0 -123 19t-111 54
t-90.5 84t-60.5 108l-9 26q-6 20 -11 55t-5 99h183v-20q0 -36 16 -78t46 -77.5t74 -59.5t100 -24q27 0 57 6q31 7 57 21.5t45.5 35.5t30.5 48t11 60q0 47 -20 79.5t-54 64.5l-1 1q-5 4 -17 12t-45.5 27t-96.5 53.5t-169 91.5q-44 22 -83 55t-69 74t-47.5 88t-17.5 97
q0 79 34 149t91 122q30 27 63 48q-19 10 -36.5 22.5t-34.5 26.5zM582 815q-38 21 -86 19.5t-91 -22t-72.5 -58.5t-29.5 -89q0 -45 46 -101q19 -24 43.5 -45t53 -35t61.5 -19.5t69 1.5q31 7 57 21.5t45.5 35.5t30.5 48t11 60q0 47 -20 79.5t-54 64.5l-1 1q-5 4 -17 12t-46 27
z" />
    <glyph glyph-name="o.003" unicode="&#xb6;" horiz-adv-x="1032" 
d="M403 -215v769q-4 -2 -5 -2q-62 0 -116 23.5t-94.5 64t-64 94.5t-23.5 116t23.5 116.5t64.5 95t96 64.5t119 25h464v-1366h-131v1235h-133v-1235h-200z" />
    <glyph glyph-name="o.004" unicode="&#x2022;" horiz-adv-x="1057" 
d="M80 485q0 93 35 174.5t96 142.5t142.5 96.5t174.5 35.5t174.5 -35.5t142.5 -96.5t96.5 -142.5t35.5 -174.5t-35.5 -174.5t-96.5 -142.5t-142.5 -96t-174.5 -35t-174.5 35t-142.5 96t-96 142.5t-35 174.5z" />
    <glyph glyph-name="degree" unicode="&#xb0;" horiz-adv-x="1057" 
d="M271 716q0 -54 20 -100.5t55 -81.5t81.5 -55t100.5 -20t101 20t82 55t55 81.5t20 100.5t-20 101t-55 82t-82 55t-101 20t-100.5 -20t-81.5 -55t-55 -82t-20 -101zM80 715q0 93 35 174.5t96 142.5t142.5 96.5t174.5 35.5t174.5 -35.5t142.5 -96.5t96.5 -142.5t35.5 -174.5
t-35.5 -174.5t-96.5 -142.5t-142.5 -96t-174.5 -35t-174.5 35t-142.5 96t-96 142.5t-35 174.5z" />
    <glyph glyph-name="periodcentered" unicode="&#xb7;" horiz-adv-x="682" 
d="M200 717h282v-305h-282v305z" />
    <glyph glyph-name="uni2219" unicode="&#x2219;" horiz-adv-x="682" 
d="M200 307h282v-305h-282v305z" />
    <glyph glyph-name="logicalnot" unicode="&#xac;" horiz-adv-x="1449" 
d="M100 1051l1249 1v-553h-194v358h-1055v194z" />
    <glyph glyph-name="uni200C" unicode="&#x200c;" 
d="M-62 1216h121v-1666h-121v1666z" />
    <glyph glyph-name="uni200D" unicode="&#x200d;" 
d="M-360 1459l86 86l275 -276l278 278l86 -86l-278 -278l250 -249l-86 -86l-192 192v-1490h-121v1484l-184 -184l-86 86l248 247zM0 1096h3l-2 1z" />
    <glyph glyph-name="uni200E" unicode="&#x200e;" 
d="M653 1148l-386 -386l-85 85l236 236h-359v-1543h-121v1663l487 1l-246 247l85 85z" />
    <glyph glyph-name="uni200F" unicode="&#x200f;" 
d="M-264 1536l85 -85l-246 -247l487 -1v-1663h-121v1543h-359l236 -236l-85 -85l-386 386z" />
    <glyph glyph-name="uni25CC" unicode="&#x25cc;" horiz-adv-x="1449" 
d="M786 44q54 8 104 28t95 54l138 -137q-75 -61 -160.5 -95.5t-176.5 -43.5v194zM658 -150q-89 9 -173.5 43t-156.5 94l139 139q44 -32 92 -52.5t99 -28.5v-195zM100 544q10 89 44 173.5t94 157.5l140 -140q-33 -44 -53 -92t-29 -99h-196zM297 409q8 -52 28 -101t53 -93
l-139 -139q-61 74 -95.5 158.5t-43.5 174.5h197zM1349 409q-9 -88 -42.5 -172t-92.5 -157l-139 138q64 88 79 191h195zM1153 544q-18 102 -82 188l140 140q60 -72 94 -156t43 -172h-195zM658 903q-101 -15 -188 -79l-141 140q73 60 157 93.5t172 42.5v-197zM789 1100
q90 -10 174.5 -44.5t158.5 -94.5l-138 -140q-45 33 -94 53.5t-101 28.5v197z" />
    <glyph glyph-name="C.001" unicode="&#x20ac;" horiz-adv-x="1015" 
d="M776 639v-106h-493v-102h493v-105h-493v-164q0 -18 15 -51t43.5 -65.5t69.5 -56t94 -23.5h7q37 0 73 13t65 35.5t50 54t29 69.5q3 23 5 52t2 59h179v-106q0 -22 -4 -46t-10 -43q-21 -62 -60.5 -112t-91.5 -85t-113.5 -54.5t-125.5 -19.5q-83 0 -155.5 29.5t-127.5 81.5
t-88.5 122.5t-38.5 151.5v158h-81v105h81v102h-81v106h81v121q0 23 1 45.5t7 45.5q16 69 53 127t89.5 100.5t117 66t136.5 23.5q69 0 130 -21t111.5 -58.5t88.5 -90.5t62 -116q11 -32 13.5 -66t2.5 -68v-24h-186q-1 1 -1 14q0 22 -1.5 38t-4.5 42v1q-9 37 -30 67t-50.5 51.5
t-65 33t-72.5 11.5q-43 0 -81 -16.5t-67 -44.5t-47.5 -65t-22.5 -78v-139h493z" />
    <glyph glyph-name="sf314.001" horiz-adv-x="1053" 
d="M530 163q51 -5 101.5 -2t98.5 10q0 7 -4 32t-9.5 51.5t-12 47.5t-11.5 21q-3 0 -10.5 -5.5t-24.5 -23t-48 -49t-80 -82.5zM443 164q7 2 13.5 5t16 10.5t24.5 22t38 39t56.5 61.5t80.5 90q-94 189 -195.5 317.5t-221.5 205.5q-2 -10 -4 -24t-6.5 -25.5t-12.5 -16.5t-23 4
q-48 42 -87 85.5t-69 100.5q-3 51 5 99t15 97q4 18 15.5 19.5t23.5 -6.5q95 -57 170.5 -111.5t136.5 -109t109 -111.5t89 -119.5t77 -132t72 -149.5q17 61 19.5 122.5t0 124t-4.5 125t5 125.5q-12 15 -23.5 30.5t-21 32t-15 34.5t-4.5 38q-3 13 9 38.5t30 53.5t38 54t32 40
q5 7 10.5 12t8.5 5q10 0 4 -21q-10 -32 -2.5 -58t25 -48.5t40 -42.5t43.5 -40q5 -13 0.5 -31t-14.5 -38t-23 -40.5t-24 -38.5t-18.5 -32t-6.5 -20q3 -89 0 -156t-9.5 -117t-16.5 -85t-21 -60.5t-22.5 -43t-21.5 -32.5q20 -51 25 -108.5t-1.5 -118t-23.5 -122t-41 -121.5
q-26 -1 -67 -2.5t-89 -4t-99.5 -4.5t-99.5 -4.5t-88 -4t-65 -2.5q-3 12 1 43t12.5 63.5t19.5 58.5t22 29q5 0 28 2t49 4.5t49 5t28 4.5zM-21 1322q-34 -15 -13 17q42 48 86.5 74.5t95.5 28.5q31 0 60 -10t60 -10q26 0 51.5 8t48.5 21t41.5 28.5t30.5 30.5q12 13 16.5 12.5
t-3.5 -18.5q-15 -31 -40.5 -61.5t-57.5 -54.5t-67.5 -39t-70.5 -15q-19 0 -34.5 4t-29.5 9t-27.5 9t-28.5 4q-36 0 -64.5 -12t-53.5 -26z" />
    <glyph glyph-name="sf325.002" horiz-adv-x="1300" 
d="M265 762q-23 21 -55.5 56.5t-63.5 77.5t-53 85t-23 78q6 45 6 77v54q0 21 3.5 31t17.5 10q28 -7 63.5 -30.5t73 -56.5t76 -72.5t73 -78t63.5 -73t48 -57.5q43 -54 75.5 -120t52 -137t24.5 -143t-7 -137q-32 -173 -42 4q-5 67 -24 128t-45 113t-56.5 95.5t-57.5 77
t-48.5 56t-29.5 32.5q1 -44 -4 -67t-14.5 -29.5t-23 1.5t-29.5 25zM768 919q-12 72 -4 143.5t24 143.5q1 3 4 16t7 26.5t9 24t10 9.5t10 -18t9 -58q14 -102 29.5 -208t36 -213t47.5 -214.5t63 -212.5q15 -44 38.5 -73.5t61 -48t91.5 -26t131 -6.5v-199q-17 -2 -32.5 -3.5
t-30.5 -1.5q-14 0 -28 0.5t-28 1.5q-69 4 -121 18.5t-90 47.5t-64 89t-42 143q-2 11 -5 32.5t-6.5 45t-7 44.5t-7.5 31q-16 -76 -45.5 -147t-71.5 -131t-96.5 -106t-121.5 -72q-6 -4 -23 -9.5t-56.5 -14.5t-107 -23t-175.5 -35q-13 -2 -30 -3.5t-26 0t-4 8t37 21.5
q55 24 113.5 52t117.5 62t116 73.5t109 86.5q30 27 68.5 67t71.5 87t54 96.5t16 96.5q-4 38 -15.5 122.5t-35.5 234.5zM-17 1323q-34 -15 -13 17q42 48 86.5 74.5t95.5 28.5q31 0 60 -10t60 -10q26 0 51.5 8t48.5 21t41.5 28.5t30.5 30.5q12 13 16.5 12.5t-3.5 -18.5
q-15 -31 -40.5 -61.5t-57.5 -54.5t-67.5 -39t-70.5 -15q-19 0 -34.5 4t-29.5 9t-27.5 9t-28.5 4q-36 0 -64.5 -12t-53.5 -26z" />
    <glyph glyph-name="afii57470" unicode="&#x647;" horiz-adv-x="1205" 
d="M170 799q67 120 187 184q121 65 246 65q126 0 245 -65q121 -65 188 -184q68 -121 68 -251q0 -131 -66 -250q-66 -118 -186 -184q-118 -66 -249 -66q-129 0 -249 66q-120 67 -185 184q-66 119 -66 250q0 132 67 251zM406 895q-96 -51 -150 -147q-53 -97 -53 -201
q0 -105 52 -199q53 -95 148 -148q95 -52 200 -52t199 52t148 148q53 95 53 199q0 105 -54 201t-150 147q-94 52 -196 52t-197 -52z" />
    <glyph glyph-name="afii57417" unicode="&#x629;" horiz-adv-x="1205" 
d="M170 799q67 120 187 184q121 65 246 65q126 0 245 -65q121 -65 188 -184q68 -121 68 -251q0 -131 -66 -250q-66 -118 -186 -184q-118 -66 -249 -66q-129 0 -249 66q-120 67 -185 184q-66 119 -66 250q0 132 67 251zM406 895q-96 -51 -150 -147q-53 -97 -53 -201
q0 -105 52 -199q53 -95 148 -148q95 -52 200 -52t199 52t148 148q53 95 53 199q0 105 -54 201t-150 147q-94 52 -196 52t-197 -52zM443 1329q30 29 70 29q41 0 71 -29q30 -30 30 -71q0 -40 -30 -71q-30 -30 -71 -30t-71 30q-29 30 -29 71t30 71zM660 1329q30 29 70 29
q41 0 71 -29q30 -30 30 -71q0 -40 -30 -71q-30 -30 -71 -30t-71 30q-29 30 -29 71t30 71z" />
  </font>
</defs>
</svg>
