<?xml version="1.0" standalone="no"?>
<!DOCTYPE svg PUBLIC "-//W3C//DTD SVG 1.1//EN" "http://www.w3.org/Graphics/SVG/1.1/DTD/svg11.dtd" >
<svg>
<metadata>
Created by FontForge 20110222 at Thu Jul  9 01:11:32 2015
 By www-data
</metadata>
<defs>
<font id="PakLotus" horiz-adv-x="0" >
  <font-face 
    font-family="Pak Lotus"
    font-weight="400"
    font-stretch="normal"
    units-per-em="2048"
    panose-1="2 0 5 6 0 0 0 2 0 3"
    ascent="1638"
    descent="-410"
    x-height="661"
    cap-height="1148"
    bbox="-2164.11 -1054 6650 1746"
    underline-thickness="102"
    underline-position="-154"
    unicode-range="U+0020-FEFB"
  />
<missing-glyph horiz-adv-x="257" 
 />
    <glyph glyph-name="sf277.046" unicode="&#x622;" horiz-adv-x="497" arabic-form="final" 
d="M131 1105l99 110q0 -54 6 -158l6 -103q6 -114 7 -134l12 -173l9 -127l6 -89q9 -115 24.5 -161.5t54.5 -74.5q54 -40 162 -40q32 0 38 -18l1 -4q1 -2 1 -4v-94q0 -18 -17.5 -26.5t-54.5 -8.5q-160 0 -224 77q-30 36 -42.5 85.5t-20.5 162.5l-5 72l-6 107l-8 116
q-8 111 -9 121l-12 121l-9 97q-5 44 -18 146zM37 1435q11 0 48 -10q46 -12 98 -12q90 0 173.5 31t118.5 78q7 8 11 8l3 -1q2 -2 2 -6q0 -20 -18 -54t-41 -57q-47 -46 -135.5 -76.5t-174.5 -30.5q-33 0 -74 7l-26 4q-10 2 -16 2q-33 0 -86 -50q-6 -6 -9 -6q-7 0 -7 15
q0 32 31 84q22 34 49 54t53 20z" />
    <glyph glyph-name="sf277" unicode="&#x627;" horiz-adv-x="481" arabic-form="final" 
d="M115 1105l99 110q0 -54 6 -158l5 -103q6 -114 8 -134l12 -173l8 -127l7 -89q9 -115 24.5 -161.5t53.5 -74.5q55 -40 162 -40q32 0 39 -18l1 -4v-4v-94q0 -18 -17.5 -26.5t-54.5 -8.5q-159 0 -224 77q-30 36 -42.5 85.5t-19.5 162.5l-5 72l-6 107l-9 116q-8 111 -8 121
l-12 121l-10 97q-4 44 -17 146z" />
    <glyph glyph-name="sf300.001" unicode="&#x628;" horiz-adv-x="428" arabic-form="initial" 
d="M201 -97q71 -71 133 -106q-29 -33 -45.5 -58t-43.5 -77q-59 52 -131 94l-13 7l15 19q61 79 85 121zM266 530q31 -48 53 -112q12 -34 20 -77t8 -69q0 -48 -36 -131q-25 -56 -43 -85q-10 -14 -30 -23.5t-65 -18.5q-64 -14 -123 -14h-32h-18q-28 0 -43.5 9.5t-15.5 25.5v94
v4l1 4q7 18 38 18l21 1h21l43 2q75 0 125.5 15t84.5 48q-13 46 -31 80.5t-54 82.5z" />
    <glyph glyph-name="sf277.017" unicode="&#x628;" horiz-adv-x="453" arabic-form="medial" 
d="M243 -49q71 -71 133 -106q-29 -33 -45.5 -58t-43.5 -76q-59 51 -132 93l-12 7l15 19q61 79 85 121zM-59 35v94v4l1 4q7 18 38 18q97 0 159.5 26.5t111.5 87.5q21 27 35 27t20 -25l4 -16q10 -35 27 -55t49 -32q35 -13 87 -13q32 0 38 -18l1 -4q1 -2 1 -4v-94
q0 -17 -16.5 -26t-45.5 -9q-111 0 -178 98q-19 28 -28 28q-8 0 -41 -31q-60 -56 -101 -75.5t-98 -19.5q-64 0 -64 35z" />
    <glyph glyph-name="sf277.002" unicode="&#x628;" horiz-adv-x="1626" arabic-form="final" 
d="M1401 131q-68 -45 -146 -83t-139 -56q-174 -51 -420 -51q-260 0 -419 76q-90 43 -137.5 111t-47.5 154q0 106 55 212q36 69 55 69q7 0 7 -9q0 -7 -9 -30q-27 -74 -27 -121q0 -135 150 -210q79 -40 197.5 -62t248.5 -22q179 0 349.5 33t228.5 79q22 17 26 43q8 47 26 47
q10 0 14 -8t13 -43q10 -44 29.5 -63t66.5 -31q49 -12 106 -12h16q33 0 40 -18l1 -4q1 -3 1 -5v-93q0 -15 -14 -25t-35 -10q-91 0 -137 15q-44 14 -64 38t-35 79zM827 -159q70 -71 133 -106q-29 -33 -45.5 -58t-43.5 -77q-59 52 -132 94l-12 7l15 19q61 79 85 121z" />
    <glyph glyph-name="sf300.002" unicode="&#x67e;" horiz-adv-x="455" arabic-form="initial" 
d="M-59 41q0 -23 19.5 -32t39.5 -9q47 0 91 3.5t80 10t60.5 15.5t32.5 20q12 16 27 46t27.5 62t21 61t8.5 44q0 21 -3 50t-11.5 64.5t-24.5 76t-41 82.5l-78 -148q32 -40 51.5 -78.5t34.5 -85.5q-13 -13 -31 -25t-50.5 -21t-83 -14t-127.5 -5q-20 0 -31.5 -9t-11.5 -32v-76z
M267 -61q-13 -32 -30.5 -61.5t-39.5 -55.5q-34 18 -65 40.5t-54 47.5q-17 -35 -40 -67.5t-48 -63.5q40 -17 73.5 -43.5t65.5 -52.5q13 31 32.5 58.5t41.5 53.5q32 -17 63 -40.5t60 -49.5q29 65 82 127q-40 23 -75 49.5t-66 57.5zM211 -279q-17 -38 -39.5 -72t-50.5 -65
q38 -18 71 -46.5t64 -59.5q19 38 47 73.5t54 67.5q-41 20 -76 47.5t-70 54.5z" />
    <glyph glyph-name="sf277.021" unicode="&#x67e;" horiz-adv-x="455" arabic-form="medial" 
d="M-59 41q0 -23 19.5 -32t39.5 -9q57 0 99 20t71.5 43.5t48 43.5t29.5 20t22 -19.5t33 -44.5q11 -11 25 -22.5t32.5 -20.5t42 -14.5t52.5 -5.5q20 0 39.5 9t19.5 32v76q0 23 -11.5 32t-31.5 9q-49 0 -79 10.5t-46.5 26t-23.5 34t-11 34t-8.5 26t-15.5 10.5q-10 0 -20 -10.5
t-23.5 -26t-33 -34t-50 -34t-73.5 -26t-103 -10.5q-20 0 -31.5 -9t-11.5 -32v-76zM308 -63q-12 -32 -30 -61.5t-40 -55.5q-34 18 -64.5 40.5t-53.5 47.5q-17 -35 -40.5 -67.5t-47.5 -63.5q40 -17 73.5 -43.5t65.5 -52.5q12 31 32 58.5t42 53.5q32 -17 62.5 -40.5t59.5 -49.5
q16 34 36 65t46 62q-40 23 -75 49.5t-66 57.5zM253 -281q-34 -75 -90 -137q38 -18 71 -46.5t64 -59.5q18 38 46 73.5t54 67.5q-40 20 -75 47.5t-70 54.5z" />
    <glyph glyph-name="sf277.026" unicode="&#x67e;" horiz-adv-x="1638" arabic-form="final" 
d="M1698 117q0 23 -11.5 32t-31.5 9q-61 0 -101.5 6.5t-65 19.5t-36.5 32.5t-16 45.5q-7 29 -13 40t-14 11q-14 0 -20 -15.5t-9 -37.5q-4 -21 -30 -40t-70 -36t-102.5 -30t-127 -23t-144 -15t-152.5 -5q-31 0 -86 3.5t-119 13.5t-131 30t-121 52t-88.5 79.5t-34.5 113.5
q0 35 8.5 65t17 52t11 34.5t-9.5 12.5q-8 0 -26 -24.5t-36.5 -64t-32.5 -90t-14 -101.5q0 -68 26 -120t70.5 -90.5t104 -64.5t126.5 -41.5t139 -22.5t140 -7q140 0 244.5 14t187 39.5t149.5 61t132 77.5q8 -49 32.5 -76t57 -39.5t69 -15t68.5 -2.5q10 0 20.5 2t19.5 7
t14.5 12.5t5.5 19.5v76zM836 -154q-12 -32 -30 -61.5t-39 -55.5q-34 19 -65 41t-54 47q-17 -35 -40 -67.5t-48 -63.5q40 -17 73.5 -43.5t65.5 -52.5q13 31 32.5 59t41.5 54q32 -17 63 -41t60 -50q29 65 82 127q-82 47 -142 107zM783 -371q-17 -38 -39.5 -72t-50.5 -65
q38 -19 71 -47.5t64 -59.5q19 38 47 73.5t54 67.5q-41 20 -76 47.5t-70 55.5z" />
    <glyph glyph-name="sf300.003" unicode="&#x62a;" horiz-adv-x="464" arabic-form="initial" 
d="M266 531q31 -47 53 -112q12 -33 20 -76t8 -70q0 -47 -36 -130q-25 -56 -43 -85q-10 -15 -30 -24t-65 -19q-64 -13 -123 -13h-32h-18q-28 0 -43.5 9t-15.5 26v93v5l1 4q7 17 38 17l21 1l21 1l43 1q75 0 125.5 15.5t84.5 47.5q-13 46 -31 80.5t-54 83.5zM93 834
q62 -51 105 -77l19 -11q42 54 68 101l5 8q10 -7 12 -10l21 -16q30 -24 66 -45l22 -13q4 -2 16 -10q-48 -50 -88 -129q-55 53 -118 87q-33 -39 -70 -117q-36 39 -107 85l-24 16q-2 2 -11 8q54 64 84 123z" />
    <glyph glyph-name="sf277.003" unicode="&#x62a;" horiz-adv-x="453" arabic-form="medial" 
d="M-59 35v94v4l1 4q7 18 38 18q97 0 159.5 26.5t111.5 87.5q21 27 35 27t20 -25l4 -16q10 -35 27 -55t49 -32q35 -13 87 -13q32 0 38 -18l1 -4q1 -2 1 -4v-94q0 -17 -16.5 -26t-45.5 -9q-111 0 -178 98q-19 28 -28 28q-8 0 -41 -31q-60 -56 -101 -75.5t-98 -19.5
q-64 0 -64 35zM108 656q61 -51 105 -77l18 -11q42 53 69 100l4 8q10 -7 13 -9l20 -17q31 -24 66 -45l23 -13q3 -2 16 -10q-48 -50 -88 -128q-55 53 -119 86q-32 -39 -69 -117q-37 39 -107 86l-24 16q-2 1 -11 7q53 65 84 124z" />
    <glyph glyph-name="sf277.027" unicode="&#x62a;" horiz-adv-x="1626" arabic-form="final" 
d="M1401 131q-68 -45 -146 -83t-139 -56q-174 -51 -420 -51q-260 0 -419 76q-90 43 -137.5 111t-47.5 154q0 106 55 212q36 69 55 69q7 0 7 -9q0 -7 -9 -30q-27 -74 -27 -121q0 -135 150 -210q79 -40 197.5 -62t248.5 -22q179 0 349.5 33t228.5 79q22 17 26 43q8 47 26 47
q10 0 14 -8t13 -43q10 -44 29.5 -63t66.5 -31q49 -12 106 -12h16q33 0 40 -18l1 -4q1 -3 1 -5v-93q0 -15 -14 -25t-35 -10q-91 0 -137 15q-44 14 -64 38t-35 79zM674 603q62 -50 106 -77l18 -11q42 54 69 101l4 8q10 -7 13 -9l20 -17q30 -24 66 -45l22 -13q4 -2 17 -10
q-48 -50 -89 -128q-55 52 -118 86q-32 -39 -69 -117q-37 39 -107 85l-24 16q-2 2 -12 8q54 65 84 123z" />
    <glyph glyph-name="sf300.004" unicode="&#x679;" horiz-adv-x="428" arabic-form="initial" 
d="M266 530q31 -48 53 -112q12 -34 20 -77t8 -69q0 -48 -36 -131q-25 -56 -43 -85q-10 -14 -30 -23.5t-65 -18.5q-64 -14 -123 -14h-32h-18q-28 0 -43.5 9.5t-15.5 25.5v94v4l1 4q7 18 38 18l21 1h21l43 2q75 0 125.5 15t84.5 48q-13 46 -31 80.5t-54 82.5zM236 776
q-20 0 -39.5 -8.5t-37.5 -21t-34 -27t-28 -26.5q14 1 36 0.5t49 1t57.5 7.5t61.5 21q-6 27 -26.5 40.5t-38.5 12.5zM61 699q14 18 27 39.5t21 43.5q0 54 -2 106t0 106q-8 14 -17.5 24t-9.5 26q10 18 20.5 36t21.5 35q3 3 8 6t8 -3q6 -23 23.5 -43t36.5 -38q-9 -26 -19.5 -46
t-20.5 -33q1 -48 0 -77.5t-3 -46t-3.5 -23.5t-1.5 -10q24 21 53.5 41t63.5 20q48 0 77 -30t27 -78q-10 -14 -30 -43t-47 -53q-25 -15 -56.5 -25t-65 -16t-66.5 -8.5t-61 -2.5q-12 0 -19 1t-19 6.5t-35 18.5t-67 37q-13 6 -10.5 10t15.5 5q21 2 44.5 1.5t44.5 -0.5
q22 0 38.5 2.5t23.5 11.5z" />
    <glyph glyph-name="sf277.043" unicode="&#x679;" horiz-adv-x="453" arabic-form="medial" 
d="M-59 35v94v4l1 4q7 18 38 18q97 0 159.5 26.5t111.5 87.5q21 27 35 27t20 -25l4 -16q10 -35 27 -55t49 -32q35 -13 87 -13q32 0 38 -18l1 -4q1 -2 1 -4v-94q0 -17 -16.5 -26t-45.5 -9q-111 0 -178 98q-19 28 -28 28q-8 0 -41 -31q-60 -56 -101 -75.5t-98 -19.5
q-64 0 -64 35zM293 648q-20 0 -39.5 -8.5t-37.5 -21t-34 -27t-28 -26.5q14 1 36 0.5t49 1t57.5 7.5t61.5 21q-6 27 -26.5 40.5t-38.5 12.5zM118 571q14 18 27 39.5t21 43.5q0 54 -2 106t0 106q-8 14 -17.5 24t-9.5 26q10 18 20.5 36t21.5 35q3 3 8 6t8 -3q6 -23 23.5 -43
t36.5 -38q-9 -26 -19.5 -46t-20.5 -33q1 -48 0 -77.5t-3 -46t-3.5 -23.5t-1.5 -10q24 21 53.5 41t63.5 20q48 0 77 -30t27 -78q-10 -14 -30 -43t-47 -53q-25 -15 -56.5 -25t-65 -16t-66.5 -8.5t-61 -2.5q-12 0 -19 1t-19 6.5t-35 18.5t-67 37q-13 6 -10.5 10t15.5 5
q21 2 44.5 1.5t44.5 -0.5q22 0 38.5 2.5t23.5 11.5z" />
    <glyph glyph-name="sf277.028" unicode="&#x679;" horiz-adv-x="1626" arabic-form="final" 
d="M1401 131q-68 -45 -146 -83t-139 -56q-174 -51 -420 -51q-260 0 -419 76q-90 43 -137.5 111t-47.5 154q0 106 55 212q36 69 55 69q7 0 7 -9q0 -7 -9 -30q-27 -74 -27 -121q0 -135 150 -210q79 -40 197.5 -62t248.5 -22q179 0 349.5 33t228.5 79q22 17 26 43q8 47 26 47
q10 0 14 -8t13 -43q10 -44 29.5 -63t66.5 -31q49 -12 106 -12h16q33 0 40 -18l1 -4q1 -3 1 -5v-93q0 -15 -14 -25t-35 -10q-91 0 -137 15q-44 14 -64 38t-35 79zM905 552q-20 0 -39.5 -8.5t-37.5 -21t-34 -27t-28 -26.5q14 1 36 0.5t49 1t57.5 7.5t61.5 21q-6 27 -26.5 40.5
t-38.5 12.5zM730 475q14 18 27 39.5t21 43.5q0 54 -2 106t0 106q-8 14 -17.5 24t-9.5 26q10 18 20.5 36t21.5 35q3 3 8 6t8 -3q6 -23 23.5 -43t36.5 -38q-9 -26 -19.5 -46t-20.5 -33q1 -48 0 -77.5t-3 -46t-3.5 -23.5t-1.5 -10q24 21 53.5 41t63.5 20q48 0 77 -30t27 -78
q-10 -14 -30 -43t-47 -53q-25 -15 -56.5 -25t-65 -16t-66.5 -8.5t-61 -2.5q-12 0 -19 1t-19 6.5t-35 18.5t-67 37q-13 6 -10.5 10t15.5 5q21 2 44.5 1.5t44.5 -0.5q22 0 38.5 2.5t23.5 11.5z" />
    <glyph glyph-name="sf300.005" unicode="&#x62b;" horiz-adv-x="465" arabic-form="initial" 
d="M266 530q31 -48 53 -112q12 -34 20 -77t8 -69q0 -48 -36 -131q-25 -56 -43 -85q-10 -14 -30 -23.5t-65 -18.5q-64 -14 -123 -14h-32h-18q-28 0 -43.5 9.5t-15.5 25.5v94v4l1 4q7 18 38 18l21 1h21l43 2q75 0 125.5 15t84.5 48q-13 46 -31 80.5t-54 82.5zM116 812
q61 -50 105 -77l18 -11q42 54 69 101l5 8q10 -7 12 -9l21 -17q30 -24 65 -45l23 -13q3 -2 16 -10q-48 -50 -88 -129q-55 53 -119 87q-32 -39 -69 -117q-37 39 -107 85l-24 16q-2 2 -11 8q54 65 84 123zM183 1037l11 -10q63 -62 122 -95q-28 -32 -44.5 -57.5t-43.5 -77.5
q-61 52 -132 93l-12 7l14 19q62 79 85 121z" />
    <glyph glyph-name="sf277.022" unicode="&#x62b;" horiz-adv-x="453" arabic-form="medial" 
d="M-59 35v94v5l1 4q7 17 39 17q96 0 159 26.5t111 88.5q22 26 35 26q14 0 21 -25l4 -15q9 -36 26.5 -56t49.5 -32q35 -13 86 -13q32 0 39 -17l1 -4v-5v-94q0 -16 -16 -25.5t-46 -9.5q-111 0 -178 99q-18 27 -27 27t-42 -30q-60 -57 -100.5 -76.5t-97.5 -19.5q-65 0 -65 35z
M107 655q62 -50 105 -77l19 -11q41 54 68 101l5 8q10 -7 12 -9l21 -17q30 -24 66 -45l22 -13q4 -2 16 -10q-48 -50 -88 -128q-55 52 -118 86q-33 -39 -70 -117q-36 39 -107 85l-24 16q-2 2 -11 8q54 65 84 123zM175 880l10 -10q63 -62 123 -95q-29 -32 -45.5 -57.5
t-43.5 -77.5q-61 52 -132 93l-12 7l14 19q62 79 86 121z" />
    <glyph glyph-name="sf277.029" unicode="&#x62b;" horiz-adv-x="1626" arabic-form="final" 
d="M1401 131q-68 -45 -146 -83t-139 -56q-174 -51 -420 -51q-260 0 -419 76q-90 43 -137.5 111t-47.5 154q0 106 55 212q36 69 55 69q7 0 7 -9q0 -7 -9 -30q-27 -74 -27 -121q0 -135 150 -210q79 -40 197.5 -62t248.5 -22q179 0 349.5 33t228.5 79q22 17 26 43q8 47 26 47
q10 0 14 -8t13 -43q10 -44 29.5 -63t66.5 -31q49 -12 106 -12h16q33 0 40 -18l1 -4q1 -3 1 -5v-93q0 -15 -14 -25t-35 -10q-91 0 -137 15q-44 14 -64 38t-35 79zM693 609q62 -51 106 -77l18 -11q42 54 68 101l5 8q10 -7 12 -10l21 -16q30 -24 66 -45l22 -13q4 -3 16 -10
q-47 -50 -88 -129q-55 53 -118 87q-33 -39 -69 -117q-37 39 -107 85l-25 16q-2 2 -11 8q54 64 84 123zM761 834l10 -10q63 -62 123 -96q-28 -31 -45 -56.5t-44 -77.5q-61 52 -132 93l-12 7l15 19q61 79 85 121z" />
    <glyph glyph-name="sf304.001" unicode="&#x62c;" horiz-adv-x="1170" arabic-form="initial" 
d="M666 107q71 -71 133 -106q-29 -33 -45.5 -58t-43.5 -76q-59 51 -131 93l-13 7l15 19q61 79 85 121zM577 310q-48 30 -147 66q-69 25 -102 33.5t-62 8.5q-69 0 -156 -38q-9 -4 -17 -4q-17 0 -17 14q0 4 4 12l8 15q27 53 74 104q49 54 120 54q33 0 74.5 -12.5t122.5 -47.5
l68 -29q128 -54 228.5 -73t259.5 -19l63 1l-48 -136q-10 0 -74 4q-57 3 -87 3q-278 0 -583 -169q-67 -37 -101 -52.5t-77 -27.5q-58 -17 -122 -17q-65 0 -65 35v94v4l1 4q7 18 38 18q63 0 143 11q56 8 98 21t124 49q113 48 232 74z" />
    <glyph glyph-name="sf323" unicode="&#x62c;" horiz-adv-x="1245" arabic-form="medial" 
d="M556 41q71 -71 133 -106q-29 -33 -45.5 -58.5t-43.5 -76.5q-59 52 -132 94l-12 7l15 19q61 78 85 121zM843 244q-31 0 -97.5 -9.5t-121.5 -21.5q-168 -37 -353 -134q-82 -43 -144 -61t-127 -18q-28 0 -43.5 9.5t-15.5 25.5v94v4l1 4q7 19 38 19l40 1q50 0 139 16
q41 8 72 18t89 34q112 48 211 76l38 11q-16 5 -20 7l-36 15l-46 17l-53 20q-93 36 -149 36q-39 0 -86 -14l-37 -11q-27 -8 -34 -12q-10 -5 -17 -5q-12 0 -12 12q0 8 18 40.5t36 57.5q35 47 69 67.5t78 20.5q45 0 91.5 -16t148.5 -67q89 -45 141.5 -62t125.5 -25
q106 -12 215 -12l61 1l59 1l-43 -134q-40 6 -68 6q-49 0 -101 -9q-8 -15 -8 -29q0 -25 32 -41q14 -8 41.5 -12.5t54.5 -4.5l214 -3l21 -1q31 0 38 -18l1 -4v-4v-94q0 -11 -9 -21q-9 -9 -23.5 -11.5t-50.5 -2.5h-99l-67 1q-112 0 -171 29q-78 37 -78 109q0 52 37 105z" />
    <glyph glyph-name="sf277.030" unicode="&#x62c;" horiz-adv-x="1250" arabic-form="final" 
d="M693 -207q70 -71 133 -106q-29 -33 -46 -58t-43 -76q-60 51 -132 93l-12 7l15 19q61 79 85 121zM849 284q6 -70 50 -97q29 -18 81.5 -24.5t166.5 -6.5h89h33q32 0 39 -18l1 -4v-5v-93q0 -20 -19 -28t-64 -8l-97 -1l-90 2h-54q-48 0 -93.5 10t-73.5 26q-62 37 -62 98
q0 59 33 139q-157 -22 -298.5 -102.5t-219.5 -191.5q-87 -125 -87 -268q0 -108 50.5 -198.5t145.5 -152.5q84 -54 209.5 -82t283.5 -28q98 0 221.5 11t198.5 27q38 7 50 7q27 0 27 -14q0 -9 -10.5 -18.5t-41.5 -26.5q-95 -54 -255 -102q-137 -40 -293 -40q-315 0 -496.5 138
t-181.5 379q0 242 141 432q66 88 144.5 152.5t181.5 114.5v7q-16 3 -54 8q-7 1 -44 7q-89 13 -131 13q-48 0 -77.5 -10.5t-55.5 -36.5q-27 -27 -37 -27q-7 0 -12 5.5t-5 13.5q0 13 9 30l16 31q13 25 37.5 54.5t47.5 49.5q56 47 124 47q47 0 152 -22q118 -24 198.5 -32
t221.5 -8l115 1h33l-66 -142q-18 2 -25 2q-86 0 -157 -18z" />
    <glyph glyph-name="sf304.002" unicode="&#x686;" horiz-adv-x="1178" arabic-form="initial" 
d="M745 103q-25 -63 -70 -116q-34 18 -65 40.5t-54 47.5q-17 -35 -40 -67.5t-48 -63.5q41 -17 74.5 -44t65.5 -53q12 31 32 59t41 54q32 -17 63 -40.5t60 -49.5q16 34 36 65t46 62q-40 23 -75 49t-66 57zM689 -114q-17 -38 -39.5 -72t-50.5 -65q39 -19 72 -47.5t64 -58.5
q18 38 46 73.5t54 67.5q-40 20 -75 47t-71 55zM-59 41q0 -23 19.5 -32t39.5 -9q69 0 134 19t136 59q163 92 317 141t312 49q32 0 73 -3t85 -5l49 137h-102q-102 0 -183.5 13.5t-148 34t-120.5 44t-101 44t-88.5 34t-83.5 13.5q-36 0 -67 -17.5t-56 -44t-44 -58t-32 -59.5
q-6 -12 3 -19t26 1q14 7 35.5 14t44 12.5t44.5 9t37 3.5q25 0 68 -11.5t89 -28.5t88 -36.5t67 -34.5q-37 -7 -78 -18.5t-81.5 -25.5t-79 -29.5t-69.5 -30.5q-24 -11 -59.5 -20t-75.5 -15.5t-80.5 -10t-74.5 -3.5q-20 0 -31.5 -9t-11.5 -32v-76z" />
    <glyph glyph-name="sf323.001" unicode="&#x686;" horiz-adv-x="1251" arabic-form="medial" 
d="M640 21q-12 -32 -29.5 -61.5t-39.5 -55.5q-34 19 -65 41.5t-54 47.5q-17 -36 -40 -68.5t-48 -63.5q40 -17 73.5 -43.5t65.5 -52.5q13 31 32.5 59t41.5 54q32 -17 63 -40.5t60 -49.5q29 65 82 127q-40 23 -75.5 49t-66.5 57zM585 -196q-17 -38 -39.5 -72t-50.5 -65
q38 -19 71 -47.5t64 -59.5q19 39 47 74.5t54 67.5q-41 20 -76 47t-70 55zM1311 117q0 23 -11.5 32t-31.5 9h-174q-74 0 -113.5 7t-56.5 19.5t-17 28.5q0 17 6 35q44 8 89 8q46 0 83 -6l41 135h-122q-72 0 -132.5 3.5t-112.5 12t-96.5 21.5t-84.5 33q-53 25 -95 45.5
t-77 35.5t-65.5 23t-61.5 8q-36 0 -67 -17.5t-56 -44t-44 -57.5t-32 -59q-6 -12 3 -19t26 1q14 7 35.5 14t44 12.5t44.5 9t37 3.5q24 0 64.5 -11t84 -26t83.5 -31.5t63 -28.5v-4q-31 -7 -68.5 -18t-76.5 -25t-77 -29t-69 -30q-24 -11 -59.5 -20t-75.5 -15.5t-80.5 -10
t-74.5 -3.5q-20 0 -31.5 -9t-11.5 -32v-76q0 -23 19.5 -32t39.5 -9q69 0 134 19t136 59q69 38 142 68t147 51t147 33.5t142 15.5q-14 -19 -25.5 -45t-11.5 -64q0 -29 12 -53.5t41.5 -43.5t78.5 -29.5t124 -10.5h184q10 0 20.5 2t19.5 7t14.5 12.5t5.5 19.5v76z" />
    <glyph glyph-name="sf277.031" unicode="&#x686;" horiz-adv-x="1257" arabic-form="final" 
d="M711 -86q-13 -32 -30.5 -61.5t-39.5 -55.5q-34 19 -65 41.5t-54 46.5q-17 -35 -40 -67.5t-48 -63.5q40 -17 73.5 -43.5t65.5 -52.5q13 31 32.5 59t41.5 54q32 -17 63 -40.5t60 -49.5q16 34 36 65t46 61q-40 23 -75 49.5t-66 57.5zM655 -303q-17 -38 -39.5 -72t-50.5 -65
q38 -19 71 -47.5t64 -59.5q19 38 47 73.5t54 67.5q-40 20 -75.5 47.5t-70.5 55.5zM1317 117q0 23 -11.5 32t-31.5 9h-141q-78 0 -129 4t-82.5 17t-46.5 38.5t-21 67.5q48 12 92 15t92 3l66 141h-201q-111 0 -188.5 10t-136.5 22t-105 22t-94 10q-37 0 -68.5 -14t-57.5 -35.5
t-46.5 -47.5t-34 -49t-20.5 -40.5t-7 -22.5q0 -20 14 -22t31 18q9 10 21 20t28.5 17.5t39 12.5t51.5 5q28 0 60.5 -3.5t63.5 -8.5t59 -10.5t48 -8.5v-4q-101 -51 -186.5 -121t-148.5 -158.5t-98.5 -195t-35.5 -229.5t47 -220t135.5 -164t214 -102.5t283.5 -35.5q53 0 98 3.5
t89.5 11t91 20.5t102.5 32q51 18 92.5 36.5t70.5 34.5t44.5 27.5t15.5 16.5q0 7 -2 11.5t-10 6t-23.5 0t-42.5 -5.5q-53 -11 -110 -18t-113.5 -11t-110.5 -6t-100 -2q-135 0 -237.5 20.5t-178 55.5t-126.5 81.5t-81.5 97.5t-43.5 105t-13 103q0 118 53.5 214.5t140 169
t196 119t221.5 64.5q-14 -29 -23.5 -65t-9.5 -74q0 -17 7.5 -40.5t35 -45t80.5 -36.5t145 -15h227q10 0 20.5 2t19.5 7t14.5 12.5t5.5 19.5v76z" />
    <glyph glyph-name="sf304.003" unicode="&#x62d;" horiz-adv-x="1170" arabic-form="initial" 
d="M577 309q-48 30 -147 66q-69 25 -102 33.5t-62 8.5q-69 0 -156 -38q-9 -4 -17 -4q-17 0 -17 14q0 4 4 12l8 15q27 53 74 104q49 54 120 54q33 0 74.5 -12.5t122.5 -47.5l68 -29q128 -54 228.5 -73t259.5 -19l63 1l-48 -136q-10 0 -74 4q-57 3 -87 3q-278 0 -583 -169
q-67 -37 -101 -52.5t-77 -27.5q-58 -17 -122 -17q-65 0 -65 35v94v4l1 4q7 18 38 18q63 0 143 11q56 8 98 21t124 49q113 48 232 74z" />
    <glyph glyph-name="sf323.002" unicode="&#x62d;" horiz-adv-x="1245" arabic-form="medial" 
d="M843 244q-31 0 -97.5 -9.5t-121.5 -21.5q-168 -37 -353 -134q-82 -43 -144 -61t-127 -18q-28 0 -43.5 9.5t-15.5 25.5v94v4l1 4q7 19 38 19l40 1q50 0 139 16q41 8 72 18t89 34q112 48 211 76l38 11q-16 5 -20 7l-36 15l-46 17l-53 20q-93 36 -149 36q-39 0 -86 -14
l-37 -11q-27 -8 -34 -12q-10 -5 -17 -5q-12 0 -12 12q0 8 18 40.5t36 57.5q35 47 69 67.5t78 20.5q45 0 91.5 -16t148.5 -67q89 -45 141.5 -62t125.5 -25q106 -12 215 -12l61 1l59 1l-43 -134q-40 6 -68 6q-49 0 -101 -9q-8 -15 -8 -29q0 -25 32 -41q14 -8 41.5 -12.5
t54.5 -4.5l214 -3l21 -1q31 0 38 -18l1 -4v-4v-94q0 -11 -9 -21q-9 -9 -23.5 -11.5t-50.5 -2.5h-99l-67 1q-112 0 -171 29q-78 37 -78 109q0 52 37 105z" />
    <glyph glyph-name="sf277.032" unicode="&#x62d;" horiz-adv-x="1250" arabic-form="final" 
d="M849 284q6 -70 50 -97q29 -18 81.5 -24.5t166.5 -6.5h89h33q32 0 39 -18l1 -4v-5v-93q0 -17 -17 -26.5t-47 -9.5h-22h-35h-59h-89q-146 0 -208 30q-76 36 -76 105q0 59 33 139q-157 -22 -298.5 -102.5t-219.5 -191.5q-87 -125 -87 -268q0 -108 50.5 -198.5t145.5 -152.5
q84 -54 209.5 -82t283.5 -28q98 0 221.5 11t198.5 27q38 7 50 7q27 0 27 -14q0 -9 -10.5 -18.5t-41.5 -26.5q-95 -54 -255 -102q-137 -40 -293 -40q-315 0 -496.5 138t-181.5 379q0 242 141 432q66 88 144.5 152.5t181.5 114.5v7q-16 3 -54 8q-7 1 -44 7q-89 13 -131 13
q-48 0 -77.5 -10.5t-55.5 -36.5q-27 -27 -37 -27q-7 0 -12 5.5t-5 13.5q0 13 9 30l16 31q13 25 37.5 54.5t47.5 49.5q56 47 124 47q47 0 152 -22q118 -24 198.5 -32t221.5 -8l115 1h33l-66 -142q-18 2 -25 2q-86 0 -157 -18z" />
    <glyph glyph-name="sf304.004" unicode="&#x62e;" horiz-adv-x="1170" arabic-form="initial" 
d="M577 310q-48 30 -147 66q-69 25 -102 33.5t-62 8.5q-69 0 -156 -38q-9 -4 -17 -4q-17 0 -17 14q0 4 4 12l8 15q27 53 74 104q49 54 120 54q33 0 74.5 -12.5t122.5 -47.5l68 -29q128 -54 228.5 -73t259.5 -19l63 1l-48 -136q-10 0 -74 4q-57 3 -87 3q-278 0 -583 -169
q-67 -37 -101 -52.5t-77 -27.5q-58 -17 -122 -17q-65 0 -65 35v94v4l1 4q7 18 38 18q63 0 143 11q56 8 98 21t124 49q113 48 232 74zM629 861q70 -71 133 -106q-29 -33 -45.5 -58t-43.5 -77q-60 52 -132 94l-12 7l15 19q61 79 85 121z" />
    <glyph glyph-name="sf323.003" unicode="&#x62e;" horiz-adv-x="1245" arabic-form="medial" 
d="M524 877q70 -70 133 -105q-29 -33 -45.5 -58.5t-43.5 -76.5q-59 51 -132 93l-12 7l15 19q61 79 85 121zM843 244q-31 0 -97.5 -9.5t-121.5 -21.5q-168 -37 -353 -134q-82 -43 -144 -61t-127 -18q-28 0 -43.5 9t-15.5 26v93v5l1 4q7 18 38 18l40 2q50 0 139 16q41 7 72 17
t89 35q112 47 211 76l38 11q-16 5 -20 7l-36 14l-46 18l-53 20q-93 35 -149 35q-39 0 -86 -13l-37 -12q-27 -8 -34 -11q-10 -5 -17 -5q-12 0 -12 11q0 8 18 41t36 57q35 47 69 68t78 21q45 0 91.5 -16.5t148.5 -67.5q89 -44 141.5 -61t125.5 -25q106 -12 215 -12h61l59 1
l-43 -134q-40 6 -68 6q-49 0 -101 -9q-8 -15 -8 -29q0 -24 32 -41q14 -7 41.5 -12t54.5 -5l214 -3h21q31 0 38 -18l1 -4v-5v-93q0 -11 -9 -21q-9 -9 -23.5 -12t-50.5 -3l-99 1l-67 1q-112 0 -171 28q-78 37 -78 110q0 51 37 105z" />
    <glyph glyph-name="sf277.001" unicode="&#x62e;" horiz-adv-x="1250" arabic-form="final" 
d="M667 794q71 -71 133 -106q-29 -33 -45.5 -58.5t-43.5 -76.5q-59 52 -132 94l-12 7l15 19q61 78 85 121zM849 284q6 -70 50 -97q29 -18 81.5 -24.5t166.5 -6.5h89h33q32 0 39 -18l1 -4v-5v-93q0 -17 -17 -26.5t-47 -9.5h-22h-35h-59h-89q-146 0 -208 30q-76 36 -76 105
q0 59 33 139q-157 -22 -298.5 -102.5t-219.5 -191.5q-87 -125 -87 -268q0 -108 50.5 -198.5t145.5 -152.5q84 -54 209.5 -82t283.5 -28q98 0 221.5 11t198.5 27q38 7 50 7q27 0 27 -14q0 -9 -10.5 -18.5t-41.5 -26.5q-95 -54 -255 -102q-137 -40 -293 -40q-315 0 -496.5 138
t-181.5 379q0 242 141 432q66 88 144.5 152.5t181.5 114.5v7q-16 3 -54 8q-7 1 -44 7q-89 13 -131 13q-48 0 -77.5 -10.5t-55.5 -36.5q-27 -27 -37 -27q-7 0 -12 5.5t-5 13.5q0 13 9 30l16 31q13 25 37.5 54.5t47.5 49.5q56 47 124 47q47 0 152 -22q118 -24 198.5 -32
t221.5 -8l115 1h33l-66 -142q-18 2 -25 2q-86 0 -157 -18z" />
    <glyph glyph-name="sf277.014" unicode="&#x62f;" horiz-adv-x="898" arabic-form="final" 
d="M529 818l95 104q3 -21 4 -27l5 -51q4 -31 18 -126l12 -78q7 -44 14 -87l13 -76q22 -123 40 -188.5t38 -91.5q18 -23 52.5 -32.5t97.5 -9.5q32 0 39 -18l1 -4v-4v-94q0 -16 -15.5 -25.5t-42.5 -9.5q-77 0 -139 32q-33 17 -52 42t-38 77l-10 29q-14 36 -24 36
q-11 0 -36 -35q-65 -91 -126 -125q-75 -43 -176 -43q-98 0 -169 30q-56 24 -56 44q0 4 1 9l3 23l5 33q9 64 21.5 104t23.5 40q5 0 8 -13q1 -3 3 -11l4 -12q13 -49 53 -66q60 -24 154 -24q252 0 252 207q0 60 -26 209l-11 64q-12 71 -36 168z" />
    <glyph glyph-name="sf277.038" unicode="&#x688;" horiz-adv-x="898" arabic-form="final" 
d="M529 818l95 104q3 -21 4 -27l5 -51q4 -31 18 -126l12 -78q7 -44 14 -87l13 -76q22 -123 40 -188.5t38 -91.5q18 -23 52.5 -32.5t97.5 -9.5q32 0 39 -18l1 -4v-4v-94q0 -16 -15.5 -25.5t-42.5 -9.5q-77 0 -139 32q-33 17 -52 42t-38 77l-10 29q-14 36 -24 36
q-11 0 -36 -35q-65 -91 -126 -125q-75 -43 -176 -43q-98 0 -169 30q-56 24 -56 44q0 4 1 9l3 23l5 33q9 64 21.5 104t23.5 40q5 0 8 -13q1 -3 3 -11l4 -12q13 -49 53 -66q60 -24 154 -24q252 0 252 207q0 60 -26 209l-11 64q-12 71 -36 168zM393 974q-16 0 -32.5 -7
t-31.5 -17t-28.5 -22.5t-23.5 -22.5q12 1 30 0.5t40.5 1t48 6.5t51.5 17q-5 23 -22 34t-32 10zM247 910q12 15 22.5 33t17.5 36q0 45 -1.5 88.5t-0.5 88.5q-6 12 -14 20t-8 22q8 15 17 30t18 29q2 2 6.5 4.5t6.5 -2.5q5 -19 19.5 -35.5t30.5 -31.5q-7 -22 -16 -38.5
t-17 -27.5q1 -40 0 -64.5t-2.5 -38t-3 -19.5t-1.5 -9q20 18 44.5 34.5t53.5 16.5q38 0 63.5 -25t22.5 -65q-8 -12 -24.5 -36t-39.5 -44q-20 -12 -46.5 -20t-54.5 -13.5t-56 -7.5t-50 -2q-11 0 -16.5 0.5t-15.5 5.5t-29 15.5t-56 30.5q-11 5 -9 8.5t13 4.5q18 1 37.5 0.5
t37.5 0t31.5 2.5t19.5 9z" />
    <glyph glyph-name="sf277.039" unicode="&#x630;" horiz-adv-x="898" arabic-form="final" 
d="M395 1150q71 -70 133 -105q-29 -33 -45.5 -58.5t-43.5 -76.5q-59 51 -131 93l-13 7l15 19q61 79 85 121zM529 818l95 104q3 -21 4 -27l5 -51q4 -31 18 -126l12 -78q7 -44 14 -87l13 -76q22 -123 40 -188.5t38 -91.5q18 -23 52.5 -32.5t97.5 -9.5q32 0 39 -18l1 -4v-4v-94
q0 -16 -15.5 -25.5t-42.5 -9.5q-77 0 -139 32q-33 17 -52 42t-38 77l-10 29q-14 36 -24 36q-11 0 -36 -35q-65 -91 -126 -125q-75 -43 -176 -43q-98 0 -169 30q-56 24 -56 44q0 4 1 9l3 23l5 33q9 64 21.5 104t23.5 40q5 0 8 -13q1 -3 3 -11l4 -12q13 -49 53 -66
q60 -24 154 -24q252 0 252 207q0 60 -26 209l-11 64q-12 71 -36 168z" />
    <glyph glyph-name="sf277.015" unicode="&#x631;" horiz-adv-x="764" arabic-form="final" 
d="M490 132l78 144q56 -64 102 -93q40 -25 94 -28l17 -1q25 -2 34 -7t9 -19v-94q0 -9 -7 -17q-7 -10 -18 -13.5t-33 -3.5h-23h-9q-19 2 -24 2q-18 0 -27.5 -14t-17.5 -54q-27 -137 -93.5 -246t-156.5 -166q-36 -22 -82 -36.5t-82 -14.5q-34 0 -95 21.5t-118 53.5
q-23 13 -30.5 19.5t-7.5 13.5q0 15 15 15q9 0 43 -6q64 -12 90 -12q72 0 170.5 47.5t170.5 117.5q53 51 89.5 113t36.5 101q0 34 -33 81t-92 96z" />
    <glyph glyph-name="sf277.040" unicode="&#x691;" horiz-adv-x="764" arabic-form="final" 
d="M490 132l78 144q56 -64 102 -93q40 -25 94 -28l17 -1q25 -2 34 -7t9 -19v-94q0 -9 -7 -17q-7 -10 -18 -13.5t-33 -3.5h-23h-9q-19 2 -24 2q-18 0 -27.5 -14t-17.5 -54q-27 -137 -93.5 -246t-156.5 -166q-36 -22 -82 -36.5t-82 -14.5q-34 0 -95 21.5t-118 53.5
q-23 13 -30.5 19.5t-7.5 13.5q0 15 15 15q9 0 43 -6q64 -12 90 -12q72 0 170.5 47.5t170.5 117.5q53 51 89.5 113t36.5 101q0 34 -33 81t-92 96zM505 497q-16 0 -32.5 -7t-31.5 -17t-28.5 -22.5t-23.5 -22.5q12 1 30 0.5t40.5 1t48 6.5t51.5 17q-5 23 -22 34t-32 10z
M359 433q12 15 22.5 33t17.5 36q0 45 -1.5 88.5t-0.5 88.5q-6 12 -14 20t-8 22q8 15 17 30t18 29q2 2 6.5 4.5t6.5 -2.5q5 -19 19.5 -35.5t30.5 -31.5q-7 -22 -16 -38.5t-17 -27.5q1 -40 0 -64.5t-2.5 -38t-3 -19.5t-1.5 -9q20 18 44.5 34.5t53.5 16.5q38 0 63.5 -25
t22.5 -65q-8 -12 -24.5 -36t-39.5 -44q-20 -12 -46.5 -20t-54.5 -13.5t-56 -7.5t-50 -2q-11 0 -16.5 0.5t-15.5 5.5t-29 15.5t-56 30.5q-11 5 -9 8.5t13 4.5q18 1 37.5 0.5t37.5 0t31.5 2.5t19.5 9z" />
    <glyph glyph-name="sf277.041" unicode="&#x632;" horiz-adv-x="764" arabic-form="final" 
d="M490 132l78 144q56 -64 102 -93q40 -25 94 -28l17 -1q25 -2 34 -7t9 -19v-94q0 -9 -7 -17q-7 -10 -18 -13.5t-33 -3.5h-23h-9q-19 2 -24 2q-18 0 -27.5 -14t-17.5 -54q-27 -137 -93.5 -246t-156.5 -166q-36 -22 -82 -36.5t-82 -14.5q-34 0 -95 21.5t-118 53.5
q-23 13 -30.5 19.5t-7.5 13.5q0 15 15 15q9 0 43 -6q64 -12 90 -12q72 0 170.5 47.5t170.5 117.5q53 51 89.5 113t36.5 101q0 34 -33 81t-92 96zM406 550q71 -71 133 -106q-29 -33 -45.5 -58.5t-43.5 -76.5q-59 52 -131 94l-13 7l15 19q61 78 85 121z" />
    <glyph glyph-name="sf277.042" unicode="&#x698;" horiz-adv-x="768" arabic-form="final" 
d="M494 133q23 -21 45 -43.5t39 -45.5t27.5 -45t10.5 -40q0 -29 -13.5 -62t-34.5 -65t-46.5 -62t-50.5 -53q-24 -23 -64 -48.5t-85 -47t-90.5 -35.5t-81.5 -14q-15 0 -35.5 3t-40.5 6t-36 6t-22 3q-16 0 -16 -20q0 -4 13 -12.5t34 -20t47.5 -24t54 -22.5t53 -16.5t44.5 -6.5
q88 0 168 49.5t139 134.5q45 63 74 139t45 154q8 35 18.5 45t32.5 10h45q20 0 39.5 9t19.5 32v76q0 23 -11.5 32t-31.5 9q-28 0 -51 3.5t-46.5 15.5t-51 35.5t-64.5 63.5zM465 568q17 38 39.5 72t50.5 65q-38 19 -71 47.5t-64 59.5q-19 -38 -47 -74t-54 -68q41 -20 76 -47
t70 -55zM411 351q13 32 30.5 61.5t39.5 55.5q34 -19 65 -41.5t54 -46.5q17 35 40 67.5t48 63.5q-40 17 -73.5 43.5t-65.5 52.5q-13 -31 -32.5 -59t-41.5 -54q-32 17 -63 40.5t-60 49.5q-29 -65 -82 -127q81 -46 141 -106z" />
    <glyph glyph-name="sf309" unicode="&#x633;" horiz-adv-x="1142" arabic-form="initial" 
d="M1011 495q41 -79 41 -164q0 -103 -42 -179q-48 -86 -128 -86q-36 0 -76 17.5t-76 49.5q-13 12 -19 12q-7 0 -18 -14l-25 -34q-32 -43 -85 -70q-50 -27 -125 -27q-48 0 -88 19q-24 10 -36.5 19.5t-33.5 30.5l-21 20q-19 21 -29 21q-13 0 -31 -22q-39 -49 -87 -68.5
t-133 -19.5q-27 0 -42.5 9.5t-15.5 25.5v94v4l1 4q7 18 38 18l21 1h33q92 0 141.5 28t78.5 97q14 31 28 31t28 -27l18 -35q20 -37 34.5 -53t38.5 -27q33 -14 73 -14q33 0 68.5 10.5t63.5 27.5q33 21 58 55t53 94q21 46 42 46q25 0 34 -47q9 -42 19.5 -62t33.5 -34
q35 -23 102 -23h26q-3 46 -15.5 75t-44.5 61z" />
    <glyph glyph-name="sf327" unicode="&#x633;" horiz-adv-x="1131" arabic-form="medial" 
d="M1191 137v-105q0 -32 -56 -32q-62 0 -96.5 23t-53.5 76q-8 22 -17 22q-6 0 -28 -27l-18 -21q-34 -41 -59.5 -57t-56.5 -16q-70 0 -103 82l-8 18q-15 39 -27 39q-9 0 -28 -24q-28 -36 -41 -49.5t-35 -29.5q-49 -36 -112 -36q-47 0 -84 18t-78 61q-29 29 -43 29
q-13 0 -32 -25q-62 -83 -196 -83q-78 0 -78 36v101q0 9 6 15t15 6h11h19l26 -1h25q93 0 137.5 27.5t80.5 107.5q9 19 21 19q15 0 34 -36l13 -25q27 -50 58 -71.5t77 -21.5q51 0 93 20t81 64l21 23q31 34 48 34t25 -22l7 -23q15 -46 33.5 -62t55.5 -16q38 0 60.5 17.5
t44.5 64.5l10 22q16 32 31 32q21 0 33 -46l6 -21q14 -55 63 -75q27 -12 80 -12q35 0 35 -20z" />
    <glyph glyph-name="sf277.004" unicode="&#x633;" horiz-adv-x="1805" arabic-form="final" 
d="M900 294q41 -78 74 -103q46 -35 148 -35q62 0 106 22t98 80q25 28 33.5 34.5t17.5 6.5q21 0 31 -39q12 -46 33 -65.5t59 -19.5t61 17.5t43 63.5q25 55 43 55q19 0 30 -38l6 -24q9 -29 21 -45.5t35 -29.5q35 -19 85 -19q32 0 39 -18l1 -4v-4v-94q0 -16 -15 -25.5t-42 -9.5
q-57 0 -91 20.5t-53 65.5q-15 36 -24 36q-7 0 -17 -13q-52 -66 -79 -87t-61 -21q-42 0 -67 20.5t-47 72.5q-18 44 -30 44q-9 0 -37 -34q-31 -38 -45 -51.5t-33 -26.5q-42 -25 -106 -25q-72 0 -118 12q0 -133 -38.5 -247t-110.5 -191q-73 -77 -181.5 -118.5t-239.5 -41.5
q-150 0 -248 79q-47 38 -73 99t-26 133q0 61 18.5 127t52.5 123q23 39 44 63.5t30 24.5t9 -9q0 -5 -4 -12q0 -1 -8 -18q-1 -2 -13 -24q-29 -59 -46.5 -114.5t-17.5 -92.5q0 -94 95 -154t242 -60q98 0 190.5 26t157.5 72q47 33 63.5 77.5t16.5 138.5q0 92 -15 165
q-11 12 -14 15l-20 18q-23 22 -52 68q41 68 89 134z" />
    <glyph glyph-name="sf309.001" unicode="&#x634;" horiz-adv-x="1142" arabic-form="initial" 
d="M1011 495q41 -79 41 -164q0 -103 -42 -179q-48 -86 -128 -86q-36 0 -76 17.5t-76 49.5q-13 12 -19 12q-7 0 -18 -14l-25 -34q-32 -43 -85 -70q-50 -27 -125 -27q-48 0 -88 19q-24 10 -36.5 19.5t-33.5 30.5l-21 20q-19 21 -29 21q-13 0 -31 -22q-39 -49 -87 -68.5
t-133 -19.5q-27 0 -42.5 9.5t-15.5 25.5v94v4l1 4q7 18 38 18l21 1h33q92 0 141.5 28t78.5 97q14 31 28 31t28 -27l18 -35q20 -37 34.5 -53t38.5 -27q33 -14 73 -14q33 0 68.5 10.5t63.5 27.5q33 21 58 55t53 94q21 46 42 46q25 0 34 -47q9 -42 19.5 -62t33.5 -34
q35 -23 102 -23h26q-3 46 -15.5 75t-44.5 61zM593 755q62 -51 106 -77l18 -11q42 53 69 100l4 8q10 -7 13 -9l20 -17q30 -24 66 -45l22 -13q4 -2 17 -10q-48 -50 -89 -128q-55 53 -118 86q-32 -39 -69 -117q-37 39 -107 86l-24 15l-12 8q54 65 84 124zM661 980l10 -11
q64 -62 123 -95q-28 -32 -44.5 -57t-44.5 -78q-61 52 -132 93l-12 7l15 19q61 80 85 122z" />
    <glyph glyph-name="sf327.001" unicode="&#x634;" horiz-adv-x="1131" arabic-form="medial" 
d="M1191 137v-105q0 -32 -56 -32q-62 0 -96.5 23t-53.5 76q-8 22 -17 22q-6 0 -28 -27l-18 -21q-34 -41 -59.5 -57t-56.5 -16q-70 0 -103 82l-7 18q-16 39 -27 39q-10 0 -29 -24l-18 -24q-25 -33 -62 -59q-46 -32 -107 -32q-48 0 -85 18t-78 61q-29 29 -43 29q-13 0 -31 -25
q-63 -83 -197 -83q-78 0 -78 36v101q0 9 6 15t16 6h10h20l26 -1h25q93 0 137 27.5t80 107.5q9 19 21 19q15 0 34 -36l13 -25q27 -50 58 -71.5t77 -21.5q51 0 93 20t81 64l21 23q31 34 48 34q18 0 25 -22l8 -23q15 -46 33.5 -62t54.5 -16q38 0 60.5 17.5t44.5 64.5l10 22
q16 32 32 32q20 0 32 -46l6 -21q14 -55 63 -75q27 -12 81 -12q34 0 34 -20zM565 680q61 -50 105 -77l18 -11q42 54 69 101l4 8q10 -7 13 -9l20 -17q30 -24 66 -45l23 -13q3 -2 16 -10q-48 -50 -88 -128q-56 52 -119 86q-32 -39 -69 -117q-37 39 -107 85l-24 16q-2 2 -11 8
q53 65 84 123zM632 905l10 -10q64 -62 123 -95q-28 -32 -44.5 -57.5t-44.5 -77.5q-61 52 -131 93l-13 7l15 19q62 79 85 121z" />
    <glyph glyph-name="sf277.033" unicode="&#x634;" horiz-adv-x="1805" arabic-form="final" 
d="M900 295q41 -78 74 -103q46 -35 148 -35q62 0 106 22t98 80q25 28 33.5 34.5t17.5 6.5q21 0 31 -39q12 -46 33 -65.5t59 -19.5t61 17.5t43 63.5q25 55 43 55q19 0 30 -38l6 -24q9 -29 21 -45.5t35 -29.5q35 -19 85 -19q32 0 39 -18l1 -4v-4v-94q0 -16 -15 -25.5t-42 -9.5
q-57 0 -91 20.5t-53 65.5q-15 36 -24 36q-7 0 -17 -13q-52 -66 -79 -87t-61 -21q-42 0 -67 20.5t-47 72.5q-18 44 -30 44q-9 0 -37 -34q-31 -38 -45 -51.5t-33 -26.5q-42 -25 -106 -25q-72 0 -118 12q0 -134 -38.5 -247.5t-110.5 -190.5q-73 -78 -181.5 -119.5t-239.5 -41.5
q-150 0 -248 80q-47 38 -73 99t-26 132q0 62 18.5 128t52.5 123q23 39 44 63.5t30 24.5t9 -9q0 -5 -4 -12q0 -1 -8 -18q-1 -2 -13 -24q-29 -59 -46.5 -114.5t-17.5 -92.5q0 -94 95 -154t242 -60q98 0 190.5 26t157.5 72q47 33 63.5 77.5t16.5 138.5q0 92 -15 165
q-11 12 -14 15l-20 18q-23 22 -52 68q41 68 89 134zM1245 644q62 -51 106 -77l18 -11q42 53 69 100l4 8q10 -7 13 -9l20 -16q30 -25 66 -46l22 -13q4 -2 17 -9q-48 -51 -89 -129q-55 53 -118 87q-32 -40 -69 -118q-37 39 -107 86l-24 16q-3 1 -12 7q54 65 84 124zM1313 869
l10 -10q64 -63 123 -96q-28 -32 -44.5 -57t-44.5 -78q-61 53 -132 94l-12 7l15 19q61 79 85 121z" />
    <glyph glyph-name="sf310.002" unicode="&#x635;" horiz-adv-x="1477" arabic-form="initial" 
d="M514 0q-15 1 -18 1h-45q-27 0 -57 6t-46 14q-24 13 -39 28t-32 44q-11 18 -20 18t-21 -12l-25 -24q-37 -36 -91.5 -55t-119.5 -19q-24 0 -41.5 11t-17.5 26v92q0 11 13 18.5t31 7.5l15 1q21 0 71 5t69 9q87 19 106 82q11 34 15 39q10 12 23 12q14 0 22 -10t17 -39
q18 -62 70 -82q39 -15 144 -15q30 0 69 4q7 11 11 17l25 32l37 51q41 55 101 114.5t119 104.5q168 128 295 128q77 0 129 -55.5t52 -137.5q0 -100 -81 -190q-108 -121 -361 -184q-69 -17 -164.5 -30t-154.5 -13l-20 1q-16 -23 -35 -56l-18 -31l-16 -30q-15 -28 -23 -28
q-10 0 -10 26q0 52 22 119zM700 161q129 0 266.5 29.5t216.5 73.5q33 19 52.5 38.5t19.5 35.5q0 29 -50 58q-56 33 -117 33q-46 0 -98.5 -19.5t-99.5 -54.5q-42 -30 -82.5 -69t-68.5 -75l-26 -34q-3 -4 -13 -16z" />
    <glyph glyph-name="sf328" unicode="&#x635;" horiz-adv-x="1471" arabic-form="medial" 
d="M700 159l29 2q96 0 231 26q65 13 128.5 35t102.5 45q64 38 64 69q0 29 -50 59q-55 33 -117 33q-96 0 -200 -75q-39 -27 -80 -66.5t-69 -77.5l-26 -34q-3 -3 -13 -16zM595 0q-10 -13 -14 -19l-8 -15l-11 -19l-10 -18q-38 -75 -49 -75q-12 0 -12 34q0 40 24 111
q-16 1 -18 1h-48q-62 0 -103 20q-21 10 -36 25.5t-33 45.5q-11 19 -20 19q-8 0 -21 -13q-51 -53 -104.5 -75t-132.5 -22q-22 0 -40 11.5t-18 25.5l1 92q0 11 12.5 18.5t30.5 7.5l16 1q20 0 70 5t70 9q86 18 106 82q10 34 15 39q9 12 23 12t21.5 -10t16.5 -39
q10 -34 26.5 -53t43.5 -29q23 -8 54.5 -11.5t90.5 -3.5q30 0 68 4q12 18 35 49l37 52q42 57 120 130.5t143 118.5q144 97 255 97q70 0 124 -54q56 -55 56 -146q0 -105 -92 -194q-39 -38 -78.5 -61t-124.5 -59v-7q10 1 14 2l27 4q20 2 55 13l27 9q127 39 208 39l34 1l21 1
l24 -1q32 0 38 -18l1 -4q1 -2 1 -4v-94q0 -13 -12 -23q-9 -8 -23.5 -10t-53.5 -2l-75 2l-81 1l-74 3l-84 3l-71 3l-68 2l-82 3q-85 0 -205 -9l-56 -5q-11 -1 -51 -3z" />
    <glyph glyph-name="sf277.005" unicode="&#x635;" horiz-adv-x="2140" arabic-form="final" 
d="M1749 90l8 1q29 2 49.5 6.5t71.5 18.5q93 26 136.5 33t117.5 7h28q31 0 38 -18l1 -4q1 -2 1 -4v-94q0 -13 -12 -23q-9 -8 -25 -10.5t-53 -2.5l-244 8l-124 4l-65 2q-38 0 -72 2q-56 3 -60 3q-16 0 -55 -3l-81 -6l-63 -5q-48 -3 -76 -3q-16 -19 -26 -35.5t-38 -70.5
q-23 -42 -31 -42q-11 0 -11 25q0 54 23 121l-83 1q-49 0 -106 12q0 -104 -27 -206t-75 -173q-37 -56 -95.5 -102.5t-126.5 -73.5q-106 -43 -239 -43q-144 0 -236 66q-61 45 -89 101.5t-28 138.5q0 142 77 268q20 32 40 54t30 22q8 0 8 -9q0 -6 -10 -22q-81 -141 -81 -243
q0 -47 22.5 -82.5t72.5 -67.5q44 -29 105 -45t125 -16q103 0 195.5 25t157.5 69q47 33 67.5 81t20.5 128q0 99 -16 176l-19 18q-33 31 -67 82q24 45 54 87l22 32q4 5 13 18q35 -79 100 -109.5t201 -30.5q32 0 77 5l17 25q105 155 255 278q84 69 164 106.5t146 37.5
q80 0 133 -55.5t53 -140.5q0 -58 -26.5 -113t-74.5 -95q-71 -61 -194 -110zM1372 159q19 1 22 1l34 1q18 0 71.5 6t92.5 13q80 14 167 44q76 25 121.5 55.5t45.5 55.5q0 27 -42 56q-54 38 -125 38q-56 0 -114.5 -26.5t-126.5 -81.5q-39 -33 -79 -77t-67 -85z" />
    <glyph glyph-name="sf310.003" unicode="&#x636;" horiz-adv-x="1477" arabic-form="initial" 
d="M515 -3q-15 2 -18 2l-46 -1q-27 0 -57 6t-46 15q-24 12 -38.5 27t-32.5 44q-10 18 -20 18q-8 0 -21 -12l-24 -24q-37 -35 -91.5 -54.5t-119.5 -19.5q-24 0 -42 11.5t-18 25.5l1 92q0 11 12.5 18.5t30.5 7.5l16 1q21 0 71 5t69 9q87 19 106 83q10 33 15 39q9 11 23 11
t21.5 -10t16.5 -39q19 -62 70 -81q39 -15 144 -15q31 0 69 4q8 11 11 16l25 33l38 50q41 55 100.5 114.5t118.5 104.5q169 128 295 128q77 0 129 -55.5t52 -137.5q0 -99 -81 -190q-108 -121 -360 -183q-70 -18 -165.5 -30.5t-154.5 -12.5h-20q-16 -22 -34 -55l-18 -32
l-16 -29q-16 -29 -24 -29q-10 0 -10 26q0 52 23 119zM701 158q128 0 265.5 29.5t217.5 74.5q33 18 52 38t19 35q0 29 -50 59q-55 33 -117 33q-45 0 -98 -20t-100 -54q-42 -31 -82.5 -70t-68.5 -75l-26 -34zM777 848q71 -71 133 -106q-29 -33 -45.5 -58.5t-43.5 -76.5
q-59 52 -132 94l-12 7l15 19q61 78 85 121z" />
    <glyph glyph-name="sf328.001" unicode="&#x636;" horiz-adv-x="1471" arabic-form="medial" 
d="M700 160l29 1q96 0 231 27q65 13 128.5 35t102.5 45q64 38 64 69q0 29 -50 59q-55 33 -117 33q-96 0 -200 -75q-39 -28 -80 -67.5t-69 -76.5l-26 -34q-3 -4 -13 -16zM595 1q-10 -13 -14 -19l-8 -15l-11 -19l-10 -19q-38 -74 -49 -74q-12 0 -12 34q0 40 24 111
q-16 1 -18 1h-48q-62 0 -103 20q-21 10 -36 25.5t-33 45.5q-11 18 -20 18q-8 0 -21 -13q-51 -52 -104.5 -74t-132.5 -22q-22 0 -40 11t-18 26l1 91q0 11 12.5 19t30.5 8h16q20 0 70 5t70 9q86 18 106 83q10 33 15 39q9 11 23 11t21.5 -9.5t16.5 -38.5q10 -35 26.5 -53.5
t43.5 -28.5q23 -9 54.5 -12t90.5 -3q30 0 68 4q12 18 35 49l37 51q42 58 120 131.5t143 117.5q144 98 255 98q70 0 124 -54q56 -55 56 -146q0 -106 -92 -194q-39 -38 -78.5 -61.5t-124.5 -58.5v-7q10 1 14 2l27 3q20 3 55 14l27 8q127 39 208 39l34 2h21h24q32 0 38 -18
l1 -4q1 -2 1 -4v-94q0 -13 -12 -23q-9 -8 -23.5 -10.5t-53.5 -2.5l-75 2l-81 2l-74 3l-84 2l-71 4l-68 2l-82 2q-85 0 -205 -9l-56 -4q-11 -1 -51 -3zM764 867q71 -70 133 -105q-29 -33 -45.5 -58.5t-43.5 -76.5q-59 51 -131 93l-13 7l15 19q61 79 85 121z" />
    <glyph glyph-name="sf277.034" unicode="&#x636;" horiz-adv-x="2140" arabic-form="final" 
d="M1749 90l8 1q29 2 49.5 6.5t71.5 18.5q93 26 136.5 33t117.5 7h28q31 0 38 -18l1 -4q1 -2 1 -4v-94q0 -13 -12 -23q-9 -8 -25 -10.5t-53 -2.5l-244 8l-124 4l-65 2q-38 0 -72 2q-56 3 -60 3q-16 0 -55 -3l-81 -6l-63 -5q-48 -3 -76 -3q-16 -19 -26 -35.5t-38 -70.5
q-23 -42 -31 -42q-11 0 -11 25q0 54 23 121l-83 1q-49 0 -106 12q0 -104 -27 -206t-75 -173q-37 -56 -95.5 -102.5t-126.5 -73.5q-106 -43 -239 -43q-144 0 -236 66q-61 45 -89 101.5t-28 138.5q0 142 77 268q20 32 40 54t30 22q8 0 8 -9q0 -6 -10 -22q-81 -141 -81 -243
q0 -47 22.5 -82.5t72.5 -67.5q44 -29 105 -45t125 -16q103 0 195.5 25t157.5 69q47 33 67.5 81t20.5 128q0 99 -16 176l-19 18q-33 31 -67 82q24 45 54 87l22 32q4 5 13 18q35 -79 100 -109.5t201 -30.5q32 0 77 5l17 25q105 155 255 278q84 69 164 106.5t146 37.5
q80 0 133 -55.5t53 -140.5q0 -58 -26.5 -113t-74.5 -95q-71 -61 -194 -110zM1372 159q19 1 22 1l34 1q18 0 71.5 6t92.5 13q80 14 167 44q76 25 121.5 55.5t45.5 55.5q0 27 -42 56q-54 38 -125 38q-56 0 -114.5 -26.5t-126.5 -81.5q-39 -33 -79 -77t-67 -85zM1430 833
q70 -71 133 -106q-29 -33 -45.5 -58t-43.5 -77q-59 52 -132 94l-12 7l15 19q61 79 85 121z" />
    <glyph glyph-name="sf311" unicode="&#x637;" horiz-adv-x="1038" arabic-form="initial" 
d="M834 339q-19 40 -66 62t-114 22q-43 0 -75.5 -9.5t-78.5 -34.5q-60 -33 -128 -90q-35 -30 -63 -63t-28 -45q0 -14 24 -14q44 0 141 22t184 51q68 23 127.5 52t76.5 47zM133 1174q16 15 20 19l20 23q24 27 31 36.5t28 44.5q38 -81 112 -162q-9 -10 -14 -14
q-34 -36 -47 -61t-13 -56q0 -16 4 -45l7 -49q4 -23 11 -64q31 -183 31 -339q0 -66 -13 -166l10 -4q11 10 13 12l32 32q101 101 201.5 156t183.5 55q94 0 143 -63q19 -24 31 -58.5t12 -63.5q0 -32 -17 -83t-40 -89q-13 -22 -29.5 -35t-64.5 -40q-137 -77 -328.5 -119
t-403.5 -42q-56 0 -73.5 2.5t-26.5 10.5q-12 10 -12 23v94v4l1 4q6 16 27 18h11l24 2l38 1q109 5 162 71q26 31 36 67t10 94q0 87 -8.5 202.5t-22.5 215.5q-7 50 -21.5 128t-24.5 115q-16 64 -40 123z" />
    <glyph glyph-name="sf329" unicode="&#x637;" horiz-adv-x="1016" arabic-form="medial" 
d="M829 344q1 9 -16.5 26.5t-36.5 27.5q-23 11 -59.5 18.5t-68.5 7.5q-62 0 -126 -30.5t-147 -100.5q-94 -79 -94 -112q0 -14 19 -14q53 0 183 31q167 40 278 96q41 20 54 30t14 20zM777 158l217 -2h21l20 -1q32 0 39 -18l1 -4v-4v-94q0 -13 -12 -23q-9 -8 -22 -10t-46 -2
q-61 0 -92 2l-63 4l-88 7q-8 1 -73 7q-43 4 -62 5l-48 2q-36 3 -46 3q-49 0 -151 -8l-74 -6l-82 -6q-59 -5 -73 -6l-67 -4q-31 -1 -40 -1l-36 1q-28 0 -43.5 9.5t-15.5 25.5v94v4l1 4q7 18 38 18q62 0 107 10t77 31q26 17 42 37.5t28 52.5q15 41 15 135q0 67 -9 161l-6 69
q-18 196 -42 319.5t-59 205.5q58 55 98 126q15 -35 33.5 -63t61.5 -81q6 -7 18 -22q-39 -33 -55.5 -62.5t-16.5 -68.5q0 -29 8 -81l10 -63q33 -211 33 -356q0 -15 -2 -43l-2 -36q-2 -17 -4 -31l-3 -24l-3 -18q0 -3 -2 -13l12 -2q11 10 13 12l29 30q79 81 188 148
q106 65 195 65q82 0 132 -47q27 -25 43.5 -64.5t16.5 -80.5q0 -75 -52 -151q-36 -53 -107 -92z" />
    <glyph glyph-name="sf277.006" unicode="&#x637;" horiz-adv-x="1289" arabic-form="final" 
d="M1050 155l223 -2h16l21 -1q31 0 38 -17l1 -4q1 -3 1 -5v-94q0 -12 -12 -23q-9 -7 -22.5 -9.5t-47.5 -2.5q-21 0 -87 4l-63 4q-16 1 -87 6q-40 4 -75 6q-50 4 -62 5q-68 5 -101 5q-96 0 -238 -11l-62 -5q-41 -3 -59 -4l-61 -3l-50 -3q-20 -1 -34 -1q-37 0 -67.5 13.5
t-67.5 46.5q-27 24 -44.5 47t-17.5 35q0 14 36 14l36 1h39q78 0 144.5 13.5t100.5 35.5q75 50 75 180l-1 60l-2 59q0 47 -18 210l-8 74q-14 131 -33.5 222.5t-49.5 165.5q16 15 20 20l20 22q24 28 30.5 37t28.5 44q37 -81 111 -162q-9 -10 -13 -14q-36 -37 -48.5 -63
t-12.5 -63q0 -19 9 -78l10 -63l11 -73q20 -139 20 -256q0 -17 -1 -40l-2 -38q-1 -26 -2 -32l-3 -28l-2 -27q-1 -6 -5 -24l13 -1l17 17l33 35q76 78 184 139q109 61 196 61q88 0 136 -55q48 -54 48 -133q0 -76 -41 -140t-118 -107zM1106 338q-15 38 -63.5 61.5t-114.5 23.5
q-67 0 -133.5 -31t-151.5 -103q-34 -29 -62 -62t-28 -45q0 -15 19 -15q44 0 139.5 20.5t177.5 47.5q182 60 217 103z" />
    <glyph glyph-name="sf311.001" unicode="&#x638;" horiz-adv-x="1038" arabic-form="initial" 
d="M834 339q-19 40 -66 62t-114 22q-43 0 -75.5 -9.5t-78.5 -34.5q-60 -33 -128 -90q-35 -30 -63 -63t-28 -45q0 -14 24 -14q44 0 141 22t184 51q68 23 127.5 52t76.5 47zM133 1174q16 15 20 19l20 23q24 27 31 36.5t28 44.5q38 -81 112 -162q-9 -10 -14 -14
q-34 -36 -47 -61t-13 -56q0 -16 4 -45l7 -49q4 -23 11 -64q31 -183 31 -339q0 -66 -13 -166l10 -4q11 10 13 12l32 32q101 101 201.5 156t183.5 55q94 0 143 -63q19 -24 31 -58.5t12 -63.5q0 -32 -17 -83t-40 -89q-13 -22 -29.5 -35t-64.5 -40q-137 -77 -328.5 -119
t-403.5 -42q-56 0 -73.5 2.5t-26.5 10.5q-12 10 -12 23v94v4l1 4q6 16 27 18h11l24 2l38 1q109 5 162 71q26 31 36 67t10 94q0 87 -8.5 202.5t-22.5 215.5q-7 50 -21.5 128t-24.5 115q-16 64 -40 123zM584 1011q71 -71 133 -106q-29 -33 -45.5 -58.5t-43.5 -76.5
q-59 52 -131 93l-13 8l15 18q61 79 85 122z" />
    <glyph glyph-name="sf329.001" unicode="&#x638;" horiz-adv-x="1016" arabic-form="medial" 
d="M584 978q70 -71 133 -106q-29 -33 -46 -58t-43 -76q-60 51 -132 93l-12 7l14 19q62 79 86 121zM829 343q1 9 -16.5 26.5t-36.5 27.5q-23 11 -59.5 18.5t-68.5 7.5q-62 0 -126 -30.5t-147 -100.5q-94 -79 -94 -112q0 -14 19 -14q53 0 183 31q167 40 278 96q41 20 54 30
t14 20zM777 157l217 -2l21 -1h20q32 0 39 -18l1 -4v-4v-94q0 -13 -12 -23q-9 -8 -22 -10t-46 -2q-61 0 -92 1l-63 5l-88 7q-8 1 -73 7q-43 4 -62 5l-48 2q-36 2 -46 2q-49 0 -151 -8l-74 -5l-82 -7q-59 -4 -73 -5l-67 -4q-31 -1 -40 -1l-36 1q-28 0 -43.5 9.5t-15.5 25.5v94
v4l1 4q7 18 38 18q62 0 107 10t77 31q26 17 42 37.5t28 52.5q15 41 15 135q0 67 -9 161l-6 69q-18 196 -42 319.5t-59 205.5q58 55 98 126q15 -36 33.5 -63.5t61.5 -80.5q6 -7 18 -22q-39 -33 -55.5 -62.5t-16.5 -68.5q0 -29 8 -81l10 -63q33 -211 33 -356q0 -15 -2 -43
l-2 -36q-2 -17 -4 -31l-3 -24l-3 -18q0 -3 -2 -13l12 -3l13 13l29 30q79 81 188 148q106 65 195 65q82 0 132 -47q27 -25 43.5 -64.5t16.5 -80.5q0 -76 -52 -151q-36 -53 -107 -92z" />
    <glyph glyph-name="sf277.035" unicode="&#x638;" horiz-adv-x="1289" arabic-form="final" 
d="M1051 158l222 -2h17l20 -1q32 0 39 -18l1 -4v-4v-94q0 -16 -16 -25.5t-43 -9.5h-19h-18q-8 0 -72 4l-63 4q-18 1 -88 6q-38 3 -74 6q-50 3 -62 4q-69 6 -102 6q-95 0 -237 -11l-62 -5q-41 -3 -60 -4l-60 -3l-50 -3q-20 -1 -34 -1q-37 0 -67.5 13.5t-68.5 45.5
q-27 24 -44.5 47.5t-17.5 35.5q0 13 36 13l37 1l38 1q79 0 145 13t101 36q75 50 75 180l-1 59l-2 60q0 47 -18 210l-8 73q-14 131 -33.5 222.5t-50.5 166.5q17 15 21 19l19 23q24 27 31 36t29 44q37 -81 111 -162l-14 -14q-35 -37 -47.5 -62.5t-12.5 -62.5q0 -19 9 -78
l10 -64l10 -72q21 -140 21 -256q0 -17 -1 -40l-2 -38q-2 -26 -2 -32l-3 -28l-2 -27q-1 -7 -5 -24l13 -1q14 13 17 16l33 35q76 79 184 140q109 61 196 61q88 0 136 -55q48 -54 48 -134q0 -76 -41.5 -140t-117.5 -106zM1106 340q-14 39 -62.5 62t-114.5 23q-67 0 -133.5 -31
t-151.5 -102q-35 -29 -62.5 -62.5t-27.5 -45.5q0 -15 19 -15q43 0 139 21t178 48q181 60 216 102zM858 999q71 -70 133 -105q-29 -33 -45.5 -58.5t-42.5 -76.5q-60 51 -132 93l-13 7l15 19q61 79 85 121z" />
    <glyph glyph-name="sf299" unicode="&#x639;" horiz-adv-x="913" arabic-form="initial" 
d="M814 297q-43 -33 -275 -139l-56 -26q-141 -65 -257 -96q-137 -37 -206 -37q-79 0 -79 35v101q0 13 8 17t35 4q161 0 242 38q-6 6 -7 8l-17 15q-22 19 -42 57q-17 30 -17 66q0 40 28.5 102.5t71.5 116.5q116 145 242 145q79 0 150 -58q27 -21 51 -48.5t24 -35.5
q0 -11 -13 -11q-6 0 -15 3q-64 20 -129 20q-83 0 -161 -29q-61 -23 -95 -48t-34 -47q0 -19 25.5 -49t62.5 -54q76 -50 133 -50q40 0 101 24q84 34 207 101l28 15l14 7l-1 -9q-3 -45 -14 -109z" />
    <glyph glyph-name="sf318" unicode="&#x639;" horiz-adv-x="790" arabic-form="medial" 
d="M315 247q-54 74 -126 88l-18 4l-10 4q-8 2 -8 9q0 12 14 43q27 66 89 101t149 35q93 0 162 -31q42 -19 68 -51t26 -65q0 -44 -46 -87q-20 -20 -77 -59q74 -56 138 -71q52 -11 114 -11q35 0 47.5 -6t12.5 -21l1 -94q0 -13 -13 -23q-14 -12 -65 -12q-59 0 -94 8
q-30 6 -54 21t-78 59l-35 29q-76 63 -99 63q-20 0 -112 -62q-110 -74 -163.5 -96t-121.5 -22q-35 0 -48 6q-27 13 -27 31l1 92q0 27 59 27l36 1q28 0 74 7t78 16q67 18 126 67z" />
    <glyph glyph-name="sf277.008" unicode="&#x639;" horiz-adv-x="985" arabic-form="final" 
d="M667 237q42 -48 93 -64q52 -16 162 -16h40l20 -1l14 1q6 0 8 -1l11 -2q14 -2 19 -5.5t9 -11.5l1 -4v-4v-94q0 -13 -12 -23q-9 -8 -22 -10t-45 -2q-164 0 -239 27q-56 21 -91.5 55t-79.5 108l-20 -11q-89 -48 -150.5 -101t-111.5 -125q-91 -134 -91 -286q0 -99 40 -181
t116 -137q169 -122 521 -122q174 0 339 24q37 5 58 5q24 0 24 -14q0 -11 -34.5 -31.5t-106.5 -50.5t-184 -58q-71 -18 -117 -24.5t-98 -6.5q-304 0 -476 137.5t-172 380.5q0 213 125 405q39 60 102.5 133.5t119.5 122.5q-40 31 -69 42t-86 14q36 99 106 149t173 50
q94 0 157 -40q29 -19 46 -47.5t17 -59.5q0 -30 -20.5 -54t-68.5 -51z" />
    <glyph glyph-name="sf299.001" unicode="&#x63a;" horiz-adv-x="913" arabic-form="initial" 
d="M814 295q-43 -33 -275 -139l-56 -26q-141 -65 -257 -96q-137 -37 -206 -37q-79 0 -79 35v101q0 13 8 17.5t35 4.5q161 0 242 38q-6 5 -7 7l-17 15q-22 19 -42 57q-17 30 -17 66q0 40 28.5 102.5t71.5 116.5q116 145 242 145q79 0 150 -58q27 -21 51 -48.5t24 -35.5
q0 -11 -13 -11q-6 0 -15 3q-64 20 -129 20q-83 0 -161 -29q-61 -22 -95 -47.5t-34 -47.5q0 -19 25.5 -48.5t62.5 -54.5q76 -50 133 -50q40 0 101 24q84 34 207 101l28 15l14 7l-1 -9q-3 -45 -14 -109zM376 1076q70 -71 133 -106q-29 -33 -45.5 -58t-43.5 -76q-59 51 -132 93
l-12 7l15 19q61 79 85 121z" />
    <glyph glyph-name="sf318.001" unicode="&#x63a;" horiz-adv-x="790" arabic-form="medial" 
d="M315 248q-54 73 -126 88l-18 4l-10 3q-8 3 -8 10q0 11 14 43q27 65 89 100.5t149 35.5q93 0 162 -32q42 -19 68 -51t26 -65q0 -43 -46 -87q-20 -19 -77 -58q74 -56 138 -71q52 -12 114 -12q35 0 47.5 -5.5t12.5 -21.5l1 -93q0 -13 -13 -23q-14 -13 -65 -13q-59 0 -94 8
q-30 7 -54 21.5t-78 58.5l-35 29q-76 64 -99 64q-20 0 -112 -62q-110 -74 -163.5 -96.5t-121.5 -22.5q-35 0 -48 7q-27 12 -27 31l1 91q0 27 59 27l36 1q28 0 74 7t78 16q67 19 126 68zM351 960q71 -71 133 -106q-29 -33 -45.5 -58t-43.5 -76q-59 51 -132 93l-12 7l15 19
q61 79 85 121z" />
    <glyph glyph-name="sf277.036" unicode="&#x63a;" horiz-adv-x="985" arabic-form="final" 
d="M667 237q42 -48 93 -64q52 -16 162 -16h40l20 -1l14 1q6 0 8 -1l11 -2q14 -2 19 -5.5t9 -11.5l1 -4v-4v-94q0 -13 -12 -23q-9 -8 -22 -10t-45 -2q-164 0 -239 27q-56 21 -91.5 55t-79.5 108l-20 -11q-89 -48 -150.5 -101t-111.5 -125q-91 -134 -91 -286q0 -99 40 -181
t116 -137q169 -122 521 -122q174 0 339 24q37 5 58 5q24 0 24 -14q0 -11 -34.5 -31.5t-106.5 -50.5t-184 -58q-71 -18 -117 -24.5t-98 -6.5q-304 0 -476 137.5t-172 380.5q0 213 125 405q39 60 102.5 133.5t119.5 122.5q-40 31 -69 42t-86 14q36 99 106 149t173 50
q94 0 157 -40q29 -19 46 -47.5t17 -59.5q0 -30 -20.5 -54t-68.5 -51zM491 871q70 -71 133 -106q-29 -33 -45.5 -58t-43.5 -76q-60 51 -132 93l-12 7l15 19q61 79 85 121z" />
    <glyph glyph-name="sf301" unicode="&#x641;" horiz-adv-x="568" arabic-form="initial" 
d="M183 443q23 -25 55 -25q28 0 51 15.5t23 35.5q0 28 -31 62q-29 32 -41 32q-15 0 -36 -44.5t-21 -75.5zM381 379q-17 -13 -29 -32q-14 -22 -24.5 -31.5t-30.5 -18.5q-35 -16 -82 -16q-56 0 -82.5 24.5t-26.5 76.5q0 102 50 217q53 121 114 121q35 0 80.5 -44.5
t73.5 -106.5q52 -113 52 -228q0 -95 -34 -169q-21 -47 -63.5 -77.5t-119.5 -53.5q-60 -18 -127 -29t-119 -11q-37 0 -54.5 8.5t-17.5 26.5v94v4l1 5q7 17 38 17l21 1h19q36 0 102 7t98 14q107 23 169 65q20 14 26 23.5t6 27.5q0 55 -40 85zM199 1059q70 -71 133 -106
q-29 -33 -45.5 -58t-43.5 -77q-59 52 -132 94l-12 7q11 12 17 19l22 32l22 30q24 33 39 59z" />
    <glyph glyph-name="sf321" unicode="&#x641;" horiz-adv-x="678" arabic-form="medial" 
d="M408 1008l10 -10q64 -63 123 -96q-28 -31 -44.5 -56.5t-44.5 -77.5q-61 52 -132 93l-12 7l15 19q61 79 85 121zM387 250q10 -1 36.5 7t42.5 16q62 32 62 83q0 44 -33.5 80.5t-73.5 36.5q-52 0 -102 -38q-23 -17 -38 -38.5t-15 -37.5q0 -27 44.5 -67.5t76.5 -41.5z
M737 129v-94q0 -35 -65 -35q-70 0 -132 15q-45 12 -75 23t-91 41q-42 20 -57 20q-13 0 -74 -28l-42 -20q-49 -22 -102.5 -36.5t-87.5 -14.5q-70 0 -70 36v94v4l1 4q7 18 38 18h21q26 0 73.5 5.5t69.5 10.5q57 13 57 33q0 5 -1 11l-5 24q-2 11 -2 29q0 55 30.5 119.5
t89.5 134.5q49 57 109.5 99.5t93.5 42.5q36 0 62 -65q10 -28 17 -69t7 -75q0 -43 -11 -88t-28 -74l-28 -46q-17 -29 -20 -33q-9 -13 -9 -20q0 -15 29 -24q17 -5 71 -10.5t91 -5.5q32 0 39 -18l1 -4v-4z" />
    <glyph glyph-name="sf277.009" unicode="&#x641;" horiz-adv-x="1742" arabic-form="final" 
d="M1335 362q0 -32 39 -68q18 -17 41.5 -30.5t35.5 -13.5q10 0 34.5 7t38.5 14q70 34 70 85q0 36 -25 71q-32 46 -87 46q-43 0 -96 -37q-51 -36 -51 -74zM1429 989q70 -71 133 -106q-29 -33 -45.5 -58t-43.5 -76q-59 51 -132 93l-12 7l15 19q61 79 85 121zM1801 129v-93
q0 -36 -64 -36q-74 0 -140.5 17.5t-145.5 57.5q-55 27 -72 27q-16 0 -91 -31q-89 -36 -155 -53t-173 -31q-130 -17 -255 -17q-613 0 -613 319q0 93 56 204q35 71 55 71q8 0 8 -9q0 -8 -5 -22l-11 -31q-20 -56 -20 -99q0 -121 162 -192t436 -71q74 0 195 7.5t167 14.5l65 11
q65 10 65 37q0 3 -3 16q-4 12 -4 33q0 127 127 270q51 58 106.5 96t87.5 38q38 0 63 -62q26 -68 26 -149q0 -55 -17 -105.5t-56 -108.5q-24 -37 -24 -41q0 -19 41 -27q43 -9 93 -12l37 -1l19 -1q32 0 39 -18l1 -4v-5z" />
    <glyph glyph-name="sf301.001" unicode="&#x642;" horiz-adv-x="587" arabic-form="initial" 
d="M183 442q23 -25 55 -25q28 0 51 16t23 35q0 28 -31 63q-29 31 -41 31q-15 0 -36 -44t-21 -76zM381 378q-17 -13 -29 -31q-14 -23 -24.5 -32.5t-30.5 -18.5q-35 -16 -82 -16q-56 0 -82.5 24.5t-26.5 77.5q0 102 50 216q53 121 114 121q35 0 80.5 -44.5t73.5 -106.5
q52 -113 52 -227q0 -96 -34 -170q-21 -47 -63.5 -77.5t-119.5 -53.5q-60 -18 -127 -29t-119 -11q-37 0 -54.5 8.5t-17.5 27.5v93v5l1 4q7 18 38 18h21h19q36 0 102 7t98 14q107 24 169 65q20 14 26 23.5t6 27.5q0 55 -40 85zM106 1027q62 -50 106 -77l18 -11q42 54 68 101
l5 8q10 -7 12 -9l21 -17q30 -24 66 -45l22 -13q4 -2 16 -10q-48 -50 -88 -129q-55 53 -118 87q-33 -39 -70 -117q-36 39 -107 85l-24 16q-2 2 -11 8q54 65 84 123z" />
    <glyph glyph-name="sf321.001" unicode="&#x642;" horiz-adv-x="678" arabic-form="medial" 
d="M290 969q62 -50 106 -77l18 -10q42 53 69 100l4 8q10 -7 13 -9l20 -17q30 -24 66 -45l22 -13q4 -2 17 -10q-48 -50 -89 -128q-55 52 -118 86q-32 -39 -69 -117q-37 39 -107 85l-24 16l-12 8q54 65 84 123zM387 250q10 -1 36.5 7t42.5 16q62 32 62 83q0 44 -33.5 80.5
t-73.5 36.5q-52 0 -102 -38q-23 -17 -38 -38.5t-15 -37.5q0 -27 44.5 -67.5t76.5 -41.5zM737 129v-94q0 -35 -65 -35q-70 0 -132 15q-45 12 -75 23t-91 41q-42 20 -57 20q-13 0 -74 -28l-42 -20q-49 -22 -102.5 -36.5t-87.5 -14.5q-70 0 -70 36v94v4l1 4q7 18 38 18h21
q26 0 73.5 5.5t69.5 10.5q57 13 57 33q0 5 -1 11l-5 24q-2 11 -2 29q0 55 30.5 119.5t89.5 134.5q49 57 109.5 99.5t93.5 42.5q36 0 62 -65q10 -28 17 -69t7 -75q0 -43 -11 -88t-28 -74l-28 -46q-17 -29 -20 -33q-9 -13 -9 -20q0 -15 29 -24q17 -5 71 -10.5t91 -5.5
q32 0 39 -18l1 -4v-4z" />
    <glyph glyph-name="sf277.010" unicode="&#x642;" horiz-adv-x="1108" arabic-form="final" 
d="M918 146q-14 111 -96 111q-26 0 -44.5 -14t-18.5 -34q0 -29 51 -49q35 -14 108 -14zM682 698q61 -51 105 -77l18 -11q42 53 69 100l5 8q10 -7 12 -9l21 -17q30 -24 65 -45l23 -13q3 -2 16 -10q-48 -50 -88 -128q-55 53 -119 86q-32 -39 -69 -117q-37 39 -107 86l-24 16
q-2 1 -11 7q53 65 84 124zM930 0q-32 0 -79 4.5t-66 9.5q-101 26 -101 114q0 87 80 193q57 75 102 75q48 0 82.5 -56.5t64.5 -182.5l94 -1l21 -1q31 0 38 -18l1 -4q1 -2 1 -4v-94q0 -13 -12 -23q-10 -8 -24.5 -10t-59.5 -2h-73q-21 -107 -64.5 -181.5t-122.5 -136.5
q-79 -63 -186 -101.5t-205 -38.5q-192 0 -283 138q-56 84 -56 195q0 126 61 239q23 43 47 73t35 30q9 0 9 -9q0 -6 -4 -14q-3 -4 -11 -21q-5 -10 -14 -27q-60 -110 -60 -207q0 -51 19 -90t61 -74q45 -36 105 -57.5t119 -21.5q56 0 135.5 19.5t159.5 53.5q89 37 140 81
q17 24 27 55.5t19 94.5z" />
    <glyph glyph-name="sf302.001" unicode="&#x643;" horiz-adv-x="790" arabic-form="initial" 
d="M131 775q0 -26 12 -37.5t59 -31.5q98 -41 143 -69q87 -53 149 -131q89 -110 89 -240q0 -49 -15 -94t-41 -72q-43 -47 -124.5 -73.5t-183.5 -26.5l-87 1l-132 -1q-28 0 -43.5 9.5t-15.5 25.5v94v4l1 4q7 18 38 18l21 1h23h12l87 -1q111 0 165.5 4.5t101.5 16.5
q55 16 96.5 43t41.5 47q0 11 -21 42.5t-48 61.5q-46 51 -111.5 100t-127.5 78l-60 28q-45 21 -64.5 58t-19.5 100q0 48 6 74.5t21 43.5q38 43 209 124l66 31q65 31 217 89q107 42 190 66l-82 -159l-31 -10q-48 -17 -59 -20l-62 -21q-9 -3 -62 -22l-79 -28
q-179 -64 -279 -127z" />
    <glyph glyph-name="sf322.003" unicode="&#x643;" horiz-adv-x="1020" arabic-form="medial" 
d="M555 361q-9 -77 -18.5 -117t-27.5 -80q-24 -55 -65 -87.5t-108 -50.5q-36 -10 -94 -17t-102 -7l-74 -1h-66q-28 0 -43.5 9t-15.5 26v93v5l1 4q7 18 38 18h21l95 4q65 0 143 9.5t123 22.5q121 37 121 120q0 51 -32.5 85t-119.5 74l-78 36q-94 44 -130 113q-32 62 -32 121
q0 62 46 118t152 123q162 103 420 209l95 40q66 27 101 41q67 26 106 43l-99 -195l-18 -5q-153 -39 -439 -171q-136 -62 -222 -119.5t-86 -85.5q0 -22 70 -52l70 -30q129 -56 221 -117q120 -78 263 -206l69 -62q44 -40 54 -49q49 -45 73.5 -56.5t72.5 -11.5q31 0 38 -18
l1 -4v-4v-94q0 -35 -65 -35q-34 0 -62 12q-57 26 -112 71.5t-146 141.5q-78 82 -126 124z" />
    <glyph glyph-name="sf322.004" unicode="&#x643;" horiz-adv-x="1600" arabic-form="final" 
d="M1363 235l-25 -2q-31 -83 -53 -121q-29 -48 -58.5 -74t-69.5 -38q-68 -20 -211.5 -31.5t-327.5 -11.5q-245 0 -373 60q-153 71 -153 228q0 47 15 99t41 96q38 67 64 67q11 0 11 -11q0 -8 -12 -25q-38 -52 -38 -97q0 -118 155 -189q124 -56 340 -56h62q184 0 295 11
t169 35q65 28 94 77t29 132l-1 48l-3 63l-6 125l-6 107l-6 114l-4 119q0 18 -5 96q-4 66 -4 73l92 119l1 -45l2 -69q0 -27 5.5 -146.5t10.5 -201.5q13 -215 25 -309q17 -142 35.5 -206.5t49.5 -88.5q18 -15 44.5 -21t71.5 -6q32 0 39 -18l1 -4v-4v-94q0 -16 -15 -25t-42 -9
q-56 0 -92 10t-66 35q-28 23 -46 62t-32 109zM871 905l12 -100q-51 -13 -80.5 -31.5t-29.5 -37.5q0 -12 11 -19t49 -19q56 -19 79 -36.5t23 -42.5q0 -29 -19.5 -68.5t-50.5 -72.5q-52 -55 -106 -55q-24 0 -69 15.5t-89 40.5l3 23q14 -1 16 -1l19 -1h16l8 -1q27 0 66 4.5
t57 10.5q21 6 36 18t15 23v3q-3 7 -22 10q-7 2 -27 8l-28 8q-89 27 -89 67q0 26 27 80t58 91q49 58 115 83z" />
    <glyph glyph-name="sf302.002" unicode="&#x6af;" horiz-adv-x="920" arabic-form="initial" 
d="M154 1014q54 36 116 73t126 72t127.5 67t121.5 58t107.5 45t85.5 29l41 119q-47 -11 -106.5 -33.5t-124.5 -52.5t-133 -65t-132 -71.5t-120 -72t-97 -66.5zM-59 41q0 -23 19.5 -32t39.5 -9h188q73 0 144.5 10.5t128.5 40t92 81.5t35 136q0 58 -17 109t-45.5 95
t-65.5 80.5t-77.5 65.5t-81.5 50t-76 34q-46 17 -62 32t-16 40q0 10 25 28t69 42t105 51.5t132.5 56t151 56.5t161.5 53l88 162q-121 -39 -223.5 -80t-187 -80t-150.5 -75t-113 -66q-36 -23 -58 -40t-34.5 -35t-16.5 -41.5t-4 -60.5q0 -35 2 -61.5t11.5 -47.5t30 -38
t57.5 -33q75 -33 137.5 -78.5t107 -89.5t69.5 -79.5t25 -49.5q0 -7 -15.5 -25t-54.5 -37t-105 -33.5t-167 -14.5h-206q-20 0 -31.5 -9t-11.5 -32v-76z" />
    <glyph glyph-name="sf322.001" unicode="&#x6af;" horiz-adv-x="1024" arabic-form="medial" 
d="M1010 1292q-36 -10 -100 -34t-142.5 -57t-164.5 -72t-167.5 -80t-150.5 -80.5t-113 -73.5q-20 -15 -32 -29t-18.5 -30.5t-8.5 -36.5t-2 -47q0 -82 30.5 -136.5t85.5 -80.5q90 -42 141.5 -73.5t77.5 -57t32.5 -48.5t6.5 -49q0 -35 -28.5 -63t-89.5 -47t-155.5 -29
t-227.5 -10q-20 0 -31.5 -9t-11.5 -32v-76q0 -23 19.5 -32t39.5 -9q103 0 182 4t138 17t100 37t68.5 64.5t43.5 100t25 142.5q26 -20 54 -47.5t56.5 -57.5t58.5 -62t60 -61q31 -29 62 -54t61.5 -43.5t59.5 -29t55 -10.5q20 0 39.5 9t19.5 32v76q0 23 -11.5 32t-31.5 9
q-37 0 -65 10.5t-43 26.5q-86 81 -165.5 151t-158.5 128.5t-159.5 106.5t-169.5 85q-40 20 -62.5 34.5t-34 25t-14 17t-2.5 9.5q0 4 3.5 12t8.5 16t11 15.5t12 11.5q26 21 75.5 48.5t113 58t136.5 63t146 62.5t141.5 57t122.5 47zM168 1022q54 36 125 76.5t147.5 81.5
t154.5 80.5t147 73t124 59t86 39.5l60 120q-57 -18 -129.5 -48.5t-151 -68t-159 -79t-154 -83.5t-135.5 -81t-103 -70z" />
    <glyph glyph-name="sf322.002" unicode="&#x6af;" horiz-adv-x="1747" arabic-form="final" 
d="M1733 1300q-137 -55 -250 -102t-209 -91t-177 -87t-153 -90q-31 -20 -52 -36t-34 -34t-18.5 -42t-5.5 -60q0 -48 5.5 -83.5t22.5 -63.5t48.5 -51.5t82.5 -47.5q74 -34 117 -60.5t64.5 -49.5t27.5 -46t6 -49q0 -33 -36 -63t-106 -53t-174 -36.5t-239 -13.5q-55 0 -112 5
t-110.5 16.5t-100 31t-81.5 48.5t-55 69t-20 92q0 35 8.5 65t17 52t11 34.5t-9.5 12.5q-8 0 -26 -24.5t-36.5 -64t-32.5 -90t-14 -101.5q0 -63 25.5 -111t67.5 -83t96.5 -58.5t112 -37.5t114.5 -20t104 -6q42 0 95 3t108 8.5t108 14t95 19.5q65 18 110 37.5t75 56t48 96.5
t29 159q26 -20 53.5 -47.5t56.5 -57.5t58.5 -62t60.5 -61t62 -54t61.5 -43.5t59.5 -29t55 -10.5q20 0 39.5 9t19.5 32v76q0 23 -11.5 32t-31.5 9q-37 0 -65 10.5t-43 26.5q-86 81 -167 149t-160.5 125t-160 105.5t-166.5 91.5q-37 18 -59 32t-34 24.5t-15.5 17.5t-3.5 12
q0 20 10.5 32t24.5 23q27 19 77.5 46t114 58t136 63.5t145 63t140.5 58t122 47.5zM891 1022q54 36 125 76.5t147.5 81.5t154.5 80.5t147 73t124 59t86 39.5l60 120q-57 -18 -129.5 -48.5t-151 -68t-159 -79t-154 -83.5t-135.5 -81t-103 -70z" />
    <glyph glyph-name="sf306" unicode="&#x644;" horiz-adv-x="468" arabic-form="initial" 
d="M376 1134q-33 -25 -58 -56q-29 -36 -29 -97q0 -34 7 -100.5t16 -120.5l17 -102l12 -87l11 -78q11 -81 11 -127q0 -125 -57 -254q-11 -26 -20.5 -38t-25.5 -22q-46 -29 -108 -39q-29 -4 -77.5 -8.5t-71.5 -4.5q-30 0 -46 9t-16 26v94v4l1 4q7 18 38 18l23 1h32l53 1l44 2
q157 0 157 135q0 31 -15 155l-14 114q-19 152 -33 242l-21 121l-13 82l-12 64q-7 38 -16 71l-6 24l100 134q8 -13 11 -20q25 -47 43.5 -72.5t62.5 -74.5z" />
    <glyph glyph-name="sf325" unicode="&#x644;" horiz-adv-x="564" arabic-form="medial" 
d="M177 1161l109 121l2 -29l3 -60q3 -67 5 -92l6 -88l6 -117q7 -115 18 -229l9 -86l10 -99q12 -123 26.5 -184.5t37.5 -91.5q40 -50 135 -50h20q35 0 47.5 -6t12.5 -21v-94q0 -16 -15.5 -25.5t-42.5 -9.5q-61 0 -103.5 11.5t-72.5 37.5q-29 23 -48 53.5t-44 91.5q-3 8 -9 22
q-12 -20 -15 -26l-18 -35q-48 -90 -100.5 -122.5t-153.5 -32.5q-24 0 -40 9q-21 13 -21 28l1 92q0 11 12.5 18.5t30.5 7.5l16 1l31 1l34 1q47 0 88.5 15.5t64.5 41.5q20 23 27 55t7 102q0 191 -20.5 405t-55.5 384z" />
    <glyph glyph-name="sf277.011" unicode="&#x644;" horiz-adv-x="1134" arabic-form="final" 
d="M892 1207l1 -31l2 -60l3 -87q0 -28 8 -159.5t15 -218.5q12 -141 31.5 -253t41.5 -163q20 -46 55.5 -64t104.5 -18q31 0 38 -18l1 -4v-4v-94q0 -16 -15.5 -25.5t-41.5 -9.5q-32 0 -64.5 7.5t-54.5 19.5q-28 16 -44.5 37t-36.5 69l-20 -3q4 -47 6 -84l4 -72q3 -68 3 -99
q0 -113 -9 -163q-8 -45 -28.5 -92.5t-47.5 -84.5q-63 -88 -180 -138t-256 -50q-143 0 -233 80q-43 39 -68 99.5t-25 125.5q0 67 29 160t74 169q63 106 82 106q4 0 7.5 -4t3.5 -9q0 -13 -36 -85q-49 -97 -71 -163t-22 -118q0 -93 80 -145t222 -52q176 0 312 94
q102 71 102 157q0 21 -3 63q-2 18 -4 63l-5 116l-7 153q0 27 -9 191l-12 208l-6 150l-8 164q-5 92 -5 99l-4 93z" />
    <glyph glyph-name="sf307" unicode="&#x645;" horiz-adv-x="713" arabic-form="initial" 
d="M403 429q-20 0 -42.5 -29t-22.5 -56q0 -37 44.5 -66t103.5 -29q19 0 27.5 5t8.5 19q0 19 -12 47t-30 52q-18 23 -41 40t-36 17zM620 177q-94 -99 -137 -99q-20 0 -42.5 10t-74.5 42q-70 44 -105 44q-18 0 -31.5 -11.5t-44.5 -54.5l-32 -42q-23 -31 -40.5 -44t-41.5 -17
q-30 -5 -72 -5q-27 0 -42.5 9.5t-15.5 25.5v94v4l1 4q7 18 38 18l21 1l43 -2q64 0 111.5 32.5t85.5 102.5l30 57q42 77 63.5 110.5t39.5 51.5q41 40 97 40q92 0 124 -119q26 -97 26 -231z" />
    <glyph glyph-name="sf326" unicode="&#x645;" horiz-adv-x="905" arabic-form="medial" 
d="M434 354q-32 0 -70 -47q-36 -42 -36 -64q0 -11 50.5 -50.5t84.5 -56.5l24 -11q11 -6 18 -6q21 0 21 49q0 55 -19 110q-12 36 -31.5 56t-41.5 20zM-59 37l1 92q0 27 59 27h42q25 0 58 6t52 14q33 14 57.5 37.5t57.5 71.5q62 92 97.5 128t64.5 36q30 0 71 -33t109 -111
q45 -52 78.5 -79t73.5 -45q24 -11 56.5 -18t59.5 -7h24q37 0 50.5 -6t13.5 -21l-1 -93q0 -19 -18 -27.5t-56 -8.5q-57 0 -102.5 15.5t-109.5 56.5q-21 13 -27 15h-2h-2q-3 -2 -8 -28q-14 -63 -30 -86t-46 -23q-58 0 -175 91l-49 38q-50 39 -71.5 52t-34.5 13q-21 0 -45 -31
q-33 -44 -49.5 -60.5t-39.5 -29.5q-41 -23 -102 -23q-22 0 -39.5 11.5t-17.5 25.5z" />
    <glyph glyph-name="sf277.012" unicode="&#x645;" horiz-adv-x="974" arabic-form="final" 
d="M382 293q31 36 46.5 49.5t25.5 13.5q13 0 39 -25q61 -59 94.5 -84t69.5 -40q99 -41 268 -50q37 -2 49 -2q16 -1 20 -1q32 0 38 -18l1 -4q1 -3 1 -4v-94q0 -19 -17.5 -27.5t-57.5 -8.5q-129 0 -261 45q-21 7 -25 8l-24 7q-6 2 -9 2q-15 0 -15 -29l-2 -24l-1 -25
q0 -66 -26 -110t-65 -44q-48 0 -85 67q-25 46 -43 130q-10 53 -18 64q-13 19 -36 19q-22 0 -56.5 -17t-74.5 -47q-33 -25 -47.5 -50.5t-14.5 -58.5q0 -52 22 -162l10 -46l12 -62q32 -162 45 -272t13 -209q0 -51 -4.5 -71t-17.5 -20q-21 0 -42 110l-10 55l-17 86l-17 104
l-15 83l-13 83l-9 54q-21 138 -21 219q0 83 17.5 144t54.5 111q72 95 218 151z" />
    <glyph glyph-name="sf300.008" unicode="&#x646;" horiz-adv-x="428" arabic-form="initial" 
d="M266 530q32 -47 54 -112q11 -33 19 -76t8 -70q0 -47 -36 -130q-24 -56 -43 -85q-10 -15 -30 -24t-65 -19q-63 -13 -123 -13h-32h-17q-28 0 -44 9t-16 26v94v4l1 4q7 18 39 18h20l21 1l44 2q74 0 125 15t84 47q-13 46 -30.5 80.5t-54.5 83.5zM128 843q70 -71 133 -106
q-29 -33 -45.5 -58t-43.5 -76q-59 51 -132 93l-12 7l15 19q61 79 85 121z" />
    <glyph glyph-name="sf277.023" unicode="&#x646;" horiz-adv-x="453" arabic-form="medial" 
d="M-59 35v94v4l1 4q7 18 38 18q97 0 159.5 26.5t111.5 87.5q21 27 35 27t20 -25l4 -16q10 -35 27 -55t49 -32q35 -13 87 -13q32 0 38 -18l1 -4q1 -2 1 -4v-94q0 -17 -16.5 -26t-45.5 -9q-111 0 -178 98q-19 28 -28 28q-8 0 -41 -31q-60 -56 -101 -75.5t-98 -19.5
q-64 0 -64 35zM230 684q71 -70 133 -105q-29 -33 -45.5 -58.5t-43.5 -76.5q-59 51 -132 93l-12 7l15 19q61 79 85 121z" />
    <glyph glyph-name="sf277.020" unicode="&#x646;" horiz-adv-x="1128" arabic-form="final" 
d="M900 296l9 -19q29 -55 55 -78t69 -33q52 -11 115 -11q32 0 38 -18l1 -4q1 -2 1 -4v-94q0 -35 -69 -35q-64 0 -117 12l-2 -29q-8 -113 -25 -175q-34 -123 -103 -208q-72 -90 -186 -137.5t-258 -47.5q-156 0 -256 88q-90 79 -90 218q0 69 21.5 141t61.5 133q43 68 63 68
q9 0 9 -10q0 -6 -12 -29l-10 -19l-12 -23q-55 -107 -55 -194q0 -51 30.5 -91t94.5 -72q87 -45 213 -45q97 0 194.5 27.5t156.5 72.5q41 31 59.5 77.5t18.5 122.5q0 92 -18 183q-27 22 -73 76l-15 18q10 16 13 20l18 28q10 15 26 40q18 29 34 51zM508 390q70 -71 132 -106
q-28 -33 -45 -58t-43 -76q-60 51 -132 93l-12 7l14 19q62 79 86 121z" />
    <glyph glyph-name="sf277.044" unicode="&#x6ba;" horiz-adv-x="1128" arabic-form="final" 
d="M900 296l9 -19q29 -55 55 -78t69 -33q52 -11 115 -11q32 0 38 -18l1 -4q1 -2 1 -4v-94q0 -35 -69 -35q-64 0 -117 12l-2 -29q-8 -113 -25 -175q-34 -123 -103 -208q-72 -90 -186 -137.5t-258 -47.5q-156 0 -256 88q-90 79 -90 218q0 69 21.5 141t61.5 133q43 68 63 68
q9 0 9 -10q0 -6 -12 -29l-10 -19l-12 -23q-55 -107 -55 -194q0 -51 30.5 -91t94.5 -72q87 -45 213 -45q97 0 194.5 27.5t156.5 72.5q41 31 59.5 77.5t18.5 122.5q0 92 -18 183q-27 22 -73 76l-15 18q10 16 13 20l18 28q10 15 26 40q18 29 34 51z" />
    <glyph glyph-name="sf277.016" unicode="&#x648;" horiz-adv-x="851" arabic-form="final" 
d="M674 162q-4 52 -22 81q-29 45 -71 45q-25 0 -43.5 -24t-18.5 -57q0 -61 80 -61q40 0 75 16zM744 0q-28 -111 -56 -175q-57 -127 -143 -214q-63 -64 -135.5 -101.5t-133.5 -37.5q-46 0 -84 13t-88 45q-44 29 -74 56t-30 38q0 5 4.5 8.5t10.5 3.5q10 0 27 -6l32 -10l41 -12
q60 -19 116 -19q76 0 176 62q63 39 117.5 90.5t90.5 104.5q31 47 44.5 81t13.5 69v5l-42 -1q-96 0 -137 19q-61 30 -61 109q0 102 78 217q60 90 109 90q52 0 96 -117q27 -69 32 -161h102q16 -2 21 -2q31 0 38 -18l1 -4v-4v-94q0 -16 -15.5 -25.5t-43.5 -9.5h-107z" />
    <glyph glyph-name="sf277.045" unicode="&#x624;" horiz-adv-x="851" arabic-form="final" 
d="M674 162q-4 52 -22 81q-29 45 -71 45q-25 0 -43.5 -24t-18.5 -57q0 -61 80 -61q40 0 75 16zM744 0q-28 -111 -56 -175q-57 -127 -143 -214q-63 -64 -135.5 -101.5t-133.5 -37.5q-46 0 -84 13t-88 45q-44 29 -74 56t-30 38q0 5 4.5 8.5t10.5 3.5q10 0 27 -6l32 -10l41 -12
q60 -19 116 -19q76 0 176 62q63 39 117.5 90.5t90.5 104.5q31 47 44.5 81t13.5 69v5l-42 -1q-96 0 -137 19q-61 30 -61 109q0 102 78 217q60 90 109 90q52 0 96 -117q27 -69 32 -161h102q16 -2 21 -2q31 0 38 -18l1 -4v-4v-94q0 -16 -15.5 -25.5t-43.5 -9.5h-107zM370 395
q-15 20 -15 39q0 47 46 95q-71 36 -71 83q0 29 17 63t47 65q62 65 120 65q32 0 53 -14.5t21 -36.5q0 -31 -43 -71q-19 24 -31 30.5t-33 6.5q-27 0 -49 -12q-14 -6 -24 -17.5t-10 -18.5q0 -8 10 -21t22 -22q33 -22 81 -22q46 0 118 24l30 10l25 8q6 2 21 8q-15 -51 -34 -74.5
t-56 -36.5l-32 -11l-31 -11l-33 -12q-109 -39 -149 -117z" />
    <glyph glyph-name="sf265.001.init" unicode="&#x6c1;" horiz-adv-x="893" arabic-form="initial" 
d="M386 292q20 0 62 26q34 22 34 44q0 40 -24 77.5t-50 37.5q-34 0 -89 -47q-20 -17 -36 -39t-16 -31q0 -10 9.5 -18t40.5 -23q54 -27 69 -27zM502 269q55 -25 126 -45.5t106 -20.5q21 0 21 15q0 16 -22.5 49.5t-58.5 70.5q-43 44 -75.5 72t-42.5 28q-16 0 -16 -29l-1 -12
q0 -36 -16 -78l-6 -16l-7 -16q-2 -5 -8 -18zM279 573q33 155 102 155q42 0 127 -57q136 -92 219.5 -211.5t83.5 -222.5q0 -73 -30 -113.5t-85 -40.5q-52 0 -134 36l-54 23q-72 31 -123 31q-22 0 -38.5 -8.5t-45.5 -34.5q-49 -45 -77.5 -64.5t-71.5 -38.5q-64 -27 -137 -27
q-39 0 -56.5 8.5t-17.5 26.5v94v4l1 4q7 18 38 18l21 1l37 1q74 0 129.5 13t83.5 37q-24 25 -32 43.5t-8 43.5q0 54 38 124t98 126l-3 4q-24 16 -65 25z" />
    <glyph glyph-name="sf297" unicode="&#x6c1;" horiz-adv-x="790" arabic-form="medial" 
d="M574 -206q0 22 -27 51.5t-67 51.5q-50 27 -98.5 44.5t-73.5 17.5q-26 0 -26 -22q0 -15 13.5 -49.5t28.5 -59.5q67 -110 139 -110q42 0 76.5 23.5t34.5 52.5zM317 218q67 22 148 66q44 24 61.5 41.5t17.5 38.5q0 27 -24 50t-51 23q-56 0 -115 -92q-19 -30 -35 -66.5
t-16 -50.5q0 -13 8 -13q2 0 6 3zM234 187q21 123 104 245q53 79 112.5 135t90.5 56q55 0 55 -179q0 -63 -16 -113t-51 -98q-22 -30 -57 -62.5t-65 -51.5l12 -16q91 31 153 43t140 12q33 0 50 -1l28 -1l20 -1q40 0 40 -26v-94q0 -16 -15.5 -25.5t-41.5 -9.5l-59 1
q-65 0 -103 -3.5t-71 -12.5q57 -92 57 -177q0 -90 -57 -169q-24 -33 -56 -51.5t-65 -18.5q-97 0 -161 129q-52 107 -52 232q0 15 3 40l-55 -5l-21 56q-34 -14 -55 -17.5t-69 -3.5q-34 0 -42.5 1t-18.5 5q-27 13 -27 31l1 92q0 11 12.5 18.5t30.5 7.5l16 1l33 1l34 1
q32 0 82.5 9t83.5 20z" />
    <glyph glyph-name="sf277.013" unicode="&#x6c1;" horiz-adv-x="679" arabic-form="final" 
d="M220 360q0 -7 15.5 -15t38.5 -14q41 -10 114 -10q28 0 36.5 7t8.5 30q0 33 -4 66l-3 29q-5 41 -27 41q-13 0 -49 -21t-72 -50q-25 -20 -41.5 -38t-16.5 -25zM448 261q-23 -15 -60 -57q-26 -29 -42 -39t-37 -10q-22 0 -62 6.5t-65 14.5q-90 27 -90 66q0 45 34.5 109
t86.5 115q68 67 185 116l-12 88l65 84l57 -371q23 -145 40 -176q14 -23 38.5 -35t67.5 -14l25 -2l20 -1h11q21 -2 27 -18l1 -4q1 -2 1 -4v-94q0 -16 -16 -25.5t-43 -9.5q-56 0 -90.5 10.5t-63.5 35.5q-20 19 -35.5 55t-29.5 101l-7 33q-1 5 -6 26z" />
    <glyph glyph-name="sf265.002.fina" unicode="&#x6c3;" horiz-adv-x="680" 
d="M454 750l53 -351q17 -115 30.5 -159.5t35.5 -61.5q28 -21 73 -21h33l20 -1q32 0 39 -18l1 -4v-4v-94q0 -13 -12 -23q-9 -8 -25.5 -10.5t-57.5 -2.5q-39 0 -75 16t-56 42q-17 22 -28.5 56t-26.5 106q-2 14 -8 42q-28 -25 -52 -51q-33 -35 -49.5 -45.5t-41.5 -10.5
q-33 0 -76.5 9t-78.5 23q-33 13 -46.5 25.5t-13.5 29.5q0 32 27 91q68 152 280 247l-10 88zM405 495q-4 1 -15 -5q-1 -1 -28 -13q-19 -8 -55 -32.5t-53 -40.5q-32 -29 -32 -46q0 -18 49 -28q20 -4 59.5 -7.5t59.5 -3.5q45 0 45 40q0 36 -10 94q-6 39 -20 42zM273 1047
q62 -50 106 -77l18 -11q42 54 68 101l5 8q10 -7 12 -9l21 -17q30 -24 66 -45l22 -13q4 -2 16 -10q-48 -50 -88 -128q-55 52 -118 86q-33 -39 -70 -117q-36 39 -106 85l-25 16q-2 2 -11 8q54 65 84 123z" />
    <glyph glyph-name="sf305" unicode="&#x6be;" horiz-adv-x="893" arabic-form="initial" 
d="M386 292q20 0 62 26q34 22 34 44q0 40 -24 77.5t-50 37.5q-34 0 -89 -47q-20 -17 -36 -39t-16 -31q0 -10 9.5 -18t40.5 -23q54 -27 69 -27zM502 269q55 -25 126 -45.5t106 -20.5q21 0 21 15q0 16 -22.5 49.5t-58.5 70.5q-43 44 -75.5 72t-42.5 28q-16 0 -16 -29l-1 -12
q0 -36 -16 -78l-6 -16l-7 -16q-2 -5 -8 -18zM279 573q33 155 102 155q42 0 127 -57q136 -92 219.5 -211.5t83.5 -222.5q0 -73 -30 -113.5t-85 -40.5q-52 0 -134 36l-54 23q-72 31 -123 31q-22 0 -38.5 -8.5t-45.5 -34.5q-49 -45 -77.5 -64.5t-71.5 -38.5q-64 -27 -137 -27
q-39 0 -56.5 8.5t-17.5 26.5v94v4l1 4q7 18 38 18l21 1l37 1q74 0 129.5 13t83.5 37q-24 25 -32 43.5t-8 43.5q0 54 38 124t98 126l-3 4q-24 16 -65 25z" />
    <glyph glyph-name="sf324" unicode="&#x6be;" horiz-adv-x="790" arabic-form="medial" 
d="M574 -206q0 22 -27 51.5t-67 51.5q-50 27 -98.5 44.5t-73.5 17.5q-26 0 -26 -22q0 -15 13.5 -49.5t28.5 -59.5q67 -110 139 -110q42 0 76.5 23.5t34.5 52.5zM317 218q67 22 148 66q44 24 61.5 41.5t17.5 38.5q0 27 -24 50t-51 23q-56 0 -115 -92q-19 -30 -35 -66.5
t-16 -50.5q0 -13 8 -13q2 0 6 3zM234 187q21 123 104 245q53 79 112.5 135t90.5 56q55 0 55 -179q0 -63 -16 -113t-51 -98q-22 -30 -57 -62.5t-65 -51.5l12 -16q91 31 153 43t140 12q33 0 50 -1l28 -1l20 -1q40 0 40 -26v-94q0 -16 -15.5 -25.5t-41.5 -9.5l-59 1
q-65 0 -103 -3.5t-71 -12.5q57 -92 57 -177q0 -90 -57 -169q-24 -33 -56 -51.5t-65 -18.5q-97 0 -161 129q-52 107 -52 232q0 15 3 40l-55 -5l-21 56q-34 -14 -55 -17.5t-69 -3.5q-34 0 -42.5 1t-18.5 5q-27 13 -27 31l1 92q0 11 12.5 18.5t30.5 7.5l16 1l33 1l34 1
q32 0 82.5 9t83.5 20z" />
    <glyph glyph-name="sf324.001" unicode="&#x6be;" horiz-adv-x="790" arabic-form="final" 
d="M574 -206q0 22 -27 51.5t-67 51.5q-50 27 -98.5 44.5t-73.5 17.5q-26 0 -26 -22q0 -15 13.5 -49.5t28.5 -59.5q67 -110 139 -110q42 0 76.5 23.5t34.5 52.5zM317 218q67 22 148 66q44 24 61.5 41.5t17.5 38.5q0 27 -24 50t-51 23q-56 0 -115 -92q-19 -30 -35 -66.5
t-16 -50.5q0 -13 8 -13q2 0 6 3zM234 187q21 123 104 245q53 79 112.5 135t90.5 56q55 0 55 -179q0 -63 -16 -113t-51 -98q-22 -30 -57 -62.5t-65 -51.5l12 -16q91 31 153 43t140 12q33 0 50 -1l28 -1l20 -1q40 0 40 -26v-94q0 -16 -15.5 -25.5t-41.5 -9.5l-59 1
q-65 0 -103 -3.5t-71 -12.5q57 -92 57 -177q0 -90 -57 -169q-24 -33 -56 -51.5t-65 -18.5q-97 0 -161 129q-52 107 -52 232q0 15 3 40l-55 -5l-21 56q-34 -14 -55 -17.5t-69 -3.5q-34 0 -42.5 1t-18.5 5q-27 13 -27 31l1 92q0 11 12.5 18.5t30.5 7.5l16 1l33 1l34 1
q32 0 82.5 9t83.5 20z" />
    <glyph glyph-name="sf300.006" unicode="&#x6cc;" horiz-adv-x="449" arabic-form="initial" 
d="M93 -67q62 -50 106 -77l18 -11q42 54 68 101l5 8q10 -7 13 -9l20 -17q30 -24 66 -45l22 -13q4 -2 16 -10q-47 -50 -88 -128q-55 52 -118 86q-33 -39 -69 -117q-37 39 -107 85l-24 16l-12 8q54 65 84 123zM266 529q31 -47 53 -111q12 -34 20 -77t8 -69q0 -48 -36 -131
q-25 -56 -43 -85q-10 -15 -30 -24t-65 -18q-64 -14 -123 -14h-32h-18q-28 0 -43.5 9.5t-15.5 25.5v94v4l1 4q7 18 38 18h21l21 1l43 2q75 0 125.5 15t84.5 48q-13 46 -31 80.5t-54 82.5z" />
    <glyph glyph-name="sf277.024" unicode="&#x6cc;" horiz-adv-x="453" arabic-form="medial" 
d="M-59 35v94v5l1 4q7 17 38 17q97 0 159.5 26.5t111.5 88.5q21 26 35 26t20 -25l4 -15q10 -36 27 -56t49 -32q35 -13 87 -13q32 0 38 -17l1 -4q1 -3 1 -5v-94q0 -16 -16.5 -25.5t-45.5 -9.5q-111 0 -178 99q-19 27 -28 27q-8 0 -41 -31q-60 -56 -101 -75.5t-98 -19.5
q-64 0 -64 35zM104 -123q62 -50 106 -77l18 -11q42 54 68 101l5 8q10 -7 12 -9l21 -17q30 -24 66 -45l22 -13q4 -2 16 -10q-47 -50 -88 -128q-55 52 -118 86q-33 -39 -70 -117q-36 39 -106 85l-25 16q-2 2 -11 8q54 65 84 123z" />
    <glyph glyph-name="sf297.001" unicode="&#x6cc;" horiz-adv-x="1175" arabic-form="final" 
d="M1234 129v-94q0 -13 -12 -23q-9 -8 -23.5 -10t-53.5 -2h-98q-54 0 -93 -17q-23 -10 -38 -21t-15 -18q0 -15 66 -31l46 -11l45 -10q76 -16 108 -32q19 -9 26 -18t7 -26q0 -62 -54 -131q-41 -53 -119.5 -104t-169.5 -84q-101 -36 -182 -53t-160 -17q-39 0 -127 10
q-99 11 -174 49q-131 68 -131 227q0 60 18.5 126.5t52.5 126.5q26 46 51.5 76t38.5 30q15 0 15 -16q0 -7 -16 -31q-78 -119 -78 -218q0 -61 32 -103t98 -70q94 -39 257 -39q196 0 370 56q72 24 118 46t46 34q0 8 -28.5 17.5t-100.5 25.5q-49 11 -61 15l-64 17q-57 17 -57 39
q0 27 23 82q44 103 136 176q47 36 72 45t80 9l89 -1h22q17 0 25 -4t12 -15l1 -4v-4z" />
    <glyph glyph-name="sf271.002.fina" unicode="&#x64a;" horiz-adv-x="1175" arabic-form="final" 
d="M1235 129v-94q0 -13 -12 -23q-9 -8 -23.5 -10t-54.5 -2h-98q-53 0 -93 -17q-22 -10 -37 -21t-15 -18q0 -15 65 -31l46 -11l46 -10q76 -16 108 -32q19 -9 25.5 -18t6.5 -26q0 -62 -53 -131q-41 -53 -119.5 -104t-169.5 -84q-101 -36 -182 -53t-160 -17q-39 0 -128 10
q-99 11 -173 49q-132 68 -132 227q0 60 19 126.5t53 126.5q26 46 51.5 76t38.5 30q14 0 14 -16q0 -7 -15 -31q-78 -119 -78 -218q0 -61 31.5 -103t98.5 -70q94 -39 257 -39q195 0 369 56q73 24 118.5 46t45.5 34q0 8 -28 17.5t-100 25.5q-49 11 -62 15l-63 17q-58 17 -58 39
q0 27 24 82q44 103 136 176q46 36 71.5 45t79.5 9l90 -1h22q16 0 24 -4t12 -15l1 -4q1 -2 1 -4zM553 -673q61 -51 105 -77l18 -11q42 54 69 101l4 8q10 -7 13 -10l20 -16q30 -24 66 -45l22 -13q4 -2 17 -10q-48 -50 -89 -129q-55 53 -118 87q-32 -39 -69 -117
q-37 39 -107 85l-24 16q-2 2 -12 8q54 64 85 123z" />
    <glyph glyph-name="sf300.007" unicode="&#x626;" horiz-adv-x="433" arabic-form="initial" 
d="M266 530q31 -48 53 -112q12 -34 20 -77t8 -69q0 -47 -36 -131q-25 -56 -43 -84q-10 -15 -30 -24.5t-65 -18.5q-64 -14 -123 -14h-32h-18q-28 0 -43.5 9.5t-15.5 25.5v94v4l1 4q7 18 38 18l21 1h21l43 2q75 0 125.5 15t84.5 48q-13 46 -31 80.5t-54 82.5zM46 494
q-16 20 -16 39q0 47 46 94q-68 30 -68 89q0 32 19.5 69.5t52.5 67.5q56 50 109 50q31 0 50.5 -16t19.5 -41q0 -28 -34 -60q-3 -2 -8 -7q-14 21 -27.5 29.5t-35.5 8.5q-29 0 -55 -15.5t-26 -32.5q0 -11 12 -25.5t30 -23.5q31 -17 64 -17q39 0 95 16t106 41q-12 -45 -34 -77
q-9 -14 -22 -22.5t-41 -17.5l-25 -9l-26 -9q-85 -30 -124 -57t-62 -74z" />
    <glyph glyph-name="sf277.025" unicode="&#x626;" horiz-adv-x="452" arabic-form="medial" 
d="M512 129v-94q0 -18 -17 -26.5t-54 -8.5q-94 0 -156 85l-20 27q-11 15 -20 15t-22 -13l-27 -27q-41 -40 -94 -65q-19 -9 -44.5 -16t-39.5 -7l-17 1h-12q-17 2 -32.5 13.5t-15.5 23.5l1 92q0 11 12.5 18.5t30.5 7.5l16 1q81 0 142.5 27.5t106.5 85.5q15 18 22 24t14 6
q15 0 21 -26q9 -38 22 -59t34 -35q16 -10 42 -16.5t47 -6.5l20 -1q40 0 40 -26zM95 404q-16 20 -16 39q0 47 45 94q-67 30 -67 89q0 33 19.5 70t52.5 67q56 50 109 50q31 0 50.5 -16t19.5 -41q0 -28 -34 -60q-3 -2 -8 -7q-14 21 -27.5 29.5t-36.5 8.5q-28 0 -54 -15.5
t-26 -32.5q0 -11 12 -25.5t30 -23.5q31 -17 64 -17q39 0 94.5 16t106.5 41q-12 -45 -34 -77q-9 -14 -22 -22.5t-41 -17.5l-25 -8l-26 -10q-85 -30 -124 -57t-62 -74z" />
    <glyph glyph-name="sf297.004" unicode="&#x626;" horiz-adv-x="1175" arabic-form="final" 
d="M1234 129v-94q0 -13 -12 -23q-9 -8 -23.5 -10t-53.5 -2h-98q-54 0 -93 -17q-23 -10 -38 -21t-15 -18q0 -15 66 -31l46 -11l45 -10q76 -16 108 -32q19 -9 26 -18t7 -26q0 -62 -54 -131q-41 -53 -119.5 -104t-169.5 -84q-101 -36 -182 -53t-160 -17q-39 0 -127 10
q-99 11 -174 49q-131 68 -131 227q0 60 18.5 126.5t52.5 126.5q26 46 51.5 76t38.5 30q15 0 15 -16q0 -7 -16 -31q-78 -119 -78 -218q0 -61 32 -103t98 -70q94 -39 257 -39q196 0 370 56q72 24 118 46t46 34q0 8 -28.5 17.5t-100.5 25.5q-49 11 -61 15l-64 17q-57 17 -57 39
q0 27 23 82q44 103 136 176q47 36 72 45t80 9l89 -1h22q17 0 25 -4t12 -15l1 -4v-4zM128 52q-14 20 -14 39q0 47 46 95q-71 36 -71 83q0 29 17 63t46 65q63 64 120 64q32 0 53.5 -14t21.5 -36q0 -32 -44 -71q-19 23 -30.5 30t-32.5 7q-27 0 -50 -12q-13 -7 -23.5 -18
t-10.5 -18q0 -8 10.5 -21.5t22.5 -21.5q33 -22 80 -22t118 23l30 10l26 9q5 2 21 8q-15 -51 -34.5 -74.5t-55.5 -36.5l-32 -11l-31 -11l-34 -12q-108 -39 -149 -117z" />
    <glyph glyph-name="sf297.002" unicode="&#x6d2;" horiz-adv-x="1388" arabic-form="final" 
d="M412 -7q-24 -3 -62.5 -10t-77.5 -20.5t-69.5 -34t-37.5 -50.5q21 -11 39.5 -20t43 -16t58 -12.5t84.5 -9t122.5 -6t172.5 -3t234 0.5t307 3q14 1 16 -2.5t-10 -12.5q-18 -14 -44 -32t-54 -37t-54 -35.5t-43 -26.5q-37 -1 -98 -3.5t-137.5 -5.5t-163 -4.5t-175 -1
t-173.5 4.5t-158 13q-18 3 -47 14t-52.5 27.5t-33 38t10.5 45.5q68 71 120.5 120t90 80t59.5 47.5t30 23.5q28 19 54.5 36.5t53.5 32t56 25.5t63 17q88 16 197.5 21.5t227.5 5.5t236 -2t224 -1v-197q-32 -5 -63 -5.5t-63 -0.5q-97 1 -189.5 2.5t-189.5 2.5q-126 1 -249.5 2
t-255.5 -14z" />
    <glyph glyph-name="sf297.003" unicode="&#x6d3;" horiz-adv-x="1388" arabic-form="final" 
d="M955 503q7 19 14.5 42t16.5 46t20.5 44t26.5 36q15 13 34 22.5t40 13t42 -0.5t40 -17q0 -6 -4 -18t-9.5 -26t-11.5 -27t-11 -22q-10 -12 -19 -3q-15 12 -32 15t-33.5 -1.5t-31 -14t-26.5 -22.5q4 -18 21.5 -30.5t39 -19.5t43 -10t33.5 -3q33 2 66.5 13t63.5 23q14 5 8 -6
q-12 -21 -24.5 -40.5t-29.5 -44.5q-35 -12 -72.5 -23t-72.5 -25.5t-66 -35.5t-53 -52q-2 -4 -6.5 -4.5t-2.5 5.5q4 29 16 53.5t27 51.5q2 3 -1 7q-18 13 -33 30.5t-13 43.5zM412 -7q-24 -3 -62.5 -10t-77.5 -20.5t-69.5 -34t-37.5 -50.5q21 -11 39.5 -20t43 -16t58 -12.5
t84.5 -9t122.5 -6t172.5 -3t234 0.5t307 3q14 1 16 -2.5t-10 -12.5q-18 -14 -44 -32t-54 -37t-54 -35.5t-43 -26.5q-37 -1 -98 -3.5t-137.5 -5.5t-163 -4.5t-175 -1t-173.5 4.5t-158 13q-18 3 -47 14t-52.5 27.5t-33 38t10.5 45.5q68 71 120.5 120t90 80t59.5 47.5t30 23.5
q28 19 54.5 36.5t53.5 32t56 25.5t63 17q88 16 197.5 21.5t227.5 5.5t236 -2t224 -1v-197q-32 -5 -63 -5.5t-63 -0.5q-97 1 -189.5 2.5t-189.5 2.5q-126 1 -249.5 2t-255.5 -14z" />
    <glyph glyph-name="sf314" unicode="&#xfefb;" horiz-adv-x="1190" arabic-form="isolated" 
d="M837 105l-4 20l-5 16q-3 11 -4 14l-6 13l-5 13q-4 9 -13 24q-7 -18 -36 -56q-27 -35 -60 -59l6 -5q83 10 127 20zM464 -49v134q16 -1 23 -1q74 0 120 30.5t132 136.5q9 11 26 32q-42 82 -81 142l-51 76l-44 66q-25 36 -61 80l-53 65l-54 68q-57 72 -75 88l-25 23
q-9 8 -13 8t-14 -12l-13 -17q-12 -16 -17 -16q-7 0 -18 12l-29 29q-103 103 -127 134q-20 25 -20 48q0 43 20 106q11 33 24 52.5t25 19.5q18 0 76.5 -50.5t129.5 -127.5q85 -94 145.5 -176t162.5 -244l56 -89q37 -59 44 -70l37 -63q5 -10 23 -39q40 74 62 202q20 114 20 266
q0 174 -31 334q62 59 86 117q27 -55 49.5 -88.5t57.5 -70.5l-12 -7q-35 -24 -48 -48q-20 -36 -20 -117v-67q0 -69 -9 -187q-17 -215 -106 -423q6 -29 23 -72q35 -85 35 -139q0 -83 -61 -122q-48 -33 -182 -33q-121 0 -213 10z" />
    <glyph glyph-name="sf256.004" unicode="&#xfdfa;" horiz-adv-x="2048" arabic-form="isolated" 
d="M211 -182q-20 33 -20 74q0 47 34 88q38 44 71 44q8 0 22 -8q31 -17 52 -17q13 0 29.5 9t26.5 22l8 10l8 11q7 10 25 44l12 23q1 3 7 14q-9 4 -12 5l-33 10q-19 7 -42 22t-37 30q-40 43 -53 100l-6 29l-4 20q-1 2 -3 11l-3 2l-6 -9q-40 -54 -70.5 -73.5t-76.5 -19.5
q-58 0 -97 21q-24 13 -24 23q0 15 20.5 45.5t44.5 49.5q76 64 151 93l28 11l9 3q2 1 7 2q-1 10 -1 12l-1 15q0 2 -1 9l39 64q1 -13 2 -16l2 -25q12 -172 40 -238q17 -43 42.5 -64t71.5 -32q-3 21 -3 24l-8 81q-2 25 -8 82q-5 46 -7 79l38 87q0 -8 1 -19l8 -79l6 -66l4 -46
l5 -58l4 -46q3 -28 6 -49q17 -3 23 -4l56 -4l88 -6l46 1q99 0 187 21t153 61l5 8l10 30q5 15 12.5 26.5t12.5 11.5q6 0 6 -15q0 -7 -1 -15l-2 -15q-3 -15 -3 -25q14 -20 59 -48q33 -21 58 -21q29 0 48.5 19.5t37.5 67.5v12l-4 38l-4 43l-5 52q-1 11 -5 58l-4 58q-2 36 -4 65
q-10 -1 -15 -1q-14 0 -45 9q-33 8 -48 20q-31 27 -47.5 55t-22.5 66h-5l-3 -12q-17 -63 -34.5 -92.5t-44.5 -39.5l1 -4h11h18h23q13 0 33 -7t32 -16q27 -18 27 -55q0 -33 -19 -61.5t-54 -48.5l-41 -24q-68 -40 -135 -61t-125 -21q-95 0 -152 49.5t-57 130.5q0 59 32 137
q-28 9 -48.5 33t-27.5 54l-4 -1l-6 -11q-18 -36 -28.5 -50t-28.5 -26q-23 -15 -46 -15q-28 0 -51.5 17.5t-35.5 46.5q-12 33 -12 90q-9 -6 -10 -8l-19 -16q-13 -12 -16 -15q-10 -10 -24 -14q-27 -8 -52 -8q-112 0 -112 37q0 12 14.5 39.5t33.5 52.5q10 13 26.5 23.5
t53.5 28.5l31 15q26 12 29 13q28 11 42 22q0 5 1 22l35 70q1 -13 1 -14l1 -38l1 -34l2 -43l1 -48q0 -37 1 -48l2 -17l2 -26q2 -25 19.5 -43t39.5 -18q24 0 49.5 14t37.5 33l6 10q3 5 3 7v5q-1 4 -2 9l-6 41l-10 66l-9 68l-5 32q0 5 -2 15l39 77q1 -12 2 -16l8 -40l9 -59
l12 -62q6 -35 10 -65q6 -45 9 -59l5 -20l1 -5q4 -10 17 -24q18 -18 52 -18q16 0 30.5 7.5t15.5 17.5v2q0 32 -22 104l-17 59l-16 55l-13 42q-1 5 -6 21l26 66q8 -29 30 -99q53 -171 53 -226q0 -17 -9 -48.5t-19 -49.5q-21 -39 -47 -39q-7 0 -17 3q-13 -35 -13 -78
q0 -70 49 -110.5t135 -40.5q73 0 155 29q27 9 67 29t58 33l10 7l3 2q1 1 1 4q0 14 -111 29q-48 6 -53 7q-23 4 -26 4q-10 2 -13 6t-3 13q0 5 1 8l3 9l6 18q5 14 21 30q16 9 38 18q60 24 78 52q11 17 13 27t2 42q0 44 -1 70l-5 59l-7 86l-8 77l-8 80q-6 64 -12 96l36 110
q4 -25 4 -31l10 -93l15 -120l11 -86q24 -199 72 -263q34 -46 110 -56q-4 34 -4 67q0 24 -1 46l-3 42q-1 20 -1 40l42 89q6 -55 6 -70l3 -68q0 -3 4 -76q1 -18 3 -48l1 -20q48 14 109 62l13 10q8 -6 11 -9q74 -59 128 -64q81 77 162.5 132.5t114.5 55.5q17 0 47 -12.5
t52 -28.5q35 -25 35 -50q0 -14 -9.5 -38t-25.5 -48q-22 -35 -37 -46.5t-55 -26.5q-49 -18 -97.5 -25t-131.5 -7q-35 0 -71 6q-50 -95 -77 -95q-8 0 -8 13q0 20 22 57l14 24q2 4 7 13q-11 4 -13 5l-22 10q-41 19 -62 37l-11 -7q-18 -12 -24 -15l-27 -15q-25 -14 -39 -14v-26
l3 -48l3 -59q4 -65 20 -151q20 -110 91 -138q40 -15 106 -18l1 5q-18 13 -29 36t-11 50q0 79 68 160q50 60 118 60q70 0 125 -46q27 -22 30 -38l1 -7q0 -2 1 -6q-19 7 -51.5 13t-52.5 6q-79 0 -139 -32q-20 -11 -33 -25t-13 -26q0 -16 19 -44t46 -52q17 -15 41.5 -29.5
t33.5 -14.5q3 0 9 2q2 0 17 4q68 16 139.5 39.5t106.5 41.5l-33 -74q-84 -43 -148 -63q-140 -45 -236 -45q-97 0 -154.5 32.5t-88.5 104.5l-4 11q-29 -68 -57 -100t-59 -32q-27 0 -63 24t-70 65q-63 -49 -115 -69q-54 -21 -127.5 -33.5t-142.5 -12.5q-94 0 -159 11
q1 -8 2 -13l3 -24q5 -35 19 -90q9 -38 31 -70q24 -35 118 -65q100 -33 247 -33q103 0 192.5 16.5t144.5 45.5q14 35 29 56t27 21q9 0 9 -16q0 -29 -16 -68q-5 -12 -7 -21q10 -27 54 -27q26 0 55 8t45 18q5 11 5 12l14 38q11 31 24.5 54.5t22.5 26.5h2q7 0 7 -13l1 -14
q0 -8 -4.5 -29t-8.5 -33l-5 -12l-2 -6q19 -11 46.5 -19.5t44.5 -8.5q15 0 15 14q0 16 -10 47q-4 12 -7 25l34 72q26 -67 26 -110q0 -59 -25.5 -95t-67.5 -36q-21 0 -37 5.5t-44 23.5q-5 3 -14 9q-44 -54 -118 -54q-23 0 -48.5 7t-36.5 16q-13 11 -15 31q-36 -21 -61 -30
t-79 -20q-102 -21 -230 -21q-122 0 -211 21t-143 84q-30 34 -45 79.5t-19 112.5l-1 17q-66 -105 -94 -120q22 -50 22 -82q0 -44 -21.5 -73.5t-54.5 -29.5q-29 0 -53 12l-42 20q-20 9 -27 16q-26 -49 -67 -82q-21 -16 -31.5 -19.5t-36.5 -3.5q-21 0 -33 -3l-10 -3l-6 -2
l-17 -5h-3h-2q-5 1 -7 5v3v2q3 10 27 20q34 13 47 20l24 11q18 9 31 19l17 12l16 13q2 2 18 13q9 7 17 14zM378 -146q0 11 -11.5 30t-27.5 32q-41 36 -81 36q-12 0 -19 -7t-7 -17q0 -13 13.5 -28.5t35.5 -27.5q52 -29 80 -29h6q11 0 11 11zM289 390l-5 75q-39 -14 -59 -24
t-69 -38q-48 -29 -48 -41q0 -3 2 -5l5 -3l6 -5q3 -2 17 -5t24 -3q77 0 127 49zM328 841l-2 80q-10 -3 -12 -4l-30 -14l-42 -17q-30 -13 -49 -26.5t-19 -22.5q0 -21 56 -21q44 0 98 25zM432 1327q-1 -16 -1 -24q0 -22 9 -36t23 -14q11 0 22 8.5t17 22.5q-1 9 -1 12l-2 18
q0 4 -1 16l19 26l6 -44l2 -13q6 -34 31 -34q9 0 15.5 6.5t6.5 15.5l-1 9l-2 18l-3 18q0 2 -1 8l14 21q15 -42 15 -77q0 -30 -12 -47.5t-33 -17.5q-19 0 -41 16q-38 -30 -53 -30q-27 0 -38.5 12.5t-11.5 40.5t6 56zM876 1297q7 -57 11 -123l6 -86l7 -86l5 -92l5 -54
q0 -3 1 -15l-2 -22q-5 -67 -10 -92t-16 -34q-1 15 -1 18l-7 59l-8 79l-10 89l-9 90l-10 103l-5 55zM1190 1127l8 50l400 188l-11 -46zM1518 904q-41 16 -53 34q-14 22 -14 50q0 27 14.5 50.5t39.5 38.5l53 30q62 36 175.5 90t196.5 86l-17 -51l-24 -9q-68 -27 -173.5 -77
t-159.5 -81q-41 -23 -57 -37.5t-16 -25.5q0 -16 45 -46l7 -4zM1646 718q27 -2 42 -2q42 0 98.5 6.5t86.5 15.5q38 11 56 21t22 21l1 5q-1 13 -36 32.5t-59 19.5q-29 0 -98.5 -39t-112.5 -80zM859 16l57 70l96 -71l54 67l100 -76l-53 -63l-98 71l-56 -71zM1955 -140l-14 44
q-38 -54 -75 -54q-28 0 -50 27.5t-22 62.5q0 26 12.5 64t30.5 64q26 39 46 39t60 -46q47 -55 47 -121q0 -19 -6 -52t-15 -58q-27 -79 -89 -158q-32 -40 -71.5 -63t-75.5 -23q-45 0 -127 37q-60 26 -68 42v3v2q3 5 9 5h4q6 -2 19 -6l20 -6l36 -12q26 -7 50 -7q132 0 279 216z
M1839 -35q5 -14 24 -24t39 -10q21 0 29 21q-14 65 -53 65q-30 0 -39 -52zM1158 -364q8 -8 16 -8q14 0 22.5 7t8.5 20q0 16 4 22.5t17 8.5l-1 -17q0 -6 1 -16v-11q0 -19 -15.5 -32t-36.5 -13q-15 0 -31 9q-18 -20 -30.5 -26.5t-30.5 -6.5q-16 0 -30 15l-12 13q-7 8 -17 8
t-20 -4.5t-39 -22.5q-43 -27 -71.5 -36t-71.5 -9h-9h-24q-70 0 -70 17q0 8 14.5 11.5t53.5 3.5h40q40 0 62.5 6.5t59.5 29.5q41 25 54.5 31.5t27.5 6.5q8 0 23 -7.5t25 -17.5q8 -6 11 -7h8q12 0 22 8t10 19l1 8q1 14 18 25l4 2q8 -1 8 -13q0 -4 -1 -10q-1 -5 -1 -10v-4z" />
    <glyph glyph-name="sf270.009" unicode="&#xfdf2;" horiz-adv-x="1279" arabic-form="isolated" 
d="M419 547l6 21q9 32 20 55.5t32 53.5l13 18q5 8 9 13q9 -6 12.5 -18t3.5 -39q0 -33 -4 -93q-3 -58 -3 -62l-2 -77l-2 -63v-25q0 -104 23 -142q28 -44 95 -44q64 0 98 40q19 23 27 53t8 86q0 91 -18 215l-8 58l-5 45q-1 11 -1 12q0 28 47 95q31 45 39 45q10 0 15 -20.5
t9 -81.5l4 -58l5 -59l5 -71q12 -147 51 -239q24 -56 52 -81t67 -25q42 0 62 20.5t20 65.5q0 33 -5.5 60t-23.5 89l-17 61q-25 86 -32 118t-7 70q0 71 29 119q11 19 24.5 32.5t21.5 13.5q4 0 9 -5t5 -10l-1 -30l1 -13l2 -24q5 -43 31 -138l18 -67q33 -124 33 -243
q0 -143 -43.5 -218t-126.5 -75q-82 0 -140 48q-24 20 -39.5 41.5t-31.5 58.5l-5 -2q-12 -43 -26 -68.5t-39 -46.5q-51 -45 -138 -45q-46 0 -85 20.5t-60 55.5q-40 67 -40 200q-57 -58 -91 -77t-80 -19q-57 0 -103.5 16.5t-46.5 36.5v3q2 26 40.5 99.5t68.5 109.5
q30 35 91.5 72t126.5 59zM224 324q54 -22 96 -22q26 0 52.5 6.5t42.5 17.5l1 133q-52 -16 -98.5 -47.5t-81.5 -73.5q-4 -5 -12 -14zM684 1323l42 62q24 -32 41 -80t17 -81q0 -32 -12 -60q-6 -13 -13.5 -24t-10.5 -11q-5 0 -5 12q0 5 1 12q2 9 2 16q0 35 -17.5 79t-44.5 75z
M747 902q-40 -36 -60 -46.5t-47 -10.5q-75 0 -75 84q0 53 30 111q24 47 39 47q11 0 11 -14q0 -10 -8 -31q-15 -37 -15 -63q0 -18 10.5 -29t27.5 -11q25 0 45.5 23.5t29.5 62.5l6 24q8 32 32 32l7 -1q1 -5 1 -7q0 -7 -2 -31q-1 -10 -1 -18q0 -20 17.5 -33t43.5 -13
q10 0 16.5 4.5t6.5 12.5q0 3 -1 7l-2 12q-2 11 -2 21q0 38 13 61.5t45 45.5l-1 -24l-1 -33l-1 -25l-3 -31q-5 -63 -27 -99q-16 -25 -30 -34.5t-36 -9.5q-19 0 -52 10z" />
    <glyph glyph-name="sf268.006.fina" unicode="&#x623;" horiz-adv-x="498" arabic-form="final" 
d="M132 1106l100 110q0 -54 5 -158l6 -103q6 -114 8 -134l12 -173l8 -127l7 -89q9 -115 24 -161.5t54 -74.5q55 -40 162 -40q32 0 39 -18l1 -4v-4v-94q0 -18 -17.5 -26.5t-54.5 -8.5q-159 0 -224 77q-30 36 -42.5 85.5t-19.5 162.5l-5 72l-7 107l-8 116q-8 111 -9 121
l-11 121l-10 97q-4 44 -18 146zM66 1179q-14 20 -14 39q0 47 46 95q-71 36 -71 82q0 30 17 64t46 65q63 64 120 64q32 0 53.5 -14t21.5 -36q0 -32 -44 -71q-19 23 -30.5 30t-32.5 7q-27 0 -50 -12q-13 -7 -23.5 -18t-10.5 -18q0 -8 10.5 -21.5t22.5 -21.5q33 -22 80 -22
t118 23l30 10l26 9q5 2 21 7q-15 -51 -34.5 -74.5t-55.5 -35.5l-32 -11l-31 -11l-34 -12q-108 -39 -149 -117z" />
    <glyph glyph-name="sf268.007.fina" unicode="&#x625;" horiz-adv-x="498" arabic-form="final" 
d="M132 1102l99 110q0 -55 6 -158l5 -103q7 -114 8 -134l12 -174l8 -127l7 -89q9 -114 24.5 -160.5t53.5 -74.5q55 -40 162 -40q32 0 39 -18l1 -4v-5v-93q0 -18 -17 -27t-55 -9q-159 0 -224 77q-29 36 -41.5 86t-20.5 163l-5 72l-6 107l-9 115q-7 112 -8 122l-12 121l-9 97
q-5 44 -18 146zM172 -472q-14 20 -14 39q0 47 46 95q-71 36 -71 83q0 62 64 128q62 65 120 65q32 0 53 -14.5t21 -36.5q0 -31 -44 -71q-18 24 -30 30.5t-33 6.5q-27 0 -49 -12q-14 -6 -24 -17.5t-10 -18.5q0 -8 10 -21t22 -22q33 -22 81 -22q46 0 117 24l30 10l26 8
q5 2 21 8q-15 -51 -34 -74.5t-56 -36.5l-32 -11l-31 -11l-33 -12q-109 -39 -150 -117z" />
    <glyph glyph-name="uniFDF4" unicode="&#xfdf4;" horiz-adv-x="2492" arabic-form="isolated" 
d="M1343 -195q-114 64 -198 131t-141 137.5t-89 145t-43 154.5q-18 -54 -49.5 -98t-70.5 -82q-35 -41 -79 -76.5t-92.5 -63.5t-98.5 -47t-96 -26q-45 -8 -85.5 0t-71 36.5t-48 78.5t-17.5 126q0 54 9 105t22 88q14 2 15 -9.5t1 -21.5v-72q0 -24 5 -46t18.5 -39t36.5 -28
t59 -12q87 -2 153 32q84 35 159 80q38 23 69 45.5t56 45.5q51 46 46 64q-18 103 -44.5 180.5t-51.5 136t-42.5 100.5t-17.5 74q2 43 5.5 84.5t7.5 81.5q1 4 10 4q5 0 18 -17.5t29 -45.5t33 -62t31 -67q20 -54 37.5 -110t33.5 -116q31 -122 75 -237q22 -58 51 -110.5
t64 -103.5q72 -97 197 -159q11 -5 11 -2l2 8q12 45 28.5 90t52.5 76q40 32 80.5 63.5t82.5 59.5t87 51.5t95 40.5l-654 -4q-13 0 -24 0.5t-19.5 3.5t-13 10.5t-4.5 22.5q0 26 9 51t19 49q15 35 28 72t38 67q65 71 141.5 126t160 99.5t171 82t174.5 73.5q15 7 8 10
q-6 3 -14 3t-27 13q-13 9 -28.5 23t-29 32.5t-21.5 41.5t-5 49q0 3 2 13.5t6 24t8.5 29.5t9.5 31q4 15 9 30.5t10 27.5t10 19.5t9 7.5q9 0 43.5 -9.5t80 -25t96.5 -35.5t93.5 -41t71 -42t29.5 -38q0 -18 -9 -47t-22.5 -60t-29.5 -59t-29 -43q-40 -23 -93 -46t-110.5 -46
t-114 -45.5t-102.5 -44.5q-54 -25 -103 -48.5t-94.5 -50t-89.5 -57.5t-88 -71l1106 12q16 0 24.5 -4t8.5 -18q0 -18 -20 -53t-64 -107q-17 -2 -44.5 -8.5t-66.5 -17.5q-78 -21 -173.5 -54t-201.5 -75q-104 -42 -189 -84q-42 -21 -78.5 -42t-64 -41t-43.5 -38t-18 -33
q18 -26 52.5 -54.5t76 -55t84.5 -48.5t78 -35q-1 -4 -6 -32.5t-12 -62.5t-16 -63.5t-19 -36.5q-72 -8 -136 22q-34 15 -65 30.5t-60 31.5z" />
    <glyph glyph-name="sf277.047" unicode="&#x6c2;" horiz-adv-x="941" 
d="M208 414q7 -2 28 -5t49.5 -4t62.5 1t67 9.5t62 21.5t49 38q0 6 -1 23t-3 37.5t-4.5 42.5t-6 39t-7.5 26t-9 4q-70 -56 -118 -95t-80 -64.5t-49 -39.5t-26 -21.5t-11 -9.5zM548 371q-16 -43 -43 -71t-62 -44.5t-76.5 -23t-86.5 -6.5q-10 0 -29.5 0.5t-43 3t-48 8t-44.5 14
t-32.5 22t-12.5 32.5q0 17 10.5 40.5t27 49t38 52t43 49t41 40.5t33.5 27q60 43 120 79.5t120 74.5v73q10 32 19 64t19 64q3 12 6.5 15.5t6.5 2t5 -6.5t3 -11q12 -57 21 -109t17 -106t16.5 -113t19.5 -130q10 -68 39 -116.5t73 -80t102 -46.5t126 -15q0 -13 -0.5 -39.5
t-1 -56t-1 -57.5t-0.5 -43q-26 -5 -48.5 -5.5t-44.5 0.5q-84 6 -144 27.5t-100 65t-60.5 111t-25.5 165.5h-2zM149 1072q7 19 14.5 42t16.5 46t20.5 44t26.5 36q15 13 34 22.5t40 13t42 -0.5t40 -17q0 -6 -4 -18t-9.5 -26t-11.5 -27t-11 -22q-10 -12 -19 -3q-15 12 -32 15
t-33.5 -1.5t-31 -14t-26.5 -22.5q4 -18 21.5 -30.5t39 -19.5t43 -10t33.5 -3q33 2 66.5 13t63.5 23q14 5 8 -6q-12 -21 -24.5 -40.5t-29.5 -44.5q-35 -12 -72.5 -23t-72.5 -25.5t-66 -35.5t-53 -52q-2 -4 -6.5 -4.5t-2.5 5.5q4 29 16 53.5t27 51.5q2 3 -1 7q-18 13 -33 30.5
t-13 43.5z" />
    <glyph glyph-name=".notdef" horiz-adv-x="257" 
 />
    <glyph glyph-name=".null" 
 />
    <glyph glyph-name="nonmarkingreturn" horiz-adv-x="257" 
 />
    <glyph glyph-name="space" unicode=" " horiz-adv-x="400" 
 />
    <glyph glyph-name="sf268.003" unicode="&#x622;" horiz-adv-x="432" 
d="M37 1436q11 0 48 -10q46 -13 98 -13q90 0 173.5 31.5t118.5 77.5q7 9 11 9l3 -1q2 -2 2 -6q0 -20 -18 -54.5t-41 -56.5q-47 -46 -135.5 -76.5t-174.5 -30.5q-33 0 -74 6l-26 5q-10 1 -16 1q-33 0 -86 -50q-6 -5 -9 -5q-7 0 -7 14q0 32 31 84q22 35 49 55t53 20zM140 1065
l113 127q-6 -68 -6 -143q0 -93 12 -233l7 -72l6 -72l7 -68q20 -213 20 -343q0 -110 -17 -184q-9 -41 -22.5 -66t-27.5 -25q-8 0 -13.5 9t-5.5 22q0 6 3 33q3 39 3 66q0 83 -16 215l-8 68q-2 20 -8 68l-8 73q-4 40 -8 87l-9 90q-5 57 -7 79l-4 69l-5 67q-3 51 -3 63l-2 44z
" />
    <glyph glyph-name="sf268" unicode="&#x627;" horiz-adv-x="388" 
d="M115 1063l112 128q-6 -69 -6 -144q0 -93 12 -233l7 -71l6 -72l7 -68q20 -213 20 -343q0 -111 -16 -184q-10 -42 -23.5 -66.5t-27.5 -24.5q-8 0 -13 9t-5 22q0 6 2 33q4 39 4 65q0 83 -17 215l-8 68q-2 21 -7 69l-8 73q-5 40 -9 87l-9 89q-5 57 -7 80l-4 69l-5 66
q-3 51 -3 64l-1 43z" />
    <glyph glyph-name="sf270" unicode="&#x628;" horiz-adv-x="1604" 
d="M1372 484l72 163q8 -11 24 -41.5t25 -52.5q29 -73 29 -135q0 -70 -40 -168q-18 -44 -34.5 -67t-39.5 -38q-58 -37 -168.5 -74.5t-229.5 -60.5q-92 -18 -202.5 -28.5t-196.5 -10.5q-258 0 -377 62q-73 38 -107.5 91.5t-34.5 129.5q0 114 64 214q32 51 52 51q14 0 14 -11
q0 -7 -11 -23q-38 -58 -38 -106q0 -39 23.5 -78t65.5 -68q130 -93 377 -93q313 0 630 99q181 57 181 86q0 20 -21.5 64.5t-56.5 94.5zM890 -106q75 -76 135 -106q-26 -25 -44.5 -52.5t-46.5 -81.5q-60 51 -132 93l-12 7l15 19q61 79 85 121z" />
    <glyph glyph-name="sf270.001" unicode="&#x67e;" horiz-adv-x="1614" 
d="M990 -99q-12 -32 -30 -61.5t-39 -55.5q-34 19 -65 41t-54 47q-17 -35 -40 -67.5t-48 -63.5q40 -17 73.5 -43.5t65.5 -52.5q13 31 32.5 59t41.5 54q32 -17 63 -41t60 -50q29 65 82 127q-82 47 -142 107zM937 -316q-17 -38 -39.5 -72t-50.5 -65q38 -19 71 -47.5t64 -59.5
q19 38 47 73.5t54 67.5q-41 20 -76 47.5t-70 55.5zM1380 487q14 -18 28 -40t25 -44.5t18 -43t7 -35.5q0 -11 -34 -28.5t-93.5 -38t-139 -41t-170 -37.5t-187.5 -27.5t-191 -10.5q-97 0 -182.5 17t-149 48.5t-100.5 77t-37 103.5q0 29 10 53t33 56q8 11 5.5 19.5t-11.5 8.5
q-11 0 -31 -21t-39.5 -57.5t-34 -86t-14.5 -107.5t21.5 -101.5t58.5 -74.5t87 -51.5t107 -32.5t118.5 -16.5t121.5 -4.5q137 0 260.5 15.5t227.5 40.5t186.5 56t136.5 62q22 12 42.5 46.5t36.5 75t26 79t10 60.5q0 66 -21 127t-59 120z" />
    <glyph glyph-name="sf270.002" unicode="&#x62a;" horiz-adv-x="1604" 
d="M664 660q61 -50 105 -77l18 -11q42 54 69 101l5 8q10 -7 12 -9l21 -17q30 -24 65 -45l23 -13q3 -2 16 -10q-48 -50 -88 -129q-55 53 -119 87q-32 -39 -69 -117q-37 39 -107 85l-24 16q-2 2 -11 8q54 65 84 123zM1372 484l72 163q8 -11 24 -41.5t25 -52.5q29 -73 29 -135
q0 -70 -40 -168q-18 -44 -34.5 -67t-39.5 -38q-58 -37 -168.5 -74.5t-229.5 -60.5q-92 -18 -202.5 -28.5t-196.5 -10.5q-258 0 -377 62q-73 38 -107.5 91.5t-34.5 129.5q0 114 64 214q32 51 52 51q14 0 14 -11q0 -7 -11 -23q-38 -58 -38 -106q0 -39 23.5 -78t65.5 -68
q130 -93 377 -93q313 0 630 99q181 57 181 86q0 20 -21.5 64.5t-56.5 94.5z" />
    <glyph glyph-name="sf270.003" unicode="&#x679;" horiz-adv-x="1604" 
d="M1372 484l72 163q8 -11 24 -41.5t25 -52.5q29 -73 29 -135q0 -70 -40 -168q-18 -44 -34.5 -67t-39.5 -38q-58 -37 -168.5 -74.5t-229.5 -60.5q-92 -18 -202.5 -28.5t-196.5 -10.5q-258 0 -377 62q-73 38 -107.5 91.5t-34.5 129.5q0 114 64 214q32 51 52 51q14 0 14 -11
q0 -7 -11 -23q-38 -58 -38 -106q0 -39 23.5 -78t65.5 -68q130 -93 377 -93q313 0 630 99q181 57 181 86q0 20 -21.5 64.5t-56.5 94.5zM862 648q-20 0 -39.5 -8.5t-37.5 -21t-34 -27t-28 -26.5q14 1 36 0.5t49 1t57.5 7.5t61.5 21q-6 27 -26.5 40.5t-38.5 12.5zM687 571
q14 18 27 39.5t21 43.5q0 54 -2 106t0 106q-8 14 -17.5 24t-9.5 26q10 18 20.5 36t21.5 35q3 3 8 6t8 -3q6 -23 23.5 -43t36.5 -38q-9 -26 -19.5 -46t-20.5 -33q1 -48 0 -77.5t-3 -46t-3.5 -23.5t-1.5 -10q24 21 53.5 41t63.5 20q48 0 77 -30t27 -78q-10 -14 -30 -43
t-47 -53q-25 -15 -56.5 -25t-65 -16t-66.5 -8.5t-61 -2.5q-12 0 -19 1t-19 6.5t-35 18.5t-67 37q-13 6 -10.5 10t15.5 5q21 2 44.5 1.5t44.5 -0.5q22 0 38.5 2.5t23.5 11.5z" />
    <glyph glyph-name="sf270.004" unicode="&#x62b;" horiz-adv-x="1604" 
d="M1372 484l72 163q8 -11 24 -41.5t25 -53.5q29 -73 29 -134q0 -70 -40 -169q-18 -43 -34.5 -66.5t-39.5 -38.5q-58 -37 -168.5 -74t-229.5 -60q-92 -18 -202.5 -29t-196.5 -11q-258 0 -377 62q-73 38 -107.5 91.5t-34.5 130.5q0 114 64 214q32 51 52 51q14 0 14 -12
q0 -7 -11 -23q-38 -58 -38 -105q0 -39 23.5 -78t65.5 -69q130 -92 377 -92q313 0 630 99q181 56 181 85q0 21 -21.5 65t-56.5 95zM678 632q61 -50 105 -77l18 -11q42 54 69 101l5 8q10 -7 12 -9l21 -17q30 -24 65 -45l23 -13q3 -2 16 -10q-48 -50 -88 -129q-55 53 -119 87
q-32 -39 -69 -117q-37 39 -107 85l-24 16q-2 2 -11 8q53 65 84 123zM745 857l11 -10q63 -62 122 -95q-28 -32 -44.5 -57.5t-43.5 -77.5q-61 52 -132 93l-12 7l14 19q62 79 85 121z" />
    <glyph glyph-name="sf276.002" unicode="&#x62c;" horiz-adv-x="1178" 
d="M641 -159q70 -70 133 -105q-29 -33 -46 -58.5t-43 -76.5q-60 51 -132 93l-12 7l15 19q61 79 85 121zM1031 300q-23 0 -87 -6t-106 -12q-125 -19 -220.5 -53t-177.5 -90q-109 -75 -169 -160q-87 -125 -87 -269q0 -108 50.5 -198.5t145.5 -151.5q84 -54 209.5 -82.5
t283.5 -28.5q83 0 193.5 9t178.5 21l48 8q41 7 58 7q20 0 20 -12q0 -17 -54 -47.5t-143 -63.5q-116 -43 -206 -60.5t-198 -17.5q-315 0 -496.5 138.5t-181.5 378.5q0 243 141 433q66 88 144.5 152.5t181.5 114.5v7q-16 3 -54 8q-7 1 -44 7q-89 13 -131 13q-48 0 -77.5 -10.5
t-55.5 -36.5q-27 -27 -37 -27q-7 0 -12 5.5t-5 13.5q0 13 9 30l16 30q13 25 37.5 55t47.5 50q56 47 124 47q47 0 152 -22q118 -25 198.5 -32.5t221.5 -7.5h115h33z" />
    <glyph glyph-name="sf276.003" unicode="&#x686;" horiz-adv-x="1182" 
d="M1104 444h-201q-111 0 -188 10.5t-137 22.5q-59 13 -105 22t-94 9q-37 0 -68.5 -14t-57.5 -35.5t-46.5 -47.5t-34 -49t-20.5 -40.5t-7 -22.5q0 -20 14 -22t31 18q9 10 21 20t28.5 17.5t39 12.5t51.5 5q28 0 60.5 -3.5t63.5 -8.5t59 -10.5t48 -8.5v-4
q-101 -51 -186.5 -121t-148.5 -158.5t-98.5 -195t-35.5 -229.5t47 -220t135.5 -164t214 -102.5t283.5 -35.5q53 0 98 3.5t89.5 11t91 20.5t102.5 32q51 18 92.5 36.5t70.5 34.5t44.5 27.5t15.5 16.5q0 7 -2 11.5t-10 6t-23.5 0t-42.5 -5.5q-53 -11 -110 -18t-113.5 -11
t-110.5 -6t-100 -2q-135 0 -237.5 20.5t-178 55.5t-126.5 81.5t-81.5 97.5t-43.5 105t-13 103q0 118 53.5 214.5t140 169t196 119t221.5 64.5q30 5 62.5 10t64.5 8.5t62 6t54 2.5zM711 -86q-13 -32 -30.5 -61.5t-39.5 -55.5q-34 19 -65 41.5t-54 46.5q-17 -35 -40 -67.5
t-48 -63.5q40 -17 73.5 -43.5t65.5 -52.5q13 31 32.5 59t41.5 54q32 -17 63 -40.5t60 -49.5q16 34 36 65t46 61q-40 23 -75 49.5t-66 57.5zM655 -303q-17 -38 -39.5 -72t-50.5 -65q38 -19 71 -47.5t64 -59.5q19 38 47 73.5t54 67.5q-40 20 -75.5 47.5t-70.5 55.5z" />
    <glyph glyph-name="sf276.004" unicode="&#x62d;" horiz-adv-x="1178" 
d="M1031 298q-23 0 -87 -6t-106 -13q-125 -18 -220.5 -52.5t-177.5 -89.5q-109 -75 -169 -161q-87 -125 -87 -268q0 -108 50.5 -198.5t145.5 -152.5q84 -54 209.5 -82t283.5 -28q83 0 193.5 9t178.5 21l48 8q41 7 58 7q20 0 20 -13q0 -17 -54 -47t-143 -63
q-116 -44 -206 -61t-198 -17q-315 0 -496.5 138.5t-181.5 378.5q0 243 141 432q66 89 144.5 153.5t181.5 113.5v7q-16 4 -54 9q-7 1 -44 6q-89 14 -131 14q-48 0 -77 -10.5t-56 -37.5q-18 -17 -23.5 -21t-13.5 -4q-15 0 -15 17q0 18 20 54.5t48 68.5q77 89 166 89
q45 0 150 -21q121 -26 200.5 -33.5t229.5 -7.5l105 1h33z" />
    <glyph glyph-name="sf276.005" unicode="&#x62e;" horiz-adv-x="1178" 
d="M650 810q70 -71 133 -106q-29 -33 -46 -58.5t-43 -76.5q-60 52 -132 94l-12 7l14 19q62 78 86 121zM1031 300q-23 0 -87 -6t-106 -12q-125 -19 -220.5 -53t-177.5 -90q-109 -75 -169 -160q-87 -125 -87 -269q0 -108 50.5 -198.5t145.5 -151.5q84 -54 209.5 -82.5
t283.5 -28.5q83 0 193.5 9t178.5 21l48 8q41 7 58 7q20 0 20 -12q0 -17 -54 -47.5t-143 -63.5q-116 -43 -206 -60.5t-198 -17.5q-315 0 -496.5 138.5t-181.5 378.5q0 243 141 433q66 88 144.5 152.5t181.5 114.5v7q-16 3 -54 8q-7 1 -44 7q-89 13 -131 13q-48 0 -77.5 -10.5
t-55.5 -36.5q-27 -27 -37 -27q-7 0 -12 5.5t-5 13.5q0 13 9 30l16 30q13 25 37.5 55t47.5 50q56 47 124 47q47 0 152 -22q118 -25 198.5 -32.5t221.5 -7.5h115h33z" />
    <glyph glyph-name="sf274" unicode="&#x62f;" horiz-adv-x="717" 
d="M242 555q32 108 46.5 141.5t29.5 33.5q20 0 75 -39t98 -84q71 -76 112 -169t41 -182q0 -85 -36 -132.5t-131 -85.5q-127 -53 -271 -53q-46 0 -84 10q-27 6 -37.5 19t-10.5 41q0 29 7 75t16 76q41 -20 72 -27t75 -7q45 0 106.5 10.5t111.5 27.5q109 36 109 77
q0 29 -38 75.5t-100 92.5q-94 70 -191 100z" />
    <glyph glyph-name="sf274.002" unicode="&#x688;" horiz-adv-x="717" 
d="M242 555q32 108 46.5 141.5t29.5 33.5q20 0 75 -39t98 -84q71 -76 112 -169t41 -182q0 -85 -36 -132.5t-131 -85.5q-127 -53 -271 -53q-46 0 -84 10q-27 6 -37.5 19t-10.5 41q0 29 7 75t16 76q41 -20 72 -27t75 -7q45 0 106.5 10.5t111.5 27.5q109 36 109 77
q0 29 -38 75.5t-100 92.5q-94 70 -191 100zM419 998q-20 0 -39.5 -8.5t-37.5 -21t-34 -27t-28 -26.5q14 1 36 0.5t49 1t57.5 7.5t61.5 21q-6 27 -26.5 40.5t-38.5 12.5zM244 921q14 18 27 39.5t21 43.5q0 54 -2 106t0 106q-8 14 -17.5 24t-9.5 26q10 18 20.5 36t21.5 35
q3 3 8 6t8 -3q6 -23 23.5 -43t36.5 -38q-9 -26 -19.5 -46t-20.5 -33q1 -48 0 -77.5t-3 -46t-3.5 -23.5t-1.5 -10q24 21 53.5 41t63.5 20q48 0 77 -30t27 -78q-10 -14 -30 -43t-47 -53q-25 -15 -56.5 -25t-65 -16t-66.5 -8.5t-61 -2.5q-12 0 -19 1t-19 6.5t-35 18.5t-67 37
q-13 6 -10.5 10t15.5 5q21 2 44.5 1.5t44.5 -0.5q22 0 38.5 2.5t23.5 11.5z" />
    <glyph glyph-name="sf274.003" unicode="&#x630;" horiz-adv-x="717" 
d="M242 556q32 107 46.5 140.5t29.5 33.5q20 0 75 -39t98 -83q71 -76 112 -169.5t41 -181.5q0 -85 -36 -132.5t-131 -86.5q-127 -52 -271 -52q-46 0 -84 9q-27 7 -37.5 20t-10.5 41q0 29 7 75t16 76q41 -20 72 -27.5t75 -7.5q45 0 106.5 11t111.5 27q109 37 109 78
q0 29 -38 75t-100 93q-94 70 -191 100zM300 1070q71 -71 133 -106q-29 -33 -45.5 -58.5t-43.5 -76.5q-59 52 -131 94l-13 7l15 19q61 78 85 121z" />
    <glyph glyph-name="sf331" unicode="&#x631;" horiz-adv-x="772" 
d="M556 493q22 -14 45.5 -42.5t39.5 -61.5q25 -51 41.5 -125.5t16.5 -136.5q0 -104 -46.5 -208.5t-128.5 -184.5q-59 -58 -129.5 -95.5t-120.5 -37.5q-51 0 -157 53q-117 59 -117 74q0 4 4.5 8t10.5 4q8 0 27 -6l34 -8l40 -10q40 -10 75 -10q93 0 205.5 80.5t201.5 211.5
q27 40 36.5 57t9.5 27q0 15 -14.5 51.5t-37.5 78.5q-43 79 -110 139z" />
    <glyph glyph-name="sf331.001" unicode="&#x691;" horiz-adv-x="772" 
d="M556 493q22 -14 45.5 -42.5t39.5 -61.5q25 -51 41.5 -125.5t16.5 -136.5q0 -104 -46.5 -208.5t-128.5 -184.5q-59 -58 -129.5 -95.5t-120.5 -37.5q-51 0 -157 53q-117 59 -117 74q0 4 4.5 8t10.5 4q8 0 27 -6l34 -8l40 -10q40 -10 75 -10q93 0 205.5 80.5t201.5 211.5
q27 40 36.5 57t9.5 27q0 15 -14.5 51.5t-37.5 78.5q-43 79 -110 139zM539 751q-20 0 -39.5 -8.5t-37.5 -21t-34 -27t-28 -26.5q14 1 36 0.5t49 1t57.5 7.5t61.5 21q-6 27 -26.5 40.5t-38.5 12.5zM364 674q14 18 27 39.5t21 43.5q0 54 -2 106t0 106q-8 14 -17.5 24t-9.5 26
q10 18 20.5 36t21.5 35q3 3 8 6t8 -3q6 -23 23.5 -43t36.5 -38q-9 -26 -19.5 -46t-20.5 -33q1 -48 0 -77.5t-3 -46t-3.5 -23.5t-1.5 -10q24 21 53.5 41t63.5 20q48 0 77 -30t27 -78q-10 -14 -30 -43t-47 -53q-25 -15 -56.5 -25t-65 -16t-66.5 -8.5t-61 -2.5q-12 0 -19 1
t-19 6.5t-35 18.5t-67 37q-13 6 -10.5 10t15.5 5q21 2 44.5 1.5t44.5 -0.5q22 0 38.5 2.5t23.5 11.5z" />
    <glyph glyph-name="sf331.002" unicode="&#x632;" horiz-adv-x="772" 
d="M556 492q22 -14 45.5 -42.5t39.5 -60.5q25 -51 41.5 -125.5t16.5 -137.5q0 -104 -46.5 -208t-128.5 -185q-59 -58 -129.5 -95.5t-120.5 -37.5q-51 0 -157 53q-117 59 -117 75q0 4 4.5 7.5t10.5 3.5q8 0 27 -6l34 -7l40 -10q40 -11 75 -11q93 0 205.5 81t201.5 211
q27 40 36.5 57t9.5 28q0 15 -14.5 51.5t-37.5 78.5q-43 79 -110 139zM503 825q71 -70 133 -105q-29 -33 -45.5 -58.5t-43.5 -76.5q-59 51 -131 93l-13 7l15 19q61 79 85 121z" />
    <glyph glyph-name="sf331.003" unicode="&#x698;" horiz-adv-x="778" 
d="M465 556q12 32 30 61.5t39 55.5q34 -18 65 -40.5t54 -47.5q17 35 40.5 67.5t47.5 63.5q-40 17 -73.5 43.5t-65.5 52.5q-12 -31 -32 -58.5t-42 -53.5q-32 17 -63 40.5t-60 49.5q-29 -65 -82 -127q82 -47 142 -107zM518 773q17 39 39.5 73t50.5 65q-38 18 -71 46.5
t-64 59.5q-19 -38 -46.5 -73.5t-53.5 -67.5q40 -20 75 -47.5t70 -55.5zM485 352q36 -26 66 -67.5t51.5 -83t34 -75t12.5 -42.5q0 -13 -19 -46.5t-52 -76t-77 -88t-95 -83.5t-105.5 -62.5t-107.5 -24.5q-26 0 -54.5 5.5t-53.5 12t-43 12t-22 5.5q-6 0 -13 -2.5t-7 -11.5
q0 -5 15 -16t39.5 -25t54.5 -29t60 -27t57 -20t44 -8q42 0 91 19t97.5 53.5t93 82.5t78.5 106.5t54.5 125.5t20.5 139q0 46 -7.5 99.5t-25 104.5t-45 95t-66.5 72z" />
    <glyph glyph-name="sf293.002" unicode="&#x633;" horiz-adv-x="1805" 
d="M899 57q-11 13 -14 16l-21 21q-18 18 -52 63q25 48 75 119l14 19q6 -11 9 -16q38 -72 82 -97.5t129 -25.5q51 0 85.5 9t65.5 30q62 43 107 147q20 46 43 46q25 0 34 -48q9 -41 19.5 -61t33.5 -35q35 -23 101 -23l26 1q-3 45 -15.5 73.5t-42.5 60.5l96 136q41 -71 41 -163
q0 -113 -48.5 -188.5t-120.5 -75.5q-48 0 -93 25q-40 23 -60 42q-13 12 -21 12q-7 0 -18 -16q-46 -68 -102.5 -98t-138.5 -30q-68 0 -111 12q0 -60 -14 -146q-38 -217 -185 -334t-382 -117q-151 0 -245 85.5t-94 223.5q0 65 20.5 135t56.5 128q20 33 40 54.5t31 21.5
q7 0 7 -7t-17 -41q-40 -76 -56 -126.5t-16 -97.5q0 -48 23 -84t74 -67q97 -60 232 -60q103 0 197 26.5t161 73.5q47 34 63 75.5t16 132.5q0 86 -15 169z" />
    <glyph glyph-name="sf293.003" unicode="&#x634;" horiz-adv-x="1805" 
d="M899 58q-11 13 -14 16l-21 21q-18 18 -52 62q25 48 75 119l14 19q6 -11 9 -16q38 -71 82 -96.5t129 -25.5q51 0 85.5 9t65.5 30q62 42 107 146q20 46 43 46q25 0 34 -47q9 -42 19.5 -62t33.5 -34q35 -23 101 -23h26q-3 46 -15.5 74.5t-42.5 59.5l96 137q41 -72 41 -164
q0 -113 -48.5 -188.5t-120.5 -75.5q-48 0 -93 25q-40 23 -60 42q-13 12 -21 12q-7 0 -18 -16q-46 -68 -102.5 -98t-138.5 -30q-68 0 -111 12q0 -60 -14 -145q-38 -218 -185 -335t-382 -117q-151 0 -245 85.5t-94 223.5q0 65 20.5 135t56.5 129q20 33 40 54.5t31 21.5
q7 0 7 -7q0 -8 -17 -41q-40 -76 -56 -127t-16 -98q0 -48 23 -84t74 -67q97 -60 232 -60q103 0 197 26.5t161 74.5q47 33 63 75t16 132q0 86 -15 170zM1247 744q61 -51 105 -77l18 -11q42 53 69 100l5 8q10 -7 12 -9l21 -17q30 -24 65 -45l23 -13q3 -2 16 -10
q-48 -50 -88 -128q-55 53 -119 86q-32 -39 -69 -117q-37 39 -107 86l-24 16q-2 1 -11 7q54 65 84 124zM1314 969l11 -10q63 -63 122 -96q-28 -32 -44.5 -57t-43.5 -78q-61 52 -132 94l-12 7l14 19q62 79 85 121z" />
    <glyph glyph-name="sf293.001" unicode="&#x635;" horiz-adv-x="2153" 
d="M1287 163q77 130 212 254q210 193 374 193q90 0 140 -71q38 -55 38 -120q0 -81 -57 -164q-80 -118 -310 -192q-72 -24 -161.5 -39.5t-176.5 -20.5l-40 -2l-31 -1q-31 -49 -55 -96q-26 -49 -37 -49q-10 0 -10 25l1 17q0 32 20 102l-52 1l-34 1q-53 0 -108 11
q0 -121 -31 -223.5t-90 -180.5q-71 -93 -184.5 -143.5t-250.5 -50.5q-101 0 -173 27t-121 83q-68 78 -68 195q0 88 33 180q10 28 30.5 67t33.5 54l12 16q22 27 36 27q8 0 8 -9q0 -6 -7 -19l-11 -20q-71 -134 -71 -215q0 -56 24.5 -94t82.5 -72q45 -27 105.5 -42t124.5 -15
q72 0 150.5 17.5t140.5 46.5q78 37 108.5 91.5t30.5 154.5q0 91 -16 173q-44 40 -86 99q42 72 83 130l6 7q5 -9 7 -14l11 -22q30 -63 94 -85q53 -17 171 -17q52 0 104 5zM1378 160q77 0 177.5 15.5t178.5 38.5q88 27 143.5 61t55.5 61t-46 58q-55 38 -121 38
q-48 0 -106.5 -24.5t-114.5 -67.5q-80 -63 -152 -160q-5 -6 -15 -20z" />
    <glyph glyph-name="sf293.004" unicode="&#x636;" horiz-adv-x="2153" 
d="M1287 163q77 130 212 254q210 193 374 193q90 0 140 -71q38 -55 38 -120q0 -81 -57 -164q-80 -118 -310 -192q-72 -24 -161.5 -39.5t-176.5 -20.5l-40 -2l-31 -1q-31 -49 -55 -96q-26 -49 -37 -49q-10 0 -10 25l1 17q0 32 20 102l-52 1l-34 1q-53 0 -108 11
q0 -121 -31 -223.5t-90 -180.5q-71 -93 -184.5 -143.5t-250.5 -50.5q-101 0 -173 27t-121 83q-68 78 -68 195q0 88 33 180q10 28 30.5 67t33.5 54l12 16q22 27 36 27q8 0 8 -9q0 -6 -7 -19l-11 -20q-71 -134 -71 -215q0 -56 24.5 -94t82.5 -72q45 -27 105.5 -42t124.5 -15
q72 0 150.5 17.5t140.5 46.5q78 37 108.5 91.5t30.5 154.5q0 91 -16 173q-44 40 -86 99q42 72 83 130l6 7q5 -9 7 -14l11 -22q30 -63 94 -85q53 -17 171 -17q52 0 104 5zM1378 160q77 0 177.5 15.5t178.5 38.5q88 27 143.5 61t55.5 61t-46 58q-55 38 -121 38
q-48 0 -106.5 -24.5t-114.5 -67.5q-80 -63 -152 -160q-5 -6 -15 -20zM1424 849q70 -71 133 -106q-29 -33 -46 -58.5t-43 -76.5q-60 52 -132 93l-12 8l14 19q62 78 86 121z" />
    <glyph glyph-name="sf336" unicode="&#x637;" horiz-adv-x="1310" 
d="M506 1300q30 -79 113 -163q-40 -33 -57.5 -65t-17.5 -71q0 -18 14 -99q37 -225 37 -370q0 -93 -13 -190l13 -5q14 20 43 47l46 43q68 64 161 114q95 51 175 51q102 0 153 -72q36 -50 36 -109q0 -33 -16.5 -84t-39.5 -90q-24 -41 -116 -89.5t-207 -80.5q-112 -31 -255 -49
t-279 -18q-44 0 -71 11t-63 43q-70 62 -70 87q0 15 30 15h8l30 1l47 1q61 0 127 9q89 12 139 61q26 26 37.5 66t11.5 104v26l-4 84l-4 70q-2 28 -6 72l-8 65l-8 71q-15 127 -44 260q-11 51 -18 73.5t-23 55.5q12 13 29 33l19 24q20 23 51 68zM1108 338q-20 37 -49 54
q-56 32 -134 32q-119 0 -256 -111q-49 -40 -83 -77.5t-34 -52.5t26 -15q37 0 120 17t152 38q171 54 252 111z" />
    <glyph glyph-name="sf336.002" unicode="&#x638;" horiz-adv-x="1310" 
d="M506 1301q30 -79 113 -163q-40 -33 -57.5 -65t-17.5 -71q0 -18 14 -99q37 -225 37 -370q0 -93 -13 -190l13 -5q14 20 43 47l46 43q68 64 161 114q95 51 175 51q102 0 153 -72q36 -50 36 -109q0 -33 -16.5 -84t-39.5 -90q-24 -41 -116 -89.5t-207 -80.5q-112 -31 -255 -49
t-279 -18q-44 0 -71 11t-63 43q-70 62 -70 87q0 15 30 15h8l30 1l47 1q61 0 127 9q89 12 139 61q26 26 37.5 66t11.5 104v26l-4 84l-4 69q-2 29 -6 73l-8 65l-8 71q-15 127 -44 260q-11 51 -18 73.5t-23 55.5q12 12 29 33l19 23q20 24 51 69zM1108 339q-20 37 -49 54
q-56 32 -134 32q-119 0 -256 -111q-49 -40 -83 -77.5t-34 -52.5t26 -15q37 0 120 17t152 38q171 54 252 111zM839 960q70 -71 133 -106q-29 -33 -46 -58.5t-43 -76.5q-60 52 -132 94l-12 7l14 19q62 78 86 121z" />
    <glyph glyph-name="sf276.001" unicode="&#x639;" horiz-adv-x="933" 
d="M351 241q-83 22 -125 53q-59 44 -59 106q0 67 29 143.5t78 135.5q78 96 169 96q55 0 123 -44q51 -34 51 -50q0 -7 -8.5 -9t-40.5 -4q-132 -5 -219 -54q-48 -28 -80.5 -67t-32.5 -70t60 -64q98 -52 168 -52q36 0 76 16.5t136 72.5l48 28q98 57 111 57q12 0 12 -12
q0 -7 -3 -11l-91 -131l-6 -8q-22 -13 -27 -16l-47 -25q-96 -51 -191 -125.5t-159 -148.5q-65 -75 -102 -164.5t-37 -170.5q0 -186 157 -314q190 -155 525 -155q88 0 209 6l117 6q68 4 97 4q15 0 15 -9q0 -11 -41 -35.5t-103 -49.5q-194 -79 -379 -79q-146 0 -282 37
q-74 21 -131.5 51t-117.5 80q-83 70 -122 169q-36 92 -36 186q0 132 65 297q26 65 69 143t76 120l35 42q3 4 14 19z" />
    <glyph glyph-name="sf276.006" unicode="&#x63a;" horiz-adv-x="933" 
d="M351 241q-84 22 -125 53q-59 44 -59 106q0 67 29 143.5t77 135.5q79 96 170 96q55 0 123 -44q51 -34 51 -50q0 -7 -8.5 -9t-40.5 -4q-132 -5 -219 -54q-48 -28 -80.5 -67t-32.5 -70t60 -64q98 -52 168 -52q36 0 76 16.5t135 72.5l49 28q98 57 111 57q12 0 12 -12
q0 -7 -3 -11l-92 -131l-6 -8q-21 -13 -27 -16l-46 -25q-97 -51 -191.5 -125.5t-158.5 -148.5q-65 -75 -102.5 -164.5t-37.5 -170.5q0 -186 158 -314q190 -155 524 -155q88 0 209 6l117 6q69 4 98 4q15 0 15 -9q0 -11 -41 -35.5t-103 -49.5q-194 -79 -379 -79q-146 0 -282 37
q-74 21 -131.5 51t-117.5 80q-83 70 -122 169q-36 92 -36 186q0 132 65 297q25 65 68.5 143t76.5 120l34 42q4 4 15 19zM370 1105q70 -70 133 -105q-29 -33 -46 -58.5t-43 -76.5q-60 51 -132 93l-12 7l14 19q62 79 86 121z" />
    <glyph glyph-name="sf278" unicode="&#x641;" horiz-adv-x="1585" 
d="M1396 394q-15 -15 -32 -39q-15 -22 -25 -30.5t-29 -16.5q-35 -14 -80 -14q-59 0 -83 26t-24 91q0 94 53 208q54 114 109 114q32 0 70.5 -34t69.5 -88q68 -118 68 -266q0 -44 -8 -90.5t-20 -74.5q-22 -50 -74.5 -87t-142.5 -66q-88 -28 -231 -40q-191 -16 -318 -16h-51
q-131 0 -215 9.5t-147 31.5q-99 35 -146.5 94t-47.5 148q0 104 54 198q39 67 64 67q12 0 12 -11q0 -6 -6 -14l-14 -21q-29 -46 -29 -90q0 -54 38 -101.5t107 -81.5q72 -34 158.5 -47.5t237.5 -13.5q117 0 274 11.5t226 25.5q74 14 131 36.5t78 45.5q13 15 13 47q0 58 -40 89
zM1198 457q31 -27 62 -27q25 0 45 19t20 42q0 24 -28 56q-11 12 -24 21t-20 9q-13 0 -29.5 -36t-25.5 -84zM1202 1052q70 -71 133 -106q-29 -33 -46 -58t-43 -77q-60 52 -132 94l-12 7l15 19q61 79 85 121z" />
    <glyph glyph-name="sf277.018" unicode="&#x642;" horiz-adv-x="1210" 
d="M1018 321q-6 0 -31 -25q-32 -31 -62 -44t-67 -13q-72 0 -120.5 43t-48.5 107q0 36 20 94.5t52 114.5q65 118 132 118q49 0 92 -53q56 -69 94.5 -183t38.5 -210q0 -94 -34 -186q-31 -83 -91.5 -152t-146.5 -119q-79 -46 -175 -71.5t-192 -25.5q-185 0 -286 88.5
t-101 249.5q0 62 18.5 132.5t52.5 137.5q27 54 55 87.5t45 33.5q6 0 10 -4.5t4 -10.5t-2.5 -11t-19.5 -29q-36 -51 -58 -116.5t-22 -120.5q0 -60 24 -112t68 -89q84 -70 231 -70q93 0 200 32.5t201 88.5q70 43 117 100.5t47 100.5q0 33 -16 75t-29 42zM941 450
q-37 84 -87 84q-24 0 -46 -19.5t-22 -41.5q0 -21 21 -36t51 -15q45 0 83 28zM714 1029q61 -51 105 -77l18 -11q42 53 69 100l4 8q10 -7 13 -9l20 -17q30 -24 66 -45l22 -13q4 -2 17 -10q-48 -50 -88 -128q-56 53 -119 86q-32 -39 -69 -117q-37 39 -107 86l-24 16q-2 1 -11 7
q53 65 84 124z" />
    <glyph glyph-name="sf270.007" unicode="&#x643;" horiz-adv-x="1145" 
d="M115 209q38 -20 59 -27.5t59 -13.5q35 -5 101.5 -9.5t120.5 -4.5h77l76 1q213 0 298.5 19.5t85.5 68.5q0 23 -12 77l-11 52l-18 88q-4 20 -19 84q-30 137 -49 247l-13 83l-12 70l-10 60l-10 48l-9 45q-10 45 -18 70t-23 49q50 51 90 110l9 14q8 -14 10 -18l13 -22
q47 -81 94 -124q-36 -17 -49.5 -44t-13.5 -78q0 -100 58 -340q41 -167 53.5 -240.5t12.5 -143.5q0 -185 -82 -280q-20 -23 -40.5 -34t-51.5 -16q-28 -4 -113 -7.5t-156 -3.5l-174 -2l-57 -1q-52 0 -83 2q-34 0 -78.5 4t-60.5 8q-42 12 -77 41zM614 864l12 -101
q-52 -13 -81 -31.5t-29 -37.5q0 -12 11 -19t49 -20q56 -18 79 -35.5t23 -42.5q0 -29 -19.5 -69t-51.5 -73q-50 -54 -104 -54q-28 0 -71.5 15t-88.5 40l3 23q14 -1 16 -1h20l16 -1h7q27 0 66 4.5t57 10.5q22 5 37 17t15 23v3q-2 8 -22 12q-7 1 -27 6l-28 10q-87 25 -87 67
q0 27 25.5 80t56.5 90q28 31 54 50.5t62 33.5z" />
    <glyph glyph-name="sf270.007" unicode="&#x6a9;" horiz-adv-x="1145" 
d="M115 209q38 -20 59 -27.5t59 -13.5q35 -5 101.5 -9.5t120.5 -4.5h77l76 1q213 0 298.5 19.5t85.5 68.5q0 23 -12 77l-11 52l-18 88q-4 20 -19 84q-30 137 -49 247l-13 83l-12 70l-10 60l-10 48l-9 45q-10 45 -18 70t-23 49q50 51 90 110l9 14q8 -14 10 -18l13 -22
q47 -81 94 -124q-36 -17 -49.5 -44t-13.5 -78q0 -100 58 -340q41 -167 53.5 -240.5t12.5 -143.5q0 -185 -82 -280q-20 -23 -40.5 -34t-51.5 -16q-28 -4 -113 -7.5t-156 -3.5l-174 -2l-57 -1q-52 0 -83 2q-34 0 -78.5 4t-60.5 8q-42 12 -77 41zM614 864l12 -101
q-52 -13 -81 -31.5t-29 -37.5q0 -12 11 -19t49 -20q56 -18 79 -35.5t23 -42.5q0 -29 -19.5 -69t-51.5 -73q-50 -54 -104 -54q-28 0 -71.5 15t-88.5 40l3 23q14 -1 16 -1h20l16 -1h7q27 0 66 4.5t57 10.5q22 5 37 17t15 23v3q-2 8 -22 12q-7 1 -27 6l-28 10q-87 25 -87 67
q0 27 25.5 80t56.5 90q28 31 54 50.5t62 33.5z" />
    <glyph glyph-name="sf270.006" unicode="&#x6af;" horiz-adv-x="1614" 
d="M848 1014q54 36 116 73t126 72t127.5 67t121.5 58t107.5 45t85.5 29l41 119q-47 -11 -106.5 -33.5t-124.5 -52.5t-133 -65t-132 -71.5t-120 -72t-97 -66.5zM1573 1223q-121 -39 -223.5 -80t-187 -80t-150.5 -75t-113 -66q-36 -23 -58 -40t-34.5 -35t-16.5 -41.5t-4 -60.5
q0 -35 2 -61.5t11.5 -47.5t30 -38t57.5 -33q75 -33 137.5 -78.5t107.5 -89.5t70 -79.5t25 -49.5q0 -20 -25.5 -37t-68.5 -31.5t-99.5 -25t-118.5 -18t-126.5 -11.5t-122.5 -4q-88 0 -175.5 11.5t-158 41t-114.5 80t-44 129.5q0 35 8.5 65t17 52t11 34.5t-9.5 12.5
q-8 0 -26 -24.5t-36.5 -64t-32.5 -90t-14 -101.5q0 -63 25.5 -111t67.5 -83t96.5 -58.5t112 -37.5t114.5 -20t104 -6q141 0 270 17.5t240 60.5q36 14 65.5 36.5t50.5 51t32.5 62t11.5 69.5q0 87 -36.5 158.5t-91.5 126.5t-118 92.5t-116 56.5q-47 17 -62.5 32t-15.5 40
q0 10 25 28t69 42t104.5 51.5t132 56t151 56.5t161.5 53z" />
    <glyph glyph-name="sf288.001" unicode="&#x644;" horiz-adv-x="1045" 
d="M941 1135q-38 -25 -58 -60.5t-20 -78.5q0 -19 8 -63q63 -365 63 -636q0 -73 -11.5 -123.5t-38.5 -98.5q-53 -96 -152 -155q-65 -38 -145 -60t-158 -22q-133 0 -232 84q-105 88 -105 218q0 110 76 264q26 52 49 83t35 31q10 0 10 -11q0 -8 -17 -46q-71 -158 -71 -239
q0 -115 103 -178q68 -41 164 -41q102 0 220 42q52 18 105 48t74 52q13 14 18 37.5t5 72.5q0 79 -11 195l-7 63l-10 99q-14 141 -50 334q-18 103 -26.5 138t-27.5 83l102 137q35 -104 108 -169z" />
    <glyph glyph-name="sf289.001" unicode="&#x645;" horiz-adv-x="763" 
d="M181 260q-2 22 -2 33q0 37 19.5 84.5t52.5 90.5q75 97 134 97q77 0 168 -84q33 -31 58.5 -67.5t58.5 -101.5l-51 -164q-72 14 -137 14q-140 0 -232 -45.5t-92 -114.5q0 -14 7 -48l12 -57l15 -60q2 -9 21 -98l23 -108l17 -93q29 -160 34.5 -200t5.5 -96q0 -80 -9 -115
q-10 -37 -19 -37q-7 0 -10.5 11.5t-8.5 50.5q-26 185 -82 420l-19 79l-21 92q-20 88 -26 129t-6 92q0 79 20.5 147.5t68.5 148.5zM259 251q87 56 200 56q8 0 26 -3q-33 47 -71 73q-44 30 -77 30t-61.5 -31t-28.5 -66q0 -14 8 -43z" />
    <glyph glyph-name="sf277.019" unicode="&#x646;" horiz-adv-x="1003" 
d="M686 667l54 155q29 -23 59.5 -77.5t53.5 -121.5q26 -77 42 -163.5t16 -151.5q0 -160 -99 -281q-123 -149 -357 -149q-84 0 -145.5 17.5t-111.5 54.5q-51 39 -78.5 95t-27.5 122q0 44 14.5 102.5t37.5 108.5l13 28l14 30q37 73 56 73q13 0 13 -15q0 -7 -3 -15l-11 -29
l-12 -33q-23 -60 -31 -94t-8 -66q0 -51 22.5 -92t65.5 -68q68 -43 193 -43q165 0 282 72q47 29 74.5 64t27.5 67q0 23 -11 72.5t-24 91.5q-19 55 -47.5 116t-58.5 109zM421 912q71 -71 133 -106q-29 -33 -45.5 -58t-43.5 -76q-59 51 -132 93l-12 7l15 19q61 79 85 121z" />
    <glyph glyph-name="sf277.037" unicode="&#x6ba;" horiz-adv-x="1003" 
d="M686 667l54 155q29 -23 59.5 -77.5t53.5 -121.5q26 -77 42 -163.5t16 -151.5q0 -160 -99 -281q-123 -149 -357 -149q-84 0 -145.5 17.5t-111.5 54.5q-51 39 -78.5 95t-27.5 122q0 44 14.5 102.5t37.5 108.5l13 28l14 30q37 73 56 73q13 0 13 -15q0 -7 -3 -15l-11 -29
l-12 -33q-23 -60 -31 -94t-8 -66q0 -51 22.5 -92t65.5 -68q68 -43 193 -43q165 0 282 72q47 29 74.5 64t27.5 67q0 23 -11 72.5t-24 91.5q-19 55 -47.5 116t-58.5 109z" />
    <glyph glyph-name="sf337" unicode="&#x648;" horiz-adv-x="859" 
d="M677 149q-6 0 -28 -23q-20 -21 -35.5 -28.5t-38.5 -7.5q-64 0 -100.5 39t-36.5 106q0 53 18.5 113.5t50.5 112.5q53 87 109 87q61 0 106 -91t45 -211q0 -113 -45 -236.5t-124 -225.5q-64 -83 -152.5 -132.5t-172.5 -49.5q-74 0 -166 58q-39 25 -73 54t-34 38q0 5 5.5 9.5
t12.5 4.5q8 0 23 -5l45 -14q56 -17 80.5 -22t56.5 -5q78 0 154 39q91 46 164 112q66 59 108.5 129t42.5 118q0 13 -4.5 22t-10.5 9zM687 264q-5 48 -24 81q-33 55 -78 55q-23 0 -40.5 -24.5t-17.5 -56.5q0 -67 94 -67q32 0 66 12z" />
    <glyph glyph-name="sf337.001" unicode="&#x624;" horiz-adv-x="859" 
d="M677 149q-6 0 -28 -23q-20 -21 -35.5 -28.5t-38.5 -7.5q-64 0 -100.5 39t-36.5 106q0 53 18.5 113.5t50.5 112.5q53 87 109 87q61 0 106 -91t45 -211q0 -113 -45 -236.5t-124 -225.5q-64 -83 -152.5 -132.5t-172.5 -49.5q-74 0 -166 58q-39 25 -73 54t-34 38q0 5 5.5 9.5
t12.5 4.5q8 0 23 -5l45 -14q56 -17 80.5 -22t56.5 -5q78 0 154 39q91 46 164 112q66 59 108.5 129t42.5 118q0 13 -4.5 22t-10.5 9zM687 264q-5 48 -24 81q-33 55 -78 55q-23 0 -40.5 -24.5t-17.5 -56.5q0 -67 94 -67q32 0 66 12zM385 507q-14 21 -14 39q0 47 46 95
q-71 36 -71 83q0 29 17 63.5t47 64.5q62 65 119 65q32 0 53.5 -14.5t21.5 -35.5q0 -32 -44 -72q-19 24 -30.5 30.5t-32.5 6.5q-27 0 -50 -11q-13 -7 -23.5 -18.5t-10.5 -18.5q0 -8 10.5 -21t22.5 -21q33 -23 80 -23t118 24l30 10l26 9q5 1 21 7q-15 -51 -34 -74.5t-56 -36.5
l-32 -11l-31 -11l-34 -11q-108 -40 -149 -118z" />
    <glyph glyph-name="sf265.001" unicode="&#x6c1;" horiz-adv-x="581" 
d="M167 219q66 -57 140 -57q24 0 57.5 8.5t60.5 21.5v13q0 66 -32 106q-24 29 -58.5 48t-64.5 19q-37 0 -61 -37t-42 -122zM256 0q-59 0 -110 47q-54 50 -54 125q0 94 52 227q64 164 139 164q33 0 71.5 -26t70.5 -71q74 -103 74 -228q0 -72 -20 -135q-8 -26 -23 -37
q-34 -24 -97 -45t-103 -21z" />
    <glyph glyph-name="sf265.002" unicode="&#x6c3;" horiz-adv-x="582" 
d="M157 885q61 -51 105 -77l18 -11q42 53 69 101l4 8q10 -8 13 -10l20 -16q31 -24 66 -45l23 -13q3 -3 16 -10q-48 -50 -88 -129q-55 53 -119 87q-32 -40 -69 -117q-37 39 -107 85l-24 16q-2 1 -11 8q53 64 84 123zM169 221q62 -58 140 -58q24 0 57.5 9t60.5 21v14
q0 66 -32 105q-23 28 -59.5 48t-66.5 20q-66 0 -100 -159zM258 1q-60 0 -110 45q-25 23 -39.5 57.5t-14.5 70.5q0 94 52 227q31 79 66.5 121.5t70.5 42.5q31 0 73 -28.5t72 -70.5q73 -101 73 -226q0 -73 -20 -136q-8 -25 -23 -36q-30 -24 -94.5 -45.5t-105.5 -21.5z" />
    <glyph glyph-name="sf298" unicode="&#x6be;" horiz-adv-x="1016" 
d="M350 296q12 -23 31 -37.5t40.5 -24.5t43 -16.5t38.5 -13.5q7 -2 18 1.5t22 9.5t21.5 13.5t16.5 13.5q1 22 -1.5 50.5t-12 53.5t-27.5 42t-47 17q-23 0 -44 -11.5t-39.5 -28t-33.5 -35.5t-26 -34zM625 190q1 -6 9.5 -13t33.5 -19.5t71 -32.5t123 -53q3 20 -5 50t-23 64
t-34.5 68.5t-40 64.5t-40 52t-34.5 31q-10 -60 -26.5 -110.5t-33.5 -101.5zM943 168q3 -27 -5.5 -65t-25 -78t-38.5 -76.5t-47 -61.5q-34 18 -62 32.5t-60.5 29.5t-75.5 32t-107 40q-20 -13 -42.5 -27.5t-47 -27.5t-51 -23.5t-54.5 -14.5q-65 -12 -124 -12h-129q-4 1 -4 5
q0 5 4 6q42 21 88 45.5t86 47t69 40t37 23.5q-61 55 -61 138q0 55 17 107t47 97t70 81t86 60q2 4 7 18t12 31.5t13.5 36t11.5 32.5q6 16 12 16t19 -7q60 -32 123 -86.5t114.5 -124.5t84.5 -150.5t33 -163.5z" />
    <glyph glyph-name="sf266.002" unicode="&#x621;" horiz-adv-x="677" 
d="M404 394q-20 28 -37.5 38.5t-45.5 10.5q-41 0 -77.5 -20.5t-36.5 -42.5q0 -16 15 -34.5t39 -32.5q42 -25 97 -25q42 0 110.5 18t138.5 47l21 9q-7 -26 -19.5 -54.5t-24.5 -45.5q-17 -22 -38.5 -35.5t-59.5 -25.5l-37 -12q-121 -38 -185.5 -82t-94.5 -108q-20 29 -20 56
q0 30 14 58.5t48 68.5q-57 32 -76 57t-19 68q0 86 87 172q85 84 169 84q39 0 65.5 -22.5t26.5 -55.5q0 -50 -60 -91z" />
    <glyph glyph-name="sf271" unicode="&#x6cc;" horiz-adv-x="1319" 
d="M1199 558q-58 25 -104 25q-43 0 -95.5 -18t-99.5 -49q-144 -95 -144 -188q0 -50 43 -78.5t134 -38.5l50 -5q129 -14 167 -37q43 -28 43 -76q0 -43 -21 -125l-14 -51q-7 -28 -14 -39t-25 -26q-50 -40 -136 -91t-146 -76q-195 -83 -354 -83q-90 0 -156.5 18.5t-120.5 58.5
q-114 84 -114 269q0 73 22 159t59 158q60 118 87 118q15 0 15 -14q0 -10 -23 -58q-47 -96 -62.5 -148t-15.5 -112q0 -152 103 -221q46 -32 101 -45.5t133 -13.5q70 0 175.5 24.5t194.5 61.5q219 91 219 155q0 51 -144 51l-44 1q-42 0 -85.5 12t-75.5 32q-76 48 -76 145
q0 38 10 72.5t34 75.5q48 82 131 173q75 81 146 126.5t124 45.5q59 0 106 -43q0 -61 -27 -145z" />
    <glyph glyph-name="sf271.002" unicode="&#x64a;" horiz-adv-x="1319" 
d="M554 -464q62 -51 106 -77l18 -11q42 54 68 101l5 8q10 -7 13 -10l20 -16q30 -24 66 -45l22 -13q4 -2 16 -10q-47 -50 -88 -129q-55 53 -118 87q-32 -39 -69 -117q-37 39 -107 85l-24 16l-12 8q54 64 84 123zM1199 557q-58 25 -104 25q-43 0 -95.5 -18t-99.5 -49
q-144 -95 -144 -188q0 -50 43 -78.5t134 -38.5l50 -5q129 -14 167 -37q43 -28 43 -76q0 -43 -21 -125l-14 -52q-7 -27 -14 -38t-25 -26q-50 -40 -136 -91t-146 -76q-195 -83 -354 -83q-90 0 -156.5 18.5t-120.5 58.5q-114 84 -114 269q0 72 22 158.5t59 158.5q60 118 87 118
q15 0 15 -14q0 -10 -23 -58q-47 -96 -62.5 -148t-15.5 -112q0 -152 103 -221q46 -32 101 -45.5t133 -13.5q70 0 175.5 24.5t194.5 61.5q219 91 219 155q0 51 -144 51l-44 1q-42 0 -85.5 12t-75.5 32q-76 48 -76 145q0 38 10 72.5t34 75.5q48 82 131 173q75 81 146 126.5
t124 45.5q59 0 106 -43q0 -61 -27 -145z" />
    <glyph glyph-name="afii57414" unicode="&#x626;" horiz-adv-x="1319" 
d="M143 379q-14 20 -14 39q0 47 46 95q-71 36 -71 83q0 29 17 63.5t47 64.5q62 65 120 65q32 0 53 -14.5t21 -35.5q0 -32 -44 -72q-18 24 -30 30.5t-33 6.5q-27 0 -49 -11q-14 -7 -24 -18.5t-10 -18.5q0 -8 10 -21t22 -21q33 -23 81 -23q46 0 117 24l30 10l26 9q5 1 21 7
q-15 -51 -34 -74.5t-56 -36.5l-32 -11l-31 -11l-33 -12q-109 -39 -150 -117zM1199 557q-58 25 -104 25q-43 0 -95.5 -18t-99.5 -49q-144 -96 -144 -188q0 -50 43 -78.5t134 -38.5l50 -5q129 -14 167 -37q43 -28 43 -76q0 -43 -21 -125l-14 -52q-7 -27 -14 -38.5t-25 -25.5
q-50 -40 -136 -91t-146 -77q-195 -82 -354 -82q-90 0 -156.5 18.5t-120.5 57.5q-114 85 -114 270q0 72 22 158.5t59 157.5q60 119 87 119q15 0 15 -14q0 -10 -23 -58q-47 -96 -62.5 -148t-15.5 -113q0 -151 103 -221q46 -31 101 -44.5t133 -13.5q70 0 175.5 24.5t194.5 61.5
q219 91 219 155q0 51 -144 51l-44 1q-42 0 -85.5 12t-75.5 32q-76 48 -76 145q0 38 10 72.5t34 75.5q48 82 131 172q75 82 146 127.5t124 45.5q59 0 106 -43q0 -61 -27 -145z" />
    <glyph glyph-name="sf269" unicode="&#x6d2;" horiz-adv-x="2203" 
d="M496 97q99 0 173 -0.5t134 -0.5t105.5 -0.5t87.5 -0.5q47 0 92.5 1t99.5 3t122.5 5t161.5 8t215.5 12t284.5 16q38 4 80.5 13t80.5 11q-6 -17 -29 -36.5t-53 -40t-62.5 -40.5t-56.5 -36q-1 -1 -8 -5q-37 -5 -117 -12.5t-187.5 -15.5t-236 -16.5t-261.5 -15.5t-264 -11.5
t-244.5 -5.5t-201.5 3t-135 14q-26 6 -52.5 11.5t-52 14.5t-48 23t-39.5 37q-5 6 -10 14t-5 17q0 6 5 14q45 66 83.5 114.5t68.5 81.5t49.5 51.5t27.5 25.5q30 28 66.5 49t76 37.5t79 30.5t75.5 28q51 21 91.5 45t75 55t64.5 71t59 93q20 30 44 35.5t47 -11.5q6 -10 9 -16.5
t10 -26t20 -61.5t39 -123q0 -4 -5.5 -20.5t-14.5 -39t-19.5 -47.5t-21 -45t-19.5 -31.5t-14 -7.5q-20 72 -33 117t-22 69.5t-15.5 33.5t-13.5 9q-12 0 -20.5 -8t-15.5 -18.5t-12.5 -22t-10.5 -18.5q-27 -42 -66.5 -81.5t-87 -72.5t-100.5 -56t-107 -31q-52 -6 -86 -10
t-58.5 -12t-44 -22t-41.5 -39q-4 -4 -1.5 -9t6.5 -9q24 -27 55 -43t65.5 -25t70 -13t68.5 -7z" />
    <glyph glyph-name="sf269.002" unicode="&#x6d3;" horiz-adv-x="2203" 
d="M679 959q7 19 14.5 42t16.5 46t20.5 44t26.5 36q15 13 34 22.5t40 13t42 -0.5t40 -17q0 -6 -4 -18t-9.5 -26t-11.5 -27t-11 -22q-10 -12 -19 -3q-15 12 -32 15t-33.5 -1.5t-31 -14t-26.5 -22.5q4 -18 21.5 -30.5t39 -19.5t43 -10t33.5 -3q33 2 66.5 13t63.5 23q14 5 8 -6
q-12 -21 -24.5 -40.5t-29.5 -44.5q-35 -12 -72.5 -23t-72.5 -25.5t-66 -35.5t-53 -52q-2 -4 -6.5 -4.5t-2.5 5.5q4 29 16 53.5t27 51.5q2 3 -1 7q-18 13 -33 30.5t-13 43.5zM496 97q99 0 173 -0.5t134 -0.5t105.5 -0.5t87.5 -0.5q47 0 92.5 1t99.5 3t122.5 5t161.5 8
t215.5 12t284.5 16q38 4 80.5 13t80.5 11q-6 -17 -29 -36.5t-53 -40t-62.5 -40.5t-56.5 -36q-1 -1 -8 -5q-37 -5 -117 -12.5t-187.5 -15.5t-236 -16.5t-261.5 -15.5t-264 -11.5t-244.5 -5.5t-201.5 3t-135 14q-26 6 -52.5 11.5t-52 14.5t-48 23t-39.5 37q-5 6 -10 14t-5 17
q0 6 5 14q45 66 83.5 114.5t68.5 81.5t49.5 51.5t27.5 25.5q30 28 66.5 49t76 37.5t79 30.5t75.5 28q51 21 91.5 45t75 55t64.5 71t59 93q20 30 44 35.5t47 -11.5q6 -10 9 -16.5t10 -26t20 -61.5t39 -123q0 -4 -5.5 -20.5t-14.5 -39t-19.5 -47.5t-21 -45t-19.5 -31.5
t-14 -7.5q-20 72 -33 117t-22 69.5t-15.5 33.5t-13.5 9q-12 0 -20.5 -8t-15.5 -18.5t-12.5 -22t-10.5 -18.5q-27 -42 -66.5 -81.5t-87 -72.5t-100.5 -56t-107 -31q-52 -6 -86 -10t-58.5 -12t-44 -22t-41.5 -39q-4 -4 -1.5 -9t6.5 -9q24 -27 55 -43t65.5 -25t70 -13t68.5 -7z
" />
    <glyph glyph-name="glyph73" horiz-adv-x="893" 
d="M386 292q20 0 62 26q34 22 34 44q0 40 -24 77.5t-50 37.5q-34 0 -89 -47q-20 -17 -36 -39t-16 -31q0 -10 9.5 -18t40.5 -23q54 -27 69 -27zM502 269q55 -25 126 -45.5t106 -20.5q21 0 21 15q0 16 -22.5 49.5t-58.5 70.5q-43 44 -75.5 72t-42.5 28q-16 0 -16 -29l-1 -12
q0 -36 -16 -78l-6 -16l-7 -16q-2 -5 -8 -18zM279 573q33 155 102 155q42 0 127 -57q136 -92 219.5 -211.5t83.5 -222.5q0 -73 -30 -113.5t-85 -40.5q-52 0 -134 36l-54 23q-72 31 -123 31q-22 0 -38.5 -8.5t-45.5 -34.5q-49 -45 -77.5 -64.5t-71.5 -38.5q-64 -27 -137 -27
q-39 0 -56.5 8.5t-17.5 26.5v94v4l1 4q7 18 38 18l21 1l37 1q74 0 129.5 13t83.5 37q-24 25 -32 43.5t-8 43.5q0 54 38 124t98 126l-3 4q-24 16 -65 25z" />
    <glyph glyph-name="sf325.001" horiz-adv-x="1280" 
d="M951 718h-6q-7 -32 -14 -69l-10 -52q-8 -42 -11 -54l-14 -62l-12 -54q-29 -123 -64 -202t-92 -150t-123.5 -109.5t-171.5 -61.5q-124 -26 -178 -26q-16 0 -27 4.5t-11 11.5q0 13 72 46l47 21l44 19q153 69 270 166q57 47 88 88.5t31 70.5q0 25 -18.5 64t-50.5 81
q-94 125 -206 212q-86 66 -122 66q-10 0 -18 -14l-8 -13l-8 -16q-10 -16 -20 -16q-7 0 -18 5l-26 13l-35 17q-101 49 -124 80q-15 20 -19 51.5t-4 129.5q0 38 10 58.5t30 20.5q41 0 179 -82q101 -60 191 -138q82 -72 134 -128.5t91 -116.5q34 -53 52 -92.5t34 -94.5
q32 91 61 253q25 141 25 315v53q0 45 -4 89l70 120q8 -164 27 -312.5t58 -360.5q32 -173 59.5 -253t66.5 -110q37 -30 123 -30q31 0 38 -18l1 -4q1 -2 1 -4v-94q0 -13 -12 -23q-9 -7 -23 -9.5t-48 -2.5q-64 0 -108 18t-71 55q-21 29 -45 119t-40 200l-11 76l-11 76
q-6 41 -16 137z" />
    <glyph glyph-name="sf268.001" horiz-adv-x="432" 
d="M37 1373q11 0 48 -10q46 -13 98 -13q90 0 173.5 31.5t118.5 77.5q7 9 11 9l3 -1q2 -2 2 -6q0 -20 -18 -54.5t-41 -56.5q-47 -46 -135.5 -76.5t-174.5 -30.5q-33 0 -74 6l-26 5q-10 1 -16 1q-33 0 -86 -50q-6 -5 -9 -5q-7 0 -7 14q0 32 31 84q22 35 49 55t53 20zM140 1065
l113 127q-6 -68 -6 -143q0 -93 12 -233l7 -72l6 -72l7 -68q20 -213 20 -343q0 -110 -17 -184q-9 -41 -22.5 -66t-27.5 -25q-8 0 -13.5 9t-5.5 22q0 6 3 33q3 39 3 66q0 83 -16 215l-8 68q-2 20 -8 68l-8 73q-4 40 -8 87l-9 90q-5 57 -7 79l-4 69l-5 67q-3 51 -3 63l-2 44z
" />
    <glyph glyph-name="sf308" unicode="&#x61f;" horiz-adv-x="882" 
d="M450 298q18 41 18 82q0 49 -22.5 86t-95.5 107q-67 65 -96 97.5t-53 71.5q-46 77 -46 165q0 147 95 252.5t227 105.5q65 0 122.5 -26.5t97.5 -75.5q27 -33 43.5 -75.5t16.5 -77.5q0 -76 -45.5 -133.5t-106.5 -57.5q-41 0 -69.5 29.5t-28.5 71.5q0 45 29 75.5t71 30.5
q28 0 58 -9q12 -3 19 -3q17 0 17 19q0 17 -15 45t-36 51q-60 67 -143 67q-84 0 -138 -60q-47 -54 -47 -138q0 -52 23 -108q15 -38 73 -131q69 -109 92.5 -170.5t23.5 -129.5q0 -83 -25 -165q0 -2 -2 -7zM571 88q0 -41 -29.5 -70.5t-70.5 -29.5q-42 0 -71.5 29.5t-29.5 71.5
t29.5 71t70.5 29q43 0 72 -29t29 -72z" />
    <glyph glyph-name="sf333" unicode="&#x61b;" horiz-adv-x="590" 
d="M415 88q0 -41 -29 -69.5t-69 -28.5q-41 0 -70 29t-29 70q0 40 29 69t69 29q42 0 70.5 -29t28.5 -70zM256 538q30 22 47.5 29.5t39.5 7.5q50 0 85 -38t35 -92q0 -58 -35.5 -93.5t-92.5 -35.5q-85 0 -148 86t-63 203q0 57 25 122.5t70 125.5q64 85 98 85q8 0 13.5 -5.5
t5.5 -14.5q0 -6 -5 -13t-28 -34q-42 -49 -65.5 -102.5t-23.5 -103.5q0 -31 11.5 -66t30.5 -61z" />
    <glyph glyph-name="sf272" unicode=":" horiz-adv-x="590" 
d="M388 784q0 -40 -28.5 -68.5t-69.5 -28.5t-69.5 28.5t-28.5 69.5t28.5 70t69.5 29t69.5 -29t28.5 -71zM388 88q0 -40 -29 -69t-70 -29t-69.5 29t-28.5 70q0 40 28.5 69t69.5 29t70 -29t29 -70z" />
    <glyph glyph-name="sf273" unicode="," horiz-adv-x="421" 
d="M346 10q11 -53 -4 -109.5t-46 -110.5t-73 -103t-85 -88q-14 -10 -27 -16t-19 -4q-7 1 -4.5 10t19.5 30q22 28 45 54.5t42.5 54.5t34.5 58.5t21 67.5q1 14 0.5 31.5t-5.5 33.5t-15 26.5t-28 10.5q-9 -6 -19.5 -22.5t-21.5 -34.5t-22.5 -32t-21.5 -14q-11 1 -19.5 14
t-15 29.5t-9.5 33.5t-2 26q2 23 20 49t40 57q27 30 59.5 39.5t63.5 1t56 -32.5t36 -60z" />
    <glyph glyph-name="sf275" horiz-adv-x="645" 
d="M419 87q0 -41 -29.5 -70t-71.5 -29q-41 0 -70.5 29.5t-29.5 70.5q0 42 29.5 71.5t70.5 29.5q42 0 71.5 -29.5t29.5 -72.5zM291 279q0 109 -9 194l-6 49l-5 44q-1 11 -7 53l-7 43q-4 28 -15 92l-14 81q-22 132 -22 204q0 111 28.5 169.5t82.5 58.5t82.5 -58.5t28.5 -169.5
q0 -72 -23 -204l-14 -81q-10 -64 -14 -92l-7 -43q-6 -42 -7 -53l-5 -44l-6 -49q-9 -85 -9 -194h-52z" />
    <glyph glyph-name="sf257" unicode="%" horiz-adv-x="1024" 
d="M220 -132l561 1467l86 -34l-560 -1467zM939 52q0 -41 -29.5 -70.5t-70.5 -29.5q-42 0 -71.5 29.5t-29.5 71.5q0 41 29.5 70.5t70.5 29.5q43 0 72 -29.5t29 -71.5zM321 1135q0 -40 -29.5 -69.5t-70.5 -29.5q-42 0 -71.5 29.5t-29.5 71.5q0 41 29.5 70.5t70.5 29.5
q43 0 72 -29.5t29 -72.5z" />
    <glyph glyph-name="sf258.001" unicode="*" horiz-adv-x="1130" 
d="M483 522l-13 -11q-130 36 -205 92.5t-75 119.5q0 33 24.5 56.5t58.5 23.5q87 0 162 -147q39 -77 48 -134zM570 522q37 0 62.5 -28t25.5 -69q0 -38 -25 -63t-64 -25q-41 0 -67.5 26.5t-26.5 67.5q0 38 27.5 64.5t67.5 26.5zM559 554q-39 73 -60.5 138t-21.5 112
q0 57 23.5 88.5t67.5 31.5q43 0 66.5 -31.5t23.5 -88.5q0 -47 -21.5 -112t-60.5 -138h-17zM654 521q5 35 24.5 83t47.5 93q31 51 66 78t68 27q36 0 61.5 -23.5t25.5 -57.5q0 -83 -128 -151q-85 -46 -153 -59zM648 328l12 10q67 -13 153 -58q127 -69 127 -152
q0 -34 -25.5 -57.5t-60.5 -23.5q-34 0 -69 27.5t-66 77.5q-28 45 -47.5 94t-23.5 82zM486 330q-4 -33 -24 -81.5t-48 -94.5q-31 -49 -66 -76.5t-69 -27.5q-36 0 -61 23.5t-25 57.5q0 83 128 151q85 46 153 58zM557 296h17q39 -73 60.5 -138.5t21.5 -111.5q0 -58 -23.5 -89.5
t-67.5 -31.5q-43 0 -66.5 31.5t-23.5 89.5q0 46 21.5 111.5t60.5 138.5zM438 421q-73 -39 -138 -60.5t-112 -21.5q-57 0 -88.5 23.5t-31.5 66.5t31.5 67t88.5 24q47 0 112 -21.5t138 -60.5v-17zM692 432q73 39 138.5 60.5t111.5 21.5q58 0 89.5 -24t31.5 -67t-31.5 -66.5
t-89.5 -23.5q-46 0 -111.5 21.5t-138.5 60.5v17z" />
    <glyph glyph-name="sf258.001" unicode="&#x66d;" horiz-adv-x="1130" 
d="M483 522l-13 -11q-130 36 -205 92.5t-75 119.5q0 33 24.5 56.5t58.5 23.5q87 0 162 -147q39 -77 48 -134zM570 522q37 0 62.5 -28t25.5 -69q0 -38 -25 -63t-64 -25q-41 0 -67.5 26.5t-26.5 67.5q0 38 27.5 64.5t67.5 26.5zM559 554q-39 73 -60.5 138t-21.5 112
q0 57 23.5 88.5t67.5 31.5q43 0 66.5 -31.5t23.5 -88.5q0 -47 -21.5 -112t-60.5 -138h-17zM654 521q5 35 24.5 83t47.5 93q31 51 66 78t68 27q36 0 61.5 -23.5t25.5 -57.5q0 -83 -128 -151q-85 -46 -153 -59zM648 328l12 10q67 -13 153 -58q127 -69 127 -152
q0 -34 -25.5 -57.5t-60.5 -23.5q-34 0 -69 27.5t-66 77.5q-28 45 -47.5 94t-23.5 82zM486 330q-4 -33 -24 -81.5t-48 -94.5q-31 -49 -66 -76.5t-69 -27.5q-36 0 -61 23.5t-25 57.5q0 83 128 151q85 46 153 58zM557 296h17q39 -73 60.5 -138.5t21.5 -111.5q0 -58 -23.5 -89.5
t-67.5 -31.5q-43 0 -66.5 31.5t-23.5 89.5q0 46 21.5 111.5t60.5 138.5zM438 421q-73 -39 -138 -60.5t-112 -21.5q-57 0 -88.5 23.5t-31.5 66.5t31.5 67t88.5 24q47 0 112 -21.5t138 -60.5v-17zM692 432q73 39 138.5 60.5t111.5 21.5q58 0 89.5 -24t31.5 -67t-31.5 -66.5
t-89.5 -23.5q-46 0 -111.5 21.5t-138.5 60.5v17z" />
    <glyph glyph-name="sf259.001" unicode="@" horiz-adv-x="1325" 
d="M753 254q2 37 2.5 73.5t0.5 75.5q0 33 -0.5 66t-0.5 65v44q0 12 -0.5 23t-0.5 23v2q-3 25 -14 43.5t-27.5 30.5t-36.5 18.5t-41 6.5q-22 0 -43.5 -7t-38.5 -20.5t-27.5 -34t-11.5 -46.5v-43q0 -10 -0.5 -21t-0.5 -23q-1 -23 -1 -48v-49v-92q0 -23 0.5 -43t1.5 -38
q1 -27 12 -47t28 -33.5t37.5 -20t41.5 -6.5t41.5 6.5t37.5 19t28 31.5t13 44zM1216 853q8 -17 14 -49t10.5 -75.5t6.5 -94.5t2 -107q0 -53 -2 -107.5t-6.5 -107t-11.5 -102t-16 -91.5q-14 -40 -33.5 -77t-46.5 -67.5t-61.5 -53t-79.5 -33.5q-24 -6 -54 -6q-32 0 -62.5 8.5
t-55.5 27t-43.5 46t-25.5 63.5l-3 4l-7 2l-4 -1q-32 -29 -72.5 -45t-83.5 -16q-64 0 -116 33q-30 17 -55 42.5t-43.5 56t-30.5 64.5t-16 69q-2 44 -2 85v85v84q0 41 1 83v58q4 45 19 87t41 77.5t61 62t78 39.5h1q15 6 30.5 8t31.5 2q45 0 87 -17t75 -48h5l7 4l2 3v17
q0 1 -0.5 4t-0.5 4v30h92q9 0 17.5 -0.5t17.5 -0.5h51q2 -67 2.5 -128.5t0.5 -126.5v-46v-45v-256v-83v-83q3 -51 28.5 -74.5t58.5 -23.5q21 0 41.5 8.5t38.5 24.5t31 39.5t17 53.5q11 82 16 168t5 175q0 128 -11 250v2q-10 48 -33.5 95.5t-57.5 86t-78 65.5t-97 35h-1
q-26 0 -52 0.5t-52 1.5h-24h-25q-36 1 -71.5 1.5t-70.5 0.5q-50 0 -99 -1t-98 -6h-2q-48 -10 -85 -36t-65 -63t-48.5 -81.5t-33.5 -92.5q-10 -73 -13.5 -146.5t-3.5 -148.5q0 -56 1.5 -112t2.5 -111q1 -17 1 -33t1 -32q1 -15 1.5 -30.5t0.5 -30.5q3 -46 14.5 -97.5t34 -96
t57.5 -77.5t86 -43h2q111 -10 219 -17t219 -7q70 0 137 3.5t134 10.5q41 6 69.5 30t51.5 53q4 -2 8.5 -3t9.5 -3l12 -3v-1q13 -6 24.5 -10t16.5 -9q-13 -24 -31 -46.5t-40 -42t-48.5 -34t-56.5 -20.5q-14 -1 -28 -1q-13 0 -27 -1q-9 0 -17.5 -0.5t-17.5 -0.5q-14 -1 -27 -1
t-28 -1q-60 -1 -122.5 -2.5t-124.5 -1.5q-97 0 -193 5t-193 19q-60 22 -103 68t-71 105t-41.5 124t-14.5 125q2 30 2.5 61.5t0.5 64.5v44v23v23v28t-1 26q0 13 -1 26t-1 26q0 82 2.5 160.5t9.5 159.5q13 66 39.5 124t66.5 103.5t93 76t119 41.5q29 1 57.5 1.5t57.5 0.5
q33 0 66.5 -0.5t66.5 -1.5q17 0 33.5 -0.5t33.5 -0.5q49 0 98 -0.5t98 -0.5q56 -6 104 -31t86.5 -62.5t67.5 -84.5t46 -98z" />
    <glyph glyph-name="sf260.002" unicode="[" horiz-adv-x="678" 
d="M103 -144v1426h443v-94h-296v-1237h297v-95h-444z" />
    <glyph glyph-name="sf262.001" horiz-adv-x="1025" 
d="M119 431v93h787v-93h-787zM611 749q0 -40 -29 -68.5t-69 -28.5q-41 0 -70 28.5t-29 69.5t29 69.5t70 28.5t69.5 -28.5t28.5 -70.5zM611 204q0 -40 -29 -68.5t-69 -28.5q-41 0 -70 28.5t-29 69.5t29 70t70 29t69.5 -29t28.5 -71z" />
    <glyph glyph-name="sf263.001" unicode="$" horiz-adv-x="1025" 
d="M473 148v391q-136 77 -195.5 151t-59.5 167q0 121 78 212q34 40 74.5 63.5t102.5 37.5v89h94v-92q109 -18 178 -84l20 -180q-43 40 -90 64t-108 39v-338q127 -71 186 -152t59 -183q0 -57 -20.5 -115t-56.5 -102q-29 -36 -66 -61t-102 -53v-88h-94v72q-79 10 -129 29
t-119 66l-29 202q82 -64 142 -93.5t135 -41.5zM567 157q43 13 81 39q56 40 56 99q0 49 -41 102q-20 26 -36.5 40.5t-59.5 43.5v-324zM473 708v304q-61 -3 -104 -40.5t-43 -86.5q0 -42 29 -80t97 -83z" />
    <glyph glyph-name="sf264.001" unicode="=" horiz-adv-x="1025" 
d="M118 656h789v-91h-789v91zM118 386h789v-92h-789v92z" />
    <glyph glyph-name="sf268.002" unicode="-" horiz-adv-x="1025" 
d="M119 524h787v-96h-787v96z" />
    <glyph glyph-name="sf269.001" horiz-adv-x="1024" 
d="M515 551l346 346l66 -67l-348 -348l346 -347l-66 -66l-345 348l-351 -347l-66 66l349 348l-347 348l69 67z" />
    <glyph glyph-name="sf270.005" unicode="(" horiz-adv-x="677" 
d="M520 -156q-98 79 -160 144.5t-115 144.5q-138 207 -138 431q0 101 29.5 203.5t86.5 196.5q48 81 131 167t186 162l44 -40l-16 -18q-75 -84 -124 -155.5t-89 -152.5q-45 -92 -69 -185.5t-24 -176.5q0 -96 28 -207q20 -80 61.5 -165.5t95.5 -160.5q66 -91 120 -148z" />
    <glyph glyph-name="sf271.001" unicode="+" horiz-adv-x="1024" 
d="M559 525h347v-95h-347v-349h-95v349h-345v95h345v347l95 -1v-346z" />
    <glyph glyph-name="sf273.001" unicode="/" horiz-adv-x="1024" 
d="M486 -281l-90 28l506 1630l84 -30z" />
    <glyph glyph-name="sf274.001" unicode="&#x640;" horiz-adv-x="571" 
d="M2 155h569q32 0 43 -3t15 -15l1 -4q1 -2 1 -4v-94q0 -16 -16 -25.5t-44 -9.5h-574q-23 0 -39.5 10.5t-16.5 25.5v94v4l1 5q7 17 27 17z" />
    <glyph glyph-name="sf264.002.24428116" unicode="#" horiz-adv-x="1422" 
d="M526 295l5 -5h294l5 5l26 290l-5 5h-296l-5 -5zM369 290l5 5l26 290l-5 5h-325v150h338l5 5l30 330l149 -14l-29 -316l5 -5h296l5 5l31 336l148 -13l-27 -323l5 -5h315v-150h-332l-5 -5l-22 -290l5 -5h354v-148h-368l-5 -5l-31 -343l-151 14l31 329l-5 5h-295l-5 -5
l-32 -352l-149 14l30 338l-6 5h-285v148h299z" />
    <glyph glyph-name="sf270.008" unicode=")" horiz-adv-x="677" 
d="M171 -155l-46 41q53 56 119 148q54 74 95.5 160t61.5 166q28 110 28 207q0 82 -24 176t-69 186q-40 81 -89 152t-124 156l-16 18l44 39q103 -76 186 -161.5t131 -166.5q57 -94 86.5 -197t29.5 -203q0 -224 -138 -432q-52 -78 -114.5 -143.5t-160.5 -145.5z" />
    <glyph glyph-name="sf260.003" unicode="]" horiz-adv-x="678" 
d="M574 -144h-443v95h297v1237h-296v94h442v-1426z" />
    <glyph glyph-name="a" unicode="a" horiz-adv-x="1001" 
d="M728 224q0 27 -1 53t-6 55q-5 38 -26.5 68.5t-52 51.5t-66.5 32t-71 11q-37 0 -70.5 -12.5t-61.5 -33.5t-50 -49.5t-35 -61.5q-9 -22 -12.5 -48t-3.5 -55q0 -34 4 -65t11 -56q10 -35 31.5 -64t50 -50t63 -32.5t70.5 -11.5q39 0 76 11t67.5 33t51.5 54t29 73v11
q1 22 1.5 43t0.5 43zM469 669q52 0 100 -17t86 -52l8 -8v-1q2 -2 2.5 -3t2.5 -3q11 -11 22.5 -22t16.5 -13l5 1l13 9l2 4v105h174v-888h-174v101l-3 5l-18 7l-6 -2q-41 -50 -95 -80.5t-120 -30.5q-68 0 -129.5 24.5t-111.5 66.5t-85.5 98.5t-50.5 120.5v2q-2 6 -3.5 18
t-2.5 35.5t-1.5 62t-0.5 98.5q0 69 32 134t84.5 115.5t118.5 81.5t134 31z" />
    <glyph glyph-name="b" unicode="b" horiz-adv-x="1000" 
d="M273 227q0 -26 1 -53t6 -54q6 -39 27 -69.5t51 -51.5t66 -32t72 -11q37 0 70.5 12t62 33.5t50 50t34.5 61.5q9 21 12.5 48t3.5 56q0 33 -4 64t-11 56q-10 36 -31 65t-49.5 49.5t-62.5 32t-70 11.5q-39 0 -76.5 -11.5t-68.5 -33t-52.5 -53.5t-28.5 -73v-17
q-1 -20 -1.5 -40t-0.5 -40zM532 -219q-105 0 -188 69l-10 11v1l-1 1q-4 4 -8.5 8l-4.5 4q-9 10 -17 18t-15 8l-4 -2l-10 -11l-1 -3v-104h-173v1362h173v-575l3 -5l18 -6l6 2q41 50 95.5 80.5t120.5 30.5q68 0 129.5 -25t111.5 -68t85.5 -100t52.5 -121q1 -5 1.5 -16
t1.5 -34.5t1.5 -62.5t0.5 -100q0 -69 -32 -134t-84 -115.5t-118 -81.5t-134 -31z" />
    <glyph glyph-name="c" unicode="c" horiz-adv-x="950" 
d="M75 228q0 53 7 102.5t27 97.5q23 55 62 100t88 76t106 48t117 17q71 0 138.5 -20.5t122 -59.5t91.5 -94.5t46 -124.5h-186q-26 59 -82.5 93t-123.5 34h-8q-35 -1 -69.5 -12.5t-64 -32t-51 -49.5t-30.5 -65q-6 -25 -10 -54t-4 -61q0 -59 14 -104l5 -4h-3q12 -36 33 -66
t49.5 -51t63.5 -33t74 -12q63 0 116.5 25t76.5 82l185 -1q-11 -59 -41.5 -108t-74.5 -85.5t-99.5 -58.5t-116.5 -26q-37 0 -63 1.5t-43.5 3t-27.5 3.5t-14 3q-50 12 -96 37.5t-84.5 61t-67 79.5t-41.5 94q-12 44 -16.5 83t-4.5 81z" />
    <glyph glyph-name="sf256.002" unicode="d" horiz-adv-x="953" 
d="M484 -44q36 0 72 11t66.5 32t51.5 51t26 69q5 28 6 55t1 53q0 20 -0.5 40t-1.5 40v17q-7 41 -28.5 73t-52.5 53.5t-68 33t-75 11.5q-36 0 -70.5 -11.5t-63 -32.5t-50 -50t-31.5 -64q-7 -25 -11 -56t-4 -64q0 -29 3.5 -56t12.5 -48q13 -33 35 -61.5t50 -50t61.5 -33.5
t70.5 -12zM448 -219q-68 0 -134 31t-118 81.5t-84 115.5t-32 134v100q0 80 28.5 157t79.5 137t121.5 96.5t154.5 36.5q66 0 120 -30t96 -81l6 -2l18 6l3 5v575h173v-1362h-173v104l-1 3l-10 11l-4 2q-26 -26 -53.5 -48t-57.5 -38.5t-63 -25.5t-70 -8z" />
    <glyph glyph-name="e" unicode="e" horiz-adv-x="985" 
d="M481 500q-37 0 -73.5 -12.5t-66 -35t-50 -54t-25.5 -69.5l1 -4l10 -12l4 -2h404l4 2l10 11l1 3q0 43 -19.5 75.5t-50 54.5t-69 32.5t-75.5 10.5h-5zM82 239q0 42 4 81t18 77h-3l5 4q18 60 56 110.5t88.5 86.5t110.5 56t123 20q118 0 214 -55t154 -160q11 -21 22 -50.5
t11 -54.5v-155h-617q0 -47 16.5 -91t46.5 -78t71.5 -54t92.5 -20q68 0 120 16t89 68h168q-13 -63 -49.5 -111.5t-88.5 -81t-115 -49.5t-128 -17q-64 0 -124 19.5t-110 54.5t-88.5 85t-59.5 111v1q-17 45 -22 92t-5 95z" />
    <glyph glyph-name="f" unicode="f" horiz-adv-x="647" 
d="M40 551v124h165l4 2l10 11l1 3v10q0 2 0.5 5t0.5 6q2 54 6.5 106t23.5 105q78 208 301 208h9t19 0.5t22.5 1.5t19.5 2v-176q-12 5 -33 6.5t-45 1.5q-29 0 -55 -15t-45.5 -38t-31 -52t-11.5 -57v-114l1 -3l10 -11l4 -2h206v-124h-221v-770h-176l-1 770h-184z" />
    <glyph glyph-name="g" unicode="g" horiz-adv-x="924" 
d="M661 330q-5 39 -26.5 69.5t-52 51.5t-67 32t-70.5 11q-36 0 -70 -12.5t-62.5 -33.5t-50.5 -49.5t-35 -60.5q-9 -22 -12.5 -48t-3.5 -55q0 -34 4 -65.5t11 -56.5q10 -35 31.5 -64t50 -50t63 -32.5t70.5 -11.5q39 0 76.5 11t67.5 33t51.5 54t29.5 73v11q1 21 1.5 41.5
t0.5 40.5q0 29 -1.5 55t-5.5 56zM408 668q64 3 115.5 -24t94.5 -70q8 -10 17 -17.5t17 -7.5l4 1l10 10l1 4v104h174l3 -1021v-1q0 -68 -37 -129t-94.5 -108t-128 -74.5t-137.5 -27.5q-68 0 -133.5 21.5t-119 60.5t-91 93t-49.5 119h182q10 -32 33 -54.5t52.5 -37t63.5 -21
t67 -6.5h22q36 7 71 23.5t62.5 41.5t44 58t16.5 74l-1 202l-3 5l-18 7l-6 -2q-42 -51 -96 -81t-120 -30q-67 0 -128.5 24.5t-111.5 66.5t-85.5 98.5t-50.5 120.5l-1 3l-1 1q-3 7 -4.5 30t-1.5 82v100q0 69 32 134.5t84 116t118 81t134 30.5z" />
    <glyph glyph-name="h" unicode="h" horiz-adv-x="989" 
d="M280 558l4 -5l19 -5l5 2q32 55 88 84t117 29q64 0 125.5 -21.5t113 -59.5t89 -91t54.5 -116q10 -40 12 -75t2 -76v-442h-179v497q0 43 -19 81t-50.5 66.5t-71 45.5t-79.5 17q-39 0 -79.5 -15.5t-73.5 -42.5t-54 -64.5t-21 -82.5v-503l-179 1l-1 1364h178v-588z" />
    <glyph glyph-name="i" unicode="i" horiz-adv-x="407" 
d="M102 943q0 23 9 43t24 34.5t35.5 22.5t43.5 8t43.5 -8t36 -22.5t24.5 -34t9 -42.5t-9 -43.5t-24 -35.5t-35 -24t-43 -9q-24 0 -44.5 8.5t-36 23.5t-24.5 35.5t-9 43.5zM303 680l1 -899h-174v899h173z" />
    <glyph glyph-name="j" unicode="j" horiz-adv-x="551" 
d="M217 945q1 24 11.5 43.5t27 33.5t37.5 22t44 8q22 0 43 -8.5t36.5 -23.5t25 -35t9.5 -43q0 -24 -9 -43.5t-24.5 -34t-36 -22.5t-43.5 -8t-44.5 7.5t-38.5 21.5t-27.5 33.5t-10.5 43.5v5zM19 -689q-37 0 -71 5t-60 19q17 30 33.5 58t29 49t19.5 33.5l7 12.5q9 0 23 -2
t26 -2q38 0 74.5 12t66.5 34.5t51.5 54.5t30.5 71v3q-1 120 -1.5 246t-0.5 244q0 138 -0.5 268t-1.5 269h183v-988q-3 -80 -36.5 -150t-88.5 -123t-128.5 -83.5t-155.5 -30.5z" />
    <glyph glyph-name="k" unicode="k" horiz-adv-x="939" 
d="M274 1145l3 -775l3 -5l18 -8l6 3l401 469h171l-413 -517l-1 -3v-12l1 -3l407 -513h-183l-384 447l-6 2l-18 -7l-3 -5l-2 -437l-173 1l-1 1364z" />
    <glyph glyph-name="l" unicode="l" horiz-adv-x="375" 
d="M100 1146h175v-1365h-175v1365z" />
    <glyph glyph-name="m" unicode="m" horiz-adv-x="1516" 
d="M100 659h172v-125l3 -5l18 -6l6 2q42 59 93.5 94t126.5 35q42 0 83.5 -14t77.5 -38t65 -57t47 -71l5 -3l18 -1l4 3q21 37 47.5 70.5t59.5 59t72.5 40t85.5 14.5q68 0 126 -29.5t101.5 -77.5t70 -109t32.5 -125q1 -34 1.5 -67.5t0.5 -68.5v-399h-173v507q0 41 -16.5 77.5
t-44.5 64t-65.5 43.5t-78.5 16q-37 0 -72 -15t-62.5 -40.5t-44 -59.5t-16.5 -72v-520l-170 -1v524q0 39 -18.5 72t-47.5 57t-65 37.5t-72 13.5q-34 0 -69 -13t-63.5 -36t-47 -55.5t-18.5 -71.5v-528h-172v878z" />
    <glyph glyph-name="n" unicode="n" horiz-adv-x="999" 
d="M275 669v-104l4 -5l19 -5l5 3q31 54 83.5 82.5t114.5 28.5q78 0 146 -28t120.5 -76.5t86 -115t43.5 -143.5q1 -36 1.5 -74t0.5 -80v-371h-173l-2 523v3q-8 39 -29 73.5t-51.5 60t-68 40t-78.5 14.5q-40 0 -80 -16t-71.5 -43.5t-51 -65.5t-19.5 -82l-1 -507h-174v888h175z
" />
    <glyph glyph-name="o" unicode="o" horiz-adv-x="971" 
d="M704 339q-11 36 -33 65.5t-51 50.5t-64 32.5t-72 11.5q-59 0 -101.5 -23.5t-71 -61.5t-42 -86.5t-13.5 -99.5q0 -36 6 -69q6 -44 24 -81.5t46.5 -64.5t67 -42t85.5 -15q60 0 103.5 23t72.5 61.5t43 88.5t14 103q0 29 -3.5 55t-10.5 52zM80 227q0 48 6.5 95t23.5 92
q22 58 60 106t86.5 82t107 53t121.5 19q76 0 147 -28.5t126.5 -78t91 -117.5t40.5 -146q1 -8 1 -16v-16v-32q0 -44 -4 -87.5t-16 -90.5q-17 -61 -55.5 -112.5t-91.5 -89t-115 -58.5t-125 -21q-64 0 -123 19t-109 54.5t-88 86t-59 112.5q-14 42 -19.5 85t-5.5 89z" />
    <glyph glyph-name="q" unicode="q" horiz-adv-x="970" 
d="M690 330q-5 39 -26.5 69.5t-52 51.5t-67 32t-71.5 11q-36 0 -70 -12.5t-62.5 -33.5t-50 -49.5t-34.5 -60.5q-9 -22 -12.5 -48.5t-3.5 -55.5q0 -33 4 -64.5t11 -55.5q9 -36 30.5 -65.5t50 -50t63.5 -32t71 -11.5q39 0 76 11.5t68 33.5t52 54t29 73v11q1 21 1.5 41.5
t0.5 40.5q0 29 -1.5 54.5t-5.5 55.5zM437 669q52 0 98.5 -18t88.5 -53l11 -11q3 -3 6 -6.5t6 -6.5q8 -10 17 -17.5t17 -7.5l4 1l10 10l1 4v105h173l1 -1362h-174v575l-3 5l-18 7l-6 -2q-41 -50 -95.5 -81t-120.5 -31q-68 0 -129.5 25t-111 67.5t-85 99t-51.5 120.5l-5 4h2
q-1 4 -2 14.5t-1.5 34t-0.5 62.5v99q0 70 32 135t84 115t118 81t134 32z" />
    <glyph glyph-name="p" unicode="p" horiz-adv-x="1001" 
d="M497 495q-35 0 -71.5 -11t-67 -32t-52 -51.5t-26.5 -69.5q-5 -28 -6 -54t-1 -53q0 -22 0.5 -43t1.5 -43v-11q7 -41 28.5 -73t52.5 -54t68.5 -33t76.5 -11q36 0 70.5 11t63 32t49.5 50t31 65q7 25 11 56t4 65q0 29 -3.5 55.5t-12.5 48.5q-13 32 -34.5 60.5t-50 49.5
t-62.5 33.5t-70 12.5zM533 669q68 0 134 -30.5t118 -81t84 -116t32 -134.5q0 -62 -0.5 -100.5t-1.5 -62t-2 -34t-2 -16.5q-17 -64 -52.5 -121t-85 -100t-111 -68t-129.5 -25q-66 0 -120.5 31t-95.5 81l-6 2l-18 -7l-3 -5v-575h-174l1 1362h173v-105l3 -5l17 -7l6 1l14 14
l11 11l11 11q3 3 4.5 5.5t3.5 4.5q42 35 89.5 52.5t99.5 17.5z" />
    <glyph glyph-name="r" unicode="r" horiz-adv-x="767" 
d="M661 472q-74 -6 -143 -28t-122 -62.5t-85 -102t-32 -146.5v-352h-178l-1 896h180l-1 -243l4 -5l19 -5l5 2q33 55 77.5 98t96 73.5t109 49.5t117.5 27z" />
    <glyph glyph-name="s" unicode="s" horiz-adv-x="848" 
d="M61 71q19 0 45 0.5t53 1t51 0.5h40q9 -39 36.5 -67t64.5 -43.5t79 -18t79 9t65.5 37.5t38.5 67q0 20 -11.5 35t-28.5 27q-53 23 -109.5 34.5t-113 22t-111.5 25.5t-106 45q-31 21 -47.5 54t-20.5 70t5.5 74.5t31.5 66.5q25 40 59.5 70.5t75 51t86 31t92.5 10.5
q51 0 100.5 -12t93.5 -35.5t80.5 -58t62.5 -78.5q13 -24 24.5 -49.5t13.5 -54.5q-14 0 -38.5 -0.5t-52.5 -0.5h-53h-44q-9 40 -37 67.5t-65.5 43t-79.5 17t-79.5 -11t-66 -39.5t-37.5 -70q0 -22 15 -36.5t35 -22.5q53 -17 111 -28t115 -25.5t110 -38t95 -65.5
q22 -24 37 -52.5t23 -63.5q4 -63 -27.5 -115.5t-81.5 -89t-112 -56t-119 -17.5q-56 0 -109.5 14t-100 41.5t-83.5 67.5t-60 91l-15 35t-9 39z" />
    <glyph glyph-name="t" unicode="t" horiz-adv-x="749" 
d="M556 -219q-69 0 -119 26t-84 70t-52.5 101.5t-24.5 120.5q-1 63 -1.5 124.5t-0.5 124.5t-0.5 122t-2.5 125h-211v125h198l4 1l10 10l1 4v225l179 1v-224l1 -4l10 -10l4 -1h216v-127h-230l-1 -450q0 -46 10 -83t31.5 -63.5t56 -41t82.5 -14.5q21 0 33 2t23 4l1 -139
q-33 -11 -66 -20t-67 -9v0z" />
    <glyph glyph-name="u" unicode="u" horiz-adv-x="998" 
d="M723 -219l1 103l-3 5l-19 6l-6 -2q-31 -52 -83 -82t-112 -30h-4q-78 0 -146 28t-120 77t-85.5 115t-43.5 143q0 15 -0.5 31t-1 35t-0.5 42v52v365l173 -1l1 -522v-3q8 -39 29 -73t52 -59.5t68.5 -40t78.5 -14.5t80.5 16t71 43.5t50.5 65t19 81.5l1 506h174v-887h-175z
" />
    <glyph glyph-name="v" unicode="v" horiz-adv-x="1007" 
d="M302 -58q-31 25 -65.5 55t-63.5 60.5t-49 59.5t-21 52q-2 83 -2.5 129t-0.5 75v96q0 8 0.5 16t0.5 18v104q0 14 0.5 28t0.5 35h177l2 -406v-1q0 -23 13 -45.5t34 -44.5t47 -43.5t52 -42.5q5 -5 11 -9t11 -9q11 -9 22 -17.5t22 -19.5l4 -1h15l3 1q11 10 25 21l28 22
q5 4 9.5 7t9.5 7q27 21 53 41.5t46.5 42t33 43.5t12.5 46v164q0 8 -0.5 14.5t-0.5 13.5v216h176v-482q0 -19 -10 -42t-32.5 -51.5t-59 -65t-88.5 -82.5q-30 -24 -55 -43.5t-45 -35.5q-6 -5 -12 -9.5t-11 -8.5q-44 -33 -62.5 -47t-24.5 -19q-6 4 -19 14t-37 28.5t-60.5 46.5
t-88.5 69v0z" />
    <glyph glyph-name="w" unicode="w" horiz-adv-x="1532" 
d="M853 667q1 -14 1 -25v-33v-150q0 -15 0.5 -31t0.5 -32q0 -17 -0.5 -33t-0.5 -32v-207q13 -80 65.5 -123.5t128.5 -45.5h4q37 0 70.5 13t60 36.5t44 55t22.5 68.5v2l1 537h181q1 -63 1 -120v-122q0 -130 -3 -257q-1 -40 -8.5 -79.5t-23.5 -79.5q-20 -47 -53 -88.5
t-75 -72.5t-90.5 -48.5t-99.5 -17.5h-9q-53 1 -93.5 16t-74 39.5t-62.5 58.5t-58 75l-10 5h-14l-4 -1l-3 -3v-1q-29 -41 -58 -75.5t-62.5 -59.5t-74.5 -39.5t-95 -15.5h-6q-51 0 -100 18t-91.5 49t-75.5 72.5t-52 88.5q-32 79 -33 159q-3 129 -3 257v121q0 57 1 121h182
v-539q5 -37 22.5 -68.5t44 -55t60 -36.5t70.5 -13h4q77 2 129 45.5t65 122.5v424v51t0.5 33t1 21t0.5 15h173z" />
    <glyph glyph-name="x" unicode="x" horiz-adv-x="978" 
d="M278 206v16l-212 134v306h182v-212l6 -9l211 -129l12 1l192 129l4 8v212h186v-305l-224 -134v-17l225 -140v-284l-187 -1v196l-4 8l-201 149h-13l-202 -149l-5 -8v-196h-182v291z" />
    <glyph glyph-name="y" unicode="y" horiz-adv-x="969" 
d="M41 -473q34 -4 66 8.5t66.5 49t72.5 101t83 165.5l-284 810h188l206 -626l280 626h183q-92 -198 -163 -350t-125 -266.5t-92 -195.5t-64.5 -136t-43 -88.5t-26.5 -53.5t-15 -29.5t-9 -17.5q-22 -42 -59.5 -76t-82.5 -56t-92.5 -30.5t-88.5 0.5v165z" />
    <glyph glyph-name="z" unicode="z" horiz-adv-x="1028" 
d="M107 493l1 178h630q55 0 91.5 -11.5t58.5 -30t31 -41t9 -44.5q0 -26 -7 -47t-17 -32l-591 -479l-2 -6l6 -18l5 -3l599 2l-1 -183l-654 3q-46 1 -77.5 10t-51 24.5t-28.5 35.5t-9 43q0 26 9 54t24 55t35.5 51t43.5 42l471 371l2 6l-6 18l-5 3z" />
    <glyph glyph-name="A" unicode="A" horiz-adv-x="1016" 
d="M504 983q-48 0 -88 -21t-69 -50t-45 -59t-16 -47v-290l10 -10h423l10 10v291q0 23 -18 53.5t-48.5 57.5t-71.5 46t-87 19zM100 798q7 77 43.5 144.5t93 117.5t127.5 79t147 29q77 0 146.5 -27t124 -75.5t89.5 -115t43 -144.5q0 -91 0.5 -176.5t0.5 -171.5q0 -69 0.5 -137
t0.5 -137q0 -97 -0.5 -199t-1.5 -203l-185 -1v534l-10 10h-423l-10 -10v-531l-186 -1v1015z" />
    <glyph glyph-name="B" unicode="B" horiz-adv-x="1059" 
d="M286 540l9 -11q7 -1 19.5 -1.5t29.5 -0.5h72q39 0 73.5 1t51.5 2h1q40 3 75 22t60.5 48.5t40 66.5t14.5 78q-2 75 -31.5 118t-77 64.5t-107 27.5t-121.5 6h-101l-10 -10zM288 -20l9 -10q26 -4 55.5 -6.5t62.5 -2.5q60 0 123 10t115 35.5t85 69.5t35 112v6q0 70 -27 113.5
t-71.5 66.5t-102 31t-119.5 8q-29 0 -59.5 -1t-59.5 -3q-10 -1 -19 -1.5t-18 -0.5l-10 -10zM781 487q83 -53 130.5 -128t47.5 -175v-3q-1 -79 -32.5 -149t-84 -123.5t-122.5 -86t-148 -36.5l-472 -1l3 1364q108 0 187.5 -0.5t136.5 -2t95.5 -4t65 -5.5t44 -7.5t33.5 -10.5h1
q56 -21 102.5 -59t79.5 -87t51.5 -105.5t18.5 -113.5q0 -73 -32.5 -138.5t-104.5 -112.5v-16z" />
    <glyph glyph-name="C" unicode="C" horiz-adv-x="1015" 
d="M501 982q-43 0 -81 -16.5t-67 -44.5t-47.5 -65t-22.5 -78v-616q0 -18 15 -51t43.5 -65.5t69.5 -56t94 -23.5h7q37 0 73 13t65.5 35.5t50 54t28.5 69.5v1q3 22 5 50.5t2 54.5v5h179v-106q0 -22 -4 -46t-10 -43q-21 -62 -60.5 -112t-91.5 -85t-113.5 -54.5t-125.5 -19.5
q-83 0 -155.5 29.5t-127.5 81.5t-88.5 122.5t-38.5 151.5v592q0 23 1 45.5t7 45.5q16 69 53 127t89.5 100.5t117 66t136.5 23.5q69 0 130 -21t111.5 -58.5t88.5 -90.5t62 -116q11 -32 13.5 -66t2.5 -68v-24h-186q-1 2 -1 14q0 22 -1.5 38t-4.5 42v1q-9 37 -30 67t-50.5 51.5
t-65 33t-72.5 11.5z" />
    <glyph glyph-name="D" unicode="D" horiz-adv-x="1038" 
d="M907 515v-180q0 -88 -1 -178q-4 -69 -33 -128.5t-75.5 -106t-107 -78t-126.5 -42.5q-44 -8 -101 -10.5t-120 -2.5q-38 0 -75 0.5t-72 1.5q-29 1 -50 1.5t-46 0.5l1 1351q22 1 38 1h39q48 0 96.5 -0.5t96.5 -1.5q46 -1 90 -1.5t87 -0.5q70 -10 132 -42t110 -80.5
t78 -110.5t38 -132q1 -66 1 -131v-130zM719 778q-6 32 -23 64t-42.5 58t-58 42t-68.5 17h-232l-10 -10l1 -963l10 -11h39t58 1q29 0 55.5 0.5t37.5 0.5h2q48 0 89 13.5t71.5 40t49.5 64.5t23 88v163q0 108 -0.5 213t-1.5 217v2z" />
    <glyph glyph-name="E" unicode="E" horiz-adv-x="1003" 
d="M287 544l10 -11h536v-180h-536l-10 -10v-368l10 -10h606v-182h-803v1365h803v-180l-606 1l-10 -11v-414z" />
    <glyph glyph-name="F" unicode="F" horiz-adv-x="1005" 
d="M905 961h-610l-10 -10l1 -406l10 -11h539v-181h-540l-10 -10v-560h-185v1365h805v-187z" />
    <glyph glyph-name="G" unicode="G" horiz-adv-x="1013" 
d="M715 -105q-20 -22 -44 -42.5t-50 -36t-54 -24.5t-56 -9q-83 0 -155 29.5t-127 81.5t-89 122.5t-40 151.5v582q0 26 1 50.5t7 50.5q16 69 53.5 127.5t90 100.5t117 65.5t135.5 23.5q70 0 131 -21t111 -58.5t88.5 -90.5t62.5 -116q11 -34 13.5 -70t2.5 -72v-16h-185l-8 94
v1q-9 37 -30 67t-51 51.5t-65.5 33t-72.5 11.5q-44 0 -81.5 -16.5t-66 -44.5t-46.5 -65t-23 -78v-616q0 -19 14.5 -51t42 -63.5t67 -55.5t89.5 -26h1q46 3 84 23t65.5 52.5t42.5 73.5t15 86q0 11 -1 22.5t-3 22.5l-10 9h-102q-1 11 -1.5 26t-0.5 35v65h326v-598h-129
l-10 166l-3 6l-1 1l-7 3l-11 -13t-21 -27h-1q-5 -9 -9.5 -16t-6.5 -9z" />
    <glyph glyph-name="H" unicode="H" horiz-adv-x="1016" 
d="M298 366l-10 -10v-573h-187l-1 1366h188v-588l10 -10h419l10 10v588h189v-1367l-189 1v573l-10 10h-419z" />
    <glyph glyph-name="I" unicode="I" horiz-adv-x="428" 
d="M125 1148h183v-1365h-183v1365z" />
    <glyph glyph-name="J" unicode="J" horiz-adv-x="853" 
d="M289 167v-81q1 -30 13 -53.5t30.5 -39t42 -23.5t47.5 -8q26 0 51.5 9t45.5 27t32.5 44t12.5 61v1045h189v-1074q-2 -63 -30 -116.5t-73 -92.5t-103 -60.5t-118 -21.5h-7q-58 0 -114 17.5t-101 52t-74 86.5t-32 121v107h188z" />
    <glyph glyph-name="K" unicode="K" horiz-adv-x="1018" 
d="M697 1148h220l-401 -681v-11l402 -673h-226l-385 614l-18 -6v-608h-189v1365h188v-625l19 -5z" />
    <glyph glyph-name="L" unicode="L" horiz-adv-x="930" 
d="M287 1148v-1169l10 -10h561l2 -186h-760v1365h187z" />
    <glyph glyph-name="M" unicode="M" horiz-adv-x="1200" 
d="M911 1148h188l1 -1365h-185v746l-19 3l-276 -750l-53 -1l-263 751l-19 -3l1 -746h-186l1 1365h188l293 -855h18z" />
    <glyph glyph-name="N" unicode="N" horiz-adv-x="1038" 
d="M752 1149h186l-2 -1366h-188l-445 904l-19 -4l2 -901l-186 1v1366h190l442 -903l20 4v899z" />
    <glyph glyph-name="O" unicode="O" horiz-adv-x="1006" 
d="M285 184q3 -46 19 -85.5t43.5 -69t66 -46.5t86.5 -17q40 0 77.5 14t68 39.5t51 60.5t25.5 76v139q0 42 0.5 84.5t0.5 84.5v47q0 26 -0.5 51.5t-0.5 49.5v44v124q-2 38 -17.5 71.5t-41 60t-59 44t-70.5 23.5q-8 1 -15 1.5t-15 0.5q-45 0 -84 -16t-68 -43.5t-46 -65.5
t-19 -82q-2 -42 -3 -92.5t-1 -106.5v-52q0 -27 0.5 -55.5t0.5 -57.5v-53q1 -45 1 -89v-83v-1zM100 353q0 109 0.5 220.5t2.5 221.5q7 76 41.5 144t88.5 119t123.5 80.5t145.5 29.5q86 0 160 -33t128 -89.5t85 -132t31 -159.5v-309q0 -30 -0.5 -60.5t-0.5 -59.5v-172
q-5 -80 -40.5 -147.5t-91.5 -117t-127.5 -77.5t-148.5 -28q-82 0 -154 31.5t-126 85.5t-85.5 127t-31.5 156v170z" />
    <glyph glyph-name="P" unicode="P" horiz-adv-x="1000" 
d="M291 549l8 -10q14 -3 49 -3.5t73 -0.5q39 0 73 1.5t50 2.5h1q40 3 75 22t60.5 48t40 66t14.5 78q0 75 -29 118.5t-76.5 65.5t-107.5 28t-123 6h-98l-10 -11v-411zM323 1149q61 0 121 -0.5t123 -2.5q76 -11 140.5 -45t112 -86.5t74 -120.5t26.5 -146q0 -69 -23.5 -131
t-65 -112.5t-98 -87t-121.5 -55.5q-23 -7 -58.5 -9t-73.5 -2q-16 0 -31.5 0.5t-30.5 0.5q-16 0 -31 0.5t-29 0.5q-21 0 -37 -1t-24 -3l-7 -10q0 -23 0.5 -45.5t0.5 -45.5q0 -60 0.5 -119t0.5 -119t-0.5 -114t-1.5 -113h-190v670q0 54 0.5 107.5t0.5 106.5v482h222z" />
    <glyph glyph-name="Q" unicode="Q" horiz-adv-x="1031" 
d="M287 176q6 -42 24 -79.5t46 -65t65 -44t82 -16.5h19q9 0 19.5 1t20 3.5t15.5 6.5t6 11l-1 5q-15 30 -36 46.5t-44.5 25.5t-49.5 11.5t-51 3.5q0 2 -0.5 -2t-0.5 -2q0 13 16 21.5t37 13.5t41.5 7t30.5 2h4q43 0 75 -16.5t62 -46.5l1 -1l7 -3q8 0 17 14.5t16.5 33.5t12 37
t4.5 25q3 76 4 150t1 149q0 45 -0.5 100t-0.5 101q0 24 -0.5 48.5t-0.5 48.5q0 46 -17.5 86.5t-47.5 71t-70.5 48t-86.5 17.5h-5q-52 -2 -92.5 -22.5t-68 -54.5t-41.5 -78.5t-14 -93.5v-53q0 -24 0.5 -53t0.5 -61v-335v-35t1 -26zM684 -175q-5 -2 -8.5 -3t-7.5 -3
q-38 -14 -74.5 -24t-80.5 -11h-9q-84 0 -156 32t-126 87.5t-86 129t-34 156.5v1q-1 11 -1 28v40v220v36q0 20 -0.5 40t-0.5 38v34v167q4 78 38 145.5t87.5 118t122.5 80.5t145 32h10q77 0 146 -26t123 -72.5t90 -111t48 -141.5q1 -29 2 -78.5t1.5 -108t1 -121.5t0.5 -120
t-0.5 -106t-1.5 -81q-2 -48 -11.5 -94t-26 -87t-38.5 -74.5t-49 -55.5l-4 -8v-2l3 -7q14 -12 32 -17.5t36 -5.5h5q19 0 34.5 9t27 23t20 29.5t15.5 29.5l13 26q3 0 5.5 -9t3.5 -21t1.5 -23t0.5 -15v-9q0 -32 -9 -62t-26.5 -53t-43 -37.5t-59.5 -15.5q-24 0 -44.5 8t-37.5 21
t-32 30.5t-28 35.5l-1 1q1 -2 1 -6l-11 12h-2z" />
    <glyph glyph-name="R" unicode="R" horiz-adv-x="1032" 
d="M286 545l8 -11q13 -2 48 -2.5t75 -0.5q39 0 74 1t51 2h1q39 4 72.5 22.5t57.5 46.5t38 64t14 75v6q0 75 -28.5 118.5t-74.5 65t-105.5 27.5t-120.5 6h-100l-10 -10v-410zM847 -219q-15 0 -30 0.5t-29 1.5q-28 23 -43.5 53.5t-23 65.5t-9.5 72.5t-3 74.5q0 8 -0.5 15
t-0.5 14q-2 63 -7 110.5t-24.5 80.5t-59.5 52.5t-112 25.5h-117h-46q-11 0 -22.5 -0.5t-23.5 -1.5l-9 -10v-550h-187v1363q105 0 181 -0.5t129 -1.5t86.5 -2t54.5 -2.5t33.5 -3.5t22.5 -4q69 -17 128 -49.5t102.5 -79.5t68 -108t24.5 -134q0 -105 -55 -187
q-53 -83 -149 -126l-1 -18q63 -38 105 -92.5t46 -127.5v-1q2 -37 3 -72t3 -72l3 -66v-1q9 -63 20.5 -116t26.5 -101q-13 0 -19.5 -0.5t-20.5 -0.5q-11 0 -22.5 -0.5t-22.5 -0.5z" />
    <glyph glyph-name="S" unicode="S" horiz-adv-x="1020" 
d="M283 229v-20q0 -36 16 -78t46 -77.5t74 -59.5t100 -24q27 0 57 6q31 7 57 21.5t45.5 35.5t30.5 48t11 60q0 47 -20 79.5t-54 64.5l-1 1q-5 4 -17 12t-45.5 27t-96.5 53.5t-169 91.5q-43 22 -82.5 55.5t-69.5 74t-47.5 87.5t-17.5 97q0 79 34.5 149t91 122t129.5 82.5
t150 30.5q69 0 134.5 -23t119.5 -64t93 -97.5t56 -124.5q9 -37 10.5 -69.5t1.5 -64.5h-186v22q0 47 -17.5 90t-48.5 75.5t-73 51.5t-91 19q-35 0 -73 -14t-70.5 -38.5t-53.5 -57.5t-21 -71q0 -44 46 -101t154 -125l1 -1q11 -5 22 -11t22 -11q45 -23 91 -47t88.5 -51.5
t80 -59.5t65 -71t43.5 -85.5t16 -102.5q0 -81 -35 -146t-92 -111t-130 -70.5t-148 -24.5q-63 0 -123 19t-111 54t-90.5 84t-60.5 108l-8.5 25.5t-8 33.5t-6 49t-2.5 72h183z" />
    <glyph glyph-name="T" unicode="T" horiz-adv-x="996" 
d="M100 969v179h796v-178h-296l-10 -11v-1176h-185v1175l-10 11h-295z" />
    <glyph glyph-name="U" unicode="U" horiz-adv-x="1009" 
d="M100 1148h187q0 -85 -0.5 -162t-0.5 -160q0 -69 -0.5 -136.5t-0.5 -135.5q0 -97 0.5 -192.5t1.5 -193.5v-1q6 -42 24.5 -78t46.5 -63t64.5 -42t78.5 -15q43 0 83 15.5t71 43t50.5 65t20.5 82.5q1 94 1.5 193.5t0.5 202.5q0 72 -0.5 144t-0.5 142q0 80 -0.5 150.5
t-0.5 140.5h183v-675v-118q0 -57 -1 -113v-18q-1 -37 -3 -72t-13 -73q-18 -65 -55.5 -119.5t-89 -93.5t-114.5 -61t-130 -22q-78 0 -147.5 28t-123 77t-88.5 115.5t-44 142.5v1002z" />
    <glyph glyph-name="V" unicode="V" horiz-adv-x="1019" 
d="M304 -58q-32 26 -67 56.5t-64 61.5t-49 60.5t-22 53.5q-1 94 -1.5 186t-0.5 189q0 67 0.5 134.5t0.5 136.5q0 85 0.5 163t0.5 165h189v-879q0 -22 13.5 -45t35.5 -46t49 -45.5t54 -44.5q16 -13 30.5 -24.5t27.5 -22.5h14q14 14 32.5 28t38.5 28q27 20 53 40.5t46.5 42
t33 43t12.5 43.5v663q0 57 0.5 108t0.5 111h186l1 -955q0 -19 -11 -42.5t-34.5 -53t-60.5 -66.5t-90 -83q-80 -62 -124 -95.5t-66 -49.5q-5 -3 -8 -6t-6 -5q-6 -5 -9 -6q-5 4 -17.5 13t-36 27t-60.5 46t-92 70z" />
    <glyph glyph-name="W" unicode="W" horiz-adv-x="1359" 
d="M71 1146h177l169 -954l5 -4h21l5 4l230 954h34l237 -945l5 -4l20 1l5 4l122 944h177l-194 -1365h-175l-202 612l-5 3h-19l-5 -3l-198 -612h-173z" />
    <glyph glyph-name="X" unicode="X" horiz-adv-x="1012" 
d="M912 740q-11 -25 -27 -46.5t-36 -41t-42 -37t-44 -35.5q-30 -23 -58 -46.5t-51 -49.5v-12q24 -28 51.5 -51t56.5 -46q45 -35 86 -72.5t64 -88.5v-432h-188v349q-8 25 -22 46t-31.5 39t-37.5 34l-40 32q-21 17 -41.5 33t-37.5 35h-14q-17 -19 -37.5 -35t-41.5 -33
q-42 -32 -78.5 -67t-53.5 -86v-218q0 -35 0.5 -64.5t0.5 -64.5h-189l-1 431q22 51 64.5 89t89.5 73q29 23 57.5 46t51.5 50v13q-22 25 -51.5 49t-59.5 48l-46 36t-43 37.5t-36.5 41t-26.5 46.5l1 407h187l1 -318v-3q8 -26 22 -48t32 -40.5t38.5 -35.5t41.5 -33
q20 -16 40.5 -31.5t36.5 -34.5h15q18 20 37.5 36t39.5 31q42 32 79 67t53 87v248q0 20 -0.5 36.5t-0.5 38.5h189v-409z" />
    <glyph glyph-name="Y" unicode="Y" horiz-adv-x="1044" 
d="M617 -217l-189 1v655l-1 4l-347 705h35q20 0 43.5 0.5t45.5 0.5q32 0 56.5 -0.5t34.5 -0.5l223 -483h18l212 483h216l-348 -704l-1 -4z" />
    <glyph glyph-name="Z" unicode="Z" horiz-adv-x="894" 
d="M624 -199h-234q-115 0 -217 2q-53 7 -85.5 36t-32.5 84q0 43 14.5 85t36.5 79l558 886h-614v182h650q26 0 51.5 -9t46 -24.5t33.5 -37.5t13 -49q0 -26 -11 -50t-28 -46l-1 -1l-2 -3l-591 -951h620v-184h-149q-14 0 -28.5 0.5t-29.5 0.5zM176 -214v11h-4l-1 -11h5z
M802 934l6 -1l-6 2v-1z" />
    <glyph glyph-name="sf256.001" unicode="." horiz-adv-x="589" 
d="M390 87q0 -41 -29.5 -70t-70.5 -29t-70 29.5t-29 70.5t29 70t70 29q42 0 71 -29t29 -71z" />
    <glyph glyph-name="sf308.001" unicode="?" horiz-adv-x="705" 
d="M267 846q-1 -14 -1.5 -29t-0.5 -30q0 -30 -3 -58q-24 1 -50 0.5t-51.5 -1.5t-49 -1.5t-41.5 0.5q1 1 1 13v14v28q0 42 3 84.5t21 78.5q21 51 59.5 86t86.5 54.5t101 22.5t103 -10q58 -15 99.5 -46.5t66.5 -73t34.5 -91.5t5 -101.5t-22.5 -103t-48 -96.5
q-32 -55 -68.5 -107t-68.5 -105.5t-56.5 -111t-32.5 -123.5q-1 1 -11 1h-12h-25h-50q-25 0 -48.5 1.5t-43.5 6.5q0 60 18 118.5t51 109.5q40 53 85 109t79.5 116.5t52.5 126.5t4 139q-12 32 -40.5 45t-59 9t-56 -23t-31.5 -52zM148 -90q-6 7 -4.5 12.5t6.5 14.5
q6 7 19.5 23.5t28.5 35t29 35t20 22.5q8 11 14 10.5t12 -5.5q37 -33 74.5 -61t61.5 -53q5 -6 4 -10.5t-5 -10.5q-23 -33 -47.5 -62.5t-48.5 -60.5q-10 -19 -27 -7q-14 7 -34 22t-40 32t-37 34t-26 29z" />
    <glyph glyph-name="sf333.001" unicode=";" horiz-adv-x="433" 
d="M338 397q-5 -7 -19 -24.5t-29.5 -36.5t-29.5 -35.5t-20 -22.5q-9 -11 -15 -10.5t-12 6.5q-38 32 -76 61t-63 55q-9 9 3 21q22 33 47 63t49 63q11 18 28 7q13 -7 33.5 -22.5t41 -33.5t38 -35.5t25.5 -28.5q6 -8 5.5 -13t-6.5 -14zM349 54q19 -53 11 -113t-33.5 -119.5
t-62.5 -115.5t-76 -102q-13 -12 -25.5 -19.5t-19.5 -7.5t-6.5 9.5t16.5 33.5q20 31 40 61.5t37 62t28 65t13 71.5q0 14 -3 32.5t-10 34.5t-19 26t-30 7q-9 -8 -18 -26.5t-18 -38t-19 -35t-21 -17.5q-10 0 -20.5 12t-19.5 28.5t-14.5 33.5t-5.5 26q0 24 15 53.5t33 64.5
q25 34 58.5 47.5t66.5 9t61 -26t42 -57.5z" />
    <glyph glyph-name="sf273.002" unicode="&#x60c;" horiz-adv-x="590" 
d="M256 209q30 21 47.5 28.5t39.5 7.5q50 0 85 -38t35 -92q0 -58 -35.5 -93.5t-92.5 -35.5q-85 0 -148 86t-63 203q0 57 25 122.5t70 125.5q64 85 98 85q8 0 13.5 -5.5t5.5 -13.5q0 -7 -5 -14t-28 -34q-42 -48 -65.5 -102t-23.5 -103q0 -32 11.5 -67t30.5 -60z" />
    <glyph glyph-name="zero" unicode="0" horiz-adv-x="1023" 
d="M563 1054q61 0 114.5 -34.5t87.5 -96.5q63 -114 63 -309q0 -166 -31 -285.5t-97 -210.5q-96 -132 -225 -132q-128 0 -201 127t-73 351q0 118 25 223.5t73 187.5q48 83 118.5 131t145.5 48zM508 932q-102 0 -149 -88.5t-47 -278.5q0 -78 10.5 -161.5t26.5 -134.5
q25 -83 66.5 -123t102.5 -40q116 0 164 123q33 84 33 249q0 220 -53.5 337t-153.5 117z" />
    <glyph glyph-name="one" unicode="1" horiz-adv-x="1025" 
d="M322 822l36 139q106 9 215 54l31 13q36 15 77 39l-4 -56q-3 -39 -3 -44l-4 -72q-1 -16 -5 -69q-20 -267 -20 -476q0 -143 5 -226l4 -52q1 -19 1 -26l-121 -103l-1 96v78q0 133 11 341l4 95q4 68 5 84l6 73l6 68l6 69l5 59q1 6 2 18q-49 -33 -133 -68q-67 -27 -123 -34z
" />
    <glyph glyph-name="two" unicode="2" horiz-adv-x="1021" 
d="M222 124q18 14 24 18l42 35l57 47q17 14 76 69.5t79 76.5q79 81 123 149q79 121 79 210q0 40 -17 81t-46 70q-50 51 -121 51q-124 0 -251 -130q-4 -4 -13 -14l24 162q73 59 129 81.5t127 22.5q67 0 123 -23.5t92 -67.5q57 -69 57 -185q0 -160 -158 -353
q-54 -66 -130 -138t-167 -143l242 -1q123 0 161 2t90 11l-51 -154l-595 -1z" />
    <glyph glyph-name="three" unicode="3" horiz-adv-x="1021" 
d="M313 857l46 145q108 51 197 51q112 0 176 -60t64 -164q0 -70 -36.5 -129t-112.5 -113q83 -28 121.5 -80t38.5 -134q0 -79 -46 -162q-43 -77 -118 -129q-79 -55 -162.5 -76.5t-224.5 -21.5l-34 1l39 150q91 -15 139 -15q117 0 199 45q121 66 121 181q0 74 -54 107t-174 33
q-69 0 -120 -9l43 140q39 -10 78 -10q84 0 146 54q32 28 50.5 63t18.5 68q0 58 -47.5 98.5t-115.5 40.5q-56 0 -109 -17t-123 -57z" />
    <glyph glyph-name="four" unicode="4" horiz-adv-x="1021" 
d="M872 504l-42 -142h-142v-325l-104 -97v422h-423l37 151l386 551h114l-4 -569h60q77 0 118 9zM273 495h306l25 439l-8 8z" />
    <glyph glyph-name="five" unicode="5" horiz-adv-x="1025" 
d="M298 501l69 539l157 -2q179 0 291 16l-50 -151q-132 -14 -176 -14l-64 -2l-77 -3h-27l-34 -258q106 52 186 52q105 0 169 -71.5t64 -189.5q0 -97 -49 -190t-129 -147q-83 -56 -169.5 -75.5t-248.5 -19.5l43 140q55 -6 105 -6q62 0 124.5 14t105.5 39q63 35 97 85t34 107
q0 39 -16.5 76.5t-46.5 64.5q-53 50 -150 50q-99 0 -208 -54z" />
    <glyph glyph-name="six" unicode="6" horiz-adv-x="1023" 
d="M752 1053l-34 -140q-113 -9 -184.5 -39t-123.5 -88q-83 -94 -101 -262l5 -8q10 11 15 17q47 51 65.5 67.5t45.5 32.5q66 39 136 39q110 0 172.5 -81t62.5 -224q0 -145 -65 -245q-43 -66 -104.5 -101t-133.5 -35t-133 34t-95 93q-62 108 -62 284q0 150 38.5 275.5
t110.5 210.5q69 81 170 125.5t215 44.5zM306 415q0 -120 37 -198q24 -51 68.5 -80t98.5 -29q90 0 152 72t62 176q0 85 -53.5 139.5t-137.5 54.5q-63 0 -125 -34q-28 -16 -48 -35.5t-54 -65.5z" />
    <glyph glyph-name="seven" unicode="7" horiz-adv-x="1023" 
d="M282 904l37 152h523q-14 -83 -67 -253q-64 -206 -121.5 -335.5t-127.5 -225.5q-64 -87 -145 -168.5t-154 -132.5l16 168q31 23 73.5 62.5t71.5 72.5q112 125 208 306.5t143 359.5l-294 1l-43 1q-10 0 -27 -1q-26 -1 -30 -1q-23 0 -49 -4z" />
    <glyph glyph-name="eight" unicode="8" horiz-adv-x="1025" 
d="M412 515q-82 49 -114 87q-52 60 -52 145q0 60 24.5 119t67.5 101q42 41 95.5 63.5t109.5 22.5q114 0 179 -60t65 -165q0 -71 -35.5 -128t-122.5 -127l-23 -18q99 -65 141.5 -123t42.5 -131q0 -63 -30.5 -126.5t-83.5 -110.5q-90 -78 -202 -78q-52 0 -99 17t-80 47
q-71 65 -71 164q0 77 54 160q28 43 54 70.5t80 70.5zM538 584q148 112 148 201q0 52 -43 99q-45 49 -123 49q-60 0 -116 -37q-70 -46 -70 -113q0 -50 46 -96t142 -94q6 -3 16 -9zM490 483q-75 -53 -111 -99q-50 -64 -50 -120q0 -63 53 -110t125 -47q84 0 141 57
q54 53 54 113q0 32 -19 61.5t-62 64.5q-58 47 -131 80z" />
    <glyph glyph-name="nine" unicode="9" horiz-adv-x="1023" 
d="M725 626q0 42 -8 90t-21 82q-52 134 -176 134q-90 0 -152 -74q-62 -75 -62 -176q0 -82 54 -136q27 -27 64.5 -42.5t77.5 -15.5q132 0 223 138zM716 523q-9 -11 -13 -17q-52 -68 -114.5 -104t-128.5 -36q-55 0 -105 25t-81 69q-26 37 -41 91t-15 114q0 164 81 272
q42 56 100 86.5t122 30.5q77 0 137.5 -35.5t97.5 -102.5q55 -99 55 -279q0 -132 -32.5 -250.5t-89.5 -199.5q-65 -89 -171.5 -144.5t-215.5 -55.5h-18l31 142q14 1 20 2l34 2q88 6 159.5 45.5t119.5 106.5q30 43 50 109t20 122v6z" />
    <glyph glyph-name="sf261.001" unicode="&#x3c;" horiz-adv-x="795" 
d="M743 -1l-743 461l741 461v-156l-490 -300l494 -303z" />
    <glyph glyph-name="sf261.002" unicode="&#x3e;" horiz-adv-x="795" 
d="M49 161l494 303l-490 300v156l741 -461l-743 -461z" />
    <glyph glyph-name="a.001" horiz-adv-x="255" 
 />
    <glyph glyph-name="sf257.001" unicode="&#x651;" 
d="M-169 38q-1 23 -0.5 46.5t1.5 46.5q17 29 24 56q3 7 6.5 6.5t3.5 -7.5v-5q0 -3 0.5 -14.5t0.5 -33.5v-60q0 -29 16 -52.5t47 -23.5q17 0 29.5 7.5t14.5 25.5q1 24 -2 48.5t-1 46.5q0 21 8 51t16 49q5 12 7.5 9t4.5 -11q3 -20 5.5 -43.5t5.5 -47t7.5 -45.5t12.5 -39
q6 -17 24.5 -27.5t37.5 -10.5q14 0 26 6q-3 23 -6 47t-5 47q-3 10 -1 21.5t6 24t9.5 25t9.5 23.5q2 3 4 8.5t4.5 8.5t4.5 1.5t3 -12.5q1 -28 3 -48t4 -38t5 -37.5t6 -46.5q0 -1 -0.5 -3l-2.5 -10t-7 -23.5t-14 -43.5q-6 -17 -26 -26.5t-37 -9.5q-42 0 -61.5 20.5t-29.5 55.5
q-5 -14 -11 -31t-14.5 -31t-21 -23.5t-30.5 -9.5q-27 0 -44 13t-26.5 32.5t-13 43t-3.5 44.5z" />
    <glyph glyph-name="sf258.002" unicode="&#x650;" 
d="M206 61q-38 -20 -91 -46t-112.5 -54.5t-122 -57t-119.5 -54.5q-8 -4 -12 -0.5t1 11.5q13 26 28 52t32 48l90 40t114 52t120 56.5t108 53.5q10 1 10 -3q0 -9 -1 -10q-2 -3 -12.5 -23t-32.5 -65z" />
    <glyph glyph-name="sf256.003" unicode="&#x64f;" 
d="M173 52q9 -7 21.5 -16t14.5 -23q-8 -17 -14 -36t-17 -37q-5 -11 -15 -3q-4 5 -17.5 17t-18.5 17q-29 -35 -64.5 -61t-75 -45t-82 -33.5t-85.5 -27.5q-7 -2 -15 -3t-11 0.5t0.5 5.5t19.5 13q71 45 141 86t130 92q-15 11 -30 23.5t-30 23.5q-20 15 -30 37t-8 46q0 1 1 4
t4 11t9.5 23.5t18.5 42.5q7 15 21.5 29t31 23.5t34 13.5t31.5 1q37 -7 53.5 -31.5t18 -57t-9 -69t-27.5 -66.5zM34 165q19 -32 52.5 -56t64.5 -42q3 17 2.5 37.5t-6 39t-18 31.5t-33.5 15q-17 2 -35 -3t-27 -22z" />
    <glyph glyph-name="sf258.003" unicode="&#x64e;" 
d="M199 57q-38 -20 -91 -46t-112.5 -54.5t-122 -57t-119.5 -54.5q-8 -4 -12 -0.5t1 11.5q13 26 28 52t32 48l90 40t114 52t120 56.5t108 53.5q10 1 10 -3q0 -9 -1 -10q-2 -3 -12.5 -23t-32.5 -65z" />
    <glyph glyph-name="afii57453" unicode="&#x64b;" 
d="M-217 -74q-13 -5 -8 9q10 20 21.5 38.5t24.5 36.5q10 4 41 17.5t79 35.5t112.5 52.5t141.5 68.5q10 4 5 -10q-1 -2 -8.5 -18t-24.5 -49q-7 -5 -29 -16t-66.5 -32t-115 -53.5t-173.5 -79.5zM-213 -182q-15 -6 -9 10q10 21 21.5 39.5t24.5 34.5q10 4 41 17.5t79.5 35.5
t112.5 52.5t141 68.5q7 3 7 -7l-35 -69q-7 -5 -29 -16t-66.5 -32t-114.5 -53.5t-173 -80.5z" />
    <glyph glyph-name="afii57451" unicode="&#x64d;" 
d="M-211 -77q-13 -5 -8 9q10 20 21.5 38.5t24.5 36.5q10 4 41 17.5t79 35.5t112.5 52.5t141.5 68.5q10 3 5 -10q-1 -2 -8.5 -18t-24.5 -49q-7 -5 -29 -16t-66.5 -32t-115 -53.5t-173.5 -79.5zM-207 -185q-15 -6 -9 10q10 21 21.5 39.5t24.5 34.5q10 4 41 17.5t79.5 35.5
t112.5 52.5t141 68.5q7 3 7 -7l-35 -69q-7 -5 -29 -16t-66.5 -32t-114.5 -53.5t-173 -80.5z" />
    <glyph glyph-name="bar" unicode="|" horiz-adv-x="266" 
d="M70 1373h126v-1809h-126v1809z" />
    <glyph glyph-name="sf438.001" unicode="&#x652;" 
d="M226 253q-16 -3 -31.5 -13.5t-27.5 -25t-19.5 -31.5t-7.5 -32t9 -24.5t22.5 -14.5t28.5 -6.5t28 -0.5q56 5 96 43q2 17 -4 36.5t-19 35t-32 25.5t-43 8zM372 178q0 -35 -8.5 -67t-27.5 -56.5t-48 -39t-71 -14.5q-52 0 -86.5 32t-36.5 87q0 29 8.5 68.5t26.5 76.5
t46.5 64.5t68.5 32.5q38 2 63 -17t39.5 -48t20 -61.5t5.5 -57.5z" />
    <glyph glyph-name="sf258.004" 
d="M10 -120q5 9 17.5 25t20.5 26q3 5 8.5 8.5t12.5 -1.5q4 -3 12.5 -9.5t17.5 -14t16.5 -15.5t10.5 -14q0 -2 -1 -3.5t-6 -7.5t-15.5 -19t-29.5 -38q-16 16 -32.5 31.5t-31.5 31.5zM-257 113q0 4 0.5 9.5t2.5 12.5q1 2 3 9t5 15.5t5 16t3 10.5q2 5 6.5 3.5t8.5 -6.5
q11 -18 24 -36.5t28 -34t33 -26.5t41 -15h21q18 0 50 7t91 33q-20 13 -41 23.5t-43 15t-44 1.5t-43 -16l-2 -2q-1 0 -1 2q0 13 3.5 25.5t8.5 25.5q11 28 24 41t45 13q7 0 17.5 -1t25 -5t35 -12t48.5 -21q18 -9 35.5 -20t37.5 -21.5t43 -19t52 -13.5q10 -4 8.5 -14.5
t-8.5 -22t-15 -22.5t-10 -16q-23 -2 -43.5 1t-43.5 3q-36 0 -71 -13.5t-70.5 -28t-71.5 -24.5t-73 -3q4 -30 6.5 -62t2.5 -63q0 -32 -5 -62t-17 -56q-2 -5 -6 -8t-4 5q2 75 -9.5 149t-46.5 143q-13 20 -24.5 39t-21.5 41z" />
    <glyph glyph-name="sf259.002" unicode="&#x611;" 
d="M-146 -258q-2 75 -11 148t-33 133q-8 17 -16 32.5t-12.5 32t-2.5 36t15 45.5q6 15 10.5 8t8.5 -18q7 -14 16.5 -31t22 -31.5t28 -24.5t35.5 -10q-5 32 0.5 64t21.5 58t41.5 42t60.5 16q21 0 39.5 -2t35.5 -9t34 -21t34 -37q-22 -2 -51 0t-55 2q-8 0 -15.5 -0.5
t-13.5 -1.5q-11 -1 -26 -3.5t-29 -8.5t-24 -16t-10 -25q0 -13 9.5 -25t23 -21.5t29 -15.5t26.5 -6q25 0 47 8t43 21q17 12 34.5 25.5t33.5 28.5q4 3 6 2.5t0 -6.5q-4 -30 -21.5 -57.5t-39.5 -47.5q-26 -23 -58 -39t-67 -24t-71 -7t-70 13q0 -29 1 -58t-1 -58t-8.5 -57
t-20.5 -54z" />
    <glyph glyph-name="sf260.001" unicode="&#x610;" 
d="M-17 98q-15 -14 -29 -29.5t-29 -32.5q7 -4 27 -4q22 0 54 3.5t61.5 8.5t51.5 10.5t25 10.5q-9 24 -28.5 39t-43 20t-47.5 -1t-42 -25zM-218 149q9 -14 19 -30t23 -31t27.5 -27.5t32.5 -18.5q15 15 35 42t46 54t57 47t69 21q22 0 42.5 -9t36.5 -24.5t25.5 -35.5t9.5 -42
q-5 -34 -21.5 -66t-49.5 -46q-67 -26 -139.5 -32.5t-144.5 11.5q-3 -26 -4.5 -52t-4 -51.5t-8 -50.5t-16.5 -50q-3 -8 -5 -6t0 7q1 52 0.5 93t-6 76.5t-16 68.5t-29.5 70q5 21 8 43t13 39z" />
    <glyph glyph-name="sf260.001" unicode="&#x6d6;" 
d="M-17 98q-15 -14 -29 -29.5t-29 -32.5q7 -4 27 -4q22 0 54 3.5t61.5 8.5t51.5 10.5t25 10.5q-9 24 -28.5 39t-43 20t-47.5 -1t-42 -25zM-218 149q9 -14 19 -30t23 -31t27.5 -27.5t32.5 -18.5q15 15 35 42t46 54t57 47t69 21q22 0 42.5 -9t36.5 -24.5t25.5 -35.5t9.5 -42
q-5 -34 -21.5 -66t-49.5 -46q-67 -26 -139.5 -32.5t-144.5 11.5q-3 -26 -4.5 -52t-4 -51.5t-8 -50.5t-16.5 -50q-3 -8 -5 -6t0 7q1 52 0.5 93t-6 76.5t-16 68.5t-29.5 70q5 21 8 43t13 39z" />
    <glyph glyph-name="sf277.007" unicode="&#x603;" horiz-adv-x="1342" 
d="M1085 179q-45 0 -95.5 -30t-110.5 -87q79 -11 159.5 -0.5t158.5 33.5q-9 15 -20 30.5t-25 27.5t-30.5 19.5t-36.5 6.5zM84 -6q68 6 137 9.5t137.5 9t136.5 16.5t134 32q38 13 61.5 34.5t35.5 38.5q5 6 10 6.5t3 -9.5q-3 -17 7 -28.5t26.5 -19t34.5 -11.5t32 -7
q33 44 71 82t77.5 65t79.5 39.5t77 6t69.5 -35t57.5 -84.5q-8 -23 -16 -44.5t-16 -43.5q-2 -6 -12.5 -14t-16.5 -10q-95 -41 -199.5 -50.5t-209.5 0.5q-8 -12 -17 -23.5t-17 -23.5q-6 -10 -12 -10q-5 0 -1 16q5 12 14 25t14 23q-29 8 -50.5 25t-26.5 40q-12 -26 -31.5 -44
t-43.5 -30t-50.5 -19t-52.5 -10q-112 -12 -222.5 -7.5t-219.5 40.5q-11 5 -14.5 9.5t13.5 6.5z" />
    <glyph glyph-name="sf263.002" unicode="&#x670;" 
d="M-84 126q5 19 11.5 35t17.5 42q7 15 20 2q30 -29 45 -78.5t17.5 -103.5t-7 -105.5t-27.5 -85.5q-8 -14 -12 -15.5t-1 17.5q5 39 6.5 77.5t-4.5 75.5t-21.5 72t-44.5 67z" />
    <glyph glyph-name="sf264.002" unicode="&#x66b;" horiz-adv-x="1024" 
d="M554 3q-27 -5 -42 -5q-44 0 -74 29t-30 71q0 25 9 50t23 41q31 35 82 35q68 0 107 -51.5t39 -140.5q0 -94 -51.5 -171.5t-147.5 -128.5q-68 -37 -100 -37q-11 0 -18 6t-7 14q0 15 24 25q98 40 142 99q46 61 46 130q0 15 -2 34z" />
    <glyph glyph-name="sf266.001" unicode="&#x22;" horiz-adv-x="542" 
d="M289 1403q38 7 75.5 6.5t77.5 -0.5l-26 -359l-103 16zM100 1395q13 2 32.5 3.5t41 2.5t42.5 1.5t37 0.5l-26 -340q-45 -11 -69 -15t-29 -4q-1 0 -1 1q-3 26 -5.5 54.5t-5.5 68t-7 94t-10 133.5z" />
    <glyph glyph-name="sf267" unicode="&#x614;" 
d="M-469 45q66 1 130 0t126.5 1.5t124 10t121.5 25.5q35 13 60.5 30t51.5 44q4 4 4 0q-2 -21 10 -38t32.5 -28t46 -14.5t49.5 1.5q5 2 5.5 4t0.5 6q0 9 -3.5 17.5l-7 17t-7 16.5t-3.5 14q5 20 15.5 35.5t19.5 33.5q4 7 7.5 4.5t5.5 -7.5q10 -33 18 -58.5t10 -59.5
q-6 -26 -11.5 -47t-16 -36t-28 -23t-47.5 -8q-49 0 -80.5 21.5t-42.5 72.5q-11 -20 -25.5 -37t-37.5 -28q-60 -28 -128 -38.5t-138.5 -7.5t-140.5 19t-133 41q-13 6 -9 10.5t21 5.5z" />
    <glyph glyph-name="sf268.004" unicode="&#x600;" horiz-adv-x="1134" 
d="M353 212q55 78 125 136.5t151 82.5q9 4 12 1t3 -9t-2.5 -13t-4.5 -10q-22 -26 -53.5 -61.5t-63 -74.5t-59 -79t-41.5 -76q-19 -46 -7.5 -86.5t43.5 -75.5t78 -63.5t96 -50t98 -35.5t84 -20q14 -2 16.5 -7t0.5 -12t-6.5 -14.5t-4.5 -14.5q-19 -23 -33.5 -35t-28 -22
t-28 -22t-33.5 -34q-3 -8 -7.5 -12.5t-19.5 -4.5q-44 7 -93.5 22t-101.5 27.5t-104 16.5t-101 -11q-149 -46 -283 -78.5t-260 -52.5t-247 -29.5t-245 -9.5q-126 0 -254 8t-273 22q-101 9 -192 19t-179.5 25t-178.5 38.5t-188 59.5q-68 25 -101 39t-31 21t40 8.5t112 0.5
q142 -3 266.5 -5.5t236 -5t212.5 -3.5t196 -1q105 0 206 2t202.5 7.5t207.5 13.5t222.5 20.5t245.5 29.5t277 39q-3 48 1 100t15.5 103.5t30.5 99t46 86.5z" />
    <glyph glyph-name="sf275.001" unicode="&#x60f;" horiz-adv-x="786" 
d="M580 122q-53 -2 -97 -26.5t-81.5 -60.5t-68.5 -79t-58 -82q56 -41 118 -39t119.5 30.5t105 75.5t74.5 97q0 22 -11 38t-27.5 26.5t-36 15.5t-37.5 4zM178 -216q-34 62 -41.5 130.5t5.5 137t42 133t67 118.5q5 5 0 5q-19 16 -38 33.5t-19 42.5q0 16 5 28.5t12.5 23.5
t16.5 22t17 24q12 18 24.5 39.5t28.5 40t36 31t46 12.5q10 0 23 -3t23.5 -9t16.5 -14.5t3 -18.5q-3 -27 -14 -33t-25 -2.5t-28 11t-24 7.5q-21 0 -46 -16q-25 -15 -25 -41q0 -17 13 -29.5t31.5 -20t38 -9.5t33.5 2q30 17 59 31t58 29q18 11 21.5 8.5t-1 -10.5t-14.5 -19
t-20 -18q-24 -18 -47 -35l-46 -34q-65 -44 -117 -95.5t-79.5 -111t-25 -126t46.5 -141.5q33 53 73 113t87.5 110.5t103.5 83t121 31.5q25 0 46 -11.5t36.5 -30t24.5 -42t9 -47.5q-5 -58 -30 -119.5t-64 -116.5t-90.5 -98.5t-109 -64t-119 -13.5t-121.5 52q-23 -42 -47 -82.5
t-48 -85.5q-9 -16 -23 -32t-34 -17q9 19 24 48.5t32.5 63.5t36 69t35.5 66z" />
    <glyph glyph-name="sf273.003" unicode="&#x64c;" 
d="M234 383q0 48 -20 76.5t-51 28.5q-23 0 -47.5 -14t-45.5 -36t-34.5 -48.5t-13.5 -51.5q0 -21 10.5 -38.5t26.5 -30.5t36.5 -21.5t40.5 -12.5q-7 -13 -20 -32t-29 -40.5t-35 -44t-37.5 -43t-35.5 -37t-30 -25.5q4 -5 13.5 -8.5t15.5 -3.5q26 0 57.5 22.5t61.5 56
t56.5 72.5t43.5 73q7 -1 16 -3.5t18 -6t16 -7.5t10 -7q7 8 11.5 21t4.5 23q0 6 -3.5 15t-9.5 17t-15 14.5t-21 9.5q3 6 4.5 16t2.5 21.5l2 23t1 21.5zM-91 105q25 0 45 11.5t33.5 28.5t20.5 36.5t7 36.5q0 10 -5.5 18.5t-14.5 8.5q-8 0 -15.5 -2.5t-15.5 -2.5q-3 0 -9.5 2
t-12.5 8t-10.5 16t-4.5 25q0 17 4 36t15 41t31.5 49.5t52.5 61.5q24 24 37 40.5t20 30t9 27.5t2 33q-42 -29 -78.5 -64t-65.5 -72q-52 -66 -81 -135t-29 -128q0 -54 19.5 -80t45.5 -26zM136 413q13 0 22 -7t14.5 -17t8 -21t2.5 -19q0 -9 -3.5 -21t-8.5 -21q-21 0 -39 5.5
t-31.5 14.5t-20.5 19.5t-7 22.5q0 6 5 13.5t14 14t20 11.5t24 5z" />
    <glyph glyph-name="sf271.003" unicode="&#x602;" horiz-adv-x="984" 
d="M117 115q0 -22 13.5 -35.5t32.5 -21.5t40.5 -11.5t36.5 -4.5q0 17 -5 38t-14.5 39.5t-24 31t-32.5 12.5q-20 0 -33.5 -15t-13.5 -33zM72 72q-2 28 11.5 63.5t36.5 62.5t53.5 37t62.5 -13q28 -22 37.5 -59.5t9.5 -76.5q0 -14 -0.5 -26t-1.5 -23q64 -8 144 -7.5t163.5 5.5
t164.5 14t147 18q16 2 12.5 -6t-13.5 -12q-25 -19 -68 -35t-97 -28t-116 -21t-125.5 -13.5t-125 -5t-113.5 3.5q-27 3 -59 9.5t-59 20t-45.5 35.5t-18.5 57z" />
    <glyph glyph-name="sf271.003" unicode="&#x60e;" horiz-adv-x="984" 
d="M117 115q0 -22 13.5 -35.5t32.5 -21.5t40.5 -11.5t36.5 -4.5q0 17 -5 38t-14.5 39.5t-24 31t-32.5 12.5q-20 0 -33.5 -15t-13.5 -33zM72 72q-2 28 11.5 63.5t36.5 62.5t53.5 37t62.5 -13q28 -22 37.5 -59.5t9.5 -76.5q0 -14 -0.5 -26t-1.5 -23q64 -8 144 -7.5t163.5 5.5
t164.5 14t147 18q16 2 12.5 -6t-13.5 -12q-25 -19 -68 -35t-97 -28t-116 -21t-125.5 -13.5t-125 -5t-113.5 3.5q-27 3 -59 9.5t-59 20t-45.5 35.5t-18.5 57z" />
    <glyph glyph-name="sf261.003" unicode="&#x613;" 
d="M-174 346q6 15 20 30.5t25 27.5q2 2 3.5 3t2.5 2q1 0 9 -5q12 -9 30.5 -24t27.5 -28q-14 -17 -27.5 -34.5t-27.5 -33.5q-14 14 -29 28t-34 34zM-132 78q22 0 46.5 0.5t47.5 2.5t43 5t34 8q8 8 4 14q-23 45 -56.5 52t-75.5 -35l-8.5 -8.5l-14 -14t-13.5 -14.5t-7 -10z
M-88 -115q43 13 72.5 22t49 15.5t30.5 10.5t17 7q13 6 29.5 15.5t31 20.5t25.5 25t14 29q1 22 -4 41.5t-11.5 34t-12 24.5t-5.5 14q1 8 4.5 20.5t7.5 24.5t8 21.5t7 11.5q14 -8 23 -23.5t14 -34t7 -37t2 -31.5q0 -60 -24.5 -114t-72.5 -90q-51 -19 -102.5 -20.5t-105.5 5.5
q-3 0 -6 3t2 5zM-312 88q11 38 16.5 53.5t8.5 24.5q17 -17 32.5 -38t35.5 -34q20 -15 36.5 -8t31.5 24q13 17 28.5 40t35 43.5t43 35.5t53.5 17q19 0 36.5 -10t31 -25.5t22 -35t8.5 -38.5q-3 -17 -7 -35.5t-12.5 -35.5t-24.5 -31t-43 -21q-15 -6 -42.5 -12t-60 -9.5
t-66.5 -2.5t-63 9q8 -51 0.5 -105.5t-28.5 -102.5q2 81 -13.5 154.5t-58.5 142.5z" />
    <glyph glyph-name="sf272.001" unicode="&#x612;" 
d="M-111 -146q-4 0 -11.5 4t1.5 8q38 11 75 22.5t75 22.5q17 5 38 15.5t39 24.5t30 31.5t11 37.5q-1 28 -10.5 50.5t-23.5 47.5q3 17 8.5 32.5t12.5 32.5q4 8 6 9.5t10 -3.5q22 -22 29.5 -53t7.5 -61q0 -60 -25.5 -116t-73.5 -92q-49 -17 -98.5 -16t-100.5 3zM43 59
q-48 -11 -92.5 -26t-83 -41t-70 -68t-54.5 -108q-4 -7 -6 -8.5t-1 10.5q2 78 39 144.5t98 111.5q-23 10 -51 10.5t-51 -10.5q-8 -5 -10.5 -4t-0.5 11q4 19 8.5 36t13 29.5t22 19.5t34.5 7q5 0 12 -0.5t24 -3t48.5 -8.5t85.5 -17q13 -3 26 -3.5t27 -1.5q11 0 13 -3.5
t-3 -13.5q-5 -17 -11 -32.5t-17 -30.5z" />
    <glyph glyph-name="sf262.002" unicode="&#xa0;" horiz-adv-x="257" 
 />
    <glyph glyph-name="sf281" horiz-adv-x="2374" 
d="M1701 11q0 -1 3.5 -4.5t8.5 -8t10 -9.5t7 -8q12 -9 28.5 -18t32.5 -9q0 5 -2 10t-2 7q-17 20 -36.5 31t-49.5 11v-2zM1088 733q5 16 9 33.5t4 36.5q0 10 -0.5 18.5t-5.5 19.5q-2 8 -7 14t-5 14q0 5 -1 13.5t8 8.5q4 0 4 -2q0 -1 5 -3q13 -20 15 -38t2 -39q0 -20 -5 -42
t-21 -37zM990 799h-2h-3l-109 -66l-3 -7q9 -5 28.5 -6t30.5 -1h22q8 2 17 4.5t14 6.5l7 9v1v59h-2zM1225 35q13 -5 25.5 -5.5t23.5 -0.5q26 0 49 4t43 24v17q0 15 -1 25.5t-6 24.5q0 11 -5 11l-121 -95zM113 151q8 -5 19.5 -5.5t19.5 -0.5q26 0 54 5t44 25v17v20
q0 3 -0.5 8.5t-1.5 13.5q0 1 -1.5 9t-6.5 8q-7 0 -7 -1l-116 -93q-4 -4 -4 -6zM1138 1098q0 -17 0.5 -36.5t4.5 -36.5q1 -15 17 -15q11 0 15.5 7t5.5 16t0 18.5t-1 15.5q0 13 1 20t2 11t2 6t1 4q5 0 6.5 -14t4 -30.5t9 -30t21.5 -13.5h6q2 0 2 11q0 16 -2 31.5t-2 31.5
q0 3 0.5 9.5t3.5 10.5q7 -4 7 -6q2 -20 8 -39t6 -38q0 -16 -6.5 -30.5t-24.5 -14.5q-11 0 -19 6.5t-14 11.5q-14 -24 -37 -24q-9 0 -19 8t-10 19v66q0 3 1 4t3.5 6zM1049 499q-1 -13 -7 -26t-21 -18l-29 -16v-1l-166 -75v2q1 4 3.5 17t4.5 16v4h3l208 97h4zM425 321
q-5 0 -13 -4l-12 -6v5q0 5 0.5 10t4.5 13q6 10 13.5 18t17.5 8h110q0 -10 -1 -17.5t-5 -15.5q-7 -14 -20 -25.5t-28 -20.5t-31 -15.5t-30 -10.5q-11 -7 -27.5 -11t-30.5 -9h-4v4q4 5 9 8t6 4t10 6t20 11t21.5 12t15.5 9q5 5 17.5 10t17.5 12v5h-61zM1491 570
q-15 202 -21.5 301t-8.5 104v11v7q0 1 0.5 3.5l1.5 7.5q0 17 5.5 31.5t5.5 22.5q5 7 9 17t9 13l15 -216v-5q0 -3 1 -20.5t2.5 -37.5t3.5 -37.5t4 -21.5v-50v-49q-5 -22 -10 -43t-16 -41zM451 -152q0 8 1 9q0 2 1 3t1 3q1 1 4 5.5t6.5 9.5l7 10t5.5 7q4 5 9.5 11.5t13.5 16.5
h4l76 -60q4 0 10 6.5t11 14.5q1 2 5.5 8t10.5 13t11.5 13.5t8.5 9.5h4h6l74 -75l-3 -5q-32 -35 -44 -50t-12 -13l-6 2l-67 61h-6h-3h-2q-14 -20 -26 -35.5t-28 -27.5q-8 1 -20 9.5t-24 19t-20.5 20.5t-8.5 14zM1233 381q0 5 0.5 7.5t4.5 9.5q4 3 10.5 12t10.5 13q0 4 8 13.5
t12 14.5q3 6 6 6h2q3 -5 12.5 -13t20.5 -17t21 -16.5t13 -9.5q0 -5 2 -5t7 -5q4 5 8.5 10.5t4.5 7.5q3 1 9 7.5t12 15t11 16t5 9.5l6 4q5 0 5.5 -1t0.5 -3q2 -2 10.5 -10t11.5 -9q3 -4 10 -11.5t15.5 -15t16 -14.5t10.5 -9v-5q0 2 -0.5 0t-1.5 -7q-5 -9 -14 -17.5t-20 -19.5
q0 -4 -7.5 -11.5l-11.5 -11.5h-1h-4l-73 65h-7q-12 -20 -24.5 -37t-28.5 -31q-3 0 -3.5 -0.5t-0.5 3.5q-5 2 -17 10.5t-16 12.5q0 2 -8.5 9.5t-15.5 11.5q-2 4 -7 8.5t-5 12.5zM1990 -141q0 5 8 5q66 13 123 34.5t109 66.5q12 12 29.5 31t23.5 37v13q0 30 -12.5 52.5
t-26.5 45.5v10q0 1 2.5 8t6 17l7 20t5.5 17q3 2 5 5t4 3h2q26 -20 37 -55.5t11 -67.5q0 -17 -1.5 -31.5t-6.5 -34.5q-7 -23 -20.5 -51.5t-32.5 -55.5t-42.5 -48t-49.5 -28q-5 0 -14.5 -1t-20.5 -2t-21 -2t-14 -1h-17h-18q-2 0 -8 0.5t-12 0.5h-7q-8 0 -9 1h-8q-5 0 -9 4
q-4 0 -13.5 1t-9.5 6zM816 691q2 5 3 10l2 10q5 11 15.5 23t20.5 20q32 31 68.5 50t74.5 40l5 23l26 52q2 0 2 -1v-2q3 -8 4.5 -24.5t1.5 -30.5v-15v-9q0 -21 -0.5 -43.5t-0.5 -43.5q0 -19 1 -42t7 -43.5t18.5 -34t36.5 -13.5q42 0 60.5 29t18.5 65q0 38 -2.5 72t-2.5 72
q0 32 3.5 61.5t13.5 59.5q2 2 3 2q2 0 2 1v3q0 3 1 4l2 -6l10 -94v-3q0 -3 1.5 -18.5t4 -35l5 -39t4.5 -29.5q4 -24 9.5 -48t16 -42.5t28.5 -30t47 -11.5h17q5 0 7 2.5t4 5.5v8q0 28 -6 55t-13.5 54t-13.5 54t-6 54v3q3 6 5 18.5t4 26.5t3.5 26.5t3.5 18.5q0 2 3 12.5
t3 15.5q0 4 0.5 7t5.5 7q0 -4 2.5 -6.5t2.5 -4.5l38 -247q3 -11 3.5 -20t0.5 -16v-33v-21q-3 -20 -12 -39.5t-19 -35.5q-4 -8 -11.5 -12t-16 -6t-16.5 -2.5t-13 -0.5q-26 0 -52 11t-35 34q-5 16 -6.5 28t-8.5 23q-4 -20 -12.5 -40.5t-22 -37t-31.5 -26.5t-41 -10
q-34 0 -53 16.5t-28 41t-11 53.5t-2 54q-5 -5 -7 -8t-4 -8l-3 -2q-16 -20 -34.5 -26.5t-41.5 -6.5q-9 0 -24.5 1t-30.5 5t-26.5 12.5t-11.5 23.5zM1376 29q-5 -5 -6.5 -12t-6.5 -9q-23 -28 -46 -35.5t-57 -7.5q-8 0 -24 0.5t-32 4t-27.5 11.5t-11.5 22q0 20 15.5 41.5
t29.5 36.5q4 5 9.5 11t10.5 11.5t9.5 9.5t5.5 4l114 72v40l17 56q0 1 1.5 2t2.5 3h3q3 0 3 -8l33 -239q7 -48 33.5 -78.5t77.5 -30.5q13 0 28.5 1.5t30.5 6.5t27.5 14t18.5 23l25 50q18 37 52 60t75 35t84 16t79 4q-23 23 -44.5 40t-45 27.5t-50.5 15t-61 2.5q0 4 -3 6
q0 2 1 4t2 7l27 48q5 5 16 3.5t16 -1.5q31 0 65.5 -14.5t56.5 -30.5l146 -100q21 -15 40.5 -19.5t44.5 -14.5q5 0 5 -4q0 -5 -4.5 -15t-10.5 -20.5t-12.5 -18.5t-10.5 -8q-12 0 -25.5 3.5t-24.5 8.5l-160 18h-34h-40q-2 0 -7 -0.5t-11 -1t-11.5 -1t-6.5 -0.5q-2 0 -8 -1
t-13 -3q0 -5 4.5 -8.5t9.5 -8.5q22 -20 42.5 -47t20.5 -58q0 -14 -4 -27.5t-11.5 -24.5t-19.5 -18t-27 -7q-21 0 -42 6t-40.5 17t-35.5 26.5t-26 33.5h-4q-9 -24 -20.5 -44.5t-27.5 -35t-37.5 -22.5t-50.5 -8q-48 0 -84 26t-48 74q-5 17 -7.5 38.5t-2.5 42.5zM260 135
q-5 -1 -9 -12t-9 -17q-19 -21 -43.5 -26.5t-50.5 -5.5q-9 0 -25.5 1t-32.5 4.5t-28 11.5t-12 22q0 12 10.5 29t25 34.5t30 32t25.5 20.5l106 71v32l19 70l5 -4l31 -233q2 -16 6.5 -33t15.5 -36q9 -22 38 -39q1 -6 11 -6q4 -4 22 -11h4h42q4 3 10 3q32 11 54.5 30t45.5 41
q4 8 13.5 17.5t13.5 9.5h2q0 -15 -7 -26t-7 -27q0 -8 9 -14t21 -10t24.5 -5.5t19.5 -1.5q21 0 42 6t29 25l5 3q1 5 1.5 11.5t0.5 14.5v13l-35 332v4q0 32 12.5 64.5t22.5 64.5v3h3l1 -5l45 -388q1 -20 8 -41.5t20 -40t31 -30.5t41 -12v5q-15 25 -24 46.5t-9 47.5
q0 11 1.5 19t2.5 17v6q0 1 1.5 3t1.5 4v4q0 1 3 1v1v4v1h3v4v2q2 0 2 4q0 1 3 1q1 0 1 4q0 1 1 3t1 3l2 4q43 64 122 64q107 0 181 -78q4 -1 10 -8.5t6 -8.5l3 -5q0 -5 -4 -5h-4q-38 10 -73 15t-77 5h-36q-5 0 -15.5 -2t-15.5 -3q-3 0 -13.5 -2t-18.5 -3q-4 0 -12 -5.5
t-16 -10.5l-7 -2q-2 0 -2 -1q0 -2 -3 -2q-6 -2 -6 -8v-4q0 -5 2 -9l4 -8q9 -19 22 -36.5t29.5 -31t37 -22t43.5 -8.5t47 6.5t47 16t44.5 21t39.5 21.5h5v-3q-16 -25 -18 -34q-13 -23 -31 -39.5t-39 -28t-44 -19.5t-45 -14q-9 -2 -15.5 -3.5t-12.5 -1.5q-5 -5 -10 -5
q-14 -2 -27.5 -3.5t-28.5 -6.5h-14q-56 0 -97.5 21t-58.5 74h-3q-7 -15 -11.5 -30t-13.5 -29q-13 -27 -33 -42.5t-58 -15.5q-35 0 -60.5 15t-42.5 49h-3q-20 -34 -52 -58.5t-74 -24.5h-10q-1 0 -4 0.5t-8 1.5h-3h-2l-4 4q-7 0 -12.5 1t-13.5 6t-16 8t-8 8q-17 15 -30.5 35.5
t-18.5 46.5q-7 17 -8.5 38.5t-6.5 33.5z" />
    <glyph glyph-name="sf274.004" horiz-adv-x="2062" 
d="M1077 1014q-6 -11 -17.5 -20.5t-22.5 -9.5q-20 0 -26.5 15t-6.5 31v22v32q2 3 4 9.5t4 12.5l3 4q1 0 1 -5q5 -20 2.5 -35t2.5 -35q2 -17 19 -17q24 0 24 23v57q0 4 0.5 9.5t1 8t2.5 1t5 -10.5q0 -3 1.5 -10.5t3.5 -16.5t3.5 -16.5t1.5 -10.5q0 -10 11 -17.5t19 -7.5
q4 0 4 7q0 20 -3 42.5t-1 39.5q0 10 2 11.5t6 -8.5q4 -7 7.5 -19.5t5.5 -25t3.5 -23.5t1.5 -16q0 -16 -5.5 -28t-25.5 -12q-18 0 -31 19zM634 939q0 -4 8 -12t18.5 -16.5t20.5 -15t13 -6.5q0 8 -0.5 19.5t-3 22t-8 17.5t-15.5 7q-12 0 -17.5 -3.5t-15.5 -12.5zM972 776
q0 20 -3.5 39t-12.5 37v6v20h4q9 0 15.5 -11.5t10.5 -26.5t6 -29t2 -19q0 -20 -4.5 -38.5t-17.5 -35.5l-6 -8h-3q0 18 4.5 33.5t4.5 32.5zM739 696q13 -2 35 -4t42 0t34 10t12 25v10q0 8 -0.5 16.5t-0.5 16.5v11q0 6 -6 0q-28 -20 -56 -37t-60 -38q-8 -5 -6.5 -5.5t6.5 -4.5
zM729 863q0 -10 -1 -20t-9 -20q-5 4 -13.5 7t-12.5 4q-21 -32 -53 -60t-70 -53.5t-80 -47t-83 -39.5q31 28 66 53.5t70 51.5t68.5 53.5t61.5 59.5q1 1 -7 7.5t-18.5 17t-19.5 24t-9 28.5q0 13 3 26.5t9.5 24t17.5 17.5t27 7q18 0 25.5 -15t9 -35t-0.5 -40t-2 -30
q0 -5 3.5 -7t7 -3.5t7 -3.5t3.5 -7zM270 651q2 -7 9.5 -15t16.5 -15.5t16.5 -12.5t10.5 -6q3 3 3 15q0 16 -8 32.5t-22 16.5q-5 0 -13.5 -4.5t-12.5 -10.5zM1365 966q-4 32 4 63t25 56q5 -85 15.5 -182.5t18.5 -194.5q5 -39 0 -80.5t-21 -77.5zM867 675q-17 -32 -38 -42.5
t-56 -10.5q-11 0 -27.5 1t-31.5 4.5t-25.5 11t-10.5 20.5t7 26.5t17.5 25.5t22 22.5t21.5 18.5q31 22 59.5 38.5t61.5 32.5q6 8 3.5 13t1.5 14q1 3 4.5 10.5t7.5 16t7.5 16t4.5 10.5q5 8 5 0q3 -17 4 -35t1 -35v-71q0 -36 2.5 -71t13.5 -66q9 -19 26.5 -27.5t37 -7
t37.5 12.5t28 31q10 13 10.5 46.5t-2.5 70.5t-7.5 69t-4.5 43q4 30 10.5 60t14.5 60h1q8 -66 17.5 -130.5t22.5 -130.5q5 -23 12 -44t19 -36.5t29 -24t43 -6.5q6 0 19.5 2.5t13.5 14.5q-3 31 -11 61.5l-16 61t-14.5 62t-6.5 64.5q3 25 7.5 52.5t9.5 57.5q4 9 5 9q4 0 6 -9
q9 -73 24 -145t27 -147q10 -37 2 -74.5t-28 -70.5q-13 -9 -34.5 -13.5t-30.5 -4.5q-12 0 -27.5 2.5t-30.5 12t-27.5 29t-19.5 54.5q-5 -21 -15 -43.5t-24.5 -40.5t-33.5 -29.5t-43 -11.5q-33 0 -53 17.5t-30.5 43.5t-14 55.5t-3.5 53.5zM252 644q0 10 3.5 22t10 22.5
t17 17.5t24.5 7q18 -5 25.5 -18.5t9 -31.5t-0.5 -37.5t-3 -35.5q0 -1 8.5 -4t8.5 -13q0 -4 -2 -16.5t-2 -16.5q-7 -2 -15.5 1t-13.5 8q-20 -35 -60 -69t-83 -61t-79.5 -45t-49.5 -21q28 30 66 59t74.5 55.5t67 51t43.5 45.5q0 3 -7.5 9t-17 16t-17 23.5t-7.5 31.5zM1422 451
q1 2 3 3.5t6 -3.5q23 -17 41.5 -31.5t38.5 -32.5q3 -2 0 -14q-3 -8 -10 -18.5t-14.5 -21t-14.5 -19t-11 -12.5q-5 -5 -8 -3.5t-8 3.5q-17 11 -31 22.5t-30 26.5q-7 5 -11.5 11.5t2.5 16.5q11 17 23.5 37.5t23.5 34.5zM561 302q-15 -23 -28.5 -40t-24.5 -31q-6 -5 -11 0
q-17 9 -38.5 26t-36.5 34q-11 6 -2 8q11 20 25 41.5t25 38.5q4 3 5 3q3 0 6 -3q20 -17 40 -32t40 -31q4 -4 2.5 -7t-2.5 -7zM118 157q10 -1 26.5 -2.5t35.5 -1t39 5t38 15.5q5 5 10 10.5t5 8.5q0 17 -3 34.5t-6 32.5q0 16 -11 7q-33 -29 -67 -56t-67 -54zM1472 109
q12 -1 28 -2.5t36 -1.5q28 0 60.5 2.5t66.5 6t67 9t63 11.5q-21 48 -47.5 68.5t-68.5 20.5q-30 0 -58 -10t-54 -26.5t-49 -36.5t-44 -41zM1678 -98q82 13 146 47t118 91q19 22 24.5 42.5t1 41t-17 41t-28.5 41.5l24 79q4 11 11.5 7t10.5 -14q20 -24 32 -55.5t12 -65.5
q0 -45 -14.5 -85t-37.5 -78q-10 -16 -21.5 -33t-26 -32t-31 -25.5t-36.5 -13.5q-22 -5 -43 -6t-42 -1q-20 0 -41 1t-42 4q-20 2 -20 8q0 4 21 6zM1613 -40q0 -11 -9 -28.5t-21 -23.5q-54 -27 -107.5 -52.5t-110.5 -53.5q0 4 1 11.5t2.5 15t2.5 14t1 9.5zM1302 13
q1 -38 -16 -65.5t-44 -48t-59 -36t-60 -29.5q-30 -16 -58 -25t-58 -9q-57 -2 -92.5 26.5t-52 72.5t-16 95t15.5 94q-31 -8 -64 -21t-68 -32q-21 -8 -44 -9t-43.5 5.5t-37 21t-24.5 37.5q-20 -52 -59.5 -82t-93.5 -30q-41 0 -67.5 15t-43 39.5t-24 56t-9.5 65.5
q-20 -41 -55 -55.5t-78 -14.5q-9 0 -24.5 1t-31.5 4.5t-27.5 11.5t-11.5 22q0 31 46 85.5t156 120.5v40l20 66q1 3 3.5 5.5t3.5 -5.5q10 -63 21 -130t22 -127q7 -39 26.5 -64t45.5 -36.5t55.5 -9.5t56.5 15t48.5 37.5t31.5 59.5q5 -36 23.5 -54t43 -21.5t52.5 4t52 21.5
q-16 18 -31.5 40t-26 45.5t-13.5 48t6 47.5q12 28 23 51t26.5 39t38 25t58.5 9q48 -2 92.5 -24t75.5 -60q11 -15 5 -17t-22 6q-27 11 -60.5 14.5t-67.5 0t-64.5 -13.5t-51.5 -25q-10 -10 -15 -19t3 -24q27 -44 63.5 -64t77 -24t82.5 5.5t80 24.5q11 1 23 7.5t23 8.5
q-2 -6 -8 -18t-13 -24.5t-13 -23t-8 -13.5q-39 -15 -79 -27t-79 -26q-12 -32 -12 -64q0 -48 21 -86t59 -53q37 -15 83.5 -8t90.5 23.5t80.5 36.5t53.5 30q15 10 13 17.5t-18 11.5q-21 5 -52 8t-59 10.5t-47.5 22.5t-17.5 44q0 24 12.5 44t31.5 36.5t40 29.5t38 23
q28 16 50 16q35 0 54.5 -25.5t36.5 -63.5q14 -22 40.5 -30t52.5 -8q28 36 63 71t73 62t77 42.5t76 12.5t69.5 -28t56.5 -78q6 -11 5.5 -23t-5 -24.5t-10.5 -25t-11 -24.5q-8 -21 -32 -33t-44 -18q-150 -42 -360 -13q-10 -10 -22 -26.5t-20 -26.5q-5 -4 -8 -1t-1 8
q3 14 12.5 27t20.5 24q-21 7 -36.5 17.5t-27 24t-21 29.5t-19.5 35q-9 21 -22.5 28t-29.5 4t-33 -12.5t-33 -20.5q-11 -8 -19 -16t-10 -15.5t3.5 -15t21.5 -15.5q18 -9 43.5 -13.5t49 -10.5t40 -16t16.5 -30z" />
    <glyph glyph-name="sf276" horiz-adv-x="1171" 
d="M265 482q4 12 6.5 21t2.5 22q0 15 -3.5 28t-12.5 27v8q0 2 -0.5 9t3.5 7q6 0 11 -9t8.5 -20.5t5 -22t1.5 -14.5q0 -14 -3.5 -29.5t-13.5 -26.5q0 -3 -3 -3q-2 0 -2 1v1v1zM249 451q0 5 1 12t5 9l3 -39q0 -8 9 -8q10 0 13 8v30v12l1 1h2q1 0 3 -6q0 -3 2 -14.5t4 -14.5
q1 -4 4 -7.5t8 -3.5q3 0 3 3v3q0 8 -1.5 16t-1.5 17v5q0 5 2 7h1q2 0 4 -6t3.5 -13.5t2.5 -15t1 -10.5q0 -8 -3 -14.5t-13 -6.5q-5 0 -8 2t-7 5h-1q-2 -5 -7.5 -9t-11.5 -4q-7 0 -11.5 4t-6.5 9v29zM916 388h-16q-13 0 -22.5 -1.5t-20.5 -7.5v5q2 20 13.5 27t19.5 7h10
q7 0 15 0.5t17 0.5h14h5q4 0 4 -3q0 -12 -8 -23.5t-19.5 -21t-24.5 -16t-23 -9.5q-11 -4 -25 -9.5t-17 -5.5h-1q0 3 6 9q1 1 5.5 4t5.5 3l59 37zM97 230q1 -1 5 -2t5 -1q7 0 8 -1h15h16q13 2 21 5.5t8 18.5v7v10q0 14 -3 14h-2l-70 -48q-3 0 -3 -3zM614 224q5 -5 11 -7
q4 -2 10.5 -5t7.5 -5q2 0 13 -4t17 -5q2 -2 7 -2q0 3 -4.5 8.5t-9.5 11.5t-9.5 10.5l-5.5 5.5q-4 2 -5.5 2.5t-5.5 0.5q-8 0 -13 -3t-13 -8zM467 457v5q0 10 3.5 22t5.5 20q0 1 3 9q2 2 5 10h1v-25l25 -206q0 -2 0.5 -11t0.5 -16v-1v-2v-8v-6q0 -6 -1 -7q0 -2 -1 -8.5
t-2 -8.5q0 -5 -2 -15.5t-7 -13.5l-2 4zM180 217q-13 -23 -26.5 -29.5t-39.5 -6.5q-5 0 -14 0.5t-17.5 3t-15 7t-6.5 12.5q0 9 5.5 18t13 17.5t15.5 15.5t14 12q3 1 10 5t15.5 9.5t15.5 10t10 6.5q2 1 9 5t9 6l1.5 7.5t0.5 1.5q0 8 1 9q2 2 6 13t6 13q0 3 3 6l2 -1
q0 -1 0.5 -7.5t1.5 -15t1.5 -17t0.5 -14.5q0 -3 0.5 -13.5t0.5 -22.5t0.5 -22.5t0.5 -12.5q0 -12 2 -24t7 -22t14 -16.5t23 -6.5q27 0 38 18.5t11 41.5v12l-7 86v6q0 16 2 31t4 29q2 5 3 12t1 5q0 2 2 2q2 -2 2 -3v-1l22 -144q2 -12 6 -26t10.5 -26.5t17 -20.5t25.5 -8
q2 0 9 1t8 1q4 0 8 2t4 5v3q0 4 -1.5 12.5t-1.5 9.5l-23 86q-2 2 -3.5 12t-2.5 14v10v10q2 16 3.5 32.5t6.5 33.5q0 3 3 6q4 0 4 -4l34 -173q2 -9 3 -19.5t1 -20.5q0 -16 -6.5 -31t-13.5 -29q-10 -5 -20.5 -7t-20.5 -2q-17 0 -33 5.5t-21 22.5q0 2 -4 13t-4 13q-2 3 -3 3
q-2 -13 -7.5 -26.5t-14.5 -24t-21 -17.5t-27 -7q-20 0 -32.5 10.5t-19.5 26t-9 34t-2 34.5zM1055 85q0 1 -3 4v2q0 2 2 4q1 2 7.5 11t8.5 11q2 1 4.5 4t3.5 3h2q1 -1 12 -9.5t17 -13.5q2 -2 3.5 -3t1.5 -3t-3.5 -7.5t-8 -11.5t-9 -10.5t-6.5 -4.5q-4 0 -9 5q-3 2 -12 9.5
t-11 9.5zM390 58q109 52 162 78t55 27q4 3 4 4v2q-9 5 -20.5 12t-11.5 20q0 9 8 22.5t19.5 26t23.5 21.5t21 9t16.5 -5t14 -12t11.5 -14.5t10 -12.5q16 -18 33.5 -28t41.5 -10q18 0 34 3.5t32 12.5q7 3 11 10.5t11 7.5q0 -8 -3.5 -15t-3.5 -15q9 -3 19 -3h19q17 0 30.5 3.5
t24.5 17.5q2 3 4.5 9.5t7.5 6.5q3 0 3 -6q0 -8 -6 -15t-6 -16h2q1 -1 8 -1h8q14 0 26.5 1t23.5 6q3 3 6.5 8.5t7.5 11.5t7 10t5 4t3 -1v-5q0 -3 -0.5 -6.5t-0.5 -6.5q0 -8 10.5 -12t16.5 -6q11 -1 18.5 -2t17.5 -1h7v2v3q0 29 -11.5 58t-25.5 53q-1 3 -5.5 11t-10 17.5
t-10.5 18t-7 11.5q-2 5 -7.5 11.5t-10.5 11.5h-3h-3h-3h-3q-9 12 -16.5 24t-12.5 25v5q0 2 1 8.5t2.5 13t4.5 11.5t6 5q6 0 10.5 -4t6.5 -8q21 -25 42.5 -54.5t38 -62t27 -67t10.5 -68.5q0 -6 -0.5 -17t-2.5 -22.5t-6.5 -21t-11.5 -12.5h-14q-13 0 -32.5 2t-30.5 11
q-5 5 -7 9.5t-4 9.5q-16 -15 -32.5 -23t-39.5 -8q-7 0 -12 1.5t-11 3.5q-2 0 -4.5 2t-4.5 2q-16 -5 -30 -7t-29 -2q-11 0 -22.5 1.5t-18.5 12.5q-5 -2 -9.5 -5t-9.5 -4q-11 -6 -25 -6h-24q-20 0 -34.5 6.5t-28.5 20.5q-5 -7 -11.5 -18t-17.5 -11q-10 0 -20.5 4.5t-17.5 6.5
h-5q-2 -2 -5 -8t-3 -7q-2 -2 -3 -6q-30 -31 -69.5 -49.5t-82.5 -25.5q-8 -2 -20.5 -4l-25 -4t-22 -3t-10.5 -1h-5q2 4 5.5 4.5t5.5 1.5zM352 17v-2h-2v2h2zM127 126v-3q0 -7 -1 -15t-6 -13l-119 -88l5 30zM642 91v-3q0 -2 -0.5 -7t-1.5 -12l-1 -2l-86 -63l-3 -1v1v2
q1 2 2 11.5t2 11.5q0 -2 0.5 -1t1.5 6l86 61v-4zM1171 92l-6 -28l-87 -64v3v1q0 5 3 25l2 2z" />
    <glyph glyph-name="sf279" horiz-adv-x="6700" 
d="M4532 777q6 26 11 47.5t5 54.5q0 35 -7 65.5t-26 63.5q0 18 -1 24t-1 13t2 12.5t8 5.5q14 0 25 -20.5t18.5 -47.5t11.5 -53t4 -36q0 -33 -7.5 -69t-27.5 -60l-9 -6h-4q0 2 -2 2v4zM4495 638q0 19 -3.5 33t-3.5 34q0 13 5.5 27.5t14.5 18.5l7 -90q0 -18 23 -18q8 0 16 2
t8 16v73q0 20 7 27q4 0 7 -14q2 -4 4.5 -13.5t4.5 -20.5t3 -20.5t1 -13.5q6 -12 13 -17.5t13 -6.5t10 1t4 5v7q0 20 -2.5 38.5t-2.5 39.5v12q0 4 1 8.5t3 6.5q5 0 10 -13.5t8.5 -31.5t6 -35.5t2.5 -24.5q0 -21 -6 -37.5t-32 -16.5q-14 0 -20 7.5t-15 16.5h-1q-9 -14 -21 -24
t-26 -10t-26 9t-13 25zM6057 558h-36q-34 0 -56.5 -4t-48.5 -19v12q0 38 25.5 58t58.5 21q2 0 18 1t36 1q21 0 41 0.5t32 0.5h7q12 0 12 -4q0 -31 -18.5 -58.5t-45.5 -49.5t-57.5 -37.5t-53.5 -22.5q-15 -10 -40 -16.5t-59 -15.5h-3q0 4 6 8.5t7 8.5q6 2 16.5 10t13.5 8
l137 87zM4137 187q2 -2 8 -3.5t14 -4.5q1 0 6.5 -1t14.5 -3h35h39q14 3 26 6t21 8.5t14 15t5 26.5v20v24q0 11 -1 20.5t-6 9.5h-1q-172 -109 -172 -114q-3 -2 -3 -4zM5351 173q2 -9 12 -13t11 -4q3 -3 9.5 -6.5l13 -7t13 -6t9.5 -3.5q3 0 11 -2.5t18 -6t19.5 -7t15.5 -4.5
q1 -3 4 -4t4 -1h10q0 8 -9 21t-20 25.5t-21 22.5t-12 13q-9 5 -12.5 5.5t-16.5 0.5q-19 0 -29.5 -5t-29.5 -18zM5004 718v12q0 22 6.5 49.5t11.5 46.5q4 2 6.5 10.5t4.5 13.5q1 1 4 8t8 17h3v-63l57 -481v-63v-2v-3v-53q0 -1 -1.5 -6t-3 -11t-2.5 -11.5t-1 -8.5
q-2 -6 -4.5 -16t-4.5 -20t-4.5 -18.5t-5.5 -12.5l-6 10zM4328 156q-14 -28 -27.5 -45t-30.5 -26t-39 -12t-52 -3q-12 0 -33 1.5t-41.5 7.5t-35.5 17.5t-15 31.5t11.5 41t29 40.5t37 36.5t35.5 29q6 1 23 10.5t36.5 21.5t36.5 22.5t22 13.5q1 3 6.5 6.5t12.5 7t14 7.5t10 7
q4 7 4 20v11q0 1 0.5 4t1.5 8q3 3 6.5 11t7 18t7 19t6.5 14q3 7 11 12v-4q2 0 4.5 -14.5t5 -34.5t4 -41.5t1.5 -34.5v-164q2 -28 6.5 -57t16 -52.5t32 -38.5t53.5 -15q32 0 54.5 12t36.5 31.5t20.5 45t6.5 52.5v29l-24 200v14q0 36 7 71t12 71q0 6 4.5 17.5t4.5 18.5
q3 0 3 7q3 -3 4.5 -5t3.5 -6l52 -336q2 -28 10.5 -61.5t25 -62t41.5 -48t61 -19.5h21q6 0 11.5 2t7.5 3q9 0 18 4.5t9 12.5v5q-1 7 -2.5 16t-3 17t-3 14t-2.5 7l-51 199q0 3 -1.5 12t-4 19t-4 19.5t-1.5 14.5v22v22q5 42 9.5 80t12.5 74q2 6 2.5 9t5.5 10q3 0 4 -3t1 -5v-4
l81 -405q6 -22 7 -46.5t1 -45.5q0 -42 -15 -75.5t-32 -66.5q-21 -13 -45.5 -17t-51.5 -4q-17 0 -36 3t-36 10.5t-30 19t-19 29.5q-2 4 -5.5 13.5l-7 19t-6.5 18t-4 11.5q0 3 -5 8q-6 -32 -19 -63.5t-33 -56.5t-48 -40.5t-64 -15.5q-50 0 -79 24.5t-44.5 61t-20.5 80t-7 81.5
zM6383 -156q-3 3 -5.5 7t-4.5 4v3q0 5 1 6.5t1 5.5q3 3 9 10.5t12.5 15.5t11.5 15t6 10q2 2 7 5t12 11q4 0 13 -6t20 -14t22.5 -17t20.5 -16q5 -4 8.5 -5.5t3.5 -8.5q0 -6 -9 -19t-20.5 -26.5t-22.5 -24t-14 -10.5q-5 0 -9.5 4t-12.5 10q-2 2 -9.5 8t-16 12.5t-15.5 12
t-9 7.5zM5321 26q4 0 11 4t7 10v2q-10 6 -23 12.5t-25 15.5t-20.5 21t-8.5 29q0 21 19.5 52t47 60t58 49.5t52.5 20.5q21 0 37.5 -11.5t30 -27.5t25 -33t22.5 -28q41 -44 83 -66.5t99 -22.5q42 0 78.5 7t73.5 27q6 4 12 11l12 14t12.5 12.5t14.5 5.5q0 -20 -7.5 -36
t-7.5 -33q20 -6 40.5 -7t47.5 -1q40 0 71 9t58 39q2 4 5 11t6.5 14t8 11.5t10.5 4.5q5 0 5 -15q0 -10 -4.5 -18.5t-10 -17t-10 -17t-4.5 -18.5h5q4 -3 18 -3h20h2q30 0 59.5 2t55.5 15q10 4 18.5 17t16 26.5t14.5 24t13 10.5q4 0 4 -4l2 -9q0 -9 -1 -17t-1 -17
q0 -10 7.5 -16t18 -10.5t21 -7.5t16.5 -6q26 -1 45 -3t40 -2h12l4 4v8q0 69 -26.5 134t-59.5 122q-5 6 -16 25t-23 41t-23 42t-16 28q-8 12 -19 27.5t-23 28.5h-6q-7 -4 -18 -4q-4 0 -8 4q-17 25 -34 53t-33 60v14q0 5 2 19.5t6.5 29.5t11 27t15.5 12q15 0 23 -10.5
t17 -19.5q50 -59 99.5 -128t89 -145t64 -155.5t24.5 -159.5q0 -15 -1.5 -41.5t-7 -53.5t-16.5 -49t-29 -29h-28h-35q-29 0 -62 6.5t-52 25.5q-12 14 -14.5 22t-7.5 21q-40 -36 -79.5 -54.5t-95.5 -18.5q-14 0 -26 2.5t-26 9.5q-5 0 -9.5 6t-10.5 6q-66 -24 -136 -24
q-27 0 -52 3.5t-45 29.5q-13 -5 -22 -12.5t-22 -8.5q-27 -13 -58 -15t-59 -2q-45 0 -79 16t-68 50h-2q-4 -8 -10 -20.5t-14.5 -23.5t-19 -18t-22.5 -4q-23 6 -38.5 11t-28.5 4.5t-26 -9t-31 -29.5q-72 -77 -163 -118t-197 -58q-17 -5 -46.5 -10t-58.5 -9.5t-51 -7t-23 -2.5
h-12q3 8 11.5 9.5t15.5 3.5zM4730 -317v3v-3zM4208 -58v-9q0 -15 -2 -32.5t-14 -30.5l-282 -206l16 70zM5414 -142v-5q0 -13 -2 -28t-4 -15v-5l-203 -147l-6 -3v3v5q0 2 1 9.5t2 15.5t2 15.5t1 9.5q6 6 6 9v3l203 145v-12zM6650 -136l-8 -66l-209 -149v6v3q2 7 4.5 21
t5.5 34v6zM1560 914q7 0 7 -8h-7v8zM2951 416q10 -12 24 -25.5t30.5 -24t34.5 -17.5t36 -7h14q-7 16 -20.5 30t-30.5 23.5t-35.5 15t-34.5 5.5h-18zM600 332q12 -19 36 -28.5t44 -14.5q6 -3 16.5 -7t21 -7.5t19 -6t10.5 -2.5h9l-5 2q-5 17 -17.5 32.5t-24.5 31.5
q-6 2 -14 9.5t-13 12.5q-1 1 -6 1h-10q-21 0 -32 -4t-26 -16q-5 0 -8 -3zM3487 848q5 -9 6 -18t1 -19v-38q4 -11 9 -12.5t12 -1.5q21 0 21 17v72v12h4l2 -1q3 -12 5 -28t6 -30t12.5 -23.5t24.5 -9.5q0 24 -4 43.5t-4 39.5q0 6 2 9t3 7h3q4 0 4 -3l17 -73v-9q0 -21 -6 -34.5
t-24 -13.5q-9 0 -17 6.5t-13 10.5q-8 -12 -17.5 -20t-21.5 -8q-14 0 -24.5 11t-10.5 25v65q0 2 2.5 9.5t4.5 14.5h3zM2547 676q0 4 8 17t19 26.5t22 24t17 10.5h2l5 -3l70 -75q0 -14 -15 -27q-1 -3 -6 -9t-11 -13t-12.5 -13.5l-9.5 -9.5q-2 -2 -6.5 -2.5t-7.5 -0.5
q-8 0 -20.5 9t-24.5 21t-21 24.5t-9 20.5zM1847 617v9q0 7 4 19.5t9 17.5v7h4l7 -109q0 -11 8.5 -14.5t17.5 -3.5q25 0 27 23v83q0 2 3 12t3 15q0 3 1 3q7 0 7 -9l19 -80q2 -32 32 -32q12 0 15 3v9q0 26 -3.5 48.5t-6.5 38.5t-2 25t10 9q6 0 11 -17.5t9.5 -39.5t7 -42.5
t2.5 -25.5q0 -20 -9 -38t-34 -18q-23 0 -44 26q-8 -14 -21 -27t-34 -13q-19 0 -30 12t-13 32v77zM2930 -35h7v-8q0 -5 -1.5 -18.5t-6.5 -35.5l-4 -4l-280 -208h-4l4 8q0 8 1 21.5t3 37.5l8 4zM3281 917l400 152q-3 -2 -6 -9t-6 -15t-5.5 -14.5t-3.5 -7.5q-5 -2 -5.5 -5.5
t-6.5 -5.5l-396 -161v9zM1812 191v-4q-1 -2 -2.5 -9t-3 -14.5t-3 -14t-1.5 -7.5q-4 -7 -4 -10q0 -2 -2 -2l-369 -227h-7l15 62q0 7 6 7l364 215zM2755 585q13 44 20.5 82.5t7.5 86.5q0 42 -5.5 79t-22.5 70q-2 4 -7 11t-10 15t-9 16.5t-4 14.5v6q0 4 1 16.5t5 31.5q0 7 1 14
t6 7q10 0 18.5 -6t15 -14.5t11 -17.5t7.5 -16q25 -45 33.5 -92t8.5 -98q0 -26 -3 -56.5t-11.5 -60.5t-22 -56t-34.5 -42l-6 7v2zM1391 966q-29 0 -50 -2.5t-47 -17.5v11q0 41 37 66q6 3 17 7.5t20 5.5q39 0 81 1.5t80 1.5q0 -29 -15 -55t-39.5 -47.5t-55.5 -39t-62.5 -30.5
t-61 -21t-51.5 -11q0 3 6 7.5t9 5.5l168 109l6 9h-42zM1032 -9q0 4 9 18.5t20 29.5t21 27t13 12q6 0 16 -8.5t22 -18.5t24.5 -18.5t23.5 -8.5h3q17 15 29 34.5t27 30.5h4l8 -3l74 -48q2 -5 3.5 -8.5t1.5 -9.5q0 -3 -4 -10q-4 -3 -11 -11.5t-14 -17.5t-12 -16t-5 -8
q-9 -9 -11.5 -12t-7.5 -3q-6 0 -18 8t-25 18t-24 19.5t-14 12.5q-6 -5 -13.5 -17.5t-15.5 -25t-16.5 -22t-17.5 -9.5q-7 0 -22 7.5t-30 18t-26.5 21.5t-11.5 18zM3910 832v19q0 11 3 34.5t8.5 48t14 45t19.5 26.5v-64l57 -481v-121q0 -3 -1.5 -8.5t-3 -12.5t-2.5 -12.5
t-1 -8.5q0 -1 -1.5 -5.5t-3 -10.5t-3 -11t-1.5 -7q-3 -1 -3.5 -11t-5.5 -14l-4 -8l-3 13zM2386 835v24q0 3 2 15t5 29t7 35t9 34t10.5 26t10.5 10v-54l58 -529v-27v-35v-14v-10q0 -5 -2 -7q0 -9 -2 -24.5t-6 -31.5t-9 -29t-11 -17q-5 12 -6 24t1 21zM968 638l1064 307
q-1 -3 -3.5 -9.5t-5 -14t-4.5 -14t-2 -8.5t-9 -11q0 -2 -2 -2h-2l-1073 -328v3zM3158 -79q0 4 7 5l44 7q101 27 175 76.5t136 132.5q12 11 17.5 22t13.5 31v5q0 3 -9 8l-26 20t-23.5 22t-17 25.5t-6.5 29.5q0 47 13 72q0 5 2 12.5t10 12.5l4 -4q16 -22 30.5 -38.5t31 -27
t37 -16t48.5 -5.5q22 0 44 1t46 7l6 4v40l-30 371v66q0 4 -6.5 10.5l-14.5 14.5t-14.5 17t-6.5 18q0 12 3.5 21.5t8.5 17.5q3 3 8.5 12.5t12 20.5t13 21t9.5 13q0 5 5 5q0 -20 7 -34t18.5 -25t25.5 -21.5t29 -23.5q7 -4 7 -7v-9l-46 -86l26 -340v-83q0 -2 -4.5 -11t-4.5 -14
q-4 -14 -9.5 -31t-13.5 -33t-20 -28.5t-29 -18.5q-9 -5 -21 -5.5t-19 -0.5h-93l-1 -5q-9 -32 -28 -77t-46 -87t-60 -74.5t-69 -39.5q-6 0 -26 -1.5t-43 -4t-43.5 -4t-27.5 -1.5h-7h-15q-19 0 -36 3.5t-22 11.5zM1620 -103q0 1 19.5 6.5t45.5 12.5t51.5 14t37.5 12
q36 21 65 40t54.5 40.5t48.5 47t47 60.5q6 9 14 19.5t8 22.5q0 6 -12.5 13.5t-27.5 19.5t-27.5 30t-12.5 45v10q0 5 2 16t2 13q2 9 5.5 22.5t8.5 33.5q4 2 6 1t3 -1l20 -33q20 -26 49 -39.5t60 -13.5h81h9h2h5h7h2q6 1 12 3.5t6 3.5l-34 409v12v44q0 10 -6 17.5t-12.5 15
t-12.5 16t-6 22.5q0 29 17 54l34 50l7 9h3q0 -7 2 -20t2 -19l3 -3q14 -21 33.5 -34.5t40.5 -30.5q1 -1 1 -6q0 -11 -5.5 -23t-12.5 -25t-14.5 -25t-11.5 -22v-3q7 -91 15 -186.5t8 -192.5v-47q-1 -7 -3.5 -17t-6 -20.5t-7.5 -20.5t-7 -16q-9 -20 -20 -33t-25 -22
q-7 -5 -19.5 -7.5t-23.5 -2.5h-10h-34h-60q-20 -51 -42 -96t-55 -87q-26 -42 -55.5 -66.5t-77.5 -29.5q-6 0 -17.5 -1t-22.5 -2t-19.5 -2t-9.5 -1q-3 0 -17.5 -1t-28.5 -1q-18 0 -36.5 1t-38.5 7q-6 3 -6 7zM895 -190q-35 17 -69 36.5t-66 42.5t-54 42t-35 36
q-11 17 -18.5 26.5t-9.5 11.5l-15 20t-14 19q-3 5 -11.5 24t-20.5 45h-2q-76 -70 -162 -107t-186 -53q-17 -3 -44.5 -7.5t-54.5 -9t-48 -7.5t-24 -3h-11q5 5 12.5 9t12.5 7l481 230q10 10 24 15q4 0 14 13v2q-27 10 -50 27.5t-23 45.5q0 27 17 56.5t37 51.5q3 0 9 6t13 14.5
t14 16t12 10.5q11 14 27 24t32 10q20 0 35.5 -9t29 -22.5t25 -29t23.5 -28.5q38 -51 83 -79t108 -28q69 0 126 29t108 80h1l5 -2q2 -48 28.5 -64t71.5 -16q40 0 80 10.5t80 33.5l43 22q0 4 -9 10.5t-21.5 14t-25.5 15t-21 13.5q-44 24 -96 24q-18 0 -26.5 -5t-24.5 -5
q-7 0 -7 10q0 9 1 13t6 13q8 20 15 31.5t16.5 17.5t23.5 7.5t37 1.5q28 0 54.5 -8t52 -20.5t50.5 -27.5t50 -28q111 -60 236 -63v-4l-49 -76h-122q-5 0 -23 -3t-32 -3q-4 -7 -15 -7q-9 0 -12 -5l-154 -62q-27 -14 -58.5 -21t-60.5 -7q-48 0 -82.5 21t-46.5 69h-1v-2
q-24 -35 -49.5 -57.5t-55 -36.5t-64 -19.5t-75.5 -5.5q-45 0 -77.5 16.5t-67.5 49.5q-6 -10 -13 -21.5t-15.5 -21.5t-18 -16.5t-21.5 -6.5q-23 0 -49 7.5t-48 15.5h-2q-2 0 -6.5 -7.5t-10 -16.5t-10.5 -17t-7 -10q1 -6 8 -10t9 -10q63 -55 126 -100.5t140 -81.5q9 -6 29 -16
t41 -19t38 -16t20 -7l254 -63q4 -3 20.5 -5.5t36 -4.5t38.5 -4.5t29 -5.5h19q14 0 34.5 -0.5t41.5 -0.5h36h7l270 14q148 22 222 33.5t82 12.5q8 3 17.5 6t22.5 5q25 8 53.5 15.5t50.5 13.5l31 8l28 11q13 6 24 11t22 11l128 47q3 1 12 5.5t19.5 10t20.5 10.5t16 7
q4 3 13.5 9.5t20.5 13.5t20.5 13.5t13.5 9.5q16 13 34.5 27.5t26.5 34.5v20q0 34 -9.5 65.5t-30.5 63.5q-3 9 -8 17.5t-10.5 17t-9 18t-3.5 20.5q0 54 10 73q0 2 1 6t6 11h7q15 -22 29.5 -42.5t32 -36.5t39.5 -25.5t52 -9.5q27 0 49.5 8.5t33.5 41.5q15 28 25.5 59.5
t30.5 60.5q21 28 53.5 51.5t70 40.5t77 28.5t74.5 15.5q33 2 59 1.5t53 1.5q-24 25 -50.5 47.5t-56 40t-61.5 28t-67 10.5q-14 0 -25 -2.5t-22 -2.5h-11q0 5 -2.5 8t-2.5 5l5 11l31 61q6 13 22 13h29q48 0 95 -18t89 -45l220 -135q26 -20 56.5 -26.5t65.5 -20.5v-4
q0 -5 -1.5 -8t-3.5 -6l-30 -72q-2 -3 -12 -3h-7q-26 0 -46.5 7.5t-46.5 9.5q-14 2 -41 4t-55.5 4t-51.5 3.5t-28 1.5h-45q-45 0 -87.5 -2t-84.5 -13v-6v-6q20 -17 40.5 -35.5t36.5 -39.5t26 -45t10 -52q0 -16 -4 -33t-12 -31.5t-20.5 -25.5t-28.5 -15h-26q-86 0 -154 50
q-14 14 -25.5 29t-31.5 26q-11 -30 -22 -54.5t-26 -41t-36.5 -25.5t-53.5 -9q-9 0 -19 -1t-19 1h-2q-5 -35 -10.5 -65t-10.5 -63q-12 -35 -30.5 -64t-44.5 -50q-8 -5 -23.5 -14.5t-33 -20t-32.5 -20t-21 -13.5q-8 -6 -25.5 -16.5t-36.5 -20t-35 -17t-20 -7.5l-37 -15l-5 -4
q-2 0 -20 -7t-43 -16t-51.5 -18t-45.5 -13l-5 -1h-6q-5 -2 -13 -5.5t-20 -5.5l-34 -9q-5 0 -9.5 -1t-6.5 -1q-12 -5 -39 -10t-57 -10t-56 -9t-36 -7q-14 0 -48 -2.5t-72 -5.5t-73 -5.5t-52 -2.5q-4 -4 -37 -4h-53h-59q-34 0 -35 4q-12 0 -34.5 1.5t-45.5 3.5t-42 4.5
t-24 4.5l-229 46q-5 1 -14 3.5t-19 5t-19.5 4.5t-13.5 2q-8 3 -27.5 9.5t-41.5 14t-41.5 15.5t-26.5 13z" />
    <glyph glyph-name="sf263.003" unicode="&#x656;" 
d="M-80 119q5 19 11 35t17 42q8 14 21 2q30 -31 44.5 -79.5t17 -102t-7 -104.5t-27.5 -87q-8 -14 -11.5 -15.5t-1.5 17.5q5 40 6.5 78t-4.5 74.5t-21.5 71.5t-43.5 68z" />
    <glyph glyph-name="sf438.002" unicode="&#x654;" 
d="M66 1148q-15 21 -15 39q0 47 46 95q-70 36 -70 83q0 29 17 63.5t46 64.5q62 65 120 65q32 0 53 -14.5t21 -35.5q0 -32 -43 -72q-19 24 -30.5 30.5t-33.5 6.5q-26 0 -49 -11q-13 -7 -23.5 -18t-10.5 -19q0 -7 10 -20.5t23 -21.5q32 -23 80 -23q47 0 118 24l30 10l26 9
q5 2 20 7q-15 -51 -34 -74.5t-56 -36.5l-32 -11l-30 -11l-34 -11q-109 -40 -149 -118z" />
    <glyph glyph-name="sf438.003" unicode="&#x653;" 
d="M-233 -53q-34 -15 -13 17q42 48 86.5 74.5t95.5 28.5q31 0 60 -10t60 -10q26 0 51.5 8t48.5 21t41.5 28.5t30.5 30.5q12 13 16.5 12.5t-3.5 -18.5q-15 -31 -40.5 -61.5t-57.5 -54.5t-67.5 -39t-70.5 -15q-19 0 -34.5 4t-29.5 9t-27.5 9t-28.5 4q-36 0 -64.5 -12
t-53.5 -26z" />
    <glyph glyph-name="sf438.004" unicode="&#x655;" 
d="M102 -502q-14 21 -14 39q0 47 46 95q-71 36 -71 83q0 29 17 63.5t46 64.5q62 65 120 65q32 0 53.5 -14.5t21.5 -35.5q0 -32 -44 -72q-19 24 -30.5 30.5t-32.5 6.5q-27 0 -50 -11q-13 -7 -23.5 -18.5t-10.5 -18.5q0 -8 10.5 -21t22.5 -21q33 -23 80 -23t118 24l30 10l26 9
q5 1 21 7q-15 -51 -34.5 -74.5t-55.5 -36.5l-32 -11l-31 -11l-34 -11q-108 -40 -149 -118z" />
    </font>
</defs>
</svg>
