<?xml version="1.0" standalone="no"?>
<!DOCTYPE svg PUBLIC "-//W3C//DTD SVG 1.1//EN" "http://www.w3.org/Graphics/SVG/1.1/DTD/svg11.dtd" >
<svg>
<metadata>
Created by FontForge 20110222 at Wed Jul  8 23:23:25 2015
 By www-data
AA Sameer
</metadata>
<defs>
<font id="AASameerAlmas" horiz-adv-x="889" >
  <font-face 
    font-family="AA Sameer Almas"
    font-weight="300"
    font-stretch="normal"
    units-per-em="2048"
    panose-1="2 0 0 0 0 0 0 0 0 0"
    ascent="1638"
    descent="-410"
    x-height="661"
    cap-height="1148"
    bbox="-2164 -980 6650 2047"
    underline-thickness="50"
    underline-position="-725"
    unicode-range="U+0020-FEFB"
  />
<missing-glyph horiz-adv-x="257" 
 />
    <glyph glyph-name="sf277.046" unicode="&#x622;" horiz-adv-x="570" arabic-form="final" 
d="M219 1351q-25 0 -42.5 -7t-30.5 -20l-38 -38q-16 -16 -35 -16q-21 0 -35.5 15.5t-14.5 35.5t15 35l43 43q21 21 45 34q33 18 70 18h205q46 0 73 27l38 38q16 16 36 16t35 -15t15 -36q0 -19 -16 -35l-43 -43q-29 -29 -57 -40.5t-58 -11.5h-205zM607 128h33v-128h-89
q-61 0 -102 40q-37 36 -63 109q-19 54 -45 164l-144 626q-6 24 -11 57t-5 50q0 56 38 111q35 51 61 51q24 0 49 -25.5t29 -61.5l107 -825q9 -68 36 -110q38 -58 106 -58z" />
    <glyph glyph-name="sf277" unicode="&#x627;" horiz-adv-x="570" arabic-form="final" 
d="M607 128h33v-128h-89q-61 0 -102 40q-37 36 -63 109q-19 54 -45 164l-144 626q-6 24 -11 57t-5 50q0 56 38 111q35 51 61 51q24 0 49 -25.5t29 -61.5l107 -825q9 -68 36 -110q38 -58 106 -58z" />
    <glyph glyph-name="sf300.001" unicode="&#x628;" horiz-adv-x="280" arabic-form="initial" 
d="M276 553l66 -287q6 -26 6 -48q0 -99 -100 -164q-83 -54 -165 -54h-83v128h13q58 0 126.5 32t68.5 67q0 8 -4 15l-79 129q-9 15 -17.5 50t-8.5 57q0 56 38 111q35 51 61 51q22 0 46 -25t32 -62zM199 -73q30 0 62.5 -38.5t54.5 -38.5q0 -39 -13 -75t-13 -81q-36 0 -88 35
q-60 40 -60 85q0 41 16.5 77t40.5 36z" />
    <glyph glyph-name="sf277.017" unicode="&#x628;" horiz-adv-x="549" arabic-form="medial" 
d="M349 383q19 -62 85 -145q87 -110 166 -110h16v-128h-77q-58 0 -121 50q-56 44 -90 104q-31 -70 -94.5 -112t-150.5 -42h-83v128h13q73 0 151 37t78 77q0 11 -8 22l-83 110q-12 16 -22 48t-10 56q0 56 38 111q35 51 61 51q21 0 44 -25.5t34 -61.5zM293 -95
q30 0 62.5 -38.5t54.5 -38.5q0 -39 -13 -75t-13 -81q-36 0 -88 35q-60 40 -60 85q0 41 16.5 77t40.5 36z" />
    <glyph glyph-name="sf277.002" unicode="&#x628;" horiz-adv-x="1848" arabic-form="final" 
d="M760 -150q30 0 62.5 -38.5t54.5 -38.5q0 -39 -13 -75t-13 -81q-36 0 -88 35q-60 40 -60 85q0 41 16.5 77t40.5 36zM802 0q-188 0 -341 26q-197 33 -310 103q-136 84 -136 213q0 171 191 272q176 93 439 93q272 0 491 -103q203 -95 203 -191q0 -51 -23 -83
q-29 -40 -85 -40q-92 0 -174 68q-124 103 -173 127q-140 69 -367 69q-123 0 -244 -60q-130 -64 -130 -141q0 -96 223.5 -160.5t529.5 -64.5q105 0 273.5 24t280.5 54q56 31 113 63l-84 125q-10 14 -18 48t-8 59q0 56 38 111q35 51 61 51q23 0 46 -25t32 -62q10 -56 16 -88
q19 -94 39 -150q28 -82 85 -143q62 -67 124 -67h26v-128h-82q-57 0 -116 49q-48 40 -90 105q-89 -65 -363 -112q-247 -42 -467 -42z" />
    <glyph glyph-name="sf300.002" unicode="&#x67e;" horiz-adv-x="256" arabic-form="initial" 
d="M318 553l66 -287q3 -17 4 -22.5t1 -19.5q0 -101 -120 -169q-98 -55 -186 -55h-83v128h13q63 0 145 32q91 35 91 70q0 6 -3 12l-79 129q-9 15 -17.5 50t-8.5 57q0 56 38 111q35 51 61 51q22 0 46 -25t32 -62zM123.5 -540q-16.5 36 -16.5 77q0 45 60 85q52 35 88 35
q0 -45 13 -81t13 -75q-22 0 -54.5 -38.5t-62.5 -38.5q-24 0 -40.5 36zM322.5 -403q-16.5 36 -16.5 77q0 45 60 85q52 35 88 35q0 -45 13 -81t13 -75q-22 0 -54.5 -38.5t-62.5 -38.5q-24 0 -40.5 36zM123.5 -286q-16.5 36 -16.5 77q0 45 60 85q52 35 88 35q0 -45 13 -81
t13 -75q-22 0 -54.5 -38.5t-62.5 -38.5q-24 0 -40.5 36z" />
    <glyph glyph-name="sf277.021" unicode="&#x67e;" horiz-adv-x="549" arabic-form="medial" 
d="M349 383q19 -62 85 -145q87 -110 166 -110h16v-128h-77q-58 0 -121 50q-56 44 -90 104q-31 -70 -94.5 -112t-150.5 -42h-83v128h13q73 0 151 37t78 77q0 11 -8 22l-83 110q-12 16 -22 48t-10 56q0 56 38 111q35 51 61 51q21 0 44 -25.5t34 -61.5zM204.5 -539
q-16.5 36 -16.5 77q0 45 60 85q52 35 88 35q0 -45 13 -81t13 -75q-22 0 -54.5 -38.5t-62.5 -38.5q-24 0 -40.5 36zM403.5 -402q-16.5 36 -16.5 77q0 45 60 85q52 35 88 35q0 -45 13 -81t13 -75q-22 0 -54.5 -38.5t-62.5 -38.5q-24 0 -40.5 36zM204.5 -285q-16.5 36 -16.5 77
q0 45 60 85q52 35 88 35q0 -45 13 -81t13 -75q-22 0 -54.5 -38.5t-62.5 -38.5q-24 0 -40.5 36z" />
    <glyph glyph-name="sf277.026" unicode="&#x67e;" horiz-adv-x="1848" arabic-form="final" 
d="M868.5 -724q-16.5 36 -16.5 77q0 45 60 85q52 35 88 35q0 -45 13 -81t13 -75q-22 0 -54.5 -38.5t-62.5 -38.5q-24 0 -40.5 36zM1067.5 -587q-16.5 36 -16.5 77q0 45 60 85q52 35 88 35q0 -45 13 -81t13 -75q-22 0 -54.5 -38.5t-62.5 -38.5q-24 0 -40.5 36zM868.5 -470
q-16.5 36 -16.5 77q0 45 60 85q52 35 88 35q0 -45 13 -81t13 -75q-22 0 -54.5 -38.5t-62.5 -38.5q-24 0 -40.5 36zM802 0q-188 0 -341 26q-197 33 -310 103q-136 84 -136 213q0 171 191 272q176 93 439 93q272 0 491 -103q203 -95 203 -191q0 -51 -23 -83q-29 -40 -85 -40
q-92 0 -174 68q-124 103 -173 127q-140 69 -367 69q-123 0 -244 -60q-130 -64 -130 -141q0 -96 223.5 -160.5t529.5 -64.5q105 0 273.5 24t280.5 54q56 31 113 63l-84 125q-10 14 -18 48t-8 59q0 56 38 111q35 51 61 51q23 0 46 -25t32 -62q10 -56 16 -88q19 -94 39 -150
q28 -82 85 -143q62 -67 124 -67h26v-128h-82q-57 0 -116 49q-48 40 -90 105q-89 -65 -363 -112q-247 -42 -467 -42z" />
    <glyph glyph-name="sf300.003" unicode="&#x62a;" horiz-adv-x="256" arabic-form="initial" 
d="M318 564l66 -287q5 -25 5 -42q0 -103 -120 -175q-100 -60 -186 -60h-83v128h13q61 0 145 37q91 40 91 76q0 6 -3 12l-79 129q-9 15 -17.5 50t-8.5 57q0 56 38 111q35 51 61 51q22 0 46 -25t32 -62zM256 1102q30 0 62.5 -38.5t54.5 -38.5q0 -39 -13 -75t-13 -81
q-36 0 -88 35q-60 40 -60 85q0 41 16.5 77t40.5 36zM57 985q30 0 62.5 -38.5t54.5 -38.5q0 -39 -13 -75t-13 -81q-36 0 -88 35q-60 40 -60 85q0 41 16.5 77t40.5 36z" />
    <glyph glyph-name="sf277.003" unicode="&#x62a;" horiz-adv-x="549" arabic-form="medial" 
d="M349 383q19 -62 85 -145q87 -110 166 -110h16v-128h-77q-58 0 -121 50q-56 44 -90 104q-31 -70 -94.5 -112t-150.5 -42h-83v128h13q73 0 151 37t78 77q0 11 -8 22l-83 110q-12 16 -22 48t-10 56q0 56 38 111q35 51 61 51q21 0 44 -25.5t34 -61.5zM256 1113
q30 0 62.5 -38.5t54.5 -38.5q0 -39 -13 -75t-13 -81q-36 0 -88 35q-60 40 -60 85q0 41 16.5 77t40.5 36zM57 996q30 0 62.5 -38.5t54.5 -38.5q0 -39 -13 -75t-13 -81q-36 0 -88 35q-60 40 -60 85q0 41 16.5 77t40.5 36z" />
    <glyph glyph-name="sf277.027" unicode="&#x62a;" horiz-adv-x="1848" arabic-form="final" 
d="M1004 1124q30 0 62.5 -38.5t54.5 -38.5q0 -39 -13 -75t-13 -81q-36 0 -88 35q-60 40 -60 85q0 41 16.5 77t40.5 36zM805 1007q30 0 62.5 -38.5t54.5 -38.5q0 -39 -13 -75t-13 -81q-36 0 -88 35q-60 40 -60 85q0 41 16.5 77t40.5 36zM802 0q-188 0 -341 26
q-197 33 -310 103q-136 84 -136 213q0 171 191 272q176 93 439 93q272 0 491 -103q203 -95 203 -191q0 -51 -23 -83q-29 -40 -85 -40q-92 0 -174 68q-124 103 -173 127q-140 69 -367 69q-123 0 -244 -60q-130 -64 -130 -141q0 -96 223.5 -160.5t529.5 -64.5q105 0 273.5 24
t280.5 54q56 31 113 63l-84 125q-10 14 -18 48t-8 59q0 56 38 111q35 51 61 51q23 0 46 -25t32 -62q10 -56 16 -88q19 -94 39 -150q28 -82 85 -143q62 -67 124 -67h26v-128h-82q-57 0 -116 49q-48 40 -90 105q-89 -65 -363 -112q-247 -42 -467 -42z" />
    <glyph glyph-name="sf300.004" unicode="&#x679;" horiz-adv-x="256" arabic-form="initial" 
d="M318 553l66 -287q3 -17 4 -22.5t1 -19.5q0 -101 -120 -169q-98 -55 -186 -55h-83v128h13q63 0 145 32q91 35 91 70q0 6 -3 12l-79 129q-9 15 -17.5 50t-8.5 57q0 56 38 111q35 51 61 51q22 0 46 -25t32 -62zM362 940q0 -34 -31 -68q-27 -29 -59 -40t-50 -14
q-24 -5 -60 -5q-33 0 -64 5q-43 7 -69 23q-32 19 -32 49q0 13 7 21.5t21 8.5q16 0 27 -14q16 -21 32 -31q12 7 24 16q17 13 28 27v8l-51 158q-3 8 -4.5 17t-1.5 14q0 16 13 32q12 15 20 15t16.5 -7.5t9.5 -17.5l24 -192l8 11q17 23 39 39q32 23 64 23q45 0 68 -22
q21 -20 21 -56zM296 927q0 11 -14.5 20t-29.5 9q-22 0 -50 -18q-21 -13 -50 -40q-21 -19 -41 -38q7 -4 25 -8t30 -4q31 0 62 13q25 10 40 23q18 15 23 23.5t5 19.5z" />
    <glyph glyph-name="sf277.043" unicode="&#x679;" horiz-adv-x="549" arabic-form="medial" 
d="M349 383q19 -62 85 -145q87 -110 166 -110h16v-128h-77q-58 0 -121 50q-56 44 -90 104q-31 -70 -94.5 -112t-150.5 -42h-83v128h13q73 0 151 37t78 77q0 11 -8 22l-83 110q-12 16 -22 48t-10 56q0 56 38 111q35 51 61 51q21 0 44 -25.5t34 -61.5zM449 968q0 -42 -33 -83
q-29 -36 -63 -49t-53 -17q-26 -6 -64 -6q-35 0 -68 6q-46 9 -74 28q-34 23 -34 59q0 16 7.5 26.5t22.5 10.5q17 0 28 -17q17 -26 34 -38q14 9 26 19q19 16 30 34v9l-55 192q-2 10 -3.5 21t-1.5 17q0 20 13 39q13 18 22 18q8 0 17 -9t10 -22l26 -233l8 14q18 28 42 48
q34 27 68 27q48 0 73 -27q22 -24 22 -67zM379 952q0 13 -15.5 24t-31.5 11q-24 0 -54 -22q-22 -16 -53 -49q-22 -23 -43 -46q7 -5 26 -9.5t32 -4.5q33 0 66 15q27 13 43 28q19 18 24.5 28.5t5.5 24.5z" />
    <glyph glyph-name="sf277.028" unicode="&#x679;" horiz-adv-x="1848" arabic-form="final" 
d="M802 0q-188 0 -341 26q-197 33 -310 103q-136 84 -136 213q0 171 191 272q176 93 439 93q272 0 491 -103q203 -95 203 -191q0 -51 -23 -83q-29 -40 -85 -40q-92 0 -174 68q-124 103 -173 127q-140 69 -367 69q-123 0 -244 -60q-130 -64 -130 -141q0 -96 223.5 -160.5
t529.5 -64.5q105 0 273.5 24t280.5 54q56 31 113 63l-84 125q-10 14 -18 48t-8 59q0 56 38 111q35 51 61 51q23 0 46 -25t32 -62q10 -56 16 -88q19 -94 39 -150q28 -82 85 -143q62 -67 124 -67h26v-128h-82q-57 0 -116 49q-48 40 -90 105q-89 -65 -363 -112
q-247 -42 -467 -42zM1058 1048q0 -42 -33 -83q-29 -36 -63 -49t-53 -17q-26 -6 -64 -6q-35 0 -68 6q-46 9 -74 28q-34 23 -34 59q0 16 7.5 26.5t22.5 10.5q17 0 28 -17q17 -26 34 -38q14 9 26 19q19 16 30 34v9l-55 192q-2 10 -3.5 21t-1.5 17q0 20 13 39q13 18 22 18
q8 0 17 -9t10 -22l26 -233l8 14q18 28 42 48q34 27 68 27q48 0 73 -27q22 -24 22 -67zM988 1032q0 13 -15.5 24t-31.5 11q-24 0 -54 -22q-22 -16 -53 -49q-22 -23 -43 -46q7 -5 26 -9.5t32 -4.5q33 0 66 15q27 13 43 28q19 18 24.5 28.5t5.5 24.5z" />
    <glyph glyph-name="sf300.005" unicode="&#x62b;" horiz-adv-x="256" arabic-form="initial" 
d="M318 553l66 -287q3 -17 4 -22.5t1 -19.5q0 -101 -120 -169q-98 -55 -186 -55h-83v128h13q63 0 145 32q91 35 91 70q0 6 -3 12l-79 129q-9 15 -17.5 50t-8.5 57q0 56 38 111q35 51 61 51q22 0 46 -25t32 -62zM57 1175q30 0 62.5 -38.5t54.5 -38.5q0 -39 -13 -75t-13 -81
q-36 0 -88 35q-60 40 -60 85q0 41 16.5 77t40.5 36zM256 1038q30 0 62.5 -38.5t54.5 -38.5q0 -39 -13 -75t-13 -81q-36 0 -88 35q-60 40 -60 85q0 41 16.5 77t40.5 36zM57 921q30 0 62.5 -38.5t54.5 -38.5q0 -39 -13 -75t-13 -81q-36 0 -88 35q-60 40 -60 85q0 41 16.5 77
t40.5 36z" />
    <glyph glyph-name="sf277.022" unicode="&#x62b;" horiz-adv-x="549" arabic-form="medial" 
d="M349 383q19 -62 85 -145q87 -110 166 -110h16v-128h-77q-58 0 -121 50q-56 44 -90 104q-31 -70 -94.5 -112t-150.5 -42h-83v128h13q73 0 151 37t78 77q0 11 -8 22l-83 110q-12 16 -22 48t-10 56q0 56 38 111q35 51 61 51q21 0 44 -25.5t34 -61.5zM57 1175
q30 0 62.5 -38.5t54.5 -38.5q0 -39 -13 -75t-13 -81q-36 0 -88 35q-60 40 -60 85q0 41 16.5 77t40.5 36zM256 1038q30 0 62.5 -38.5t54.5 -38.5q0 -39 -13 -75t-13 -81q-36 0 -88 35q-60 40 -60 85q0 41 16.5 77t40.5 36zM57 921q30 0 62.5 -38.5t54.5 -38.5q0 -39 -13 -75
t-13 -81q-36 0 -88 35q-60 40 -60 85q0 41 16.5 77t40.5 36z" />
    <glyph glyph-name="sf277.029" unicode="&#x62b;" horiz-adv-x="1848" arabic-form="final" 
d="M761 1259q30 0 62.5 -38.5t54.5 -38.5q0 -39 -13 -75t-13 -81q-36 0 -88 35q-60 40 -60 85q0 41 16.5 77t40.5 36zM960 1122q30 0 62.5 -38.5t54.5 -38.5q0 -39 -13 -75t-13 -81q-36 0 -88 35q-60 40 -60 85q0 41 16.5 77t40.5 36zM761 1005q30 0 62.5 -38.5t54.5 -38.5
q0 -39 -13 -75t-13 -81q-36 0 -88 35q-60 40 -60 85q0 41 16.5 77t40.5 36zM802 0q-188 0 -341 26q-197 33 -310 103q-136 84 -136 213q0 171 191 272q176 93 439 93q272 0 491 -103q203 -95 203 -191q0 -51 -23 -83q-29 -40 -85 -40q-92 0 -174 68q-124 103 -173 127
q-140 69 -367 69q-123 0 -244 -60q-130 -64 -130 -141q0 -96 223.5 -160.5t529.5 -64.5q105 0 273.5 24t280.5 54q56 31 113 63l-84 125q-10 14 -18 48t-8 59q0 56 38 111q35 51 61 51q23 0 46 -25t32 -62q10 -56 16 -88q19 -94 39 -150q28 -82 85 -143q62 -67 124 -67h26
v-128h-82q-57 0 -116 49q-48 40 -90 105q-89 -65 -363 -112q-247 -42 -467 -42z" />
    <glyph glyph-name="sf304.001" unicode="&#x62c;" arabic-form="initial" 
d="M632 331q72 0 136 9.5t125 19.5q17 0 30 -21t13 -47q0 -35 -26.5 -65.5t-65.5 -30.5q-103 0 -252.5 -49t-287.5 -96q-154 -51 -232 -51h-72v128h28q88 0 192 23q63 14 176 48t163 44v5q-70 8 -166 48.5t-170 91.5q-80 54 -134 128.5t-54 123.5q0 75 41 126q45 56 117 56
q40 0 98 -171q36 -107 64 -151q37 -59 127 -114t150 -55zM375 -51q30 0 62.5 -38.5t54.5 -38.5q0 -39 -13 -75t-13 -81q-36 0 -88 35q-60 40 -60 85q0 41 16.5 77t40.5 36z" />
    <glyph glyph-name="sf323" unicode="&#x62c;" horiz-adv-x="945" arabic-form="medial" 
d="M712 213q36 -40 114 -64q69 -21 139 -21h36v-128h-68q-101 0 -192.5 53t-133.5 131q-79 -26 -198 -76q-138 -58 -182 -74q-96 -34 -155 -34h-72v128h28q90 0 192 30q46 13 176 63q108 41 163 52v5q-87 10 -167 34q-103 30 -169 76q-80 54 -134 128.5t-54 123.5
q0 75 41 126q45 56 117 56q40 0 98 -171q36 -107 64 -151q35 -56 127 -99q85 -40 150 -40q72 0 136 9.5t125 19.5q17 0 30 -21t13 -47q0 -35 -26.5 -65.5t-65.5 -30.5q-32 0 -64 -3t-68 -10zM375 -51q30 0 62.5 -38.5t54.5 -38.5q0 -39 -13 -75t-13 -81q-36 0 -88 35
q-60 40 -60 85q0 41 16.5 77t40.5 36z" />
    <glyph glyph-name="sf277.030" unicode="&#x62c;" horiz-adv-x="935" arabic-form="final" 
d="M577 187q-171 -65 -283 -173q-138 -134 -138 -297q0 -105 58 -177q71 -87 203 -87q120 0 205 66q45 35 111 124q50 67 80 67q33 0 66 -36q39 -43 39 -105q0 -107 -135.5 -195t-304.5 -88q-198 0 -325 99q-140 109 -140 302q0 159 95 291q74 104 209 191q95 62 203 105
q-75 11 -149 38q-83 31 -148 76q-80 54 -134 128.5t-54 123.5q0 75 41 126q45 56 117 56q40 0 98 -171q36 -107 64 -151q35 -56 127 -99q85 -40 150 -40q72 0 136 9.5t125 19.5q17 0 30 -21t13 -47q0 -35 -26.5 -65.5t-65.5 -30.5q-32 0 -64 -3t-68 -10q36 -40 114 -64
q69 -21 139 -21h36v-128h-68q-88 0 -197 58t-159 129zM421 -95q30 0 62.5 -38.5t54.5 -38.5q0 -39 -13 -75t-13 -81q-36 0 -88 35q-60 40 -60 85q0 41 16.5 77t40.5 36z" />
    <glyph glyph-name="sf304.002" unicode="&#x686;" arabic-form="initial" 
d="M632 331q72 0 136 9.5t125 19.5q17 0 30 -21t13 -47q0 -35 -26.5 -65.5t-65.5 -30.5q-103 0 -252.5 -49t-287.5 -96q-154 -51 -232 -51h-72v128h28q88 0 192 23q63 14 176 48t163 44v5q-70 8 -166 48.5t-170 91.5q-80 54 -134 128.5t-54 123.5q0 75 41 126q45 56 117 56
q40 0 98 -171q36 -107 64 -151q37 -59 127 -114t150 -55zM320.5 -489q-16.5 36 -16.5 77q0 45 60 85q52 35 88 35q0 -45 13 -81t13 -75q-22 0 -54.5 -38.5t-62.5 -38.5q-24 0 -40.5 36zM519.5 -352q-16.5 36 -16.5 77q0 45 60 85q52 35 88 35q0 -45 13 -81t13 -75
q-22 0 -54.5 -38.5t-62.5 -38.5q-24 0 -40.5 36zM320.5 -235q-16.5 36 -16.5 77q0 45 60 85q52 35 88 35q0 -45 13 -81t13 -75q-22 0 -54.5 -38.5t-62.5 -38.5q-24 0 -40.5 36z" />
    <glyph glyph-name="sf323.001" unicode="&#x686;" horiz-adv-x="945" arabic-form="medial" 
d="M712 213q36 -40 114 -64q69 -21 139 -21h36v-128h-68q-101 0 -192.5 53t-133.5 131q-79 -26 -198 -76q-138 -58 -182 -74q-96 -34 -155 -34h-72v128h28q90 0 192 30q46 13 176 63q108 41 163 52v5q-87 10 -167 34q-103 30 -169 76q-80 54 -134 128.5t-54 123.5
q0 75 41 126q45 56 117 56q40 0 98 -171q36 -107 64 -151q35 -56 127 -99q85 -40 150 -40q72 0 136 9.5t125 19.5q17 0 30 -21t13 -47q0 -35 -26.5 -65.5t-65.5 -30.5q-32 0 -64 -3t-68 -10zM325.5 -526q-16.5 36 -16.5 77q0 45 60 85q52 35 88 35q0 -45 13 -81t13 -75
q-22 0 -54.5 -38.5t-62.5 -38.5q-24 0 -40.5 36zM524.5 -389q-16.5 36 -16.5 77q0 45 60 85q52 35 88 35q0 -45 13 -81t13 -75q-22 0 -54.5 -38.5t-62.5 -38.5q-24 0 -40.5 36zM325.5 -272q-16.5 36 -16.5 77q0 45 60 85q52 35 88 35q0 -45 13 -81t13 -75q-22 0 -54.5 -38.5
t-62.5 -38.5q-24 0 -40.5 36z" />
    <glyph glyph-name="sf277.031" unicode="&#x686;" horiz-adv-x="935" arabic-form="final" 
d="M577 187q-171 -65 -283 -173q-138 -134 -138 -297q0 -105 58 -177q71 -87 203 -87q120 0 205 66q45 35 111 124q50 67 80 67q33 0 66 -36q39 -43 39 -105q0 -107 -135.5 -195t-304.5 -88q-198 0 -325 99q-140 109 -140 302q0 159 95 291q74 104 209 191q95 62 203 105
q-75 11 -149 38q-83 31 -148 76q-80 54 -134 128.5t-54 123.5q0 75 41 126q45 56 117 56q40 0 98 -171q36 -107 64 -151q35 -56 127 -99q85 -40 150 -40q72 0 136 9.5t125 19.5q17 0 30 -21t13 -47q0 -35 -26.5 -65.5t-65.5 -30.5q-32 0 -64 -3t-68 -10q36 -40 114 -64
q69 -21 139 -21h36v-128h-68q-88 0 -197 58t-159 129zM335.5 -446q-16.5 36 -16.5 77q0 45 60 85q52 35 88 35q0 -45 13 -81t13 -75q-22 0 -54.5 -38.5t-62.5 -38.5q-24 0 -40.5 36zM534.5 -309q-16.5 36 -16.5 77q0 45 60 85q52 35 88 35q0 -45 13 -81t13 -75
q-22 0 -54.5 -38.5t-62.5 -38.5q-24 0 -40.5 36zM335.5 -192q-16.5 36 -16.5 77q0 45 60 85q52 35 88 35q0 -45 13 -81t13 -75q-22 0 -54.5 -38.5t-62.5 -38.5q-24 0 -40.5 36z" />
    <glyph glyph-name="sf304.003" unicode="&#x62d;" arabic-form="initial" 
d="M632 331q72 0 136 9.5t125 19.5q17 0 30 -21t13 -47q0 -35 -26.5 -65.5t-65.5 -30.5q-103 0 -252.5 -49t-287.5 -96q-154 -51 -232 -51h-72v128h28q88 0 192 23q63 14 176 48t163 44v5q-70 8 -166 48.5t-170 91.5q-80 54 -134 128.5t-54 123.5q0 75 41 126q45 56 117 56
q40 0 98 -171q36 -107 64 -151q37 -59 127 -114t150 -55z" />
    <glyph glyph-name="sf323.002" unicode="&#x62d;" horiz-adv-x="945" arabic-form="medial" 
d="M712 213q36 -40 114 -64q69 -21 139 -21h36v-128h-68q-101 0 -192.5 53t-133.5 131q-79 -26 -198 -76q-138 -58 -182 -74q-96 -34 -155 -34h-72v128h28q90 0 192 30q46 13 176 63q108 41 163 52v5q-87 10 -167 34q-103 30 -169 76q-80 54 -134 128.5t-54 123.5
q0 75 41 126q45 56 117 56q40 0 98 -171q36 -107 64 -151q35 -56 127 -99q85 -40 150 -40q72 0 136 9.5t125 19.5q17 0 30 -21t13 -47q0 -35 -26.5 -65.5t-65.5 -30.5q-32 0 -64 -3t-68 -10z" />
    <glyph glyph-name="sf277.032" unicode="&#x62d;" horiz-adv-x="935" arabic-form="final" 
d="M577 187q-171 -65 -283 -173q-138 -134 -138 -297q0 -105 58 -177q71 -87 203 -87q120 0 205 66q45 35 111 124q50 67 80 67q33 0 66 -36q39 -43 39 -105q0 -107 -135.5 -195t-304.5 -88q-198 0 -325 99q-140 109 -140 302q0 159 95 291q74 104 209 191q95 62 203 105
q-75 11 -149 38q-83 31 -148 76q-80 54 -134 128.5t-54 123.5q0 75 41 126q45 56 117 56q40 0 98 -171q36 -107 64 -151q35 -56 127 -99q85 -40 150 -40q72 0 136 9.5t125 19.5q17 0 30 -21t13 -47q0 -35 -26.5 -65.5t-65.5 -30.5q-32 0 -64 -3t-68 -10q36 -40 114 -64
q69 -21 139 -21h36v-128h-68q-88 0 -197 58t-159 129z" />
    <glyph glyph-name="sf304.004" unicode="&#x62e;" arabic-form="initial" 
d="M632 331q72 0 136 9.5t125 19.5q17 0 30 -21t13 -47q0 -35 -26.5 -65.5t-65.5 -30.5q-103 0 -252.5 -49t-287.5 -96q-154 -51 -232 -51h-72v128h28q88 0 192 23q63 14 176 48t163 44v5q-70 8 -166 48.5t-170 91.5q-80 54 -134 128.5t-54 123.5q0 75 41 126q45 56 117 56
q40 0 98 -171q36 -107 64 -151q37 -59 127 -114t150 -55zM421 917q30 0 62.5 -38.5t54.5 -38.5q0 -39 -13 -75t-13 -81q-36 0 -88 35q-60 40 -60 85q0 41 16.5 77t40.5 36z" />
    <glyph glyph-name="sf323.003" unicode="&#x62e;" horiz-adv-x="945" arabic-form="medial" 
d="M712 213q36 -40 114 -64q69 -21 139 -21h36v-128h-68q-101 0 -192.5 53t-133.5 131q-79 -26 -198 -76q-138 -58 -182 -74q-96 -34 -155 -34h-72v128h28q90 0 192 30q46 13 176 63q108 41 163 52v5q-87 10 -167 34q-103 30 -169 76q-80 54 -134 128.5t-54 123.5
q0 75 41 126q45 56 117 56q40 0 98 -171q36 -107 64 -151q35 -56 127 -99q85 -40 150 -40q72 0 136 9.5t125 19.5q17 0 30 -21t13 -47q0 -35 -26.5 -65.5t-65.5 -30.5q-32 0 -64 -3t-68 -10zM421 917q30 0 62.5 -38.5t54.5 -38.5q0 -39 -13 -75t-13 -81q-36 0 -88 35
q-60 40 -60 85q0 41 16.5 77t40.5 36z" />
    <glyph glyph-name="sf277.001" unicode="&#x62e;" horiz-adv-x="935" arabic-form="final" 
d="M577 187q-171 -65 -283 -173q-138 -134 -138 -297q0 -105 58 -177q71 -87 203 -87q120 0 205 66q45 35 111 124q50 67 80 67q33 0 66 -36q39 -43 39 -105q0 -107 -135.5 -195t-304.5 -88q-198 0 -325 99q-140 109 -140 302q0 159 95 291q74 104 209 191q95 62 203 105
q-75 11 -149 38q-83 31 -148 76q-80 54 -134 128.5t-54 123.5q0 75 41 126q45 56 117 56q40 0 98 -171q36 -107 64 -151q35 -56 127 -99q85 -40 150 -40q72 0 136 9.5t125 19.5q17 0 30 -21t13 -47q0 -35 -26.5 -65.5t-65.5 -30.5q-32 0 -64 -3t-68 -10q36 -40 114 -64
q69 -21 139 -21h36v-128h-68q-88 0 -197 58t-159 129zM421 917q30 0 62.5 -38.5t54.5 -38.5q0 -39 -13 -75t-13 -81q-36 0 -88 35q-60 40 -60 85q0 41 16.5 77t40.5 36z" />
    <glyph glyph-name="sf277.014" unicode="&#x62f;" horiz-adv-x="1028" arabic-form="final" 
d="M809 343q11 -42 112 -125q109 -90 174 -90h16v-128h-92q-51 0 -137.5 47.5t-112.5 80.5q-60 -137 -216 -247l-120 -84q-11 -8 -44 -8q-61 0 -107 32q-60 42 -60 125q0 29 36 39l76 16l188 63q60 20 118.5 84.5t58.5 114.5q0 17 -7 28l-123 212q-15 26 -34 74.5t-19 68.5
q0 56 38 111q35 51 61 51q22 0 45.5 -25.5t32.5 -61.5z" />
    <glyph glyph-name="sf277.038" unicode="&#x688;" horiz-adv-x="1028" arabic-form="final" 
d="M809 343q11 -42 112 -125q109 -90 174 -90h16v-128h-92q-51 0 -137.5 47.5t-112.5 80.5q-60 -137 -216 -247l-120 -84q-11 -8 -44 -8q-61 0 -107 32q-60 42 -60 125q0 29 36 39l76 16l188 63q60 20 118.5 84.5t58.5 114.5q0 17 -7 28l-123 212q-15 26 -34 74.5t-19 68.5
q0 56 38 111q35 51 61 51q22 0 45.5 -25.5t32.5 -61.5zM736 1115q0 -42 -33 -83q-29 -36 -63 -49t-53 -17q-26 -6 -64 -6q-35 0 -68 6q-46 9 -74 28q-34 23 -34 59q0 16 7.5 26.5t22.5 10.5q17 0 28 -17q17 -26 34 -38q14 9 26 19q19 16 30 34v9l-55 192q-2 10 -3.5 21
t-1.5 17q0 20 13 39q13 18 22 18q8 0 17 -9t10 -22l26 -233l8 14q18 28 42 48q34 27 68 27q48 0 73 -27q22 -24 22 -67zM666 1099q0 13 -15.5 24t-31.5 11q-24 0 -54 -22q-22 -16 -53 -49q-22 -23 -43 -46q7 -5 26 -9.5t32 -4.5q33 0 66 15q27 13 43 28q19 18 24.5 28.5
t5.5 24.5z" />
    <glyph glyph-name="sf277.039" unicode="&#x630;" horiz-adv-x="1028" arabic-form="final" 
d="M809 343q11 -42 112 -125q109 -90 174 -90h16v-128h-92q-51 0 -137.5 47.5t-112.5 80.5q-60 -137 -216 -247l-120 -84q-11 -8 -44 -8q-61 0 -107 32q-60 42 -60 125q0 29 36 39l76 16l188 63q60 20 118.5 84.5t58.5 114.5q0 17 -7 28l-123 212q-15 26 -34 74.5t-19 68.5
q0 56 38 111q35 51 61 51q22 0 45.5 -25.5t32.5 -61.5zM395 1170q30 0 62.5 -38.5t54.5 -38.5q0 -39 -13 -75t-13 -81q-36 0 -88 35q-60 40 -60 85q0 41 16.5 77t40.5 36z" />
    <glyph glyph-name="sf277.015" unicode="&#x631;" horiz-adv-x="579" arabic-form="final" 
d="M640 128v-128q-109 0 -205 -83q-77 -67 -147 -191q-49 -87 -100 -213q-42 -101 -130 -101q-29 0 -39.5 25.5t-10.5 74.5q0 75 96.5 227t219.5 261q144 128 253 128h63z" />
    <glyph glyph-name="sf277.040" unicode="&#x691;" horiz-adv-x="579" arabic-form="final" 
d="M640 128v-128q-109 0 -205 -83q-77 -67 -147 -191q-49 -87 -100 -213q-42 -101 -130 -101q-29 0 -39.5 25.5t-10.5 74.5q0 75 96.5 227t219.5 261q144 128 253 128h63zM561 430q0 -42 -33 -83q-29 -36 -63 -49t-53 -17q-26 -6 -64 -6q-35 0 -68 6q-46 9 -74 28
q-34 23 -34 59q0 16 7.5 26.5t22.5 10.5q17 0 28 -17q17 -26 34 -38q14 9 26 19q19 16 30 34v9l-55 192q-2 10 -3.5 21t-1.5 17q0 20 13 39q13 18 22 18q8 0 17 -9t10 -22l26 -233l8 14q18 28 42 48q34 27 68 27q48 0 73 -27q22 -24 22 -67zM491 414q0 13 -15.5 24t-31.5 11
q-24 0 -54 -22q-22 -16 -53 -49q-22 -23 -43 -46q7 -5 26 -9.5t32 -4.5q33 0 66 15q27 13 43 28q19 18 24.5 28.5t5.5 24.5z" />
    <glyph glyph-name="sf277.041" unicode="&#x632;" horiz-adv-x="579" arabic-form="final" 
d="M640 128v-128q-109 0 -205 -83q-77 -67 -147 -191q-49 -87 -100 -213q-42 -101 -130 -101q-29 0 -39.5 25.5t-10.5 74.5q0 75 96.5 227t219.5 261q144 128 253 128h63zM421 543q30 0 62.5 -38.5t54.5 -38.5q0 -39 -13 -75t-13 -81q-36 0 -88 35q-60 40 -60 85
q0 41 16.5 77t40.5 36z" />
    <glyph glyph-name="sf277.042" unicode="&#x698;" horiz-adv-x="579" arabic-form="final" 
d="M640 128v-128q-109 0 -205 -83q-77 -67 -147 -191q-49 -87 -100 -213q-42 -101 -130 -101q-29 0 -39.5 25.5t-10.5 74.5q0 75 96.5 227t219.5 261q144 128 253 128h63zM264 668q30 0 62.5 -38.5t54.5 -38.5q0 -39 -13 -75t-13 -81q-36 0 -88 35q-60 40 -60 85
q0 41 16.5 77t40.5 36zM463 531q30 0 62.5 -38.5t54.5 -38.5q0 -39 -13 -75t-13 -81q-36 0 -88 35q-60 40 -60 85q0 41 16.5 77t40.5 36zM264 414q30 0 62.5 -38.5t54.5 -38.5q0 -39 -13 -75t-13 -81q-36 0 -88 35q-60 40 -60 85q0 41 16.5 77t40.5 36z" />
    <glyph glyph-name="sf309" unicode="&#x633;" horiz-adv-x="1140" arabic-form="initial" 
d="M571 128q56 0 100 52q14 17 33 52l-81 116q-10 15 -21 48.5t-11 55.5q0 56 38 111q35 51 61 51q22 0 45.5 -25.5t32.5 -61.5l53 -210q9 -37 61 -97q60 -70 117 -92q33 11 48 29t15 37q0 17 -8 28l-99 149q-10 14 -18 48t-8 59q0 56 38 111q35 51 61 51q22 0 46 -25
t32 -62l66 -287q6 -27 6 -54q0 -87 -55.5 -149.5t-141.5 -62.5q-51 0 -133 75q-27 25 -72 75q-58 -73 -82 -92q-71 -58 -162 -58q-80 0 -165 109q-13 17 -106 165h-4q-26 -109 -41 -146q-51 -128 -125 -128h-91v128h28q89 0 124 115q18 107 37 219.5t72 112.5q49 0 105 -115
q48 -108 96 -215q59 -117 109 -117z" />
    <glyph glyph-name="sf327" unicode="&#x633;" horiz-adv-x="1344" arabic-form="medial" 
d="M1144 386q22 -97 105 -180q78 -78 137 -78h16v-128h-62q-38 0 -88.5 34.5t-93.5 82.5q-24 -53 -70.5 -85t-106.5 -32q-51 0 -133 75q-27 25 -72 75q-58 -73 -82 -92q-71 -58 -162 -58q-80 0 -165 109q-13 17 -106 165h-4q-26 -109 -41 -146q-51 -128 -125 -128h-91v128
h28q89 0 124 115q18 107 37 219.5t72 112.5q49 0 105 -115q48 -108 96 -215q59 -117 109 -117q56 0 100 52q14 17 33 52l-81 116q-10 15 -21 48.5t-11 55.5q0 56 38 111q35 51 61 51q22 0 45.5 -25.5t32.5 -61.5l53 -210q9 -37 61 -97q60 -70 117 -92q33 11 48 29t15 37
q0 17 -8 28l-99 149q-10 14 -18 48t-8 59q0 56 38 111q35 51 61 51q22 0 46 -25t32 -62z" />
    <glyph glyph-name="sf277.004" unicode="&#x633;" horiz-adv-x="2055" arabic-form="final" 
d="M1872 115q-24 -52 -70 -83.5t-106 -31.5q-51 0 -118 67q-22 22 -57 67q-24 -57 -87 -92q-75 -42 -190 -42h-46v-26q0 -72 -66 -158q-76 -99 -204 -161q-153 -74 -345 -74q-235 0 -408.5 121t-173.5 293q0 182 118.5 300.5t306.5 118.5q106 0 192 -64t86 -150
q0 -49 -24 -72q-30 -28 -106 -28q-52 0 -150 65q-47 31 -80 31q-90 0 -139 -65q-42 -55 -42 -136q0 -106 119 -189q125 -87 301 -87q154 0 279 54q101 44 165 110q54 56 54 91q0 27 -68 103t-135 152q-21 26 -35 70.5t-14 92.5q0 61 25 97q29 42 89 42q29 0 79 -104
q73 -152 103 -194q74 -105 161 -105q50 0 94.5 31t44.5 55q0 4 -2 8l-85 126q-10 15 -21 48.5t-11 55.5q0 56 38 111q35 51 61 51q22 0 45.5 -25.5t32.5 -61.5l53 -210q9 -34 50 -84q49 -59 106 -90q42 14 62 31t20 33q0 7 -5 15l-99 149q-11 16 -18.5 49t-7.5 58
q0 56 38 111q35 51 61 51q22 0 46 -25t32 -62l45 -198q15 -66 86 -142q79 -85 146 -85h26v-128h-72q-67 0 -123 53q-10 10 -57 62z" />
    <glyph glyph-name="sf309.001" unicode="&#x634;" horiz-adv-x="1140" arabic-form="initial" 
d="M571 128q56 0 100 52q14 17 33 52l-81 116q-10 15 -21 48.5t-11 55.5q0 56 38 111q35 51 61 51q22 0 45.5 -25.5t32.5 -61.5l53 -210q9 -37 61 -97q60 -70 117 -92q33 11 48 29t15 37q0 17 -8 28l-99 149q-10 14 -18 48t-8 59q0 56 38 111q35 51 61 51q22 0 46 -25
t32 -62l66 -287q6 -27 6 -54q0 -87 -55.5 -149.5t-141.5 -62.5q-51 0 -133 75q-27 25 -72 75q-58 -73 -82 -92q-71 -58 -162 -58q-80 0 -165 109q-13 17 -106 165h-4q-26 -109 -41 -146q-51 -128 -125 -128h-91v128h28q89 0 124 115q18 107 37 219.5t72 112.5q49 0 105 -115
q48 -108 96 -215q59 -117 109 -117zM464 1127q30 0 62.5 -38.5t54.5 -38.5q0 -39 -13 -75t-13 -81q-36 0 -88 35q-60 40 -60 85q0 41 16.5 77t40.5 36zM663 990q30 0 62.5 -38.5t54.5 -38.5q0 -39 -13 -75t-13 -81q-36 0 -88 35q-60 40 -60 85q0 41 16.5 77t40.5 36z
M464 873q30 0 62.5 -38.5t54.5 -38.5q0 -39 -13 -75t-13 -81q-36 0 -88 35q-60 40 -60 85q0 41 16.5 77t40.5 36z" />
    <glyph glyph-name="sf327.001" unicode="&#x634;" horiz-adv-x="1344" arabic-form="medial" 
d="M1144 386q22 -97 105 -180q78 -78 137 -78h16v-128h-62q-38 0 -88.5 34.5t-93.5 82.5q-24 -53 -70.5 -85t-106.5 -32q-51 0 -133 75q-27 25 -72 75q-58 -73 -82 -92q-71 -58 -162 -58q-80 0 -165 109q-13 17 -106 165h-4q-26 -109 -41 -146q-51 -128 -125 -128h-91v128
h28q89 0 124 115q18 107 37 219.5t72 112.5q49 0 105 -115q48 -108 96 -215q59 -117 109 -117q56 0 100 52q14 17 33 52l-81 116q-10 15 -21 48.5t-11 55.5q0 56 38 111q35 51 61 51q22 0 45.5 -25.5t32.5 -61.5l53 -210q9 -37 61 -97q60 -70 117 -92q33 11 48 29t15 37
q0 17 -8 28l-99 149q-10 14 -18 48t-8 59q0 56 38 111q35 51 61 51q22 0 46 -25t32 -62zM464 1127q30 0 62.5 -38.5t54.5 -38.5q0 -39 -13 -75t-13 -81q-36 0 -88 35q-60 40 -60 85q0 41 16.5 77t40.5 36zM663 990q30 0 62.5 -38.5t54.5 -38.5q0 -39 -13 -75t-13 -81
q-36 0 -88 35q-60 40 -60 85q0 41 16.5 77t40.5 36zM464 873q30 0 62.5 -38.5t54.5 -38.5q0 -39 -13 -75t-13 -81q-36 0 -88 35q-60 40 -60 85q0 41 16.5 77t40.5 36z" />
    <glyph glyph-name="sf277.033" unicode="&#x634;" horiz-adv-x="2055" arabic-form="final" 
d="M1872 115q-24 -52 -70 -83.5t-106 -31.5q-51 0 -118 67q-22 22 -57 67q-24 -57 -87 -92q-75 -42 -190 -42h-46v-26q0 -72 -66 -158q-76 -99 -204 -161q-153 -74 -345 -74q-235 0 -408.5 121t-173.5 293q0 182 118.5 300.5t306.5 118.5q106 0 192 -64t86 -150
q0 -49 -24 -72q-30 -28 -106 -28q-52 0 -150 65q-47 31 -80 31q-90 0 -139 -65q-42 -55 -42 -136q0 -106 119 -189q125 -87 301 -87q154 0 279 54q101 44 165 110q54 56 54 91q0 27 -68 103t-135 152q-21 26 -35 70.5t-14 92.5q0 61 25 97q29 42 89 42q29 0 79 -104
q73 -152 103 -194q74 -105 161 -105q50 0 94.5 31t44.5 55q0 4 -2 8l-85 126q-10 15 -21 48.5t-11 55.5q0 56 38 111q35 51 61 51q22 0 45.5 -25.5t32.5 -61.5l53 -210q9 -34 50 -84q49 -59 106 -90q42 14 62 31t20 33q0 7 -5 15l-99 149q-11 16 -18.5 49t-7.5 58
q0 56 38 111q35 51 61 51q22 0 46 -25t32 -62l45 -198q15 -66 86 -142q79 -85 146 -85h26v-128h-72q-67 0 -123 53q-10 10 -57 62zM1189 1171q30 0 62.5 -38.5t54.5 -38.5q0 -39 -13 -75t-13 -81q-36 0 -88 35q-60 40 -60 85q0 41 16.5 77t40.5 36zM1388 1034
q30 0 62.5 -38.5t54.5 -38.5q0 -39 -13 -75t-13 -81q-36 0 -88 35q-60 40 -60 85q0 41 16.5 77t40.5 36zM1189 917q30 0 62.5 -38.5t54.5 -38.5q0 -39 -13 -75t-13 -81q-36 0 -88 35q-60 40 -60 85q0 41 16.5 77t40.5 36z" />
    <glyph glyph-name="sf310.002" unicode="&#x635;" horiz-adv-x="1152" arabic-form="initial" 
d="M1283 444q0 -117 -107 -240q-92 -106 -189.5 -144t-140.5 -47q-59 -13 -166 -13q-70 0 -152 28q-9 -28 -24 -176q-11 -111 -36 -111q-23 0 -32.5 39.5t-9.5 101.5q0 59 6.5 119t10.5 74q-47 31 -79 67q-35 40 -54 88q-40 -82 -80 -163q-57 -67 -139 -67h-91v128h48
q91 0 142 73q35 68 71 136q43 74 113 74q32 0 65 -68q28 -60 57 -119q7 48 37 104q23 44 67 105q22 31 75 99q49 63 133 115q105 65 205 65q136 0 206 -76q64 -70 64 -192zM1085 400q0 38 -44.5 69t-90.5 31q-59 0 -122.5 -29t-120.5 -85q-48 -47 -86 -109q-31 -51 -58 -118
q15 -22 57 -28q20 -3 76 -3q98 0 181.5 27.5t122.5 66.5q50 48 70 96q15 36 15 82z" />
    <glyph glyph-name="sf328" unicode="&#x635;" horiz-adv-x="1280" arabic-form="medial" 
d="M1085 400q0 38 -44.5 69t-90.5 31q-59 0 -122.5 -29t-120.5 -85q-48 -47 -86 -109q-31 -51 -58 -118q15 -22 57 -28q20 -3 76 -3q98 0 181.5 27.5t122.5 66.5q50 48 70 96q15 36 15 82zM1189 220q27 -36 68.5 -64t69.5 -28h51v-128h-108q-49 0 -106.5 30.5t-97.5 73.5
q-17 -12 -42 -27.5t-40 -21.5q-95 -36 -144 -45.5t-160 -9.5q-70 0 -152 28q-9 -28 -24 -176q-11 -111 -36 -111q-23 0 -32.5 39.5t-9.5 101.5q0 59 6.5 119t10.5 74q-47 31 -79 67q-35 40 -54 88q-40 -82 -80 -163q-57 -67 -139 -67h-91v128h48q91 0 142 73q35 68 71 136
q43 74 113 74q32 0 65 -68q28 -60 57 -119q7 48 37 104q23 44 67 105q22 31 75 99q49 63 133 115q105 65 205 65q136 0 206 -76q64 -70 64 -192q0 -58 -24.5 -113t-69.5 -111z" />
    <glyph glyph-name="sf277.005" unicode="&#x635;" horiz-adv-x="1977" arabic-form="final" 
d="M1772 400q0 38 -44.5 69t-90.5 31q-68 0 -161 -64q-66 -45 -164 -140q-66 -66 -132 -131q17 -17 85 -27t112 -10q98 0 184.5 28t125.5 66q50 48 70 96q15 36 15 82zM1882 215q28 -38 62 -62.5t66 -24.5h41v-128h-84q-60 0 -118 31q-48 26 -88 68q-29 -19 -56 -30
q-94 -36 -172 -52.5t-166 -16.5h-184v-26q0 -60 -62 -145q-75 -102 -196 -167q-152 -81 -342 -81q-235 0 -408.5 121t-173.5 293q0 182 118.5 300.5t306.5 118.5q106 0 192 -64t86 -150q0 -49 -24 -72q-30 -28 -106 -28q-52 0 -150 65q-47 31 -80 31q-90 0 -139 -65
q-42 -55 -42 -136q0 -106 119 -189q125 -87 301 -87q158 0 274 52q97 43 154 114q49 61 49 110q0 19 -69 83q-50 46 -89 94q-21 26 -35 69.5t-14 89.5q0 58 25 93q29 41 89 41q27 0 50 -49q48 -104 97 -207q28 35 56 71q54 68 109 137q61 77 69 89q49 70 140 131
q112 75 212 75q136 0 206 -76q64 -70 64 -192q0 -58 -24 -117.5t-64 -111.5z" />
    <glyph glyph-name="sf310.003" unicode="&#x636;" horiz-adv-x="1152" arabic-form="initial" 
d="M1283 444q0 -117 -107 -240q-92 -106 -189.5 -144t-140.5 -47q-59 -13 -166 -13q-70 0 -152 28q-9 -28 -24 -176q-11 -111 -36 -111q-23 0 -32.5 39.5t-9.5 101.5q0 59 6.5 119t10.5 74q-47 31 -79 67q-35 40 -54 88q-40 -82 -80 -163q-57 -67 -139 -67h-91v128h48
q91 0 142 73q35 68 71 136q43 74 113 74q32 0 65 -68q28 -60 57 -119q7 48 37 104q23 44 67 105q22 31 75 99q49 63 133 115q105 65 205 65q136 0 206 -76q64 -70 64 -192zM1085 400q0 38 -44.5 69t-90.5 31q-59 0 -122.5 -29t-120.5 -85q-48 -47 -86 -109q-31 -51 -58 -118
q15 -22 57 -28q20 -3 76 -3q98 0 181.5 27.5t122.5 66.5q50 48 70 96q15 36 15 82zM461 994q30 0 62.5 -38.5t54.5 -38.5q0 -39 -13 -75t-13 -81q-36 0 -88 35q-60 40 -60 85q0 41 16.5 77t40.5 36z" />
    <glyph glyph-name="sf328.001" unicode="&#x636;" horiz-adv-x="1280" arabic-form="medial" 
d="M461 994q30 0 62.5 -38.5t54.5 -38.5q0 -39 -13 -75t-13 -81q-36 0 -88 35q-60 40 -60 85q0 41 16.5 77t40.5 36zM1085 400q0 38 -44.5 69t-90.5 31q-59 0 -122.5 -29t-120.5 -85q-48 -47 -86 -109q-31 -51 -58 -118q15 -22 57 -28q20 -3 76 -3q98 0 181.5 27.5
t122.5 66.5q50 48 70 96q15 36 15 82zM1189 220q27 -36 68.5 -64t69.5 -28h51v-128h-108q-49 0 -106.5 30.5t-97.5 73.5q-17 -12 -42 -27.5t-40 -21.5q-95 -36 -144 -45.5t-160 -9.5q-70 0 -152 28q-9 -28 -24 -176q-11 -111 -36 -111q-23 0 -32.5 39.5t-9.5 101.5
q0 59 6.5 119t10.5 74q-47 31 -79 67q-35 40 -54 88q-40 -82 -80 -163q-57 -67 -139 -67h-91v128h48q91 0 142 73q35 68 71 136q43 74 113 74q32 0 65 -68q28 -60 57 -119q7 48 37 104q23 44 67 105q22 31 75 99q49 63 133 115q105 65 205 65q136 0 206 -76q64 -70 64 -192
q0 -58 -24.5 -113t-69.5 -111z" />
    <glyph glyph-name="sf277.034" unicode="&#x636;" horiz-adv-x="1977" arabic-form="final" 
d="M1772 400q0 38 -44.5 69t-90.5 31q-68 0 -161 -64q-66 -45 -164 -140q-66 -66 -132 -131q17 -17 85 -27t112 -10q98 0 184.5 28t125.5 66q50 48 70 96q15 36 15 82zM1882 215q28 -38 62 -62.5t66 -24.5h41v-128h-84q-60 0 -118 31q-48 26 -88 68q-29 -19 -56 -30
q-94 -36 -172 -52.5t-166 -16.5h-184v-26q0 -60 -62 -145q-75 -102 -196 -167q-152 -81 -342 -81q-235 0 -408.5 121t-173.5 293q0 182 118.5 300.5t306.5 118.5q106 0 192 -64t86 -150q0 -49 -24 -72q-30 -28 -106 -28q-52 0 -150 65q-47 31 -80 31q-90 0 -139 -65
q-42 -55 -42 -136q0 -106 119 -189q125 -87 301 -87q158 0 274 52q97 43 154 114q49 61 49 110q0 19 -69 83q-50 46 -89 94q-21 26 -35 69.5t-14 89.5q0 58 25 93q29 41 89 41q27 0 50 -49q48 -104 97 -207q28 35 56 71q54 68 109 137q61 77 69 89q49 70 140 131
q112 75 212 75q136 0 206 -76q64 -70 64 -192q0 -58 -24 -117.5t-64 -111.5zM1277 983q30 0 62.5 -38.5t54.5 -38.5q0 -39 -13 -75t-13 -81q-36 0 -88 35q-60 40 -60 85q0 41 16.5 77t40.5 36z" />
    <glyph glyph-name="sf311" unicode="&#x637;" horiz-adv-x="888" arabic-form="initial" 
d="M920 444q0 -125 -75.5 -226.5t-190.5 -144.5q-97 -36 -208.5 -54.5t-256.5 -18.5h-189v128h17q37 0 118.5 79t111.5 142q-2 12 -3.5 19.5t-6.5 25.5l-155 545q-8 29 -12 59t-4 48q0 56 38 111q35 51 61 51q23 0 48.5 -26t29.5 -61l73 -661l24 40q51 79 118 134
q95 78 192 78q136 0 206 -76q64 -70 64 -192zM722 400q0 38 -44.5 69t-90.5 31q-66 0 -151 -74q-57 -49 -146 -157q-98 -118 -122 -141h75q108 0 227 33.5t157 70.5q53 51 74 89.5t21 78.5z" />
    <glyph glyph-name="sf329" unicode="&#x637;" horiz-adv-x="954" arabic-form="medial" 
d="M728 400q0 38 -44.5 69t-90.5 31q-67 0 -155 -71q-59 -48 -153 -152q-111 -124 -126 -138q10 -7 34.5 -10t50.5 -3q18 0 40 0.5t49 1.5q93 0 188 43q77 35 122 79q53 51 69 80.5t16 69.5zM817 191q38 -29 85 -46t79 -17h30v-128h-62q-52 0 -122 31q-62 27 -115 69
q-27 -18 -51 -27q-94 -36 -187 -54.5t-190 -18.5h-284v128h17q28 18 107 99q85 88 120 142v25l-155 545q-8 29 -12 59t-4 48q0 56 38 111q35 51 61 51q23 0 48.5 -26t29.5 -61l73 -661l24 40q51 79 118 134q95 78 192 78q136 0 206 -76q64 -70 64 -192q0 -67 -32 -136
q-28 -60 -78 -117z" />
    <glyph glyph-name="sf277.006" unicode="&#x637;" horiz-adv-x="1152" arabic-form="final" 
d="M915 400q0 38 -44.5 69t-90.5 31q-67 0 -152 -63q-63 -46 -150 -138q-62 -65 -123 -130q22 -15 75.5 -28t89.5 -13q93 0 188 43q77 35 122 79q53 51 69 80.5t16 69.5zM1004 191q37 -29 93 -46t91 -17h30v-128h-82q-52 0 -122 31q-62 27 -115 69q-27 -18 -51 -27
q-102 -39 -157 -51q-73 -16 -180 -16q-101 0 -195 18q-130 25 -208 78q-97 66 -97 168q0 46 21 75t63 29q50 0 81 -47q49 -73 97 -107q38 24 72 53q54 46 86 96v25l-155 545q-8 29 -12 59t-4 48q0 56 38 111q35 51 61 51q23 0 48.5 -26t29.5 -61l73 -661l24 40
q51 79 118 134q95 78 192 78q136 0 206 -76q64 -70 64 -192q0 -67 -32 -136q-28 -60 -78 -117z" />
    <glyph glyph-name="sf311.001" unicode="&#x638;" horiz-adv-x="888" arabic-form="initial" 
d="M920 444q0 -125 -75.5 -226.5t-190.5 -144.5q-97 -36 -208.5 -54.5t-256.5 -18.5h-189v128h17q37 0 118.5 79t111.5 142q-2 12 -3.5 19.5t-6.5 25.5l-155 545q-8 29 -12 59t-4 48q0 56 38 111q35 51 61 51q23 0 48.5 -26t29.5 -61l73 -661l24 40q51 79 118 134
q95 78 192 78q136 0 206 -76q64 -70 64 -192zM722 400q0 38 -44.5 69t-90.5 31q-66 0 -151 -74q-57 -49 -146 -157q-98 -118 -122 -141h75q108 0 227 33.5t157 70.5q53 51 74 89.5t21 78.5zM461 1141q30 0 62.5 -38.5t54.5 -38.5q0 -39 -13 -75t-13 -81q-36 0 -88 35
q-60 40 -60 85q0 41 16.5 77t40.5 36z" />
    <glyph glyph-name="sf329.001" unicode="&#x638;" horiz-adv-x="954" arabic-form="medial" 
d="M728 400q0 38 -44.5 69t-90.5 31q-67 0 -155 -71q-59 -48 -153 -152q-111 -124 -126 -138q10 -7 34.5 -10t50.5 -3q18 0 40 0.5t49 1.5q93 0 188 43q77 35 122 79q53 51 69 80.5t16 69.5zM817 191q38 -29 85 -46t79 -17h30v-128h-62q-52 0 -122 31q-62 27 -115 69
q-27 -18 -51 -27q-94 -36 -187 -54.5t-190 -18.5h-284v128h17q28 18 107 99q85 88 120 142v25l-155 545q-8 29 -12 59t-4 48q0 56 38 111q35 51 61 51q23 0 48.5 -26t29.5 -61l73 -661l24 40q51 79 118 134q95 78 192 78q136 0 206 -76q64 -70 64 -192q0 -67 -32 -136
q-28 -60 -78 -117zM483 1104q30 0 62.5 -38.5t54.5 -38.5q0 -39 -13 -75t-13 -81q-36 0 -88 35q-60 40 -60 85q0 41 16.5 77t40.5 36z" />
    <glyph glyph-name="sf277.035" unicode="&#x638;" horiz-adv-x="1152" arabic-form="final" 
d="M915 400q0 38 -44.5 69t-90.5 31q-67 0 -152 -63q-63 -46 -150 -138q-62 -65 -123 -130q22 -15 75.5 -28t89.5 -13q93 0 188 43q77 35 122 79q53 51 69 80.5t16 69.5zM1004 191q37 -29 93 -46t91 -17h30v-128h-82q-52 0 -122 31q-62 27 -115 69q-27 -18 -51 -27
q-102 -39 -157 -51q-73 -16 -180 -16q-101 0 -195 18q-130 25 -208 78q-97 66 -97 168q0 46 21 75t63 29q50 0 81 -47q49 -73 97 -107q38 24 72 53q54 46 86 96v25l-155 545q-8 29 -12 59t-4 48q0 56 38 111q35 51 61 51q23 0 48.5 -26t29.5 -61l73 -661l24 40
q51 79 118 134q95 78 192 78q136 0 206 -76q64 -70 64 -192q0 -67 -32 -136q-28 -60 -78 -117zM677 1093q30 0 62.5 -38.5t54.5 -38.5q0 -39 -13 -75t-13 -81q-36 0 -88 35q-60 40 -60 85q0 41 16.5 77t40.5 36z" />
    <glyph glyph-name="sf299" unicode="&#x639;" horiz-adv-x="768" arabic-form="initial" 
d="M705 664q0 74 -85 132t-188 58q-139 0 -237.5 -95.5t-98.5 -230.5q0 -118 87 -206q62 -63 161 -106q-45 -30 -80 -44q-105 -44 -228 -44h-36v-128h81q101 0 237 52q98 38 242 114q196 104 214 113l111 54q28 13 43.5 38t15.5 51q0 16 -10 36t-25 20q-31 0 -105.5 -35
t-146.5 -69q-87 -36 -145 -36q-91 0 -204 59q-121 63 -121 125q0 61 76 113q68 46 121 46q47 0 108 -67t98 -67q49 0 82 32t33 85z" />
    <glyph glyph-name="sf318" unicode="&#x639;" horiz-adv-x="1024" arabic-form="medial" 
d="M602 365q85 69 126 117.5t41 78.5q0 32 -43.5 55.5t-95.5 23.5q-80 0 -176.5 -44t-143.5 -96q66 0 157 -47q69 -36 135 -88zM604 206q-79 -63 -138 -102q-78 -51 -140 -75q-76 -29 -151 -29h-175v128q137 0 272 45t231 119q-67 40 -140 58q-25 6 -178 22q-28 3 -48 43.5
t-20 81.5q0 62 28 119.5t75 87.5q75 48 194.5 76.5t233.5 28.5q270 0 270 -165q0 -83 -56 -178.5t-154 -172.5q97 -72 144 -99q115 -66 203 -66h52v-128h-92q-75 0 -206 71q-105 57 -205 135z" />
    <glyph glyph-name="sf277.008" unicode="&#x639;" horiz-adv-x="880" arabic-form="final" 
d="M481 367q43 29 95 81q65 66 65 97t-37.5 51t-89.5 20q-80 0 -177 -43t-143 -95q70 0 155 -35q76 -31 132 -76zM485 209q-90 -77 -141 -130q-82 -85 -129 -164q-56 -95 -56 -178q0 -104 63 -177q75 -87 208 -87q120 0 205 66q45 35 111 124q50 67 80 67q33 0 66 -36
q39 -43 39 -105q0 -107 -145 -200t-315 -93q-194 0 -316 104q-131 112 -131 307q0 92 57 204q49 97 138 203q76 91 166 171q-71 42 -175 55q-107 7 -138 10t-51 43.5t-20 81.5q0 62 28 119.5t75 87.5q75 48 194.5 76.5t233.5 28.5q141 0 220 -35.5t79 -111.5q0 -89 -33 -152
q-27 -52 -86 -101l-122 -92q92 -68 147 -100q115 -67 192 -67h22v-128h-72q-48 0 -132 41q-70 34 -150 87q-62 41 -112 81z" />
    <glyph glyph-name="sf299.001" unicode="&#x63a;" horiz-adv-x="768" arabic-form="initial" 
d="M705 664q0 74 -85 132t-188 58q-139 0 -237.5 -95.5t-98.5 -230.5q0 -118 87 -206q62 -63 161 -106q-45 -30 -80 -44q-105 -44 -228 -44h-36v-128h81q101 0 237 52q98 38 242 114q196 104 214 113l111 54q28 13 43.5 38t15.5 51q0 16 -10 36t-25 20q-31 0 -105.5 -35
t-146.5 -69q-87 -36 -145 -36q-91 0 -204 59q-121 63 -121 125q0 61 76 113q68 46 121 46q47 0 108 -67t98 -67q49 0 82 32t33 85zM165 1236q30 0 62.5 -38.5t54.5 -38.5q0 -39 -13 -75t-13 -81q-36 0 -88 35q-60 40 -60 85q0 41 16.5 77t40.5 36z" />
    <glyph glyph-name="sf318.001" unicode="&#x63a;" horiz-adv-x="1024" arabic-form="medial" 
d="M602 365q85 69 126 117.5t41 78.5q0 32 -43.5 55.5t-95.5 23.5q-80 0 -176.5 -44t-143.5 -96q66 0 157 -47q69 -36 135 -88zM604 206q-79 -63 -138 -102q-78 -51 -140 -75q-76 -29 -151 -29h-175v128q137 0 272 45t231 119q-67 40 -140 58q-25 6 -178 22q-28 3 -48 43.5
t-20 81.5q0 62 28 119.5t75 87.5q75 48 194.5 76.5t233.5 28.5q270 0 270 -165q0 -83 -56 -178.5t-154 -172.5q97 -72 144 -99q115 -66 203 -66h52v-128h-92q-75 0 -206 71q-105 57 -205 135zM393 1137q30 0 62.5 -38.5t54.5 -38.5q0 -39 -13 -75t-13 -81q-36 0 -88 35
q-60 40 -60 85q0 41 16.5 77t40.5 36z" />
    <glyph glyph-name="sf277.036" unicode="&#x63a;" horiz-adv-x="880" arabic-form="final" 
d="M481 367q43 29 95 81q65 66 65 97t-37.5 51t-89.5 20q-80 0 -177 -43t-143 -95q70 0 155 -35q76 -31 132 -76zM485 209q-90 -77 -141 -130q-82 -85 -129 -164q-56 -95 -56 -178q0 -104 63 -177q75 -87 208 -87q120 0 205 66q45 35 111 124q50 67 80 67q33 0 66 -36
q39 -43 39 -105q0 -107 -145 -200t-315 -93q-194 0 -316 104q-131 112 -131 307q0 92 57 204q49 97 138 203q76 91 166 171q-71 42 -175 55q-107 7 -138 10t-51 43.5t-20 81.5q0 62 28 119.5t75 87.5q75 48 194.5 76.5t233.5 28.5q141 0 220 -35.5t79 -111.5q0 -89 -33 -152
q-27 -52 -86 -101l-122 -92q92 -68 147 -100q115 -67 192 -67h22v-128h-72q-48 0 -132 41q-70 34 -150 87q-62 41 -112 81zM248 1137q30 0 62.5 -38.5t54.5 -38.5q0 -39 -13 -75t-13 -81q-36 0 -88 35q-60 40 -60 85q0 41 16.5 77t40.5 36z" />
    <glyph glyph-name="sf301" unicode="&#x641;" horiz-adv-x="585" arabic-form="initial" 
d="M510 392v12q0 85 -86.5 169.5t-167.5 84.5q-44 0 -78 -30t-34 -76q0 -68 139 -118q118 -42 227 -42zM427 232l-39 -1q-116 0 -220 70q-128 87 -128 229q0 128 54 229q64 121 172 121q131 0 246.5 -156.5t115.5 -348.5q0 -173 -143 -274t-388 -101h-97v128h50
q99 0 204 28.5t173 75.5zM116 1203q30 0 62.5 -38.5t54.5 -38.5q0 -39 -13 -75t-13 -81q-36 0 -88 35q-60 40 -60 85q0 41 16.5 77t40.5 36z" />
    <glyph glyph-name="sf321" unicode="&#x641;" horiz-adv-x="792" arabic-form="medial" 
d="M230 1203q30 0 62.5 -38.5t54.5 -38.5q0 -39 -13 -75t-13 -81q-36 0 -88 35q-60 40 -60 85q0 41 16.5 77t40.5 36zM868 0h-82q-106 0 -222 55q-35 17 -110 59q-60 -38 -182.5 -76t-183.5 -38h-88v128h20q100 0 192 24q73 19 127 48q-93 76 -140 161q-50 91 -50 197
q0 99 64 185q71 95 169 95q130 0 211 -78q94 -90 94 -264q0 -76 -34.5 -144.5t-103.5 -133.5q86 -46 119 -59q76 -31 140 -31h60v-128zM539 446q0 70 -49 116t-123 46q-25 0 -48.5 -32.5t-23.5 -65.5q0 -57 43 -115q36 -49 114 -113q87 84 87 164z" />
    <glyph glyph-name="sf277.009" unicode="&#x641;" horiz-adv-x="1707" arabic-form="final" 
d="M1536 437q0 66 -86 131q-78 59 -136 59q-28 0 -49 -44.5t-21 -91.5q0 -21 4 -33q8 -30 62 -86.5t132 -116.5q33 16 63.5 77t30.5 105zM1189 1148q30 0 62.5 -38.5t54.5 -38.5q0 -39 -13 -75t-13 -81q-36 0 -88 35q-60 40 -60 85q0 41 16.5 77t40.5 36zM671 -50
q-176 0 -309 23q-162 28 -249 87q-103 70 -103 181q0 155 148 248q130 82 304 82q160 0 277.5 -58t117.5 -143q0 -50 -33 -83q-40 -40 -114 -40q-43 0 -93 37q-81 61 -97 69q-70 38 -160 38q-73 0 -145 -33q-87 -40 -87 -100q0 -74 211 -129q196 -51 429 -51q145 0 320.5 31
t241.5 67q-6 0 -51 40q-58 52 -95 114q-52 87 -52 178q0 117 39 198q49 102 144 102q114 0 215 -108t101 -226q0 -66 -18 -147q-22 -100 -58 -142q39 -28 91.5 -42.5t97.5 -14.5h48v-128h-113q-60 0 -135 33q-62 27 -105 62q-36 -29 -119 -58q-104 -36 -253 -59
q-184 -28 -396 -28z" />
    <glyph glyph-name="sf301.001" unicode="&#x642;" horiz-adv-x="585" arabic-form="initial" 
d="M510 392v12q0 85 -86.5 169.5t-167.5 84.5q-44 0 -78 -30t-34 -76q0 -68 139 -118q118 -42 227 -42zM427 232l-39 -1q-116 0 -220 70q-128 87 -128 229q0 128 54 229q64 121 172 121q131 0 246.5 -156.5t115.5 -348.5q0 -173 -143 -274t-388 -101h-97v128h50
q99 0 204 28.5t173 75.5zM266 1309q30 0 62.5 -38.5t54.5 -38.5q0 -39 -13 -75t-13 -81q-36 0 -88 35q-60 40 -60 85q0 41 16.5 77t40.5 36zM67 1192q30 0 62.5 -38.5t54.5 -38.5q0 -39 -13 -75t-13 -81q-36 0 -88 35q-60 40 -60 85q0 41 16.5 77t40.5 36z" />
    <glyph glyph-name="sf321.001" unicode="&#x642;" horiz-adv-x="798" arabic-form="medial" 
d="M286 1309q30 0 62.5 -38.5t54.5 -38.5q0 -39 -13 -75t-13 -81q-36 0 -88 35q-60 40 -60 85q0 41 16.5 77t40.5 36zM87 1192q30 0 62.5 -38.5t54.5 -38.5q0 -39 -13 -75t-13 -81q-36 0 -88 35q-60 40 -60 85q0 41 16.5 77t40.5 36zM868 0h-82q-106 0 -222 55
q-35 17 -110 59q-60 -38 -182.5 -76t-183.5 -38h-88v128h20q100 0 192 24q73 19 127 48q-93 76 -140 161q-50 91 -50 197q0 99 64 185q71 95 169 95q130 0 211 -78q94 -90 94 -264q0 -76 -34.5 -144.5t-103.5 -133.5q86 -46 119 -59q76 -31 140 -31h60v-128zM539 446
q0 70 -49 116t-123 46q-25 0 -48.5 -32.5t-23.5 -65.5q0 -57 43 -115q36 -49 114 -113q87 84 87 164z" />
    <glyph glyph-name="sf277.010" unicode="&#x642;" horiz-adv-x="1326" arabic-form="final" 
d="M1155 156v17q0 85 -81.5 169.5t-162.5 84.5q-44 0 -78 -30t-34 -76q0 -68 134 -120q117 -45 222 -45zM1282 141l93 -13v-128h-102q-27 -173 -263 -307q-224 -127 -452 -127q-239 0 -395 102q-162 106 -162 276q0 177 117 287q112 106 282 106q105 0 179.5 -60.5
t74.5 -147.5q0 -47 -32 -70.5t-110 -23.5q-52 0 -142 61q-43 29 -76 29q-85 0 -125 -60q-28 -42 -28 -98q0 -79 131 -168q139 -95 286 -95q132 0 271 55q118 47 213 121q87 68 108 120h-87q-150 0 -251 70q-117 81 -117 229q0 128 54 229q64 121 172 121q125 0 243 -161.5
t118 -346.5zM640 946q30 0 62.5 -38.5t54.5 -38.5q0 -39 -13 -75t-13 -81q-36 0 -88 35q-60 40 -60 85q0 41 16.5 77t40.5 36zM441 829q30 0 62.5 -38.5t54.5 -38.5q0 -39 -13 -75t-13 -81q-36 0 -88 35q-60 40 -60 85q0 41 16.5 77t40.5 36z" />
    <glyph glyph-name="sf302.001" unicode="&#x643;" horiz-adv-x="654" arabic-form="initial" 
d="M673 1421q17 7 40 7q36 0 66.5 -18t38.5 -49q3 -12 3 -26q0 -40 -19 -76t-49 -45q-178 -50 -337 -159q-128 -87 -217 -189q-76 -87 -79 -123q0 -7 132 -71q160 -78 245 -142q132 -100 132 -195q0 -133 -117 -217q-90 -65 -242 -96q-107 -22 -203 -22h-67v128h27
q129 0 306 64q166 60 166 90q0 66 -129 143q-120 66 -239 133q-130 83 -130 163q0 69 72 191q85 144 221 267q167 152 379 242z" />
    <glyph glyph-name="sf322.003" unicode="&#x643;" horiz-adv-x="920" arabic-form="medial" 
d="M965 128h15v-128h-65q-51 0 -112 39q-49 31 -113 95q-43 43 -103 111q-18 -92 -126 -153q-84 -48 -215 -73q-98 -19 -179 -19h-67v128h27q115 0 229 40q94 33 165 82q63 43 63 64q0 47 -125 115q-227 124 -232 127q-126 83 -126 165q0 69 72 191q85 144 221 267
q167 152 379 242q17 7 40 7q36 0 66.5 -18t38.5 -49q3 -12 3 -24q0 -36 -19.5 -69.5t-48.5 -43.5q-159 -54 -316 -166q-127 -90 -227 -198q-87 -93 -90 -127q79 -34 104 -46q91 -43 164 -86q101 -60 181 -126q71 -59 163 -156q108 -114 130 -134q63 -57 103 -57z" />
    <glyph glyph-name="sf322.004" unicode="&#x643;" horiz-adv-x="1792" arabic-form="final" 
d="M1059 940l-83 -22l31 -114q3 -11 3 -19q0 -31 -38 -42l-116 -31q-10 -2 -15 -2q-21 0 -34.5 15.5t-13.5 35.5q0 17 9 29.5t28 17.5l68 18l-31 114q-3 11 -3 19q0 31 38 42l131 35q10 2 15 2q21 0 34.5 -15.5t13.5 -35.5q0 -17 -9 -29.5t-28 -17.5zM802 -50
q-186 0 -340 26q-197 33 -308 102q-134 83 -134 213q0 171 191 272q176 93 439 93q272 0 491 -103q203 -95 203 -191q0 -51 -23 -83q-29 -40 -85 -40q-92 0 -174 68q-124 103 -173 127q-140 69 -367 69q-123 0 -244 -60q-130 -64 -130 -141q0 -96 223.5 -160.5t529.5 -64.5
q157 0 353 76q212 82 212 167q0 8 -1 12l-116 607q-6 24 -11 57t-5 50q0 56 38 111q35 51 61 51q23 0 44 -24.5t25 -62.5l68 -719q9 -94 69 -173q77 -101 198 -101h36v-128h-82q-86 0 -163 60q-60 47 -91 107q-8 -20 -89 -66q-109 -62 -247 -100q-186 -51 -398 -51z
M1335 1071q0 69 72 191q85 144 221 267q167 152 379 242q17 7 40 7q36 0 66.5 -18t38.5 -49q3 -12 3 -26q0 -40 -19 -76t-49 -45q-178 -50 -337 -159q-128 -87 -217 -189q-48 -55 -67 -90l-129 -73q-2 9 -2 18z" />
    <glyph glyph-name="sf302.002" unicode="&#x6af;" horiz-adv-x="654" arabic-form="initial" 
d="M673 1421q17 7 40 7q36 0 66.5 -18t38.5 -49q3 -12 3 -26q0 -40 -19 -76t-49 -45q-178 -50 -337 -159q-128 -87 -217 -189q-76 -87 -79 -123q0 -7 132 -71q160 -78 245 -142q132 -100 132 -195q0 -133 -117 -217q-90 -65 -242 -96q-107 -22 -203 -22h-67v128h27
q129 0 306 64q166 60 166 90q0 66 -129 143q-120 66 -239 133q-130 83 -130 163q0 69 72 191q85 144 221 267q167 152 379 242zM-52 1017q0 69 72 191q85 144 221 267q167 152 379 242q17 7 40 7q36 0 66.5 -18t38.5 -49q3 -12 3 -26q0 -40 -19 -76t-49 -45
q-178 -50 -337 -159q-128 -87 -217 -189q-48 -55 -67 -90l-129 -73q-2 9 -2 18z" />
    <glyph glyph-name="sf322.001" unicode="&#x6af;" horiz-adv-x="920" arabic-form="medial" 
d="M965 128h15v-128h-65q-51 0 -112 39q-49 31 -113 95q-43 43 -103 111q-18 -92 -126 -153q-84 -48 -215 -73q-98 -19 -179 -19h-67v128h27q115 0 229 40q94 33 165 82q63 43 63 64q0 47 -125 115q-227 124 -232 127q-126 83 -126 165q0 69 72 191q85 144 221 267
q167 152 379 242q17 7 40 7q36 0 66.5 -18t38.5 -49q3 -12 3 -24q0 -36 -19.5 -69.5t-48.5 -43.5q-159 -54 -316 -166q-127 -90 -227 -198q-87 -93 -90 -127q79 -34 104 -46q91 -43 164 -86q101 -60 181 -126q71 -59 163 -156q108 -114 130 -134q63 -57 103 -57zM-52 1017
q0 69 72 191q85 144 221 267q167 152 379 242q17 7 40 7q36 0 66.5 -18t38.5 -49q3 -12 3 -26q0 -40 -19 -76t-49 -45q-178 -50 -337 -159q-128 -87 -217 -189q-48 -55 -67 -90l-129 -73q-2 9 -2 18z" />
    <glyph glyph-name="sf322.002" unicode="&#x6af;" horiz-adv-x="1792" arabic-form="final" 
d="M1059 940l-83 -22l31 -114q3 -11 3 -19q0 -31 -38 -42l-116 -31q-10 -2 -15 -2q-21 0 -34.5 15.5t-13.5 35.5q0 17 9 29.5t28 17.5l68 18l-31 114q-3 11 -3 19q0 31 38 42l131 35q10 2 15 2q21 0 34.5 -15.5t13.5 -35.5q0 -17 -9 -29.5t-28 -17.5zM1200 1
q-186 -51 -398 -51q-186 0 -340 26q-197 33 -308 102q-134 83 -134 213q0 171 191 272q176 93 439 93q272 0 491 -103q203 -95 203 -191q0 -51 -23 -83q-29 -40 -85 -40q-92 0 -174 68q-124 103 -173 127q-140 69 -367 69q-123 0 -244 -60q-130 -64 -130 -141
q0 -96 223.5 -160.5t529.5 -64.5q157 0 353 76q212 82 212 167q0 8 -1 12l-116 607q-6 24 -11 57t-5 50q0 56 38 111q35 51 61 51q23 0 44 -24.5t25 -62.5l68 -719q9 -94 69 -173q77 -101 198 -101h36v-128h-82q-86 0 -163 60q-60 47 -91 107q-8 -20 -89 -66
q-109 -62 -247 -100zM1335 1071q0 69 72 191q85 144 221 267q167 152 379 242q17 7 40 7q36 0 66.5 -18t38.5 -49q3 -12 3 -26q0 -40 -19 -76t-49 -45q-178 -50 -337 -159q-128 -87 -217 -189q-48 -55 -67 -90l-129 -73q-2 9 -2 18zM1219 1235q-9 68 46 199q65 154 184 294
q146 172 344 289q16 10 39 13q35 4 68 -9.5t45 -43.5q4 -11 6 -25q5 -40 -9 -78t-43 -51q-169 -73 -313 -202q-115 -103 -190 -216q-40 -61 -54 -98l-119 -90q-3 9 -4 18z" />
    <glyph glyph-name="sf306" unicode="&#x644;" horiz-adv-x="264" arabic-form="initial" 
d="M209 1121l107 -825q3 -29 3 -55q0 -106 -47 -169q-54 -72 -159 -72h-113v128h33q72 0 118 38t46 105q0 17 -5 42l-144 626q-6 24 -11 57t-5 50q0 56 38 111q35 51 61 51q24 0 49 -25.5t29 -61.5z" />
    <glyph glyph-name="sf325" unicode="&#x644;" horiz-adv-x="537" arabic-form="medial" 
d="M306 140q-14 -63 -76.5 -101.5t-150.5 -38.5h-79v128h41q74 0 135.5 57.5t61.5 130.5q0 17 -2 26l-116 597q-6 24 -11 57t-5 50q0 56 38 111q35 51 61 51q24 0 47 -23q28 -27 31 -64l68 -719q8 -82 51 -159q64 -115 167 -115h36v-128h-103q-66 0 -128 52q-53 44 -66 88z
" />
    <glyph glyph-name="sf277.011" unicode="&#x644;" horiz-adv-x="1175" arabic-form="final" 
d="M999 344q8 -64 91 -142q78 -74 124 -74h16v-128h-62q-31 0 -74 27q-49 31 -79 78q0 -244 -127 -376q-113 -117 -291 -117q-241 0 -414 105q-182 111 -182 278q0 182 118.5 300.5t306.5 118.5q106 0 192 -64t86 -150q0 -49 -24 -72q-30 -28 -106 -28q-52 0 -150 65
q-47 31 -80 31q-90 0 -142 -65q-45 -56 -45 -136q0 -100 151 -169q144 -66 333 -66q93 0 180 104t98 232q-19 108 -38 217l-144 626q-6 24 -11 57t-5 50q0 56 38 111q35 51 61 51q24 0 49 -25.5t29 -61.5z" />
    <glyph glyph-name="sf307" unicode="&#x645;" horiz-adv-x="640" arabic-form="initial" 
d="M760 169q0 -75 -44 -134q-47 -63 -117 -63q-102 0 -191 45t-126 111q-31 -61 -89 -96q-53 -32 -104 -32h-89v128h36q58 0 105.5 27.5t76.5 76.5q10 17 57 123q39 88 71 126q49 58 113 58q137 0 221 -107q80 -102 80 -263zM615 205q0 57 -61 106q-54 44 -96 44
q-39 0 -65.5 -33.5t-33.5 -92.5q30 -49 80 -75t103 -26q37 0 55 21t18 56z" />
    <glyph glyph-name="sf326" unicode="&#x645;" horiz-adv-x="864" arabic-form="medial" 
d="M602 205q0 57 -71 117q-64 54 -107 54q-40 0 -67 -29t-34 -87q32 -52 92.5 -92t109.5 -40q38 0 57.5 21.5t19.5 55.5zM731 277q20 -69 63 -109t98 -40h26v-128h-62q-44 0 -73.5 13.5t-65.5 42.5q-23 -39 -56 -61.5t-75 -22.5q-100 0 -200.5 49.5t-129.5 106.5
q-15 -56 -75 -94q-54 -34 -106 -34h-75v128h27q47 0 83 22q48 29 77 98q41 100 83 201q57 102 147 102q118 0 207 -90q75 -75 107 -184z" />
    <glyph glyph-name="sf277.012" unicode="&#x645;" horiz-adv-x="946" arabic-form="final" 
d="M1024 0h-80q-79 0 -140 40q-48 31 -80 82q-8 -63 -33 -104q-38 -63 -110 -63q-107 0 -216 78q-125 90 -125 209q0 32 6 61.5t32 89.5l-108 -38q-63 -30 -63 -92q0 -129 49 -240q30 -67 113 -187q87 -125 124 -202q9 -18 13 -35.5t4 -34.5q0 -45 -28 -74t-68 -29
q-39 0 -73.5 33.5t-50 87.5t-68.5 181q-56 135 -80 219q-39 136 -39 253q0 124 81 201q64 61 173 90q79 21 158 21q85 0 169 -64q76 -58 152 -167q44 -63 64 -86q41 -48 81 -72q50 -30 109 -30h34v-128zM650 171q0 56 -94 131q-84 67 -138 79q-36 -20 -53 -50
q-12 -21 -22 -67q33 -53 93 -94.5t109 -41.5q42 0 73.5 11.5t31.5 31.5z" />
    <glyph glyph-name="sf300.008" unicode="&#x646;" horiz-adv-x="280" arabic-form="initial" 
d="M276 553l66 -287q6 -26 6 -48q0 -99 -100 -164q-83 -54 -165 -54h-83v128h13q58 0 126.5 32t68.5 67q0 8 -4 15l-79 129q-9 15 -17.5 50t-8.5 57q0 56 38 111q35 51 61 51q22 0 46 -25t32 -62zM89 1041q30 0 62.5 -38.5t54.5 -38.5q0 -39 -13 -75t-13 -81q-36 0 -88 35
q-60 40 -60 85q0 41 16.5 77t40.5 36z" />
    <glyph glyph-name="sf277.023" unicode="&#x646;" horiz-adv-x="549" arabic-form="medial" 
d="M349 383q19 -62 85 -145q87 -110 166 -110h16v-128h-77q-58 0 -121 50q-56 44 -90 104q-31 -70 -94.5 -112t-150.5 -42h-83v128h13q73 0 151 37t78 77q0 11 -8 22l-83 110q-12 16 -22 48t-10 56q0 56 38 111q35 51 61 51q21 0 44 -25.5t34 -61.5zM165 1041
q30 0 62.5 -38.5t54.5 -38.5q0 -39 -13 -75t-13 -81q-36 0 -88 35q-60 40 -60 85q0 41 16.5 77t40.5 36z" />
    <glyph glyph-name="sf277.020" unicode="&#x646;" horiz-adv-x="1314" arabic-form="final" 
d="M1083 319q74 -112 151 -158q55 -33 112 -33h28v-128h-62q-32 0 -65.5 9.5t-50.5 25.5l2 -35q0 -91 -66 -182q-74 -103 -204 -165q-150 -72 -345 -72q-235 0 -408.5 121t-173.5 293q0 182 118.5 300.5t306.5 118.5q106 0 192 -64t86 -150q0 -49 -24 -72q-30 -28 -106 -28
q-52 0 -150 65q-47 31 -80 31q-90 0 -139 -65q-42 -55 -42 -136q0 -101 136 -188.5t284 -87.5q154 0 279 56q98 44 165 114q54 56 54 85q0 49 -100 146q-67 64 -103 109q-21 26 -35 70.5t-14 92.5q0 61 25 97q29 42 89 42q26 0 85 -106q19 -35 55 -106zM549 777
q30 0 62.5 -38.5t54.5 -38.5q0 -39 -13 -75t-13 -81q-36 0 -88 35q-60 40 -60 85q0 41 16.5 77t40.5 36z" />
    <glyph glyph-name="sf277.044" unicode="&#x6ba;" horiz-adv-x="1314" arabic-form="final" 
d="M1083 319q74 -112 151 -158q55 -33 112 -33h28v-128h-62q-32 0 -65.5 9.5t-50.5 25.5l2 -35q0 -91 -66 -182q-74 -103 -204 -165q-150 -72 -345 -72q-235 0 -408.5 121t-173.5 293q0 182 118.5 300.5t306.5 118.5q106 0 192 -64t86 -150q0 -49 -24 -72q-30 -28 -106 -28
q-52 0 -150 65q-47 31 -80 31q-90 0 -139 -65q-42 -55 -42 -136q0 -101 136 -188.5t284 -87.5q154 0 279 56q98 44 165 114q54 56 54 85q0 49 -100 146q-67 64 -103 109q-21 26 -35 70.5t-14 92.5q0 61 25 97q29 42 89 42q26 0 85 -106q19 -35 55 -106z" />
    <glyph glyph-name="sf277.016" unicode="&#x648;" horiz-adv-x="896" arabic-form="final" 
d="M983 0h-158q0 -125 -59 -271q-54 -134 -132 -230t-133 -96q-34 0 -60 17q-32 21 -32 59q0 17 24 55q21 33 41 56q95 108 177 245q76 127 76 165h-119q-151 0 -243 62q-109 74 -109 222q0 128 56 234q67 127 174 127q137 0 247 -149q115 -156 115 -368h135v-128zM730 137
v32q0 85 -86.5 169.5t-167.5 84.5q-44 0 -78 -30t-34 -76q0 -69 139 -128q123 -52 227 -52z" />
    <glyph glyph-name="sf277.045" unicode="&#x624;" horiz-adv-x="896" arabic-form="final" 
d="M563 1027q-3 -32 -7 -49q-13 -53 -43 -64l-251 -97q-3 -1 -6.5 -1.5t-4.5 -0.5q-12 0 -12 15q0 19 14 33q9 11 29 31l17 17q-21 16 -31 25q-32 30 -32 51q0 87 56 146q52 55 116 55q24 0 50.5 -26.5t26.5 -59.5q0 -25 -10.5 -33.5t-31.5 -8.5q-10 0 -34 3t-38 3
q-29 0 -57 -16t-28 -34q0 -12 52 -26.5t85 -14.5q20 0 82 26q20 8 58 26zM983 0h-158q0 -125 -59 -271q-54 -134 -132 -230t-133 -96q-34 0 -60 17q-32 21 -32 59q0 17 24 55q21 33 41 56q95 108 177 245q76 127 76 165h-119q-151 0 -243 62q-109 74 -109 222q0 128 56 234
q67 127 174 127q137 0 247 -149q115 -156 115 -368h135v-128zM730 137v32q0 85 -86.5 169.5t-167.5 84.5q-44 0 -78 -30t-34 -76q0 -69 139 -128q123 -52 227 -52z" />
    <glyph glyph-name="sf265.001.init" unicode="&#x6c1;" horiz-adv-x="610" arabic-form="initial" 
d="M228 42q-73 -42 -145 -42h-83v128h13q58 0 126.5 32t68.5 67q0 8 -4 15l-79 129q-9 15 -17.5 50t-8.5 57q0 56 38 111q35 51 61 51q22 0 46 -25t32 -62l66 -287q6 -26 6 -48q0 -49 -25 -90q58 0 127 32q68 32 68 67q0 8 -4 15l-79 129q-9 15 -17.5 50t-8.5 57
q0 56 38 111q35 51 61 51q22 0 46 -25t32 -62l66 -287q6 -26 6 -48q0 -99 -100 -164q-83 -54 -167 -54q-142 10 -163 42zM390 -351q-2 7 -4.5 13.5t-5.5 13.5q-6 13 -10 26q8 1 17 3l9 2q13 4 26.5 7.5t25.5 6.5q4 1 7 2q8 2 15 3q-1 0 2 -6l8 -18q9 -19 15.5 -38t4.5 -38
q-1 -25 -14 -45t-34.5 -34.5t-48.5 -22.5q-5 -2 -10 -3q-22 -5 -46 -5q-33 -1 -61 8t-49 24.5t-37 36.5q-10 14 -16 29q-4 8 -6 15q-8 24 -9 49t6 48q6 29 14.5 56.5t14.5 55t7.5 56t-7.5 58.5q1 0 6 1l45 11q14 3 26.5 5t23.5 3q12 -27 14.5 -55t-4.5 -55
q-11 -28 -23.5 -58.5t-18.5 -61.5t-2 -63q2 -17 10 -35q6 -13 16 -27q12 -13 30 -15q13 -2 25 1q4 1 7 2q16 6 25.5 17.5t5.5 26.5z" />
    <glyph glyph-name="sf297" unicode="&#x6c1;" horiz-adv-x="574" arabic-form="medial" 
d="M592 0q-14 1 -27 1q-48 0 -82 -9q-44 -11 -69.5 -35t-35.5 -59.5t-10 -80.5q0 -42 9.5 -81.5t38.5 -59.5l-39 -137q-66 33 -111 77t-73 93.5t-40 102.5t-12 105q0 55 9 110.5t23 97.5q-35 -58 -82.5 -91.5t-110.5 -33.5v128q66 -2 113.5 35t77.5 80.5t61 80.5t53 57
q7 7 25 7q14 0 14 -9v-2q0 -32 -15 -73.5t-33.5 -94.5t-33.5 -118.5t-15 -146.5q0 -26 3 -50.5t10.5 -45.5t20 -36.5t32.5 -22.5q-3 30 -3 60q0 64 23 118t63.5 94.5t95.5 57.5t120 9v-128z" />
    <glyph glyph-name="sf277.013" unicode="&#x6c1;" horiz-adv-x="1020" arabic-form="final" 
d="M751 339q-19 58 -57 103q-47 57 -120 89q-85 38 -200 38q-74 0 -143 -60q-74 -64 -74 -141q0 -102 103 -169q109 -71 287 -71q83 0 155.5 41t72.5 86q0 6 -2 14zM886 220q11 -13 22 -25q62 -67 124 -67h66v-128h-92q-89 0 -150 49q-12 10 -24 23q-14 8 -37 52
q-27 -27 -62 -59q-50 -45 -104 -68q-63 -27 -139 -27q-108 0 -208 34q-118 40 -189 118q-83 91 -83 220q0 171 117 272q107 93 267 93q91 0 165 -34q61 -28 127 -86v14q0 12 -3 53t-3 53q0 32 7.5 49t27.5 17q31 0 58 -80q16 -49 29 -117q10 -56 16 -88q16 -83 30 -150
q13 -66 38 -118z" />
    <glyph glyph-name="sf265.002.fina" unicode="&#x6c3;" horiz-adv-x="1020" 
d="M620 1158q30 0 62.5 -38.5t54.5 -38.5q0 -39 -13 -75t-13 -81q-36 0 -88 35q-60 40 -60 85q0 41 16.5 77t40.5 36zM421 1041q30 0 62.5 -38.5t54.5 -38.5q0 -39 -13 -75t-13 -81q-36 0 -88 35q-60 40 -60 85q0 41 16.5 77t40.5 36zM751 339q-19 58 -57 103
q-47 57 -120 89q-85 38 -200 38q-74 0 -143 -60q-74 -64 -74 -141q0 -102 103 -169q109 -71 287 -71q83 0 155.5 41t72.5 86q0 6 -2 14zM886 220q11 -13 22 -25q62 -67 124 -67h66v-128h-92q-89 0 -150 49q-12 10 -24 23q-14 8 -37 52q-27 -27 -62 -59q-50 -45 -104 -68
q-63 -27 -139 -27q-108 0 -208 34q-118 40 -189 118q-83 91 -83 220q0 171 117 272q107 93 267 93q91 0 165 -34q61 -28 127 -86v14q0 12 -3 53t-3 53q0 32 7.5 49t27.5 17q31 0 58 -80q16 -49 29 -117q10 -56 16 -88q16 -83 30 -150q13 -66 38 -118z" />
    <glyph glyph-name="sf305" unicode="&#x6be;" horiz-adv-x="1035" arabic-form="initial" 
d="M1077 354q0 -189 -86 -298.5t-241 -109.5q-101 0 -199 48q-83 41 -143 104q-81 -50 -171 -74t-181 -24h-56v128h26q88 0 154 11q90 15 156 53q-53 61 -82 132.5t-29 146.5q0 33 9 65q-70 6 -137 65q-85 75 -85 188q0 144 136 234q118 78 259 78q163 0 313 -88
q159 -93 253 -254q104 -178 104 -405zM962 300q0 140 -67 279q-70 146 -189 236q-130 99 -286 99q-81 0 -142 -40.5t-61 -90.5q0 -49 30 -92q24 -35 58 -54q30 21 65.5 31.5t83.5 10.5q72 0 129 -61q65 -70 65 -182q0 -63 -40 -136q-35 -64 -93 -120q50 -46 98 -72
q62 -34 119 -34q90 0 163 79q67 73 67 147zM506 394q0 68 -16.5 94.5t-55.5 26.5q-38 0 -55 -37q-13 -28 -13 -64q0 -31 20 -69.5t55 -74.5q29 29 47 61.5t18 62.5z" />
    <glyph glyph-name="sf324" unicode="&#x6be;" horiz-adv-x="1164" arabic-form="medial" 
d="M962 300q0 140 -67 279q-70 146 -189 236q-130 99 -286 99q-81 0 -142 -40.5t-61 -90.5q0 -49 30 -92q24 -35 58 -54q30 21 65.5 31.5t83.5 10.5q72 0 129 -61q65 -70 65 -182q0 -63 -40 -136q-35 -64 -93 -120q50 -46 98 -72q62 -34 119 -34q90 0 163 79q67 73 67 147z
M506 394q0 68 -16.5 94.5t-55.5 26.5q-38 0 -55 -37q-13 -28 -13 -64q0 -31 20 -69.5t55 -74.5q29 29 47 61.5t18 62.5zM1067 226q29 -45 72 -73q39 -25 71 -25h16v-128h-62q-46 0 -103 47q-19 15 -48 48q-29 -61 -97 -103q-75 -46 -166 -46q-101 0 -199 48q-83 41 -143 104
q-81 -50 -171 -74t-181 -24h-56v128h26q88 0 154 11q90 15 156 53q-53 61 -82 132.5t-29 146.5q0 33 9 65q-70 6 -137 65q-85 75 -85 188q0 144 136 234q118 78 259 78q163 0 313 -88q159 -93 253 -254q104 -178 104 -405q0 -33 -2.5 -70t-7.5 -58z" />
    <glyph glyph-name="sf324.001" unicode="&#x6be;" horiz-adv-x="1252" arabic-form="final" 
d="M1050 300q0 140 -67 279q-70 146 -189 236q-130 99 -286 99q-81 0 -142 -40.5t-61 -90.5q0 -49 30 -92q24 -35 58 -54q30 21 65.5 31.5t83.5 10.5q72 0 129 -61q65 -70 65 -182q0 -63 -40 -136q-35 -64 -93 -120q50 -46 98 -72q62 -34 119 -34q90 0 163 79q67 73 67 147z
M594 394q0 68 -16.5 94.5t-55.5 26.5q-38 0 -55 -37q-13 -28 -13 -64q0 -31 20 -69.5t55 -74.5q29 29 47 61.5t18 62.5zM1155 226q29 -45 72 -73q39 -25 71 -25h16v-128h-62q-46 0 -103 47q-19 15 -48 48q-29 -61 -97 -103q-75 -46 -166 -46q-101 0 -199 48q-83 41 -143 104
q-81 -50 -286 -106q-25 112 61.5 137t152.5 63q-53 61 -82 132.5t-29 146.5q0 33 9 65q-70 6 -137 65q-85 75 -85 188q0 144 136 234q118 78 259 78q163 0 313 -88q159 -93 253 -254q104 -178 104 -405q0 -33 -2.5 -70t-7.5 -58z" />
    <glyph glyph-name="sf300.006" unicode="&#x649;" horiz-adv-x="280" 
d="M276 553l66 -287q6 -26 6 -48q0 -99 -100 -164q-83 -54 -165 -54h-83v128h13q58 0 126.5 32t68.5 67q0 8 -4 15l-79 129q-9 15 -17.5 50t-8.5 57q0 56 38 111q35 51 61 51q22 0 46 -25t32 -62zM266 -77q30 0 62.5 -38.5t54.5 -38.5q0 -39 -13 -75t-13 -81q-36 0 -88 35
q-60 40 -60 85q0 41 16.5 77t40.5 36zM67 -194q30 0 62.5 -38.5t54.5 -38.5q0 -39 -13 -75t-13 -81q-36 0 -88 35q-60 40 -60 85q0 41 16.5 77t40.5 36z" />
    <glyph glyph-name="sf277.024" unicode="&#x649;" horiz-adv-x="549" 
d="M349 383q19 -62 85 -145q87 -110 166 -110h16v-128h-77q-58 0 -121 50q-56 44 -90 104q-31 -70 -94.5 -112t-150.5 -42h-83v128h13q73 0 151 37t78 77q0 11 -8 22l-83 110q-12 16 -22 48t-10 56q0 56 38 111q35 51 61 51q21 0 44 -25.5t34 -61.5zM364 -77
q30 0 62.5 -38.5t54.5 -38.5q0 -39 -13 -75t-13 -81q-36 0 -88 35q-60 40 -60 85q0 41 16.5 77t40.5 36zM165 -194q30 0 62.5 -38.5t54.5 -38.5q0 -39 -13 -75t-13 -81q-36 0 -88 35q-60 40 -60 85q0 41 16.5 77t40.5 36z" />
    <glyph glyph-name="sf297.001" unicode="&#x649;" horiz-adv-x="1152" arabic-form="final" 
d="M975 -273q-2 2 -165 29q-125 21 -125 105q0 78 149 171q154 96 297 96h124v-128h-23q-76 0 -184 -29q-139 -37 -139 -89q0 -5 120 -26t120 -56q0 -117 -123 -187q-145 -82 -437 -82q-235 0 -408.5 121t-173.5 293q0 183 126.5 314.5t313.5 131.5q117 0 211 -45
q109 -52 109 -133q0 -49 -24 -72q-30 -28 -106 -28q-55 0 -146 30t-126 30q-89 0 -146 -78q-50 -68 -50 -150q0 -106 119 -189q125 -87 301 -87q130 0 230 15q74 11 120 27z" />
    <glyph glyph-name="sf271.002.fina" unicode="&#x64a;" horiz-adv-x="1152" arabic-form="final" 
d="M975 -273q-2 2 -165 29q-125 21 -125 105q0 78 149 171q154 96 297 96h124v-128h-23q-76 0 -184 -29q-139 -37 -139 -89q0 -5 120 -26t120 -56q0 -117 -123 -187q-145 -82 -437 -82q-235 0 -408.5 121t-173.5 293q0 183 126.5 314.5t313.5 131.5q117 0 211 -45
q109 -52 109 -133q0 -49 -24 -72q-30 -28 -106 -28q-55 0 -146 30t-126 30q-89 0 -146 -78q-50 -68 -50 -150q0 -106 119 -189q125 -87 301 -87q130 0 230 15q74 11 120 27zM748 -528q30 0 62.5 -38.5t54.5 -38.5q0 -39 -13 -75t-13 -81q-36 0 -88 35q-60 40 -60 85
q0 41 16.5 77t40.5 36zM549 -645q30 0 62.5 -38.5t54.5 -38.5q0 -39 -13 -75t-13 -81q-36 0 -88 35q-60 40 -60 85q0 41 16.5 77t40.5 36z" />
    <glyph glyph-name="sf300.007" unicode="&#x626;" horiz-adv-x="280" arabic-form="initial" 
d="M335 972q-3 -32 -7 -49q-13 -53 -43 -64l-251 -97q-3 -1 -6.5 -1.5t-4.5 -0.5q-12 0 -12 15q0 19 14 33q9 11 29 31l17 17q-21 16 -31 25q-32 30 -32 51q0 87 56 146q52 55 116 55q24 0 50.5 -26.5t26.5 -59.5q0 -25 -10.5 -33.5t-31.5 -8.5q-10 0 -34 3t-38 3
q-29 0 -57 -16t-28 -34q0 -12 52 -26.5t85 -14.5q20 0 82 26q20 8 58 26zM276 553l66 -287q6 -26 6 -48q0 -99 -100 -164q-83 -54 -165 -54h-83v128h13q58 0 126.5 32t68.5 67q0 8 -4 15l-79 129q-9 15 -17.5 50t-8.5 57q0 56 38 111q35 51 61 51q22 0 46 -25t32 -62z" />
    <glyph glyph-name="sf277.025" unicode="&#x626;" horiz-adv-x="549" arabic-form="medial" 
d="M335 972q-3 -32 -7 -49q-13 -53 -43 -64l-251 -97q-3 -1 -6.5 -1.5t-4.5 -0.5q-12 0 -12 15q0 19 14 33q9 11 29 31l17 17q-21 16 -31 25q-32 30 -32 51q0 87 56 146q52 55 116 55q24 0 50.5 -26.5t26.5 -59.5q0 -25 -10.5 -33.5t-31.5 -8.5q-10 0 -34 3t-38 3
q-29 0 -57 -16t-28 -34q0 -12 52 -26.5t85 -14.5q20 0 82 26q20 8 58 26zM349 383q19 -62 85 -145q87 -110 166 -110h16v-128h-77q-58 0 -121 50q-56 44 -90 104q-31 -70 -94.5 -112t-150.5 -42h-83v128h13q73 0 151 37t78 77q0 11 -8 22l-83 110q-12 16 -22 48t-10 56
q0 56 38 111q35 51 61 51q21 0 44 -25.5t34 -61.5z" />
    <glyph glyph-name="sf297.004" unicode="&#x626;" horiz-adv-x="1152" arabic-form="final" 
d="M405 604q-3 -32 -7 -49q-13 -53 -43 -64l-251 -97q-3 -1 -6.5 -1.5t-4.5 -0.5q-12 0 -12 15q0 19 14 33q9 11 29 31l17 17q-21 16 -31 25q-32 30 -32 51q0 87 56 146q52 55 116 55q24 0 50.5 -26.5t26.5 -59.5q0 -25 -10.5 -33.5t-31.5 -8.5q-10 0 -34 3t-38 3
q-29 0 -57 -16t-28 -34q0 -12 52 -26.5t85 -14.5q20 0 82 26q20 8 58 26zM975 -273q-2 2 -165 29q-125 21 -125 105q0 78 149 171q154 96 297 96h124v-128h-23q-76 0 -184 -29q-139 -37 -139 -89q0 -5 120 -26t120 -56q0 -117 -123 -187q-145 -82 -437 -82
q-235 0 -408.5 121t-173.5 293q0 183 126.5 314.5t313.5 131.5q117 0 211 -45q109 -52 109 -133q0 -49 -24 -72q-30 -28 -106 -28q-55 0 -146 30t-126 30q-89 0 -146 -78q-50 -68 -50 -150q0 -106 119 -189q125 -87 301 -87q130 0 230 15q74 11 120 27z" />
    <glyph glyph-name="sf297.002" unicode="&#x6d2;" horiz-adv-x="1573" arabic-form="final" 
d="M597 -7q-24 -3 -62.5 -10t-77.5 -20.5t-69.5 -34t-37.5 -50.5q21 -11 39.5 -20t43 -16t58 -12.5t84.5 -9t122.5 -6t172.5 -2.5q34 -1 71 -1q74 0 163 1q133 1 307 3h6q8 0 10 -2v-2q0 -3 -10 -11q-18 -14 -44 -32t-54 -37t-54 -35.5t-43 -26.5q-37 -1 -98 -3.5
t-137.5 -5.5t-162.5 -4q-65 -2 -131 -2q-22 0 -44 1q-89 0 -174 4t-158 13q-18 3 -47 14t-52.5 27.5t-32.5 38.5q-4 6 -4 14q0 15 14 31q38 71 97.5 133t94.5 84.5t74 47.5t77 42.5t155 32.5t449 6.5t465 -15.5v-128h-32h-94q-97 1 -189.5 2.5t-189.5 2.5q-126 1 -249 2h-16
q-116 0 -240 -14z" />
    <glyph glyph-name="sf297.003" unicode="&#x6d3;" horiz-adv-x="1573" arabic-form="final" 
d="M597 -7q-24 -3 -62.5 -10t-77.5 -20.5t-69.5 -34t-37.5 -50.5q21 -11 39.5 -20t43 -16t58 -12.5t84.5 -9t122.5 -6t172.5 -2.5q34 -1 71 -1q74 0 163 1q133 1 307 3h6q8 0 10 -2v-2q0 -3 -10 -11q-18 -14 -44 -32t-54 -37t-54 -35.5t-43 -26.5q-37 -1 -98 -3.5
t-137.5 -5.5t-162.5 -4q-65 -2 -131 -2q-22 0 -44 1q-89 0 -174 4t-158 13q-18 3 -47 14t-52.5 27.5t-32.5 38.5q-4 6 -4 14q0 15 14 31q38 71 97.5 133t94.5 84.5t74 47.5t77 42.5t155 32.5t449 6.5t465 -15.5v-128h-32h-94q-97 1 -189.5 2.5t-189.5 2.5q-126 1 -249 2h-16
q-116 0 -240 -14zM1326 543q-3 -32 -7 -49q-13 -53 -43 -64l-251 -97q-3 -1 -6.5 -1.5t-4.5 -0.5q-12 0 -12 15q0 19 14 33q9 11 29 31l17 17q-21 16 -31 25q-32 30 -32 51q0 87 56 146q52 55 116 55q24 0 50.5 -26.5t26.5 -59.5q0 -25 -10.5 -33.5t-31.5 -8.5q-10 0 -34 3
t-38 3q-29 0 -57 -16t-28 -34q0 -12 52 -26.5t85 -14.5q20 0 82 26q20 8 58 26z" />
    <glyph glyph-name="sf314" unicode="&#xfefb;" horiz-adv-x="1000" arabic-form="isolated" 
d="M1082 1251q0 -178 -42.5 -432t-87.5 -391q36 -86 57.5 -177.5t21.5 -158.5q0 -51 -14 -74q-34 -56 -170 -116t-240 -60q-41 0 -68 10.5t-42 37t-15 53.5q0 50 68 118l150 144q96 104 144 222q-114 178 -296 344q-175 160 -316 221q-14 6 -24 32.5t-10 55.5t11 52.5
t38.5 39.5t53.5 16q13 0 25 -5q136 -60 298 -249q144 -169 262 -384q10 58 14.5 134.5t4.5 163.5q0 88 -5 230t-5 176q0 32 28 55t63 23q38 0 67 -25t29 -56zM907 106q11 18 11 69q0 35 -4 66t-16 73q-33 -64 -86 -142q-39 -58 -82 -113q-36 -46 -37 -46q73 12 118 28
q71 25 96 65z" />
    <glyph glyph-name="sf256.004" unicode="&#xfdfa;" horiz-adv-x="1991" arabic-form="isolated" 
d="M1035 1228q0 -5 0.5 -13l1 -16t1 -15t0.5 -9q0 -10 2.5 -16.5t12.5 -6.5q17 0 17 15q0 3 0.5 10t0.5 14q0 8 0.5 15.5t0.5 11.5q0 10 4 14.5t6 -9.5q1 -3 2.5 -10t2.5 -14.5t2 -14t1 -9.5q3 -6 7.5 -12t12.5 -6q7 0 7 8q0 16 -3 32t1 34q-4 5 0.5 6t6.5 -5q3 -15 6 -31
t3 -34q0 -14 -3 -25.5t-21 -11.5q-19 0 -25 18q-9 -10 -14.5 -16.5t-16.5 -6.5q-10 0 -18.5 7.5t-8.5 18.5v48q0 -8 3 -1t8 30zM606 1172q0 -9 2.5 -15t13.5 -6q15 0 18 14q0 3 0.5 9.5t1 14.5t1 15.5t0.5 11.5q-4 11 1 15t9 -10q0 -3 1 -10t2 -14.5t2 -14.5t1 -10
q4 -5 7.5 -10t11.5 -5q5 0 5 5q0 18 -0.5 34t-0.5 32q0 6 3.5 7t7.5 -4q4 -18 6.5 -34t2.5 -32q0 -13 -5 -25.5t-23 -12.5q-14 0 -21 19q-8 -11 -15 -17.5t-20 -6.5q-9 0 -16.5 8t-7.5 18v49q0 1 1.5 6l3 10t3.5 9t4 4v-54zM554 874q-4 -5 -7.5 -4t0.5 7q6 14 8.5 29t2.5 30
q0 16 -3 31t-11 29q0 3 -0.5 9.5t0 12t3.5 7t10 -4.5q19 -35 18 -73t-21 -73zM336 870q0 -1 2 -1q19 -6 39 -8t42 2q8 0 19 4t15 12q0 13 1.5 21.5t1.5 19.5v6q0 5 -1.5 11t-8.5 3q-27 -18 -54 -34t-54 -34zM950 1240q-1 -40 2 -86t6.5 -93.5t7 -94t3.5 -87.5
q0 -40 -5 -72.5t-18 -52.5q-9 103 -14 200t-14 197q3 7 5.5 19.5t5.5 25.5t8 25t13 19zM1466 668q72 -14 144 -9.5t144 18.5q-13 37 -34.5 56.5t-47 25.5t-54.5 0t-56.5 -19.5t-52.5 -32.5t-43 -39zM1230 436q4 -6 11 -15t17.5 -15.5t24 -8t31.5 7.5q-4 13 -14 24
t-22.5 16.5t-25.5 4t-22 -13.5zM314 316q9 -8 21.5 -14.5t25.5 -12t25 -10l20 -7.5q-5 11 -13.5 25t-20 23t-26 10t-32.5 -14zM1178 130q-10 1 -19 1.5t-19 0.5q-29 0 -55.5 1.5t-49.5 15.5q28 4 56.5 8t52.5 18q19 7 42.5 19.5t46.5 28.5t43.5 35t34 40t17.5 42.5t-6 42.5
q-6 -10 -11 -20t-11 -18t-15 -13t-23 -5q-24 0 -45 15.5t-25 43.5q7 67 34.5 101t58 35.5t54.5 -29t24 -91.5q1 -33 -6 -61t-19.5 -54t-30 -51t-38.5 -52q-18 -20 -42 -35t-49 -19zM50 125q1 0 15 5.5t36 15t50 21.5t56 24.5t53.5 25t43.5 22.5q0 2 -6.5 6.5t-15 11t-15 15
t-6.5 18.5q0 14 12.5 33t30.5 36t36.5 29t30.5 12q20 -2 35 -21t32 -41t38.5 -40t54.5 -18q6 0 15 1.5t18 7.5t14.5 17t3.5 30q-6 58 -9.5 98t-6 66t-3 40.5t-0.5 21.5v13q0 29 7 58.5t12 59.5q-36 -15 -61.5 -5t-40.5 34.5t-21 57.5t-3 65q-7 -18 -20 -29t-29.5 -16
t-34.5 -4.5t-34 4.5q-8 0 -17.5 2.5t-18 7.5t-14.5 12t-6 17q12 27 32 47t44 36t51 29.5l53 26.5q0 5 2 14t3 13q3 4 7 11l8 14t6.5 12.5t2.5 7.5h5q2 -19 2.5 -41.5t0.5 -45.5q0 -22 -1 -44t-2 -40q0 -17 1.5 -37.5t8.5 -38t20 -29.5t36 -12q27 0 46.5 20t23.5 46
q2 28 1 55.5t-2.5 55.5t-1 55.5t5.5 55.5q2 7 4.5 17t4.5 20t4.5 17t4.5 7q0 1 1 0q9 -57 14 -113.5t14 -113.5q1 -21 6.5 -41t16 -35.5t26.5 -25t39 -9.5h19q12 0 14 8q0 19 -5.5 47t-12 58t-12 58.5t-5.5 47.5q1 12 3 28.5t4.5 33t5.5 32t6 25.5q0 8 4 9.5t7 -8.5l36 -259
q12 -71 -29 -136q-5 -8 -18 -8t-14 -9q-10 -28 -16.5 -53t-6.5 -55q0 -67 40.5 -96.5t103.5 -29.5q54 0 110.5 21.5t101.5 55.5q-45 18 -88 27t-85 27q0 8 0.5 22t13.5 18q22 4 43 7.5t37.5 6.5t28 7t14.5 10q0 22 0.5 31t0.5 16v17q0 9 -1 23t-2.5 38t-4.5 59.5t-7 88.5
q0 4 -1.5 14t-1.5 15q0 35 7 69t15 69q2 3 2.5 5.5t4.5 3.5h3l40 -353q5 -39 31.5 -56.5t61.5 -17.5q41 0 67 14.5t53 43.5q0 1 2 2t2 -2q-3 -19 6 -31.5t23.5 -20.5t31 -12.5t29.5 -7.5q31 34 66.5 64.5t73 52t74.5 31.5t69.5 3t60 -34.5t45.5 -80.5q0 -1 -0.5 -3.5
t-3.5 -10t-10 -22t-20 -39.5q-2 -6 -8.5 -11.5t-14.5 -9.5t-16 -6.5t-14 -2.5q-85 -23 -168.5 -24.5t-171.5 14.5h-5q-8 -11 -18 -23t-21 -22q-3 -3 -5.5 -1.5t1.5 5.5q3 14 11.5 25.5t16.5 22.5q-23 13 -41 28t-26 40q-14 -32 -45.5 -50t-65.5 -19t-61.5 17t-33.5 57
q-6 -12 -11 -20t-9.5 -13.5t-9 -10.5t-10.5 -12q4 -2 11 -4.5t14.5 -4.5t14 -3.5t9.5 -1.5q15 -6 19.5 -15t4.5 -25q0 -41 -28.5 -74t-70 -56t-87 -35.5t-79.5 -13.5q-38 -1 -67 10.5t-49 33t-30.5 51t-10.5 65.5q0 42 12.5 79.5t30.5 75.5q-12 0 -25.5 1t-26 5.5
t-22.5 12.5t-14 22q-2 3 -4.5 10t-4.5 15t-3.5 15t-1.5 10q-8 -24 -18 -47t-38 -47q11 -88 18.5 -172t22.5 -169q7 -37 29 -56t49.5 -21.5t55.5 10.5t47 40q3 6 7 6q3 0 3 -8t-1 -13t-1 -11q0 -14 16.5 -19t30.5 -5h16q18 0 30.5 2.5t22 8t18 15t20.5 24.5q8 6 8 -2
q0 -14 -5 -19.5t-3.5 -8.5t16 -7t54.5 -15q0 11 -3 21.5t-3 18.5q5 9 11 23t10 17q0 2 2.5 8.5t6 11.5t6.5 6t4 -8l11 -44t5 -42q0 -23 -9 -43.5t-17 -43.5q-4 -8 -10.5 -8.5t-16.5 -0.5q-26 3 -56 8.5t-54 21.5q-19 -14 -39.5 -20.5t-41 -5.5t-38.5 10.5t-32 28.5
q-14 -18 -35.5 -27.5t-44.5 -10.5t-44.5 7.5t-35.5 25.5q-8 14 -11.5 28.5t-7.5 32.5q0 4 -0.5 7t-4.5 -2q-8 -21 -15 -38t-17 -29t-24.5 -18.5t-36.5 -6.5q-27 0 -44.5 11t-35.5 29q-3 0 -6.5 -6.5t-9 -14t-12 -13.5t-15.5 -6q-16 0 -30.5 6.5t-28.5 14.5
q-18 -29 -41.5 -51t-56.5 -30q-43 -10 -86 -16.5t-94 -6.5zM338 -92q-28 42 -55 90.5t-51 96.5q-4 7 -2.5 10.5t5.5 4.5t9 -1t7 -6q14 -23 29.5 -42.5t29.5 -42.5q5 -8 13 -20t18 -23t21.5 -19t23.5 -8q12 1 22.5 8.5t22.5 25t28 46t39 72.5q11 23 29 41t41 18q16 0 27 -6.5
t19 -17t15 -23t16 -24.5q24 -32 55.5 -51.5t67 -30.5t73.5 -14.5t74 -3.5q48 0 102.5 9.5t109.5 27.5t107 44.5t94 60.5q6 6 7 3.5t1 -8.5q-4 -13 -9 -21t-5 -19q0 -9 8.5 -15.5t20 -10.5t22.5 -5.5t16 -1.5q18 0 34.5 2.5t27.5 10.5t16.5 23.5t2.5 41.5l-27 294q0 7 1 14.5
t4.5 22t10.5 39t19 65.5l40 -366q2 -21 9 -43t19 -40t30.5 -30t42.5 -12q-14 23 -23.5 46t-9.5 47q-2 47 16 78.5t48 48t68.5 18.5t76.5 -9t72 -34.5t56 -58.5q-36 6 -76.5 13t-79.5 8.5t-75 -6t-63 -29.5q0 -11 5.5 -25t10.5 -22q26 -42 58 -58.5t69 -14t78.5 19.5t87.5 42
q1 2 2 1t1 -3v-1q-26 -54 -64.5 -82t-95.5 -46q-36 -10 -79 -16.5t-82.5 -1t-71 27t-44.5 67.5q-8 -23 -16 -43.5t-20.5 -37t-31 -26t-47.5 -9.5q-32 0 -59.5 18t-43.5 48q-40 -32 -95.5 -58t-118.5 -43t-129.5 -23t-128.5 1t-115.5 29t-90.5 62q-14 17 -21.5 32.5
t-12.5 27.5t-9.5 19t-12.5 7q-10 0 -19.5 -8.5t-15.5 -16.5q-21 -43 -34 -69t-21 -40.5t-12 -20.5t-7 -9q-10 -14 -21.5 -24.5t-25 -14.5t-28 0.5t-30.5 22.5zM1163 -160q-11 10 -1 20q3 7 14.5 25t31.5 42l78 -63q2 -2 10 8t17 22.5t17.5 23t11.5 10.5h5q20 -19 38 -37
t37 -36q-2 -5 -9 -13.5t-15 -18t-16 -18.5t-12 -14q-3 -8 -15 0q-18 14 -34.5 30t-34.5 31q-13 -15 -25.5 -33t-28.5 -31q-6 -6 -14 3q-16 11 -28.5 23.5t-26.5 25.5z" />
    <glyph glyph-name="sf270.009" unicode="&#xfdf2;" horiz-adv-x="1200" arabic-form="isolated" 
d="M539 224l-14 36q-11 25 -25 53l-53 99q-34 63 -81 93q-36 23 -73 23q-58 0 -103.5 -50.5t-45.5 -106.5q0 -69 71 -135.5t151 -66.5q61 0 100 13t73 42zM1128 312l-116 477q-7 27 -11 50q-7 38 -7 57q0 55 39 111q36 51 62 51q23 0 48.5 -26t29.5 -61l68 -675
q4 -42 4.5 -55.5t0.5 -29.5q0 -99 -34 -149q-42 -62 -141 -62q-58 0 -92 33q-5 5 -62 83q-28 -65 -82 -92q-47 -24 -123 -24q-56 0 -85 34q-30 50 -47 78q-29 -50 -76 -82q-59 -40 -130 -40q-166 0 -269 105t-103 272q0 185 96 285q77 80 178 80q75 0 156 -56
q103 -71 146 -195l38 -108q9 -83 24 -138q30 -107 112 -107q23 0 49.5 36t26.5 71q0 12 -2 17l-154 540q-6 21 -11 53t-5 54q0 56 38 111q35 51 61 51q22 0 47 -26.5t31 -60.5l92 -593q12 -79 70 -168q55 -85 86 -85t45 32q11 25 11 70q0 26 -2.5 47t-6.5 35zM810 1444
q0 -78 -27.5 -123t-76.5 -45q-22 0 -34 4.5t-30 16.5q-6 -33 -38 -59.5t-66 -26.5q-36 0 -59 30t-23 78q0 30 11 66l11 35l23 4q0 -58 9 -84.5t30 -26.5q32 0 53.5 37.5t36.5 124.5l18 6q12 -55 25.5 -76.5t32.5 -21.5q67 0 67 147l23 10l11 -53zM585 1523q-58 32 -64 61
l-58 253q33 -19 46 -34t22 -52z" />
    <glyph glyph-name="mhmd" unicode="&#xfdf4;" horiz-adv-x="2300" arabic-form="isolated" 
d="M2235 212q0 62 -57 129q-51 61 -81 61q-28 0 -41 -28t-19 -96q24 -58 70 -105.5t83 -47.5q19 0 31 23q14 28 14 64zM1065 205q0 57 -47 117q-42 54 -70 54q-27 0 -44.5 -29t-22.5 -87q21 -52 61 -92t73 -40q25 0 37.5 21.5t12.5 55.5zM1261 128q60 0 127 30q31 13 117 63
q71 41 107 52v5q-57 10 -110 34q-68 30 -112 76q-53 54 -88.5 128.5t-35.5 123.5q0 75 27 126q30 56 77 56q27 0 65 -171q24 -107 42 -151q24 -56 84 -99q57 -40 100 -40q47 0 89.5 9.5t82.5 19.5q11 0 20 -21t9 -47q0 -35 -17.5 -65.5t-43.5 -30.5q-21 0 -42.5 -3
t-45.5 -10q31 -68 49 -93q35 -51 76 -51q33 0 64 74q24 57 35 126q24 148 40 199q41 132 114 132q87 0 165 -119q85 -128 85 -293q0 -82 -32 -143q-33 -65 -84 -65q-53 0 -106 39q-65 49 -124 148q-12 -67 -67 -146q-59 -84 -103 -84q-50 0 -92 40q-35 33 -65 94
q-19 39 -44 107q-49 -24 -125 -75q-85 -56 -112 -71q-57 -32 -97 -32h-57q-29 0 -48.5 13.5t-43.5 42.5q-15 -39 -36.5 -61.5t-49.5 -22.5q-66 0 -132.5 49.5t-85.5 106.5q-10 -56 -50 -94q-36 -34 -70 -34h-90q-34 0 -91 47.5t-74 80.5q-40 -137 -143 -247l-79 -84
q-8 -8 -30 -8q-40 0 -70 32q-40 42 -40 125q0 29 24 39l50 16l124 63q40 20 78.5 84.5t38.5 114.5q0 17 -4 28l-82 212q-9 26 -22 74.5t-13 68.5q0 56 26 111q23 51 40 51q14 0 30 -25.5t21 -61.5l77 -378q7 -42 74 -125q72 -90 115 -90h8q31 0 55 22q32 29 51 98
q27 100 55 201q38 102 97 102q78 0 137 -90q50 -75 71 -184q13 -69 41.5 -109t64.5 -40h4z" />
    <glyph glyph-name="sf277.047" unicode="&#x6c2;" horiz-adv-x="1020" 
d="M751 339q-19 58 -57 103q-47 57 -120 89q-85 38 -200 38q-74 0 -143 -60q-74 -64 -74 -141q0 -102 103 -169q109 -71 287 -71q83 0 155.5 41t72.5 86q0 6 -2 14zM886 220q11 -13 22 -25q62 -67 124 -67h66v-128h-92q-89 0 -150 49q-12 10 -24 23q-14 8 -37 52
q-27 -27 -62 -59q-50 -45 -104 -68q-63 -27 -139 -27q-108 0 -208 34q-118 40 -189 118q-83 91 -83 220q0 171 117 272q107 93 267 93q91 0 165 -34q61 -28 127 -86v14q0 12 -3 53t-3 53q0 32 7.5 49t27.5 17q31 0 58 -80q16 -49 29 -117q10 -56 16 -88q16 -83 30 -150
q13 -66 38 -118zM394 1006q-3 -32 -7 -49q-13 -53 -43 -64l-251 -97q-3 -1 -6.5 -1.5t-4.5 -0.5q-12 0 -12 15q0 19 14 33q9 11 29 31l17 17q-21 16 -31 25q-32 30 -32 51q0 87 56 146q52 55 116 55q24 0 50.5 -26.5t26.5 -59.5q0 -25 -10.5 -33.5t-31.5 -8.5q-10 0 -34 3
t-38 3q-29 0 -57 -16t-28 -34q0 -12 52 -26.5t85 -14.5q20 0 82 26q20 8 58 26z" />
    <glyph glyph-name="afii57470.init" unicode="&#x647;" horiz-adv-x="1035" arabic-form="initial" 
d="M1077 354q0 -189 -86 -298.5t-241 -109.5q-101 0 -199 48q-83 41 -143 104q-81 -50 -171 -74t-181 -24h-56v128h26q88 0 154 11q90 15 156 53q-53 61 -82 132.5t-29 146.5q0 33 9 65q-70 6 -137 65q-85 75 -85 188q0 144 136 234q118 78 259 78q163 0 313 -88
q159 -93 253 -254q104 -178 104 -405zM962 300q0 140 -67 279q-70 146 -189 236q-130 99 -286 99q-81 0 -142 -40.5t-61 -90.5q0 -49 30 -92q24 -35 58 -54q30 21 65.5 31.5t83.5 10.5q72 0 129 -61q65 -70 65 -182q0 -63 -40 -136q-35 -64 -93 -120q50 -46 98 -72
q62 -34 119 -34q90 0 163 79q67 73 67 147zM506 394q0 68 -16.5 94.5t-55.5 26.5q-38 0 -55 -37q-13 -28 -13 -64q0 -31 20 -69.5t55 -74.5q29 29 47 61.5t18 62.5z" />
    <glyph glyph-name="afii57470.medi" unicode="&#x647;" horiz-adv-x="1164" arabic-form="medial" 
d="M962 300q0 140 -67 279q-70 146 -189 236q-130 99 -286 99q-81 0 -142 -40.5t-61 -90.5q0 -49 30 -92q24 -35 58 -54q30 21 65.5 31.5t83.5 10.5q72 0 129 -61q65 -70 65 -182q0 -63 -40 -136q-35 -64 -93 -120q50 -46 98 -72q62 -34 119 -34q90 0 163 79q67 73 67 147z
M506 394q0 68 -16.5 94.5t-55.5 26.5q-38 0 -55 -37q-13 -28 -13 -64q0 -31 20 -69.5t55 -74.5q29 29 47 61.5t18 62.5zM1067 226q29 -45 72 -73q39 -25 71 -25h16v-128h-62q-46 0 -103 47q-19 15 -48 48q-29 -61 -97 -103q-75 -46 -166 -46q-101 0 -199 48q-83 41 -143 104
q-81 -50 -171 -74t-181 -24h-56v128h26q88 0 154 11q90 15 156 53q-53 61 -82 132.5t-29 146.5q0 33 9 65q-70 6 -137 65q-85 75 -85 188q0 144 136 234q118 78 259 78q163 0 313 -88q159 -93 253 -254q104 -178 104 -405q0 -33 -2.5 -70t-7.5 -58z" />
    <glyph glyph-name="afii57470.fina" unicode="&#x647;" horiz-adv-x="1020" arabic-form="final" 
d="M751 339q-19 58 -57 103q-47 57 -120 89q-85 38 -200 38q-74 0 -143 -60q-74 -64 -74 -141q0 -102 103 -169q109 -71 287 -71q83 0 155.5 41t72.5 86q0 6 -2 14zM886 220q11 -13 22 -25q62 -67 124 -67h66v-128h-92q-89 0 -150 49q-12 10 -24 23q-14 8 -37 52
q-27 -27 -62 -59q-50 -45 -104 -68q-63 -27 -139 -27q-108 0 -208 34q-118 40 -189 118q-83 91 -83 220q0 171 117 272q107 93 267 93q91 0 165 -34q61 -28 127 -86v14q0 12 -3 53t-3 53q0 32 7.5 49t27.5 17q31 0 58 -80q16 -49 29 -117q10 -56 16 -88q16 -83 30 -150
q13 -66 38 -118z" />
    <glyph glyph-name="uniFE94" unicode="&#x629;" horiz-adv-x="1020" arabic-form="final" 
d="M751 339q-19 58 -57 103q-47 57 -120 89q-85 38 -200 38q-74 0 -143 -60q-74 -64 -74 -141q0 -102 103 -169q109 -71 287 -71q83 0 155.5 41t72.5 86q0 6 -2 14zM886 220q11 -13 22 -25q62 -67 124 -67h66v-128h-92q-89 0 -150 49q-12 10 -24 23q-14 8 -37 52
q-27 -27 -62 -59q-50 -45 -104 -68q-63 -27 -139 -27q-108 0 -208 34q-118 40 -189 118q-83 91 -83 220q0 171 117 272q107 93 267 93q91 0 165 -34q61 -28 127 -86v14q0 12 -3 53t-3 53q0 32 7.5 49t27.5 17q31 0 58 -80q16 -49 29 -117q10 -56 16 -88q16 -83 30 -150
q13 -66 38 -118zM266 1144q30 0 62.5 -38.5t54.5 -38.5q0 -39 -13 -75t-13 -81q-36 0 -88 35q-60 40 -60 85q0 41 16.5 77t40.5 36zM67 1027q30 0 62.5 -38.5t54.5 -38.5q0 -39 -13 -75t-13 -81q-36 0 -88 35q-60 40 -60 85q0 41 16.5 77t40.5 36z" />
    <glyph glyph-name=".notdef" horiz-adv-x="257" 
 />
    <glyph glyph-name=".null" horiz-adv-x="0" 
 />
    <glyph glyph-name="nonmarkingreturn" horiz-adv-x="257" 
 />
    <glyph glyph-name="space" unicode=" " horiz-adv-x="585" 
 />
    <glyph glyph-name="sf268.003" unicode="&#x622;" horiz-adv-x="400" 
d="M126 1402q-25 0 -42.5 -7t-30.5 -20l-38 -38q-16 -16 -35 -16q-21 0 -35.5 15.5t-14.5 35.5t15 35l43 43q21 21 45 34q33 18 70 18h205q46 0 73 27l38 38q16 16 36 16t35 -15t15 -36q0 -19 -16 -35l-43 -43q-29 -29 -57 -40.5t-58 -11.5h-205zM358 1121l107 -825
q7 -53 7 -107q0 -84 -16 -136.5t-37 -52.5q-24 0 -49 154q-17 107 -29 159l-144 626q-6 24 -11 57t-5 50q0 56 38 111q35 51 61 51q24 0 49 -25.5t29 -61.5z" />
    <glyph glyph-name="sf268" unicode="&#x627;" horiz-adv-x="400" 
d="M358 1121l107 -825q7 -53 7 -107q0 -84 -16 -136.5t-37 -52.5q-24 0 -49 154q-17 107 -29 159l-144 626q-6 24 -11 57t-5 50q0 56 38 111q35 51 61 51q24 0 49 -25.5t29 -61.5z" />
    <glyph glyph-name="sf270" unicode="&#x628;" horiz-adv-x="1536" 
d="M760 -150q30 0 62.5 -38.5t54.5 -38.5q0 -39 -13 -75t-13 -81q-36 0 -88 35q-60 40 -60 85q0 41 16.5 77t40.5 36zM802 0q-188 0 -341 26q-197 33 -310 103q-136 84 -136 213q0 171 191 272q176 93 439 93q272 0 491 -103q203 -95 203 -191q0 -51 -23 -83
q-29 -40 -85 -40q-92 0 -174 68q-124 103 -173 127q-140 69 -367 69q-123 0 -244 -60q-130 -64 -130 -141q0 -96 223.5 -160.5t529.5 -64.5q101 0 262.5 27.5t279.5 63.5l112 62l-84 125q-10 14 -18 48t-8 59q0 56 38 111q35 51 61 51q22 0 46 -25t32 -62l66 -287
q3 -14 3 -25q0 -127 -304 -207q-263 -69 -580 -69z" />
    <glyph glyph-name="sf270.001" unicode="&#x67e;" horiz-adv-x="1536" 
d="M764.5 -624q-16.5 36 -16.5 77q0 45 60 85q52 35 88 35q0 -45 13 -81t13 -75q-22 0 -54.5 -38.5t-62.5 -38.5q-24 0 -40.5 36zM963.5 -487q-16.5 36 -16.5 77q0 45 60 85q52 35 88 35q0 -45 13 -81t13 -75q-22 0 -54.5 -38.5t-62.5 -38.5q-24 0 -40.5 36zM764.5 -370
q-16.5 36 -16.5 77q0 45 60 85q52 35 88 35q0 -45 13 -81t13 -75q-22 0 -54.5 -38.5t-62.5 -38.5q-24 0 -40.5 36zM802 0q-188 0 -341 26q-197 33 -310 103q-136 84 -136 213q0 171 191 272q176 93 439 93q272 0 491 -103q203 -95 203 -191q0 -51 -23 -83q-29 -40 -85 -40
q-92 0 -174 68q-124 103 -173 127q-140 69 -367 69q-123 0 -244 -60q-130 -64 -130 -141q0 -96 223.5 -160.5t529.5 -64.5q101 0 262.5 27.5t279.5 63.5l112 62l-84 125q-10 14 -18 48t-8 59q0 56 38 111q35 51 61 51q22 0 46 -25t32 -62l66 -287q3 -14 3 -25
q0 -127 -304 -207q-263 -69 -580 -69z" />
    <glyph glyph-name="sf270.002" unicode="&#x62a;" horiz-adv-x="1536" 
d="M1004 1099q30 0 62.5 -38.5t54.5 -38.5q0 -39 -13 -75t-13 -81q-36 0 -88 35q-60 40 -60 85q0 41 16.5 77t40.5 36zM805 982q30 0 62.5 -38.5t54.5 -38.5q0 -39 -13 -75t-13 -81q-36 0 -88 35q-60 40 -60 85q0 41 16.5 77t40.5 36zM802 0q-188 0 -341 26
q-197 33 -310 103q-136 84 -136 213q0 171 191 272q176 93 439 93q272 0 491 -103q203 -95 203 -191q0 -51 -23 -83q-29 -40 -85 -40q-92 0 -174 68q-124 103 -173 127q-140 69 -367 69q-123 0 -244 -60q-130 -64 -130 -141q0 -96 223.5 -160.5t529.5 -64.5
q101 0 262.5 27.5t279.5 63.5l112 62l-84 125q-10 14 -18 48t-8 59q0 56 38 111q35 51 61 51q22 0 46 -25t32 -62l66 -287q3 -14 3 -25q0 -127 -304 -207q-263 -69 -580 -69z" />
    <glyph glyph-name="sf270.003" unicode="&#x679;" horiz-adv-x="1536" 
d="M802 0q-188 0 -341 26q-197 33 -310 103q-136 84 -136 213q0 171 191 272q176 93 439 93q272 0 491 -103q203 -95 203 -191q0 -51 -23 -83q-29 -40 -85 -40q-92 0 -174 68q-124 103 -173 127q-140 69 -367 69q-123 0 -244 -60q-130 -64 -130 -141q0 -96 223.5 -160.5
t529.5 -64.5q101 0 262.5 27.5t279.5 63.5l112 62l-84 125q-10 14 -18 48t-8 59q0 56 38 111q35 51 61 51q22 0 46 -25t32 -62l66 -287q3 -14 3 -25q0 -127 -304 -207q-263 -69 -580 -69zM950 981q0 -42 -33 -83q-29 -36 -63 -49t-53 -17q-26 -6 -64 -6q-35 0 -68 6
q-46 9 -74 28q-34 23 -34 59q0 16 7.5 26.5t22.5 10.5q17 0 28 -17q17 -26 34 -38q14 9 26 19q19 16 30 34v9l-55 192q-2 10 -3.5 21t-1.5 17q0 20 13 39q13 18 22 18q8 0 17 -9t10 -22l26 -233l8 14q18 28 42 48q34 27 68 27q48 0 73 -27q22 -24 22 -67zM880 965
q0 13 -15.5 24t-31.5 11q-24 0 -54 -22q-22 -16 -53 -49q-22 -23 -43 -46q7 -5 26 -9.5t32 -4.5q33 0 66 15q27 13 43 28q19 18 24.5 28.5t5.5 24.5z" />
    <glyph glyph-name="sf270.004" unicode="&#x62b;" horiz-adv-x="1536" 
d="M805 1239q30 0 62.5 -38.5t54.5 -38.5q0 -39 -13 -75t-13 -81q-36 0 -88 35q-60 40 -60 85q0 41 16.5 77t40.5 36zM1004 1102q30 0 62.5 -38.5t54.5 -38.5q0 -39 -13 -75t-13 -81q-36 0 -88 35q-60 40 -60 85q0 41 16.5 77t40.5 36zM805 985q30 0 62.5 -38.5t54.5 -38.5
q0 -39 -13 -75t-13 -81q-36 0 -88 35q-60 40 -60 85q0 41 16.5 77t40.5 36zM802 0q-188 0 -341 26q-197 33 -310 103q-136 84 -136 213q0 171 191 272q176 93 439 93q272 0 491 -103q203 -95 203 -191q0 -51 -23 -83q-29 -40 -85 -40q-92 0 -174 68q-124 103 -173 127
q-140 69 -367 69q-123 0 -244 -60q-130 -64 -130 -141q0 -96 223.5 -160.5t529.5 -64.5q101 0 262.5 27.5t279.5 63.5l112 62l-84 125q-10 14 -18 48t-8 59q0 56 38 111q35 51 61 51q22 0 46 -25t32 -62l66 -287q3 -14 3 -25q0 -127 -304 -207q-263 -69 -580 -69z" />
    <glyph glyph-name="sf276.002" unicode="&#x62c;" horiz-adv-x="800" 
d="M553 169q-115 -49 -191 -101q-95 -66 -147 -146q-59 -92 -59 -205q0 -105 58 -177q71 -87 203 -87q120 0 205 66q45 35 111 124q50 67 80 67q33 0 66 -36q39 -43 39 -105q0 -107 -135.5 -195t-304.5 -88q-198 0 -325 99q-140 109 -140 302q0 159 95 291q74 104 209 191
q95 62 203 105q-75 11 -149 38q-83 31 -148 76q-80 54 -134 128.5t-54 123.5q0 75 41 126q45 56 117 56q40 0 98 -171q36 -107 64 -151q35 -56 127 -99q85 -40 150 -40q72 0 136 9.5t125 19.5q17 0 30 -21t13 -47q0 -35 -26.5 -65.5t-65.5 -30.5q-56 0 -140 -14.5
t-151 -42.5zM421 -95q30 0 62.5 -38.5t54.5 -38.5q0 -39 -13 -75t-13 -81q-36 0 -88 35q-60 40 -60 85q0 41 16.5 77t40.5 36z" />
    <glyph glyph-name="sf276.003" unicode="&#x686;" horiz-adv-x="800" 
d="M553 169q-115 -49 -191 -101q-95 -66 -147 -146q-59 -92 -59 -205q0 -105 58 -177q71 -87 203 -87q120 0 205 66q45 35 111 124q50 67 80 67q33 0 66 -36q39 -43 39 -105q0 -107 -135.5 -195t-304.5 -88q-198 0 -325 99q-140 109 -140 302q0 159 95 291q74 104 209 191
q95 62 203 105q-75 11 -149 38q-83 31 -148 76q-80 54 -134 128.5t-54 123.5q0 75 41 126q45 56 117 56q40 0 98 -171q36 -107 64 -151q35 -56 127 -99q85 -40 150 -40q72 0 136 9.5t125 19.5q17 0 30 -21t13 -47q0 -35 -26.5 -65.5t-65.5 -30.5q-56 0 -140 -14.5
t-151 -42.5zM401.5 -355q-16.5 36 -16.5 77q0 45 60 85q52 35 88 35q0 -45 13 -81t13 -75q-22 0 -54.5 -38.5t-62.5 -38.5q-24 0 -40.5 36zM600.5 -218q-16.5 36 -16.5 77q0 45 60 85q52 35 88 35q0 -45 13 -81t13 -75q-22 0 -54.5 -38.5t-62.5 -38.5q-24 0 -40.5 36z
M401.5 -101q-16.5 36 -16.5 77q0 45 60 85q52 35 88 35q0 -45 13 -81t13 -75q-22 0 -54.5 -38.5t-62.5 -38.5q-24 0 -40.5 36z" />
    <glyph glyph-name="sf276.004" unicode="&#x62d;" horiz-adv-x="800" 
d="M553 169q-115 -49 -191 -101q-95 -66 -147 -146q-59 -92 -59 -205q0 -105 58 -177q71 -87 203 -87q120 0 205 66q45 35 111 124q50 67 80 67q33 0 66 -36q39 -43 39 -105q0 -107 -135.5 -195t-304.5 -88q-198 0 -325 99q-140 109 -140 302q0 159 95 291q74 104 209 191
q95 62 203 105q-75 11 -149 38q-83 31 -148 76q-80 54 -134 128.5t-54 123.5q0 75 41 126q45 56 117 56q40 0 98 -171q36 -107 64 -151q35 -56 127 -99q85 -40 150 -40q72 0 136 9.5t125 19.5q17 0 30 -21t13 -47q0 -35 -26.5 -65.5t-65.5 -30.5q-56 0 -140 -14.5
t-151 -42.5z" />
    <glyph glyph-name="sf276.005" unicode="&#x62e;" horiz-adv-x="800" 
d="M553 169q-115 -49 -191 -101q-95 -66 -147 -146q-59 -92 -59 -205q0 -105 58 -177q71 -87 203 -87q120 0 205 66q45 35 111 124q50 67 80 67q33 0 66 -36q39 -43 39 -105q0 -107 -135.5 -195t-304.5 -88q-198 0 -325 99q-140 109 -140 302q0 159 95 291q74 104 209 191
q95 62 203 105q-75 11 -149 38q-83 31 -148 76q-80 54 -134 128.5t-54 123.5q0 75 41 126q45 56 117 56q40 0 98 -171q36 -107 64 -151q35 -56 127 -99q85 -40 150 -40q72 0 136 9.5t125 19.5q17 0 30 -21t13 -47q0 -35 -26.5 -65.5t-65.5 -30.5q-56 0 -140 -14.5
t-151 -42.5zM516 805q30 0 62.5 -38.5t54.5 -38.5q0 -39 -13 -75t-13 -81q-36 0 -88 35q-60 40 -60 85q0 41 16.5 77t40.5 36z" />
    <glyph glyph-name="sf274" unicode="&#x62f;" horiz-adv-x="800" 
d="M696 721l163 -455q4 -10 6 -25t2 -30q0 -24 -1.5 -37.5t-7.5 -39.5q-11 -54 -54.5 -97t-115.5 -71l-198 -77q-36 -14 -70.5 -21.5t-60.5 -7.5q-73 0 -111 48q-28 36 -28 80q0 41 26.5 71.5t66.5 30.5h199q83 0 155.5 42.5t72.5 98.5q0 26 -18 50l-189 252
q-13 18 -19.5 50t-6.5 57q0 56 42 114q39 54 66 54q20 0 44.5 -26t36.5 -61z" />
    <glyph glyph-name="sf274.002" unicode="&#x688;" horiz-adv-x="800" 
d="M696 721l163 -455q4 -10 6 -25t2 -30q0 -24 -1.5 -37.5t-7.5 -39.5q-11 -54 -54.5 -97t-115.5 -71l-198 -77q-36 -14 -70.5 -21.5t-60.5 -7.5q-73 0 -111 48q-28 36 -28 80q0 41 26.5 71.5t66.5 30.5h199q83 0 155.5 42.5t72.5 98.5q0 26 -18 50l-189 252
q-13 18 -19.5 50t-6.5 57q0 56 42 114q39 54 66 54q20 0 44.5 -26t36.5 -61zM681 1129q0 -42 -33 -83q-29 -36 -63 -49t-53 -17q-26 -6 -64 -6q-35 0 -68 6q-46 9 -74 28q-34 23 -34 59q0 16 7.5 26.5t22.5 10.5q17 0 28 -17q17 -26 34 -38q14 9 26 19q19 16 30 34v9
l-55 192q-2 10 -3.5 21t-1.5 17q0 20 13 39q13 18 22 18q8 0 17 -9t10 -22l26 -233l8 14q18 28 42 48q34 27 68 27q48 0 73 -27q22 -24 22 -67zM611 1113q0 13 -15.5 24t-31.5 11q-24 0 -54 -22q-22 -16 -53 -49q-22 -23 -43 -46q7 -5 26 -9.5t32 -4.5q33 0 66 15
q27 13 43 28q19 18 24.5 28.5t5.5 24.5z" />
    <glyph glyph-name="sf274.003" unicode="&#x630;" horiz-adv-x="800" 
d="M696 721l163 -455q4 -10 6 -25t2 -30q0 -24 -1.5 -37.5t-7.5 -39.5q-11 -54 -54.5 -97t-115.5 -71l-198 -77q-36 -14 -70.5 -21.5t-60.5 -7.5q-73 0 -111 48q-28 36 -28 80q0 41 26.5 71.5t66.5 30.5h199q83 0 155.5 42.5t72.5 98.5q0 26 -18 50l-189 252
q-13 18 -19.5 50t-6.5 57q0 56 42 114q39 54 66 54q20 0 44.5 -26t36.5 -61zM395 1170q30 0 62.5 -38.5t54.5 -38.5q0 -39 -13 -75t-13 -81q-36 0 -88 35q-60 40 -60 85q0 41 16.5 77t40.5 36z" />
    <glyph glyph-name="sf331" unicode="&#x631;" horiz-adv-x="504" 
d="M443 128l-122 243q-8 16 -17 51.5t-9 55.5q0 56 38 111q35 51 61 51q22 0 46 -25t32 -62l66 -287q2 -9 3 -29.5t1 -34.5v-46q0 -140 -59 -293q-53 -136 -131.5 -234t-134.5 -98q-34 0 -60 17q-32 21 -32 59q0 17 24 55q21 33 41 56q95 108 177 245q76 127 76 165z" />
    <glyph glyph-name="sf331.001" unicode="&#x691;" horiz-adv-x="504" 
d="M443 128l-122 243q-8 16 -17 51.5t-9 55.5q0 56 38 111q35 51 61 51q22 0 46 -25t32 -62l66 -287q2 -9 3 -29.5t1 -34.5v-46q0 -140 -59 -293q-53 -136 -131.5 -234t-134.5 -98q-34 0 -60 17q-32 21 -32 59q0 17 24 55q21 33 41 56q95 108 177 245q76 127 76 165z
M453 1102q0 -42 -33 -83q-29 -36 -63 -49t-53 -17q-26 -6 -64 -6q-35 0 -68 6q-46 9 -74 28q-34 23 -34 59q0 16 7.5 26.5t22.5 10.5q17 0 28 -17q17 -26 34 -38q14 9 26 19q19 16 30 34v9l-55 192q-2 10 -3.5 21t-1.5 17q0 20 13 39q13 18 22 18q8 0 17 -9t10 -22l26 -233
l8 14q18 28 42 48q34 27 68 27q48 0 73 -27q22 -24 22 -67zM383 1086q0 13 -15.5 24t-31.5 11q-24 0 -54 -22q-22 -16 -53 -49q-22 -23 -43 -46q7 -5 26 -9.5t32 -4.5q33 0 66 15q27 13 43 28q19 18 24.5 28.5t5.5 24.5z" />
    <glyph glyph-name="sf331.002" unicode="&#x632;" horiz-adv-x="504" 
d="M443 128l-122 243q-8 16 -17 51.5t-9 55.5q0 56 38 111q35 51 61 51q22 0 46 -25t32 -62l66 -287q2 -9 3 -29.5t1 -34.5v-46q0 -140 -59 -293q-53 -136 -131.5 -234t-134.5 -98q-34 0 -60 17q-32 21 -32 59q0 17 24 55q21 33 41 56q95 108 177 245q76 127 76 165z
M230 953q30 0 62.5 -38.5t54.5 -38.5q0 -39 -13 -75t-13 -81q-36 0 -88 35q-60 40 -60 85q0 41 16.5 77t40.5 36z" />
    <glyph glyph-name="sf331.003" unicode="&#x698;" horiz-adv-x="504" 
d="M443 128l-122 243q-8 16 -17 51.5t-9 55.5q0 56 38 111q35 51 61 51q22 0 46 -25t32 -62l66 -287q2 -9 3 -29.5t1 -34.5v-46q0 -140 -59 -293q-53 -136 -131.5 -234t-134.5 -98q-34 0 -60 17q-32 21 -32 59q0 17 24 55q21 33 41 56q95 108 177 245q76 127 76 165z
M186 1293q30 0 62.5 -38.5t54.5 -38.5q0 -39 -13 -75t-13 -81q-36 0 -88 35q-60 40 -60 85q0 41 16.5 77t40.5 36zM385 1156q30 0 62.5 -38.5t54.5 -38.5q0 -39 -13 -75t-13 -81q-36 0 -88 35q-60 40 -60 85q0 41 16.5 77t40.5 36zM186 1039q30 0 62.5 -38.5t54.5 -38.5
q0 -39 -13 -75t-13 -81q-36 0 -88 35q-60 40 -60 85q0 41 16.5 77t40.5 36z" />
    <glyph glyph-name="sf293.002" unicode="&#x633;" horiz-adv-x="1848" 
d="M878 229q-21 26 -35 70.5t-14 92.5q0 61 25 97q29 42 89 42q29 0 79 -104q73 -152 103 -194q74 -105 161 -105q50 0 94.5 31t44.5 55q0 4 -2 8l-85 126q-10 15 -21 48.5t-11 55.5q0 56 38 111q35 51 61 51q22 0 45.5 -25.5t32.5 -61.5l53 -210q9 -34 50 -84
q49 -59 106 -90q42 14 62 31t20 33q0 7 -5 15l-99 149q-9 14 -17.5 48.5t-8.5 58.5q0 56 38 111q35 51 61 51q22 0 46 -25t32 -62l66 -287q6 -27 6 -54q0 -87 -55.5 -149.5t-141.5 -62.5q-51 0 -118 67q-22 22 -57 67q-24 -57 -87 -92q-75 -42 -190 -42h-46v-26
q0 -72 -66 -158q-76 -99 -204 -161q-153 -74 -345 -74q-235 0 -408.5 121t-173.5 293q0 182 118.5 300.5t306.5 118.5q106 0 192 -64t86 -150q0 -49 -24 -72q-30 -28 -106 -28q-52 0 -150 65q-47 31 -80 31q-90 0 -139 -65q-42 -55 -42 -136q0 -106 119 -189
q125 -87 301 -87q157 0 279 47q104 40 165 104q54 56 54 104q0 26 -33 68q-22 27 -78 86q-63 65 -92 101z" />
    <glyph glyph-name="sf293.003" unicode="&#x634;" horiz-adv-x="1848" 
d="M878 229q-21 26 -35 70.5t-14 92.5q0 61 25 97q29 42 89 42q29 0 79 -104q73 -152 103 -194q74 -105 161 -105q50 0 94.5 31t44.5 55q0 4 -2 8l-85 126q-10 15 -21 48.5t-11 55.5q0 56 38 111q35 51 61 51q22 0 45.5 -25.5t32.5 -61.5l53 -210q9 -34 50 -84
q49 -59 106 -90q42 14 62 31t20 33q0 7 -5 15l-99 149q-9 14 -17.5 48.5t-8.5 58.5q0 56 38 111q35 51 61 51q22 0 46 -25t32 -62l66 -287q6 -27 6 -54q0 -87 -55.5 -149.5t-141.5 -62.5q-51 0 -118 67q-22 22 -57 67q-24 -57 -87 -92q-75 -42 -190 -42h-46v-26
q0 -72 -66 -158q-76 -99 -204 -161q-153 -74 -345 -74q-235 0 -408.5 121t-173.5 293q0 182 118.5 300.5t306.5 118.5q106 0 192 -64t86 -150q0 -49 -24 -72q-30 -28 -106 -28q-52 0 -150 65q-47 31 -80 31q-90 0 -139 -65q-42 -55 -42 -136q0 -106 119 -189
q125 -87 301 -87q157 0 279 47q104 40 165 104q54 56 54 104q0 26 -33 68q-22 27 -78 86q-63 65 -92 101zM1189 1171q30 0 62.5 -38.5t54.5 -38.5q0 -39 -13 -75t-13 -81q-36 0 -88 35q-60 40 -60 85q0 41 16.5 77t40.5 36zM1388 1034q30 0 62.5 -38.5t54.5 -38.5
q0 -39 -13 -75t-13 -81q-36 0 -88 35q-60 40 -60 85q0 41 16.5 77t40.5 36zM1189 917q30 0 62.5 -38.5t54.5 -38.5q0 -39 -13 -75t-13 -81q-36 0 -88 35q-60 40 -60 85q0 41 16.5 77t40.5 36z" />
    <glyph glyph-name="sf293.001" unicode="&#x635;" horiz-adv-x="1920" 
d="M1970 444q0 -118 -93 -236q-82 -103 -174 -139t-170 -52.5t-166 -16.5h-184v-26q0 -60 -62 -145q-75 -102 -196 -167q-152 -81 -342 -81q-235 0 -408.5 121t-173.5 293q0 182 118.5 300.5t306.5 118.5q106 0 192 -64t86 -150q0 -49 -24 -72q-30 -28 -106 -28
q-52 0 -150 65q-47 31 -80 31q-90 0 -139 -65q-42 -55 -42 -136q0 -106 119 -189q125 -87 301 -87q158 0 274 52q97 43 154 114q49 61 49 110q0 19 -69 83q-50 46 -89 94q-21 26 -35 69.5t-14 89.5q0 58 25 93q29 41 89 41q27 0 50 -49q48 -104 97 -207q28 35 56 71
q54 68 109 137q61 77 69 89q49 70 140 131q112 75 212 75q136 0 206 -76q64 -70 64 -192zM1772 400q0 38 -44.5 69t-90.5 31q-68 0 -161 -64q-66 -45 -164 -140q-66 -66 -132 -131q17 -17 85 -27t112 -10q98 0 184.5 28t125.5 66q50 48 70 96q15 36 15 82z" />
    <glyph glyph-name="sf293.004" unicode="&#x636;" horiz-adv-x="1920" 
d="M1970 444q0 -118 -93 -236q-82 -103 -174 -139t-170 -52.5t-166 -16.5h-184v-26q0 -60 -62 -145q-75 -102 -196 -167q-152 -81 -342 -81q-235 0 -408.5 121t-173.5 293q0 182 118.5 300.5t306.5 118.5q106 0 192 -64t86 -150q0 -49 -24 -72q-30 -28 -106 -28
q-52 0 -150 65q-47 31 -80 31q-90 0 -139 -65q-42 -55 -42 -136q0 -106 119 -189q125 -87 301 -87q158 0 274 52q97 43 154 114q49 61 49 110q0 19 -69 83q-50 46 -89 94q-21 26 -35 69.5t-14 89.5q0 58 25 93q29 41 89 41q27 0 50 -49q48 -104 97 -207q28 35 56 71
q54 68 109 137q61 77 69 89q49 70 140 131q112 75 212 75q136 0 206 -76q64 -70 64 -192zM1772 400q0 38 -44.5 69t-90.5 31q-68 0 -161 -64q-66 -45 -164 -140q-66 -66 -132 -131q17 -17 85 -27t112 -10q98 0 184.5 28t125.5 66q50 48 70 96q15 36 15 82zM1277 983
q30 0 62.5 -38.5t54.5 -38.5q0 -39 -13 -75t-13 -81q-36 0 -88 35q-60 40 -60 85q0 41 16.5 77t40.5 36z" />
    <glyph glyph-name="sf336" unicode="&#x637;" horiz-adv-x="1024" 
d="M1113 444q0 -117 -94 -234q-82 -101 -178 -138.5t-151 -49.5q-73 -16 -180 -16q-101 0 -195 18q-130 25 -208 78q-97 66 -97 168q0 46 21 75t63 29q50 0 81 -47q49 -73 97 -107q38 24 72 53q54 46 86 96v25l-155 545q-8 29 -12 59t-4 48q0 56 38 111q35 51 61 51
q23 0 48.5 -26t29.5 -61l73 -661l24 40q51 79 118 134q95 78 192 78q136 0 206 -76q64 -70 64 -192zM915 400q0 38 -44.5 69t-90.5 31q-67 0 -152 -63q-63 -46 -150 -138q-62 -65 -123 -130q22 -15 75.5 -28t89.5 -13q93 0 188 43q77 35 122 79q53 51 69 80.5t16 69.5z" />
    <glyph glyph-name="sf336.002" unicode="&#x638;" horiz-adv-x="1024" 
d="M1113 444q0 -117 -94 -234q-82 -101 -178 -138.5t-151 -49.5q-73 -16 -180 -16q-101 0 -195 18q-130 25 -208 78q-97 66 -97 168q0 46 21 75t63 29q50 0 81 -47q49 -73 97 -107q38 24 72 53q54 46 86 96v25l-155 545q-8 29 -12 59t-4 48q0 56 38 111q35 51 61 51
q23 0 48.5 -26t29.5 -61l73 -661l24 40q51 79 118 134q95 78 192 78q136 0 206 -76q64 -70 64 -192zM915 400q0 38 -44.5 69t-90.5 31q-67 0 -152 -63q-63 -46 -150 -138q-62 -65 -123 -130q22 -15 75.5 -28t89.5 -13q93 0 188 43q77 35 122 79q53 51 69 80.5t16 69.5z
M677 1093q30 0 62.5 -38.5t54.5 -38.5q0 -39 -13 -75t-13 -81q-36 0 -88 35q-60 40 -60 85q0 41 16.5 77t40.5 36z" />
    <glyph glyph-name="sf276.001" unicode="&#x639;" horiz-adv-x="885" 
d="M176 -243q0 -95 74 -178q85 -96 217 -96q119 0 205 64q47 35 111 118q50 65 80 65q33 0 66 -36q39 -43 39 -105q0 -107 -144 -197t-315 -90q-197 0 -331 106q-147 116 -147 309q0 111 61 231q47 92 122 177q49 55 92 90q-133 37 -212 111q-91 85 -91 202q0 134 99 230
t237 96q103 0 188 -58t85 -132q0 -56 -30.5 -92.5t-78.5 -36.5q-36 0 -113 55t-124 55q-54 0 -103 -33q-60 -41 -60 -102q0 -71 131 -124q112 -45 215 -45q57 0 136 35q4 2 130 66q71 36 101 36q15 0 25 -19.5t10 -36.5q0 -24 -16 -50t-43 -39l-159 -72q-224 -102 -335 -218
q-122 -128 -122 -286z" />
    <glyph glyph-name="sf276.006" unicode="&#x63a;" horiz-adv-x="885" 
d="M176 -243q0 -95 74 -178q85 -96 217 -96q119 0 205 64q47 35 111 118q50 65 80 65q33 0 66 -36q39 -43 39 -105q0 -107 -144 -197t-315 -90q-197 0 -331 106q-147 116 -147 309q0 111 61 231q47 92 122 177q49 55 92 90q-133 37 -212 111q-91 85 -91 202q0 134 99 230
t237 96q103 0 188 -58t85 -132q0 -56 -30.5 -92.5t-78.5 -36.5q-36 0 -113 55t-124 55q-54 0 -103 -33q-60 -41 -60 -102q0 -71 131 -124q112 -45 215 -45q57 0 136 35q4 2 130 66q71 36 101 36q15 0 25 -19.5t10 -36.5q0 -24 -16 -50t-43 -39l-159 -72q-224 -102 -335 -218
q-122 -128 -122 -286zM116 1181q30 0 62.5 -38.5t54.5 -38.5q0 -39 -13 -75t-13 -81q-36 0 -88 35q-60 40 -60 85q0 41 16.5 77t40.5 36z" />
    <glyph glyph-name="sf278" unicode="&#x641;" horiz-adv-x="1536" 
d="M1546 398v12q0 85 -86.5 169.5t-167.5 84.5q-44 0 -78 -30t-34 -76q0 -68 139 -118q118 -42 227 -42zM1061 1203q30 0 62.5 -38.5t54.5 -38.5q0 -39 -13 -75t-13 -81q-36 0 -88 35q-60 40 -60 85q0 41 16.5 77t40.5 36zM671 -23q-176 0 -309 23q-162 28 -249 87
q-103 70 -103 181q0 155 148 248q130 82 304 82q160 0 277.5 -58t117.5 -143q0 -50 -33 -83q-40 -40 -114 -40q-43 0 -93 37q-81 61 -97 69q-70 38 -160 38q-73 0 -145 -33q-87 -40 -87 -100q0 -74 211 -129q196 -51 429 -51q177 0 377 35q241 42 345 112q-76 0 -162 26
q-107 32 -172 90q-80 71 -80 168q0 128 44 215q55 108 161 108q135 0 256 -141q127 -148 127 -337q0 -160 -152 -256q-131 -83 -374 -119q-195 -29 -467 -29z" />
    <glyph glyph-name="sf277.018" unicode="&#x642;" horiz-adv-x="1233" 
d="M1185 362v12q0 85 -86.5 169.5t-167.5 84.5q-44 0 -78 -30t-34 -76q0 -68 139 -118q118 -42 227 -42zM1170 201h-107q-116 0 -220 70q-128 87 -128 229q0 128 54 229q64 121 172 121q129 0 245.5 -172t116.5 -366q0 -282 -220 -427q-195 -129 -525 -129q-239 0 -395 102
q-162 106 -162 276q0 177 117 287q112 106 282 106q105 0 179.5 -60.5t74.5 -147.5q0 -47 -32 -70.5t-110 -23.5q-52 0 -142 61q-43 29 -76 29q-85 0 -125 -60q-28 -42 -28 -98q0 -79 131 -168q139 -95 286 -95q195 0 340 57q119 47 196 126q60 62 76 124zM620 1158
q30 0 62.5 -38.5t54.5 -38.5q0 -39 -13 -75t-13 -81q-36 0 -88 35q-60 40 -60 85q0 41 16.5 77t40.5 36zM421 1041q30 0 62.5 -38.5t54.5 -38.5q0 -39 -13 -75t-13 -81q-36 0 -88 35q-60 40 -60 85q0 41 16.5 77t40.5 36z" />
    <glyph glyph-name="sf270.007" unicode="&#x643;" horiz-adv-x="1989" 
d="M802 -50q-186 0 -340 26q-197 33 -308 102q-134 83 -134 213q0 171 191 272q176 93 439 93q272 0 491 -103q203 -95 203 -191q0 -51 -23 -83q-29 -40 -85 -40q-92 0 -174 68q-124 103 -173 127q-140 69 -367 69q-123 0 -244 -60q-130 -64 -130 -141q0 -96 223.5 -160.5
t529.5 -64.5q109 0 227 18q144 22 229 62q104 49 104 118q0 12 -3 26l-156 638q-6 24 -11 57t-5 50q0 56 31 109t56 53q24 0 49 -24q29 -28 29 -63l100 -816q0 -7 1 -15.5t1 -13.5q0 -154 -203 -240t-548 -86zM1059 940l-83 -22l31 -114q3 -11 3 -19q0 -31 -38 -42l-116 -31
q-10 -2 -15 -2q-21 0 -34.5 15.5t-13.5 35.5q0 17 9 29.5t28 17.5l68 18l-31 114q-3 11 -3 19q0 31 38 42l131 35q10 2 15 2q21 0 34.5 -15.5t13.5 -35.5q0 -17 -9 -29.5t-28 -17.5zM1305 1071q0 69 72 191q85 144 221 267q167 152 379 242q17 7 40 7q36 0 66.5 -18
t38.5 -49q3 -12 3 -26q0 -40 -19 -76t-49 -45q-178 -50 -337 -159q-128 -87 -217 -189q-48 -55 -67 -90l-129 -73q-2 9 -2 18z" />
    <glyph glyph-name="sf270.007" unicode="&#x6a9;" horiz-adv-x="1989" 
d="M802 -50q-186 0 -340 26q-197 33 -308 102q-134 83 -134 213q0 171 191 272q176 93 439 93q272 0 491 -103q203 -95 203 -191q0 -51 -23 -83q-29 -40 -85 -40q-92 0 -174 68q-124 103 -173 127q-140 69 -367 69q-123 0 -244 -60q-130 -64 -130 -141q0 -96 223.5 -160.5
t529.5 -64.5q109 0 227 18q144 22 229 62q104 49 104 118q0 12 -3 26l-156 638q-6 24 -11 57t-5 50q0 56 31 109t56 53q24 0 49 -24q29 -28 29 -63l100 -816q0 -7 1 -15.5t1 -13.5q0 -154 -203 -240t-548 -86zM1059 940l-83 -22l31 -114q3 -11 3 -19q0 -31 -38 -42l-116 -31
q-10 -2 -15 -2q-21 0 -34.5 15.5t-13.5 35.5q0 17 9 29.5t28 17.5l68 18l-31 114q-3 11 -3 19q0 31 38 42l131 35q10 2 15 2q21 0 34.5 -15.5t13.5 -35.5q0 -17 -9 -29.5t-28 -17.5zM1305 1071q0 69 72 191q85 144 221 267q167 152 379 242q17 7 40 7q36 0 66.5 -18
t38.5 -49q3 -12 3 -26q0 -40 -19 -76t-49 -45q-178 -50 -337 -159q-128 -87 -217 -189q-48 -55 -67 -90l-129 -73q-2 9 -2 18z" />
    <glyph glyph-name="sf270.006" unicode="&#x6af;" horiz-adv-x="1989" 
d="M802 -50q-186 0 -340 26q-197 33 -308 102q-134 83 -134 213q0 171 191 272q176 93 439 93q272 0 491 -103q203 -95 203 -191q0 -51 -23 -83q-29 -40 -85 -40q-92 0 -174 68q-124 103 -173 127q-140 69 -367 69q-123 0 -244 -60q-130 -64 -130 -141q0 -96 223.5 -160.5
t529.5 -64.5q109 0 227 18q144 22 229 62q104 49 104 118q0 12 -3 26l-156 638q-6 24 -11 57t-5 50q0 56 31 109t56 53q24 0 49 -24q29 -28 29 -63l100 -816q0 -7 1 -15.5t1 -13.5q0 -154 -203 -240t-548 -86zM1059 940l-83 -22l31 -114q3 -11 3 -19q0 -31 -38 -42l-116 -31
q-10 -2 -15 -2q-21 0 -34.5 15.5t-13.5 35.5q0 17 9 29.5t28 17.5l68 18l-31 114q-3 11 -3 19q0 31 38 42l131 35q10 2 15 2q21 0 34.5 -15.5t13.5 -35.5q0 -17 -9 -29.5t-28 -17.5zM1305 1071q0 69 72 191q85 144 221 267q167 152 379 242q17 7 40 7q36 0 66.5 -18
t38.5 -49q3 -12 3 -26q0 -40 -19 -76t-49 -45q-178 -50 -337 -159q-128 -87 -217 -189q-48 -55 -67 -90l-129 -73q-2 9 -2 18zM1171 1340q0 69 72 191q85 144 221 267q167 152 379 242q17 7 40 7q36 0 66.5 -18t38.5 -49q3 -12 3 -26q0 -40 -19 -76t-49 -45
q-178 -50 -337 -159q-128 -87 -217 -189q-48 -55 -67 -90l-129 -73q-2 9 -2 18z" />
    <glyph glyph-name="sf288.001" unicode="&#x644;" horiz-adv-x="970" 
d="M597 -388q-241 0 -414 105q-182 111 -182 278q0 182 118.5 300.5t306.5 118.5q106 0 192 -64t86 -150q0 -49 -24 -72q-30 -28 -106 -28q-52 0 -150 65q-47 31 -80 31q-90 0 -142 -65q-45 -56 -45 -136q0 -100 151 -169q144 -66 333 -66q93 0 180 104t98 232
q-19 108 -38 217l-144 626q-6 24 -11 57t-5 50q0 56 38 111q35 51 61 51q24 0 49 -25.5t29 -61.5l107 -825q6 -42 8 -83t2 -85q0 -256 -125 -393q-112 -123 -293 -123z" />
    <glyph glyph-name="sf289.001" unicode="&#x645;" horiz-adv-x="708" 
d="M685 225q0 56 -75 116q-69 55 -110 55q-42 0 -72 -32.5t-37 -92.5q30 -48 97 -85t113 -37q33 0 61 33q23 27 23 43zM3 325q0 92 29.5 138.5t82.5 46.5q38 0 126 -97q32 -37 65 -73q12 138 55 188q37 42 102 42q128 0 228.5 -112.5t100.5 -267.5q0 -79 -37 -139
q-42 -69 -112 -69q-127 0 -250 98q-80 64 -172 183q-76 99 -86 99q-11 0 -19.5 -35.5t-8.5 -68.5q0 -104 49 -213q31 -70 113 -199q92 -145 124 -212q9 -18 13 -35.5t4 -34.5q0 -45 -28 -74t-68 -29q-39 0 -73.5 33.5t-51.5 92.5q-6 0 -48 88q-54 113 -89 253
q-49 194 -49 397z" />
    <glyph glyph-name="sf277.019" unicode="&#x646;" horiz-adv-x="1133" 
d="M1198 0q0 -91 -66 -182q-74 -103 -204 -165q-150 -72 -345 -72q-235 0 -408.5 121t-173.5 293q0 182 118.5 300.5t306.5 118.5q106 0 192 -64t86 -150q0 -49 -24 -72q-30 -28 -106 -28q-52 0 -150 65q-47 31 -80 31q-90 0 -139 -65q-42 -55 -42 -136q0 -101 136 -188.5
t284 -87.5q154 0 279 56q98 44 165 114q54 56 54 85q0 49 -100 146q-67 64 -103 109q-21 26 -35 70.5t-14 92.5q0 61 25 97q29 42 89 42q59 0 157 -200t98 -331zM549 777q30 0 62.5 -38.5t54.5 -38.5q0 -39 -13 -75t-13 -81q-36 0 -88 35q-60 40 -60 85q0 41 16.5 77
t40.5 36z" />
    <glyph glyph-name="sf277.037" unicode="&#x6ba;" horiz-adv-x="1133" 
d="M1198 0q0 -91 -66 -182q-74 -103 -204 -165q-150 -72 -345 -72q-235 0 -408.5 121t-173.5 293q0 182 118.5 300.5t306.5 118.5q106 0 192 -64t86 -150q0 -49 -24 -72q-30 -28 -106 -28q-52 0 -150 65q-47 31 -80 31q-90 0 -139 -65q-42 -55 -42 -136q0 -101 136 -188.5
t284 -87.5q154 0 279 56q98 44 165 114q54 56 54 85q0 49 -100 146q-67 64 -103 109q-21 26 -35 70.5t-14 92.5q0 61 25 97q29 42 89 42q59 0 157 -200t98 -331z" />
    <glyph glyph-name="sf337" unicode="&#x648;" horiz-adv-x="770" 
d="M845 252q0 -142 -65 -318q-58 -158 -143.5 -280.5t-140.5 -122.5q-34 0 -60 17q-32 21 -32 59q0 17 24 55q21 33 41 56q95 108 177 245q76 127 76 165l-117 -1q-148 0 -241 68q-107 78 -107 227q0 128 54 229q64 121 172 121q139 0 248 -148q114 -155 114 -372zM727 284
v12q0 85 -86.5 169.5t-167.5 84.5q-44 0 -78 -30t-34 -76q0 -68 139 -118q118 -42 227 -42z" />
    <glyph glyph-name="sf337.001" unicode="&#x624;" horiz-adv-x="770" 
d="M574 1115q-3 -32 -7 -49q-13 -53 -43 -64l-251 -97q-3 -1 -6.5 -1.5t-4.5 -0.5q-12 0 -12 15q0 19 14 33q9 11 29 31l17 17q-21 16 -31 25q-32 30 -32 51q0 87 56 146q52 55 116 55q24 0 50.5 -26.5t26.5 -59.5q0 -25 -10.5 -33.5t-31.5 -8.5q-10 0 -34 3t-38 3
q-29 0 -57 -16t-28 -34q0 -12 52 -26.5t85 -14.5q20 0 82 26q20 8 58 26zM845 252q0 -142 -65 -318q-58 -158 -143.5 -280.5t-140.5 -122.5q-34 0 -60 17q-32 21 -32 59q0 17 24 55q21 33 41 56q95 108 177 245q76 127 76 165l-117 -1q-148 0 -241 68q-107 78 -107 227
q0 128 54 229q64 121 172 121q139 0 248 -148q114 -155 114 -372zM727 284v12q0 85 -86.5 169.5t-167.5 84.5q-44 0 -78 -30t-34 -76q0 -68 139 -118q118 -42 227 -42z" />
    <glyph glyph-name="sf265.001" unicode="&#x6c1;" horiz-adv-x="528" 
d="M516 264q0 -113 -64.5 -193.5t-163.5 -80.5q-119 0 -199 102q-83 106 -83 280q0 130 50 216q54 93 146 93q109 0 211.5 -133.5t102.5 -283.5zM413 302q0 48 -77 110.5t-126 62.5q-29 0 -70 -52q-44 -56 -44 -102q0 -73 56 -126q50 -48 107 -48q66 0 115 67q39 53 39 88z
" />
    <glyph glyph-name="sf265.002" unicode="&#x6c3;" horiz-adv-x="528" 
d="M516 264q0 -113 -64.5 -193.5t-163.5 -80.5q-119 0 -199 102q-83 106 -83 280q0 130 50 216q54 93 146 93q109 0 211.5 -133.5t102.5 -283.5zM413 302q0 48 -77 110.5t-126 62.5q-29 0 -70 -52q-44 -56 -44 -102q0 -73 56 -126q50 -48 107 -48q66 0 115 67q39 53 39 88z
M266 1144q30 0 62.5 -38.5t54.5 -38.5q0 -39 -13 -75t-13 -81q-36 0 -88 35q-60 40 -60 85q0 41 16.5 77t40.5 36zM67 1027q30 0 62.5 -38.5t54.5 -38.5q0 -39 -13 -75t-13 -81q-36 0 -88 35q-60 40 -60 85q0 41 16.5 77t40.5 36z" />
    <glyph glyph-name="sf298" unicode="&#x6be;" horiz-adv-x="1035" 
d="M336 192q-53 61 -82 132.5t-29 146.5q0 33 9 65q-70 6 -137 65q-85 75 -85 188q0 144 136 234q118 78 259 78q163 0 313 -88q159 -93 253 -254q104 -178 104 -405q0 -189 -86 -298.5t-241 -109.5q-101 0 -199 48q-83 41 -143 104q-81 -50 -171 -74q-71 -19 -142 -23
q-3 108 98 137.5t143 53.5zM962 300q0 140 -67 279q-70 146 -189 236q-130 99 -286 99q-81 0 -142 -40.5t-61 -90.5q0 -49 30 -92q24 -35 58 -54q30 21 65.5 31.5t83.5 10.5q72 0 129 -61q65 -70 65 -182q0 -63 -40 -136q-35 -64 -93 -120q50 -46 98 -72q62 -34 119 -34
q90 0 163 79q67 73 67 147zM506 394q0 68 -16.5 94.5t-55.5 26.5q-38 0 -55 -37q-13 -28 -13 -64q0 -31 20 -69.5t55 -74.5q29 29 47 61.5t18 62.5z" />
    <glyph glyph-name="sf266.002" unicode="&#x621;" horiz-adv-x="633" 
d="M577 95l-320 -132q-7 -3 -13.5 -4t-13.5 -1q-21 0 -35 13t-14 31q0 12 9 23q21 23 42 41q15 13 45 34q-46 10 -79 48.5t-33 80.5q0 135 88 227q80 84 181 84q43 0 84 -32q50 -39 50 -100q0 -31 -14 -44t-40 -13q-11 0 -85 13q-34 6 -55 6q-42 0 -79.5 -36.5t-37.5 -67.5
q0 -20 63.5 -46t109.5 -26q13 0 90 34t105 34q19 0 35.5 -16.5t16.5 -43.5q0 -29 -28 -59t-72 -48z" />
    <glyph glyph-name="sf271" unicode="&#x649;" horiz-adv-x="1320" 
d="M1128 -136q-191 49 -296 88q-112 42 -112 94q0 74 88 252q101 203 225 336q156 167 304 167q23 0 53 -19q37 -23 37 -51q0 -38 -13 -63q-16 -30 -53 -48q-154 -72 -282 -184q-106 -92 -176 -190q-60 -84 -60 -118q0 -8 116 -36q155 -38 217 -62q117 -45 117 -94
q0 -115 -198 -220q-217 -115 -512 -115q-231 0 -406.5 135t-175.5 309q0 173 131 285q122 104 285 104q123 0 186 -26q83 -34 83 -114q0 -39 -41.5 -65.5t-106.5 -26.5q-52 0 -87 10q-88 25 -107 25q-91 0 -139 -60q-42 -52 -42 -132q0 -109 119 -204q128 -102 301 -102
q206 0 369 42q146 38 176 83z" />
    <glyph glyph-name="sf271" unicode="&#x6cc;" horiz-adv-x="1320" 
d="M1128 -136q-191 49 -296 88q-112 42 -112 94q0 74 88 252q101 203 225 336q156 167 304 167q23 0 53 -19q37 -23 37 -51q0 -38 -13 -63q-16 -30 -53 -48q-154 -72 -282 -184q-106 -92 -176 -190q-60 -84 -60 -118q0 -8 116 -36q155 -38 217 -62q117 -45 117 -94
q0 -115 -198 -220q-217 -115 -512 -115q-231 0 -406.5 135t-175.5 309q0 173 131 285q122 104 285 104q123 0 186 -26q83 -34 83 -114q0 -39 -41.5 -65.5t-106.5 -26.5q-52 0 -87 10q-88 25 -107 25q-91 0 -139 -60q-42 -52 -42 -132q0 -109 119 -204q128 -102 301 -102
q206 0 369 42q146 38 176 83z" />
    <glyph glyph-name="sf271.002" unicode="&#x64a;" horiz-adv-x="1320" 
d="M1128 -136q-191 49 -296 88q-112 42 -112 94q0 74 88 252q101 203 225 336q156 167 304 167q23 0 53 -19q37 -23 37 -51q0 -38 -13 -63q-16 -30 -53 -48q-154 -72 -282 -184q-106 -92 -176 -190q-60 -84 -60 -118q0 -8 116 -36q155 -38 217 -62q117 -45 117 -94
q0 -115 -198 -220q-217 -115 -512 -115q-231 0 -406.5 135t-175.5 309q0 173 131 285q122 104 285 104q123 0 186 -26q83 -34 83 -114q0 -39 -41.5 -65.5t-106.5 -26.5q-52 0 -87 10q-88 25 -107 25q-91 0 -139 -60q-42 -52 -42 -132q0 -109 119 -204q128 -102 301 -102
q206 0 369 42q146 38 176 83zM836 -462q30 0 62.5 -38.5t54.5 -38.5q0 -39 -13 -75t-13 -81q-36 0 -88 35q-60 40 -60 85q0 41 16.5 77t40.5 36zM637 -579q30 0 62.5 -38.5t54.5 -38.5q0 -39 -13 -75t-13 -81q-36 0 -88 35q-60 40 -60 85q0 41 16.5 77t40.5 36z" />
    <glyph glyph-name="afii57414" unicode="&#x626;" horiz-adv-x="1320" 
d="M394 643q-3 -32 -7 -49q-13 -53 -43 -64l-251 -97q-3 -1 -6.5 -1.5t-4.5 -0.5q-12 0 -12 15q0 19 14 33q9 11 29 31l17 17q-21 16 -31 25q-32 30 -32 51q0 87 56 146q52 55 116 55q24 0 50.5 -26.5t26.5 -59.5q0 -25 -10.5 -33.5t-31.5 -8.5q-10 0 -34 3t-38 3
q-29 0 -57 -16t-28 -34q0 -12 52 -26.5t85 -14.5q20 0 82 26q20 8 58 26zM1128 -136q-191 49 -296 88q-112 42 -112 94q0 74 88 252q101 203 225 336q156 167 304 167q23 0 53 -19q37 -23 37 -51q0 -38 -13 -63q-16 -30 -53 -48q-154 -72 -282 -184q-106 -92 -176 -190
q-60 -84 -60 -118q0 -8 116 -36q155 -38 217 -62q117 -45 117 -94q0 -115 -198 -220q-217 -115 -512 -115q-231 0 -406.5 135t-175.5 309q0 173 131 285q122 104 285 104q123 0 186 -26q83 -34 83 -114q0 -39 -41.5 -65.5t-106.5 -26.5q-52 0 -87 10q-88 25 -107 25
q-91 0 -139 -60q-42 -52 -42 -132q0 -109 119 -204q128 -102 301 -102q206 0 369 42q146 38 176 83z" />
    <glyph glyph-name="sf269" unicode="&#x6d2;" horiz-adv-x="2203" 
d="M504 103q99 0 173 -0.5t134 -0.5t105.5 -0.5t87.5 -0.5q47 0 92.5 1t99.5 3t122.5 5t161 8t215 12t284.5 16q37 4 80 13t93 12q-10 -27 -33.5 -47t-54 -41t-63 -41t-55.5 -35q-1 -1 -11 -7q-39 -5 -119 -12.5t-187.5 -15.5t-236 -16.5t-262 -15.5t-264.5 -11.5t-244 -5.5
h-45q-87 0 -157 3q-89 4 -137 14q-26 6 -53 11.5t-53 15t-49.5 24t-41.5 38.5q-5 6 -10.5 15t-5.5 19q0 7 6 17q45 66 83.5 114.5t69 81.5t50 52t27.5 26q30 28 67.5 49.5t77 38t79.5 30.5t75 28q51 21 90.5 44.5t73.5 54t64 70t59 92.5q21 33 49 40q7 1 13 1q22 0 43 -16
q6 -11 9.5 -17.5t10.5 -26.5t20 -62t39 -123q0 -6 -5.5 -22.5t-14.5 -39.5t-19.5 -48t-21.5 -45.5t-23 -35.5q-7 -9 -14 -9q-5 0 -11 5q-21 74 -34 119t-21.5 69t-14 31t-7.5 7q-8 0 -15 -6.5t-14 -16.5t-12.5 -21.5t-10.5 -19.5q-27 -42 -67 -82t-88 -73.5t-102 -57
t-110 -31.5q-52 -6 -85.5 -10t-57 -11.5t-42 -21t-39.5 -37.5q-1 -1 -1 -3q0 -1 1 -2q1 -3 5 -7q23 -26 52.5 -41.5t63.5 -24t69 -12.5t67 -7z" />
    <glyph glyph-name="sf269.002" unicode="&#x6d3;" horiz-adv-x="2203" 
d="M679 960q7 19 14.5 42t16.5 46.5t21 45t28 37.5q16 14 36 24t43 14q9 1 19 1q13 0 26 -2q23 -5 46 -20q0 -10 -4 -22t-9.5 -26.5t-11.5 -27.5t-12 -23q-9 -11 -18 -11q-7 0 -14 7q-13 11 -28 14h-11q-10 0 -18 -2q-15 -4 -28.5 -13t-23.5 -19q3 -14 19 -25.5t36.5 -18
t41.5 -9.5t32 -3q31 2 64 12.5t63 22.5q10 4 16 4t6 -5q0 -4 -4 -12q-12 -21 -24.5 -41t-30.5 -47q-38 -13 -75.5 -23.5t-71.5 -25t-64.5 -35t-51.5 -49.5q-3 -7 -16 -8q-1 -1 -2 -1q-7 0 -7 6q0 3 1 7q4 29 16.5 54t27.5 52v1q-18 13 -34 32q-14 16 -14 41v6zM504 103
q99 0 173 -0.5t134 -0.5t105.5 -0.5t87.5 -0.5q47 0 92.5 1t99.5 3t122.5 5t161 8t215 12t284.5 16q37 4 80 13t93 12q-10 -27 -33.5 -47t-54 -41t-63 -41t-55.5 -35q-1 -1 -11 -7q-39 -5 -119 -12.5t-187.5 -15.5t-236 -16.5t-262 -15.5t-264.5 -11.5t-244 -5.5h-45
q-87 0 -157 3q-89 4 -137 14q-26 6 -53 11.5t-53 15t-49.5 24t-41.5 38.5q-5 6 -10.5 15t-5.5 19q0 7 6 17q45 66 83.5 114.5t69 81.5t50 52t27.5 26q30 28 67.5 49.5t77 38t79.5 30.5t75 28q51 21 90.5 44.5t73.5 54t64 70t59 92.5q21 33 49 40q7 1 13 1q22 0 43 -16
q6 -11 9.5 -17.5t10.5 -26.5t20 -62t39 -123q0 -6 -5.5 -22.5t-14.5 -39.5t-19.5 -48t-21.5 -45.5t-23 -35.5q-7 -9 -14 -9q-5 0 -11 5q-21 74 -34 119t-21.5 69t-14 31t-7.5 7q-8 0 -15 -6.5t-14 -16.5t-12.5 -21.5t-10.5 -19.5q-27 -42 -67 -82t-88 -73.5t-102 -57
t-110 -31.5q-52 -6 -85.5 -10t-57 -11.5t-42 -21t-39.5 -37.5q-1 -1 -1 -3q0 -1 1 -2q1 -3 5 -7q23 -26 52.5 -41.5t63.5 -24t69 -12.5t67 -7z" />
    <glyph glyph-name="glyph73" horiz-adv-x="280" 
d="M276 553l66 -287q6 -26 6 -48q0 -99 -100 -164q-83 -54 -165 -54h-83v128h13q58 0 126.5 32t68.5 67q0 8 -4 15l-79 129q-9 15 -17.5 50t-8.5 57q0 56 38 111q35 51 61 51q22 0 46 -25t32 -62zM256 -404q-2 7 -4.5 13.5t-5.5 13.5q-6 13 -10 26q8 1 17 3l9 2
q13 4 26.5 7.5t25.5 6.5q4 1 7 2q8 2 15 3q-1 0 2 -6l8 -18q9 -19 15.5 -38t4.5 -38q-1 -25 -14 -45t-34.5 -34.5t-48.5 -22.5q-5 -2 -10 -3q-22 -5 -46 -5q-33 -1 -61 8t-49 24.5t-37 36.5q-10 14 -16 29q-4 8 -6 15q-8 24 -9 49t6 48q6 29 14.5 56.5t14.5 55t7.5 56
t-7.5 58.5q1 0 6 1l45 11q14 3 26.5 5t23.5 3q12 -27 14.5 -55t-4.5 -55q-11 -28 -23.5 -58.5t-18.5 -61.5t-2 -63q2 -17 10 -35q6 -13 16 -27q12 -13 30 -15q13 -2 25 1q4 1 7 2q16 6 25.5 17.5t5.5 26.5z" />
    <glyph glyph-name="sf325.001" horiz-adv-x="1440" 
d="M1510 0h-83q-119 0 -208 118q-71 95 -120 262q-30 -82 -64 -150q-37 -74 -84 -140q-82 -117 -256 -229q-182 -117 -295 -117q-43 0 -69 20t-32 63q-1 6 -1 17q0 52 83 80q174 58 211 76q154 76 282 230q-54 142 -179 294q-108 132 -243 241q-124 100 -217 141
q-14 6 -24 32.5t-10 55.5t11 52.5t38.5 39.5t53.5 16q13 0 25 -5q97 -42 231 -173q142 -138 243 -298q116 -183 136 -332q35 53 51 102q34 101 34 244q0 48 -23.5 178t-45.5 253q-25 140 -25 178q0 32 28 55t63 23q38 0 68 -26t30 -61q0 -414 103.5 -763t234.5 -349h53v-128
z" />
    <glyph glyph-name="sf268.001" horiz-adv-x="400" 
d="M246 1402q-25 0 -42.5 -7t-30.5 -20l-38 -38q-16 -16 -35 -16q-21 0 -35.5 15.5t-14.5 35.5t15 35l43 43q21 21 45 34q33 18 70 18h205q46 0 73 27l38 38q16 16 36 16t35 -15t15 -36q0 -19 -16 -35l-43 -43q-29 -29 -57 -40.5t-58 -11.5h-205zM358 1121l107 -825
q7 -53 7 -107q0 -84 -16 -136.5t-37 -52.5q-24 0 -49 154q-17 107 -29 159l-144 626q-6 24 -11 57t-5 50q0 56 38 111q35 51 61 51q24 0 49 -25.5t29 -61.5z" />
    <glyph glyph-name="sf308" unicode="&#x61f;" horiz-adv-x="882" 
d="M450 298q18 41 18 82q0 49 -22.5 86t-95.5 107q-67 65 -96 97.5t-53 71.5q-46 77 -46 165q0 147 95 252.5t227 105.5q65 0 122.5 -26.5t97.5 -75.5q27 -33 43.5 -75.5t16.5 -77.5q0 -76 -45.5 -133.5t-106.5 -57.5q-41 0 -69.5 29.5t-28.5 71.5q0 45 29 75.5t71 30.5
q28 0 58 -9q12 -3 19 -3q17 0 17 19q0 17 -15 45t-36 51q-60 67 -143 67q-84 0 -138 -60q-47 -54 -47 -138q0 -52 23 -108q15 -38 73 -131q69 -109 92.5 -170.5t23.5 -129.5q0 -83 -25 -165q0 -2 -2 -7zM571 88q0 -41 -29.5 -70.5t-70.5 -29.5q-42 0 -71.5 29.5t-29.5 71.5
t29.5 71t70.5 29q43 0 72 -29t29 -72z" />
    <glyph glyph-name="sf333" unicode="&#x61b;" horiz-adv-x="590" 
d="M415 88q0 -41 -29 -69.5t-69 -28.5q-41 0 -70 29t-29 70q0 40 29 69t69 29q42 0 70.5 -29t28.5 -70zM256 538q30 22 47.5 29.5t39.5 7.5q50 0 85 -38t35 -92q0 -58 -35.5 -93.5t-92.5 -35.5q-85 0 -148 86t-63 203q0 57 25 122.5t70 125.5q64 85 98 85q8 0 13.5 -5.5
t5.5 -14.5q0 -6 -5 -13t-28 -34q-42 -49 -65.5 -102.5t-23.5 -103.5q0 -31 11.5 -66t30.5 -61z" />
    <glyph glyph-name="sf272" unicode=":" horiz-adv-x="590" 
d="M388 784q0 -40 -28.5 -68.5t-69.5 -28.5t-69.5 28.5t-28.5 69.5t28.5 70t69.5 29t69.5 -29t28.5 -71zM388 88q0 -40 -29 -69t-70 -29t-69.5 29t-28.5 70q0 40 28.5 69t69.5 29t70 -29t29 -70z" />
    <glyph glyph-name="sf273" unicode="," horiz-adv-x="421" 
d="M346 10q5 -22 5 -46q0 -31 -9 -63q-15 -57 -46 -111t-73 -103t-85 -88q-14 -10 -27 -16q-10 -4 -16 -4h-3q-5 1 -5 6q0 2 1 4q2 9 19 30q22 28 45 54.5t42.5 54.5t34.5 58.5t21 67.5q1 9 1 20v12q-1 17 -6 33t-15 26.5t-28 10.5q-9 -6 -19.5 -22.5t-21.5 -34.5t-22.5 -32
t-21.5 -14q-11 1 -19.5 14t-15 29.5t-9.5 33.5q-2 13 -2 21v5q2 23 20 49t40 57q27 30 60 40q17 5 33 5q15 0 30 -4q31 -9 56 -33t36 -60z" />
    <glyph glyph-name="sf275" horiz-adv-x="645" 
d="M419 87q0 -41 -29.5 -70t-71.5 -29q-41 0 -70.5 29.5t-29.5 70.5q0 42 29.5 71.5t70.5 29.5q42 0 71.5 -29.5t29.5 -72.5zM291 279q0 109 -9 194l-6 49l-5 44q-1 11 -7 53l-7 43q-4 28 -15 92l-14 81q-22 132 -22 204q0 111 28.5 169.5t82.5 58.5t82.5 -58.5t28.5 -169.5
q0 -72 -23 -204l-14 -81q-10 -64 -14 -92l-7 -43q-6 -42 -7 -53l-5 -44l-6 -49q-9 -85 -9 -194h-52z" />
    <glyph glyph-name="sf257" unicode="%" horiz-adv-x="1024" 
d="M220 -132l561 1467l86 -34l-560 -1467zM939 52q0 -41 -29.5 -70.5t-70.5 -29.5q-42 0 -71.5 29.5t-29.5 71.5q0 41 29.5 70.5t70.5 29.5q43 0 72 -29.5t29 -71.5zM321 1135q0 -40 -29.5 -69.5t-70.5 -29.5q-42 0 -71.5 29.5t-29.5 71.5q0 41 29.5 70.5t70.5 29.5
q43 0 72 -29.5t29 -72.5z" />
    <glyph glyph-name="sf258.001" unicode="*" horiz-adv-x="1130" 
d="M483 522l-13 -11q-130 36 -205 92.5t-75 119.5q0 33 24.5 56.5t58.5 23.5q87 0 162 -147q39 -77 48 -134zM570 522q37 0 62.5 -28t25.5 -69q0 -38 -25 -63t-64 -25q-41 0 -67.5 26.5t-26.5 67.5q0 38 27.5 64.5t67.5 26.5zM559 554q-39 73 -60.5 138t-21.5 112
q0 57 23.5 88.5t67.5 31.5q43 0 66.5 -31.5t23.5 -88.5q0 -47 -21.5 -112t-60.5 -138h-17zM654 521q5 35 24.5 83t47.5 93q31 51 66 78t68 27q36 0 61.5 -23.5t25.5 -57.5q0 -83 -128 -151q-85 -46 -153 -59zM648 328l12 10q67 -13 153 -58q127 -69 127 -152
q0 -34 -25.5 -57.5t-60.5 -23.5q-34 0 -69 27.5t-66 77.5q-28 45 -47.5 94t-23.5 82zM486 330q-4 -33 -24 -81.5t-48 -94.5q-31 -49 -66 -76.5t-69 -27.5q-36 0 -61 23.5t-25 57.5q0 83 128 151q85 46 153 58zM557 296h17q39 -73 60.5 -138.5t21.5 -111.5q0 -58 -23.5 -89.5
t-67.5 -31.5q-43 0 -66.5 31.5t-23.5 89.5q0 46 21.5 111.5t60.5 138.5zM438 421q-73 -39 -138 -60.5t-112 -21.5q-57 0 -88.5 23.5t-31.5 66.5t31.5 67t88.5 24q47 0 112 -21.5t138 -60.5v-17zM692 432q73 39 138.5 60.5t111.5 21.5q58 0 89.5 -24t31.5 -67t-31.5 -66.5
t-89.5 -23.5q-46 0 -111.5 21.5t-138.5 60.5v17z" />
    <glyph glyph-name="sf258.001" unicode="&#x66d;" horiz-adv-x="1130" 
d="M483 522l-13 -11q-130 36 -205 92.5t-75 119.5q0 33 24.5 56.5t58.5 23.5q87 0 162 -147q39 -77 48 -134zM570 522q37 0 62.5 -28t25.5 -69q0 -38 -25 -63t-64 -25q-41 0 -67.5 26.5t-26.5 67.5q0 38 27.5 64.5t67.5 26.5zM559 554q-39 73 -60.5 138t-21.5 112
q0 57 23.5 88.5t67.5 31.5q43 0 66.5 -31.5t23.5 -88.5q0 -47 -21.5 -112t-60.5 -138h-17zM654 521q5 35 24.5 83t47.5 93q31 51 66 78t68 27q36 0 61.5 -23.5t25.5 -57.5q0 -83 -128 -151q-85 -46 -153 -59zM648 328l12 10q67 -13 153 -58q127 -69 127 -152
q0 -34 -25.5 -57.5t-60.5 -23.5q-34 0 -69 27.5t-66 77.5q-28 45 -47.5 94t-23.5 82zM486 330q-4 -33 -24 -81.5t-48 -94.5q-31 -49 -66 -76.5t-69 -27.5q-36 0 -61 23.5t-25 57.5q0 83 128 151q85 46 153 58zM557 296h17q39 -73 60.5 -138.5t21.5 -111.5q0 -58 -23.5 -89.5
t-67.5 -31.5q-43 0 -66.5 31.5t-23.5 89.5q0 46 21.5 111.5t60.5 138.5zM438 421q-73 -39 -138 -60.5t-112 -21.5q-57 0 -88.5 23.5t-31.5 66.5t31.5 67t88.5 24q47 0 112 -21.5t138 -60.5v-17zM692 432q73 39 138.5 60.5t111.5 21.5q58 0 89.5 -24t31.5 -67t-31.5 -66.5
t-89.5 -23.5q-46 0 -111.5 21.5t-138.5 60.5v17z" />
    <glyph glyph-name="sf259.001" unicode="@" horiz-adv-x="1325" 
d="M753 254q2 37 2.5 73.5t0.5 75.5q0 33 -0.5 66t-0.5 65v44q0 12 -0.5 23t-0.5 23v2q-3 25 -14 43.5t-27.5 30.5t-36.5 18.5t-41 6.5q-22 0 -43.5 -7t-38.5 -20.5t-27.5 -34t-11.5 -46.5v-43q0 -10 -0.5 -21t-0.5 -23q-1 -23 -1 -48v-141q0 -23 0.5 -43t1.5 -38
q1 -27 12 -47t28 -33.5t37.5 -20t41.5 -6.5t41.5 6.5t37.5 19t28 31.5t13 44zM1216 853q8 -17 14 -49t10.5 -75.5t6.5 -94.5t2 -107q0 -53 -2 -107.5t-6.5 -107t-11.5 -102t-16 -91.5q-14 -40 -33.5 -77t-46.5 -67.5t-61.5 -53t-79.5 -33.5q-24 -6 -54 -6q-32 0 -62.5 8.5
t-55.5 27t-43.5 46t-25.5 63.5l-3 4l-7 2l-4 -1q-32 -29 -72.5 -45t-83.5 -16q-64 0 -116 33q-30 17 -55 42.5t-43.5 56t-30.5 64.5t-16 69q-2 44 -2 85v169q0 41 1 83v58q4 45 19 87t41 77.5t61 62t78 39.5h1q15 6 30.5 8t31.5 2q45 0 87 -17t75 -48h5l7 4l2 3v17
q0 1 -0.5 4t-0.5 4v30h92q9 0 17.5 -0.5t17.5 -0.5h51q2 -67 2.5 -128.5t0.5 -126.5v-513q3 -51 28.5 -74.5t58.5 -23.5q21 0 41.5 8.5t38.5 24.5t31 39.5t17 53.5q11 82 16 168t5 175q0 128 -11 250v2q-10 48 -33.5 95.5t-57.5 86t-78 65.5t-97 35h-1q-26 0 -52 0.5
t-52 1.5h-49q-36 1 -71.5 1.5t-70.5 0.5q-50 0 -99 -1t-98 -6h-2q-48 -10 -85 -36t-65 -63t-48.5 -81.5t-33.5 -92.5q-10 -73 -13.5 -146.5t-3.5 -148.5q0 -56 1.5 -112t2.5 -111q1 -17 1 -33t1 -32q1 -15 1.5 -30.5t0.5 -30.5q3 -46 14.5 -97.5t34 -96t57.5 -77.5t86 -43h2
q111 -10 219 -17t219 -7q70 0 137 3.5t134 10.5q41 6 69.5 30t51.5 53q4 -2 8.5 -3t9.5 -3l12 -3v-1q13 -6 24.5 -10t16.5 -9q-13 -24 -31 -46.5t-40 -42t-48.5 -34t-56.5 -20.5q-14 -1 -28 -1q-13 0 -27 -1q-9 0 -17.5 -0.5t-17.5 -0.5q-14 -1 -27 -1t-28 -1
q-60 -1 -122.5 -2.5t-124.5 -1.5q-97 0 -193 5t-193 19q-60 22 -103 68t-71 105t-41.5 124t-14.5 125q2 30 2.5 61.5t0.5 64.5v118q0 13 -1 26q0 13 -1 26t-1 26q0 82 2.5 160.5t9.5 159.5q13 66 39.5 124t66.5 103.5t93 76t119 41.5q29 1 57.5 1.5t57.5 0.5q33 0 66.5 -0.5
t66.5 -1.5q17 0 33.5 -0.5t33.5 -0.5q49 0 98 -0.5t98 -0.5q56 -6 104 -31t86.5 -62.5t67.5 -84.5t46 -98z" />
    <glyph glyph-name="sf260.002" unicode="[" horiz-adv-x="678" 
d="M103 -144v1426h443v-94h-296v-1237h297v-95h-444z" />
    <glyph glyph-name="sf262.001" horiz-adv-x="1025" 
d="M119 431v93h787v-93h-787zM611 749q0 -40 -29 -68.5t-69 -28.5q-41 0 -70 28.5t-29 69.5t29 69.5t70 28.5t69.5 -28.5t28.5 -70.5zM611 204q0 -40 -29 -68.5t-69 -28.5q-41 0 -70 28.5t-29 69.5t29 70t70 29t69.5 -29t28.5 -71z" />
    <glyph glyph-name="sf263.001" unicode="$" horiz-adv-x="1025" 
d="M473 148v391q-136 77 -195.5 151t-59.5 167q0 121 78 212q34 40 74.5 63.5t102.5 37.5v89h94v-92q109 -18 178 -84l20 -180q-43 40 -90 64t-108 39v-338q127 -71 186 -152t59 -183q0 -57 -20.5 -115t-56.5 -102q-29 -36 -66 -61t-102 -53v-88h-94v72q-79 10 -129 29
t-119 66l-29 202q82 -64 142 -93.5t135 -41.5zM567 157q43 13 81 39q56 40 56 99q0 49 -41 102q-20 26 -36.5 40.5t-59.5 43.5v-324zM473 708v304q-61 -3 -104 -40.5t-43 -86.5q0 -42 29 -80t97 -83z" />
    <glyph glyph-name="sf264.001" unicode="=" horiz-adv-x="1025" 
d="M118 656h789v-91h-789v91zM118 386h789v-92h-789v92z" />
    <glyph glyph-name="sf268.002" unicode="-" horiz-adv-x="1025" 
d="M119 524h787v-96h-787v96z" />
    <glyph glyph-name="sf269.001" horiz-adv-x="1024" 
d="M515 551l346 346l66 -67l-348 -348l346 -347l-66 -66l-345 348l-351 -347l-66 66l349 348l-347 348l69 67z" />
    <glyph glyph-name="sf270.005" unicode="(" horiz-adv-x="677" 
d="M520 -156q-98 79 -160 144.5t-115 144.5q-138 207 -138 431q0 101 29.5 203.5t86.5 196.5q48 81 131 167t186 162l44 -40l-16 -18q-75 -84 -124 -155.5t-89 -152.5q-45 -92 -69 -185.5t-24 -176.5q0 -96 28 -207q20 -80 61.5 -165.5t95.5 -160.5q66 -91 120 -148z" />
    <glyph glyph-name="sf271.001" unicode="+" horiz-adv-x="1024" 
d="M559 525h347v-95h-347v-349h-95v349h-345v95h345v347l95 -1v-346z" />
    <glyph glyph-name="sf273.001" unicode="/" horiz-adv-x="1024" 
d="M486 -281l-90 28l506 1630l84 -30z" />
    <glyph glyph-name="sf274.001" unicode="&#x640;" horiz-adv-x="571" 
d="M581 128v-128h-597l1 128h596z" />
    <glyph glyph-name="sf274.001" unicode="&#x6d4;" horiz-adv-x="571" 
d="M581 128v-128h-597l1 128h596z" />
    <glyph glyph-name="sf264.002.24428116" unicode="#" horiz-adv-x="1422" 
d="M526 295l5 -5h294l5 5l26 290l-5 5h-296l-5 -5zM369 290l5 5l26 290l-5 5h-325v150h338l5 5l30 330l149 -14l-29 -316l5 -5h296l5 5l31 336l148 -13l-27 -323l5 -5h315v-150h-332l-5 -5l-22 -290l5 -5h354v-148h-368l-5 -5l-31 -343l-151 14l31 329l-5 5h-295l-5 -5
l-32 -352l-149 14l30 338l-6 5h-285v148h299z" />
    <glyph glyph-name="sf270.008" unicode=")" horiz-adv-x="677" 
d="M171 -155l-46 41q53 56 119 148q54 74 95.5 160t61.5 166q28 110 28 207q0 82 -24 176t-69 186q-40 81 -89 152t-124 156l-16 18l44 39q103 -76 186 -161.5t131 -166.5q57 -94 86.5 -197t29.5 -203q0 -224 -138 -432q-52 -78 -114.5 -143.5t-160.5 -145.5z" />
    <glyph glyph-name="sf260.003" unicode="]" horiz-adv-x="678" 
d="M574 -144h-443v95h297v1237h-296v94h442v-1426z" />
    <glyph glyph-name="a" unicode="a" horiz-adv-x="1001" 
d="M728 224q0 27 -1 53t-6 55q-5 38 -26.5 68.5t-52 51.5t-66.5 32t-71 11q-37 0 -70.5 -12.5t-61.5 -33.5t-50 -49.5t-35 -61.5q-9 -22 -12.5 -48t-3.5 -55q0 -34 4 -65t11 -56q10 -35 31.5 -64t50 -50t63 -32.5t70.5 -11.5q39 0 76 11t67.5 33t51.5 54t29 73v11
q1 22 1.5 43t0.5 43zM469 669q52 0 100 -17t86 -52l8 -8v-1q2 -2 2.5 -3t2.5 -3q11 -11 22.5 -22t16.5 -13l5 1l13 9l2 4v105h174v-888h-174v101l-3 5l-18 7l-6 -2q-41 -50 -95 -80.5t-120 -30.5q-68 0 -129.5 24.5t-111.5 66.5t-85.5 98.5t-50.5 120.5v2q-2 6 -3.5 18
t-2.5 35.5t-1.5 62t-0.5 98.5q0 69 32 134t84.5 115.5t118.5 81.5t134 31z" />
    <glyph glyph-name="b" unicode="b" horiz-adv-x="1000" 
d="M273 227q0 -26 1 -53t6 -54q6 -39 27 -69.5t51 -51.5t66 -32t72 -11q37 0 70.5 12t62 33.5t50 50t34.5 61.5q9 21 12.5 48t3.5 56q0 33 -4 64t-11 56q-10 36 -31 65t-49.5 49.5t-62.5 32t-70 11.5q-39 0 -76.5 -11.5t-68.5 -33t-52.5 -53.5t-28.5 -73v-17
q-1 -20 -1.5 -40t-0.5 -40zM532 -219q-105 0 -188 69l-10 11v1l-1 1l-8 8l-5 4q-9 10 -17 18t-15 8l-4 -2l-10 -11l-1 -3v-104h-173v1362h173v-575l3 -5l18 -6l6 2q41 50 95.5 80.5t120.5 30.5q68 0 129.5 -25t111.5 -68t85.5 -100t52.5 -121q1 -5 1.5 -16t1.5 -34.5
t1.5 -62.5t0.5 -100q0 -69 -32 -134t-84 -115.5t-118 -81.5t-134 -31z" />
    <glyph glyph-name="c" unicode="c" horiz-adv-x="950" 
d="M75 228q0 53 7 102.5t27 97.5q23 55 62 100t88 76t106 48t117 17q71 0 138.5 -20.5t122 -59.5t91.5 -94.5t46 -124.5h-186q-26 59 -82.5 93t-123.5 34h-8q-35 -1 -69.5 -12.5t-64 -32t-51 -49.5t-30.5 -65q-6 -25 -10 -54t-4 -61q0 -59 14 -104l5 -4h-3q12 -36 33 -66
t49.5 -51t63.5 -33t74 -12q63 0 116.5 25t76.5 82l185 -1q-11 -59 -41.5 -108t-74.5 -85.5t-99.5 -58.5t-116.5 -26q-37 0 -63 1.5t-43.5 3t-27.5 3.5t-14 3q-50 12 -96 37.5t-84.5 61t-67 79.5t-41.5 94q-12 44 -16.5 83t-4.5 81z" />
    <glyph glyph-name="sf256.002" unicode="d" horiz-adv-x="953" 
d="M484 -44q36 0 72 11t66.5 32t51.5 51t26 69q5 28 6 55t1 53q0 20 -0.5 40t-1.5 40v17q-7 41 -28.5 73t-52.5 53.5t-68 33t-75 11.5q-36 0 -70.5 -11.5t-63 -32.5t-50 -50t-31.5 -64q-7 -25 -11 -56t-4 -64q0 -29 3.5 -56t12.5 -48q13 -33 35 -61.5t50 -50t61.5 -33.5
t70.5 -12zM448 -219q-68 0 -134 31t-118 81.5t-84 115.5t-32 134v100q0 80 28.5 157t79.5 137t121.5 96.5t154.5 36.5q66 0 120 -30t96 -81l6 -2l18 6l3 5v575h173v-1362h-173v104l-1 3l-10 11l-4 2q-26 -26 -53.5 -48t-57.5 -38.5t-63 -25.5q-30 -8 -63 -8h-7z" />
    <glyph glyph-name="e" unicode="e" horiz-adv-x="985" 
d="M481 500q-37 0 -73.5 -12.5t-66 -35t-50 -54t-25.5 -69.5l1 -4l10 -12l4 -2h404l4 2l10 11l1 3q0 43 -19.5 75.5t-50 54.5t-69 32.5t-75.5 10.5h-5zM82 239q0 42 4 81t18 77h-3l5 4q18 60 56 110.5t88.5 86.5t110.5 56t123 20q118 0 214 -55t154 -160q11 -21 22 -50.5
t11 -54.5v-155h-617q0 -47 16.5 -91t46.5 -78t71.5 -54t92.5 -20q68 0 120 16t89 68h168q-13 -63 -49.5 -111.5t-88.5 -81t-115 -49.5t-128 -17q-64 0 -124 19.5t-110 54.5t-88.5 85t-59.5 111v1q-17 45 -22 92t-5 95z" />
    <glyph glyph-name="f" unicode="f" horiz-adv-x="647" 
d="M40 551v124h165l4 2l10 11l1 3v10q0 2 0.5 5t0.5 6q2 54 6.5 106t23.5 105q78 208 301 208h9q8 0 19 0.5t22.5 1.5t19.5 2v-176q-12 5 -33 6.5t-45 1.5q-29 0 -55 -15t-45.5 -38t-31 -52t-11.5 -57v-114l1 -3l10 -11l4 -2h206v-124h-221v-770h-176l-1 770h-184z" />
    <glyph glyph-name="g" unicode="g" horiz-adv-x="924" 
d="M661 330q-5 39 -26.5 69.5t-52 51.5t-67 32t-70.5 11q-36 0 -70 -12.5t-62.5 -33.5t-50.5 -49.5t-35 -60.5q-9 -22 -12.5 -48t-3.5 -55q0 -34 4 -65.5t11 -56.5q10 -35 31.5 -64t50 -50t63 -32.5t70.5 -11.5q39 0 76.5 11t67.5 33t51.5 54t29.5 73v11q1 21 1.5 41.5
t0.5 40.5q0 29 -1.5 55t-5.5 56zM408 668h13q56 0 103 -24q51 -27 94 -70q8 -10 17 -17.5t17 -7.5l4 1l10 10l1 4v104h174l3 -1021v-1q0 -68 -37 -129t-94.5 -108t-128 -74.5t-137.5 -27.5q-68 0 -133.5 21.5t-119 60.5t-91 93t-49.5 119h182q10 -32 33 -54.5t52.5 -37
t63.5 -21t67 -6.5h22q36 7 71 23.5t62.5 41.5t44 58t16.5 74l-1 202l-3 5l-18 7l-6 -2q-42 -51 -96 -81t-120 -30q-67 0 -128.5 24.5t-111.5 66.5t-85.5 98.5t-50.5 120.5l-1 3l-1 1q-3 7 -4.5 30t-1.5 82v100q0 69 32 134.5t84 116t118 81t134 30.5z" />
    <glyph glyph-name="h" unicode="h" horiz-adv-x="989" 
d="M280 558l4 -5l19 -5l5 2q32 55 88 84t117 29q64 0 125.5 -21.5t113 -59.5t89 -91t54.5 -116q10 -40 12 -75t2 -76v-442h-179v497q0 43 -19 81t-50.5 66.5t-71 45.5t-79.5 17q-39 0 -79.5 -15.5t-73.5 -42.5t-54 -64.5t-21 -82.5v-503l-179 1l-1 1364h178v-588z" />
    <glyph glyph-name="i" unicode="i" horiz-adv-x="407" 
d="M102 943q0 23 9 43t24 34.5t35.5 22.5t43.5 8t43.5 -8t36 -22.5t24.5 -34t9 -42.5t-9 -43.5t-24 -35.5t-35 -24t-43 -9q-24 0 -44.5 8.5t-36 23.5t-24.5 35.5t-9 43.5zM303 680l1 -899h-174v899h173z" />
    <glyph glyph-name="j" unicode="j" horiz-adv-x="551" 
d="M217 945q1 24 11.5 43.5t27 33.5t37.5 22t44 8q22 0 43 -8.5t36.5 -23.5t25 -35t9.5 -43q0 -24 -9 -43.5t-24.5 -34t-36 -22.5t-43.5 -8t-44.5 7.5t-38.5 21.5t-27.5 33.5t-10.5 43.5v5zM19 -689q-37 0 -71 5t-60 19q17 30 33.5 58t29 49t19.5 34l7 12q9 0 23 -2t26 -2
q38 0 74.5 12t66.5 34.5t51.5 54.5t30.5 71v3q-1 120 -1.5 246t-0.5 244q0 138 -0.5 268t-1.5 269h183v-988q-3 -80 -36.5 -150t-88.5 -123t-128.5 -83.5t-155.5 -30.5z" />
    <glyph glyph-name="k" unicode="k" horiz-adv-x="939" 
d="M274 1145l3 -775l3 -5l18 -8l6 3l401 469h171l-413 -517l-1 -3v-12l1 -3l407 -513h-183l-384 447l-6 2l-18 -7l-3 -5l-2 -437l-173 1l-1 1364z" />
    <glyph glyph-name="l" unicode="l" horiz-adv-x="375" 
d="M100 1146h175v-1365h-175v1365z" />
    <glyph glyph-name="m" unicode="m" horiz-adv-x="1516" 
d="M100 659h172v-125l3 -5l18 -6l6 2q42 59 93.5 94t126.5 35q42 0 83.5 -14t77.5 -38t65 -57t47 -71l5 -3l18 -1l4 3q21 37 47.5 70.5t59.5 59t72.5 40t85.5 14.5q68 0 126 -29.5t101.5 -77.5t70 -109t32.5 -125q1 -34 1.5 -67.5t0.5 -68.5v-399h-173v507q0 41 -16.5 77.5
t-44.5 64t-65.5 43.5t-78.5 16q-37 0 -72 -15t-62.5 -40.5t-44 -59.5t-16.5 -72v-520l-170 -1v524q0 39 -18.5 72t-47.5 57t-65 37.5t-72 13.5q-34 0 -69 -13t-63.5 -36t-47 -55.5t-18.5 -71.5v-528h-172v878z" />
    <glyph glyph-name="n" unicode="n" horiz-adv-x="999" 
d="M275 669v-104l4 -5l19 -5l5 3q31 54 83.5 82.5t114.5 28.5q78 0 146 -28t120.5 -76.5t86 -115t43.5 -143.5q1 -36 1.5 -74t0.5 -80v-371h-173l-2 523v3q-8 39 -29 73.5t-51.5 60t-68 40t-78.5 14.5q-40 0 -80 -16t-71.5 -43.5t-51 -65.5t-19.5 -82l-1 -507h-174v888h175z
" />
    <glyph glyph-name="o" unicode="o" horiz-adv-x="971" 
d="M704 339q-11 36 -33 65.5t-51 50.5t-64 32.5t-72 11.5q-59 0 -101.5 -23.5t-71 -61.5t-42 -86.5t-13.5 -99.5q0 -36 6 -69q6 -44 24 -81.5t46.5 -64.5t67 -42t85.5 -15q60 0 103.5 23t72.5 61.5t43 88.5t14 103q0 29 -3.5 55t-10.5 52zM80 227q0 48 6.5 95t23.5 92
q22 58 60 106t86.5 82t107 53t121.5 19q76 0 147 -28.5t126.5 -78t91 -117.5t40.5 -146q1 -8 1 -16v-48q0 -44 -4 -87.5t-16 -90.5q-17 -61 -55.5 -112.5t-91.5 -89t-115 -58.5t-125 -21q-64 0 -123 19t-109 54.5t-88 86t-59 112.5q-14 42 -19.5 85t-5.5 89z" />
    <glyph glyph-name="q" unicode="q" horiz-adv-x="970" 
d="M690 330q-5 39 -26.5 69.5t-52 51.5t-67 32t-71.5 11q-36 0 -70 -12.5t-62.5 -33.5t-50 -49.5t-34.5 -60.5q-9 -22 -12.5 -48.5t-3.5 -55.5q0 -33 4 -64.5t11 -55.5q9 -36 30.5 -65.5t50 -50t63.5 -32t71 -11.5q39 0 76 11.5t68 33.5t52 54t29 73v11q1 21 1.5 41.5
t0.5 40.5q0 29 -1.5 54.5t-5.5 55.5zM437 669q52 0 98.5 -18t88.5 -53l11 -11q3 -3 6 -6.5t6 -6.5q8 -10 17 -17.5t17 -7.5l4 1l10 10l1 4v105h173l1 -1362h-174v575l-3 5l-18 7l-6 -2q-41 -50 -95.5 -81t-120.5 -31q-68 0 -129.5 25t-111 67.5t-85 99t-51.5 120.5l-5 4h2
q-1 4 -2 14.5t-1.5 34t-0.5 62.5v99q0 70 32 135t84 115t118 81t134 32z" />
    <glyph glyph-name="p" unicode="p" horiz-adv-x="1001" 
d="M497 495q-35 0 -71.5 -11t-67 -32t-52 -51.5t-26.5 -69.5q-5 -28 -6 -54t-1 -53q0 -22 0.5 -43t1.5 -43v-11q7 -41 28.5 -73t52.5 -54t68.5 -33t76.5 -11q36 0 70.5 11t63 32t49.5 50t31 65q7 25 11 56t4 65q0 29 -3.5 55.5t-12.5 48.5q-13 32 -34.5 60.5t-50 49.5
t-62.5 33.5t-70 12.5zM533 669q68 0 134 -30.5t118 -81t84 -116t32 -134.5q0 -62 -0.5 -100.5t-1.5 -62t-2 -34t-2 -16.5q-17 -64 -52.5 -121t-85 -100t-111 -68t-129.5 -25q-66 0 -120.5 31t-95.5 81l-6 2l-18 -7l-3 -5v-575h-174l1 1362h173v-105l3 -5l17 -7l6 1l14 14
l11 11l11 11q3 3 4.5 5.5t3.5 4.5q42 35 89.5 52.5t99.5 17.5z" />
    <glyph glyph-name="r" unicode="r" horiz-adv-x="767" 
d="M661 472q-74 -6 -143 -28t-122 -62.5t-85 -102t-32 -146.5v-352h-178l-1 896h180l-1 -243l4 -5l19 -5l5 2q33 55 77.5 98t96 73.5t109 49.5t117.5 27z" />
    <glyph glyph-name="s" unicode="s" horiz-adv-x="848" 
d="M61 71q19 0 45 0.5t53 1t51 0.5h40q9 -39 36.5 -67t64.5 -43.5t79 -17.5q7 -1 15 -1q34 0 64 10q37 11 65.5 37t38.5 67q0 20 -11.5 35t-28.5 27q-53 23 -109.5 34.5t-113 22t-111.5 25.5t-106 45q-31 21 -47.5 54t-20.5 70q-1 11 -1 22q0 26 7 53q9 37 31 66
q25 40 59.5 70.5t75 51t86 31t92.5 10.5q51 0 100.5 -12t93.5 -35.5t80.5 -58t62.5 -78.5q13 -24 24.5 -49.5t13.5 -54.5q-14 0 -38.5 -0.5t-52.5 -0.5h-97q-9 40 -37 67.5t-65.5 43t-79.5 17.5h-9q-37 0 -70 -11q-38 -13 -66.5 -40t-37.5 -70q0 -22 15 -36.5t35 -22.5
q53 -17 111 -28t115 -25.5t110 -38t95 -65.5q22 -24 37 -52.5t23 -63.5v-14q0 -55 -27 -101q-32 -53 -82 -89.5t-112 -55.5q-56 -18 -108 -18h-11q-56 0 -109.5 14t-100 41.5t-83.5 67.5t-60 91l-15 35t-9 39z" />
    <glyph glyph-name="t" unicode="t" horiz-adv-x="749" 
d="M437 -193q-50 26 -84 70t-52.5 101.5t-24.5 120.5q-1 63 -1.5 124.5t-0.5 124.5t-0.5 122t-2.5 125h-211v125h198l4 1l10 10l1 4v225l179 1v-224l1 -4l10 -10l4 -1h216v-127h-230l-1 -450q0 -46 10 -83t31.5 -63.5t56 -41t82.5 -14.5q21 0 33 2t23 4l1 -139
q-33 -11 -66 -20t-67 -9q-69 0 -119 26z" />
    <glyph glyph-name="u" unicode="u" horiz-adv-x="998" 
d="M723 -219l1 103l-3 5l-19 6l-6 -2q-31 -52 -83 -82t-112 -30h-4q-78 0 -146 28t-120 77t-85.5 115t-43.5 143q0 15 -0.5 31t-1 35t-0.5 42v417l173 -1l1 -522v-3q8 -39 29 -73t52 -59.5t68.5 -40t78.5 -14.5t80.5 16t71 43.5t50.5 65t19 81.5l1 506h174v-887h-175z" />
    <glyph glyph-name="v" unicode="v" horiz-adv-x="1007" 
d="M236.5 -3q-34.5 30 -63.5 60.5t-49 59.5t-21 52q-2 83 -2.5 129t-0.5 75v96q0 8 0.5 16t0.5 18v104q0 14 0.5 28t0.5 35h177l2 -406v-1q0 -23 13 -45.5t34 -44.5t47 -43.5t52 -42.5q5 -5 11 -9t11 -9q11 -9 22 -17.5t22 -19.5l4 -1h15l3 1q11 10 25 21l28 22q5 4 9.5 7
t9.5 7q27 21 53 41.5t46.5 42t33 43.5t12.5 46v164q0 8 -0.5 14.5t-0.5 13.5v216h176v-482q0 -19 -10 -42t-32.5 -51.5t-59 -65t-88.5 -82.5q-30 -24 -55 -43.5t-45 -35.5q-6 -5 -12 -9.5t-11 -8.5q-44 -33 -62.5 -47t-24.5 -19q-6 4 -19 14t-37 28.5t-60.5 46.5t-88.5 69
q-31 25 -65.5 55z" />
    <glyph glyph-name="w" unicode="w" horiz-adv-x="1532" 
d="M853 667q1 -14 1 -25v-183q0 -15 0.5 -31t0.5 -32q0 -17 -0.5 -33t-0.5 -32v-207q13 -80 65.5 -123.5t128.5 -45.5h4q37 0 70.5 13t60 36.5t44 55t22.5 68.5v2l1 537h181q1 -63 1 -120v-122q0 -130 -3 -257q-1 -40 -8.5 -79.5t-23.5 -79.5q-20 -47 -53 -88.5t-75 -72.5
t-90.5 -48.5t-99.5 -17.5h-9q-53 1 -93.5 16t-74 39.5t-62.5 58.5t-58 75l-10 5h-14l-4 -1l-3 -3v-1q-29 -41 -58 -75.5t-62.5 -59.5t-74.5 -39.5t-95 -15.5h-6q-51 0 -100 18t-91.5 49t-75.5 72.5t-52 88.5q-32 79 -33 159q-3 129 -3 257v121q0 57 1 121h182v-539
q5 -37 22.5 -68.5t44 -55t60 -36.5t70.5 -13h4q77 2 129 45.5t65 122.5v475q0 20 0.5 33t1 21t0.5 15h173z" />
    <glyph glyph-name="x" unicode="x" horiz-adv-x="978" 
d="M278 206v16l-212 134v306h182v-212l6 -9l211 -129l12 1l192 129l4 8v212h186v-305l-224 -134v-17l225 -140v-284l-187 -1v196l-4 8l-201 149h-13l-202 -149l-5 -8v-196h-182v291z" />
    <glyph glyph-name="y" unicode="y" horiz-adv-x="969" 
d="M41 -473q8 -1 16 -1q26 0 50 10q32 12 66.5 48.5t72.5 101t83 165.5l-284 810h188l206 -626l280 626h183q-92 -198 -163 -350t-125 -266.5t-92 -195.5t-64.5 -136t-43 -88.5t-26.5 -53.5t-15 -29.5t-9 -17.5q-22 -42 -59.5 -76t-82.5 -56t-92 -30q-24 -5 -45 -5
q-23 0 -44 5v165z" />
    <glyph glyph-name="z" unicode="z" horiz-adv-x="1028" 
d="M107 493l1 178h630q55 0 91.5 -11.5t58.5 -30t31 -41t9 -44.5q0 -26 -7 -47t-17 -32l-591 -479l-2 -6l6 -18l5 -3l599 2l-1 -183l-654 3q-46 1 -77.5 10t-51 24.5t-28.5 35.5t-9 43q0 26 9 54t24 55t35.5 51t43.5 42l471 371l2 6l-6 18l-5 3z" />
    <glyph glyph-name="A" unicode="A" horiz-adv-x="1016" 
d="M504 983q-48 0 -88 -21t-69 -50t-45 -59t-16 -47v-290l10 -10h423l10 10v291q0 23 -18 53.5t-48.5 57.5t-71.5 46t-87 19zM100 798q7 77 43.5 144.5t93 117.5t127.5 79t147 29q77 0 146.5 -27t124 -75.5t89.5 -115t43 -144.5q0 -91 0.5 -176.5t0.5 -171.5q0 -69 0.5 -137
t0.5 -137q0 -97 -0.5 -199t-1.5 -203l-185 -1v534l-10 10h-423l-10 -10v-531l-186 -1v1015z" />
    <glyph glyph-name="B" unicode="B" horiz-adv-x="1059" 
d="M286 540l9 -11q7 -1 19.5 -1.5t29.5 -0.5h72q39 0 73.5 1t51.5 2h1q40 3 75 22t60.5 48.5t40 66.5t14.5 78q-2 75 -31.5 118t-77 64.5t-107 27.5t-121.5 6h-101l-10 -10zM288 -20l9 -10q26 -4 55.5 -6.5t62.5 -2.5q60 0 123 10t115 35.5t85 69.5t35 112v6q0 70 -27 113.5
t-71.5 66.5t-102 31t-119.5 8q-29 0 -59.5 -1t-59.5 -3q-10 -1 -19 -1.5t-18 -0.5l-10 -10zM781 487q83 -53 130.5 -128t47.5 -175v-3q-1 -79 -32.5 -149t-84 -123.5t-122.5 -86t-148 -36.5l-472 -1l3 1364q108 0 187.5 -0.5t136.5 -2t95.5 -4t65 -5.5t44 -7.5t33.5 -10.5h1
q56 -21 102.5 -59t79.5 -87t51.5 -105.5t18.5 -113.5q0 -73 -32.5 -138.5t-104.5 -112.5v-16z" />
    <glyph glyph-name="C" unicode="C" horiz-adv-x="1015" 
d="M501 982q-43 0 -81 -16.5t-67 -44.5t-47.5 -65t-22.5 -78v-616q0 -18 15 -51t43.5 -65.5t69.5 -56t94 -23.5h7q37 0 73 13t65.5 35.5t50 54t28.5 69.5v1q3 22 5 50.5t2 54.5v5h179v-106q0 -22 -4 -46t-10 -43q-21 -62 -60.5 -112t-91.5 -85t-113.5 -54.5t-125.5 -19.5
q-83 0 -155.5 29.5t-127.5 81.5t-88.5 122.5t-38.5 151.5v592q0 23 1 45.5t7 45.5q16 69 53 127t89.5 100.5t117 66t136.5 23.5q69 0 130 -21t111.5 -58.5t88.5 -90.5t62 -116q11 -32 13.5 -66t2.5 -68v-24h-186q-1 2 -1 14q0 22 -1.5 38t-4.5 42v1q-9 37 -30 67t-50.5 51.5
t-65 33t-72.5 11.5z" />
    <glyph glyph-name="D" unicode="D" horiz-adv-x="1038" 
d="M907 335q0 -88 -1 -178q-4 -69 -33 -128.5t-75.5 -106t-107 -78t-126.5 -42.5q-44 -8 -101 -10.5t-120 -2.5q-38 0 -75 0.5t-72 1.5q-29 1 -50 1.5t-46 0.5l1 1351q22 1 38 1h39q48 0 96.5 -0.5t96.5 -1.5q46 -1 90 -1.5t87 -0.5q70 -10 132 -42t110 -80.5t78 -110.5
t38 -132q1 -66 1 -131v-310zM719 778q-6 32 -23 64t-42.5 58t-58 42t-68.5 17h-232l-10 -10l1 -963l10 -11h39q27 0 58 1q29 0 55.5 0.5t37.5 0.5h2q48 0 89 13.5t71.5 40t49.5 64.5t23 88v163q0 108 -0.5 213t-1.5 217v2z" />
    <glyph glyph-name="E" unicode="E" horiz-adv-x="1003" 
d="M287 544l10 -11h536v-180h-536l-10 -10v-368l10 -10h606v-182h-803v1365h803v-180l-606 1l-10 -11v-414z" />
    <glyph glyph-name="F" unicode="F" horiz-adv-x="1005" 
d="M905 961h-610l-10 -10l1 -406l10 -11h539v-181h-540l-10 -10v-560h-185v1365h805v-187z" />
    <glyph glyph-name="G" unicode="G" horiz-adv-x="1013" 
d="M715 -105q-20 -22 -44 -42.5t-50 -36t-54 -24.5t-56 -9q-83 0 -155 29.5t-127 81.5t-89 122.5t-40 151.5v582q0 26 1 50.5t7 50.5q16 69 53.5 127.5t90 100.5t117 65.5t135.5 23.5q70 0 131 -21t111 -58.5t88.5 -90.5t62.5 -116q11 -34 13.5 -70t2.5 -72v-16h-185l-8 94
v1q-9 37 -30 67t-51 51.5t-65.5 33t-72.5 11.5q-44 0 -81.5 -16.5t-66 -44.5t-46.5 -65t-23 -78v-616q0 -19 14.5 -51t42 -63.5t67 -55.5t89.5 -26h1q46 3 84 23t65.5 52.5t42.5 73.5t15 86q0 11 -1 22.5t-3 22.5l-10 9h-102q-1 11 -1.5 26t-0.5 35v65h326v-598h-129
l-10 166l-3 6l-1 1l-7 3l-11 -13q-11 -13 -21 -27h-1q-5 -9 -9.5 -16t-6.5 -9z" />
    <glyph glyph-name="H" unicode="H" horiz-adv-x="1016" 
d="M298 366l-10 -10v-573h-187l-1 1366h188v-588l10 -10h419l10 10v588h189v-1367l-189 1v573l-10 10h-419z" />
    <glyph glyph-name="I" unicode="I" horiz-adv-x="428" 
d="M125 1148h183v-1365h-183v1365z" />
    <glyph glyph-name="J" unicode="J" horiz-adv-x="853" 
d="M289 167v-81q1 -30 13 -53.5t30.5 -39t42 -23.5t47.5 -8q26 0 51.5 9t45.5 27t32.5 44t12.5 61v1045h189v-1074q-2 -63 -30 -116.5t-73 -92.5t-103 -60.5t-118 -21.5h-7q-58 0 -114 17.5t-101 52t-74 86.5t-32 121v107h188z" />
    <glyph glyph-name="K" unicode="K" horiz-adv-x="1018" 
d="M697 1148h220l-401 -681v-11l402 -673h-226l-385 614l-18 -6v-608h-189v1365h188v-625l19 -5z" />
    <glyph glyph-name="L" unicode="L" horiz-adv-x="930" 
d="M287 1148v-1169l10 -10h561l2 -186h-760v1365h187z" />
    <glyph glyph-name="M" unicode="M" horiz-adv-x="1200" 
d="M911 1148h188l1 -1365h-185v746l-19 3l-276 -750l-53 -1l-263 751l-19 -3l1 -746h-186l1 1365h188l293 -855h18z" />
    <glyph glyph-name="N" unicode="N" horiz-adv-x="1038" 
d="M752 1149h186l-2 -1366h-188l-445 904l-19 -4l2 -901l-186 1v1366h190l442 -903l20 4v899z" />
    <glyph glyph-name="O" unicode="O" horiz-adv-x="1006" 
d="M285 184q3 -46 19 -85.5t43.5 -69t66 -46.5t86.5 -17q40 0 77.5 14t68 39.5t51 60.5t25.5 76v139q0 42 0.5 84.5t0.5 84.5v47q0 26 -0.5 51.5t-0.5 49.5v168q-2 38 -17.5 71.5t-41 60t-59 44t-70.5 23.5q-8 1 -15 1.5t-15 0.5q-45 0 -84 -16t-68 -43.5t-46 -65.5t-19 -82
q-2 -42 -3 -92.5t-1 -106.5v-52q0 -27 0.5 -55.5t0.5 -57.5v-53q1 -45 1 -89v-84zM100 353q0 109 0.5 220.5t2.5 221.5q7 76 41.5 144t88.5 119t123.5 80.5t145.5 29.5q86 0 160 -33t128 -89.5t85 -132t31 -159.5v-309q0 -30 -0.5 -60.5t-0.5 -59.5v-172
q-5 -80 -40.5 -147.5t-91.5 -117t-127.5 -77.5t-148.5 -28q-82 0 -154 31.5t-126 85.5t-85.5 127t-31.5 156v170z" />
    <glyph glyph-name="P" unicode="P" horiz-adv-x="1000" 
d="M291 549l8 -10q14 -3 49 -3.5t73 -0.5q39 0 73 1.5t50 2.5h1q40 3 75 22t60.5 48t40 66t14.5 78q0 75 -29 118.5t-76.5 65.5t-107.5 28t-123 6h-98l-10 -11v-411zM323 1149q61 0 121 -0.5t123 -2.5q76 -11 140.5 -45t112 -86.5t74 -120.5t26.5 -146q0 -69 -23.5 -131
t-65 -112.5t-98 -87t-121.5 -55.5q-23 -7 -58.5 -9t-73.5 -2q-16 0 -31.5 0.5t-30.5 0.5q-16 0 -31 0.5t-29 0.5q-21 0 -37 -1t-24 -3l-7 -10q0 -23 0.5 -45.5t0.5 -45.5q0 -60 0.5 -119t0.5 -119t-0.5 -114t-1.5 -113h-190v670q0 54 0.5 107.5t0.5 106.5v482h222z" />
    <glyph glyph-name="Q" unicode="Q" horiz-adv-x="1031" 
d="M287 176q6 -42 24 -79.5t46 -65t65 -44t82 -16.5h19q9 0 19.5 1t20 3.5t15.5 6.5t6 11l-1 5q-15 30 -36 46.5t-44.5 25.5t-49.5 11.5t-51 3.5v-2l-1 -3v1q0 13 16 21.5t37 13.5t41.5 7t30.5 2h4q43 0 75 -16.5t62 -46.5l1 -1l7 -3q8 0 17 14.5t16.5 33.5t12 37t4.5 25
q3 76 4 150t1 149q0 45 -0.5 100t-0.5 101q0 24 -0.5 48.5t-0.5 48.5q0 46 -17.5 86.5t-47.5 71t-70.5 48t-86.5 17.5h-5q-52 -2 -92.5 -22.5t-68 -54.5t-41.5 -78.5t-14 -93.5v-53q0 -24 0.5 -53t0.5 -61v-370q0 -15 1 -26zM684 -175q-5 -2 -8.5 -3t-7.5 -3
q-38 -14 -74.5 -24t-80.5 -11h-9q-84 0 -156 32t-126 87.5t-86 129t-34 156.5v1q-1 11 -1 28v296q0 20 -0.5 40t-0.5 38v201q4 78 38 145.5t87.5 118t122.5 80.5t145 32h10q77 0 146 -26t123 -72.5t90 -111t48 -141.5q1 -29 2 -78.5t1.5 -108t1 -121.5t0.5 -120t-0.5 -106
t-1.5 -81q-2 -48 -11.5 -94t-26 -87t-38.5 -74.5t-49 -55.5l-4 -8v-2l3 -7q14 -12 32 -17.5t36 -5.5h5q19 0 34.5 9t27 23t20 29.5t15.5 29.5l13 26q3 0 5.5 -9t3.5 -21t1.5 -23t0.5 -15v-9q0 -32 -9 -62t-26.5 -53t-43 -37.5t-59.5 -15.5q-24 0 -44.5 8t-37.5 21t-32 30.5
t-28 35.5l-1 1q1 -2 1 -6l-11 12h-2z" />
    <glyph glyph-name="R" unicode="R" horiz-adv-x="1032" 
d="M286 545l8 -11q13 -2 48 -2.5t75 -0.5q39 0 74 1t51 2h1q39 4 72.5 22.5t57.5 46.5t38 64t14 75v6q0 75 -28.5 118.5t-74.5 65t-105.5 27.5t-120.5 6h-100l-10 -10v-410zM847 -219q-15 0 -30 0.5t-29 1.5q-28 23 -43.5 53.5t-23 65.5t-9.5 72.5t-3 74.5q0 8 -0.5 15
t-0.5 14q-2 63 -7 110.5t-24.5 80.5t-59.5 52.5t-112 25.5h-163q-11 0 -22.5 -0.5t-23.5 -1.5l-9 -10v-550h-187v1363q105 0 181 -0.5t129 -1.5t86.5 -2t54.5 -2.5t33.5 -3.5t22.5 -4q69 -17 128 -49.5t102.5 -79.5t68 -108t24.5 -134q0 -105 -55 -187q-53 -83 -149 -126
l-1 -18q63 -38 105 -92.5t46 -127.5v-1q2 -37 3 -72t3 -72l3 -66v-1q9 -63 20.5 -116t26.5 -101q-13 0 -19.5 -0.5t-20.5 -0.5q-11 0 -22.5 -0.5t-22.5 -0.5z" />
    <glyph glyph-name="S" unicode="S" horiz-adv-x="1020" 
d="M283 229v-20q0 -36 16 -78t46 -77.5t74 -59.5t100 -24q27 0 57 6q31 7 57 21.5t45.5 35.5t30.5 48t11 60q0 47 -20 79.5t-54 64.5l-1 1q-5 4 -17 12t-45.5 27t-96.5 53.5t-169 91.5q-43 22 -82.5 55.5t-69.5 74t-47.5 87.5t-17.5 97q0 79 34.5 149t91 122t129.5 82.5
t150 30.5q69 0 134.5 -23t119.5 -64t93 -97.5t56 -124.5q9 -37 10.5 -69.5t1.5 -64.5h-186v22q0 47 -17.5 90t-48.5 75.5t-73 51.5t-91 19q-35 0 -73 -14t-70.5 -38.5t-53.5 -57.5t-21 -71q0 -44 46 -101t154 -125l1 -1q11 -5 22 -11t22 -11q45 -23 91 -47t88.5 -51.5
t80 -59.5t65 -71t43.5 -85.5t16 -102.5q0 -81 -35 -146t-92 -111t-130 -70.5t-148 -24.5q-63 0 -123 19t-111 54t-90.5 84t-60.5 108l-8.5 25.5t-8 33.5t-6 49t-2.5 72h183z" />
    <glyph glyph-name="T" unicode="T" horiz-adv-x="996" 
d="M100 969v179h796v-178h-296l-10 -11v-1176h-185v1175l-10 11h-295z" />
    <glyph glyph-name="U" unicode="U" horiz-adv-x="1009" 
d="M100 1148h187q0 -85 -0.5 -162t-0.5 -160q0 -69 -0.5 -136.5t-0.5 -135.5q0 -97 0.5 -192.5t1.5 -193.5v-1q6 -42 24.5 -78t46.5 -63t64.5 -42t78.5 -15q43 0 83 15.5t71 43t50.5 65t20.5 82.5q1 94 1.5 193.5t0.5 202.5q0 72 -0.5 144t-0.5 142q0 80 -0.5 150.5
t-0.5 140.5h183v-793q0 -57 -1 -113v-18q-1 -37 -3 -72t-13 -73q-18 -65 -55.5 -119.5t-89 -93.5t-114.5 -61t-130 -22q-78 0 -147.5 28t-123 77t-88.5 115.5t-44 142.5v1002z" />
    <glyph glyph-name="V" unicode="V" horiz-adv-x="1019" 
d="M304 -58q-32 26 -67 56.5t-64 61.5t-49 60.5t-22 53.5q-1 94 -1.5 186t-0.5 189q0 67 0.5 134.5t0.5 136.5q0 85 0.5 163t0.5 165h189v-879q0 -22 13.5 -45t35.5 -46t49 -45.5t54 -44.5q16 -13 30.5 -24.5t27.5 -22.5h14q14 14 32.5 28t38.5 28q27 20 53 40.5t46.5 42
t33 43t12.5 43.5v663q0 57 0.5 108t0.5 111h186l1 -955q0 -19 -11 -42.5t-34.5 -53t-60.5 -66.5t-90 -83q-80 -62 -124 -95.5t-66 -49.5q-5 -3 -8 -6t-6 -5q-6 -5 -9 -6q-5 4 -17.5 13t-36 27t-60.5 46t-92 70z" />
    <glyph glyph-name="W" unicode="W" horiz-adv-x="1359" 
d="M71 1146h177l169 -954l5 -4h21l5 4l230 954h34l237 -945l5 -4l20 1l5 4l122 944h177l-194 -1365h-175l-202 612l-5 3h-19l-5 -3l-198 -612h-173z" />
    <glyph glyph-name="X" unicode="X" horiz-adv-x="1012" 
d="M912 740q-11 -25 -27 -46.5t-36 -41t-42 -37t-44 -35.5q-30 -23 -58 -46.5t-51 -49.5v-12q24 -28 51.5 -51t56.5 -46q45 -35 86 -72.5t64 -88.5v-432h-188v349q-8 25 -22 46t-31.5 39t-37.5 34l-40 32q-21 17 -41.5 33t-37.5 35h-14q-17 -19 -37.5 -35t-41.5 -33
q-42 -32 -78.5 -67t-53.5 -86v-218q0 -35 0.5 -64.5t0.5 -64.5h-189l-1 431q22 51 64.5 89t89.5 73q29 23 57.5 46t51.5 50v13q-22 25 -51.5 49t-59.5 48l-46 36t-43 37.5t-36.5 41t-26.5 46.5l1 407h187l1 -318v-3q8 -26 22 -48t32 -40.5t38.5 -35.5t41.5 -33
q20 -16 40.5 -31.5t36.5 -34.5h15q18 20 37.5 36t39.5 31q42 32 79 67t53 87v248q0 20 -0.5 36.5t-0.5 38.5h189v-409z" />
    <glyph glyph-name="Y" unicode="Y" horiz-adv-x="1044" 
d="M617 -217l-189 1v655l-1 4l-347 705h35q20 0 43.5 0.5t45.5 0.5q32 0 56.5 -0.5t34.5 -0.5l223 -483h18l212 483h216l-348 -704l-1 -4z" />
    <glyph glyph-name="Z" unicode="Z" horiz-adv-x="894" 
d="M176 -214v11h-4l-1 -11h5zM802 934l6 -1l-6 2v-1zM624 -199h-234q-115 0 -217 2q-53 7 -85.5 36t-32.5 84q0 43 14.5 85t36.5 79l558 886h-614v182h650q26 0 51.5 -9t46 -24.5t33.5 -37.5t13 -49q0 -26 -11 -50t-28 -46l-1 -1l-2 -3l-591 -951h620v-184h-149
q-14 0 -28.5 0.5t-29.5 0.5z" />
    <glyph glyph-name="sf256.001" unicode="." horiz-adv-x="589" 
d="M390 87q0 -41 -29.5 -70t-70.5 -29t-70 29.5t-29 70.5t29 70t70 29q42 0 71 -29t29 -71z" />
    <glyph glyph-name="sf308.001" unicode="?" horiz-adv-x="705" 
d="M267 846q-1 -14 -1.5 -29t-0.5 -30q0 -30 -3 -58q-16 1 -33 1h-17q-26 -1 -51.5 -2t-48.5 -1q-8 -1 -15 -1q-15 0 -27 1q1 1 1 13v42q0 42 3 84.5t21 78.5q21 51 59.5 86t86.5 54.5t101 22.5q10 1 20 1q42 0 83 -11q58 -15 99.5 -46.5t66.5 -73t35 -91.5q6 -34 6 -68
q0 -17 -1 -33q-5 -52 -23 -103.5t-48 -96.5q-32 -55 -68.5 -107t-68.5 -105.5t-56.5 -111t-32.5 -123.5q-1 1 -11 1h-87q-25 0 -48.5 1.5t-43.5 6.5q0 60 18 118.5t51 109.5q40 53 85 109t79.5 116.5t52.5 126.5q10 37 10 76q0 31 -6 63q-12 32 -40 45q-22 10 -45 10
q-7 0 -14 -1q-31 -4 -56.5 -23t-31.5 -52zM148 -90q-5 6 -5 10q0 1 1 3q1 5 6 14q6 7 19.5 23.5t28.5 35t29 35t20 22.5q8 11 13 11h1q6 -1 12 -6q37 -33 74.5 -61t61.5 -53q4 -5 4 -9v-1q-1 -5 -5 -11q-23 -33 -47.5 -62.5t-48.5 -60.5q-6 -12 -15 -12q-5 0 -12 5
q-14 7 -34 22t-40 32t-37 34t-26 29z" />
    <glyph glyph-name="sf333.001" unicode=";" horiz-adv-x="433" 
d="M338 397q-5 -7 -19 -24.5t-29.5 -36.5t-29.5 -35.5t-20 -22.5q-9 -11 -14 -11q-1 0 -1 1q-6 0 -12 6q-38 32 -76 61t-63 55q-4 4 -4 8q0 6 7 13q22 33 47 63t49 63q7 11 16 11q6 0 12 -4q13 -7 33.5 -22.5t41 -33.5t38 -35.5t25.5 -28.5q6 -7 6 -12v-1q-1 -5 -7 -14z
M349 54q13 -37 13 -78q0 -17 -2 -35q-8 -60 -33.5 -119.5t-62.5 -115.5t-76 -102q-13 -12 -25.5 -19.5t-19.5 -7.5t-7 8q0 1 1 2q0 9 16 33q20 31 40 61.5t37 62t28 65t13 71.5q0 14 -3 32.5t-10 34.5t-19 26q-9 8 -22 8q-4 0 -8 -1q-9 -8 -18 -26.5t-18 -38t-19 -35
t-21 -17.5q-10 0 -20.5 12t-19.5 28.5t-14.5 33.5t-5.5 26q0 24 15 53.5t33 64.5q25 34 59 48q25 10 49 10q9 0 17 -1q33 -5 61 -26.5t42 -57.5z" />
    <glyph glyph-name="sf273.002" unicode="&#x60c;" horiz-adv-x="590" 
d="M256 209q30 21 47.5 28.5t39.5 7.5q50 0 85 -38t35 -92q0 -58 -35.5 -93.5t-92.5 -35.5q-85 0 -148 86t-63 203q0 57 25 122.5t70 125.5q64 85 98 85q8 0 13.5 -5.5t5.5 -13.5q0 -7 -5 -14t-28 -34q-42 -48 -65.5 -102t-23.5 -103q0 -32 11.5 -67t30.5 -60z" />
    <glyph glyph-name="zero" unicode="0" horiz-adv-x="1023" 
d="M563 1054q61 0 114.5 -34.5t87.5 -96.5q63 -114 63 -309q0 -166 -31 -285.5t-97 -210.5q-96 -132 -225 -132q-128 0 -201 127t-73 351q0 118 25 223.5t73 187.5q48 83 118.5 131t145.5 48zM508 932q-102 0 -149 -88.5t-47 -278.5q0 -78 10.5 -161.5t26.5 -134.5
q25 -83 66.5 -123t102.5 -40q116 0 164 123q33 84 33 249q0 220 -53.5 337t-153.5 117z" />
    <glyph glyph-name="one" unicode="1" horiz-adv-x="1025" 
d="M322 822l36 139q106 9 215 54l31 13q36 15 77 39l-4 -56q-3 -39 -3 -44l-4 -72q-1 -16 -5 -69q-20 -267 -20 -476q0 -143 5 -226l4 -52q1 -19 1 -26l-121 -103l-1 96v78q0 133 11 341l4 95q4 68 5 84l6 73l6 68l6 69l5 59q1 6 2 18q-49 -33 -133 -68q-67 -27 -123 -34z
" />
    <glyph glyph-name="two" unicode="2" horiz-adv-x="1021" 
d="M222 124q18 14 24 18l42 35l57 47q17 14 76 69.5t79 76.5q79 81 123 149q79 121 79 210q0 40 -17 81t-46 70q-50 51 -121 51q-124 0 -251 -130q-4 -4 -13 -14l24 162q73 59 129 81.5t127 22.5q67 0 123 -23.5t92 -67.5q57 -69 57 -185q0 -160 -158 -353
q-54 -66 -130 -138t-167 -143l242 -1q123 0 161 2t90 11l-51 -154l-595 -1z" />
    <glyph glyph-name="three" unicode="3" horiz-adv-x="1021" 
d="M313 857l46 145q108 51 197 51q112 0 176 -60t64 -164q0 -70 -36.5 -129t-112.5 -113q83 -28 121.5 -80t38.5 -134q0 -79 -46 -162q-43 -77 -118 -129q-79 -55 -162.5 -76.5t-224.5 -21.5l-34 1l39 150q91 -15 139 -15q117 0 199 45q121 66 121 181q0 74 -54 107t-174 33
q-69 0 -120 -9l43 140q39 -10 78 -10q84 0 146 54q32 28 50.5 63t18.5 68q0 58 -47.5 98.5t-115.5 40.5q-56 0 -109 -17t-123 -57z" />
    <glyph glyph-name="four" unicode="4" horiz-adv-x="1021" 
d="M872 504l-42 -142h-142v-325l-104 -97v422h-423l37 151l386 551h114l-4 -569h60q77 0 118 9zM273 495h306l25 439l-8 8z" />
    <glyph glyph-name="five" unicode="5" horiz-adv-x="1025" 
d="M298 501l69 539l157 -2q179 0 291 16l-50 -151q-132 -14 -176 -14l-64 -2l-77 -3h-27l-34 -258q106 52 186 52q105 0 169 -71.5t64 -189.5q0 -97 -49 -190t-129 -147q-83 -56 -169.5 -75.5t-248.5 -19.5l43 140q55 -6 105 -6q62 0 124.5 14t105.5 39q63 35 97 85t34 107
q0 39 -16.5 76.5t-46.5 64.5q-53 50 -150 50q-99 0 -208 -54z" />
    <glyph glyph-name="six" unicode="6" horiz-adv-x="1023" 
d="M752 1053l-34 -140q-113 -9 -184.5 -39t-123.5 -88q-83 -94 -101 -262l5 -8q10 11 15 17q47 51 65.5 67.5t45.5 32.5q66 39 136 39q110 0 172.5 -81t62.5 -224q0 -145 -65 -245q-43 -66 -104.5 -101t-133.5 -35t-133 34t-95 93q-62 108 -62 284q0 150 38.5 275.5
t110.5 210.5q69 81 170 125.5t215 44.5zM306 415q0 -120 37 -198q24 -51 68.5 -80t98.5 -29q90 0 152 72t62 176q0 85 -53.5 139.5t-137.5 54.5q-63 0 -125 -34q-28 -16 -48 -35.5t-54 -65.5z" />
    <glyph glyph-name="seven" unicode="7" horiz-adv-x="1023" 
d="M282 904l37 152h523q-14 -83 -67 -253q-64 -206 -121.5 -335.5t-127.5 -225.5q-64 -87 -145 -168.5t-154 -132.5l16 168q31 23 73.5 62.5t71.5 72.5q112 125 208 306.5t143 359.5l-294 1l-43 1q-10 0 -27 -1q-26 -1 -30 -1q-23 0 -49 -4z" />
    <glyph glyph-name="eight" unicode="8" horiz-adv-x="1025" 
d="M412 515q-82 49 -114 87q-52 60 -52 145q0 60 24.5 119t67.5 101q42 41 95.5 63.5t109.5 22.5q114 0 179 -60t65 -165q0 -71 -35.5 -128t-122.5 -127l-23 -18q99 -65 141.5 -123t42.5 -131q0 -63 -30.5 -126.5t-83.5 -110.5q-90 -78 -202 -78q-52 0 -99 17t-80 47
q-71 65 -71 164q0 77 54 160q28 43 54 70.5t80 70.5zM538 584q148 112 148 201q0 52 -43 99q-45 49 -123 49q-60 0 -116 -37q-70 -46 -70 -113q0 -50 46 -96t142 -94q6 -3 16 -9zM490 483q-75 -53 -111 -99q-50 -64 -50 -120q0 -63 53 -110t125 -47q84 0 141 57
q54 53 54 113q0 32 -19 61.5t-62 64.5q-58 47 -131 80z" />
    <glyph glyph-name="nine" unicode="9" horiz-adv-x="1023" 
d="M725 626q0 42 -8 90t-21 82q-52 134 -176 134q-90 0 -152 -74q-62 -75 -62 -176q0 -82 54 -136q27 -27 64.5 -42.5t77.5 -15.5q132 0 223 138zM716 523q-9 -11 -13 -17q-52 -68 -114.5 -104t-128.5 -36q-55 0 -105 25t-81 69q-26 37 -41 91t-15 114q0 164 81 272
q42 56 100 86.5t122 30.5q77 0 137.5 -35.5t97.5 -102.5q55 -99 55 -279q0 -132 -32.5 -250.5t-89.5 -199.5q-65 -89 -171.5 -144.5t-215.5 -55.5h-18l31 142q14 1 20 2l34 2q88 6 159.5 45.5t119.5 106.5q30 43 50 109t20 122v6z" />
    <glyph glyph-name="sf261.001" unicode="&#x3c;" horiz-adv-x="795" 
d="M743 -1l-743 461l741 461v-156l-490 -300l494 -303z" />
    <glyph glyph-name="sf261.002" unicode="&#x3e;" horiz-adv-x="795" 
d="M49 161l494 303l-490 300v156l741 -461l-743 -461z" />
    <glyph glyph-name="a.001" horiz-adv-x="255" 
 />
    <glyph glyph-name="sf257.001" unicode="&#x651;" horiz-adv-x="0" 
d="M289 872q-1 15 -1 31q0 8 1 16q0 23 1 46q17 29 24 56q3 7 6 7h1q3 -1 3 -8v-5q0 -3 0.5 -14.5t0.5 -33.5v-60q0 -29 16 -52.5t47 -23.5q17 0 29.5 7.5t14.5 25.5v12q0 18 -2 37q-2 14 -2 28q0 9 1 18q0 21 8 51t16 49q4 10 6 10q1 0 2 -1q2 -3 4 -11q3 -20 5.5 -43.5
t5.5 -47t7.5 -45.5t12.5 -39q6 -17 24.5 -27.5t37.5 -10.5q14 0 26 6q-3 23 -6 47t-5 47q-2 6 -2 13q0 4 1 9q2 11 6 23.5t9.5 25t9.5 23.5q2 3 4 8.5t5 8.5q1 2 3 2h1q2 -2 3 -13q1 -28 3 -48t4 -38t5 -37.5t6 -46.5q0 -1 -0.5 -3l-2.5 -10t-7 -23.5t-14 -43.5
q-6 -17 -26 -26.5t-37 -9.5q-42 0 -61.5 20.5t-29.5 55.5q-5 -14 -11 -31t-14.5 -31t-21 -23.5t-30.5 -9.5q-27 0 -44 13t-26.5 32.5t-13 43t-3.5 44.5z" />
    <glyph glyph-name="sf258.002" unicode="&#x650;" horiz-adv-x="0" 
d="M422 46q-38 -20 -91 -46t-112.5 -54.5t-122 -57t-119.5 -54.5q-4 -2 -7 -2t-5 2q-2 1 -2 3q0 4 3 8q13 26 28 52t32 48l90 40t114 52t120 56.5t108 53.5h4q6 0 6 -3q0 -9 -1 -10q-2 -3 -12.5 -23t-32.5 -65z" />
    <glyph glyph-name="sf256.003" unicode="&#x64f;" horiz-adv-x="0" 
d="M87 372q9 -7 21.5 -16t14.5 -23q-8 -17 -14 -36t-17 -37q-3 -6 -7 -6t-8 3q-4 5 -17.5 17t-18.5 17q-29 -35 -64.5 -61t-75 -45t-82 -33.5t-85.5 -27.5q-7 -2 -15 -3h-6q-3 0 -5 1q-1 0 -1 1q0 2 2 4q3 4 19 13q71 45 141 86t130 92q-15 11 -30 23.5t-30 23.5
q-20 15 -30 37q-8 18 -8 38v8q0 1 1 4t4 11t9.5 23.5t18.5 42.5q7 15 21.5 29t31 23.5t34.5 13.5q10 2 18 2q7 0 13 -1q37 -7 53.5 -31.5t18.5 -56.5v-9q0 -29 -9 -60q-11 -37 -28 -67zM-52 485q19 -32 52.5 -56t64.5 -42q3 15 3 32v6q-1 20 -6.5 38.5t-18 31.5t-33.5 15
q-5 1 -10 1q-12 0 -25 -4q-18 -5 -27 -22z" />
    <glyph glyph-name="sf258.003" unicode="&#x64e;" horiz-adv-x="0" 
d="M177 267q-38 -20 -91 -46t-112.5 -54.5t-122 -57t-119.5 -54.5q-4 -2 -7 -2t-5 2q-2 1 -2 3q0 4 3 8q13 26 28 52t32 48l90 40t114 52t120 56.5t108 53.5h4q6 0 6 -3q0 -9 -1 -10q-2 -3 -12.5 -23t-32.5 -65z" />
    <glyph glyph-name="afii57453" unicode="&#x64b;" horiz-adv-x="0" 
d="M-162 237q-3 -1 -6 -1t-3 4q0 2 1 6q10 20 21.5 38.5t24.5 36.5q10 4 41 17.5t79 35.5t112.5 52.5t141.5 68.5q2 1 4 1q3 0 3 -4q0 -2 -2 -7q-1 -2 -8.5 -18t-24.5 -49q-7 -5 -29 -16t-66.5 -32t-115 -53.5t-173.5 -79.5zM-158 129q-4 -2 -7 -2q-4 0 -4 5q0 2 2 7
q10 21 21.5 39.5t24.5 34.5q10 4 41 17.5t79.5 35.5t112.5 52.5t141 68.5q2 1 3 1q4 0 4 -8l-35 -69q-7 -5 -29 -16t-66.5 -32t-114.5 -53.5t-173 -80.5z" />
    <glyph glyph-name="afii57451" unicode="&#x64d;" horiz-adv-x="0" 
d="M59 246q-3 -1 -6 -1t-3 4q0 2 1 6q10 20 21.5 38.5t24.5 36.5q10 4 41 17.5t79 35.5t112.5 52.5t141.5 68.5q2 1 3 1q4 0 4 -4q0 -3 -2 -7q-1 -2 -8.5 -18t-24.5 -49q-7 -5 -29 -16t-66.5 -32t-115 -53.5t-173.5 -79.5zM63 138q-4 -2 -7 -2q-4 0 -4 5q0 2 2 7
q10 21 21.5 39.5t24.5 34.5q10 4 41 17.5t79.5 35.5t112.5 52.5t141 68.5q2 1 3 1q4 0 4 -8l-35 -69q-7 -5 -29 -16t-66.5 -32t-114.5 -53.5t-173 -80.5z" />
    <glyph glyph-name="bar" unicode="|" horiz-adv-x="1126" 
d="M642 -483h-260v2048h260v-2048z" />
    <glyph glyph-name="sf438.001" unicode="&#x652;" horiz-adv-x="0" 
d="M51 96q-4 -1 -11 -2t-13 -1q-5 0 -5 4h-1q0 3 10 12q84 54 133.5 85.5t76 48t34.5 22t9 8.5q-14 2 -28.5 4t-29.5 4q-28 3 -55 4h-4q-26 0 -50 -8q-8 -3 -14.5 -6t-10.5 -3q-1 -1 -2 -1q-3 0 -5 4q-1 1 -1 5t1 9q7 20 14 38t14 37q4 10 13.5 15.5t21.5 8.5t25 4t25 1
q33 0 69.5 -2t70.5 -5q15 0 25 -9q5 -4 5 -11t-5 -17q-18 -42 -43.5 -75t-53.5 -69q-23 -23 -42 -39.5t-49 -26.5q-28 -10 -63 -19.5t-61 -19.5z" />
    <glyph glyph-name="sf258.004" horiz-adv-x="0" 
d="M265 199q5 9 17.5 25t20.5 26q3 5 9 9q2 1 4 1q4 0 8 -3t12.5 -9.5t17.5 -14t16.5 -15.5t10.5 -14q0 -2 -1 -3.5t-6 -7.5t-15.5 -19t-29.5 -38q-16 16 -32.5 31.5t-31.5 31.5zM-2 432q0 4 0.5 9.5t2.5 12.5q1 2 3 9t5 15.5t5 16t3 10.5q2 4 5 4h2q4 -2 8 -7
q11 -18 24 -36.5t28 -34t33 -26.5t41 -15h21q18 0 50 7t91 33q-20 13 -41 23.5t-43 15.5q-13 2 -26 2q-9 0 -18 -1q-22 -3 -43 -16l-2 -2q-1 0 -1 2q0 13 3.5 25.5t8.5 25.5q11 28 24 41t45 13q7 0 17.5 -1t25 -5t35 -12t48.5 -21q18 -9 35.5 -20t37.5 -21.5t43 -19
t52 -13.5q9 -3 9 -12v-2q-2 -11 -9 -22.5t-15 -22.5t-10 -16q-9 -1 -18 -1q-13 0 -25 2q-21 3 -44 3q-36 0 -71 -13.5t-70.5 -28t-71.5 -24.5q-21 -6 -43 -6q-15 0 -30 3q4 -30 6.5 -62t2.5 -63q0 -32 -5 -62t-17 -56q-2 -5 -6 -8q-1 -1 -2 -1q-2 0 -2 6v22q0 64 -9 127
q-12 74 -47 143q-13 20 -24.5 39t-21.5 41z" />
    <glyph glyph-name="sf259.002" unicode="&#x611;" horiz-adv-x="0" 
d="M147 -2q-2 75 -11 148t-33 133q-8 17 -16 32.5t-12 32.5q-4 11 -4 24q0 6 1 12q2 19 15 45q4 10 8 10q1 0 3 -2q4 -7 8 -18q7 -14 16.5 -31t22 -31.5t28 -24.5t35.5 -10q-2 15 -2 31t3 33q5 32 21 58t41.5 42t60.5 16q21 0 39.5 -2t35.5 -9t34 -21t34 -37q-11 -1 -24 -1
q-12 0 -27 1q-29 2 -55 2q-8 0 -15.5 -0.5t-13.5 -1.5q-11 -1 -26 -3.5t-29 -8.5t-24 -16t-10 -25q0 -13 9.5 -25t23 -21.5t29 -15.5t26.5 -6q25 0 47 8t43 21q17 12 34.5 25.5t33.5 28.5q3 3 5 3h1q1 -1 1 -2q0 -2 -1 -5q-4 -30 -21.5 -57.5t-39.5 -47.5q-26 -23 -58 -39
t-67 -24q-31 -7 -63 -7h-8q-36 1 -70 13q0 -29 1 -58v-19q0 -20 -1 -39q-2 -29 -8.5 -57t-20.5 -54z" />
    <glyph glyph-name="sf260.001" unicode="&#x610;" horiz-adv-x="0" 
d="M251 353q-15 -14 -29 -29.5t-29 -32.5q7 -4 27 -4q22 0 54 3.5t61.5 8.5t51.5 10.5t25 10.5q-9 24 -28.5 39t-42.5 20q-11 2 -22 2q-13 0 -26 -3q-24 -6 -42 -25zM50 404q9 -14 19 -30t23 -31t27.5 -27.5t32.5 -18.5q15 15 35 42t46 54t57 47t69 21q22 0 42.5 -9
t36.5 -24.5t25.5 -35.5t9.5 -42q-5 -34 -21.5 -66t-49.5 -46q-67 -26 -139 -32q-20 -2 -39 -2q-53 0 -106 13q-3 -26 -4.5 -52t-4 -51.5t-8 -50.5t-16.5 -50q-2 -6 -4 -6h-1q-1 1 -1 3t1 4q1 35 1 64v29q-1 41 -6.5 76.5t-16 68.5t-29.5 70q5 21 8 43t13 39z" />
    <glyph glyph-name="sf260.001" unicode="&#x6d6;" horiz-adv-x="0" 
d="M251 353q-15 -14 -29 -29.5t-29 -32.5q7 -4 27 -4q22 0 54 3.5t61.5 8.5t51.5 10.5t25 10.5q-9 24 -28.5 39t-42.5 20q-11 2 -22 2q-13 0 -26 -3q-24 -6 -42 -25zM50 404q9 -14 19 -30t23 -31t27.5 -27.5t32.5 -18.5q15 15 35 42t46 54t57 47t69 21q22 0 42.5 -9
t36.5 -24.5t25.5 -35.5t9.5 -42q-5 -34 -21.5 -66t-49.5 -46q-67 -26 -139 -32q-20 -2 -39 -2q-53 0 -106 13q-3 -26 -4.5 -52t-4 -51.5t-8 -50.5t-16.5 -50q-2 -6 -4 -6h-1q-1 1 -1 3t1 4q1 35 1 64v29q-1 41 -6.5 76.5t-16 68.5t-29.5 70q5 21 8 43t13 39z" />
    <glyph glyph-name="sf277.007" unicode="&#x603;" horiz-adv-x="1342" 
d="M1085 179q-45 0 -95.5 -30t-110.5 -87q40 -6 81 -6q39 0 79 6q80 10 158 33q-9 15 -20 30.5t-25 27.5t-30 20q-15 6 -32 6h-5zM84 -6q68 6 137 9.5t137.5 9t136.5 16.5t134 32q38 13 61.5 34.5t35.5 38.5q5 6 10 7q4 0 4 -5q0 -2 -1 -5q-1 -4 -1 -8q0 -12 8 -20
q10 -12 26.5 -19.5t34.5 -11.5t32 -7q33 44 71 82t77.5 65t79.5 40q26 8 51 8q13 0 26 -2q37 -7 69.5 -35.5t57.5 -84.5q-8 -23 -16 -44.5t-16 -43.5q-2 -6 -12.5 -14t-16.5 -10q-95 -41 -199 -50q-51 -5 -102 -5q-54 0 -108 5q-8 -12 -17 -23.5t-17 -23.5q-6 -10 -12 -10
q-3 0 -3 5q0 4 2 11q5 12 14 25t14 23q-29 8 -50.5 25t-26.5 40q-12 -26 -31.5 -44t-43.5 -30t-50.5 -19t-52.5 -10q-81 -9 -162 -9q-30 0 -60 2q-111 4 -220 40q-11 5 -14 10q-1 0 -1 1q0 3 14 5z" />
    <glyph glyph-name="sf263.002" unicode="&#x670;" horiz-adv-x="0" 
d="M1078 1213q10 19 23 35t35 42q8 8 18 8t22 -6q60 -29 90 -78.5t35 -103.5q1 -11 1 -22q0 -43 -15 -83q-19 -52 -55 -86q-16 -14 -24 -15l-1 -1q-4 0 -4 5t3 13q10 39 13 78q1 7 1 15q0 30 -10 60q-12 37 -43 72t-89 67z" />
    <glyph glyph-name="sf264.002" unicode="&#x66b;" horiz-adv-x="268" 
d="M121 318q-17 0 -21 -9t-10 -23q-3 -8 -9 -17q-3 -5 -7 -5t-8 4q-11 14 -13.5 30.5t-2.5 32.5t4.5 36t13.5 37.5t23 29t34 11.5q25 0 42.5 -13t28.5 -32.5t16.5 -43t5.5 -43.5q-4 -85 -38 -161.5t-94 -136.5q-13 -13 -20 -13q-1 0 -2 1q-2 0 -2 3q0 6 9 20q16 27 32 54.5
t29 56.5t21 59.5t8 62.5q0 21 -7 40t-33 19z" />
    <glyph glyph-name="sf266.001" unicode="&#x22;" horiz-adv-x="542" 
d="M289 1403q35 7 71 7h5q37 -1 77 -1l-26 -359l-103 16zM100 1395q13 2 32.5 3.5t41 2.5t42.5 1.5t37 0.5l-26 -340q-45 -11 -69 -15t-29 -4q-1 0 -1 1q-3 26 -5.5 54.5t-5.5 68t-7 94t-10 133.5z" />
    <glyph glyph-name="sf267" unicode="&#x614;" horiz-adv-x="0" 
d="M-469 45q33 1 66 1q32 0 64 -1h36q46 0 91 2q62 2 123.5 9.5t121.5 25.5q35 13 60.5 30t51.5 44q2 2 3 2t1 -2v-6q0 -17 10 -32q12 -17 32.5 -28t46.5 -14q10 -2 20 -2q15 0 29 3q5 2 5.5 4t0.5 6q0 9 -3.5 17.5l-7 17t-7 16.5t-3.5 14q5 20 15.5 35.5t19.5 33.5q3 5 6 5
h2q3 -3 5 -8q10 -33 18 -58.5t10 -59.5q-6 -26 -11.5 -47t-16 -36t-28 -23t-47.5 -8q-49 0 -80.5 21.5t-42.5 72.5q-11 -20 -25.5 -37t-37.5 -28q-60 -28 -128 -38q-53 -9 -107 -9q-16 0 -31 1q-71 3 -141 19t-133 41q-10 5 -10 8q0 1 1 3q4 4 21 5z" />
    <glyph glyph-name="sf268.004" unicode="&#x600;" horiz-adv-x="1134" 
d="M353 212q55 78 125 136.5t151 82.5q5 2 8 2t4 -1q3 -3 3 -9t-2.5 -13t-4.5 -10q-22 -26 -53.5 -61.5t-63 -74.5t-59 -79t-41.5 -76q-12 -29 -12 -55q0 -16 5 -31q11 -41 43 -76t78 -63.5t96 -50t98 -35.5t84 -20q14 -2 17 -7q1 -3 1 -6t-1 -6q-2 -7 -6.5 -14.5
t-4.5 -14.5q-19 -23 -33.5 -35t-28 -22t-28 -22t-33.5 -34q-3 -8 -7.5 -12.5t-19.5 -4.5q-44 7 -93.5 22t-101.5 27.5t-104 16.5q-11 1 -22 1q-40 0 -79 -12q-149 -46 -283 -78.5t-260 -52.5t-247 -29.5t-245 -9.5q-126 0 -254 8t-273 22q-101 9 -192 19t-179.5 25
t-178.5 38.5t-188 59.5q-68 25 -101 39q-31 13 -31 20v1q2 7 40 9h112q142 -3 266.5 -5.5t236 -5t212.5 -3.5t196 -1q105 0 206 2t202.5 7.5t207.5 13.5t222.5 20.5t245.5 29.5t277 39q-1 21 -1 42q0 28 2 58q4 52 15.5 103.5t30.5 99t46 86.5z" />
    <glyph glyph-name="sf275.001" unicode="&#x60f;" horiz-adv-x="786" 
d="M580 122q-53 -2 -97 -26.5t-81.5 -60.5t-68.5 -79t-58 -82q53 -39 112 -39h6q62 2 119.5 30.5t105 75.5t74.5 97q0 22 -11 38t-27.5 26.5t-35.5 15.5q-17 4 -32 4h-6zM178 -216q-34 62 -41 131q-3 25 -3 50q0 43 8 87q13 68 42 132.5t67 118.5q3 3 3 4t-3 1
q-19 16 -38 33.5t-19 42.5q0 16 5 28.5t12.5 23.5t16.5 22t17 24q12 18 24.5 39.5t28.5 40t36 31t46 12.5q10 0 23 -3t23.5 -9t16.5 -14q4 -6 4 -12q0 -4 -1 -7q-3 -27 -14 -33q-7 -4 -15 -4q-5 0 -10 2q-14 3 -28 10.5t-24 7.5q-21 0 -46 -16q-25 -15 -25 -41
q0 -17 13 -29.5t31.5 -20t38.5 -9.5q6 -1 12 -1q12 0 21 3q30 17 59 31t58 29q15 9 20 9h2q1 -2 1 -4t-2 -7q-5 -8 -15 -19t-20 -18q-24 -18 -47 -35l-46 -34q-65 -44 -117 -95.5t-79 -110.5q-26 -55 -26 -116q0 -5 1 -10q2 -67 46 -142q33 53 73 113t87.5 110.5t103.5 83.5
q54 31 117 31h4q25 0 46 -11.5t36.5 -30t24.5 -42t9 -47.5q-5 -58 -30 -119.5t-64 -116.5t-90.5 -98.5t-108.5 -63.5q-43 -16 -89 -16q-15 0 -30 2q-62 7 -122 52q-23 -42 -47 -82.5t-48 -85.5q-9 -16 -23 -32t-34 -17q9 19 24 48.5t32.5 63.5t36 69t35.5 66z" />
    <glyph glyph-name="sf273.003" unicode="&#x64c;" horiz-adv-x="0" 
d="M17 266q-15 10 -24 25t-9 33q0 1 0.5 3t2 8.5t5 18t9.5 32.5q5 12 14.5 22.5t20.5 19t23 13.5q10 3 19 3h4q28 -2 42 -19t18 -41q1 -10 1 -20q0 -15 -3 -31q-5 -28 -16 -51q9 -4 18.5 -10t11.5 -15q-5 -14 -8 -28t-9 -29q-2 -5 -5 -5t-6 3q-3 2 -14 10t-14 12
q-55 -69 -137.5 -117.5t-176.5 -78.5q-6 -1 -11 -1q-2 -1 -4 -1q-3 0 -4 1q-2 1 -2 2t2 2q2 3 14 9q94 58 170 107t115 93q-11 7 -23 15t-24 15zM15 354q16 -22 42 -36.5t50 -26.5q1 7 1 14t-1 14q-2 15 -8 28t-16 22t-25 9q-12 0 -25 -5.5t-18 -18.5zM-170 352
q-9 -11 -9 -19q0 -5 1 -11.5t4 -17.5q21 -30 54 -30l1 -1q33 0 67 23q3 2 7 3q2 0 2 -3v-2q-1 -19 -10.5 -34.5t-24 -26.5t-32.5 -16q-15 -5 -31 -5h-6q-38 11 -50 37q-10 21 -10 44q0 5 1 11q2 29 14.5 57t23.5 43q16 26 44 53t63 52t73.5 46.5t75 36.5t68.5 22q18 3 33 3
q11 0 20 -2q24 -7 34.5 -22t12.5 -34v-9q0 -16 -4 -32q-6 -22 -15.5 -42t-20.5 -36.5t-20 -25.5q-5 -3 -10 -6.5t-8 -4.5h-2v2q1 2 8 11q16 22 27 47q9 22 9 41v4q-1 21 -16 34.5t-49 13.5h-9q-26 0 -63 -14q-43 -17 -89.5 -46.5t-90 -67t-73.5 -76.5z" />
    <glyph glyph-name="sf271.003" unicode="&#x602;" horiz-adv-x="984" 
d="M117 115q0 -22 13.5 -35.5t32.5 -21.5t40.5 -11.5t36.5 -4.5q0 17 -5 38t-14.5 39.5t-24 31t-32.5 12.5q-20 0 -33.5 -15t-13.5 -33zM72 72v7q0 26 12 57q13 35 36 62t54 37q9 3 18 3q22 0 44 -16q28 -22 37.5 -59.5t9.5 -76.5q0 -14 -0.5 -26t-1.5 -23q60 -8 135 -8
q4 0 9 1q80 0 163.5 5t164.5 14t147 18h6q7 0 7 -4v-2q-4 -8 -14 -12q-25 -19 -68 -35t-97 -28t-116 -21t-125.5 -13.5t-124.5 -4.5q-7 -1 -14 -1q-54 0 -100 4q-27 3 -59 9.5t-59 20t-45.5 35.5t-18.5 57z" />
    <glyph glyph-name="sf271.003" unicode="&#x60e;" horiz-adv-x="984" 
d="M117 115q0 -22 13.5 -35.5t32.5 -21.5t40.5 -11.5t36.5 -4.5q0 17 -5 38t-14.5 39.5t-24 31t-32.5 12.5q-20 0 -33.5 -15t-13.5 -33zM72 72v7q0 26 12 57q13 35 36 62t54 37q9 3 18 3q22 0 44 -16q28 -22 37.5 -59.5t9.5 -76.5q0 -14 -0.5 -26t-1.5 -23q60 -8 135 -8
q4 0 9 1q80 0 163.5 5t164.5 14t147 18h6q7 0 7 -4v-2q-4 -8 -14 -12q-25 -19 -68 -35t-97 -28t-116 -21t-125.5 -13.5t-124.5 -4.5q-7 -1 -14 -1q-54 0 -100 4q-27 3 -59 9.5t-59 20t-45.5 35.5t-18.5 57z" />
    <glyph glyph-name="sf261.003" unicode="&#x613;" horiz-adv-x="0" 
d="M197 615q6 15 20 30.5t25 27.5q2 2 3.5 3t2.5 2q1 0 9 -5q12 -9 30.5 -24t27.5 -28q-14 -17 -27.5 -34.5t-27.5 -33.5q-14 14 -29 28t-34 34zM239 347q22 0 46.5 0.5t47.5 2.5t43 5t34 8q5 5 5 10q0 2 -1 4q-23 45 -56 52q-5 1 -10 1q-30 0 -66 -36l-8.5 -8.5l-14 -14
t-13.5 -14.5t-7 -10zM283 154q43 13 72.5 22t49 15.5t30.5 10.5t17 7q13 6 29.5 15.5t31 20.5t25.5 25t14 29v7q0 18 -4 35q-5 19 -11.5 33.5t-12 24.5t-5.5 14q1 8 4.5 20.5t7.5 24.5t8 21.5t7 11.5q14 -8 23 -23.5t14 -34t7 -37t2 -31.5q0 -60 -24.5 -114t-72.5 -90
q-51 -19 -102 -20q-10 -1 -19 -1q-43 0 -87 6q-3 0 -6 3q-1 1 -1 2q0 2 3 3zM59 357q11 38 16.5 53.5t8.5 24.5q17 -17 32.5 -38t35.5 -34q14 -10 26 -10q5 0 11 2q16 7 31 24q13 17 28.5 40t35 43.5t43 35.5t53.5 17q19 0 36.5 -10t31 -25.5t22 -35t8.5 -38.5
q-3 -17 -7 -35.5t-12.5 -35.5t-24.5 -31t-43 -21q-15 -6 -42.5 -12t-59.5 -9q-26 -3 -52 -3h-15q-34 1 -63 9q4 -26 4 -54q0 -25 -3 -51q-8 -55 -29 -103v18q0 71 -13 137q-16 73 -59 142z" />
    <glyph glyph-name="sf272.001" unicode="&#x612;" horiz-adv-x="0" 
d="M234 174q-4 0 -11 4q-4 2 -4 4t5 4q38 11 75 22.5t75 22.5q17 5 38 15.5t39 24.5t30 32q11 16 11 34v3q-1 28 -10.5 50.5t-23.5 47.5q3 17 8.5 32.5t12.5 32.5q4 8 6 10h1q3 0 9 -4q22 -22 29.5 -53t7.5 -61q0 -60 -25.5 -116t-73.5 -92q-46 -16 -93 -16h-5q-50 1 -101 3
zM388 379q-48 -11 -92.5 -26t-83 -41t-70 -68t-54.5 -108q-4 -7 -6 -8v-1q-1 0 -1 5v6q2 78 39 144.5t98 111.5q-23 10 -51 11h-2q-27 0 -49 -11q-7 -4 -10 -4q-2 1 -2 4t1 7q4 19 8.5 36t13 29.5t22 19.5t34.5 7q5 0 12 -0.5t24 -3t48.5 -8.5t85.5 -17q13 -3 26 -3.5
t27 -1.5q11 0 13 -3q1 -1 1 -3q0 -4 -4 -11q-5 -17 -11 -32.5t-17 -30.5z" />
    <glyph glyph-name="sf262.002" unicode="&#xa0;" horiz-adv-x="257" 
 />
    <glyph glyph-name="sf281" horiz-adv-x="2374" 
d="M1701 11q0 -1 3.5 -4.5t8.5 -8t10 -9.5t7 -8q12 -9 28.5 -18t32.5 -9q0 5 -2 10t-2 7q-17 20 -36.5 31t-49.5 11v-2zM1088 733q5 16 9 33.5t4 36.5q0 10 -0.5 18.5t-5.5 19.5q-2 8 -7 14t-5 14q0 5 -1 13.5t8 8.5q4 0 4 -2q0 -1 5 -3q13 -20 15 -38t2 -39q0 -20 -5 -42
t-21 -37zM990 799h-2h-3l-109 -66l-3 -7q9 -5 28.5 -6t30.5 -1h22q8 2 17 4.5t14 6.5l7 9v1v59h-2zM1225 35q13 -5 25.5 -5.5t23.5 -0.5q26 0 49 4t43 24v17q0 15 -1 25.5t-6 24.5q0 11 -5 11l-121 -95zM113 151q8 -5 19.5 -5.5t19.5 -0.5q26 0 54 5t44 25v17v20
q0 3 -0.5 8.5t-1.5 13.5q0 1 -1.5 9t-6.5 8q-7 0 -7 -1l-116 -93q-4 -4 -4 -6zM1138 1098q0 -17 0.5 -36.5t4.5 -36.5q1 -15 17 -15q11 0 15.5 7t5.5 16t0 18.5t-1 15.5q0 13 1 20t2 11t2 6t1 4q5 0 6.5 -14t4 -30.5t9 -30t21.5 -13.5h6q2 0 2 11q0 16 -2 31.5t-2 31.5
q0 3 0.5 9.5t3.5 10.5q7 -4 7 -6q2 -20 8 -39t6 -38q0 -16 -6.5 -30.5t-24.5 -14.5q-11 0 -19 6.5t-14 11.5q-14 -24 -37 -24q-9 0 -19 8t-10 19v66q0 3 1 4t3.5 6zM1049 499q-1 -13 -7 -26t-21 -18l-29 -16v-1l-166 -75v2q1 4 3.5 17t4.5 16v4h3l208 97h4zM425 321
q-5 0 -13 -4l-12 -6v5q0 5 0.5 10t4.5 13q6 10 13.5 18t17.5 8h110q0 -10 -1 -17.5t-5 -15.5q-7 -14 -20 -25.5t-28 -20.5t-31 -15.5t-30 -10.5q-11 -7 -27.5 -11t-30.5 -9h-4v4q4 5 9 8t6 4t10 6t20 11t21.5 12t15.5 9q5 5 17.5 10t17.5 12v5h-61zM1491 570
q-15 202 -21.5 301t-8.5 104v11v7q0 1 0.5 3.5l1.5 7.5q0 17 5.5 31.5t5.5 22.5q5 7 9 17t9 13l15 -216v-5q0 -3 1 -20.5t2.5 -37.5t3.5 -37.5t4 -21.5v-50v-49q-5 -22 -10 -43t-16 -41zM451 -152q0 8 1 9q0 2 1 3t1 3q1 1 4 5.5t6.5 9.5l7 10t5.5 7q4 5 9.5 11.5t13.5 16.5
h4l76 -60q4 0 10 6.5t11 14.5q1 2 5.5 8t10.5 13t11.5 13.5t8.5 9.5h4h6l74 -75l-3 -5q-32 -35 -44 -50t-12 -13l-6 2l-67 61h-6h-3h-2q-14 -20 -26 -35.5t-28 -27.5q-8 1 -20 9.5t-24 19t-20.5 20.5t-8.5 14zM1233 381q0 5 0.5 7.5t4.5 9.5q4 3 10.5 12t10.5 13q0 4 8 13.5
t12 14.5q3 6 6 6h2q3 -5 12.5 -13t20.5 -17t21 -16.5t13 -9.5q0 -5 2 -5t7 -5q4 5 8.5 10.5t4.5 7.5q3 1 9 7.5t12 15t11 16t5 9.5l6 4q5 0 5.5 -1t0.5 -3q2 -2 10.5 -10t11.5 -9q3 -4 10 -11.5t15.5 -15t16 -14.5t10.5 -9v-5q0 2 -0.5 0t-1.5 -7q-5 -9 -14 -17.5t-20 -19.5
q0 -4 -7.5 -11.5l-11.5 -11.5h-1h-4l-73 65h-7q-12 -20 -24.5 -37t-28.5 -31q-3 0 -3.5 -0.5t-0.5 3.5q-5 2 -17 10.5t-16 12.5q0 2 -8.5 9.5t-15.5 11.5q-2 4 -7 8.5t-5 12.5zM1990 -141q0 5 8 5q66 13 123 34.5t109 66.5q12 12 29.5 31t23.5 37v13q0 30 -12.5 52.5
t-26.5 45.5v10q0 1 2.5 8t6 17l7 20t5.5 17q3 2 5 5t4 3h2q26 -20 37 -55.5t11 -67.5q0 -17 -1.5 -31.5t-6.5 -34.5q-7 -23 -20.5 -51.5t-32.5 -55.5t-42.5 -48t-49.5 -28q-5 0 -14.5 -1t-20.5 -2t-21 -2t-14 -1h-17h-18q-2 0 -8 0.5t-12 0.5h-7q-8 0 -9 1h-8q-5 0 -9 4
q-4 0 -13.5 1t-9.5 6zM816 691q2 5 3 10l2 10q5 11 15.5 23t20.5 20q32 31 68.5 50t74.5 40l5 23l26 52q2 0 2 -1v-2q3 -8 4.5 -24.5t1.5 -30.5v-15v-9q0 -21 -0.5 -43.5t-0.5 -43.5q0 -19 1 -42t7 -43.5t18.5 -34t36.5 -13.5q42 0 60.5 29t18.5 65q0 38 -2.5 72t-2.5 72
q0 32 3.5 61.5t13.5 59.5q2 2 3 2q2 0 2 1v3q0 3 1 4l2 -6l10 -94v-3q0 -3 1.5 -18.5t4 -35l5 -39t4.5 -29.5q4 -24 9.5 -48t16 -42.5t28.5 -30t47 -11.5h17q5 0 7 2.5t4 5.5v8q0 28 -6 55t-13.5 54t-13.5 54t-6 54v3q3 6 5 18.5t4 26.5t3.5 26.5t3.5 18.5q0 2 3 12.5
t3 15.5q0 4 0.5 7t5.5 7q0 -4 2.5 -6.5t2.5 -4.5l38 -247q3 -11 3.5 -20t0.5 -16v-33v-21q-3 -20 -12 -39.5t-19 -35.5q-4 -8 -11.5 -12t-16 -6t-16.5 -2.5t-13 -0.5q-26 0 -52 11t-35 34q-5 16 -6.5 28t-8.5 23q-4 -20 -12.5 -40.5t-22 -37t-31.5 -26.5t-41 -10
q-34 0 -53 16.5t-28 41t-11 53.5t-2 54q-5 -5 -7 -8t-4 -8l-3 -2q-16 -20 -34.5 -26.5t-41.5 -6.5q-9 0 -24.5 1t-30.5 5t-26.5 12.5t-11.5 23.5zM1376 29q-5 -5 -6.5 -12t-6.5 -9q-23 -28 -46 -35.5t-57 -7.5q-8 0 -24 0.5t-32 4t-27.5 11.5t-11.5 22q0 20 15.5 41.5
t29.5 36.5q4 5 9.5 11t10.5 11.5t9.5 9.5t5.5 4l114 72v40l17 56q0 1 1.5 2t2.5 3h3q3 0 3 -8l33 -239q7 -48 33.5 -78.5t77.5 -30.5q13 0 28.5 1.5t30.5 6.5t27.5 14t18.5 23l25 50q18 37 52 60t75 35t84 16t79 4q-23 23 -44.5 40t-45 27.5t-50.5 15t-61 2.5q0 4 -3 6
q0 2 1 4t2 7l27 48q5 5 16 3.5t16 -1.5q31 0 65.5 -14.5t56.5 -30.5l146 -100q21 -15 40.5 -19.5t44.5 -14.5q5 0 5 -4q0 -5 -4.5 -15t-10.5 -20.5t-12.5 -18.5t-10.5 -8q-12 0 -25.5 3.5t-24.5 8.5l-160 18h-34h-40q-2 0 -7 -0.5t-11 -1t-11.5 -1t-6.5 -0.5q-2 0 -8 -1
t-13 -3q0 -5 4.5 -8.5t9.5 -8.5q22 -20 42.5 -47t20.5 -58q0 -14 -4 -27.5t-11.5 -24.5t-19.5 -18t-27 -7q-21 0 -42 6t-40.5 17t-35.5 26.5t-26 33.5h-4q-9 -24 -20.5 -44.5t-27.5 -35t-37.5 -22.5t-50.5 -8q-48 0 -84 26t-48 74q-5 17 -7.5 38.5t-2.5 42.5zM260 135
q-5 -1 -9 -12t-9 -17q-19 -21 -43.5 -26.5t-50.5 -5.5q-9 0 -25.5 1t-32.5 4.5t-28 11.5t-12 22q0 12 10.5 29t25 34.5t30 32t25.5 20.5l106 71v32l19 70l5 -4l31 -233q2 -16 6.5 -33t15.5 -36q9 -22 38 -39q1 -6 11 -6q4 -4 22 -11h4h42q4 3 10 3q32 11 54.5 30t45.5 41
q4 8 13.5 17.5t13.5 9.5h2q0 -15 -7 -26t-7 -27q0 -8 9 -14t21 -10t24.5 -5.5t19.5 -1.5q21 0 42 6t29 25l5 3q1 5 1.5 11.5t0.5 14.5v13l-35 332v4q0 32 12.5 64.5t22.5 64.5v3h3l1 -5l45 -388q1 -20 8 -41.5t20 -40t31 -30.5t41 -12v5q-15 25 -24 46.5t-9 47.5
q0 11 1.5 19t2.5 17v6q0 1 1.5 3t1.5 4v4q0 1 3 1v1v4v1h3v4v2q2 0 2 4q0 1 3 1q1 0 1 4q0 1 1 3t1 3l2 4q43 64 122 64q107 0 181 -78q4 -1 10 -8.5t6 -8.5l3 -5q0 -5 -4 -5h-4q-38 10 -73 15t-77 5h-36q-5 0 -15.5 -2t-15.5 -3q-3 0 -13.5 -2t-18.5 -3q-4 0 -12 -5.5
t-16 -10.5l-7 -2q-2 0 -2 -1q0 -2 -3 -2q-6 -2 -6 -8v-4q0 -5 2 -9l4 -8q9 -19 22 -36.5t29.5 -31t37 -22t43.5 -8.5t47 6.5t47 16t44.5 21t39.5 21.5h5v-3q-16 -25 -18 -34q-13 -23 -31 -39.5t-39 -28t-44 -19.5t-45 -14q-9 -2 -15.5 -3.5t-12.5 -1.5q-5 -5 -10 -5
q-14 -2 -27.5 -3.5t-28.5 -6.5h-14q-56 0 -97.5 21t-58.5 74h-3q-7 -15 -11.5 -30t-13.5 -29q-13 -27 -33 -42.5t-58 -15.5q-35 0 -60.5 15t-42.5 49h-3q-20 -34 -52 -58.5t-74 -24.5h-10q-1 0 -4 0.5t-8 1.5h-3h-2l-4 4q-7 0 -12.5 1t-13.5 6t-16 8t-8 8q-17 15 -30.5 35.5
t-18.5 46.5q-7 17 -8.5 38.5t-6.5 33.5z" />
    <glyph glyph-name="sf274.004" horiz-adv-x="2062" 
d="M1077 1014q-6 -11 -17.5 -20.5t-22.5 -9.5q-20 0 -26.5 15t-6.5 31v22v32q2 3 4 9.5t4 12.5l3 4q1 0 1 -5q5 -20 2.5 -35t2.5 -35q2 -17 19 -17q24 0 24 23v57q0 4 0.5 9.5t1 8t2.5 1t5 -10.5q0 -3 1.5 -10.5t3.5 -16.5t3.5 -16.5t1.5 -10.5q0 -10 11 -17.5t19 -7.5
q4 0 4 7q0 20 -3 42.5t-1 39.5q0 10 2 11.5t6 -8.5q4 -7 7.5 -19.5t5.5 -25t3.5 -23.5t1.5 -16q0 -16 -5.5 -28t-25.5 -12q-18 0 -31 19zM634 939q0 -4 8 -12t18.5 -16.5t20.5 -15t13 -6.5q0 8 -0.5 19.5t-3 22t-8 17.5t-15.5 7q-12 0 -17.5 -3.5t-15.5 -12.5zM972 776
q0 20 -3.5 39t-12.5 37v6v20h4q9 0 15.5 -11.5t10.5 -26.5t6 -29t2 -19q0 -20 -4.5 -38.5t-17.5 -35.5l-6 -8h-3q0 18 4.5 33.5t4.5 32.5zM739 696q13 -2 35 -4t42 0t34 10t12 25v10q0 8 -0.5 16.5t-0.5 16.5v11q0 6 -6 0q-28 -20 -56 -37t-60 -38q-8 -5 -6.5 -5.5t6.5 -4.5
zM729 863q0 -10 -1 -20t-9 -20q-5 4 -13.5 7t-12.5 4q-21 -32 -53 -60t-70 -53.5t-80 -47t-83 -39.5q31 28 66 53.5t70 51.5t68.5 53.5t61.5 59.5q1 1 -7 7.5t-18.5 17t-19.5 24t-9 28.5q0 13 3 26.5t9.5 24t17.5 17.5t27 7q18 0 25.5 -15t9 -35t-0.5 -40t-2 -30
q0 -5 3.5 -7t7 -3.5t7 -3.5t3.5 -7zM270 651q2 -7 9.5 -15t16.5 -15.5t16.5 -12.5t10.5 -6q3 3 3 15q0 16 -8 32.5t-22 16.5q-5 0 -13.5 -4.5t-12.5 -10.5zM1365 966q-4 32 4 63t25 56q5 -85 15.5 -182.5t18.5 -194.5q5 -39 0 -80.5t-21 -77.5zM867 675q-17 -32 -38 -42.5
t-56 -10.5q-11 0 -27.5 1t-31.5 4.5t-25.5 11t-10.5 20.5t7 26.5t17.5 25.5t22 22.5t21.5 18.5q31 22 59.5 38.5t61.5 32.5q6 8 3.5 13t1.5 14q1 3 4.5 10.5t7.5 16t7.5 16t4.5 10.5q5 8 5 0q3 -17 4 -35t1 -35v-71q0 -36 2.5 -71t13.5 -66q9 -19 26.5 -27.5t37 -7
t37.5 12.5t28 31q10 13 10.5 46.5t-2.5 70.5t-7.5 69t-4.5 43q4 30 10.5 60t14.5 60h1q8 -66 17.5 -130.5t22.5 -130.5q5 -23 12 -44t19 -36.5t29 -24t43 -6.5q6 0 19.5 2.5t13.5 14.5q-3 31 -11 61.5l-16 61t-14.5 62t-6.5 64.5q3 25 7.5 52.5t9.5 57.5q4 9 5 9q4 0 6 -9
q9 -73 24 -145t27 -147q10 -37 2 -74.5t-28 -70.5q-13 -9 -34.5 -13.5t-30.5 -4.5q-12 0 -27.5 2.5t-30.5 12t-27.5 29t-19.5 54.5q-5 -21 -15 -43.5t-24.5 -40.5t-33.5 -29.5t-43 -11.5q-33 0 -53 17.5t-30.5 43.5t-14 55.5t-3.5 53.5zM252 644q0 10 3.5 22t10 22.5
t17 17.5t24.5 7q18 -5 25.5 -18.5t9 -31.5t-0.5 -37.5t-3 -35.5q0 -1 8.5 -4t8.5 -13q0 -4 -2 -16.5t-2 -16.5q-7 -2 -15.5 1t-13.5 8q-20 -35 -60 -69t-83 -61t-79.5 -45t-49.5 -21q28 30 66 59t74.5 55.5t67 51t43.5 45.5q0 3 -7.5 9t-17 16t-17 23.5t-7.5 31.5zM1422 451
q1 2 3 3.5t6 -3.5q23 -17 41.5 -31.5t38.5 -32.5q3 -2 0 -14q-3 -8 -10 -18.5t-14.5 -21t-14.5 -19t-11 -12.5q-5 -5 -8 -3.5t-8 3.5q-17 11 -31 22.5t-30 26.5q-7 5 -11.5 11.5t2.5 16.5q11 17 23.5 37.5t23.5 34.5zM561 302q-15 -23 -28.5 -40t-24.5 -31q-6 -5 -11 0
q-17 9 -38.5 26t-36.5 34q-11 6 -2 8q11 20 25 41.5t25 38.5q4 3 5 3q3 0 6 -3q20 -17 40 -32t40 -31q4 -4 2.5 -7t-2.5 -7zM118 157q10 -1 26.5 -2.5t35.5 -1t39 5t38 15.5q5 5 10 10.5t5 8.5q0 17 -3 34.5t-6 32.5q0 16 -11 7q-33 -29 -67 -56t-67 -54zM1472 109
q12 -1 28 -2.5t36 -1.5q28 0 60.5 2.5t66.5 6t67 9t63 11.5q-21 48 -47.5 68.5t-68.5 20.5q-30 0 -58 -10t-54 -26.5t-49 -36.5t-44 -41zM1678 -98q82 13 146 47t118 91q19 22 24.5 42.5t1 41t-17 41t-28.5 41.5l24 79q4 11 11.5 7t10.5 -14q20 -24 32 -55.5t12 -65.5
q0 -45 -14.5 -85t-37.5 -78q-10 -16 -21.5 -33t-26 -32t-31 -25.5t-36.5 -13.5q-22 -5 -43 -6t-42 -1q-20 0 -41 1t-42 4q-20 2 -20 8q0 4 21 6zM1613 -40q0 -11 -9 -28.5t-21 -23.5q-54 -27 -107.5 -52.5t-110.5 -53.5q0 4 1 11.5t2.5 15t2.5 14t1 9.5zM1302 13
q1 -38 -16 -65.5t-44 -48t-59 -36t-60 -29.5q-30 -16 -58 -25t-58 -9q-57 -2 -92.5 26.5t-52 72.5t-16 95t15.5 94q-31 -8 -64 -21t-68 -32q-21 -8 -44 -9t-43.5 5.5t-37 21t-24.5 37.5q-20 -52 -59.5 -82t-93.5 -30q-41 0 -67.5 15t-43 39.5t-24 56t-9.5 65.5
q-20 -41 -55 -55.5t-78 -14.5q-9 0 -24.5 1t-31.5 4.5t-27.5 11.5t-11.5 22q0 31 46 85.5t156 120.5v40l20 66q1 3 3.5 5.5t3.5 -5.5q10 -63 21 -130t22 -127q7 -39 26.5 -64t45.5 -36.5t55.5 -9.5t56.5 15t48.5 37.5t31.5 59.5q5 -36 23.5 -54t43 -21.5t52.5 4t52 21.5
q-16 18 -31.5 40t-26 45.5t-13.5 48t6 47.5q12 28 23 51t26.5 39t38 25t58.5 9q48 -2 92.5 -24t75.5 -60q11 -15 5 -17t-22 6q-27 11 -60.5 14.5t-67.5 0t-64.5 -13.5t-51.5 -25q-10 -10 -15 -19t3 -24q27 -44 63.5 -64t77 -24t82.5 5.5t80 24.5q11 1 23 7.5t23 8.5
q-2 -6 -8 -18t-13 -24.5t-13 -23t-8 -13.5q-39 -15 -79 -27t-79 -26q-12 -32 -12 -64q0 -48 21 -86t59 -53q37 -15 83.5 -8t90.5 23.5t80.5 36.5t53.5 30q15 10 13 17.5t-18 11.5q-21 5 -52 8t-59 10.5t-47.5 22.5t-17.5 44q0 24 12.5 44t31.5 36.5t40 29.5t38 23
q28 16 50 16q35 0 54.5 -25.5t36.5 -63.5q14 -22 40.5 -30t52.5 -8q28 36 63 71t73 62t77 42.5t76 12.5t69.5 -28t56.5 -78q6 -11 5.5 -23t-5 -24.5t-10.5 -25t-11 -24.5q-8 -21 -32 -33t-44 -18q-150 -42 -360 -13q-10 -10 -22 -26.5t-20 -26.5q-5 -4 -8 -1t-1 8
q3 14 12.5 27t20.5 24q-21 7 -36.5 17.5t-27 24t-21 29.5t-19.5 35q-9 21 -22.5 28t-29.5 4t-33 -12.5t-33 -20.5q-11 -8 -19 -16t-10 -15.5t3.5 -15t21.5 -15.5q18 -9 43.5 -13.5t49 -10.5t40 -16t16.5 -30z" />
    <glyph glyph-name="sf276" horiz-adv-x="1171" 
d="M265 482q4 12 6.5 21t2.5 22q0 15 -3.5 28t-12.5 27v8q0 2 -0.5 9t3.5 7q6 0 11 -9t8.5 -20.5t5 -22t1.5 -14.5q0 -14 -3.5 -29.5t-13.5 -26.5q0 -3 -3 -3q-2 0 -2 1v1v1zM249 451q0 5 1 12t5 9l3 -39q0 -8 9 -8q10 0 13 8v30v12l1 1h2q1 0 3 -6q0 -3 2 -14.5t4 -14.5
q1 -4 4 -7.5t8 -3.5q3 0 3 3v3q0 8 -1.5 16t-1.5 17v5q0 5 2 7h1q2 0 4 -6t3.5 -13.5t2.5 -15t1 -10.5q0 -8 -3 -14.5t-13 -6.5q-5 0 -8 2t-7 5h-1q-2 -5 -7.5 -9t-11.5 -4q-7 0 -11.5 4t-6.5 9v29zM916 388h-16q-13 0 -22.5 -1.5t-20.5 -7.5v5q2 20 13.5 27t19.5 7h10
q7 0 15 0.5t17 0.5h14h5q4 0 4 -3q0 -12 -8 -23.5t-19.5 -21t-24.5 -16t-23 -9.5q-11 -4 -25 -9.5t-17 -5.5h-1q0 3 6 9q1 1 5.5 4t5.5 3l59 37zM97 230q1 -1 5 -2t5 -1q7 0 8 -1h15h16q13 2 21 5.5t8 18.5v7v10q0 14 -3 14h-2l-70 -48q-3 0 -3 -3zM614 224q5 -5 11 -7
q4 -2 10.5 -5t7.5 -5q2 0 13 -4t17 -5q2 -2 7 -2q0 3 -4.5 8.5t-9.5 11.5t-9.5 10.5l-5.5 5.5q-4 2 -5.5 2.5t-5.5 0.5q-8 0 -13 -3t-13 -8zM467 457v5q0 10 3.5 22t5.5 20q0 1 3 9q2 2 5 10h1v-25l25 -206q0 -2 0.5 -11t0.5 -16v-1v-2v-8v-6q0 -6 -1 -7q0 -2 -1 -8.5
t-2 -8.5q0 -5 -2 -15.5t-7 -13.5l-2 4zM180 217q-13 -23 -26.5 -29.5t-39.5 -6.5q-5 0 -14 0.5t-17.5 3t-15 7t-6.5 12.5q0 9 5.5 18t13 17.5t15.5 15.5t14 12q3 1 10 5t15.5 9.5t15.5 10t10 6.5q2 1 9 5t9 6l1.5 7.5t0.5 1.5q0 8 1 9q2 2 6 13t6 13q0 3 3 6l2 -1
q0 -1 0.5 -7.5t1.5 -15t1.5 -17t0.5 -14.5q0 -3 0.5 -13.5t0.5 -22.5t0.5 -22.5t0.5 -12.5q0 -12 2 -24t7 -22t14 -16.5t23 -6.5q27 0 38 18.5t11 41.5v12l-7 86v6q0 16 2 31t4 29q2 5 3 12t1 5q0 2 2 2q2 -2 2 -3v-1l22 -144q2 -12 6 -26t10.5 -26.5t17 -20.5t25.5 -8
q2 0 9 1t8 1q4 0 8 2t4 5v3q0 4 -1.5 12.5t-1.5 9.5l-23 86q-2 2 -3.5 12t-2.5 14v10v10q2 16 3.5 32.5t6.5 33.5q0 3 3 6q4 0 4 -4l34 -173q2 -9 3 -19.5t1 -20.5q0 -16 -6.5 -31t-13.5 -29q-10 -5 -20.5 -7t-20.5 -2q-17 0 -33 5.5t-21 22.5q0 2 -4 13t-4 13q-2 3 -3 3
q-2 -13 -7.5 -26.5t-14.5 -24t-21 -17.5t-27 -7q-20 0 -32.5 10.5t-19.5 26t-9 34t-2 34.5zM1055 85q0 1 -3 4v2q0 2 2 4q1 2 7.5 11t8.5 11q2 1 4.5 4t3.5 3h2q1 -1 12 -9.5t17 -13.5q2 -2 3.5 -3t1.5 -3t-3.5 -7.5t-8 -11.5t-9 -10.5t-6.5 -4.5q-4 0 -9 5q-3 2 -12 9.5
t-11 9.5zM390 58q109 52 162 78t55 27q4 3 4 4v2q-9 5 -20.5 12t-11.5 20q0 9 8 22.5t19.5 26t23.5 21.5t21 9t16.5 -5t14 -12t11.5 -14.5t10 -12.5q16 -18 33.5 -28t41.5 -10q18 0 34 3.5t32 12.5q7 3 11 10.5t11 7.5q0 -8 -3.5 -15t-3.5 -15q9 -3 19 -3h19q17 0 30.5 3.5
t24.5 17.5q2 3 4.5 9.5t7.5 6.5q3 0 3 -6q0 -8 -6 -15t-6 -16h2q1 -1 8 -1h8q14 0 26.5 1t23.5 6q3 3 6.5 8.5t7.5 11.5t7 10t5 4t3 -1v-5q0 -3 -0.5 -6.5t-0.5 -6.5q0 -8 10.5 -12t16.5 -6q11 -1 18.5 -2t17.5 -1h7v2v3q0 29 -11.5 58t-25.5 53q-1 3 -5.5 11t-10 17.5
t-10.5 18t-7 11.5q-2 5 -7.5 11.5t-10.5 11.5h-3h-3h-3h-3q-9 12 -16.5 24t-12.5 25v5q0 2 1 8.5t2.5 13t4.5 11.5t6 5q6 0 10.5 -4t6.5 -8q21 -25 42.5 -54.5t38 -62t27 -67t10.5 -68.5q0 -6 -0.5 -17t-2.5 -22.5t-6.5 -21t-11.5 -12.5h-14q-13 0 -32.5 2t-30.5 11
q-5 5 -7 9.5t-4 9.5q-16 -15 -32.5 -23t-39.5 -8q-7 0 -12 1.5t-11 3.5q-2 0 -4.5 2t-4.5 2q-16 -5 -30 -7t-29 -2q-11 0 -22.5 1.5t-18.5 12.5q-5 -2 -9.5 -5t-9.5 -4q-11 -6 -25 -6h-24q-20 0 -34.5 6.5t-28.5 20.5q-5 -7 -11.5 -18t-17.5 -11q-10 0 -20.5 4.5t-17.5 6.5
h-5q-2 -2 -5 -8t-3 -7q-2 -2 -3 -6q-30 -31 -69.5 -49.5t-82.5 -25.5q-8 -2 -20.5 -4l-25 -4t-22 -3t-10.5 -1h-5q2 4 5.5 4.5t5.5 1.5zM352 17v-2h-2v2h2zM127 126v-3q0 -7 -1 -15t-6 -13l-119 -88l5 30zM642 91v-3q0 -2 -0.5 -7t-1.5 -12l-1 -2l-86 -63l-3 -1v1v2
q1 2 2 11.5t2 11.5q0 -2 0.5 -1t1.5 6l86 61v-4zM1171 92l-6 -28l-87 -64v3v1q0 5 3 25l2 2z" />
    <glyph glyph-name="sf279" horiz-adv-x="6700" 
d="M4532 777q6 26 11 47.5t5 54.5q0 35 -7 65.5t-26 63.5q0 18 -1 24t-1 13t2 12.5t8 5.5q14 0 25 -20.5t18.5 -47.5t11.5 -53t4 -36q0 -33 -7.5 -69t-27.5 -60l-9 -6h-4q0 2 -2 2v4zM4495 638q0 19 -3.5 33t-3.5 34q0 13 5.5 27.5t14.5 18.5l7 -90q0 -18 23 -18q8 0 16 2
t8 16v73q0 20 7 27q4 0 7 -14q2 -4 4.5 -13.5t4.5 -20.5t3 -20.5t1 -13.5q6 -12 13 -17.5t13 -6.5t10 1t4 5v7q0 20 -2.5 38.5t-2.5 39.5v12q0 4 1 8.5t3 6.5q5 0 10 -13.5t8.5 -31.5t6 -35.5t2.5 -24.5q0 -21 -6 -37.5t-32 -16.5q-14 0 -20 7.5t-15 16.5h-1q-9 -14 -21 -24
t-26 -10t-26 9t-13 25zM6057 558h-36q-34 0 -56.5 -4t-48.5 -19v12q0 38 25.5 58t58.5 21q2 0 18 1t36 1q21 0 41 0.5t32 0.5h7q12 0 12 -4q0 -31 -18.5 -58.5t-45.5 -49.5t-57.5 -37.5t-53.5 -22.5q-15 -10 -40 -16.5t-59 -15.5h-3q0 4 6 8.5t7 8.5q6 2 16.5 10t13.5 8
l137 87zM4137 187q2 -2 8 -3.5t14 -4.5q1 0 6.5 -1t14.5 -3h35h39q14 3 26 6t21 8.5t14 15t5 26.5v20v24q0 11 -1 20.5t-6 9.5h-1q-172 -109 -172 -114q-3 -2 -3 -4zM5351 173q2 -9 12 -13t11 -4q3 -3 9.5 -6.5l13 -7t13 -6t9.5 -3.5q3 0 11 -2.5t18 -6t19.5 -7t15.5 -4.5
q1 -3 4 -4t4 -1h10q0 8 -9 21t-20 25.5t-21 22.5t-12 13q-9 5 -12.5 5.5t-16.5 0.5q-19 0 -29.5 -5t-29.5 -18zM5004 718v12q0 22 6.5 49.5t11.5 46.5q4 2 6.5 10.5t4.5 13.5q1 1 4 8t8 17h3v-63l57 -481v-63v-2v-3v-53q0 -1 -1.5 -6t-3 -11t-2.5 -11.5t-1 -8.5
q-2 -6 -4.5 -16t-4.5 -20t-4.5 -18.5t-5.5 -12.5l-6 10zM4328 156q-14 -28 -27.5 -45t-30.5 -26t-39 -12t-52 -3q-12 0 -33 1.5t-41.5 7.5t-35.5 17.5t-15 31.5t11.5 41t29 40.5t37 36.5t35.5 29q6 1 23 10.5t36.5 21.5t36.5 22.5t22 13.5q1 3 6.5 6.5t12.5 7t14 7.5t10 7
q4 7 4 20v11q0 1 0.5 4t1.5 8q3 3 6.5 11t7 18t7 19t6.5 14q3 7 11 12v-4q2 0 4.5 -14.5t5 -34.5t4 -41.5t1.5 -34.5v-164q2 -28 6.5 -57t16 -52.5t32 -38.5t53.5 -15q32 0 54.5 12t36.5 31.5t20.5 45t6.5 52.5v29l-24 200v14q0 36 7 71t12 71q0 6 4.5 17.5t4.5 18.5
q3 0 3 7q3 -3 4.5 -5t3.5 -6l52 -336q2 -28 10.5 -61.5t25 -62t41.5 -48t61 -19.5h21q6 0 11.5 2t7.5 3q9 0 18 4.5t9 12.5v5q-1 7 -2.5 16t-3 17t-3 14t-2.5 7l-51 199q0 3 -1.5 12t-4 19t-4 19.5t-1.5 14.5v22v22q5 42 9.5 80t12.5 74q2 6 2.5 9t5.5 10q3 0 4 -3t1 -5v-4
l81 -405q6 -22 7 -46.5t1 -45.5q0 -42 -15 -75.5t-32 -66.5q-21 -13 -45.5 -17t-51.5 -4q-17 0 -36 3t-36 10.5t-30 19t-19 29.5q-2 4 -5.5 13.5l-7 19t-6.5 18t-4 11.5q0 3 -5 8q-6 -32 -19 -63.5t-33 -56.5t-48 -40.5t-64 -15.5q-50 0 -79 24.5t-44.5 61t-20.5 80t-7 81.5
zM6383 -156q-3 3 -5.5 7t-4.5 4v3q0 5 1 6.5t1 5.5q3 3 9 10.5t12.5 15.5t11.5 15t6 10q2 2 7 5t12 11q4 0 13 -6t20 -14t22.5 -17t20.5 -16q5 -4 8.5 -5.5t3.5 -8.5q0 -6 -9 -19t-20.5 -26.5t-22.5 -24t-14 -10.5q-5 0 -9.5 4t-12.5 10q-2 2 -9.5 8t-16 12.5t-15.5 12
t-9 7.5zM5321 26q4 0 11 4t7 10v2q-10 6 -23 12.5t-25 15.5t-20.5 21t-8.5 29q0 21 19.5 52t47 60t58 49.5t52.5 20.5q21 0 37.5 -11.5t30 -27.5t25 -33t22.5 -28q41 -44 83 -66.5t99 -22.5q42 0 78.5 7t73.5 27q6 4 12 11l12 14t12.5 12.5t14.5 5.5q0 -20 -7.5 -36
t-7.5 -33q20 -6 40.5 -7t47.5 -1q40 0 71 9t58 39q2 4 5 11t6.5 14t8 11.5t10.5 4.5q5 0 5 -15q0 -10 -4.5 -18.5t-10 -17t-10 -17t-4.5 -18.5h5q4 -3 18 -3h20h2q30 0 59.5 2t55.5 15q10 4 18.5 17t16 26.5t14.5 24t13 10.5q4 0 4 -4l2 -9q0 -9 -1 -17t-1 -17
q0 -10 7.5 -16t18 -10.5t21 -7.5t16.5 -6q26 -1 45 -3t40 -2h12l4 4v8q0 69 -26.5 134t-59.5 122q-5 6 -16 25t-23 41t-23 42t-16 28q-8 12 -19 27.5t-23 28.5h-6q-7 -4 -18 -4q-4 0 -8 4q-17 25 -34 53t-33 60v14q0 5 2 19.5t6.5 29.5t11 27t15.5 12q15 0 23 -10.5
t17 -19.5q50 -59 99.5 -128t89 -145t64 -155.5t24.5 -159.5q0 -15 -1.5 -41.5t-7 -53.5t-16.5 -49t-29 -29h-28h-35q-29 0 -62 6.5t-52 25.5q-12 14 -14.5 22t-7.5 21q-40 -36 -79.5 -54.5t-95.5 -18.5q-14 0 -26 2.5t-26 9.5q-5 0 -9.5 6t-10.5 6q-66 -24 -136 -24
q-27 0 -52 3.5t-45 29.5q-13 -5 -22 -12.5t-22 -8.5q-27 -13 -58 -15t-59 -2q-45 0 -79 16t-68 50h-2q-4 -8 -10 -20.5t-14.5 -23.5t-19 -18t-22.5 -4q-23 6 -38.5 11t-28.5 4.5t-26 -9t-31 -29.5q-72 -77 -163 -118t-197 -58q-17 -5 -46.5 -10t-58.5 -9.5t-51 -7t-23 -2.5
h-12q3 8 11.5 9.5t15.5 3.5zM4730 -317v3v-3zM4208 -58v-9q0 -15 -2 -32.5t-14 -30.5l-282 -206l16 70zM5414 -142v-5q0 -13 -2 -28t-4 -15v-5l-203 -147l-6 -3v3v5q0 2 1 9.5t2 15.5t2 15.5t1 9.5q6 6 6 9v3l203 145v-12zM6650 -136l-8 -66l-209 -149v6v3q2 7 4.5 21
t5.5 34v6zM1560 914q7 0 7 -8h-7v8zM2951 416q10 -12 24 -25.5t30.5 -24t34.5 -17.5t36 -7h14q-7 16 -20.5 30t-30.5 23.5t-35.5 15t-34.5 5.5h-18zM600 332q12 -19 36 -28.5t44 -14.5q6 -3 16.5 -7t21 -7.5t19 -6t10.5 -2.5h9l-5 2q-5 17 -17.5 32.5t-24.5 31.5
q-6 2 -14 9.5t-13 12.5q-1 1 -6 1h-10q-21 0 -32 -4t-26 -16q-5 0 -8 -3zM3487 848q5 -9 6 -18t1 -19v-38q4 -11 9 -12.5t12 -1.5q21 0 21 17v72v12h4l2 -1q3 -12 5 -28t6 -30t12.5 -23.5t24.5 -9.5q0 24 -4 43.5t-4 39.5q0 6 2 9t3 7h3q4 0 4 -3l17 -73v-9q0 -21 -6 -34.5
t-24 -13.5q-9 0 -17 6.5t-13 10.5q-8 -12 -17.5 -20t-21.5 -8q-14 0 -24.5 11t-10.5 25v65q0 2 2.5 9.5t4.5 14.5h3zM2547 676q0 4 8 17t19 26.5t22 24t17 10.5h2l5 -3l70 -75q0 -14 -15 -27q-1 -3 -6 -9t-11 -13t-12.5 -13.5l-9.5 -9.5q-2 -2 -6.5 -2.5t-7.5 -0.5
q-8 0 -20.5 9t-24.5 21t-21 24.5t-9 20.5zM1847 617v9q0 7 4 19.5t9 17.5v7h4l7 -109q0 -11 8.5 -14.5t17.5 -3.5q25 0 27 23v83q0 2 3 12t3 15q0 3 1 3q7 0 7 -9l19 -80q2 -32 32 -32q12 0 15 3v9q0 26 -3.5 48.5t-6.5 38.5t-2 25t10 9q6 0 11 -17.5t9.5 -39.5t7 -42.5
t2.5 -25.5q0 -20 -9 -38t-34 -18q-23 0 -44 26q-8 -14 -21 -27t-34 -13q-19 0 -30 12t-13 32v77zM2930 -35h7v-8q0 -5 -1.5 -18.5t-6.5 -35.5l-4 -4l-280 -208h-4l4 8q0 8 1 21.5t3 37.5l8 4zM3281 917l400 152q-3 -2 -6 -9t-6 -15t-5.5 -14.5t-3.5 -7.5q-5 -2 -5.5 -5.5
t-6.5 -5.5l-396 -161v9zM1812 191v-4q-1 -2 -2.5 -9t-3 -14.5t-3 -14t-1.5 -7.5q-4 -7 -4 -10q0 -2 -2 -2l-369 -227h-7l15 62q0 7 6 7l364 215zM2755 585q13 44 20.5 82.5t7.5 86.5q0 42 -5.5 79t-22.5 70q-2 4 -7 11t-10 15t-9 16.5t-4 14.5v6q0 4 1 16.5t5 31.5q0 7 1 14
t6 7q10 0 18.5 -6t15 -14.5t11 -17.5t7.5 -16q25 -45 33.5 -92t8.5 -98q0 -26 -3 -56.5t-11.5 -60.5t-22 -56t-34.5 -42l-6 7v2zM1391 966q-29 0 -50 -2.5t-47 -17.5v11q0 41 37 66q6 3 17 7.5t20 5.5q39 0 81 1.5t80 1.5q0 -29 -15 -55t-39.5 -47.5t-55.5 -39t-62.5 -30.5
t-61 -21t-51.5 -11q0 3 6 7.5t9 5.5l168 109l6 9h-42zM1032 -9q0 4 9 18.5t20 29.5t21 27t13 12q6 0 16 -8.5t22 -18.5t24.5 -18.5t23.5 -8.5h3q17 15 29 34.5t27 30.5h4l8 -3l74 -48q2 -5 3.5 -8.5t1.5 -9.5q0 -3 -4 -10q-4 -3 -11 -11.5t-14 -17.5t-12 -16t-5 -8
q-9 -9 -11.5 -12t-7.5 -3q-6 0 -18 8t-25 18t-24 19.5t-14 12.5q-6 -5 -13.5 -17.5t-15.5 -25t-16.5 -22t-17.5 -9.5q-7 0 -22 7.5t-30 18t-26.5 21.5t-11.5 18zM3910 832v19q0 11 3 34.5t8.5 48t14 45t19.5 26.5v-64l57 -481v-121q0 -3 -1.5 -8.5t-3 -12.5t-2.5 -12.5
t-1 -8.5q0 -1 -1.5 -5.5t-3 -10.5t-3 -11t-1.5 -7q-3 -1 -3.5 -11t-5.5 -14l-4 -8l-3 13zM2386 835v24q0 3 2 15t5 29t7 35t9 34t10.5 26t10.5 10v-54l58 -529v-27v-35v-14v-10q0 -5 -2 -7q0 -9 -2 -24.5t-6 -31.5t-9 -29t-11 -17q-5 12 -6 24t1 21zM968 638l1064 307
q-1 -3 -3.5 -9.5t-5 -14t-4.5 -14t-2 -8.5t-9 -11q0 -2 -2 -2h-2l-1073 -328v3zM3158 -79q0 4 7 5l44 7q101 27 175 76.5t136 132.5q12 11 17.5 22t13.5 31v5q0 3 -9 8l-26 20t-23.5 22t-17 25.5t-6.5 29.5q0 47 13 72q0 5 2 12.5t10 12.5l4 -4q16 -22 30.5 -38.5t31 -27
t37 -16t48.5 -5.5q22 0 44 1t46 7l6 4v40l-30 371v66q0 4 -6.5 10.5l-14.5 14.5t-14.5 17t-6.5 18q0 12 3.5 21.5t8.5 17.5q3 3 8.5 12.5t12 20.5t13 21t9.5 13q0 5 5 5q0 -20 7 -34t18.5 -25t25.5 -21.5t29 -23.5q7 -4 7 -7v-9l-46 -86l26 -340v-83q0 -2 -4.5 -11t-4.5 -14
q-4 -14 -9.5 -31t-13.5 -33t-20 -28.5t-29 -18.5q-9 -5 -21 -5.5t-19 -0.5h-93l-1 -5q-9 -32 -28 -77t-46 -87t-60 -74.5t-69 -39.5q-6 0 -26 -1.5t-43 -4t-43.5 -4t-27.5 -1.5h-7h-15q-19 0 -36 3.5t-22 11.5zM1620 -103q0 1 19.5 6.5t45.5 12.5t51.5 14t37.5 12
q36 21 65 40t54.5 40.5t48.5 47t47 60.5q6 9 14 19.5t8 22.5q0 6 -12.5 13.5t-27.5 19.5t-27.5 30t-12.5 45v10q0 5 2 16t2 13q2 9 5.5 22.5t8.5 33.5q4 2 6 1t3 -1l20 -33q20 -26 49 -39.5t60 -13.5h81h9h2h5h7h2q6 1 12 3.5t6 3.5l-34 409v12v44q0 10 -6 17.5t-12.5 15
t-12.5 16t-6 22.5q0 29 17 54l34 50l7 9h3q0 -7 2 -20t2 -19l3 -3q14 -21 33.5 -34.5t40.5 -30.5q1 -1 1 -6q0 -11 -5.5 -23t-12.5 -25t-14.5 -25t-11.5 -22v-3q7 -91 15 -186.5t8 -192.5v-47q-1 -7 -3.5 -17t-6 -20.5t-7.5 -20.5t-7 -16q-9 -20 -20 -33t-25 -22
q-7 -5 -19.5 -7.5t-23.5 -2.5h-10h-34h-60q-20 -51 -42 -96t-55 -87q-26 -42 -55.5 -66.5t-77.5 -29.5q-6 0 -17.5 -1t-22.5 -2t-19.5 -2t-9.5 -1q-3 0 -17.5 -1t-28.5 -1q-18 0 -36.5 1t-38.5 7q-6 3 -6 7zM895 -190q-35 17 -69 36.5t-66 42.5t-54 42t-35 36
q-11 17 -18.5 26.5t-9.5 11.5l-15 20t-14 19q-3 5 -11.5 24t-20.5 45h-2q-76 -70 -162 -107t-186 -53q-17 -3 -44.5 -7.5t-54.5 -9t-48 -7.5t-24 -3h-11q5 5 12.5 9t12.5 7l481 230q10 10 24 15q4 0 14 13v2q-27 10 -50 27.5t-23 45.5q0 27 17 56.5t37 51.5q3 0 9 6t13 14.5
t14 16t12 10.5q11 14 27 24t32 10q20 0 35.5 -9t29 -22.5t25 -29t23.5 -28.5q38 -51 83 -79t108 -28q69 0 126 29t108 80h1l5 -2q2 -48 28.5 -64t71.5 -16q40 0 80 10.5t80 33.5l43 22q0 4 -9 10.5t-21.5 14t-25.5 15t-21 13.5q-44 24 -96 24q-18 0 -26.5 -5t-24.5 -5
q-7 0 -7 10q0 9 1 13t6 13q8 20 15 31.5t16.5 17.5t23.5 7.5t37 1.5q28 0 54.5 -8t52 -20.5t50.5 -27.5t50 -28q111 -60 236 -63v-4l-49 -76h-122q-5 0 -23 -3t-32 -3q-4 -7 -15 -7q-9 0 -12 -5l-154 -62q-27 -14 -58.5 -21t-60.5 -7q-48 0 -82.5 21t-46.5 69h-1v-2
q-24 -35 -49.5 -57.5t-55 -36.5t-64 -19.5t-75.5 -5.5q-45 0 -77.5 16.5t-67.5 49.5q-6 -10 -13 -21.5t-15.5 -21.5t-18 -16.5t-21.5 -6.5q-23 0 -49 7.5t-48 15.5h-2q-2 0 -6.5 -7.5t-10 -16.5t-10.5 -17t-7 -10q1 -6 8 -10t9 -10q63 -55 126 -100.5t140 -81.5q9 -6 29 -16
t41 -19t38 -16t20 -7l254 -63q4 -3 20.5 -5.5t36 -4.5t38.5 -4.5t29 -5.5h19q14 0 34.5 -0.5t41.5 -0.5h36h7l270 14q148 22 222 33.5t82 12.5q8 3 17.5 6t22.5 5q25 8 53.5 15.5t50.5 13.5l31 8l28 11q13 6 24 11t22 11l128 47q3 1 12 5.5t19.5 10t20.5 10.5t16 7
q4 3 13.5 9.5t20.5 13.5t20.5 13.5t13.5 9.5q16 13 34.5 27.5t26.5 34.5v20q0 34 -9.5 65.5t-30.5 63.5q-3 9 -8 17.5t-10.5 17t-9 18t-3.5 20.5q0 54 10 73q0 2 1 6t6 11h7q15 -22 29.5 -42.5t32 -36.5t39.5 -25.5t52 -9.5q27 0 49.5 8.5t33.5 41.5q15 28 25.5 59.5
t30.5 60.5q21 28 53.5 51.5t70 40.5t77 28.5t74.5 15.5q33 2 59 1.5t53 1.5q-24 25 -50.5 47.5t-56 40t-61.5 28t-67 10.5q-14 0 -25 -2.5t-22 -2.5h-11q0 5 -2.5 8t-2.5 5l5 11l31 61q6 13 22 13h29q48 0 95 -18t89 -45l220 -135q26 -20 56.5 -26.5t65.5 -20.5v-4
q0 -5 -1.5 -8t-3.5 -6l-30 -72q-2 -3 -12 -3h-7q-26 0 -46.5 7.5t-46.5 9.5q-14 2 -41 4t-55.5 4t-51.5 3.5t-28 1.5h-45q-45 0 -87.5 -2t-84.5 -13v-6v-6q20 -17 40.5 -35.5t36.5 -39.5t26 -45t10 -52q0 -16 -4 -33t-12 -31.5t-20.5 -25.5t-28.5 -15h-26q-86 0 -154 50
q-14 14 -25.5 29t-31.5 26q-11 -30 -22 -54.5t-26 -41t-36.5 -25.5t-53.5 -9q-9 0 -19 -1t-19 1h-2q-5 -35 -10.5 -65t-10.5 -63q-12 -35 -30.5 -64t-44.5 -50q-8 -5 -23.5 -14.5t-33 -20t-32.5 -20t-21 -13.5q-8 -6 -25.5 -16.5t-36.5 -20t-35 -17t-20 -7.5l-37 -15l-5 -4
q-2 0 -20 -7t-43 -16t-51.5 -18t-45.5 -13l-5 -1h-6q-5 -2 -13 -5.5t-20 -5.5l-34 -9q-5 0 -9.5 -1t-6.5 -1q-12 -5 -39 -10t-57 -10t-56 -9t-36 -7q-14 0 -48 -2.5t-72 -5.5t-73 -5.5t-52 -2.5q-4 -4 -37 -4h-53h-59q-34 0 -35 4q-12 0 -34.5 1.5t-45.5 3.5t-42 4.5
t-24 4.5l-229 46q-5 1 -14 3.5t-19 5t-19.5 4.5t-13.5 2q-8 3 -27.5 9.5t-41.5 14t-41.5 15.5t-26.5 13z" />
    <glyph glyph-name="sf263.003" unicode="&#x656;" horiz-adv-x="0" 
d="M-80 119q5 19 11 35t17 42q4 8 10 8q5 0 11 -6q30 -31 44.5 -79.5t17.5 -101.5v-23q0 -42 -7 -82q-10 -51 -28 -87q-8 -14 -11 -15l-1 -1q-2 0 -2 7q0 4 1 11q5 40 7 78v15q0 30 -5 60q-6 36 -21.5 71t-43.5 68z" />
    <glyph glyph-name="sf438.002" unicode="&#x654;" horiz-adv-x="0" 
d="M66 1148q-15 21 -15 39q0 47 46 95q-70 36 -70 83q0 29 17 63.5t46 64.5q62 65 120 65q32 0 53 -14.5t21 -35.5q0 -32 -43 -72q-19 24 -30.5 30.5t-33.5 6.5q-26 0 -49 -11q-13 -7 -23.5 -18t-10.5 -19q0 -7 10 -20.5t23 -21.5q32 -23 80 -23q47 0 118 24l30 10l26 9
q5 2 20 7q-15 -51 -34 -74.5t-56 -36.5l-32 -11l-30 -11l-34 -11q-109 -40 -149 -118z" />
    <glyph glyph-name="sf438.003" unicode="&#x653;" horiz-adv-x="0" 
d="M-143 -49q-25 0 -42.5 -7t-30.5 -20l-38 -38q-16 -16 -35 -16q-21 0 -35.5 15.5t-14.5 35.5t15 35l43 43q21 21 45 34q33 18 70 18h205q46 0 73 27l38 38q16 16 36 16t35 -15t15 -36q0 -19 -16 -35l-43 -43q-29 -29 -57 -40.5t-58 -11.5h-205z" />
    <glyph glyph-name="sf438.004" unicode="&#x655;" horiz-adv-x="0" 
d="M102 -502q-14 21 -14 39q0 47 46 95q-71 36 -71 83q0 29 17 63.5t46 64.5q62 65 120 65q32 0 53.5 -14.5t21.5 -35.5q0 -32 -44 -72q-19 24 -30.5 30.5t-32.5 6.5q-27 0 -50 -11q-13 -7 -23.5 -18.5t-10.5 -18.5q0 -8 10.5 -21t22.5 -21q33 -23 80 -23t118 24l30 10l26 9
q5 1 21 7q-15 -51 -34.5 -74.5t-55.5 -36.5l-32 -11l-31 -11l-34 -11q-108 -40 -149 -118z" />
    <glyph glyph-name="sf438.006" unicode="&#x615;" horiz-adv-x="0" 
d="M66 7q-20 0 -39.5 -8.5t-37.5 -21t-34 -27t-28 -26.5q9 1 22 1h14q6 -1 11 -1q18 0 38 2q27 1 57.5 7t61.5 21q-6 27 -26 41q-20 12 -36 12h-3zM-109 -70q14 18 27 39.5t21 43.5q0 54 -2 106q-1 26 -1 53q0 26 1 53q-8 14 -17.5 24t-9.5 26q10 18 20.5 36t21.5 35
q3 3 8 6q2 1 3 1q3 0 5 -4q6 -23 23.5 -43t36.5 -38q-9 -26 -19.5 -46t-20.5 -33q1 -24 1 -43q0 -20 -1 -34q-1 -30 -3 -46.5t-3.5 -23.5t-1.5 -10q24 21 53.5 41t63.5 20q48 0 77 -30q27 -28 27 -72v-6q-10 -14 -30 -43t-47 -53q-25 -15 -56.5 -25t-65 -16t-66.5 -8.5
t-61 -2.5q-12 0 -19 1t-19 6.5t-35 18.5t-67 37q-11 5 -11 9l1 1q2 4 15 5q17 2 35 2h10q23 -1 44 -1q22 0 38.5 2.5t23.5 11.5z" />
    <glyph glyph-name="sf266.003" unicode="'" horiz-adv-x="353" 
d="M100 1397q32 7 64 7h13q38 -2 76 -2l-26 -358l-102 16z" />
    <glyph glyph-name="sf263.005" unicode="&#x657;" horiz-adv-x="0" 
d="M-125.5 17q-19.5 28 -19.5 78q0 8 1 18.5t2 21.5t3 20.5t5 15.5q-13 3 -21.5 9.5t-15 14.5t-9.5 16.5t-3 15.5q0 9 4.5 22t10.5 21q4 -4 10.5 -7.5t15 -7t17.5 -6t17 -3.5q16 33 42 71.5t56 71.5t60 55t56 22q7 0 15.5 -4t12.5 -8q-12 -9 -28.5 -25.5t-35 -36.5t-37 -42
t-34.5 -43t-28.5 -40t-18.5 -31q20 -4 40 -12t35.5 -21t25.5 -30t10 -38q0 -24 -13.5 -50t-34 -47t-44.5 -35t-46 -14q-31 0 -50.5 28zM6 126.5q-7 10.5 -20 19t-31 14t-38 5.5q-5 -7 -8.5 -19t-3.5 -21t2.5 -20t8 -20.5t14.5 -16t22 -6.5q12 0 23 4.5t19.5 11t13.5 13.5
t5 14q0 11 -7 21.5z" />
    <glyph glyph-name="sf264.003" unicode="&#x658;" horiz-adv-x="0" 
d="M-16 168q5 3 9 3h2q2 -1 2 -4q0 -2 -2 -7q-10 -31 -10 -64q0 -4 1 -9q1 -38 26 -69q13 -17 30 -20q6 -1 11 -1q12 0 24 4q17 6 33 17.5t27 25.5q4 7 9 7h2q4 -1 4 -5q0 -2 -1 -5q-6 -27 -19.5 -56t-34 -54t-46 -42t-55.5 -20q-32 0 -50 16t-26 39.5t-9 51.5v13q0 20 2 37
q6 42 24 78.5t47 63.5z" />
    <glyph glyph-name="sf265.006" unicode="&#x60d;" horiz-adv-x="216" 
d="M366 1307q0 -6 -4.5 -22.5t-12 -36t-16.5 -38t-19 -28.5q-9 -13 -17 -13h-2q-10 2 -20 12q-14 12 -28 12h-2q-16 -1 -30.5 -10t-27.5 -22.5t-23 -23.5q-32 -32 -57.5 -71t-53.5 -75q-10 -13 -16 -13q-1 0 -2 1q-4 1 -4 8q0 5 2 12q15 61 48 118.5t71 108.5q16 21 35 43
t41 39t48 27q22 8 46 8h10q34 -7 34 -36z" />
    <glyph glyph-name="sf256.005" unicode="&#x601;" horiz-adv-x="8" 
d="M2806 -247q-50 -132 -148 -210t-202 -202q-31 -32 -37 -32q-2 1 -2 3v4q0 9 6 22q50 126 165.5 215.5t115.5 131.5q-3 18 -42 20q-39 1 -56 -4q-194 -68 -306 -111t-292 -89q-309 -78 -593.5 -112t-497.5 -26l-18 1q-176 7 -419 53q-254 49 -415 226q-33 -49 -96 -114.5
t-169 -61.5h-4q-97 4 -168 100q-63 85 -97 87q-5 0 -9 -2q-72 -33 -107 -92.5t-61 -120.5t-51 -107t-77 -44q-46 1 -117.5 85t-71.5 280q0 36 27 86q9 16 15 15q15 0 19 -77q0 -68 16 -172q16 -102 100 -105h3q44 -2 50.5 62t65.5 153q34 53 99.5 118.5t117.5 63.5
q63 -3 127 -93.5t151 -93.5q104 -4 159.5 64t101.5 108q16 14 29 14q14 -1 25 -20q33 -72 196 -156t463 -104q51 -4 103 -6q274 -11 602 28q392 47 986 244q67 21 131 37.5t114 18.5q9 1 17 0q38 -1 47 -28q7 -18 7 -34q0 -12 -3 -23zM-161 197q-1 -20 -3 -33
q-12 -76 -52 -91l-278 -108q-26 -10 -26 14q0 20 16 37q14 17 32 35q7 7 19 18q-23 18 -34 27q-36 34 -36 57q0 96 62 162q58 61 129 61q27 0 55.5 -30t28.5 -66q0 -27 -11 -36t-36 -9q-11 0 -37.5 2.5t-41.5 2.5q-33 0 -63.5 -18t-30.5 -37q0 -13 59.5 -29.5t92.5 -16.5
q21 0 90 29q22 10 65 29z" />
    <glyph glyph-name="sf266.005" unicode="&#x2018;" horiz-adv-x="353" 
d="M100 1397q32 7 64 7h13q38 -2 76 -2l-26 -358l-102 16z" />
    <glyph glyph-name="sf266.005" unicode="&#x2019;" horiz-adv-x="353" 
d="M100 1397q32 7 64 7h13q38 -2 76 -2l-26 -358l-102 16z" />
    <glyph glyph-name="sf266.004" unicode="&#x201c;" horiz-adv-x="542" 
d="M289 1403q35 7 71 7h5q37 -1 77 -1l-26 -359l-103 16zM100 1395q13 2 32.5 3.5t41 2.5t42.5 1.5t37 0.5l-26 -340q-45 -11 -69 -15t-29 -4q-1 0 -1 1q-3 26 -5.5 54.5t-5.5 68t-7 94t-10 133.5z" />
    <glyph glyph-name="sf266.006" unicode="&#x201d;" horiz-adv-x="542" 
d="M289 1403q35 7 71 7h5q37 -1 77 -1l-26 -359l-103 16zM100 1395q13 2 32.5 3.5t41 2.5t42.5 1.5t37 0.5l-26 -340q-45 -11 -69 -15t-29 -4q-1 0 -1 1q-3 26 -5.5 54.5t-5.5 68t-7 94t-10 133.5z" />
    <glyph glyph-name="sf256.009" unicode="{" horiz-adv-x="1024" 
d="M490 796q0 -27 -18 -44t-45 -17q-25 0 -43.5 17.5t-18.5 43.5t18.5 43.5t43.5 17.5q26 0 44.5 -17.5t18.5 -43.5zM552 609q-36 -17 -65 -51q-24 -28 -33 -50q-17 1 -29 2q-68 7 -116 29q-25 14 -54.5 50.5t-26.5 46.5q2 9 43.5 18.5t87.5 9.5q43 0 80.5 -10.5t78.5 -28.5
q14 -6 34 -16zM416 389q-16 -10 -29 -14q-43 -15 -100 -15q-53 0 -110 32q-19 10 -47 33q28 22 47 32q59 33 110 33q59 0 99 -14q13 -4 30 -15l-12 -36zM552 241q-20 -9 -33 -15q-45 -20 -82 -30t-80 -10q-46 0 -86.5 9.5t-42.5 18.5q-3 10 26 46.5t55 49.5q39 19 95 27
q19 2 50 5q9 -22 32 -49q31 -35 66 -52zM490 54q0 -26 -18 -44t-45 -18q-24 0 -43 18t-19 44q0 27 18 44t44 17t44.5 -17.5t18.5 -43.5zM846 -562q-19 28 -37 56q-57 86 -84 130q-54 88 -84 147q-33 63 -74 166q-29 71 -59 155q-12 34 -24 69l66 30q67 33 67 44q0 6 -40 38
q-26 21 -43 39q-27 30 -57 76q-9 14 -23 37q13 23 22 37q28 43 58 76q16 17 55 48q28 22 28 29q0 11 -66 43q-22 10 -67 30l24 68q39 108 58 156q37 92 75 166q31 62 83 146q30 48 83 129q19 29 39 59q-8 4 -111 -92q-112 -104 -182 -186q-34 -41 -79 -105.5t-71 -104.5
q-15 -23 -29 -46q-55 0 -75 -10t-20 -35q0 -17 8.5 -31.5t35.5 -42.5l53 -48h-14t-20 1q-68 0 -111 -12q-67 -19 -63 -61q0 -26 30 -70q10 -14 30 -39q-17 -5 -27 -8q-27 -9 -51 -21.5t-57 -44.5q-11 -11 -29 -31q18 -19 29 -30q35 -34 59 -47q17 -8 59 -21q6 -2 17 -5
q-20 -25 -30 -40q-30 -45 -30 -71q-5 -50 90 -66q43 -7 84 -7h20.5t13.5 1l-53 -49q-44 -45 -44 -74q0 -24 20.5 -34.5t74.5 -10.5q14 -22 29 -45q41 -63 69 -103q43 -62 81 -108q72 -84 181 -185q103 -96 112 -92zM918 -607h-82q-26 22 -51 44q-74 64 -121 109
q-79 76 -137 142q-44 50 -90 114q-28 39 -61 90q-12 18 -23 36q-8 -1 -13 -1q-38 0 -63 13q-41 21 -41 72q0 27 21 61q7 11 22 29q-61 3 -88 15q-45 20 -60 62q-3 11 -3 22q0 28 16 65q5 12 17 32q-37 9 -101 68q-21 20 -59 59q37 39 58 58q66 60 102 68q-11 20 -16 32
q-17 40 -17 67q0 10 3 21q18 51 85 69q22 5 63 7q-14 18 -21 29q-22 35 -22 61q0 41 26.5 63.5t78.5 22.5h7t5 -1l22 36q28 43 62 90q45 62 90 113q56 64 136 141q72 69 121 112t52 43h82q-1 0 -47 -71q-50 -78 -103 -167q-67 -113 -104 -189t-87 -204q-17 -43 -43 -114
q43 -20 66 -33q70 -40 84 -72q-19 -14 -30 -23q-64 -50 -89 -76q-17 -18 -39 -52q-7 -11 -19 -31q12 -19 19 -30q24 -37 39 -53q19 -20 70 -61q17 -14 49 -39q-14 -32 -83 -72q-23 -13 -67 -33q15 -41 25 -68q59 -154 106 -250q37 -77 102 -187q42 -71 104 -167
q46 -72 47 -72z" />
    </font>
</defs>
</svg>
